<?xml version="1.0" encoding="UTF-8"?>
<svg id="Layer_1" xmlns="http://www.w3.org/2000/svg" version="1.1" viewBox="0 0 500 500">
  <!-- Generator: Adobe Illustrator 29.1.0, SVG Export Plug-In . SVG Version: 2.1.0 Build 142)  -->
  <defs>
    <style>
      .st0, .st1, .st2 {
        fill: #004a99;
      }

      .st3, .st4 {
        fill: #37474f;
      }

      .st5, .st6, .st4, .st7, .st8, .st9, .st2, .st10, .st11, .st12, .st13, .st14, .st15, .st16 {
        isolation: isolate;
      }

      .st5, .st17, .st8, .st9, .st11, .st12, .st16 {
        fill: #fff;
      }

      .st5, .st18 {
        opacity: .9;
      }

      .st6, .st7, .st1, .st15 {
        fill-rule: evenodd;
      }

      .st6, .st10 {
        opacity: .1;
      }

      .st4, .st11 {
        opacity: .5;
      }

      .st7, .st2, .st14, .st16 {
        opacity: .2;
      }

      .st19 {
        fill: #263238;
      }

      .st20 {
        fill: #9a4a4d;
      }

      .st8 {
        opacity: .6;
      }

      .st21 {
        fill: #f7a27b;
      }

      .st9 {
        opacity: .4;
      }

      .st22 {
        fill: #e0e0e0;
      }

      .st12 {
        opacity: .7;
      }

      .st23, .st13, .st15 {
        opacity: .3;
      }

      .st24 {
        fill: #ffc83d;
      }

      .st25 {
        fill: #e5775e;
      }

      .st26 {
        fill: #455a64;
      }

      .st27 {
        fill: #ebebeb;
      }

      .st28 {
        fill: #f5f5f5;
      }

      .st29 {
        fill: #fafafa;
      }

      .st30 {
        fill: #fdb88e;
      }

      .st31 {
        fill: #e6e6e6;
      }
    </style>
  </defs>
  <g id="freepik--Floor--inject-1--inject-95">
    <path class="st28" d="M103,430.1c81.2,42.4,212.8,42.4,293.9,0,81.2-42.4,81.2-111.2,0-153.6-81.2-42.4-212.8-42.4-293.9,0-81.2,42.4-81.2,111.1,0,153.6Z"/>
  </g>
  <g id="freepik--Device--inject-2">
    <g id="freepik--Monitor--inject-2">
      <path class="st28" d="M229.9,382l41.9-24.3c4.3-2.5,6.5-5.8,6.5-9v-5.8l-39.5-22.4c-2.5-1.6-4-4.3-4.2-7.2v-51.7l-73.3,42.3v51.7c.2,2.9,1.7,5.6,4.2,7.2l33,19.2c8.7,5,22.7,5,31.4,0h0Z"/>
      <path class="st14" d="M179,364.7v5.8l-13.4-7.7c-2.5-1.6-4-4.3-4.2-7.2v-51.7l14-8.1c.3,3.5.6,7.2.9,10.8l-9.8,5.7v40.4c.2,2.9,1.7,5.6,4.2,7.2l8.4,4.8h0Z"/>
      <path class="st31" d="M166.5,352.7c.2,2.9,1.7,5.6,4.2,7.2l27.9,16.3c8.6,5,22.7,5,31.3,0l42-24.2c8.7-5,8.7-13.1,0-18.1l-27.9-16.3c-2.5-1.6-4-4.3-4.2-7.2v-40.4l-73.3,42.3v40.4h0Z"/>
      <path class="st14" d="M252.4,322.5h0l-8.5-4.9c-2.5-1.6-4-4.3-4.2-7.2v-40.4l-73.3,42.4v40.4c.2,2.9,1.7,5.6,4.2,7.2l8.4,4.8,73.4-42.3Z"/>
      <path class="st26" d="M79.2,384.5c2.7,1.6,7.2,1.5,10.1-.2l241-139.2c3.1-2,5-5.4,5.2-9V34.3c0-3.3-2.2-7.3-4.9-8.8s-7.2-1.5-10.1.2L79.5,164.8c-3.1,2-5,5.4-5.2,9v201.9c0,3.3,2.2,7.3,4.9,8.8Z"/>
      <path class="st3" d="M89.3,384.3l241.1-139.2c3.1-2,5-5.4,5.2-9V34.3c0-3.3-2.3-4.7-5.2-3L89.3,170.4c-3.1,2-5,5.4-5.2,9v201.9c0,3.3,2.3,4.7,5.2,3h0Z"/>
      <path class="st27" d="M84.1,363.6v17.8c0,3.3,2.3,4.7,5.2,3l241.1-139.2c3.1-2,5-5.4,5.2-9v-17.8l-251.5,145.2Z"/>
      <path class="st0" d="M91,347.1v-165.3c0-2.3,1.3-4.3,3.2-5.5L325.5,42.7c1.8-1,3.2-.2,3.2,1.8v165.3c-.1,2.3-1.3,4.3-3.2,5.5l-231.3,133.5c-1.8,1-3.2.2-3.2-1.9v.2Z"/>
      <g class="st23">
        <path d="M91,347.1v-165.3c0-2.3,1.3-4.3,3.2-5.5L325.5,42.7c1.8-1,3.2-.2,3.2,1.8v165.3c-.1,2.3-1.3,4.3-3.2,5.5l-231.3,133.5c-1.8,1-3.2.2-3.2-1.9v.2Z"/>
      </g>
      <path class="st19" d="M75.9,168.7l9.8,5.6c-.9,1.6-1.5,3.3-1.6,5.2v201.9c0,3,2,4.7,5.2,3-3.2,1.7-6.9,1.8-10.1.2-2.9-1.7-4.8-4.8-4.9-8.2v-202.4c0-1.8.6-3.6,1.6-5.2h0Z"/>
      <path class="st0" d="M205.3,303.5l11.8-6.8c1.1-.6,1.9-.2,1.9,1s-.8,2.5-1.9,3.2l-11.8,6.8c-1.1.6-1.9.2-1.9-.9s.8-2.5,1.9-3.2h0Z"/>
    </g>
  </g>
  <g id="freepik--Windows--inject-2">
    <g id="freepik--Window--inject-2">
      <g id="freepik--window--inject-2">
        <path class="st0" d="M96.5,200.6c-1.3-.9-2.2-2.4-2.2-4v-13c0-1.7,1-3.2,2.4-4.1L325.6,47.2c2.1-1.3,4.8-.7,6.1,1.4.5.8.7,1.6.7,2.5v13c0,1.7-1,3.2-2.4,4.1L101.1,200.5c-1.4.8-3.1.8-4.6,0h0Z"/>
        <path class="st16" d="M332.4,50.7c-.2-1.2-1.2-1.7-2.3-1L101.1,182c-.7.4-1.3,1.1-1.7,1.8l-4.4-2.6c.4-.7,1-1.3,1.7-1.8L325.6,47.2c2.1-1.3,4.8-.7,6.1,1.4.4.7.6,1.4.7,2.2h0Z"/>
        <path class="st14" d="M99.4,183.8c-.4.7-.7,1.5-.7,2.3v7.1l-4.5-2.6v-8c0-.5.3-1,.6-1.5l4.5,2.6h0Z"/>
        <path class="st0" d="M332.4,51.1v7.1l-160.3,92.6-67,38.7-6.5,3.8v-7.2c0-1.7,1-3.2,2.4-4.1L330.1,49.7c1.3-.8,2.4,0,2.4,1.4h-.1Z"/>
        <path class="st17" d="M326,55.6c.8-.5,1.5,0,1.5.9s-.6,2.1-1.5,2.6c-.8.5-1.5,0-1.5-.9s.6-2.1,1.5-2.6Z"/>
        <path class="st17" d="M320.5,58.8c.8-.5,1.5,0,1.5.9s-.6,2.1-1.5,2.7c-.8.5-1.5,0-1.5-.9s.6-2.1,1.5-2.7Z"/>
        <path class="st17" d="M314.9,62c.8-.5,1.5,0,1.5.9s-.6,2.1-1.5,2.6c-.8.5-1.5,0-1.5-.9s.6-2.1,1.5-2.6Z"/>
        <path class="st22" d="M101.1,348.5c-.6.3-1.2.5-1.8.6-.9.1-1.9,0-2.8-.5-1.3-.9-2.2-2.4-2.2-4v-153.8l4.5,2.5v153.8c0,1.1.5,1.7,1.3,1.7s.7-.1,1.1-.3h0Z"/>
        <path class="st29" d="M332.5,212.1c0,1.7-1,3.2-2.4,4.1l-229,132.3c-1.3.8-2.4.1-2.4-1.4v-153.8l6.5-3.8,67-38.7,160.3-92.6v153.8h0Z"/>
        <path class="st27" d="M331.5,59.9v152.2c0,1.3-.8,2.5-1.9,3.3l-229,132.2c-.2.1-.4.2-.6.2-.3,0-.4-.5-.4-.8v-153.3l6.1-3.5,67-38.7,158.9-91.8M332.4,58.3l-160.2,92.6-67,38.7-6.5,3.8v153.8c0,1.1.5,1.7,1.3,1.7s.7-.1,1.1-.3l229-132.3c1.4-.9,2.3-2.4,2.4-4.1V58.3h-.1Z"/>
      </g>
    </g>
    <g id="freepik--box--inject-2">
      <path id="freepik--shadow--inject-2" class="st10" d="M307.8,85.9l-122.2,70.5c-.8.5-1.2,1.3-1.3,2.2v114.8c0,.8.6,1.1,1.3.7l122.2-70.5c.8-.5,1.2-1.3,1.3-2.2v-114.9c0-.8-.5-1.1-1.3-.7h0Z"/>
      <g id="freepik--box--inject-21">
        <g id="freepik--box--inject-22">
          <path class="st0" d="M312.7,89.7l-122.2,70.5c-.8.5-1.2,1.3-1.3,2.2v114.9c0,.9.5,1.7,1.3,2.2l2.4,1.4c.8.4,1.7.4,2.6,0l122.2-70.5c.8-.5,1.2-1.3,1.3-2.2v-114.9c0-.9-.5-1.7-1.3-2.2l-2.4-1.4c-.8-.4-1.8-.4-2.6,0h0Z"/>
          <path class="st11" d="M195.5,280.8c-.8.4-1.7.4-2.6,0l-2.4-1.4c-.8-.5-1.2-1.3-1.3-2.2v-114.8c0-.5.2-.9.4-1.3l5,2.9c-.2.4-.4.8-.4,1.3v114.8c0,.7.5,1.2,1.3.7Z"/>
          <path class="st5" d="M318.9,93c0-.6-.6-.9-1.3-.5l-122.2,70.5c-.4.2-.7.5-.9.9l-5-2.9c.2-.4.5-.7.9-.9l122.2-70.5c.8-.4,1.8-.4,2.6,0l2.4,1.4c.7.4,1.2,1.1,1.3,2Z"/>
          <path class="st12" d="M317.7,92.5l-122.2,70.5c-.7.5-1.2,1.3-1.3,2.2v114.9c0,.8.6,1.1,1.3.7l122.2-70.5c.8-.5,1.2-1.3,1.3-2.2v-114.8c0-.8-.5-1.1-1.3-.7h0Z"/>
        </g>
      </g>
      <path class="st2" d="M205.6,168.8l45.6-26.3c1.1-.6,2-.1,2,1.2v35c0,1.4-.8,2.7-2,3.5l-45.6,26.3c-1.1.7-2,.1-2-1.2v-35c0-1.4.8-2.7,2-3.5h0Z"/>
      <path class="st2" d="M262.1,182.9l45.6-26.3c1.1-.6,2-.1,2,1.2v43.9c0,1.4-.8,2.7-2,3.5l-45.5,26.3c-1.1.6-2,.1-2-1.2v-43.8c0-1.4.8-2.7,2-3.5h0Z"/>
      <path class="st2" d="M233,199.6l18.2-10.5c1.1-.6,2-.1,2,1.2v17.4c0,1.4-.8,2.7-2,3.5l-18.2,10.5c-1.1.6-2,.1-2-1.2v-17.4c0-1.4.8-2.7,2-3.5Z"/>
      <path class="st2" d="M233,226.1l18.2-10.5c1.1-.6,2-.1,2,1.2v17.4c0,1.4-.8,2.7-2,3.5l-18.2,10.5c-1.1.6-2,.1-2-1.2v-17.4c0-1.4.8-2.7,2-3.5Z"/>
    </g>
    <g id="freepik--box--inject-23">
      <path id="freepik--shadow--inject-21" class="st10" d="M228.2,233.7l-23.4,13.5c-.7.5-1.2,1.3-1.3,2.2v18h0c0,.8.6,1.1,1.3.7l23.4-13.5c.8-.5,1.2-1.3,1.3-2.2v-18c0-.8-.6-1.1-1.3-.7h0Z"/>
      <g id="freepik--box--inject-24">
        <g id="freepik--box--inject-25">
          <path class="st22" d="M233.1,237.4l-23.4,13.5c-.8.5-1.2,1.3-1.3,2.2v18c0,.9.5,1.7,1.3,2.2l2.4,1.4c.8.4,1.7.4,2.6,0l23.4-13.5c.8-.5,1.2-1.3,1.3-2.2v-18c0-.9-.5-1.7-1.3-2.2l-2.4-1.4c-.8-.4-1.8-.4-2.6,0h0Z"/>
          <path class="st29" d="M239.4,240.7c-.1-.6-.6-.9-1.3-.5l-23.4,13.5c-.4.2-.7.5-.9.9l-5-2.9c.2-.4.5-.7.9-.9l23.4-13.5c.8-.4,1.8-.4,2.6,0l2.4,1.4c.7.4,1.2,1.2,1.3,2Z"/>
          <path class="st29" d="M238.2,240.2l-23.4,13.5c-.8.5-1.2,1.3-1.3,2.2v18c0,.8.6,1.1,1.3.7l23.4-13.5c.8-.5,1.2-1.3,1.3-2.2v-18c0-.8-.6-1.1-1.3-.7h0Z"/>
          <path class="st27" d="M238.5,241.1v17.8c0,.6-.3,1.1-.8,1.4l-23.2,13.4v-17.8c0-.6.3-1.1.8-1.4l23.2-13.5M238.7,240.1c-.2,0-.4,0-.6.2l-23.4,13.5c-.8.5-1.2,1.3-1.3,2.2v18c0,.6.3.9.7.9s.4,0,.6-.2l23.4-13.6c.8-.5,1.2-1.3,1.3-2.2v-18c0-.6-.3-.9-.7-.9h0Z"/>
        </g>
      </g>
      <path class="st0" d="M236.4,244v15c0,.2-.1.4-.3.6l-19.6,11.4v-15c0-.2.1-.4.3-.6l19.6-11.3M236.5,243.5h-.2l-19.7,11.4c-.3.2-.5.5-.5.9v15.1c0,.2.1.4.3.4h.2l19.7-11.3c.3-.2.5-.5.5-.9v-15.1c0-.2-.1-.4-.3-.4h0Z"/>
      <path class="st0" d="M230.2,254.9l5,1.8v1.9l-17.4,10v-4.5l4.8-8.8,4.2,2.4-1.4,3.5c0,.2,0,.5.2.6h.2c.2,0,.3,0,.4-.2l3.9-6.8M229.9,254.3l-4.1,7.2,1.5-3.9-5-2.8-5.1,9.3v5.4l18.3-10.6v-2.5l-5.6-2.1h0Z"/>
      <path class="st0" d="M232.3,249.5h0c.3,0,.3.3.3.5,0,.8-.5,1.5-1.1,1.9-.1,0-.2.1-.4.1h-.2c0-.1-.1-.3-.1-.4,0-.8.5-1.5,1.1-2,.1,0,.2-.1.4-.1M232.3,249.1c-.2,0-.4,0-.6.2-.8.5-1.3,1.4-1.3,2.3s.3.9.7.9.4,0,.6-.2c.8-.5,1.3-1.4,1.3-2.3s-.3-1-.7-1h0Z"/>
    </g>
    <g id="freepik--box--inject-26">
      <path id="freepik--shadow--inject-22" class="st10" d="M228.2,202.8l-23.4,13.5c-.8.5-1.2,1.3-1.3,2.2v18h0c0,.8.6,1.1,1.3.7l23.4-13.5c.8-.5,1.2-1.3,1.3-2.2v-18c0-.8-.6-1.1-1.3-.7Z"/>
      <g id="freepik--box--inject-27">
        <g id="freepik--box--inject-28">
          <path class="st22" d="M233.1,206.6l-23.4,13.5c-.8.5-1.2,1.3-1.3,2.2v18c0,.9.5,1.7,1.3,2.2l2.4,1.4c.8.4,1.7.4,2.6,0l23.4-13.6c.8-.5,1.2-1.3,1.3-2.2v-18c0-.9-.5-1.7-1.3-2.2l-2.4-1.4c-.8-.4-1.8-.4-2.6,0h0Z"/>
          <path class="st29" d="M239.4,209.9c-.1-.6-.6-.9-1.3-.5l-23.4,13.5c-.4.2-.7.5-.9.9l-5-2.9c.2-.4.5-.7.9-.9l23.4-13.5c.8-.4,1.8-.4,2.6,0l2.4,1.4c.7.4,1.2,1.2,1.3,2Z"/>
          <path class="st29" d="M238.2,209.4l-23.4,13.5c-.8.5-1.2,1.3-1.3,2.2v18c0,.8.6,1.1,1.3.7l23.4-13.5c.8-.5,1.2-1.3,1.3-2.2v-18c0-.8-.6-1.2-1.3-.7Z"/>
          <path class="st27" d="M238.5,210.3v17.8c0,.6-.3,1.1-.8,1.4l-23.2,13.4v-17.8c0-.6.3-1.1.8-1.4l23.2-13.4M238.7,209.2c-.2,0-.4,0-.6.2l-23.4,13.5c-.8.5-1.2,1.3-1.3,2.2v18c0,.6.3.9.7.9s.4,0,.6-.2l23.4-13.5c.8-.5,1.2-1.3,1.3-2.2v-18c0-.6-.3-.9-.7-.9h0Z"/>
        </g>
      </g>
      <path class="st0" d="M236.4,213.2v15c0,.2-.1.4-.3.6l-19.6,11.3v-15c0-.2.1-.4.3-.6l19.6-11.3M236.5,212.7h-.2l-19.7,11.4c-.3.2-.5.5-.5.9v15.1c0,.2.1.4.3.4h.2l19.7-11.4c.3-.2.5-.5.5-.9v-15.1c0-.2-.1-.4-.3-.4h0Z"/>
      <path class="st0" d="M230.2,224.1l5,1.8v1.9l-17.4,10v-4.5l4.8-8.8,4.2,2.4-1.4,3.5c0,.2,0,.5.2.6h.2c.2,0,.3,0,.4-.2l3.9-6.8M229.9,223.5l-4.1,7.1,1.5-3.9-5-2.8-5.1,9.3v5.4l18.3-10.6v-2.5l-5.6-2.1h0Z"/>
      <path class="st0" d="M232.3,218.7h0c.3,0,.3.3.3.5,0,.8-.5,1.5-1.1,2-.1,0-.2.1-.4.1h-.2c0-.1-.1-.3-.1-.4,0-.8.5-1.5,1.1-2,.1,0,.2-.1.4-.1M232.3,218.3c-.2,0-.4,0-.6.2-.8.5-1.3,1.4-1.3,2.3s.3.9.7.9.4,0,.6-.2c.8-.5,1.3-1.4,1.3-2.3s-.3-.9-.7-.9Z"/>
    </g>
  </g>
  <g id="freepik--ad-2--inject-507">
    <g id="freepik--ad--inject-507">
      <g id="freepik--speech-bubble--inject-507">
        <path class="st27" d="M111.3,201v-.2h0v.2Z"/>
        <path class="st4" d="M174.4,164.8c0-.2-.2-.3-.4-.3s-.3,0-.4.1l-61.6,35.6c-.2.2-.4.4-.6.6l-2.4-1.4c0-.2.3-.4.6-.6l61.6-35.6c.5-.3,1.1-.3,1.6,0l.8.5c.4.3.7.7.8,1.1h0Z"/>
        <g class="st18">
          <path class="st19" d="M112,324.6c-.5.3-1.1.3-1.6,0l-.8-.5c-.5-.3-.8-.8-.8-1.4v-122.5c0-.3,0-.6.3-.8l2.5,1.4c-.2.2-.2.5-.2.8v122.6c0,.5.3.7.8.4h-.2Z"/>
        </g>
        <g class="st18">
          <path class="st3" d="M174,164.5c-.1,0-.3,0-.4.1l-61.6,35.6c-.5.3-.8.8-.8,1.4v122.6c0,.4.2.6.5.6s.3,0,.4-.1l61.6-35.6c.5-.3.8-.8.8-1.4v-122.6c0-.4-.2-.6-.4-.6h-.1Z"/>
        </g>
        <path class="st26" d="M173.9,165.1v122.5c0,.4-.2.7-.5.9l-61.6,35.6v-122.5c0-.4.2-.7.5-.9l61.6-35.6M174,164.5c-.1,0-.3,0-.4.1l-61.6,35.6c-.5.3-.8.8-.8,1.4v122.6c0,.4.2.6.5.6s.3,0,.4-.1l61.6-35.6c.5-.3.8-.8.8-1.4v-122.6c0-.4-.2-.6-.4-.6h-.1Z"/>
      </g>
      <path id="freepik--shadow--inject-507" class="st13" d="M167.7,283.9v-111.2c0-1.1-.7-1.5-1.7-1l-49.7,28.7c-1,.6-1.6,1.7-1.7,2.9v111.2c0,1.1.7,1.5,1.7,1l49.7-28.7c1-.6,1.6-1.7,1.7-2.9h0Z"/>
      <g id="freepik--ad--inject-5071">
        <path class="st0" d="M169.3,284.9v-111.2c0-1.1-.7-1.5-1.7-1l-49.7,28.7c-1,.6-1.6,1.7-1.7,2.9v111.2c0,1.1.7,1.5,1.7,1l49.7-28.7c1-.7,1.6-1.7,1.6-2.9h0Z"/>
        <path class="st16" d="M169.3,284.9v-111.2c0-1.1-.7-1.5-1.7-1l-49.7,28.7c-1,.6-1.6,1.7-1.7,2.9v111.2c0,1.1.7,1.5,1.7,1l49.7-28.7c1-.7,1.6-1.7,1.6-2.9h0Z"/>
        <g id="freepik--text--inject-507">
          <path class="st8" d="M116.3,315.5c0,1.1.7,1.5,1.7,1l49.7-28.7c1-.6,1.6-1.7,1.7-2.9v-52.3l-53,51.1v31.8h0Z"/>
          <path class="st3" d="M126.5,259.7h.2v1.8c0,.1,0,.3,0,.4,0,.1,0,.2-.2.3l-2.9,2.7v2.1l2.6-2.5h.2c0,0,0,.1,0,.2v1.6c0,.1,0,.2,0,.4,0,.1,0,.2-.2.3l-2.6,2.5v3.3c0,.1,0,.2-.2.4,0,.1,0,.2-.2.3l-1.2,1.2h-.2c0,0,0,0,0-.2l.3-9.9v-.4c0-.1,0-.2.2-.3l4.4-4.2h0Z"/>
          <path class="st3" d="M127.7,269h-.2c0,0,0,0,0-.2l.3-9.9v-.4c0-.1,0-.2.2-.3l1.2-1.2h.2v.2l-.3,9.9v.4c0,.1,0,.2-.2.3l-1.2,1.2Z"/>
          <path class="st3" d="M135,262c0,0-.2.1-.2.1,0,0,0,0,0-.1l-2.2-3-.2,5.2v.4c0,.1,0,.2-.2.3l-1.2,1.2h-.2c0,0,0,0,0-.2l.3-9.9v-.4c0-.1,0-.2.2-.3l.8-.8c0,0,.2-.1.3-.1h0l2.2,3,.2-5.2v-.4c0-.1,0-.2.2-.3l1.2-1.2h.2v.2l-.3,10v.4c0,.1,0,.2-.2.3l-.8.7h-.1Z"/>
          <path class="st3" d="M141.4,245.5c0-.1.2-.2.3-.1,0,0,0,.1,0,.2l1.8,7.7c0,.3,0,.5-.2.7l-1.1,1.1c0,.1-.2.2-.3.1v-.2l-.2-1-2.5,2.4-.3,1.5c0,.1,0,.2,0,.3,0,.1-.2.3-.3.4l-1.3,1.3h-.2v-.4l2.4-11.7c0-.2,0-.3,0-.5,0-.2.2-.3.3-.4l1.6-1.5h-.1ZM139.6,253.7l1.5-1.5-.7-3-.9,4.4h0Z"/>
          <path class="st3" d="M149,246.2h.2c0,0,0,.1,0,.2v1.6c0,.1,0,.2,0,.4,0,.1,0,.2-.2.3l-4.4,4.2h-.2v-.2l.3-9.9v-.4c0-.1,0-.2.2-.3l1.2-1.2h.2c0,0,0,0,0,.2l-.2,7.9,2.9-2.7h0Z"/>
          <path class="st17" d="M134,274.6c0-.6,0-1.2.2-1.8,0-.6.3-1.2.5-1.8.2-.6.5-1.2.9-1.7.4-.6.8-1.1,1.3-1.6.3-.3.7-.6,1.2-.8.3-.1.6-.1.9,0s.5.4.6.7c.2.4.2.9.2,1.4v2.8c0,.6,0,1.2-.2,1.8,0,.6-.3,1.2-.5,1.8-.2.6-.5,1.2-.9,1.7-.4.6-.8,1.1-1.3,1.6-.3.3-.7.6-1.2.8-.3.1-.6.1-.9,0-.3-.2-.5-.4-.6-.7-.2-.4-.2-.9-.2-1.4v-2.7h0ZM138.1,273.2v-3.2c0-.1,0-.3-.2-.3h-.4c-.2,0-.4.2-.5.3-.2.2-.4.4-.5.6s-.3.5-.4.7c-.2.5-.3,1-.4,1.6v2.6c0,.3,0,.7.3,1,.2.2.5,0,.9-.3.4-.4.7-.8.9-1.3.2-.5.3-1.1.4-1.6h-.1Z"/>
          <path class="st17" d="M145.8,259.4h.2v1.8c0,.1,0,.3,0,.4,0,.1,0,.2-.2.3l-2.9,2.7v2.1l2.6-2.5h.2c0,0,0,.1,0,.2v1.6c0,.1,0,.2,0,.4,0,.1,0,.2-.2.3l-2.6,2.6v3.3c0,.1,0,.2-.2.4,0,.1,0,.2-.2.3l-1.2,1.2h-.2c0,0,0,0,0-.2l.3-9.9v-.4c0-.1,0-.2.2-.3l4.3-4.2h0Z"/>
          <path class="st17" d="M151.7,253.8h.2c0,0,0,0,0,.2v1.7c0,.1,0,.3,0,.4,0,.1,0,.2-.2.3l-2.9,2.7v2.1l2.6-2.5h.2c0,0,0,.1,0,.2v1.6c0,.1,0,.2,0,.4,0,.1,0,.2-.2.3l-2.6,2.5v3.3c0,.1,0,.2-.2.4,0,.1,0,.2-.2.3l-1.2,1.2h-.2c0,0,0,0,0-.2l.3-9.9v-.4c0-.1,0-.2.2-.3l4.3-4.2h0Z"/>
          <path class="st17" d="M157.4,256.3h.2v1.8c0,.1,0,.2-.1.4,0,.1-.1.2-.2.3l-4.5,4.3h-.2v-.2l.3-9.9v-.4c0-.1,0-.2.2-.3l4.4-4.2h.2v1.8c0,.1,0,.3-.1.4,0,.1,0,.2-.2.3l-2.9,2.8v1.7l2.7-2.6h.2v1.8c0,.1,0,.3-.1.4,0,.1-.1.2-.2.3l-2.7,2.6v1.7l3-2.9h0Z"/>
          <path class="st17" d="M161.8,244.1c.3-.3.7-.6,1-.8s.6-.2.9-.1c.3,0,.5.3.6.6.2.4.2.9.2,1.4s-.1,1.5-.4,2.1c-.2.7-.5,1.3-.9,1.9l1.1,2.5h0v.4s0,.2-.1.2l-1.2,1.1c-.1.1-.2.2-.3.1h-.1c0-.1-.9-2.4-.9-2.4l-1,.9v3.3c-.1.1-.1.2-.2.4,0,.1-.1.2-.2.3l-1.2,1.2h-.2v-.2l.3-9.9v-.4c0-.1,0-.2.2-.3l2.5-2.4h-.1ZM160.7,249.7l1.1-1c.3-.3.5-.5.7-.9s.3-.7.3-1.1,0-.6-.2-.6c-.3,0-.5.2-.6.4l-1.1,1v2.3h-.2Z"/>
          <path class="st17" d="M129.9,232.2c0,.1-.2.1-.3,0s0-.2,0-.4v-2.9l-5.7,5.6c0,.1-.2.2-.3,0s0-.2,0-.4v-3c0-.5.2-1,.3-1.4l5.5-15.7c0-.2.2-.5.3-.7,0-.2.2-.3.4-.4l3-2.9c0-.1.2-.2.3,0s0,.2,0,.4l-.3,10.9,1.3-1.3c0-.1.2-.1.3,0,0,.1,0,.3,0,.4v3c0,.2-.2.5-.2.7s-.2.4-.3.5l-1.3,1.3v2.9c0,.2-.2.4-.2.7s-.2.4-.3.5l-2.3,2.2h-.2ZM129.8,224.4l.2-5.2-2.7,7.6,2.5-2.4h0Z"/>
          <path class="st17" d="M141.5,201.6c.6-.7,1.4-1.2,2.2-1.5.5-.2,1.1-.2,1.6.1.5.4.8.9.9,1.4.2.8.3,1.7.3,2.5v2.5c0,.9,0,1.7,0,2.5,0,1.1-.2,2.1-.4,3.2-.2,1.1-.5,2.2-.9,3.2-.4,1.1-.9,2.1-1.5,3.1-.7,1.1-1.5,2-2.4,2.9-.6.6-1.3,1.1-2.1,1.4-.5.2-1.1.2-1.6-.1-.5-.4-.8-.9-1-1.4-.3-.8-.4-1.7-.3-2.5v-2.5c0-.9,0-1.7,0-2.6,0-1.1.2-2.1.4-3.2.2-1.1.5-2.2.8-3.2.4-1.1.9-2.1,1.5-3.1.7-1.1,1.5-2,2.4-2.9v.2ZM143.2,212.2c0-1.7,0-3.2,0-4.8v-1.2c0-.3,0-.5-.3-.7,0-.2-.3-.2-.5-.2-.3.1-.6.3-.9.6s-.6.7-.9,1.1l-.6,1.2c-.2.4-.3.9-.3,1.3s0,.9-.2,1.4c0,1.6-.2,3.2-.2,4.7v1.2c0,.3,0,.5.3.7,0,.2.3.2.5.2.3-.1.6-.3.9-.6s.6-.7.9-1.1l.6-1.2c.2-.4.3-.9.3-1.3s0-.9.2-1.4h0Z"/>
          <path class="st17" d="M153.7,194.2v2.1c0,.6,0,1.1-.2,1.7,0,.5-.2,1.1-.4,1.6-.4,1.2-1.1,2.2-2,3-.3.3-.7.6-1.1.8-.3.1-.6,0-.9,0-.3-.2-.5-.4-.6-.7-.2-.4-.2-.9-.2-1.3v-2.1c0-.6,0-1.1.2-1.7,0-.5.2-1.1.4-1.6.2-.5.5-1.1.8-1.5.4-.5.8-1,1.2-1.5.3-.3.7-.6,1.1-.8.3-.1.6,0,.9,0,.3.2.5.4.6.7.2.4.2.9.2,1.4h0ZM151.7,210.9c0,.2-.2.4-.3.6,0,.2-.2.4-.4.5l-1.6,1.6c-.2.2-.3.2-.4,0v-.6l9.2-26.6c0-.2.2-.4.3-.6,0-.2.2-.4.4-.5l1.6-1.6c.2-.2.3-.2.4,0v.6l-9.2,26.6ZM150.2,199.3c0,.3,0,.6,0,.9,0,.2.3.1.5-.1.3-.2.4-.5.5-.9s.2-.9.2-1.3v-1.9c0-.3,0-.6,0-.9,0-.1-.3-.1-.5.1-.3.2-.4.5-.5.9s-.2.8-.2,1.3v1.9ZM161.9,195.9v2.1c0,.6,0,1.1-.2,1.7,0,.5-.2,1.1-.4,1.6s-.5,1.1-.8,1.5c-.4.5-.8,1-1.2,1.5-.3.3-.7.6-1.1.8-.3.1-.6,0-.9,0-.3-.2-.5-.4-.6-.7-.2-.4-.2-.9-.2-1.3v-2.1c0-.6.1-1.1.2-1.7.2-1.1.6-2.2,1.2-3.1.4-.5.8-1,1.2-1.5.3-.3.7-.6,1.1-.8.3-.1.6,0,.9,0,.3.2.5.4.6.7.2.4.2.9.2,1.4h0ZM158.4,201.1c0,.3,0,.6.1.9,0,.1.3.1.5-.1.3-.2.4-.5.5-.9s.2-.9.2-1.3v-1.9c0-.3,0-.6-.1-.9,0-.2-.3-.1-.5.1-.3.2-.4.5-.5.9s-.2.9-.2,1.3v1.9h0Z"/>
          <path class="st17" d="M140,229.6c0-.7,0-1.4.3-2,0-.7.3-1.3.6-2,.3-.7.6-1.3,1-1.9.4-.6.9-1.2,1.5-1.8.4-.4.8-.7,1.3-.9.3-.1.7-.1,1,0,.3.2.6.4.7.8.2.5.3,1,.2,1.5v3c0,.7,0,1.4-.3,2,0,.7-.4,1.4-.6,2-.3.7-.6,1.3-1,1.9-.4.6-.9,1.2-1.5,1.8-.4.4-.8.7-1.3.9-.3.1-.7.1-1,0-.3-.2-.6-.4-.7-.8-.2-.5-.3-1-.2-1.5v-3.1h0ZM144.6,228.1v-3.6c0-.2,0-.3-.2-.4h-.4c-.2,0-.4.2-.6.4s-.4.5-.6.7c-.2.3-.3.5-.4.8s-.2.6-.3.9c0,.3,0,.6,0,.9v2.9c0,.4,0,.8.3,1.1s.5,0,1-.4c.4-.4.8-.9,1-1.5s.3-1.2.4-1.8h-.1Z"/>
          <path class="st17" d="M153.2,212.6h.2c0,0,0,.1,0,.2v1.8c0,.1,0,.3-.2.4,0,.1,0,.2-.2.3l-3.2,3.1v2.4l2.9-2.9h.2c0,0,0,.1,0,.2v1.8c0,.1,0,.3,0,.4,0,.1,0,.2-.2.3l-3,2.9v3.7c0,.1,0,.3-.2.4,0,.1,0,.2-.2.3l-1.4,1.3h-.2c0,0,0-.1,0-.2l.4-11.2v-.4c0-.1,0-.2.2-.3l4.9-4.7v.2Z"/>
          <path class="st17" d="M159.8,206.3h.2c0,0,0,.1,0,.2v1.8c0,.1-.1.3-.2.4,0,.1-.1.2-.2.3l-3.2,3v2.4l2.9-2.9h.2c0,0,0,.1,0,.2v1.8c0,.1,0,.3-.1.4,0,.1-.1.2-.2.3l-3,2.9v3.7c-.1.1-.2.3-.2.4s-.1.2-.2.3l-1.4,1.3h-.2c0,0,0-.1,0-.2l.4-11.1v-.4c0-.1,0-.2.2-.3l4.9-4.7v.2Z"/>
          <path class="st29" d="M125.7,249.7h0c-.2,0-.3-.2-.2-.4v-8c0-.1.2-.2.3-.2l4.4-.5c.2,0,.3,0,.3.3h0v.4l-4.3,8.3-.2.2h-.3ZM125.9,241.5h0v7.8l4.3-8.1h0c0-.1-4.3.4-4.3.4h0Z"/>
          <path class="st29" d="M129,246.3h0c0,0-.2-.2-.2-.3v-7.8c0-.2,0-.4.3-.5h0l4.4-.5s.2,0,.2.1v.5l-4.4,8.4c0,.1-.2.2-.3.2h0ZM129.1,238h0v7.7l4.3-8.2h0l-4.2.5h-.1Z"/>
          <path class="st29" d="M132.7,242.8h0c-.2,0-.3-.2-.3-.4v-8.1c0-.1.2-.2.3-.2l4.3-.5c.2,0,.3,0,.3.3h0v.4l-4.3,8.3s0,.1-.2.2h-.2,0ZM132.8,234.5h0v7.8l4.3-8.1h0c0-.1-4.3.4-4.3.4h0Z"/>
          <path class="st3" d="M132.1,291.4v-3.2l-.4.3h0v-.2h0v-.3h0l1.4-.8h0v.2h0v.3h0l-.4.3v3.2c0,.1,0,.2-.2.3h0c0,.1-.2.1-.2,0h-.1Z"/>
          <path class="st3" d="M133.4,290.7v-3.7c0-.1,0-.2.2-.3h0c0-.1.2-.1.2,0v1.4l.7-.4v-1.4c0-.1,0-.2.2-.3h0c0-.1.2-.1.2,0v3.6c0,.1,0,.2-.2.3h0c0,.1-.2.1-.2,0v-1.5l-.7.4v1.5c0,.1,0,.2-.2.3h0c0,.1-.2,0-.2,0h0Z"/>
          <path class="st3" d="M135.6,289.4v-3.6c0-.1,0-.2.2-.3h0c0-.1.2-.1.2,0v3.7c0,.1,0,.2-.2.3h0c0,.1-.2,0-.2,0h0Z"/>
          <path class="st3" d="M136.7,288.9h-.3v-.7h.4s.2-.1.2-.2,0-.3,0-.4v-.3s-.2-.1-.3-.1-.2,0-.3-.1c0,0-.2-.2-.2-.3v-.5c0-.3,0-.6.2-.9,0-.2.3-.5.5-.6h.5v.6h-.3c0,0-.2.1-.2.2v.6h0c0,.1.2.1.2.1.2.1.3.2.4.3,0,.2,0,.4,0,.6v.6c0,.2,0,.4-.3.6,0,.2-.3.3-.4.4,0,0-.2.1-.4.2h.1Z"/>
          <path class="st3" d="M138.9,287.6l-.5-3.4h0c0-.2,0-.3.2-.3h0c0-.1.2-.1.2,0l.2,2.1v.8-.8l.3-2.5h0q0-.1,0-.1h0s0-.1,0-.1h0l.3,2.2v.7-.8l.3-2.4c0-.1,0-.2.2-.3h.2l-.5,4s0,.2-.2.2h-.2c0,.2,0,.2,0,.1l-.3-2v-.6.7l-.3,2.3s0,.2-.2.2h-.2c0,.2,0,.1,0,0h.4Z"/>
          <path class="st3" d="M141.4,286.2h0v-3.8h0c0-.1,1.1-.7,1.1-.7h0v.2h0v.3h0l-.7.4v1l.6-.4h0v.2h0v.3h0l-.6.4v1.1l.7-.4h0v.2h0v.3h0l-1.1.6h0v.3Z"/>
          <path class="st3" d="M143,285.2h0v-3.9h0l1.1-.6h0v.2h0v.3h0l-.7.4v1l.6-.4h0v.2h0v.3h0l-.6.4v1.1l.7-.4h0v.2h0v.3h0l-1.1.6h0v.3Z"/>
          <path class="st3" d="M146.3,283.3s0,.1-.2.2h-.2c0,.1,0,.2,0,.2h0l-.6-1.4v1.7c0,.1,0,.2-.2.3h0c0,.1-.2.1-.2,0v-3.6c0-.1,0-.2.2-.3h0c0-.1.2-.1.2,0v1.7h0l.6-2.1h0q0-.1,0-.1h0c0-.2.2-.2.2,0h0c0,.1-.6,2.2-.6,2.2l.7,1.4h0v-.2Z"/>
          <path class="st3" d="M147,281c0-1.3.3-2.2.9-2.5s.9.1.9,1.5-.3,2.2-.9,2.5-.9-.1-.9-1.5ZM148.2,281.4c0-.4,0-.7,0-1.1s0-.7,0-1c0-.2-.2-.2-.3-.1-.2.1-.3.3-.3.5,0,.4,0,.7,0,1.1s0,.7,0,1c0,.1,0,.2.3.2h0c.2-.1.3-.3.3-.5h0Z"/>
          <path class="st3" d="M149.2,281.6v-3.6c0-.1,0-.2.2-.3h0l.7,1.7s0,.2,0,.3h0v-2.4c0-.1,0-.2.2-.3h0c0-.1.2,0,.2,0v3.6c0,.1,0,.2-.2.3h0l-.8-1.7v-.3h0v2.5c0,.1,0,.2-.2.3h-.2,0Z"/>
          <path class="st3" d="M151.4,280.4h0v-3.7c0-.1,0-.2.2-.3h0c0-.1,0-.1,0-.1h0v3.2l.6-.4h0v.2h0v.3h0l-1,.6h0v.2Z"/>
          <path class="st3" d="M153,279.3v-1.6l-.6-1.6h0c0-.1,0-.2.2-.3h0q0-.1,0-.1h0l.3,1.3.3-1.7h0q0-.1,0-.1h0c0-.1.2-.1.2,0h0c0,.1-.6,2.4-.6,2.4v1.6c0,.1,0,.2-.2.3h0q-.2.1-.2,0l.3-.2Z"/>
          <path class="st3" d="M149.6,290.9l-13.5,7.8c-.2,0-.3,0-.3-.2v-4.6c0-.2,0-.4.3-.6l13.5-7.8c.2,0,.3,0,.3.2v4.6c0,.2,0,.4-.3.6Z"/>
          <path class="st17" d="M138.4,295.9h0v-2.4h0c0-.1.4-.4.4-.4.2,0,.3-.1.4,0s0,.3,0,.4v.4c0,.1,0,.2-.2.3h.2v.4c0,.2,0,.4,0,.6,0,.2-.2.3-.4.4l-.5.3h0ZM138.9,294.1s0-.1,0-.2v-.5h-.3v.8h.2ZM138.9,295.2c0,0,.2-.3.2-.5v-.2h-.4v.9h.2v-.2Z"/>
          <path class="st17" d="M139.9,294.9c0,0-.2-.2-.2-.5v-1.8s0-.2,0-.2h0c0-.1,0,0,0,0v2h.2l.2-.2v-2.1s0-.2,0-.2h0v1.8c0,.2,0,.5-.2.7,0,.2-.2.4-.4.5,0,.1-.3.2-.4,0h.4Z"/>
          <path class="st17" d="M141.5,294.1v-1.1l-.4-1.1h0c0-.1.2.8.2.8l.2-1.1h0c0-.1,0-.1,0-.1h0c0,.1-.4,1.7-.4,1.7v1.1s0,.2,0,.2h0c0,.1-.2,0-.2,0l.5-.4Z"/>
          <path class="st17" d="M142.8,293.3v-2.5s0-.2,0-.2h0l.5,1.1v.2h0v-1.7s0-.2,0-.2h0v2.5s0,.2,0,.2h0l-.5-1.2v-.2h0v1.6s0,.2,0,.2h0c0,.1,0,.1,0,0v.2Z"/>
          <path class="st17" d="M144.2,291.2c0-.9.2-1.5.6-1.8s.6,0,.6,1-.2,1.5-.6,1.8-.6,0-.6-1ZM145.1,291.4v-1.5c0-.1,0-.1-.2,0,0,0-.2.2-.2.3v1.5c0,.1,0,.2.2,0,0,0,.2-.2.2-.4h0Z"/>
          <path class="st17" d="M145.9,291.5l-.3-2.3h0s0-.1,0-.2h0l.2,1.5v.5-.6l.2-1.7h.2l.2,1.6v.5-.6l.2-1.7s0-.2,0-.2h0l-.3,2.8s0,.1,0,.1h0q0,.1,0,0l-.2-1.4v-.4.5l-.2,1.6s0,.1,0,.1h0,.1Z"/>
        </g>
      </g>
      <g id="freepik--x--inject-507">
        <path class="st0" d="M177.2,162.7l-1.5-.9h0c-.8-.4-1.8-.3-2.5.3-2.1,1.4-3.4,3.7-3.6,6.2,0,.9.3,1.8,1,2.3h0l1.4.8.3-.5c.4,0,.7-.2,1-.4,2.1-1.4,3.4-3.7,3.6-6.2,0-.3,0-.6-.1-.9l.4-.6h0Z"/>
        <path class="st16" d="M177.2,162.7l-1.5-.9h0c-.8-.4-1.8-.3-2.5.3-2.1,1.4-3.4,3.7-3.6,6.2,0,.9.3,1.8,1,2.3h0l1.4.8.3-.5c.4,0,.7-.2,1-.4,2.1-1.4,3.4-3.7,3.6-6.2,0-.3,0-.6-.1-.9l.4-.6h0Z"/>
        <path class="st0" d="M169.7,167.1c0,.4-.1.8-.1,1.2,0,.9.3,1.8,1,2.3h0l1.4.8.3-.5c.4,0,.7-.2,1-.4s.7-.4,1-.7l-4.6-2.7h0Z"/>
        <path class="st0" d="M174.6,162.9c-2.1,1.4-3.4,3.7-3.6,6.2,0,2.3,1.6,3.2,3.6,2.1,2.1-1.4,3.4-3.7,3.6-6.2,0-2.3-1.6-3.2-3.6-2.1Z"/>
        <path class="st9" d="M174.6,162.9c-2.1,1.4-3.4,3.7-3.6,6.2,0,2.3,1.6,3.2,3.6,2.1,2.1-1.4,3.4-3.7,3.6-6.2,0-2.3-1.6-3.2-3.6-2.1Z"/>
        <path class="st29" d="M175.1,167l1-2.1c.1-.2.1-.5,0-.7-.2-.2-.4,0-.5.2l-1,2.1-1-.9c-.1-.1-.3,0-.4.2-.1.2-.1.4,0,.6l1,.9-1,2.1c-.1.2-.2.5,0,.7.2.1.4,0,.5,0h0l1-2,.8.8h.2s.2-.1.2-.2c.1-.2.1-.4,0-.6l-.8-.8v-.3Z"/>
      </g>
    </g>
  </g>
  <g>
    <g id="freepik--Chart--inject-544">
      <g id="freepik--chart--inject-544">
        <path class="st26" d="M347.5,200.4l-61.8,35.6c-1.2.7-2.8.7-4,0l-3.2-1.9c-1.1-.8-1.9-2.1-2-3.5v-71.3c0-1.4.9-2.7,2-3.5l61.8-35.6c1.2-.7,2.8-.7,4,0l3.2,1.9c1.1.8,1.9,2.1,2,3.5v71.3c0,1.4-.9,2.7-2,3.4h0Z"/>
        <path class="st19" d="M285.5,236.2c-1.1.5-2.5.4-3.6-.2l-3.2-1.9c-1.1-.8-1.9-2.1-2-3.5v-71.3c0-.7.2-1.3.6-2l7.3,4.2c-.4.6-.6,1.2-.6,2v71.3c0,1.1.7,1.7,1.6,1.3h0Z"/>
        <path class="st3" d="M347.5,200.4l-61.8,35.6c-1.1.7-2,0-2-1.1v-71.2c0-1.4.9-2.7,2-3.5l61.8-35.6c1.1-.7,2,0,2,1.1v71.3c0,1.4-.9,2.7-2,3.4h0Z"/>
        <path class="st1" d="M315,182.7l-16.8,23.8c7.4,7.4,21.7,1.9,31.9-12.6,6.1-8.7,9.4-17.9,9.4-26.7l-20.3,11.6c-1.6,1.1-3.1,2.3-4.2,3.8h0Z"/>
        <path class="st15" d="M315,182.7l-16.8,23.8c7.4,7.4,21.7,1.9,31.9-12.6,6.1-8.7,9.4-17.9,9.4-26.7l-20.3,11.6c-1.6,1.1-3.1,2.3-4.2,3.8h0Z"/>
        <path class="st17" d="M297.3,205.8l16.8-23.8h0c1.2-1.6,2.8-3.1,4.5-4.1l20.3-11.7c.5-.3,1.1,0,1.4.4,0,.2,0,.4,0,.5,0,9-3.3,18.4-9.5,27.3-6.8,9.5-15.4,15.7-23.2,16.3-3.8.5-7.5-.9-10.3-3.5-.3-.4-.4-.9-.2-1.2h0c0,0,0,0,0,0ZM338.3,168.9l-18.6,10.8c-1.5,1-2.8,2.1-3.8,3.5l-16.2,23c2.2,1.8,5.1,2.7,7.9,2.3,7.1-.6,15.4-6.5,21.7-15.4,1.1-1.5,2-3.1,3-4.6,3.6-6,5.7-12.7,6.2-19.7h0Z"/>
        <path class="st1" d="M315.7,177.5l-6.1-18.2c-11.9,11.4-18.5,30.1-14.6,41.6.7,2.1,1.7,3.9,3.2,5.4l16.8-23.8c1-1.5,1.2-3.3.8-5.1h0Z"/>
        <path class="st17" d="M308.8,158.5c.3-.3.6-.4,1-.3.4,0,.7.4.8.7l6.1,18.2c.6,2,.3,4.2-.9,6l-16.7,23.8c-.2.3-.5.4-.8.5-.3,0-.6,0-.9-.3-1.6-1.6-2.8-3.6-3.5-5.8-2.9-8.4-.3-20.4,5.7-30.9,2.5-4.4,5.5-8.4,9.2-11.8h0ZM314.1,182c.8-1.2,1-2.8.6-4.2h0l-5.6-16.6c-10.9,11.2-16.8,28.5-13.2,39.3.5,1.5,1.2,2.9,2.2,4.1l16-22.7h0Z"/>
        <path class="st1" d="M318.3,177.9l16.8-23.8c-5.9-6-15.9-4-25.5,5.2l6.1,18.2c.5,1.5,1.6,1.7,2.6.4Z"/>
        <path class="st6" d="M318.3,177.9l16.8-23.8c-5.9-6-15.9-4-25.5,5.2l6.1,18.2c.5,1.5,1.6,1.7,2.6.4Z"/>
        <path class="st17" d="M308.8,158.5c10-9.5,20.6-11.6,26.9-5.2.4.4.4,1,0,1.3l-16.8,23.8c-.5,1.1-1.9,1.7-3.1,1.1-.8-.3-1.2-1.1-1.3-1.8l-6.1-18.2v-.9s0-.2.2-.2h0ZM333.7,154.3c-5.4-4.7-14.2-2.7-22.9,5.3l5.9,17.6c0,.2.2.4.3.6.2,0,.4-.3.5-.5l16.2-23Z"/>
        <path class="st1" d="M319.1,178.8l20.3-11.6c0-5.8-1.4-9.9-4.4-13l-16.8,23.8c-1,1.2-.6,1.7.9.9h0Z"/>
        <path class="st7" d="M319.1,178.8l20.3-11.6c0-5.8-1.4-9.9-4.4-13l-16.8,23.8c-1,1.2-.6,1.7.9.9h0Z"/>
        <path class="st17" d="M317.4,177.3l16.8-23.8c.2-.3.5-.4.8-.5.3,0,.6,0,.9.3,3.2,3.2,4.7,7.5,4.7,13.7s-.2.8-.5,1l-20.3,11.7c-.5.3-1.8,1.1-2.6,0-.5-.6-.5-1.4,0-2.1l.4-.5h0ZM335.2,155.9l-14.9,21.1,18.1-10.5c0-4.6-1.1-8-3.2-10.7h0Z"/>
      </g>
    </g>
    <g id="freepik--Character--inject-2">
      <g id="freepik--character--inject-2">
        <g id="freepik--Top--inject-2">
          <path class="st30" d="M349.4,155.5c1.2,2,2.7,3.4,2.8,4.5.2,2.5.6,5,1.1,7.4,1,3.5,13,21.9,13,21.9,0,0,22.5,8.7,25.3,11.1,4.2,3.5,5.2,8.3,2.1,15.2,0,0-2.2-.8-9.5-4.1s-19.2-9.1-22.1-10.8c-2.4-1.4-3.8-1.9-5.8-6-2.4-5-7-15.3-7-15.3v-24.1h0Z"/>
          <path class="st19" d="M362.3,182.9l4.2,6.3s20.2,8.3,22.7,9.6c2.7,1.3,8,4.7,6.3,12.1-1.7,7.4-2.3,8.7-2.3,8.7,0,0-3.6-4.8-11.9-8.5s-17.9-9.2-21.2-11.1c-2-1.2-2.7-2.2-4.2-5.5-1.6-3.4-3.1-6.9-3.1-6.9,0,0,6-6,9.4-4.6h0Z"/>
          <path class="st20" d="M350.2,159.2l-.9-2.2v1.1c.2.4.5.8.9,1.1h0Z"/>
          <path class="st30" d="M350.2,159.2c-.9-1-1.6-2.1-2.2-3.3-.6-1.3-1.4-.6-1.6.3s0,1.6.9,4.2c.6,1.6,1.7,3.2,2,5.9l.9-7h0Z"/>
        </g>
      </g>
    </g>
    <g id="freepik--character-4--inject-32">
      <g id="freepik--character--inject-32">
        <g id="freepik--character--inject-321" data-name="freepik--character--inject-32">
          <path class="st19" d="M364.7,389s.9,2.3,1.4,4.4c.4,1.6,1,4.4.4,5.6s-2.7,2.1-6.2,2.2c-2.3,0-5.7,1.7-8.1,3.2s-7.6,2.2-10.2,2c-3.1-.2-6.4-1.9-6.9-3.2s-1-3,7.3-6c0,0,10-3.7,13.4-7.7l9-.5Z"/>
          <path class="st30" d="M364.7,389.2h-1.6c0-.1-7.4.3-7.4.3-3.4,4-13.4,7.7-13.4,7.7l-1.3.5c-1.4,1.2-.1,3.2,3.4,3.4s14.1-3.9,16.5-5.1c2.5-1.3,4.1-4,3.9-6.8Z"/>
          <path class="st30" d="M364.6,386s0,2,.1,3.2-1.2,2.9-4.8,2.9c-2.5,0-4.2-.6-4.2-2.6v-2.9c-.1,0,8.9-.5,8.9-.5Z"/>
          <path class="st19" d="M393.7,376.9c.6.2.8,1.5.9,3.9,0,1.8.5,5-1.6,5.7s-5.3.4-6.7-1.3c-1.7-2.3-3.5-4.5-5.4-6.7-2.2-2.3-4.5-4.4-5.4-7.6-.8-2.9-.2-4.2,1.8-5s3.8-.3,6.7,1.9c.8.5,1.6.9,2.5,1.2,1.8.5,6.6,7.7,7.2,7.9Z"/>
          <path class="st30" d="M393.7,368.9v8.7c0,0-1.8,4-7.5.3-.1-.3-.7-8.8-.7-8.8l8.2-.2Z"/>
          <path class="st30" d="M386.5,369c-.9-.3-1.7-.7-2.5-1.2h0c-2.3-.6-6.9.4-4.7,3.5,1.9,2.6,4.2,4.8,6.9,6.6,2.6,1.2,3.4-.4,3.4-.4l-1.2-7c-.5-.6-1.2-1.2-1.9-1.5Z"/>
          <path class="st0" d="M396.9,331.4c-.8-4.9-1.3-9.8-1.4-14.7,0,0,.7-14.3,1.5-28.7,1.7-32-.7-30.9-9.6-47.2,0,0-27.6-9-32.2,3,0,0-1,11.1-1.3,18.8-.7,19.8-1.8,57.1-1.2,64.1s.1,10.4.9,25.1c.7,12.4,1.6,35.1,1.6,35.1,5.1,2.7,9.8-.9,9.8-.9,0,0,6.4-29.9,6-37.9-.5-9.8-.2-18-.2-18,0,0,3.6-24.7,4.3-29.9.2,12.4,2.9,25.3,4.9,37.3,2.3,13.9,5.5,33.6,5.5,33.6,5.1,2.7,8.5,1.2,8.5,1.2,0,0,4.5-31.4,3-41Z"/>
          <path class="st0" d="M396.9,331.4c-.8-4.9-1.3-9.8-1.4-14.7,0,0,.7-14.3,1.5-28.7,1.7-32-.7-30.9-9.6-47.2,0,0-27.6-9-32.2,3,0,0-1,11.1-1.3,18.8-.7,19.8-1.8,57.1-1.2,64.1s.1,10.4.9,25.1c.7,12.4,1.6,35.1,1.6,35.1,5.1,2.7,9.8-.9,9.8-.9,0,0,6.4-29.9,6-37.9-.5-9.8-.2-18-.2-18,0,0,3.6-24.7,4.3-29.9.2,12.4,2.9,25.3,4.9,37.3,2.3,13.9,5.5,33.6,5.5,33.6,5.1,2.7,8.5,1.2,8.5,1.2,0,0,4.5-31.4,3-41Z"/>
          <path class="st13" d="M396.9,331.4c-.8-4.9-1.3-9.8-1.4-14.7,0,0,.7-14.3,1.5-28.7,1.7-32-.7-30.9-9.6-47.2,0,0-27.6-9-32.2,3,0,0-1,11.1-1.3,18.8-.7,19.8-1.8,57.1-1.2,64.1s.1,10.4.9,25.1c.7,12.4,1.6,35.1,1.6,35.1,5.1,2.7,9.8-.9,9.8-.9,0,0,6.4-29.9,6-37.9-.5-9.8-.2-18-.2-18,0,0,3.6-24.7,4.3-29.9.2,12.4,2.9,25.3,4.9,37.3,2.3,13.9,5.5,33.6,5.5,33.6,5.1,2.7,8.5,1.2,8.5,1.2,0,0,4.5-31.4,3-41Z"/>
          <path class="st14" d="M379.7,273l-4.6,27.5c.2,10,1.9,20.2,3.7,30.1-1.1-9.8-1.6-19.6-1.5-29.4l5.1-25.7c6.3-1,8.5-4.8,9-6.5-4.3,5-11.6,4.1-11.6,4.1Z"/>
          <polygon class="st21" points="369 192.6 369.7 209.2 382.1 208.4 381.7 191.2 369 192.6"/>
          <path class="st3" d="M394.1,210.3c-.5-3.9-1.9-8.6-5.6-10.2-2.7-.9-5.6-1.1-8.4-.5-.5,1.8-6.9,4-10.1,1-3.1.6-6.8,1.3-11,2.3-3.3.8-5.2,13.2-7.4,17.2-2.6,4.7,0,11.1,3.2,13.6,0,0,0,4.5.4,9.9,5.7,4.7,16.3,6,24.4,3.9,6.2-1.6,7.9-3.7,9.2-8,.5-1.8,1-3.4,2.2-6.6,2.7-7.4,3.8-17.5,3.1-22.7Z"/>
          <path class="st26" d="M369.2,197.1c-.7,0-1.2.3-2,1.4-1.2,1.5-2.8,3.3-2.8,3.3,0,0,1.5,2.7,6,3.6,3.6.9,7.4.7,10.9-.5,2.3-1,2.7-1.8,3-2.8.1-1.5-.2-3-.9-4.2-.7-1.5-1.5-1.4-1.5-1.4v1.2s-.2,1.3-3.8,1.9-7.8,0-8.8-1v-1.5Z"/>
          <path class="st24" d="M351.7,165.2c-.1-.7-.1-1.4,0-2.1.6-3.4,3.9-5.7,7.4-5.1.3,0,.7.2,1,.3-.5-2.8.9-5.6,3.5-6.8,2-.7,4.2-.7,6.1.2,1.2.4,2.1,1.2,2.7,2.3,1.9-3.2,6-4.2,9.2-2.3,1.5.9,2.6,2.3,3,4,2-.5,4.9.4,5.8,2.5,1,2.3-.2,5.1.2,7.5.3,1.5,1,3,1.3,4.6.3,1.8.5,3.5.5,5.3.3,7.3-16.7,12.1-16.4,17.1l-9.1-11c0-.5-1.3-1.6-1.6-2-.5-.7-1-1.5-1.5-2.3-1.6-2.2-3.7-4-6.3-5-1.8-.8-3.3-2.1-4.5-3.7-.7-1-1.2-2.2-1.4-3.5Z"/>
          <path class="st25" d="M358.9,177.4s-2.9,4.4-2.6,4.8c.7.4,1.4.8,2.2.9l.3-5.8Z"/>
          <path class="st21" d="M367.9,163.6c-2.9,1.5-7.8,4.1-9.1,14.5-1.3,10.6,1.1,14.3,2.6,15.7,1,.9,6.1,1.3,8.8.5,3.4-1,10.6-4.6,14-10,4-6.4,4.8-15.1.2-18.4-6.5-4.7-14.1-3.4-16.6-2.2Z"/>
          <path class="st25" d="M361.6,194c1.2.7,4.8,1,7.5.5v-2c-1.3.5-2.5,1-3.8,1.3-1.2.3-2.5.3-3.7.2Z"/>
          <path class="st24" d="M366.6,163.3c-1.2.4-2.3,1.1-3.3,1.9-.5.4-.9.9-1.2,1.5-.2.5-.3,1.1-.2,1.7.2,1.6,1.2,3,2.7,3.7-.8,1.1-1,2.4-.7,3.7.5,1.5,1.4,2.8,2.6,3.8,0,0,.1.1.2.2.2,0,.3,0,.5-.1,1.8-1.2,2.9-3.3,5.4-2.4,3.3,1.1,3.2,5.2.5,7.8-.9.9-2.2,1.5-3.5,1.6-.7,0-1.3-.2-1.8-.6,0,0,0,5.4,4.8,7.5,3.2.9,6.7,1,9.9.1,1.8-2.2,4.7-5.1,7.1-7.6,8-8.4,8.4-20.6-3.3-24.5-.4-.1-.8-.3-1.2-.4-5.7-1.5-11.8-.9-17.1,1.6l-1.3.6Z"/>
          <path class="st24" d="M366.2,183.3c-1.3-.4-2-1.9-1.5-3.1,0,0,0,0,0,0,.5-1.3,1.9-1.9,3.2-1.5l-1.7,4.7Z"/>
        </g>
      </g>
    </g>
    <path class="st30" d="M332.3,219.9s-18.2-3.6-19.2-4.3c-.9-.6-1.2-1.6-1.6-2.6-.5-1-1.2-2-2-2.9-.5-.5-1.2-1.1-1.6-1.6s-.6-1.3-1.1-1.8-1-.2-1.3.4c-.3.8-.3,1.7,0,2.5.2.3.2.7.4,1,.2.3.3.6.4.9v.5c-.2.3-.8,0-1.1,0-1.8-.7-2.7-1.6-4-2.8-.6-.5-1.2-1.2-1.9-1.7-.5-.5-1.3-.9-2-1.3-.5-.2-1.1-.3-1.6-.3-.8.3-.5.9.2,2,.4.5.6,1,.6,1-.3.8-.2,1.6.3,2.4.4.5,1,1.5,1,1.5-.2.2-.2.5-.2.9.2.7.5,1.3.9,2,.4.5.5,1.2.6,1.8.2,1.6,2,2.7,3.2,3.4,1.4.9,2.2.9,3.7,1.4.9.3,1.6.6,2.4.9s1.5.4,2.3.6c1.7.6,15.1,5.8,20.5,7.2,2.7.7,3.4,1.4,7.1-.5,6.7-3.4,11.4-5.8,15.4-7.8,5.3-2.7,6.2-4.1,7-7.5,1.6-7.9-2.4-10.7-2.4-10.7-3,.5-4.1,1.1-9.6,4.9-6,4-16.6,10.7-16.6,10.7h.2Z"/>
    <path class="st19" d="M358.6,203.6c-4.9,1.2-6.9,3-16.3,9.2-8.2,5.3-10,6.8-10,6.8l-4.9-.8s-1.6,1.1-2.8,4.4c-.8,1.8-.8,3.8,0,5.6,0,0,6.3,2.3,8,2.7s1.8.9,5.4-.8,18.6-8.9,19.9-9.6c1.7-.9,3.6-3.4,4.2-8.3.5-4.9-1.6-8.9-3.6-9.2h.2Z"/>
  </g>
</svg>