<?xml version="1.0" encoding="UTF-8"?>
<svg id="Layer_1" xmlns="http://www.w3.org/2000/svg" version="1.1" viewBox="0 0 500 500">
  <!-- Generator: Adobe Illustrator 29.1.0, SVG Export Plug-In . SVG Version: 2.1.0 Build 142)  -->
  <defs>
    <style>
      .st0, .st1, .st2 {
        fill: #004a99;
      }

      .st3, .st4 {
        fill: #37474f;
      }

      .st5, .st6, .st4, .st7, .st8, .st9, .st2, .st10, .st11, .st12, .st13, .st14, .st15, .st16 {
        isolation: isolate;
      }

      .st5, .st17, .st8, .st9, .st11, .st12, .st16 {
        fill: #fff;
      }

      .st5, .st18 {
        opacity: .9;
      }

      .st6, .st7, .st1, .st15 {
        fill-rule: evenodd;
      }

      .st6, .st10 {
        opacity: .1;
      }

      .st4, .st11 {
        opacity: .5;
      }

      .st7, .st2, .st14, .st16 {
        opacity: .2;
      }

      .st19 {
        fill: #263238;
      }

      .st20 {
        fill: #9a4a4d;
      }

      .st8 {
        opacity: .6;
      }

      .st21 {
        fill: #f7a27b;
      }

      .st9 {
        opacity: .4;
      }

      .st22 {
        fill: #e0e0e0;
      }

      .st12 {
        opacity: .7;
      }

      .st23, .st13, .st15 {
        opacity: .3;
      }

      .st24 {
        fill: #ffc83d;
      }

      .st25 {
        fill: #e5775e;
      }

      .st26 {
        fill: #455a64;
      }

      .st27 {
        fill: #ebebeb;
      }

      .st28 {
        fill: #f5f5f5;
      }

      .st29 {
        fill: #fafafa;
      }

      .st30 {
        fill: #fdb88e;
      }

      .st31 {
        fill: #e6e6e6;
      }
    </style>
  </defs>
  <g id="freepik--Floor--inject-1--inject-95">
    <path class="st28" d="M90.6,445.8c88,46,230.7,46,318.6,0,88-46,88-120.6,0-166.5-88-46-230.7-46-318.6,0-88,46-88,120.5,0,166.5Z"/>
  </g>
  <g id="freepik--Device--inject-2">
    <g id="freepik--Monitor--inject-2">
      <path class="st28" d="M228.2,393.7l45.4-26.3c4.7-2.7,7-6.3,7-9.8v-6.3l-42.8-24.3c-2.7-1.7-4.3-4.7-4.6-7.8v-56.1l-79.5,45.9v56.1c.2,3.1,1.8,6.1,4.6,7.8l35.8,20.8c9.4,5.4,24.6,5.4,34,0h0Z"/>
      <path class="st14" d="M173,374.9v6.3l-14.5-8.3c-2.7-1.7-4.3-4.7-4.6-7.8v-56.1l15.2-8.8c.3,3.8.7,7.8,1,11.7l-10.6,6.2v43.8c.2,3.1,1.8,6.1,4.6,7.8l9.1,5.2h-.1Z"/>
      <path class="st31" d="M159.5,361.9c.2,3.1,1.8,6.1,4.6,7.8l30.2,17.7c9.3,5.4,24.6,5.4,33.9,0l45.5-26.2c9.4-5.4,9.4-14.2,0-19.6l-30.2-17.7c-2.7-1.7-4.3-4.7-4.6-7.8v-43.8l-79.5,45.9v43.8h0Z"/>
      <path class="st14" d="M252.6,329.2h0l-9.2-5.3c-2.7-1.7-4.3-4.7-4.6-7.8v-43.8l-79.5,46v43.8c.2,3.1,1.8,6.1,4.6,7.8l9.1,5.2,79.6-45.9Z"/>
      <path class="st26" d="M64.8,396.4c2.9,1.7,7.8,1.6,11-.2l261.3-150.9c3.4-2.2,5.4-5.9,5.6-9.8V16.7c0-3.6-2.4-7.9-5.3-9.5s-7.8-1.6-11,.2L65.1,158.2c-3.4,2.2-5.4,5.9-5.6,9.8v218.9c0,3.6,2.4,7.9,5.3,9.5Z"/>
      <path class="st3" d="M75.8,396.2l261.4-150.9c3.4-2.2,5.4-5.9,5.6-9.8V16.7c0-3.6-2.5-5.1-5.6-3.3L75.8,164.3c-3.4,2.2-5.4,5.9-5.6,9.8v218.9c0,3.6,2.5,5.1,5.6,3.3h0Z"/>
      <path class="st27" d="M70.1,373.7v19.3c0,3.6,2.5,5.1,5.6,3.3l261.4-150.9c3.4-2.2,5.4-5.9,5.6-9.8v-19.3L70.1,373.7h0Z"/>
      <path class="st0" d="M77.6,355.9v-179.2c0-2.5,1.4-4.7,3.5-6L331.9,25.8c2-1.1,3.5-.2,3.5,2v179.2c-.1,2.5-1.4,4.7-3.5,6l-250.8,144.7c-2,1.1-3.5.2-3.5-2.1v.2Z"/>
      <g class="st23">
        <path d="M77.6,355.9v-179.2c0-2.5,1.4-4.7,3.5-6L331.9,25.8c2-1.1,3.5-.2,3.5,2v179.2c-.1,2.5-1.4,4.7-3.5,6l-250.8,144.7c-2,1.1-3.5.2-3.5-2.1v.2Z"/>
      </g>
      <path class="st19" d="M61.2,162.4l10.6,6.1c-1,1.7-1.6,3.6-1.7,5.6v218.9c0,3.3,2.2,5.1,5.6,3.3-3.5,1.8-7.5,2-11,.2-3.1-1.8-5.2-5.2-5.3-8.9v-219.4c0-2,.7-3.9,1.7-5.6h0Z"/>
      <path class="st0" d="M201.5,308.6l12.8-7.4c1.2-.7,2.1-.2,2.1,1.1s-.9,2.7-2.1,3.5l-12.8,7.4c-1.2.7-2.1.2-2.1-1s.9-2.7,2.1-3.5h0Z"/>
    </g>
  </g>
  <g id="freepik--Windows--inject-2">
    <g id="freepik--Window--inject-2">
      <g id="freepik--window--inject-2">
        <path class="st0" d="M83.6,197c-1.4-1-2.4-2.6-2.4-4.3v-14.1c0-1.8,1.1-3.5,2.6-4.4L332,30.7c2.3-1.4,5.2-.8,6.6,1.5.5.9.8,1.7.8,2.7v14.1c0,1.8-1.1,3.5-2.6,4.4L88.6,196.9c-1.5.9-3.4.9-5,0h0Z"/>
        <path class="st16" d="M339.3,34.5c-.2-1.3-1.3-1.8-2.5-1.1L88.6,176.9c-.8.4-1.4,1.2-1.8,2l-4.8-2.8c.4-.8,1.1-1.4,1.8-2L332,30.7c2.3-1.4,5.2-.8,6.6,1.5.4.8.7,1.5.8,2.4h0Z"/>
        <path class="st14" d="M86.7,178.8c-.4.8-.8,1.6-.8,2.5v7.7l-4.9-2.8v-8.7c0-.5.3-1.1.7-1.6l4.9,2.8h.1Z"/>
        <path class="st0" d="M339.3,34.9v7.7l-173.8,100.4-72.6,42-7,4.1v-7.8c0-1.8,1.1-3.5,2.6-4.4L336.8,33.4c1.4-.9,2.6,0,2.6,1.5,0,0-.1,0-.1,0Z"/>
        <path class="st17" d="M332.4,39.8c.9-.5,1.6,0,1.6,1s-.7,2.3-1.6,2.8c-.9.5-1.6,0-1.6-1s.7-2.3,1.6-2.8Z"/>
        <path class="st17" d="M326.4,43.3c.9-.5,1.6,0,1.6,1s-.7,2.3-1.6,2.9c-.9.5-1.6,0-1.6-1s.7-2.3,1.6-2.9Z"/>
        <path class="st17" d="M320.4,46.7c.9-.5,1.6,0,1.6,1s-.7,2.3-1.6,2.8c-.9.5-1.6,0-1.6-1s.7-2.3,1.6-2.8Z"/>
        <path class="st22" d="M88.6,357.4c-.7.3-1.3.5-2,.7-1,.1-2.1,0-3-.5-1.4-1-2.4-2.6-2.4-4.3v-166.8l4.9,2.7v166.8c0,1.2.5,1.8,1.4,1.8s.8-.1,1.2-.3h-.1Z"/>
        <path class="st29" d="M339.5,209.5c0,1.8-1.1,3.5-2.6,4.4l-248.3,143.4c-1.4.9-2.6.1-2.6-1.5v-166.8l7-4.1,72.6-42,173.8-100.4v166.8h0Z"/>
        <path class="st27" d="M338.4,44.5v165c0,1.4-.9,2.7-2.1,3.6l-248.3,143.3c-.2.1-.4.2-.7.2-.3,0-.4-.5-.4-.9v-166.2l6.6-3.8,72.6-42,172.3-99.5M339.3,42.7l-173.7,100.4-72.6,42-7,4.1v166.8c0,1.2.5,1.8,1.4,1.8s.8-.1,1.2-.3l248.3-143.4c1.5-1,2.5-2.6,2.6-4.4V42.7h-.1Z"/>
      </g>
    </g>
    <g id="freepik--box--inject-2">
      <path id="freepik--shadow--inject-2" class="st10" d="M312.7,72.7l-132.5,76.4c-.9.5-1.3,1.4-1.4,2.4v124.5c0,.9.7,1.2,1.4.8l132.5-76.4c.9-.5,1.3-1.4,1.4-2.4v-124.6c0-.9-.5-1.2-1.4-.8h0Z"/>
      <g id="freepik--box--inject-21">
        <g id="freepik--box--inject-22">
          <path class="st0" d="M318,76.8l-132.5,76.4c-.9.5-1.3,1.4-1.4,2.4v124.6c0,1,.5,1.8,1.4,2.4l2.6,1.5c.9.4,1.8.4,2.8,0l132.5-76.4c.9-.5,1.3-1.4,1.4-2.4v-124.6c0-1-.5-1.8-1.4-2.4l-2.6-1.5c-.9-.4-2-.4-2.8,0h0Z"/>
          <path class="st11" d="M190.9,284c-.9.4-1.8.4-2.8,0l-2.6-1.5c-.9-.5-1.3-1.4-1.4-2.4v-124.5c0-.5.2-1,.4-1.4l5.4,3.1c-.2.4-.4.9-.4,1.4v124.5c0,.8.5,1.3,1.4.8Z"/>
          <path class="st5" d="M324.7,80.4c0-.7-.7-1-1.4-.5l-132.5,76.4c-.4.2-.8.5-1,1l-5.4-3.1c.2-.4.5-.8,1-1l132.5-76.4c.9-.4,2-.4,2.8,0l2.6,1.5c.8.4,1.3,1.2,1.4,2.2Z"/>
          <path class="st12" d="M323.4,79.8l-132.5,76.4c-.8.5-1.3,1.4-1.4,2.4v124.6c0,.9.7,1.2,1.4.8l132.5-76.4c.9-.5,1.3-1.4,1.4-2.4v-124.5c0-.9-.5-1.2-1.4-.8h0Z"/>
        </g>
      </g>
      <path class="st2" d="M201.9,162.5l49.4-28.5c1.2-.7,2.2-.1,2.2,1.3v37.9c0,1.5-.9,2.9-2.2,3.8l-49.4,28.5c-1.2.8-2.2.1-2.2-1.3v-37.9c0-1.5.9-2.9,2.2-3.8h0Z"/>
      <path class="st2" d="M263.1,177.8l49.4-28.5c1.2-.7,2.2-.1,2.2,1.3v47.6c0,1.5-.9,2.9-2.2,3.8l-49.3,28.5c-1.2.7-2.2.1-2.2-1.3v-47.5c0-1.5.9-2.9,2.2-3.8h-.1Z"/>
      <path class="st2" d="M231.6,195.9l19.7-11.4c1.2-.7,2.2-.1,2.2,1.3v18.9c0,1.5-.9,2.9-2.2,3.8l-19.7,11.4c-1.2.7-2.2.1-2.2-1.3v-18.9c0-1.5.9-2.9,2.2-3.8Z"/>
      <path class="st2" d="M231.6,224.7l19.7-11.4c1.2-.7,2.2-.1,2.2,1.3v18.9c0,1.5-.9,2.9-2.2,3.8l-19.7,11.4c-1.2.7-2.2.1-2.2-1.3v-18.9c0-1.5.9-2.9,2.2-3.8Z"/>
    </g>
    <g id="freepik--box--inject-23">
      <path id="freepik--shadow--inject-21" class="st10" d="M226.4,232.9l-25.4,14.6c-.8.5-1.3,1.4-1.4,2.4v19.5h0c0,.9.7,1.2,1.4.8l25.4-14.6c.9-.5,1.3-1.4,1.4-2.4v-19.5c0-.9-.7-1.2-1.4-.8h0Z"/>
      <g id="freepik--box--inject-24">
        <g id="freepik--box--inject-25">
          <path class="st22" d="M231.7,236.9l-25.4,14.6c-.9.5-1.3,1.4-1.4,2.4v19.5c0,1,.5,1.8,1.4,2.4l2.6,1.5c.9.4,1.8.4,2.8,0l25.4-14.6c.9-.5,1.3-1.4,1.4-2.4v-19.5c0-1-.5-1.8-1.4-2.4l-2.6-1.5c-.9-.4-2-.4-2.8,0h0Z"/>
          <path class="st29" d="M238.5,240.5c-.1-.7-.7-1-1.4-.5l-25.4,14.6c-.4.2-.8.5-1,1l-5.4-3.1c.2-.4.5-.8,1-1l25.4-14.6c.9-.4,2-.4,2.8,0l2.6,1.5c.8.4,1.3,1.3,1.4,2.2Z"/>
          <path class="st29" d="M237.2,240l-25.4,14.6c-.9.5-1.3,1.4-1.4,2.4v19.5c0,.9.7,1.2,1.4.8l25.4-14.6c.9-.5,1.3-1.4,1.4-2.4v-19.5c0-.9-.7-1.2-1.4-.8h0Z"/>
          <path class="st27" d="M237.5,240.9v19.3c0,.7-.3,1.2-.9,1.5l-25.2,14.5v-19.3c0-.7.3-1.2.9-1.5l25.2-14.6M237.8,239.8c-.2,0-.4,0-.7.2l-25.4,14.6c-.9.5-1.3,1.4-1.4,2.4v19.5c0,.7.3,1,.8,1s.4,0,.7-.2l25.4-14.7c.9-.5,1.3-1.4,1.4-2.4v-19.5c0-.7-.3-1-.8-1h0Z"/>
        </g>
      </g>
      <path class="st0" d="M235.3,244.1v16.3c0,.2-.1.4-.3.7l-21.3,12.4v-16.3c0-.2.1-.4.3-.7l21.3-12.3M235.4,243.5h-.2l-21.4,12.4c-.3.2-.5.5-.5,1v16.4c0,.2.1.4.3.4h.2l21.4-12.3c.3-.2.5-.5.5-1v-16.4c0-.2-.1-.4-.3-.4h0Z"/>
      <path class="st0" d="M228.5,255.9l5.4,2v2.1l-18.9,10.8v-4.9l5.2-9.5,4.6,2.6-1.5,3.8c0,.2,0,.5.2.7h.2c.2,0,.3,0,.4-.2l4.2-7.4M228.2,255.2l-4.4,7.8,1.6-4.2-5.4-3-5.5,10.1v5.9l19.8-11.5v-2.7l-6.1-2.3h0Z"/>
      <path class="st0" d="M230.8,250h0c.3,0,.3.3.3.5,0,.9-.5,1.6-1.2,2.1-.1,0-.2.1-.4.1h-.2c0-.1-.1-.3-.1-.4,0-.9.5-1.6,1.2-2.2.1,0,.2-.1.4-.1M230.8,249.6c-.2,0-.4,0-.7.2-.9.5-1.4,1.5-1.4,2.5s.3,1,.8,1,.4,0,.7-.2c.9-.5,1.4-1.5,1.4-2.5s-.3-1.1-.8-1.1h0Z"/>
    </g>
    <g id="freepik--box--inject-26">
      <path id="freepik--shadow--inject-22" class="st10" d="M226.4,199.4l-25.4,14.6c-.9.5-1.3,1.4-1.4,2.4v19.5h0c0,.9.7,1.2,1.4.8l25.4-14.6c.9-.5,1.3-1.4,1.4-2.4v-19.5c0-.9-.7-1.2-1.4-.8Z"/>
      <g id="freepik--box--inject-27">
        <g id="freepik--box--inject-28">
          <path class="st22" d="M231.7,203.5l-25.4,14.6c-.9.5-1.3,1.4-1.4,2.4v19.5c0,1,.5,1.8,1.4,2.4l2.6,1.5c.9.4,1.8.4,2.8,0l25.4-14.7c.9-.5,1.3-1.4,1.4-2.4v-19.5c0-1-.5-1.8-1.4-2.4l-2.6-1.5c-.9-.4-2-.4-2.8,0h0Z"/>
          <path class="st29" d="M238.5,207.1c-.1-.7-.7-1-1.4-.5l-25.4,14.6c-.4.2-.8.5-1,1l-5.4-3.1c.2-.4.5-.8,1-1l25.4-14.6c.9-.4,2-.4,2.8,0l2.6,1.5c.8.4,1.3,1.3,1.4,2.2Z"/>
          <path class="st29" d="M237.2,206.6l-25.4,14.6c-.9.5-1.3,1.4-1.4,2.4v19.5c0,.9.7,1.2,1.4.8l25.4-14.6c.9-.5,1.3-1.4,1.4-2.4v-19.5c0-.9-.7-1.3-1.4-.8Z"/>
          <path class="st27" d="M237.5,207.5v19.3c0,.7-.3,1.2-.9,1.5l-25.2,14.5v-19.3c0-.7.3-1.2.9-1.5l25.2-14.5M237.8,206.3c-.2,0-.4,0-.7.2l-25.4,14.6c-.9.5-1.3,1.4-1.4,2.4v19.5c0,.7.3,1,.8,1s.4,0,.7-.2l25.4-14.6c.9-.5,1.3-1.4,1.4-2.4v-19.5c0-.7-.3-1-.8-1h0Z"/>
        </g>
      </g>
      <path class="st0" d="M235.3,210.7v16.3c0,.2-.1.4-.3.7l-21.3,12.3v-16.3c0-.2.1-.4.3-.7l21.3-12.3M235.4,210.1h-.2l-21.4,12.4c-.3.2-.5.5-.5,1v16.4c0,.2.1.4.3.4h.2l21.4-12.4c.3-.2.5-.5.5-1v-16.4c0-.2-.1-.4-.3-.4h0Z"/>
      <path class="st0" d="M228.5,222.5l5.4,2v2.1l-18.9,10.8v-4.9l5.2-9.5,4.6,2.6-1.5,3.8c0,.2,0,.5.2.7h.2c.2,0,.3,0,.4-.2l4.2-7.4M228.2,221.8l-4.4,7.7,1.6-4.2-5.4-3-5.5,10.1v5.9l19.8-11.5v-2.7l-6.1-2.3h0Z"/>
      <path class="st0" d="M230.8,216.6h0c.3,0,.3.3.3.5,0,.9-.5,1.6-1.2,2.2-.1,0-.2.1-.4.1h-.2c0-.1-.1-.3-.1-.4,0-.9.5-1.6,1.2-2.2.1,0,.2-.1.4-.1M230.8,216.2c-.2,0-.4,0-.7.2-.9.5-1.4,1.5-1.4,2.5s.3,1,.8,1,.4,0,.7-.2c.9-.5,1.4-1.5,1.4-2.5s-.3-1-.8-1Z"/>
    </g>
  </g>
  <g id="freepik--ad-2--inject-507">
    <g id="freepik--ad--inject-507">
      <g id="freepik--speech-bubble--inject-507">
        <path class="st27" d="M99.6,197.5v-.2h0v.2Z"/>
        <path class="st4" d="M168,158.2c0-.2-.2-.3-.4-.3s-.3,0-.4.1l-66.8,38.6c-.2.2-.4.4-.7.7l-2.6-1.5c0-.2.3-.4.7-.7l66.8-38.6c.5-.3,1.2-.3,1.7,0l.9.5c.4.3.8.8.9,1.2h0Z"/>
        <g class="st18">
          <path class="st19" d="M100.4,331.5c-.5.3-1.2.3-1.7,0l-.9-.5c-.5-.3-.9-.9-.9-1.5v-132.8c0-.3,0-.7.3-.9l2.7,1.5c-.2.2-.2.5-.2.9v132.9c0,.5.3.8.9.4h-.2Z"/>
        </g>
        <g class="st18">
          <path class="st3" d="M167.6,157.9c-.1,0-.3,0-.4.1l-66.8,38.6c-.5.3-.9.9-.9,1.5v132.9c0,.4.2.7.5.7s.3,0,.4-.1l66.8-38.6c.5-.3.9-.9.9-1.5v-132.9c0-.4-.2-.7-.4-.7h-.1Z"/>
        </g>
        <path class="st26" d="M167.5,158.5v132.8c0,.4-.2.8-.5,1l-66.8,38.6v-132.8c0-.4.2-.8.5-1l66.8-38.6M167.6,157.9c-.1,0-.3,0-.4.1l-66.8,38.6c-.5.3-.9.9-.9,1.5v132.9c0,.4.2.7.5.7s.3,0,.4-.1l66.8-38.6c.5-.3.9-.9.9-1.5v-132.9c0-.4-.2-.7-.4-.7h-.1Z"/>
      </g>
      <path id="freepik--shadow--inject-507" class="st13" d="M160.8,287.3v-120.6c0-1.2-.8-1.6-1.8-1.1l-53.9,31.1c-1.1.7-1.7,1.8-1.8,3.1v120.6c0,1.2.8,1.6,1.8,1.1l53.9-31.1c1.1-.7,1.7-1.8,1.8-3.1h0Z"/>
      <g id="freepik--ad--inject-5071">
        <path class="st0" d="M162.5,288.4v-120.6c0-1.2-.8-1.6-1.8-1.1l-53.9,31.1c-1.1.7-1.7,1.8-1.8,3.1v120.6c0,1.2.8,1.6,1.8,1.1l53.9-31.1c1.1-.8,1.7-1.8,1.7-3.1h.1Z"/>
        <path class="st16" d="M162.5,288.4v-120.6c0-1.2-.8-1.6-1.8-1.1l-53.9,31.1c-1.1.7-1.7,1.8-1.8,3.1v120.6c0,1.2.8,1.6,1.8,1.1l53.9-31.1c1.1-.8,1.7-1.8,1.7-3.1h.1Z"/>
        <g id="freepik--text--inject-507">
          <path class="st8" d="M105,321.6c0,1.2.8,1.6,1.8,1.1l53.9-31.1c1.1-.7,1.7-1.8,1.8-3.1v-56.7l-57.5,55.4v34.5h-.1Z"/>
          <path class="st3" d="M116.1,261.1h.2v2.4c0,.1,0,.2-.2.3l-3.1,2.9v2.3l2.8-2.7h.2v2.4c0,.1,0,.2-.2.3l-2.8,2.7v3.6c0,.1,0,.2-.2.4,0,.1,0,.2-.2.3l-1.3,1.3h-.2v-.2l.3-10.7v-.4c0-.1,0-.2.2-.3l4.8-4.6h-.2Z"/>
          <path class="st3" d="M117.4,271.2h-.2v-.2l.3-10.7v-.4c0-.1,0-.2.2-.3l1.3-1.3h.2v.2l-.3,10.7v.4c0,.1,0,.2-.2.3l-1.3,1.3Z"/>
          <path class="st3" d="M125.3,263.6h-.2q0,.1,0,0l-2.4-3.3-.2,5.6v.4c0,.1,0,.2-.2.3l-1.3,1.3h-.2v-.2l.3-10.7v-.4c0-.1,0-.2.2-.3l.9-.9s.2-.1.3-.1h0l2.4,3.3.2-5.6v-.4c0-.1,0-.2.2-.3l1.3-1.3h.2v.2l-.3,10.8v.4c0,.1,0,.2-.2.3l-.9.8h-.1Z"/>
          <path class="st3" d="M132.3,245.7c0-.1.2-.2.3-.1v.2l2,8.3c0,.3,0,.5-.2.8l-1.2,1.2c0,.1-.2.2-.3.1v-.2l-.2-1.1-2.7,2.6-.3,1.6v.3c0,.1-.2.3-.3.4l-1.4,1.4h-.2v-.4l2.6-12.7v-.5c0-.2.2-.3.3-.4l1.7-1.6h-.1.1ZM130.3,254.6l1.6-1.6-.8-3.3-1,4.8h.1Z"/>
          <path class="st3" d="M140.5,246.5h.2v2.4c0,.1,0,.2-.2.3l-4.8,4.6h-.2v-.2l.3-10.7v-.4c0-.1,0-.2.2-.3l1.3-1.3h.2v.2l-.2,8.6,3.1-2.9h0Z"/>
          <path class="st17" d="M124.2,277.2c0-.7,0-1.3.2-2,0-.7.3-1.3.5-2,.2-.7.5-1.3,1-1.8.4-.7.9-1.2,1.4-1.7.3-.3.8-.7,1.3-.9.3-.1.7-.1,1,0s.5.4.7.8c.2.4.2,1,.2,1.5v3c0,.7,0,1.3-.2,2,0,.7-.3,1.3-.5,2-.2.7-.5,1.3-1,1.8-.4.7-.9,1.2-1.4,1.7-.3.3-.8.7-1.3.9-.3.1-.7.1-1,0-.3-.2-.5-.4-.7-.8-.2-.4-.2-1-.2-1.5v-2.9h0ZM128.7,275.7v-3.5c0-.1,0-.3-.2-.3h-.4c-.2,0-.4.2-.5.3-.2.2-.4.4-.5.7s-.3.5-.4.8c-.2.5-.3,1.1-.4,1.7v2.8c0,.3,0,.8.3,1.1.2.2.5,0,1-.3.4-.4.8-.9,1-1.4s.3-1.2.4-1.7h-.1Z"/>
          <path class="st17" d="M137,260.8h.2v2.4c0,.1,0,.2-.2.3l-3.1,2.9v2.3l2.8-2.7h.2v2.4c0,.1,0,.2-.2.3l-2.8,2.8v3.6c0,.1,0,.2-.2.4,0,.1,0,.2-.2.3l-1.3,1.3h-.2v-.2l.3-10.7v-.4c0-.1,0-.2.2-.3l4.7-4.6h-.1Z"/>
          <path class="st17" d="M143.4,254.7h.2v2.5c0,.1,0,.2-.2.3l-3.1,2.9v2.3l2.8-2.7h.2v2.4c0,.1,0,.2-.2.3l-2.8,2.7v3.6c0,.1,0,.2-.2.4,0,.1,0,.2-.2.3l-1.3,1.3h-.2v-.2l.3-10.7v-.4c0-.1,0-.2.2-.3l4.7-4.6h-.1Z"/>
          <path class="st17" d="M149.6,257.4h.2v2c0,.1,0,.2-.1.4,0,.1-.1.2-.2.3l-4.9,4.7h-.2v-.2l.3-10.7v-.4c0-.1,0-.2.2-.3l4.8-4.6h.2v2c0,.1,0,.3-.1.4,0,.1,0,.2-.2.3l-3.1,3v1.8l2.9-2.8h.2v2c0,.1,0,.3-.1.4,0,.1-.1.2-.2.3l-2.9,2.8v1.8l3.3-3.1h0Z"/>
          <path class="st17" d="M154.4,244.2c.3-.3.8-.7,1.1-.9s.7-.2,1-.1c.3,0,.5.3.7.7.2.4.2,1,.2,1.5s-.1,1.6-.4,2.3c-.2.8-.5,1.4-1,2.1l1.2,2.7h0v.4s0,.2-.1.2l-1.3,1.2c-.1.1-.2.2-.3.1h-.1c0-.1-1-2.6-1-2.6l-1.1,1v3.6c-.1.1-.1.2-.2.4,0,.1-.1.2-.2.3l-1.3,1.3h-.2v-.2l.3-10.7v-.4c0-.1,0-.2.2-.3l2.7-2.6h-.1ZM153.2,250.3l1.2-1.1c.3-.3.5-.5.8-1s.3-.8.3-1.2,0-.7-.2-.7c-.3,0-.5.2-.7.4l-1.2,1.1v2.5h-.2Z"/>
          <path class="st17" d="M119.8,231.3c0,.1-.2.1-.3,0s0-.2,0-.4v-3.1l-6.2,6.1c0,.1-.2.2-.3,0s0-.2,0-.4v-3.3c0-.5.2-1.1.3-1.5l6-17c0-.2.2-.5.3-.8,0-.2.2-.3.4-.4l3.3-3.1c0-.1.2-.2.3,0s0,.2,0,.4l-.3,11.8,1.4-1.4c0-.1.2-.1.3,0v3.7c0,.2-.2.5-.2.8s-.2.4-.3.5l-1.4,1.4v3.1c0,.2-.2.4-.2.8s-.2.4-.3.5l-2.5,2.4h-.2ZM119.7,222.8l.2-5.6-2.9,8.2,2.7-2.6h0Z"/>
          <path class="st17" d="M132.4,198.1c.7-.8,1.5-1.3,2.4-1.6.5-.2,1.2-.2,1.7.1.5.4.9,1,1,1.5.2.9.3,1.8.3,2.7v5.4c0,1.2-.2,2.3-.4,3.5-.2,1.2-.5,2.4-1,3.5-.4,1.2-1,2.3-1.6,3.4-.8,1.2-1.6,2.2-2.6,3.1s-1.4,1.2-2.3,1.5c-.5.2-1.2.2-1.7-.1-.5-.4-.9-1-1.1-1.5-.3-.9-.4-1.8-.3-2.7v-5.5c0-1.2.2-2.3.4-3.5.2-1.2.5-2.4.9-3.5.4-1.2,1-2.3,1.6-3.4.8-1.2,1.6-2.2,2.6-3.1v.2h.1ZM134.2,209.6v-6.5c0-.3,0-.5-.3-.8,0-.2-.3-.2-.5-.2-.3.1-.7.3-1,.7s-.7.8-1,1.2l-.7,1.3c-.2.4-.3,1-.3,1.4s0,1-.2,1.5c0,1.7-.2,3.5-.2,5.1v1.3c0,.3,0,.5.3.8,0,.2.3.2.5.2.3-.1.7-.3,1-.7s.7-.8,1-1.2l.7-1.3c.2-.4.3-1,.3-1.4s0-1,.2-1.5h.2Z"/>
          <path class="st17" d="M145.6,190.1v2.3c0,.7,0,1.2-.2,1.8,0,.5-.2,1.2-.4,1.7-.4,1.3-1.2,2.4-2.2,3.3-.3.3-.8.7-1.2.9-.3.1-.7,0-1,0-.3-.2-.5-.4-.7-.8-.2-.4-.2-1-.2-1.4v-2.3c0-.7,0-1.2.2-1.8,0-.5.2-1.2.4-1.7s.5-1.2.9-1.6c.4-.5.9-1.1,1.3-1.6.3-.3.8-.7,1.2-.9.3-.1.7,0,1,0,.3.2.5.4.7.8.2.4.2,1,.2,1.5h0ZM143.4,208.2c0,.2-.2.4-.3.7,0,.2-.2.4-.4.5l-1.7,1.7c-.2.2-.3.2-.4,0v-.7l10-28.8c0-.2.2-.4.3-.7,0-.2.2-.4.4-.5l1.7-1.7c.2-.2.3-.2.4,0v.7l-10,28.8ZM141.8,195.6v1c0,.2.3.1.5-.1.3-.2.4-.5.5-1s.2-1,.2-1.4v-3c0-.1-.3-.1-.5.1-.3.2-.4.5-.5,1s-.2.9-.2,1.4v2.1ZM154.5,191.9v2.3c0,.7,0,1.2-.2,1.8,0,.5-.2,1.2-.4,1.7s-.5,1.2-.9,1.6c-.4.5-.9,1.1-1.3,1.6-.3.3-.8.7-1.2.9-.3.1-.7,0-1,0-.3-.2-.5-.4-.7-.8-.2-.4-.2-1-.2-1.4v-2.3c0-.7.1-1.2.2-1.8.2-1.2.7-2.4,1.3-3.4.4-.5.9-1.1,1.3-1.6.3-.3.8-.7,1.2-.9.3-.1.7,0,1,0,.3.2.5.4.7.8.2.4.2,1,.2,1.5h0ZM150.7,197.6c0,.3,0,.7.1,1,0,.1.3.1.5-.1.3-.2.4-.5.5-1s.2-1,.2-1.4v-2.1c0-.3,0-.7-.1-1,0-.2-.3-.1-.5.1-.3.2-.4.5-.5,1s-.2,1-.2,1.4v2.1h0Z"/>
          <path class="st17" d="M130.7,228.5c0-.8,0-1.5.3-2.2,0-.8.3-1.4.7-2.2s.7-1.4,1.1-2.1c.4-.7,1-1.3,1.6-2s.9-.8,1.4-1c.3-.1.8-.1,1.1,0,.3.2.7.4.8.9.2.5.3,1.1.2,1.6v3.3c0,.8,0,1.5-.3,2.2,0,.8-.4,1.5-.7,2.2-.3.8-.7,1.4-1.1,2.1-.4.7-1,1.3-1.6,2s-.9.8-1.4,1c-.3.1-.8.1-1.1,0-.3-.2-.7-.4-.8-.9-.2-.5-.3-1.1-.2-1.6v-3.4h0ZM135.7,226.8v-3.9c0-.2,0-.3-.2-.4h-.4c-.2,0-.4.2-.7.4s-.4.5-.7.8c-.2.3-.3.5-.4.9s-.2.7-.3,1v4.1c0,.4,0,.9.3,1.2s.5,0,1.1-.4c.4-.4.9-1,1.1-1.6s.3-1.3.4-2h-.2Z"/>
          <path class="st17" d="M145.1,210h.2v2.2c0,.1,0,.3-.2.4,0,.1,0,.2-.2.3l-3.5,3.4v2.6l3.1-3.1h.2v2.6c0,.1,0,.2-.2.3l-3.3,3.1v4c0,.1,0,.3-.2.4,0,.1,0,.2-.2.3l-1.5,1.4h-.2v-.2l.4-12.1v-.4c0-.1,0-.2.2-.3l5.3-5.1v.2Z"/>
          <path class="st17" d="M152.2,203.2h.2v2.2c0,.1-.1.3-.2.4,0,.1-.1.2-.2.3l-3.5,3.3v2.6l3.1-3.1h.2v2.2c0,.1,0,.3-.1.4,0,.1-.1.2-.2.3l-3.3,3.1v4c-.1.1-.2.3-.2.4s-.1.2-.2.3l-1.5,1.4h-.2v-.2l.4-12v-.4c0-.1,0-.2.2-.3l5.3-5.1v.2h.1Z"/>
          <path class="st29" d="M115.2,250.3h0c-.2,0-.3-.2-.2-.4v-8.7c0-.1.2-.2.3-.2l4.8-.5c.2,0,.3,0,.3.3h0v.4l-4.7,9-.2.2h-.3ZM115.5,241.4h0v8.5l4.7-8.8h0c0-.1-4.7.4-4.7.4h0Z"/>
          <path class="st29" d="M118.8,246.6h0s-.2-.2-.2-.3v-8.5c0-.2,0-.4.3-.5h0l4.8-.5s.2,0,.2.1v.5l-4.8,9.1c0,.1-.2.2-.3.2h0ZM118.9,237.6h0v8.3l4.7-8.9h0l-4.6.5h-.1Z"/>
          <path class="st29" d="M122.8,242.8h0c-.2,0-.3-.2-.3-.4v-8.8c0-.1.2-.2.3-.2l4.7-.5c.2,0,.3,0,.3.3h0v.4l-4.7,9s0,.1-.2.2h-.2.1ZM122.9,233.8h0v8.5l4.7-8.8h0c0-.1-4.7.4-4.7.4h0Z"/>
          <path class="st3" d="M122.2,295.5v-3.5l-.4.3h0v-.2h0v-.3h0l1.5-.9h0v.2h0v.3h0l-.4.3v3.5c0,.1,0,.2-.2.3h0c0,.1-.2.1-.2,0h-.2Z"/>
          <path class="st3" d="M123.6,294.7v-4c0-.1,0-.2.2-.3h0c0-.1.2-.1.2,0v1.5l.8-.4v-1.5c0-.1,0-.2.2-.3h0c0-.1.2-.1.2,0v3.9c0,.1,0,.2-.2.3h0c0,.1-.2.1-.2,0v-1.6l-.8.4v1.6c0,.1,0,.2-.2.3h0c0,.1-.2,0-.2,0h0Z"/>
          <path class="st3" d="M126,293.3v-3.9c0-.1,0-.2.2-.3h0c0-.1.2-.1.2,0v4c0,.1,0,.2-.2.3h0c0,.1-.2,0-.2,0h0Z"/>
          <path class="st3" d="M127.2,292.8h-.3v-.8h.4s.2-.1.2-.2v-.8s-.2-.1-.3-.1-.2,0-.3-.1c0,0-.2-.2-.2-.3v-.5c0-.3,0-.7.2-1,0-.2.3-.5.5-.7h.5v.7h-.3s-.2.1-.2.2v.7h0c0,.1.2.1.2.1.2.1.3.2.4.3v1.3c0,.2,0,.4-.3.7,0,.2-.3.3-.4.4l-.4.2h.3Z"/>
          <path class="st3" d="M129.5,291.3l-.5-3.7h0c0-.2,0-.3.2-.3h0c0-.1.2-.1.2,0l.2,2.3v.9-.9l.3-2.7h0v-.2h0l.3,2.4v.8-.9l.3-2.6c0-.1,0-.2.2-.3h.2l-.5,4.3s0,.2-.2.2h-.2q0,.2,0,.1l-.3-2.2v-.7.8l-.3,2.5s0,.2-.2.2h-.2c0,.2,0,.1,0,0h.5Z"/>
          <path class="st3" d="M132.3,289.8h0v-4.1h0c0-.1,1.2-.8,1.2-.8h0v.2h0v.3h0l-.8.4v1.1l.7-.4h0v.2h0v.3h0l-.7.4v1.2l.8-.4h0v.2h0v.3h0l-1.2.7h0v.3Z"/>
          <path class="st3" d="M134,288.7h0v-4.2h0l1.2-.7h0v.2h0v.3h0l-.8.4v1.1l.7-.4h0v.2h0v.3h0l-.7.4v1.2l.8-.4h0v.2h0v.3h0l-1.2.7h0v.3Z"/>
          <path class="st3" d="M137.6,286.7s0,.1-.2.2h-.2v.2h0l-.7-1.5v1.8c0,.1,0,.2-.2.3h0c0,.1-.2.1-.2,0v-3.9c0-.1,0-.2.2-.3h0c0-.1.2-.1.2,0v1.8h0l.7-2.3h0c0-.3.2-.3.2-.1h0c0,.1-.7,2.4-.7,2.4l.8,1.5h0v-.2h.1Z"/>
          <path class="st3" d="M138.3,284.2c0-1.4.3-2.4,1-2.7s1,.1,1,1.6-.3,2.4-1,2.7-1-.1-1-1.6ZM139.6,284.6v-2.3c0-.2-.2-.2-.3-.1-.2.1-.3.3-.3.5v2.3c0,.1,0,.2.3.2h0c.2-.1.3-.3.3-.5h0Z"/>
          <path class="st3" d="M140.7,284.8v-3.9c0-.1,0-.2.2-.3h0l.8,1.8v.3h0v-2.6c0-.1,0-.2.2-.3h0c0-.1.2,0,.2,0v3.9c0,.1,0,.2-.2.3h0l-.9-1.8v-.3h0v2.7c0,.1,0,.2-.2.3h-.2.1Z"/>
          <path class="st3" d="M143.1,283.5h0v-4c0-.1,0-.2.2-.3h0c0-.1,0,3.4,0,3.4l.7-.4h0v.2h0v.3h0l-1.1.7h0v.2h.2Z"/>
          <path class="st3" d="M144.8,282.3v-1.7l-.7-1.7h0c0-.1,0-.2.2-.3h0c0-.1.3,1.3.3,1.3l.3-1.8h0c0-.2.2-.2.2-.1h0c0,.1-.7,2.6-.7,2.6v1.7c0,.1,0,.2-.2.3h0c-.1,0-.2,0-.2,0l.3-.2h.3Z"/>
          <path class="st3" d="M141.2,294.9l-14.6,8.5c-.2,0-.3,0-.3-.2v-5c0-.2,0-.4.3-.7l14.6-8.5c.2,0,.3,0,.3.2v5c0,.2,0,.4-.3.7Z"/>
          <path class="st17" d="M129,300.3h0v-2.6h0c0-.1.4-.4.4-.4.2,0,.3-.1.4,0s0,.3,0,.4v.4c0,.1,0,.2-.2.3h.2v1.1c0,.2-.2.3-.4.4l-.5.3h.1ZM129.5,298.4v-.8h-.3v.9h.3ZM129.5,299.6s.2-.3.2-.5v-.2h-.4v1h.2v-.2h0Z"/>
          <path class="st17" d="M130.6,299.3s-.2-.2-.2-.5v-2.2h0c0-.1,0,0,0,0v2.2h.2l.2-.2v-2.5h0v2c0,.2,0,.5-.2.8,0,.2-.2.4-.4.5,0,.1-.3.2-.4,0h.9Z"/>
          <path class="st17" d="M132.4,298.4v-1.2l-.4-1.2h0c0-.1.2.9.2.9l.2-1.2h0l-.4,1.7v1.4h0c0,.1-.2,0-.2,0l.5-.4h.1Z"/>
          <path class="st17" d="M133.8,297.5v-2.9h0l.5,1.2v.2h0v-2.1h0v2.9h0l-.5-1.3v-.2h0v2h0q0,.1,0,0v.2Z"/>
          <path class="st17" d="M135.3,295.2c0-1,.2-1.6.7-2s.7,0,.7,1.1-.2,1.6-.7,2-.7,0-.7-1.1ZM136.3,295.5v-1.6q0-.1-.2,0s-.2.2-.2.3v1.6c0,.1,0,.2.2,0,0,0,.2-.2.2-.4h0Z"/>
          <path class="st17" d="M137.1,295.6l-.3-2.5h0v-.2h0l.2,1.6v.5-.7l.2-1.8h.2l.2,1.7v.5-.7l.2-1.8v-.2h0l-.3,3h0q0,.2,0,.1l-.2-1.5v-.4.5l-.2,1.7h0c0,.1.1.1.1.1h-.1Z"/>
        </g>
      </g>
      <g id="freepik--x--inject-507">
        <path class="st0" d="M171.1,155.9l-1.6-1h0c-.9-.4-2-.3-2.7.3-2.3,1.5-3.7,4-3.9,6.7,0,1,.3,2,1.1,2.5h0l1.5.9.3-.5c.4,0,.8-.2,1.1-.4,2.3-1.5,3.7-4,3.9-6.7,0-.3,0-.7-.1-1l.4-.7h0Z"/>
        <path class="st16" d="M171.1,155.9l-1.6-1h0c-.9-.4-2-.3-2.7.3-2.3,1.5-3.7,4-3.9,6.7,0,1,.3,2,1.1,2.5h0l1.5.9.3-.5c.4,0,.8-.2,1.1-.4,2.3-1.5,3.7-4,3.9-6.7,0-.3,0-.7-.1-1l.4-.7h0Z"/>
        <path class="st0" d="M162.9,160.7c0,.4-.1.9-.1,1.3,0,1,.3,2,1.1,2.5h0l1.5.9.3-.5c.4,0,.8-.2,1.1-.4s.8-.4,1.1-.8l-5-2.9h0Z"/>
        <path class="st0" d="M168.3,156.1c-2.3,1.5-3.7,4-3.9,6.7,0,2.5,1.7,3.5,3.9,2.3,2.3-1.5,3.7-4,3.9-6.7,0-2.5-1.7-3.5-3.9-2.3Z"/>
        <path class="st9" d="M168.3,156.1c-2.3,1.5-3.7,4-3.9,6.7,0,2.5,1.7,3.5,3.9,2.3,2.3-1.5,3.7-4,3.9-6.7,0-2.5-1.7-3.5-3.9-2.3Z"/>
        <path class="st29" d="M168.8,160.6l1.1-2.3c.1-.2.1-.5,0-.8-.2-.2-.4,0-.5.2l-1.1,2.3-1.1-1c-.1-.1-.3,0-.4.2-.1.2-.1.4,0,.7l1.1,1-1.1,2.3c-.1.2-.2.5,0,.8.2.1.4,0,.5,0h0l1.1-2.2.9.9h.2s.2-.1.2-.2c.1-.2.1-.4,0-.7l-.9-.9v-.3Z"/>
      </g>
    </g>
  </g>
  <g>
    <g id="freepik--Chart--inject-544">
      <g id="freepik--chart--inject-544">
        <path class="st26" d="M355.7,196.8l-67,38.6c-1.3.8-3,.8-4.3,0l-3.5-2.1c-1.2-.9-2.1-2.3-2.2-3.8v-77.3c0-1.5,1-2.9,2.2-3.8l67-38.6c1.3-.8,3-.8,4.3,0l3.5,2.1c1.2.9,2.1,2.3,2.2,3.8v77.3c0,1.5-1,2.9-2.2,3.7h0Z"/>
        <path class="st19" d="M288.5,235.6c-1.2.5-2.7.4-3.9-.2l-3.5-2.1c-1.2-.9-2.1-2.3-2.2-3.8v-77.3c0-.8.2-1.4.7-2.2l7.9,4.6c-.4.7-.7,1.3-.7,2.2v77.3c0,1.2.8,1.8,1.7,1.4h-.1Z"/>
        <path class="st3" d="M355.7,196.8l-67,38.6c-1.2.8-2.2,0-2.2-1.2v-77.2c0-1.5,1-2.9,2.2-3.8l67-38.6c1.2-.8,2.2,0,2.2,1.2v77.3c0,1.5-1,2.9-2.2,3.7h0Z"/>
        <path class="st1" d="M320.5,177.6l-18.2,25.8c8,8,23.5,2.1,34.6-13.7,6.6-9.4,10.2-19.4,10.2-28.9l-22,12.6c-1.7,1.2-3.4,2.5-4.6,4.1h0Z"/>
        <path class="st15" d="M320.5,177.6l-18.2,25.8c8,8,23.5,2.1,34.6-13.7,6.6-9.4,10.2-19.4,10.2-28.9l-22,12.6c-1.7,1.2-3.4,2.5-4.6,4.1h0Z"/>
        <path class="st17" d="M301.3,202.7l18.2-25.8h0c1.3-1.7,3-3.4,4.9-4.4l22-12.7c.5-.3,1.2,0,1.5.4v.5c0,9.8-3.6,19.9-10.3,29.6-7.4,10.3-16.7,17-25.2,17.7-4.1.5-8.1-1-11.2-3.8-.3-.4-.4-1-.2-1.3h0l.2-.2ZM345.7,162.6l-20.2,11.7c-1.6,1.1-3,2.3-4.1,3.8l-17.6,24.9c2.4,2,5.5,2.9,8.6,2.5,7.7-.7,16.7-7,23.5-16.7,1.2-1.6,2.2-3.4,3.3-5,3.9-6.5,6.2-13.8,6.7-21.4h-.2Z"/>
        <path class="st1" d="M321.2,172l-6.6-19.7c-12.9,12.4-20.1,32.6-15.8,45.1.8,2.3,1.8,4.2,3.5,5.9l18.2-25.8c1.1-1.6,1.3-3.6.9-5.5h-.1Z"/>
        <path class="st17" d="M313.8,151.4c.3-.3.7-.4,1.1-.3.4,0,.8.4.9.8l6.6,19.7c.7,2.2.3,4.6-1,6.5l-18.1,25.8c-.2.3-.5.4-.9.5-.3,0-.7,0-1-.3-1.7-1.7-3-3.9-3.8-6.3-3.1-9.1-.3-22.1,6.2-33.5,2.7-4.8,6-9.1,10-12.8h0ZM319.5,176.9c.9-1.3,1.1-3,.7-4.6h0l-6.1-18c-11.8,12.1-18.2,30.9-14.3,42.6.5,1.6,1.3,3.1,2.4,4.4l17.3-24.6h0Z"/>
        <path class="st1" d="M324.1,172.4l18.2-25.8c-6.4-6.5-17.2-4.3-27.6,5.6l6.6,19.7c.5,1.6,1.7,1.8,2.8.4h0Z"/>
        <path class="st6" d="M324.1,172.4l18.2-25.8c-6.4-6.5-17.2-4.3-27.6,5.6l6.6,19.7c.5,1.6,1.7,1.8,2.8.4h0Z"/>
        <path class="st17" d="M313.8,151.4c10.8-10.3,22.3-12.6,29.2-5.6.4.4.4,1.1,0,1.4l-18.2,25.8c-.5,1.2-2.1,1.8-3.4,1.2-.9-.3-1.3-1.2-1.4-2l-6.6-19.7v-1s0-.2.2-.2h.2ZM340.8,146.8c-5.9-5.1-15.4-2.9-24.8,5.7l6.4,19.1c0,.2.2.4.3.7.2,0,.4-.3.5-.5l17.6-24.9h0Z"/>
        <path class="st1" d="M324.9,173.4l22-12.6c0-6.3-1.5-10.7-4.8-14.1l-18.2,25.8c-1.1,1.3-.7,1.8,1,1h0Z"/>
        <path class="st7" d="M324.9,173.4l22-12.6c0-6.3-1.5-10.7-4.8-14.1l-18.2,25.8c-1.1,1.3-.7,1.8,1,1h0Z"/>
        <path class="st17" d="M323.1,171.8l18.2-25.8c.2-.3.5-.4.9-.5.3,0,.7,0,1,.3,3.5,3.5,5.1,8.1,5.1,14.9s-.2.9-.5,1.1l-22,12.7c-.5.3-2,1.2-2.8,0-.5-.7-.5-1.5,0-2.3l.4-.5h0l-.2.2ZM342.4,148.6l-16.2,22.9,19.6-11.4c0-5-1.2-8.7-3.5-11.6h0Z"/>
      </g>
    </g>
    <g id="freepik--Character--inject-2">
      <g id="freepik--character--inject-2">
        <g id="freepik--Top--inject-2">
          <path class="st30" d="M357.8,148.1c1.3,2.2,2.9,3.7,3,4.9.2,2.7.7,5.4,1.2,8,1.1,3.8,14.1,23.7,14.1,23.7,0,0,24.4,9.4,27.4,12,4.6,3.8,5.6,9,2.3,16.5,0,0-2.4-.9-10.3-4.4s-20.8-9.9-24-11.7c-2.6-1.5-4.1-2.1-6.3-6.5-2.6-5.4-7.6-16.6-7.6-16.6v-26.1h0v.2Z"/>
          <path class="st19" d="M371.8,177.8l4.6,6.8s21.9,9,24.6,10.4c2.9,1.4,8.7,5.1,6.8,13.1-1.8,8-2.5,9.4-2.5,9.4,0,0-3.9-5.2-12.9-9.2s-19.4-10-23-12c-2.2-1.3-2.9-2.4-4.6-6-1.7-3.7-3.4-7.5-3.4-7.5,0,0,6.5-6.5,10.2-5h.1Z"/>
          <path class="st20" d="M358.6,152.1l-1-2.4v1.2c.2.4.5.9,1,1.2h0Z"/>
          <path class="st30" d="M358.6,152.1c-1-1.1-1.7-2.3-2.4-3.6-.7-1.4-1.5-.7-1.7.3s0,1.7,1,4.6c.7,1.7,1.8,3.5,2.2,6.4l1-7.6h0Z"/>
        </g>
      </g>
    </g>
    <g id="freepik--character-4--inject-32">
      <g id="freepik--character--inject-32">
        <g id="freepik--character--inject-321">
          <path class="st19" d="M374.4,401.3s1,2.5,1.5,4.8c.4,1.7,1.1,4.8.4,6.1s-2.9,2.3-6.7,2.4c-2.5,0-6.2,1.8-8.8,3.5s-8.2,2.4-11.1,2.2c-3.4-.2-6.9-2.1-7.5-3.5s-1.1-3.3,7.9-6.5c0,0,10.8-4,14.5-8.3l9.8-.5h-.1Z"/>
          <path class="st30" d="M374.4,401.5h-1.7c0-.1-8,.3-8,.3-3.7,4.3-14.5,8.3-14.5,8.3l-1.4.5c-1.5,1.3-.1,3.5,3.7,3.7s15.3-4.2,17.9-5.5c2.7-1.4,4.4-4.3,4.2-7.4h-.1Z"/>
          <path class="st30" d="M374.3,398s0,2.2.1,3.5-1.3,3.1-5.2,3.1-4.6-.7-4.6-2.8v-3.1c-.1,0,9.6-.5,9.6-.5h0Z"/>
          <path class="st19" d="M405.8,388.2c.7.2.9,1.6,1,4.2,0,2,.5,5.4-1.7,6.2s-5.7.4-7.3-1.4c-1.8-2.5-3.8-4.9-5.9-7.3-2.4-2.5-4.9-4.8-5.9-8.2-.9-3.1-.2-4.6,2-5.4s4.1-.3,7.3,2.1c.9.5,1.7,1,2.7,1.3,2,.5,7.2,8.3,7.8,8.6Z"/>
          <path class="st30" d="M405.8,379.5v9.4s-2,4.3-8.1.3c-.1-.3-.8-9.5-.8-9.5l8.9-.2Z"/>
          <path class="st30" d="M398,379.6c-1-.3-1.8-.8-2.7-1.3h0c-2.5-.7-7.5.4-5.1,3.8,2.1,2.8,4.6,5.2,7.5,7.2,2.8,1.3,3.7-.4,3.7-.4l-1.3-7.6c-.5-.7-1.3-1.3-2.1-1.6h0Z"/>
          <path class="st0" d="M409.3,338.8c-.9-5.3-1.4-10.6-1.5-15.9,0,0,.8-15.5,1.6-31.1,1.8-34.7-.8-33.5-10.4-51.2,0,0-29.9-9.8-34.9,3.3,0,0-1.1,12-1.4,20.4-.8,21.5-2,61.9-1.3,69.5s.1,11.3,1,27.2c.8,13.4,1.7,38.1,1.7,38.1,5.5,2.9,10.6-1,10.6-1,0,0,6.9-32.4,6.5-41.1-.5-10.6-.2-19.5-.2-19.5,0,0,3.9-26.8,4.7-32.4.2,13.4,3.1,27.4,5.3,40.4,2.5,15.1,6,36.4,6,36.4,5.5,2.9,9.2,1.3,9.2,1.3,0,0,4.9-34,3.3-44.5h-.1Z"/>
          <path class="st0" d="M409.3,338.8c-.9-5.3-1.4-10.6-1.5-15.9,0,0,.8-15.5,1.6-31.1,1.8-34.7-.8-33.5-10.4-51.2,0,0-29.9-9.8-34.9,3.3,0,0-1.1,12-1.4,20.4-.8,21.5-2,61.9-1.3,69.5s.1,11.3,1,27.2c.8,13.4,1.7,38.1,1.7,38.1,5.5,2.9,10.6-1,10.6-1,0,0,6.9-32.4,6.5-41.1-.5-10.6-.2-19.5-.2-19.5,0,0,3.9-26.8,4.7-32.4.2,13.4,3.1,27.4,5.3,40.4,2.5,15.1,6,36.4,6,36.4,5.5,2.9,9.2,1.3,9.2,1.3,0,0,4.9-34,3.3-44.5h-.1Z"/>
          <path class="st13" d="M409.3,338.8c-.9-5.3-1.4-10.6-1.5-15.9,0,0,.8-15.5,1.6-31.1,1.8-34.7-.8-33.5-10.4-51.2,0,0-29.9-9.8-34.9,3.3,0,0-1.1,12-1.4,20.4-.8,21.5-2,61.9-1.3,69.5s.1,11.3,1,27.2c.8,13.4,1.7,38.1,1.7,38.1,5.5,2.9,10.6-1,10.6-1,0,0,6.9-32.4,6.5-41.1-.5-10.6-.2-19.5-.2-19.5,0,0,3.9-26.8,4.7-32.4.2,13.4,3.1,27.4,5.3,40.4,2.5,15.1,6,36.4,6,36.4,5.5,2.9,9.2,1.3,9.2,1.3,0,0,4.9-34,3.3-44.5h-.1Z"/>
          <path class="st14" d="M390.6,275.5l-5,29.8c.2,10.8,2.1,21.9,4,32.6-1.2-10.6-1.7-21.3-1.6-31.9l5.5-27.9c6.8-1.1,9.2-5.2,9.8-7-4.7,5.4-12.6,4.4-12.6,4.4h-.1Z"/>
          <polygon class="st21" points="379 188.3 379.8 206.3 393.2 205.5 392.8 186.8 379 188.3"/>
          <path class="st3" d="M406.2,207.5c-.5-4.2-2.1-9.3-6.1-11.1-2.9-1-6.1-1.2-9.1-.5-.5,2-7.5,4.3-11,1.1-3.4.7-7.4,1.4-11.9,2.5-3.6.9-5.6,14.3-8,18.6-2.8,5.1,0,12,3.5,14.7,0,0,0,4.9.4,10.7,6.2,5.1,17.7,6.5,26.5,4.2,6.7-1.7,8.6-4,10-8.7.5-2,1.1-3.7,2.4-7.2,2.9-8,4.1-19,3.4-24.6h0Z"/>
          <path class="st26" d="M379.2,193.2c-.8,0-1.3.3-2.2,1.5-1.3,1.6-3,3.6-3,3.6,0,0,1.6,2.9,6.5,3.9,3.9,1,8,.8,11.8-.5,2.5-1.1,2.9-2,3.3-3,.1-1.6-.2-3.3-1-4.6-.8-1.6-1.6-1.5-1.6-1.5v1.3s-.2,1.4-4.1,2.1-8.5,0-9.5-1.1v-1.6h-.1Z"/>
          <path class="st24" d="M360.3,158.6c-.1-.8-.1-1.5,0-2.3.7-3.7,4.2-6.2,8-5.5.3,0,.8.2,1.1.3-.5-3,1-6.1,3.8-7.4,2.2-.8,4.6-.8,6.6.2,1.3.4,2.3,1.3,2.9,2.5,2.1-3.5,6.5-4.6,10-2.5,1.6,1,2.8,2.5,3.3,4.3,2.2-.5,5.3.4,6.3,2.7,1.1,2.5-.2,5.5.2,8.1.3,1.6,1.1,3.3,1.4,5,.3,2,.5,3.8.5,5.7.3,7.9-18.1,13.1-17.8,18.5l-9.9-11.9c0-.5-1.4-1.7-1.7-2.2-.5-.8-1.1-1.6-1.6-2.5-1.7-2.4-4-4.3-6.8-5.4-2-.9-3.6-2.3-4.9-4-.8-1.1-1.3-2.4-1.5-3.8h.1Z"/>
          <path class="st25" d="M368.1,171.9s-3.1,4.8-2.8,5.2c.8.4,1.5.9,2.4,1l.3-6.3h.1Z"/>
          <path class="st21" d="M377.8,156.9c-3.1,1.6-8.5,4.4-9.9,15.7-1.4,11.5,1.2,15.5,2.8,17,1.1,1,6.6,1.4,9.5.5,3.7-1.1,11.5-5,15.2-10.8,4.3-6.9,5.2-16.4.2-19.9-7-5.1-15.3-3.7-18-2.4h.1Z"/>
          <path class="st25" d="M371,189.9c1.3.8,5.2,1.1,8.1.5v-2.2c-1.4.5-2.7,1.1-4.1,1.4-1.3.3-2.7.3-4,.2Z"/>
          <path class="st24" d="M376.4,156.6c-1.3.4-2.5,1.2-3.6,2.1s-1,1-1.3,1.6c-.2.5-.3,1.2-.2,1.8.2,1.7,1.3,3.3,2.9,4-.9,1.2-1.1,2.6-.8,4,.5,1.6,1.5,3,2.8,4.1,0,0,.1.1.2.2.2,0,.3,0,.5-.1,2-1.3,3.1-3.6,5.9-2.6,3.6,1.2,3.5,5.6.5,8.5-1,1-2.4,1.6-3.8,1.7-.8,0-1.4-.2-2-.7,0,0,0,5.9,5.2,8.1,3.5,1,7.3,1.1,10.7.1,2-2.4,5.1-5.5,7.7-8.2,8.7-9.1,9.1-22.3-3.6-26.6-.4-.1-.9-.3-1.3-.4-6.2-1.6-12.8-1-18.5,1.7l-1.4.7h-.1Z"/>
          <path class="st24" d="M376,178.3c-1.4-.4-2.2-2.1-1.6-3.4h0c.5-1.4,2.1-2.1,3.5-1.6l-1.8,5.1h0Z"/>
        </g>
      </g>
    </g>
    <path class="st30" d="M339.2,217.9s-19.7-3.9-20.8-4.7c-1-.7-1.3-1.7-1.7-2.8-.5-1.1-1.3-2.2-2.2-3.1-.5-.5-1.3-1.2-1.7-1.7s-.7-1.4-1.2-2-1.1-.2-1.4.4c-.3.9-.3,1.8,0,2.7.2.3.2.8.4,1.1.2.3.3.7.4,1v.5c-.2.3-.9,0-1.2,0-2-.8-2.9-1.7-4.3-3-.7-.5-1.3-1.3-2.1-1.8-.5-.5-1.4-1-2.2-1.4-.5-.2-1.2-.3-1.7-.3-.9.3-.5,1,.2,2.2.4.5.7,1.1.7,1.1-.3.9-.2,1.7.3,2.6.4.5,1.1,1.6,1.1,1.6-.2.2-.2.5-.2,1,.2.8.5,1.4,1,2.2.4.5.5,1.3.7,2,.2,1.7,2.2,2.9,3.5,3.7,1.5,1,2.4,1,4,1.5,1,.3,1.7.7,2.6,1s1.6.4,2.5.7c1.8.7,16.4,6.3,22.2,7.8,2.9.8,3.7,1.5,7.7-.5,7.3-3.7,12.4-6.3,16.7-8.5,5.7-2.9,6.7-4.4,7.6-8.1,1.7-8.6-2.6-11.6-2.6-11.6-3.3.5-4.4,1.2-10.4,5.3-6.5,4.3-18,11.6-18,11.6h.2v-.2Z"/>
    <path class="st19" d="M367.7,200.3c-5.3,1.3-7.5,3.3-17.7,10-8.9,5.7-10.8,7.4-10.8,7.4l-5.3-.9s-1.7,1.2-3,4.8c-.9,2-.9,4.1,0,6.1,0,0,6.8,2.5,8.7,2.9s2,1,5.9-.9,20.2-9.6,21.6-10.4c1.8-1,3.9-3.7,4.6-9,.5-5.3-1.7-9.6-3.9-10h.2-.1Z"/>
  </g>
</svg>