<?xml version="1.0" encoding="UTF-8"?>
<svg id="Layer_1" xmlns="http://www.w3.org/2000/svg" version="1.1" viewBox="0 0 500 500">
  <!-- Generator: Adobe Illustrator 29.1.0, SVG Export Plug-In . SVG Version: 2.1.0 Build 142)  -->
  <defs>
    <style>
      .st0 {
        fill: #4c4a4b;
      }

      .st1 {
        fill: #004a99;
      }

      .st2 {
        fill: #37474f;
      }

      .st3 {
        fill: #b16668;
      }

      .st4 {
        opacity: .6;
      }

      .st5 {
        fill: #263238;
      }

      .st6 {
        fill: #c16f19;
      }

      .st7, .st8, .st9, .st10, .st11 {
        fill: #fff;
      }

      .st12 {
        fill: #f0f0f0;
      }

      .st13, .st14 {
        opacity: .4;
      }

      .st15, .st16, .st11 {
        opacity: .2;
      }

      .st17 {
        fill: #ffa8a7;
      }

      .st18 {
        fill: #f28f8f;
      }

      .st19 {
        fill: #711270;
      }

      .st20 {
        fill: #c8856a;
      }

      .st8, .st21, .st9, .st10, .st14, .st22, .st16, .st11 {
        isolation: isolate;
      }

      .st8, .st22 {
        opacity: .3;
      }

      .st23 {
        fill: #e0e0e0;
      }

      .st21, .st24 {
        opacity: .1;
      }

      .st9 {
        opacity: .5;
      }

      .st10 {
        opacity: .7;
      }

      .st25 {
        fill: #af6152;
      }

      .st26 {
        fill: #f0997a;
      }

      .st27 {
        fill: #455a64;
      }

      .st28 {
        fill: #ebebeb;
      }

      .st29 {
        fill: #f5f5f5;
      }

      .st30 {
        fill: #ffbda7;
      }

      .st31 {
        fill: #fafafa;
      }

      .st32 {
        fill: #e6e6e6;
      }
    </style>
  </defs>
  <g>
    <g id="freepik--Floor--inject-115">
      <path id="freepik--floor--inject-115" class="st31" d="M87.6,290.1c-89.7,46.9-89.7,123,0,170,89.7,46.9,235,46.9,324.6,0,89.7-46.9,89.7-123,0-170-89.7-46.9-235-46.9-324.6,0h0Z"/>
    </g>
    <g id="freepik--Pictures--inject-115">
      <g id="freepik--Picture--inject-115">
        <g id="freepik--Frame--inject-115">
          <polygon class="st31" points="160.8 91.2 162.7 92.5 202 69.8 200.1 68.7 160.8 91.2"/>
          <polygon class="st7" points="200.1 68.7 162.7 90.2 162.7 51.1 200.1 29.5 200.1 68.7"/>
          <path class="st12" d="M195.1,61.9c0-.4-.2-.9-.6-1-.2,0,0-.7-.4-.6,0,0,0-.6-.2-.4,0,.7,0,1.2-.6,1-.2,0,0-.6,0-.5-.4,0-.5.4-.6.9-.4-.2-.4.6-.6.7,0,.6-.6.7-.7,1.2-.2.7.2,1.1.1,1.7s.7-.5,1-.7.6-.6.9-.5c0,0,0,.4.1.2.2-.4,0-.4.2,0,.1.7.6.5,1.1,0,.1-.6.2-1.2.4-1.7v-.4h0Z"/>
          <path class="st12" d="M193,58.9c.1.2.2.2.6,0s0,.5,0,.5c.5,0,.2,0,.7-.5.1,0,.2.4.4,0s-.2,0-.2-.4,0-.2,0-.2c-.4,0-.9-.5-1.2.2-.1.2,0-.4-.1-.2s-.4.4-.2.4h0v.2Z"/>
          <path class="st12" d="M196.4,62.5c-.2,0-.1.2-.2.5s-.4.5-.4.7v.4h.1c.1-.2.9-1.5.5-1.4h0v-.2Z"/>
          <path class="st12" d="M196.9,61.8h-.2c-.1.2-.2.5,0,.6-.1.6.2-.5.2-.6Z"/>
          <path class="st12" d="M194.8,64.5c0-.2,0,0-.2,0-.5,0,.2,1,.2,0Z"/>
          <path class="st12" d="M179.5,49.5c-.2,0-.5.6-.7.4,0,0-.4.7-.2.4.4-.9-.2,0-.4,0,0,0,.2-.2,0-.2,1.5-1.4-1.7,0-2,.9,0,.4-.2,0-.5.4,0,.2,0,0,0,0h-.2c-.1,0-1.5,1.6-1.1,1.6s-.5.6-.6.9.2,0,.2,0v.2c.5.4,1.1-1.1,1.5.4,0,.2,0,.3.1.2.2,0-.5.6,0,.6h0v-.2c0-.2,0,0,0,0,0,0-.2.2-.2.6,0,.6.5,1.6,1,1.2,0-.5.2-1,.4-1.5.4-.2.6-.6.7-1.1.2-.2,1.4-1.2.6-1,0,0,0-.2.1-.4,0,0,.4,0,.2,0,0,0-.4-.2,0-.2h0c0-.4-.4.2-.2,0,0-.2.1-.2.2-.2s.2-.2.1-.2,0,0,0,0c.4-.2-.2,0,.2-.5,0-.2-.2,0-.2,0l.2-.4c.2-.2-.2,0,0,0h0s-.2.4-.2,0,.1-.6.4-.9c0,0-.2.2-.2,0,.5-.5,0,0,.4-.5.2,0,.6-.4.5-.5h0Z"/>
          <path class="st12" d="M177.4,68.4c-.2.2-.4-.4-.6,0s-.5,0-.9,0c0-.2-.1-.6-.4-.6s0,0-.4.2c-.1-.2-.4,0-.5-.4-.1,0-.4.2-.5.2h-.2s-.2.4-.2,0c0,0-.4.4-.4.6-1.4,1.1-.4-.7-1-.5-.2.2-.3.2-.4,0-.1-.2.2-.2.1-.5s.1-.2,0-.2c-.4,0-.5,1.1-.9.9-.4-.6-.2-1.4.2-1.9.2,0,.4,0,.5-.4.9-.5.5.4.9.4.1-.5-.4-.9,0-1.4.2-.5.5-.6.2-1,0-.4,0,.2.1-.2,0,0,.1-.5.2-.5.2-.2,0,0,0,0,.2,0,0-.4.2-.6s.5-.9.4-.2c.1,0,.9-.7.6-.9-.1,0,0,.5-.2.4-.4,0,0-.6-.1-.6-.4.2-.5.5-.1,0,.2,0,.9-.7.9-.6-.4,1.1-.2.6.2.6s.2-.5,0-.5v-.7c-.4-.4-.5,0-.7-.6-.2-1-.5,1-.7,0,0-.2-.2,0-.4-.2s-.2,0-.2,0c0,0-.2.2-.2.5.1.2-.1.5.1.6s-.2.6-.2.7.2.5,0,.7c-.1,0-.2-.2-.2-.6-.2.2-.4,0-.6,0h-.4c0-.4-.4,0-.2-.5,0-.5.6-1,.1-1,.1,0,.9-.6.4-.6,0-.2.2,0,.4-.2,0-.2.2,0,.4-.5s0-.4,0-.7c0,0-.4,0-.1,0s.4-.2.5-.4c.2,0,.1.2.2.5s.2,0,0,0h.2c0,.4-.1,0-.2.6-.5,0-.4.7,0,.2.2-.2.1.2.4.2s.7,0,.4-.2c0,0,.1,0,.2-.2.1-.5-.4-.2-.2-.5s.4,0,.4,0c.7-1-.6-.4-.4-.7,0-.7-.7-.2-1-.6-.4,0-1.5.2-1.2,1.2,0,.2.4,0,.6,0-.2,0,0,.2-.1.4,0,.4-.2,0-.1.4s0,0-.1,0v-.2h-.2c-.5-.5,0-.4,0-.9s-.6,0-.5.5c.1,0-.2.4,0,.5s0,.4-.1.4c-.2.5,0,0,0,.5s-1.2.6-.2,0c0-.2-.1,0,0-.2-.4-.2-.5,0-.4-.9-.5.4-.2.6-.4.7,0-.2-.2-.4-.2,0h-.2c.2-.5-.5.2-.5.5.2.4.2,0,.6,0,0,.2-.5.2-.5.5.4,0,.6,0,1-.2,0,0-.1,0,0,.2s0,.4,0,0-.5.2-.6.2,0,0,0-.2c-.2,0-.7,0-.9.2h0c-.2.4-.1,0-.4,0,0,.5-.4.2-.5.6-.2,0-.2.4-.4.4-.9,0-1.6.4-2.4.9,0,.2-.1,0-.2.4s-.1.5-.4.5.4.2.4.2c.2.2-.2.4-.2.2-.2.4-.4.2-.2.5s.6-.6.5,0h-.1c-.1,0,0,0,0,0,0,0-.4.6-.2.6s0,.2,0,0c0,.2.2,0,.2,0,0,.5.1,0,.2,0s0,0,0,0c.2-.4.1,0,0,.4.2,0,.4-.5.5-.7-.1,0,0-.2.1-.4,0-.4.1,0,0,.2.1,0,.2-.4.4-.4s0-.2,0-.2c.4,0,1-.4,1.2.2.4-.2,0,.6.4,0,.2,0,.1.4.4.2,0,.4,0,.5.4.6.1.6,0,1.6.2,2.1.2.4.5.4.6.9.2,0,0,.4.1.4s.1,0,.1.2h.2c.2,0-.4-.9-.5-1,0-.6.6.7.9.7.1.6.2.7.7.6.5-.2.7,0,1.1,0,0,.4.2.5.5.5.2.2.1-.2.2-.4.4.5,0,.9-.1,1.6v.4c-.2.4,0,.5.1.7,0,1,1,.6.9,1.9,0,1.2-.2,2.4-.4,3.6.1,0,0-.2.1-.4v.5c0,.2-.1.2-.2.6,0,0,.1,0,0,0s0,0,0,0c-.1.2,0,0,0,0v.5s.1,0,0,.2c0,0,.2-.4.1,0s.1,0,0,0,0,.2,0,.4c.1,0,.4,0,.2-.2,0,0,.1-.2,0,0-.2.2,0-.2-.1-.4,0-.4.2-.7.4-1,0,0-.2,0,0-.4s0-.4.2-.6-.1,0,0-.2,0,0,.2-.2c0-.6.5-.5.6-1,0-.5-.1-.4.2-.6.1-.2.2-.6.4-.9h0c.2-1.9.6-1,1-2.4.4-2.1.7-1.5.7-2.7h.2v.6ZM167.3,63.2h0ZM171.9,62.5c.2-.6.4,0,.6,0s.5,0,.2,0,0,.2-.1.4,0-.2,0,0,0-.2,0-.2c-.4,0-.1.6-.4.9-.1,0,0-.6,0-.9-.1,0-.9.6-.2-.2h-.1ZM170.3,58.9h0ZM168.6,60.8c.1-.2,0-.5.4-.6,0,.2.2,0,.2,0,0,0-.2.4-.4.5h0s-.2.2-.1,0h-.1Z"/>
          <path class="st12" d="M171.3,55.1c.2,0,.5.4.7,0v.4h0c-.1.2-.4.5-.5.4-.7.4.2,0,.1.6l.7-.4c0-.4.4,0,.5-.5-.1-.4-1,.9-1,0,.4-.2.7-.2,1.1-.7,0-.2-.2,0,0-.2.4-.5.2,0,.4-.9.4-.4.6-.9,1-1.4,1-.9-.5-.2-.9,0s-.7.4-1,.9c-.1,0-.2,0-.4.4l-.5.4c.1-.2.1.4.5,0,0,0,.1.2.4,0,.1,0,.6-.6.4-.2s-.4,0-.2.5c-.1,0-.7,0-.4.2,0,0,.1,0,0,0h-.2s-.4,0-.6-.2c-.2.2-.4.7-.2.9v.2-.2Z"/>
          <path class="st12" d="M168.4,59.1c.4.4.5-.6.9-1-.1,0-.6,0-.9.2,0,.5-.2.9,0,.7Z"/>
          <path class="st12" d="M169.3,57.3s0,.2-.1.4c0,0,.2-.2.4,0-.1.5.2,0,.4-.2s.4,0,.5-.5c0-.2-.4.2-.2-.2-.4,0,0,.5-.2.5h-.5v.2h-.1Z"/>
          <path class="st12" d="M171.1,56.8c-.1,0-.5.4-.2.5,0,0-.4.2-.1.4.5.5.7-.7.5-.5-.2,0,.1,0,0-.4h-.1Z"/>
          <path class="st12" d="M172.2,59.1h.4c.1,0,.2,0,.4-.2s-.4,0-.5-.4c-.1,0,0,.5-.2.6h0Z"/>
          <path class="st12" d="M168.7,57.7c.4,0,.4-.7.4-.4.7-1.2-.7.4-.4.4Z"/>
          <path class="st12" d="M173.8,66.9c.2-.5-.1-.6-.4-.4s-.6-.2-.7.2c.4.4,1.2-.6,1.1,0h0Z"/>
          <path class="st12" d="M170.4,55.7c.2,0,0,0,0,.2s.4,0,.6-.2c0-.5-1,0-.5,0h-.1Z"/>
          <path class="st12" d="M170.8,56.2c0,.5,0,0,0,.4.2,0,.1-.6,0-.4Z"/>
          <path class="st12" d="M168,59.9h0Z"/>
          <path class="st12" d="M191.8,59.2c0-.2-.2-.2,0-.7-.2-.2-.2,0-.5.4-.1,0-.2.4-.4.6s-.2,0-.2.2c0,.5.5.7.7.2,0-.2,0-.5.2-.7h.1Z"/>
          <path class="st12" d="M194,51.3c-.1,0-.1,1-.4.9s0,.4-.4.5c-.5.7-.1.6.1.4,0,0,0-.2,0,0s0,0,0,0c0-.2.4-.4.5-.6s.4-.9,0-1h.1Z"/>
          <path class="st12" d="M189.2,44.8c.2,0,.7.2.7-.4s-.2,0-.2-.2c0-.6-.6.4-.5.6h0Z"/>
          <path class="st12" d="M193.6,43.7c.1,0,.7-.4.6-.7-.1,0-1.1.5-.6.7Z"/>
          <path class="st12" d="M192.1,59.1c0-.2,0,0-.1,0-.2,0-.2.9-.2,1,.1,0,0-.6.2-.2.1,0,0-.4,0-.4,0,0,.2-.2,0-.4h.1Z"/>
          <path class="st12" d="M192.5,57.4s-.4.4-.2,0c.1,0,0,0,.1-.2s-.1,0,0,0,0,0,0,0c-.1-.2-.1,0,0,.2s-.4,0-.1.2h0c.1.2,0,0,0,.4.1-.2,0,0,.2,0,0-.4.2-.4.1-.7h-.1Z"/>
          <path class="st12" d="M189.8,45c.1,0,.5-.2.6-.6-.2-.4-.5,0-.6.6Z"/>
          <path class="st12" d="M194.4,50.6c-.5.4,0-.7-.5.7,0,.2.1,0,0,0s0,0,0,0c0,0,.6-.5.5-.6h0Z"/>
          <path class="st12" d="M191.9,56.8v.5c.2,0,.1-.6.1-.9s-.2,0-.2,0v.2h.1Z"/>
          <path class="st12" d="M194,49.1c0,.2,0,1.4,0,1.1v-.6c0-.2-.1-1.5-.2-.6h.2Z"/>
          <path class="st12" d="M183.8,60.9h0Z"/>
          <path class="st12" d="M182.8,57.6h0Z"/>
          <path class="st12" d="M184.9,65.2c-.4,1-.5.5-.5,1.7-.2.5.1,1,.4.4,0-.6.5-1.9.1-2.1h0Z"/>
          <path class="st12" d="M184.5,63.2c1.2-3.1.4-1.2-.2-1.4,0-.4-.2-.4-.4-.5-.1-.2-.2-.5-.2-.9-.1,0-.2-.5-.2-.7.2,0,0-.4,0-.6-.2.2-.6.4-.9.5-.2,0-.5,0-.5.5-.2.2-.5-.2-.6,0h-.1q0,0,0,0c.1,0,0,0,0,0,.4-1.2-1.4.6-1.6.9-.1.5-.4.7-.4,1.1-.2.4-.5.9-.6,1.2-.2.6,0,.9-.1,1.5,0,0,0,.2.1.4.2,0,.2.6.5.5.5.4,1-.5,1.5-.7.1,0,.1.2.4,0,.2-.4.5,0,.2.2-.1.7.4.7.4,1.6-.1.9,0,1.7.1,2.6.4.7.1,1.5,1,.5.5-.7.7-1.6.9-2.6,0-.5.6-.9.6-1.2,0-1.2-.4-1.5.5-2.9,0,0-.2,0-.2,0Z"/>
          <path class="st12" d="M198.9,43.2c-.1-.2-.4.2-.5,0,0-.4-.5-.2-.6-.2s-.6.2-.9.4c-.1,0-.2,0-.2.2s-.5,0-.5.4h0c0-.2-.1,0-.1,0,0-.6-.6.4-.9,0-.2,0-.2-.4-.5,0h0c0-.4-.4,0-.6,0s.1,0,0,.2-.5.2-.7.4c0,.5-.5.2-.4-.2s-.5,0-.5.2-.2,0-.4.2h-.6s-.5.4-.2,0c.5-.6.2-1-.2-.6-.1,0-.2,0-.4-.2-.2,0-.4.6-.5.7-.2,0-.5.4-.7.6-.5.5-.2.4-.4.9-.2,0-.6.2-.5.6,0,0,.2,0,.1,0h-.5c0,.2.4.2,0,.4-.4.2,0-.5-.2,0s-.2,0-.1.5c0,0,0,0,0-.2,0-.5-.4,0-.4.2s-.2.2,0,.5c-.1.4.1.2.1.5-.2.2-.5-.2-.7,0,0,.2-.2,0-.4,0h.2-.2c-.2.5-.5.2-.7.6-.1.2-.2.4-.4.6s-.2,0,0-.2c0-.4-.4,0-.1.5-.2,0-.5.4-.5.7-.2,0-.5,0-.2.2-.2.4-.2-.4-.4-.4s1,0,.7-.7h-1s.1-.4-.2-.2c-.2,0-.5.4-.6.6-.2.2,0,0-.5.5h0c0,.2-.1,0-.2.2.1,0-.2,1-.4,1.1s-.2.5-.4.6c-.5.4-.2,1.9.2.9.2-.4.2.7.4.5.5-.6,0-.4.4-1,.2-.5-.2-.5,0-1,.1-.2.4-.5.4-.9.2-.4.5-.2.1.2-.9,2.1.9,0,.5.7-.1,0-.2,0-.5.2s-.1.4,0,.2v.2c-.4-.4-.1.7-.5.9-.1,0-.2.4-.5.4s-.2.2-.2,0v-.4c.1,0,0,0,0-.2,0-.4,0,0-.1,0-.2.5.2.5-.4,1-.1,0-.1.5-.2.6s0,.2-.1.2,0,.2-.2.2.1.2-.4.4c-.1.4.2,0,.2.4.1,1.1-1,.2-.7,2,0,.2.2,0,.2,0,0,0,.1,0,.2-.2.4,0,.2-.9.5-1.1v-.2c.1-.4.5,0,.7-.6.1.2.7.2.6.9,0,.2.2-.2.2-.4v-.2c-.1-.2-.4,0-.5-.4-.2-.6.5,0,.6,0,0,.2,0,.5.2.5-.1.4,0,.4.2,0h0v-.2c.1,0,.2-.5.4-.2s0,.6.2.6.2-.4.4,0,0,0,.1,0c.4-.6.1.4.1.7,0,1,.7,1.7,1,2.5.4-.2,1.9-2.2,1.4-2.5-.2,0-.1-.6-.4,0-.1.2-.4.5-.4,0,0,0,0,.2-.1,0,0-.2-.2-.2-.2-.5s.2,0,.5,0c.5,0,1,0,1.2-.5h.1c.1.2,0,0,.1,0s.2.6.4,0c0,.6.1,1.2.4,1.7.2.6.4-1,.5-1.2.4-.5,1-2.2,1-1.4.4.4,0,.7.5.4.1,0,0,.4,0,.4h0s-.1,0,0,0,0,.5,0,.6c.2,0,.1.6.4.7-.2,0-.2-.4-.5-.2s.4.6.4.9.5,0,.5.5.4,0,.5,0,.7-.2.6-.4h-.5c-.2,0-.6.2-.4-.5-.2,0-.4,0-.4-.4,0,0,.2,0,.1,0,0-.7-.6-.6-.4-1.5.2,0,.4,0,.5.4.2-.2.4-.5.5-.9,0-.5-.2-.5-.4-.7,0-.2.2-.7.4-.6s0,0,0,0c.4-.6.9-.7.9-1.5s.4-.6,0-.7c.2-.2,0,0,0-.2.2,0-.2-.2,0-.6s.5-.5,0-.5c0,0-.1.4-.1,0-.4,0,0-.5.2-.7,0,.4,0,0,.2,0s-.1.6.2.2c0,.5,0,.7.2.2,0-.4-.4-.4,0-.7.2-.6.1-.7.6-1,.5-.7.6-1.5.6-2.4s-.5.4-.5,0c.5-1,1.1-1.6,1.7-1.9.2-.2.4-1.2.7-1,0,.4.2-.5.5-.5,0,.9-1.4,2.1-.7,3,0-.4.2-.7.5-1,.2-.6,0-.5,0-.7.2-.7.6-.6,1-1s.9-.7.6-1c0,0-.2,0,0-.2s.2-.7.4-.5.2,0,.2,0c0,0,.2.2.4,0-.1-.4.1-.2,0-.5l-.4,1v1.1ZM184.2,56.8c-.2.5-.5.2-.7.4-.4.5-.7.5-.5-.2,0-.4.2-.6.5-.5h.2c-.1-.2.2-.5.4-.7-.4,1,0,.4.2,1h-.1ZM185.4,56.3c-.4.2.1.4,0,.9-.6.2-.4,0-.4-.6-.2-.2-.2-.6,0-.9.4-.6.7-.5.2,0,0,.2.5.2.4.5h-.2ZM187.5,49.2c-.2,0,0-.2,0-.5,0,.2.2.4,0,.5Z"/>
          <path class="st12" d="M181.2,49.6c0,.2.1.2.2.4,0,.2.1,0,.1.2s.2-.7.4-.9c.1.2.2.4.4,0-.9-.2.5-.5.2-1-.2,0-.4.4-.6.2s-.2.2-.4.4c-.2,0,0,.4-.1.2h0c0-.2,0,0,0,0h0s-.5.4-.4.5h.1Z"/>
          <path class="st12" d="M186.9,47.1c-.7.5-1.2,1.2-1.5,2.1v.2c0,.2-.2.2,0,.4h.5c-.5-1.1,1.5-2.6,1.1-2.6h-.1Z"/>
          <path class="st12" d="M179.4,56.4v.4s0,.2,0,0,0,0,.1,0-.1,0-.1.2c-.1.5.1,0,0,.4,0,.2.7-.5.6-.7h-.2s-.1,0-.1-.2c0,0,0,0,0-.2.1-.2,0,0-.1-.2h-.1s-.1.4,0,.4h0Z"/>
          <path class="st12" d="M179.4,54.3c-.1-.2-.4.2-.5.2s0,.2,0,.2c-.2-.4-.2.5,0,.5s1-.7.6-.9h-.1Z"/>
          <path class="st12" d="M179.2,57.9c.2-.2.4-.5.2-.9,0,0-.4.2-.2.4s-.2.5,0,.5Z"/>
          <path class="st12" d="M181.4,59.1v.2s.2-.2,0-.2Z"/>
          <path class="st12" d="M181,58.6c0-.6-.2,0-.1.4,0,.4.2-.2.1-.4Z"/>
          <path class="st12" d="M180.3,59.2s-.1.4,0,.2.4-.5,0-.2Z"/>
          <path class="st12" d="M205.6,22.1l-46.5,26.8v49.8l46.5-26.8s0-49.8,0-49.8ZM202,69.8l-39.3,22.7v-41.4l39.3-22.7v41.4Z"/>
          <polygon class="st23" points="202 69.8 200.1 68.7 200.1 29.5 202 28.4 202 69.8"/>
          <polygon class="st31" points="205.6 22.1 203.7 21 157.2 47.8 159.1 49 205.6 22.1"/>
          <polygon class="st23" points="157.2 47.8 159.1 49 159.1 98.7 157.2 97.6 157.2 47.8"/>
        </g>
      </g>
      <g id="freepik--picture--inject-115">
        <g id="freepik--frame--inject-115">
          <polygon class="st31" points="160.8 152.3 162.7 153.5 202 130.8 200.1 129.6 160.8 152.3"/>
          <polygon class="st7" points="200.1 129.6 162.7 151.2 162.7 112.1 200.1 90.6 200.1 129.6"/>
          <path class="st12" d="M205.6,83.1l-46.5,26.8v49.8l46.5-26.8v-49.8h0ZM202,130.8l-39.3,22.7v-41.4l39.3-22.7v41.4Z"/>
          <polygon class="st23" points="202 130.8 200.1 129.6 200.1 90.6 202 89.5 202 130.8"/>
          <polygon class="st31" points="205.6 83.1 203.7 82 157.2 108.9 159.1 110.1 205.6 83.1"/>
          <polygon class="st23" points="157.2 108.9 159.1 110.1 159.1 159.8 157.2 158.7 157.2 108.9"/>
        </g>
        <g id="freepik--Land--inject-115">
          <polygon class="st12" points="198.6 128.5 164.2 148.5 164.2 138.5 172.8 118.5 178.2 123.5 176.3 131.9 188.2 106.4 198.6 118.5 198.6 128.5"/>
          <path class="st12" d="M177.9,108.9c-1.5,1-2.5,2.6-2.5,4.4s1.1,2.2,2.5,1.5c1.5-1,2.5-2.6,2.5-4.4s-1.1-2.2-2.5-1.5Z"/>
        </g>
      </g>
    </g>
    <g id="freepik--Window--inject-115">
      <g id="freepik--window--inject-115">
        <g id="freepik--window--inject-1151">
          <polygon class="st31" points="27 242.3 30.4 242.5 136.9 180.9 135.3 179.7 27 242.3"/>
          <polygon class="st31" points="135.3 179.7 30.4 240.3 30.4 91.4 135.3 30.7 135.3 179.7"/>
          <path class="st12" d="M140.3,24L27,89.5v158.9l113.2-65.5s0-158.9,0-158.9ZM136.9,180.9l-106.5,61.6V91.4l106.5-61.6v151.2h0Z"/>
          <polygon class="st23" points="136.9 180.9 135.3 179.7 135.3 30.7 136.9 29.9 136.9 180.9"/>
          <polygon class="st31" points="140.3 24 136.3 21.8 23 87.1 27 89.5 140.3 24"/>
          <polygon class="st23" points="23 87.1 27 89.5 27 248.4 23 246 23 87.1"/>
          <polygon class="st31" points="30.4 165.7 135.2 105.1 136.9 106.1 30.4 167.6 30.4 165.7"/>
          <polygon class="st12" points="136.9 106.1 136.9 109.8 30.4 171.4 30.4 167.6 136.9 106.1"/>
        </g>
        <g id="freepik--Blinds--inject-115">
          <path class="st28" d="M30.4,138.2v4.5l105.8-61.1-.9-4-104.9,60.6h0ZM30.4,132v4.5l105.8-61.1-.9-4-104.9,60.6h0ZM30.4,144.6v4.5l105.8-61.1-.9-4-104.9,60.6h0ZM30.4,150.8v4.5l105.8-61.1-.9-4-104.9,60.6h0ZM135.3,33.6L30.4,94.2v4.5l105.8-61.1-.9-4h0ZM30.4,106.8v4.5l105.8-61.1-.9-4L30.4,106.8h0ZM30.4,125.7v4.5l105.8-61.1-.9-4L30.4,125.7h0ZM30.4,113.1v4.5l105.8-61.1-.9-4L30.4,113.1h0ZM30.4,100.5v4.5l105.8-61.1-.9-4L30.4,100.5h0ZM30.4,119.4v4.5l105.8-61.1-.9-4L30.4,119.4h0Z"/>
          <path class="st16" d="M135.3,33.6L30.4,94.2v1.9l105.1-60.9-.4-1.6h.1ZM30.4,100.5v1.7l105.1-60.9-.4-1.6L30.3,100.3h.1ZM30.4,106.7v1.9l105.1-60.9-.4-1.6L30.3,106.7h.1ZM30.4,113.1v1.9l105.1-60.9-.4-1.6L30.3,112.9h.1ZM30.4,119.3v1.9l105.1-60.7-.4-1.6L30.3,119.3h.1ZM30.4,125.5v1.7l105.1-60.7-.4-1.6L30.3,125.4h.1ZM30.4,131.8v1.7l105.1-60.6-.4-1.6-104.9,60.4h.1ZM30.4,138v1.9l105.1-60.6-.4-1.6-104.9,60.4h.1ZM30.4,144.4v1.7l105.1-60.9-.4-1.6-104.9,60.6h.1ZM30.4,150.6v1.9l105.1-60.9-.4-1.2-104.9,60.4h.1Z"/>
        </g>
      </g>
    </g>
    <g id="freepik--Blackboard--inject-115">
      <g id="freepik--Board--inject-115">
        <polygon class="st32" points="264.1 170 467.9 287.7 467.9 285.8 264.1 168.1 264.1 170"/>
        <polygon class="st12" points="270.3 164.4 264.1 168.1 467.9 285.8 474.2 282.2 270.3 164.4"/>
        <polygon class="st23" points="474.2 282.2 467.9 285.8 467.9 287.7 474.2 284 474.2 282.2"/>
        <polygon class="st29" points="270.3 164.4 474.2 282.2 474.2 124.3 270.3 6.5 270.3 164.4"/>
        <polygon class="st23" points="468.6 271.6 468.6 128.4 276 17.1 276 160.3 468.6 271.6"/>
        <polygon class="st16" points="468.6 267.5 468.6 271.6 276 160.3 276 17.1 279.4 19.3 279.4 158.2 468.6 267.5"/>
        <polygon class="st23" points="479.1 121.4 474.2 124.3 474.2 282.2 479.1 279.3 479.1 121.4"/>
        <polygon class="st31" points="270.3 6.5 275.2 3.8 479.1 121.4 474.2 124.3 270.3 6.5"/>
        <path class="st32" d="M450.4,163.2c.9-.5-9.2-16.5-10-17.7-2.2-3.7-9.4-3.6-10.1,1.4-.6,4.6-.6,9.4.2,14-5.7-13.2-10.4-27.2-17.8-39.4-2.6-4.4-11.1-3-10.4,2.9,1.7,14.1,5.5,27.7,9.7,41-8-21.6-13.5-44.3-17.7-65.8-1.2-6.1-11.2-4.7-11,1.5.5,13.1,2.1,26.1,4.5,38.9-1.9-4.7-3.7-9.6-5.6-14.5-2.5-6.6-12.5-4.1-10.7,3,.6,2.7,1.2,5.4,2,8.1-2.6-6.1-5.2-12.3-7.6-18.6-2.1-5.2-11.8-5.2-11,1.5,0,.5.1,1,.2,1.5h0c.4,2.5.7,4.9,1.2,7.4-3-7.4-5.9-15-8.5-22.4-3.1-8.7-4.9-19.1-10-26.8-1.6-2.6-5.1-3.5-7.7-1.9-.7.5-1.4,1.1-1.9,1.9-4.5,7.1-1.7,15.2,0,22.9,2.5,11.2,5.6,22.4,9.4,33.3,1.6,4.9,3.4,9.7,5.2,14.6-2.9-4.6-5.7-9.4-8.4-14.2-10.6-19.5-15.5-40.8-24.9-60.5-2.4-5-10.6-2.5-10.4,2.9.6,16.2,4.7,31.6,10.9,46.5,2.1,5.1,4.4,10.2,6.6,15.3-6.9-9.9-13.3-20-19.5-30.3-2.2-3.7-9.2-3.6-10.1,1.4-1.7,9.2-1.4,18.8,1.2,27.9,2,6.9,12.7,4,10.7-3-.4-1.4-.6-2.6-1-4,10.4,16,21.6,31.4,33.5,46.1,3,3.7,9.9.6,9.5-4-.2-3.1-.7-6.2-1.6-9.2,7.4,11,15.2,21.7,23.1,32.3,4.2,5.9,12.5,1,9.6-5.6-4.6-10.6-9.1-21.2-13.5-31.9,6.7,13.3,14.6,26.2,23.4,38.3,4.2,5.7,12.7,1,9.6-5.6-1.6-3.5-3.4-7.1-5-10.7,2.9,1.2,6.2,0,7.5-2.9h0c1.9,3.2,3.9,6.6,6.1,9.7,1.5,2.6,4.9,3.5,7.5,1.9.9-.5,1.5-1.1,2-2,5.2,11.6,11.7,22.7,19.2,32.9,3.7,5,11.5,2.1,10.1-4.2-2.6-11.8-6-23.4-10-34.8,2.2,4,4.7,7.7,7.6,11.3,3.1,4,9.4.5,9.5-3.9,0-6.2-1.5-12.5-3-18.7,3.5,3.2,7.7,4.7,12.8,1.9,6.2-3.5.6-13.1-5.6-9.6h-.2Z"/>
        <path class="st7" d="M418.3,252.2c0-1.2.7-2.5,1.9-3.1.4-.2.9-.4,1.2-.1h0l20.7,11.8-2.6,4.5-20.6-12h0c-.4-.2-.6-.7-.6-1.1Z"/>
        <path class="st32" d="M440.7,261c-1.1.7-1.7,1.9-1.9,3.1,0,1.1.9,1.6,1.9,1,1.1-.7,1.7-1.9,1.9-3.1,0-1.1-.9-1.6-1.9-1Z"/>
      </g>
    </g>
  </g>
  <g>
    <g id="freepik--Device--inject-2">
      <g id="freepik--Laptop--inject-2">
        <path class="st2" d="M71.3,366.2c0,3,2.2,4.9,5,6.5l112.6,65c3.1,1.6,6.9,1.6,10,0l181.6-104.8c2.7-1.6,5-3.6,5-6.6s-2.2-4.9-5-6.5l-112.6-65c-3.1-1.6-6.9-1.6-10,0l-181.5,104.9c-2.7,1.6-5,3.5-5,6.5h-.1Z"/>
        <path class="st27" d="M76.4,365.5l112.6,65c3.1,1.6,6.9,1.6,10,0l181.5-104.9c2.7-1.6,2.7-4.2,0-5.7l-112.6-65c-3.1-1.6-6.9-1.6-10,0l-181.5,104.9c-2.7,1.6-2.7,4.2,0,5.7h0Z"/>
        <path class="st5" d="M193.9,431.6v7.2c-1.7,0-3.5-.4-5-1.2l-112.6-65.1c-2.7-1.6-5-3.5-5-6.5s2-4.7,4.6-6.4c-2.1,1.5-2.1,4,.4,5.5l112.6,65c1.5.9,3.1,1.2,5,1.2v.2h0Z"/>
        <path class="st5" d="M91.6,360.5l166.9-96.4c1.5-.7,3.1-.7,4.6,0l6.1,3.5c1.2.7,1.2,2,0,2.7l-166.9,96.3c-1.5.7-3.1.7-4.6,0l-6.1-3.4c-1.2-.7-1.2-2,0-2.7Z"/>
        <path class="st5" d="M108.1,370.2l166.9-96.4c1.2-.7,2.9-.9,4.2-.1l43.4,25.1c1,.6.9,1.7-.4,2.4l-166.6,96.2c-1.2.7-2.9.9-4.2.2l-43.7-24.9c-1.1-.5-.9-1.6.4-2.4Z"/>
        <path class="st27" d="M252.6,314.3l5.2-3c.1,0,.2-.4,0-.5l-5-2.9h-.7l-5.2,3c-.1,0-.2.2,0,.5l5,2.9h.7,0ZM245,303.9l-5.2,3c-.1,0-.2.4,0,.5l5,2.9h.7l5.2-3c.1,0,.2-.4,0-.5l-5-2.9h-.9.1ZM228.2,313.6l-8.9,5.1c-.1,0-.2.4,0,.5l5,2.9h.7l8.9-5.1c.1,0,.2-.4,0-.5l-5-2.9h-.9.1ZM237.4,308.2l-5.2,3.1c-.1,0-.2.4,0,.5l5,2.9h.7l5.2-3c.1,0,.2-.4,0-.5l-5-2.9c-.1-.1-.5-.1-.7,0h0ZM217,320.1l-5.2,3.1c-.1,0-.2.4,0,.5l5,2.9h.7l5.2-3c.1,0,.1-.4,0-.5l-5-2.9c-.1-.1-.5-.1-.6,0h-.1ZM209.2,324.6l-5.2,3c-.1,0-.2.4,0,.5l5,2.9h.7l5.2-3c.1,0,.2-.4,0-.5l-5-2.9h-.7ZM228.8,336.3l5.2-3c.1,0,.2-.4,0-.5l-5-2.9h-.7l-5.2,3c-.1,0-.2.4,0,.5l5,2.9h.7ZM221.2,340.7l5.2-3c.1,0,.2-.4,0-.5l-5-2.9h-.7l-5.2,3c-.1,0-.2.4,0,.5l5,2.9c.2.1.5.1.9,0h-.1ZM213.6,345.1l5.2-3c.1,0,.2-.4,0-.5l-5-2.9h-.7l-5.2,3c-.1,0-.2.4,0,.5l5,2.9h.7ZM205.9,349.5l5.2-3c.1,0,.2-.4,0-.5l-5-2.9h-.7l-5.2,3c-.1,0-.2.4,0,.5l5,2.9h.7ZM244.9,318.8l5.2-3c.1,0,.2-.4,0-.5l-5-2.9h-.7l-5.2,3c-.1,0-.2.4,0,.5l5,2.9h.7ZM236.4,331.9l11.6-6.7c.1,0,.2-.4,0-.5l-12.1-7h-.7l-6.1,3.5c-.1,0-.2.4,0,.5l6.5,3.7c.1,0,.1.2,0,.5l-4.9,2.7c-.1,0-.2.4,0,.5l5,2.9h.9-.1ZM201.6,328.9l-5.2,3c-.1,0-.2.4,0,.5l5,2.9h.7l5.2-3c.1,0,.2-.4,0-.5l-5-2.9h-.9.1ZM194,333.3l-5.2,3c-.1,0-.2.4,0,.5l5,2.9h.7l5.2-3c.1,0,.2-.4,0-.5l-5-2.9h-.9.1ZM151.7,380.3h.7l5.2-3c.1,0,.2-.4,0-.5l-5-2.9h-.7l-5.2,3c-.1,0-.2.4,0,.5l5,2.9ZM132.9,368.6l-5.2,3c-.1,0-.2.4,0,.5l5,2.9h.7l5.2-3c.1,0,.2-.4,0-.5l-5-2.9c-.2-.1-.5-.1-.7,0ZM142.6,377.4h.7l5.2-3c.1,0,.2-.4,0-.5l-5-2.9h-.7l-5.2,3c-.1,0-.2.4,0,.5l5,2.9ZM163.7,382.2l5.2-3c.1,0,.2-.2,0-.5l-5-2.9h-.7l-5.2,3c-.1,0-.2.4,0,.5l5,2.9c0,.1.4.1.6,0h.1ZM155.4,386.7h.7l5.2-3c.1,0,.2-.2,0-.5l-5-2.9h-.7l-5.2,3c-.1,0-.2.4,0,.5l5,2.9ZM140.6,364.1l-5.2,3c-.1,0-.2.4,0,.5l5,2.9h.7l5.2-3c.1,0,.2-.4,0-.5l-5-2.9h-.9.1ZM178.8,342.2l-5.2,3c-.1,0-.2.4,0,.5l5,2.9h.7l5.2-3c.1,0,.2-.4,0-.5l-5-2.9h-.7ZM148.2,359.7l-5.2,3c-.1,0-.2.4,0,.5l5,2.9h.7l5.2-3c.1,0,.2-.4,0-.5l-5-2.9h-.7ZM186.4,337.8l-5.2,3c-.1,0-.2.4,0,.5l5,2.9h.7l5.2-3c.1,0,.1-.4,0-.5l-5-2.9c-.2-.1-.5-.1-.7,0h0ZM171.2,346.5l-5.2,3c-.1,0-.2.4,0,.5l5,2.9h.7l5.2-3c.1,0,.2-.4,0-.5l-5-2.9h-.7ZM163.5,351l-5.2,3c-.1,0-.2.4,0,.5l5,2.9h.7l5.2-3c.1,0,.2-.4,0-.5l-5-2.9c-.2-.1-.5-.1-.7,0h0ZM155.7,355.4l-5.2,3c-.1,0-.2.4,0,.5l5,2.9h.7l5.2-3c.1,0,.2-.4,0-.5l-5-2.9h-.7ZM190.6,358.4l5.2-3c.1,0,.2-.4,0-.5l-5-2.9h-.7l-5.2,3c-.1,0-.2.4,0,.5l5,2.9h.9-.1ZM261.9,294.1l-5.2,3c-.1,0-.2.4,0,.5l5,2.9h.7l5.2-3c.1,0,.2-.4,0-.5l-5-2.9h-.7ZM252.8,299.5l-5.2,3c-.1,0-.2.4,0,.5l5,2.9h.7l5.2-3c.1,0,.2-.4,0-.5l-5-2.9h-.7ZM269.6,289.7l-5.2,3c-.1,0-.2.4,0,.5l5,2.9h.7l5.2-3c.1,0,.2-.4,0-.5l-5-2.9h-.7ZM227.3,328.9l5.2-3c.1,0,.2-.4,0-.5l-5-2.9h-.7l-5.2,3c-.1,0-.2.4,0,.5l5,2.9h.7ZM277.9,285.3h-.7l-5.2,3c-.1,0-.2.4,0,.5l5,2.9h.7l5.2-3c.1,0,.2-.4,0-.5l-5-2.9ZM198.4,353.9l5.2-3c.1,0,.2-.4,0-.5l-5-2.9h-.7l-5.2,3.1c-.1,0-.1.4,0,.5l5,2.9h.7ZM291.9,299.9l5.2-3c.1,0,.2-.4,0-.5l-5-2.9h-.7l-5.1,3.1c-.1,0-.2.4,0,.5l5,2.9h.6ZM277.2,300.3l5.2-3c.1,0,.2-.2,0-.5l-5-2.9h-.7l-5.2,3c-.1,0-.2.4,0,.5l5,2.9h.7ZM285.2,289.4h-.7l-5.2,3c-.1,0-.2.4,0,.5l5,2.9h.7l5.2-3c.1,0,.2-.2,0-.5l-5-2.9ZM286.7,288.5l12.1,7h.7l5.2-3c.1,0,.2-.4,0-.5l-12.1-7h-.7l-5.2,3c-.1.1-.2.4,0,.5h0ZM269,298.3l-5.2,3c-.1,0-.2.4,0,.5l5,2.9h.7l5.2-3c.1,0,.2-.2,0-.5l-5-2.9h-.7ZM211.6,331.4l-5.2,3c-.1,0-.2.4,0,.5l5,2.9h.7l5.2-3c.1,0,.2-.4,0-.5l-5-2.9h-.7ZM283.6,304.4h.7l5.2-3c.1,0,.2-.4,0-.5l-5-2.9h-.7l-5.2,3c-.1,0-.2.4,0,.5l5,2.9ZM219.2,327.1l-5.2,3c-.1,0-.2.4,0,.5l5,2.9h.7l5.2-3c.1,0,.2-.4,0-.5l-5-2.9c-.2-.1-.5-.1-.7,0h0ZM159.5,376h.7l5.2-3c.1,0,.2-.4,0-.5l-5-2.9h-.7l-5.2,3c-.1,0-.2.4,0,.5l5,2.9ZM150.6,366.7l-5.2,3c-.1,0-.2.4,0,.5l4.9,2.9h.7l5.2-3c.1,0,.2-.4,0-.5l-5-2.9h-.6ZM167.8,371.6l5.2-3c.1,0,.2-.4,0-.5l-5-2.9h-.7l-5.2,3c-.1,0-.2.4,0,.5l5,2.9c.1.1.5.1.7,0h0ZM175.4,367.1l5.2-3c.1,0,.2-.4,0-.5l-5-2.9h-.7l-5.2,3c-.1,0-.2.4,0,.5l5,2.9h.7ZM183,362.7l5.2-3c.1,0,.2-.4,0-.5l-5-2.9h-.7l-5.2,3c-.1,0-.2.4,0,.5l5,2.9h.7ZM158.2,362.4l-5.2,3c-.1,0-.2.4,0,.5l5,2.9h.7l5.2-3c.1,0,.2-.4,0-.5l-5-2.9h-.7ZM165.8,357.9l-5.2,3.1c-.1,0-.2.4,0,.5l5,2.9h.7l5.2-3c.1,0,.1-.4,0-.5l-5-2.9h-.7ZM196.3,340.2l-5.2,3c-.1,0-.2.4,0,.5l5,2.9h.7l5.2-3c.1,0,.2-.4,0-.5l-5-2.9h-.7ZM188.7,344.7l-5.2,3c-.1,0-.2.4,0,.5l5,2.9h.7l5.2-3c.1,0,.2-.4,0-.5l-5-2.9c-.1-.1-.5-.1-.7,0h0ZM204,335.8l-5.2,3c-.1,0-.2.4,0,.5l5,2.9h.7l5.2-3c.1,0,.2-.4,0-.5l-5-2.9h-.7ZM173.4,353.5l-5.2,3c-.1,0-.2.4,0,.5l5,2.9h.7l5.2-3c.1,0,.2-.4,0-.5l-5-2.9h-.9.1ZM181,349l-5.2,3c-.1,0-.2.4,0,.5l5,2.9h.7l5.2-3c.1,0,.2-.4,0-.5l-5-2.9h-.7ZM171.2,377.8l5.2-3c.1,0,.2-.2,0-.5l-5-2.9h-.7l-5.2,3c-.1,0-.2.4,0,.5l5,2.9h.7ZM131,376l-5-2.9h-.7l-5.2,3c-.1,0-.2.4,0,.5l5,2.9h.7l5.2-3c.1-.1.2-.4,0-.5ZM141,378.4l-5-2.9h-.7l-8,4.6c-.1,0-.2.4,0,.5l5,2.9h.7l8-4.6c.1-.1.1-.4,0-.5h0ZM123.6,370.2l-5-2.9h-.7l-6.5,3.7c-.1,0-.2.4,0,.5l5,2.9h.7l6.5-3.7c.1-.1.2-.4,0-.5ZM128.4,367.3h.7l5.2-3c.1,0,.2-.4,0-.5l-5-2.9h-.7l-5.2,3c-.1,0-.2.2,0,.5l5,2.9ZM150.1,381.3l-5-2.9h-.7l-10.1,5.7c-.1,0-.2.4,0,.5l5,2.9h.7l10.1-5.7c.1,0,.1-.2,0-.5ZM153.6,387.6l-5-2.9h-.7l-6.5,3.7c-.1,0-.2.4,0,.5l5,2.9h.7l6.5-3.7c.2-.1.2-.4,0-.5ZM185.3,334.7h.7l5.2-3c.1,0,.2-.4,0-.5l-5-2.9h-.7l-5.2,3c-.1,0-.2.4,0,.5l5,2.9ZM170.1,343.4h.7l5.2-3c.1,0,.1-.4,0-.5l-5-2.9h-.7l-5.2,3c-.1,0-.2.4,0,.5l5.1,2.9h-.1ZM136.1,363h.7l5.2-3c.1,0,.2-.4,0-.5l-5-2.9h-.7l-5.2,3c-.1,0-.2.2,0,.5l5,2.9ZM177.6,339h.7l5.2-3c.1,0,.2-.4,0-.5l-5-2.9h-.7l-5.2,3c-.1,0-.2.4,0,.5l5,2.9ZM162.3,347.9h.7l5.2-3c.1,0,.2-.4,0-.5l-5-2.9h-.7l-5.2,3c-.1,0-.2.4,0,.5l5,2.9ZM157.3,387.9h-.7l-8,4.6c-.1,0-.2.4,0,.5l5,2.9h.7l8-4.6c.1,0,.2-.4,0-.5l-5-2.9ZM151.4,354.3h.7l5.2-3c.1,0,.2-.4,0-.5l-5-2.9h-.7l-5.2,3c-.1,0-.2.2,0,.5l5.1,2.9h-.1ZM143.8,358.6h.7l5.2-3c.1,0,.2-.4,0-.5l-5-2.9h-.7l-5.2,3c-.1,0-.2.2,0,.5l5,2.9ZM298.8,306.2h-.7l-12.8,7.5c-.1,0-.2.4,0,.5l5,2.9h.7l12.8-7.5c.1,0,.2-.4,0-.5l-5-2.9ZM281.9,316h-.7l-5.2,3c-.1,0-.2.2,0,.5l5,2.9h.7l5.2-3c.1,0,.2-.4,0-.5l-5-2.9ZM178.9,373.3l5.2-3c.1,0,.2-.2,0-.5l-5-2.9h-.7l-5.2,3c-.1,0-.2.4,0,.5l5,2.9h.7ZM266.7,324.7h-.7l-5.2,3c-.1,0-.2.2,0,.5l5,2.9h.7l5.2-3c.1,0,.2-.4,0-.5l-5-2.9ZM306.5,301.9h-.7l-5.2,3c-.1,0-.2.4,0,.5l5,2.9h.7l5.2-3c.1,0,.2-.2,0-.5l-5-2.9ZM319.1,300.3l-12.1-7h-.7l-5.2,3c-.1,0-.2.4,0,.5l12.1,7h.7l5.2-3c.2,0,.2-.2,0-.5h0ZM238.2,341.3h-.7l-6.5,3.7c-.1,0-.2.4,0,.5l5,2.9h.7l6.5-3.7c.1,0,.2-.4,0-.5l-5.1-2.9h.1ZM257.5,330.2h-.7l-8,4.6c-.1,0-.2.4,0,.5l5,2.9h.7l8-4.6c.1,0,.2-.2,0-.5l-5-2.9ZM220.5,351.5h-.7l-42.9,24.8c-.1,0-.2.4,0,.5l5,2.9h.7l42.9-24.8c.1,0,.2-.4,0-.5l-5-2.9h0ZM175.1,377.7h-.7l-6.5,3.7c-.1,0-.2.4,0,.5l5,2.9h.7l6.5-3.7c.1,0,.2-.4,0-.5l-5-2.9ZM229.3,346.4h-.7l-6.5,3.7c-.1,0-.2.4,0,.5l5,2.9h.7l6.5-3.7c.1,0,.2-.4,0-.5l-5-2.9ZM166.2,382.8h-.7l-6.5,3.7c-.1,0-.2.4,0,.5l5,2.9h.7l6.5-3.7c.1,0,.2-.2,0-.5l-5-2.9ZM247,336.2h-.7l-6.5,3.7c-.1,0-.2.4,0,.5l5,2.9h.7l6.5-3.7c.1,0,.2-.4,0-.5l-5-2.9ZM274.3,320.5h-.7l-5.2,3c-.1,0-.2.2,0,.5l5,2.9h.7l5.2-3c.1,0,.2-.4,0-.5l-5-2.9ZM291.4,308.5l5.2-3c.1,0,.2-.4,0-.5l-5-2.9h-.7l-5.2,3c-.1,0-.2.4,0,.5l5,2.9h.7ZM260.2,310l5.2-3c.1,0,.2-.4,0-.5l-5-2.9h-.7l-5.2,3c-.1,0-.2.4,0,.5l5,2.9h.7,0ZM240,338.2l15.3-8.9c.1,0,.2-.4,0-.5l-5-2.9h-.7l-15.3,8.7c-.1,0-.2.4,0,.5l5,2.9c.1.1.5.1.7,0h0ZM283.1,313h.7l5.2-3c.1,0,.2-.4,0-.5l-5-2.9h-.7l-5.2,3c-.1,0-.2.4,0,.5l5,2.9ZM276.7,308.7l5.2-3c.1,0,.2-.4,0-.5l-5-2.9h-.7l-5.2,3c-.1,0-.2.4,0,.5l5,2.9h.7ZM232.4,342.5l5.2-3c.1,0,.2-.2,0-.5l-5-2.9h-.7l-5.2,3c-.1,0-.2.4,0,.5l5,2.9h.7ZM266.1,322.6h.7l5.2-3c.1,0,.2-.4,0-.5l-5-2.9h-.7l-5.2,3c-.1,0-.2.4,0,.5l5,2.9ZM194.1,364.5l5.2-3c.1,0,.2-.2,0-.5l-5-2.9h-.7l-5.2,3c-.1,0-.2.4,0,.5l5,2.9c.2.1.6.1.9,0h-.1ZM201.9,360.1l5.2-3c.1,0,.2-.2,0-.5l-5-2.9h-.7l-5.2,3c-.1,0-.2.4,0,.5l5,2.9c.1.1.5,0,.7,0h0ZM186.5,369l5.2-3c.1,0,.2-.2,0-.5l-5-2.9h-.7l-5.2,3c-.1,0-.2.4,0,.5l5,2.9h.7ZM217.1,351.3l5.2-3c.1,0,.2-.2,0-.5l-5-2.9h-.7l-5.2,3c-.1,0-.2.4,0,.5l5,2.9c.1.1.5.1.7,0h0ZM209.5,355.7l5.2-3c.1,0,.2-.2,0-.5l-5-2.9h-.7l-5.2,3c-.1,0-.2.4,0,.5l5,2.9h.7ZM224.7,346.9l5.2-3c.1,0,.2-.2,0-.5l-5-2.9h-.7l-5.2,3c-.1,0-.2.4,0,.5l5,2.9h.9-.1ZM266.3,285.7h.7l5.2-3c.1,0,.2-.4,0-.5l-1.2-.7h-.7l-5.2,3c-.1,0-.2.2,0,.5l1.2.7ZM228.4,309.6h.7l5.2-3c.1,0,.2-.4,0-.5l-5-2.9h-.7l-5.2,3c-.1,0-.2.2,0,.5l5,2.9ZM243.8,300.8h.7l5.2-3c.1,0,.2-.4,0-.5l-5-2.9h-.7l-5.2,3c-.1,0-.2.2,0,.5l5,2.9ZM219.2,315.1h.7l5.2-3c.1,0,.2-.2,0-.5l-5-2.9h-.7l-5.2,3c-.1,0-.2.4,0,.5l5,2.9ZM236.2,305.2h.7l5.2-3c.1,0,.2-.4,0-.5l-5-2.9h-.7l-5.2,3c-.1,0-.2.2,0,.5l5.1,2.9h-.1ZM203.9,323.9h.7l5.2-3.1c.1,0,.2-.2,0-.5l-5-2.9h-.7l-5.2,3c-.1,0-.1.4,0,.5l5,3ZM211.5,319.5h.7l5.2-3c.1,0,.2-.2,0-.5l-5-2.9h-.7l-5.2,3c-.1,0-.2.4,0,.5l5,2.9ZM251.1,294.5h.7l5.2-3c.1,0,.2-.4,0-.5l-1.2-.7h-.7l-5.2,3c-.1,0-.2.2,0,.5l1.4.7h-.1ZM274.1,281.2h.7l5.2-3c.1,0,.2-.4,0-.5l-1.2-.7h-.7l-5.2,3c-.1,0-.2.4,0,.5l1.2.7ZM284.4,287.3h.7l5.2-3c.1,0,.2-.4,0-.5l-5-2.9h-.7l-5.2,3c-.1,0-.2.4,0,.5l5,2.9ZM299.1,304.1l5.2-3c.1,0,.2-.4,0-.5l-5-2.9h-.7l-5.2,3c-.1,0-.2.4,0,.5l5,2.9h.7ZM258.7,290h.7l5.2-3c.1,0,.2-.4,0-.5l-1.2-.7h-.7l-5.2,3c-.1,0-.1.2,0,.5l1.2.7ZM196.3,328.3h.7l5.2-3c.1,0,.2-.2,0-.5l-5-2.9h-.7l-5.2,3c-.1,0-.2.4,0,.5l5.1,2.9h-.1Z"/>
        <g id="freepik--tuch-pad--inject-2">
          <polygon class="st5" points="218.1 371.7 219.2 372.3 249.4 389.8 303 358.7 304.1 358.1 272.8 340 218.1 371.7"/>
          <polygon class="st2" points="302.4 359.1 272.8 342.2 219.8 372.7 249.4 389.8 302.4 359.1"/>
        </g>
        <path class="st2" d="M69.2,360.5c-2.1-1-2.7-2.7-3-5.7l-9.7-142.7c0-3.4,1.6-6.6,4.6-8.4l181.6-104.9c2.7-1.6,4.7-2.4,7.2-.7s2.6,2.7,2.7,5.7l9.7,142.8c0,3.4-1.6,6.5-4.6,8.4l-181.6,104.8c-2.7,1.6-4.2,2-7.1.7h.1Z"/>
        <path class="st27" d="M252.8,103.8c-.1-3.1-2.6-4.2-5.4-2.6l-181.6,104.8c-1.4.9-2.6,2.1-3.4,3.6l-4.7-2.4h0c.9-1.5,2-2.7,3.5-3.6l181.5-104.8c2.7-1.6,4.7-2.4,7.2-.7,2.7,1.9,2.6,2.7,2.7,5.7h.1Z"/>
        <path class="st5" d="M75.9,359.9c-2.5,1.5-4.1,1.6-6.7.5-2-.9-2.7-2.7-3-5.7l-9.7-142.8c0-1.6.4-3.2,1.2-4.7l4.7,2.4h0c-.9,1.4-1.2,3.1-1.2,4.7l9.7,142.8c0,2.7,2.6,4.2,5,2.7h0Z"/>
        <path d="M68.9,211.5l174.7-100.9c1.6-.9,3.1-.2,3.1,1.6l9.1,133.2c0,2-1,3.9-2.7,5l-174.6,100.8c-1.6.9-3.1.1-3.1-1.6l-9.1-133.1c0-2,1-4,2.7-5h-.1Z"/>
        <path class="st7" d="M68.9,211.5c-1.7,1.1-2.7,3-2.7,5l9,131,172.7-99.8c1.7-1.1,2.7-3,2.7-5l-9-131-172.7,99.8h0Z"/>
      </g>
    </g>
    <g id="freepik--speech-bubble-3--inject-2">
      <g id="freepik--speech-bubble--inject-2">
        <g id="freepik--speech-bubble--inject-21">
          <path class="st7" d="M459.7,235.4c-2.7,3.7-7,6.2-11.6,7.1h-2c-10.1.9-19-6.7-19.7-17-.6-9.2,5.6-17.5,14.6-19.3l2-.4c10.1-1.1,19.3,6.1,20.5,16.3.5,4.9-.9,9.6-3.7,13.3h0Z"/>
          <path class="st23" d="M456.9,208.2c-8.9-6.7-21.5-5-28.2,3.9-6,7.9-5.4,18.8,1.5,25.9l-1.6,6c-.1.6.1,1.2.9,1.4h.9l5.4-3.2c9.7,5.1,21.9,1.2,27.1-8.5,4.5-8.7,2-19.5-5.7-25.3h-.1ZM459.7,235.4c-2.7,3.7-7,6.2-11.6,7.1h-2c-10.1.9-19-6.7-19.7-17-.6-9.2,5.6-17.5,14.6-19.3l2-.4c10.1-1.1,19.3,6.1,20.5,16.3.5,4.9-.9,9.6-3.7,13.3h0Z"/>
          <path class="st10" d="M459.7,235.4c-2.7,3.7-7,6.2-11.6,7.1h-2c-10.1.9-19-6.7-19.7-17-.6-9.2,5.6-17.5,14.6-19.3l2-.4c10.1-1.1,19.3,6.1,20.5,16.3.5,4.9-.9,9.6-3.7,13.3h0Z"/>
        </g>
        <path class="st23" d="M431.6,224.3c0-.4,0-.7.1-1.1s.4-.6.5-.9c.5-.5,1.2-.9,2-.9s.7,0,1.1.1.6.4.9.6.5.5.6.9.2.7.1,1.1c0,.7-.2,1.5-.9,2-.2.2-.5.5-.9.5-.4.1-.7.1-1.1.1s-.7,0-1.1-.1-.6-.4-.9-.5c-.2-.2-.5-.5-.6-.9v-1.1h.1Z"/>
        <path class="st23" d="M441.9,224.3c0-.4,0-.7.1-1.1s.4-.6.5-.9c.9-.9,2.1-1.1,3.2-.6.4.1.6.4.9.6s.5.5.6.9.2.7.1,1.1c0,.4,0,.7-.1,1.1-.1.4-.4.6-.6.9s-.5.5-.9.5c-.4.1-.7.1-1.1.1s-.7,0-1.1-.1-.6-.4-.9-.5c-.2-.2-.5-.5-.6-.9,0-.2-.1-.7-.1-1.1Z"/>
        <path class="st23" d="M452.3,224.3c0-.4,0-.7.1-1.1s.4-.6.5-.9c.9-.9,2.1-1.1,3.2-.6.4.1.6.4.9.6s.5.5.6.9c.2.7.2,1.6,0,2.4-.1.4-.4.6-.6.9s-.5.5-.9.5c-.4.1-.7.1-1.1.1s-.9,0-1.1-.1c-.4-.1-.6-.4-.9-.5-.2-.2-.5-.5-.5-.9-.2-.4-.2-.9-.2-1.2Z"/>
      </g>
    </g>
    <g id="freepik--Envelopes--inject-2">
      <path class="st27" d="M152.1,202.7c0-1.5.9-2.7,2-3.6l106.3-61.4c1.2-.6,2.9-.6,4.2,0l2.4,1.2c1.2.9,2,2.1,2,3.6v81.4c0,1.5-.9,2.7-2,3.6l-106.3,61.4c-1.2.6-2.9.6-4.2,0l-2.4-1.2c-1.2-.9-2-2.1-2-3.6v-81.4h0Z"/>
      <path class="st27" d="M152.1,202.7c0-1.5.9-2.7,2-3.6l106.3-61.4c1.2-.6,2.9-.6,4.2,0l2.4,1.2c1.2.9,2,2.1,2,3.6v81.4c0,1.5-.9,2.7-2,3.6l-106.3,61.4c-1.2.6-2.9.6-4.2,0l-2.4-1.2c-1.2-.9-2-2.1-2-3.6v-81.4h0Z"/>
      <path class="st5" d="M162,205.8l-9.1-5.4c-.4.6-.5,1.2-.6,2v81.4c0,1.5.9,2.7,2,3.6l2.4,1.2c1.2.6,2.9.6,4.2,0l1.2-.6v-82.4h-.1Z"/>
      <path class="st2" d="M269.1,142.6v81.4c0,.7-.2,1.5-.6,2.1-.2.5-.7,1-1.2,1.4h0c0,.1-106.3,61.5-106.3,61.5h0c-.4.2-.9.4-1.4.1-.5-.2-.7-.9-.6-1.4v-81.4c0-1,.6-1.9,1.6-2h.6l44.6,10.6,5.9,1.4c1.4.2,2.9-.2,3.7-1.4l6.9-9.4,45.6-63.6c.6-1.1,1.2-.9,1.2.4v.2h-.1Z"/>
      <path class="st5" d="M158.7,287.9c0,.5.1,1.1.6,1.4.5.1,1,0,1.4-.1h0l36.7-21.2,8.4-52.8-47,71.3v1.4Z"/>
      <path class="st2" d="M268.5,226.2c-.2.5-.7,1-1.2,1.4h0l-106.4,61.5h0c-.4.2-.9.4-1.4.1l50.9-81.3c2.1-3.4,6.4-4.6,10-3.1l48.3,21.2v.2h-.1Z"/>
      <path class="st5" d="M158.7,204l48.9,21.6c3.6,1.6,8,.2,10-3.1l51.4-82.2-110.1,63.6h-.1Z"/>
      <path class="st2" d="M158.7,204l49.3,18.3c3.5,1.2,7.5,0,9.5-3.1l51.4-78.9-110.1,63.6h0Z"/>
      <path class="st1" d="M176.7,290.3v-81.4c0-1.6.5-3.1,1.4-4.4l50.6-70.6c1.9-2.6,5.2-3.9,8.4-3.1l47.6,11.3c1.5.4,3,1,4.4,1.7l2.4,1.2c1.2.9,2,2.1,2,3.6v81.4c0,1.5-.9,2.7-2,3.6l-106.3,61.4c-1.2.6-2.9.6-4.2,0l-2.4-1.2c-1.2-.9-2-2.4-2-3.7h.1Z"/>
      <path class="st8" d="M176.7,290.3v-81.4c0-1.6.5-3.1,1.4-4.4l50.6-70.6c1.9-2.6,5.2-3.9,8.4-3.1l47.6,11.3c1.5.4,3,1,4.4,1.7l2.4,1.2c1.2.9,2,2.1,2,3.6v81.4c0,1.5-.9,2.7-2,3.6l-106.3,61.4c-1.2.6-2.9.6-4.2,0l-2.4-1.2c-1.2-.9-2-2.4-2-3.7h.1Z"/>
      <path class="st31" d="M186.3,169.4v103.9c0,1.2.9,1.9,2,1.2l99.8-57.6c1.2-.9,2-2.1,2-3.6v-103.8c0-1.2-.9-1.9-2-1.2l-99.8,57.6c-1.2.7-2,2.1-2,3.5h0Z"/>
      <path class="st23" d="M187.4,275.3c-.2,0-.5,0-.7-.1-.5-.4-.9-1-.9-1.6v-104c0-1.6.9-3.1,2.2-3.9l99.8-57.6c.7-.5,1.7-.5,2.4.2.2.4.5.9.4,1.2v103.9c0,1.6-.9,3.1-2.2,3.9l-99.8,57.6c-.2.2-.6.4-1.1.4h0ZM289.2,108.3c-.2,0-.5,0-.7.1l-99.8,57.6c-1.1.7-1.7,2-1.9,3.2v103.9c0,.5.1.9.6,1.1.2,0,.6,0,.9-.1l99.8-57.6c1.1-.7,1.7-2,1.9-3.2v-103.9c0-.4,0-.7-.4-1h-.5.1Z"/>
      <path class="st1" d="M184.2,210.8l-7.2-4.2c-.1.7-.4,1.4-.4,2.1v81.4c0,1.5.9,2.7,2,3.6l2.4,1.2c1.2.6,2.9.6,4.2,0l1-.5-2-83.8h0Z"/>
      <g class="st24">
        <path d="M184.2,210.8l-7.2-4.2c-.1.7-.4,1.4-.4,2.1v81.4c0,1.5.9,2.7,2,3.6l2.4,1.2c1.2.6,2.9.6,4.2,0l1-.5-2-83.8h0Z"/>
      </g>
      <path class="st1" d="M293.5,148.8v81.4c0,.7-.2,1.5-.6,2.1-.2.5-.7,1-1.2,1.4h0c0,.1-106.3,61.5-106.3,61.5h0c-.4.2-.9.4-1.4.1-.5-.2-.7-.9-.6-1.4v-81.4c0-1,.6-1.9,1.6-2h.6l44.6,10.6,5.9,1.4c1.4.2,2.9-.2,3.7-1.4l6.9-9.4,45.6-63.6c.6-1.1,1.2-.9,1.2.4v.2h-.1Z"/>
      <path class="st8" d="M293.5,148.8v81.4c0,.7-.2,1.5-.6,2.1-.2.5-.7,1-1.2,1.4h0c0,.1-106.3,61.5-106.3,61.5h0c-.4.2-.9.4-1.4.1-.5-.2-.7-.9-.6-1.4v-81.4c0-1,.6-1.9,1.6-2h.6l44.6,10.6,5.9,1.4c1.4.2,2.9-.2,3.7-1.4l6.9-9.4,45.6-63.6c.6-1.1,1.2-.9,1.2.4v.2h-.1Z"/>
      <path class="st1" d="M291.4,233.9h0c.5-.5.9-1,1.2-1.5.4-.6.6-1.2.6-2l-47-18.3,31.6,29.7,13.5-7.7h.1Z"/>
      <path class="st1" d="M183,294c0,.5.1,1.1.6,1.4.5.1,1,0,1.4-.1h0l36.7-21.2,8.4-52.8-47,71.3v1.4Z"/>
      <path class="st1" d="M292.9,232.4c-.2.5-.7,1-1.2,1.4h0l-106.4,61.5h0c-.4.2-.9.4-1.4.1l50.9-81.3c2.1-3.4,6.4-4.6,10-3.1l48.3,21.2v.2h-.1Z"/>
      <path class="st8" d="M292.9,232.4c-.2.5-.7,1-1.2,1.4h0l-106.4,61.5h0c-.4.2-.9.4-1.4.1l50.9-81.3c2.1-3.4,6.4-4.6,10-3.1l48.3,21.2v.2h-.1Z"/>
      <path class="st23" d="M230.2,193.4c-1.9.2-3.9-.4-5.1-1.7-1.2-1.2-1.9-3.5-1.9-6.2s.6-6.4,2-9.1c1.2-3,3.1-5.7,5.5-8,2.4-2.5,5.2-4.7,8.4-6.5,3-1.7,5.6-2.7,7.6-2.9,2.1-.1,3.7.4,4.9,1.6s1.6,3.2,1.6,5.9-.5,5.1-1.7,7.5c-1.1,2-2.7,3.9-4.7,5-.6.5-1.6.7-2.4.6-.6,0-1.1-.5-1.2-1.2-.6,1.2-1.5,2.4-2.5,3.5s-2.1,2-3.5,2.7c-2.1,1.2-3.9,1.6-5.2,1.2-1.2-.5-1.9-1.6-1.9-3.9s.9-5.4,2.4-7.6c1.6-2.5,3.9-4.6,6.5-6,1.1-.6,2.2-1.1,3.5-1.4.9-.2,1.9-.2,2.7,0v8.4c0,.6,0,1.1.4,1.2.1.1.6,0,1.1-.1,1-.6,1.7-1.6,2.1-2.7.5-1.6.9-3.1.7-4.9,0-2.1-.5-3.6-1.4-4.6-1-.9-2.4-1.4-3.7-1.1-2,.2-3.9,1-5.5,2-3.5,2-6.6,4.6-9,8-2.1,3.1-3.2,6.9-3.2,10.5s.5,4,1.4,5c1,1.1,2.4,1.6,3.9,1.2,2-.2,3.9-1,5.6-2,1.2-.6,2.2-1.5,3.4-2.4.9-.9,1.9-1.6,2.6-2.7l.2-.2h.1l.9,1.6h0c0,.2,0,.5-.2.6-.9,1.1-2,2.2-3.1,3.1-1.2,1-2.5,2-3.9,2.7-2.1,1.2-4.7,2.2-7.5,2.6l.2.2ZM240.7,178.4c.7-.9,1.2-2,1.2-3.1v-4.9c-1.1,0-2.2.5-3.1,1.1-1.5.9-2.7,2-3.9,3.5-.9,1.2-1.4,2.9-1.4,4.6s.4,2.1,1,2.4,1.7,0,3.1-.9c1.1-.9,2.1-1.7,2.9-2.7h.1Z"/>
    </g>
    <g id="freepik--speech-bubble-2--inject-2">
      <g id="freepik--speech-bubble--inject-22">
        <g id="freepik--speech-bubble--inject-23">
          <path class="st7" d="M324.6,113.4c4.2-1.9,9.1-2,13.6-.5l2,.9c9.2,4.5,13.1,15.6,8.6,24.7-3.9,8.1-13.2,12.2-21.9,9.6l-2-.7c-9.4-4-13.8-14.8-9.7-24.2,1.7-4.2,5.1-7.7,9.5-9.7h0Z"/>
          <path class="st23" d="M313.6,138.5c4.6,10.1,16.5,14.6,26.4,10.1,8.9-4,13.6-13.7,11.2-23.1l4.4-4.4c.5-.5.5-1.2,0-1.6-.1-.2-.5-.4-.9-.4l-6.2.2c-6.1-9.2-18.6-11.7-27.8-5.7-8.1,5.4-11.2,15.8-7.2,24.8h.1ZM324.6,113.4c4.2-1.9,9.1-2,13.6-.5l2,.9c9.2,4.5,13.1,15.6,8.6,24.7-3.9,8.1-13.2,12.2-21.9,9.6l-2-.7c-9.4-4-13.8-14.8-9.7-24.2,1.7-4.2,5.1-7.7,9.5-9.7h0Z"/>
          <path class="st10" d="M324.6,113.4c4.2-1.9,9.1-2,13.6-.5l2,.9c9.2,4.5,13.1,15.6,8.6,24.7-3.9,8.1-13.2,12.2-21.9,9.6l-2-.7c-9.4-4-13.8-14.8-9.7-24.2,1.7-4.2,5.1-7.7,9.5-9.7h0Z"/>
        </g>
        <path class="st1" d="M324.6,120c.5-.4.9-.7,1.4-1.1.5-.4,1.1-.6,1.6-.9.6-.2,1.2-.5,2-.6s1.5-.1,2.4-.1,2,.1,3.1.5c.9.2,1.6.7,2.4,1.2s1.2,1.2,1.5,2c.4.9.5,1.7.5,2.7s0,1.7-.5,2.5c-.2.6-.6,1.2-1,1.9s-.9.9-1.4,1.4l-1.4,1.1c-.4.2-.9.6-1.1,1-.2.2-.5.6-.5,1.1l-.5,2.7h-3.2l-.4-3.1c0-.5,0-1.1.2-1.6s.5-.9,1-1.2.9-.7,1.4-1.1c.5-.4,1-.7,1.5-1.1.5-.4.9-.9,1.1-1.4.2-.5.5-1.2.5-1.9s-.4-1.6-1-2.2c-.4-.2-.7-.5-1.1-.6-.5-.1-.9-.1-1.4-.1-1.1,0-2.2.2-3.1.7s-.6.4-.9.5c-.1.1-.4.1-.6.2-.5,0-.9-.1-1-.5l-1.2-2h-.2ZM328.3,140.7c0-.4,0-.7.1-1.1.2-.7.9-1.2,1.6-1.6.4-.1.7-.2,1.1-.1.4,0,.7,0,1.1.1s.6.4.9.6c.5.5.9,1.2.9,2s0,.7-.1,1.1c-.1.4-.4.6-.6.9s-.5.5-.9.6-.7.1-1.1.1-.9,0-1.1-.1c-.4-.1-.6-.4-.9-.6s-.5-.5-.5-.9c-.1-.4-.2-.7-.2-1.1h-.2,0Z"/>
      </g>
    </g>
    <g id="freepik--character-4--inject-2">
      <g id="freepik--Character--inject-2">
        <g id="freepik--Chair--inject-2">
          <path class="st5" d="M330,253.9l7.2-42.2h4.6c0-.1-9.6,42.2-9.6,42.2h0c0,.1-.1.2-.2.4-.5.2-1.1.2-1.6,0-.1,0-.2-.2-.4-.5h0Z"/>
          <path class="st2" d="M398.7,204.7h4.6l10.9,43.8h0c0,.1,0,.4-.4.5-.5.2-1.1.2-1.6,0-.1,0-.2-.1-.4-.4h0l-13.1-43.9h0Z"/>
          <path class="st2" d="M366.6,273.8v-47.1c.1,0,4.9-.1,4.9-.1l-2.5,47.4h0c0,.1-.1.4-.2.4-.5.2-1.1.2-1.6,0-.1,0-.2-.4-.4-.5h-.1Z"/>
          <path class="st5" d="M373.4,190.1h4.6l7.4,46.5h0c0,.1,0,.4-.4.5-.5.2-1.1.2-1.6,0-.1,0-.2-.1-.4-.4h0l-9.6-46.6h0Z"/>
          <g id="freepik--chair--inject-2">
            <path class="st1" d="M412,153.6c1,2.6,1.6,5.4,1.9,8.1.5,6.2-1.6,26.3-2.7,35.4h0c-1.9,15.1-4.1,15.1-7.4,17.6-5.6,4.2-21.8,12.8-27.1,15-9.7,3.9-17.5-2-23.4-5-5.4-2.7-10.6-5.7-15.7-9.2-1.5-1-2.2-2.1-2.2-3.2v-2.7c0-1.5,1.2-3,4-4.7,5-3.2,23.1-13.8,30.1-17.6h0c5.4-3.2,8.6-25.4,12.3-37.3,0-.2.1-.5.2-.7s0-.4.1-.5c.1-.6.5-1.2.7-1.7"/>
            <path class="st1" d="M335.3,209.5c0-1.5,1.2-3,4-4.7,5-3.2,23.1-13.8,30.1-17.6h0c5.4-3.2,8.6-25.4,12.3-37.3.1-.7.5-1.5.7-2.1h0c0-.1,0-.4.1-.6s0-.1,0-.2h0c.5-1.2,1.4-2.6,2.5-3.5.4-.4.7-.6,1.2-.9l2.2-1.2c3.6-2.1,8.5.5,14.5,3.7,3.7,2,6.9,4.5,8.9,9h0c1,2.6,1.6,5.4,1.9,8.1.5,6.2-1.6,26.3-2.7,35.4h0c-1.9,15.1-4.1,15.1-7.4,17.6-5.6,4.2-21.8,12.8-27.1,15-9.7,3.9-17.5-2-23.4-5-5.4-2.7-10.6-5.7-15.7-9.2-1.5-1-2.2-2.1-2.2-3.2v-3.1h.1Z"/>
            <path class="st22" d="M335.3,209.5c0-1.5,1.2-3,4-4.7,5-3.2,23.1-13.8,30.1-17.6h0c5.4-3.2,8.6-25.4,12.3-37.3.1-.7.5-1.5.7-2.1h0c0-.1,0-.4.1-.6s0-.1,0-.2h0c.5-1.2,1.4-2.6,2.5-3.5.4-.4.7-.6,1.2-.9l2.2-1.2c3.6-2.1,8.5.5,14.5,3.7,3.7,2,6.9,4.5,8.9,9h0c1,2.6,1.6,5.4,1.9,8.1.5,6.2-1.6,26.3-2.7,35.4h0c-1.9,15.1-4.1,15.1-7.4,17.6-5.6,4.2-21.8,12.8-27.1,15-9.7,3.9-17.5-2-23.4-5-5.4-2.7-10.6-5.7-15.7-9.2-1.5-1-2.2-2.1-2.2-3.2v-3.1h.1Z"/>
            <path class="st1" d="M353,221.9c-5.4-2.7-10.6-5.7-15.6-9.2-3.4-2.4-3.1-5,1.7-8,6.6-4.2,33.8-19.7,33.8-19.7,0,0,34.4,20.3,32.9,24.1s-22.7,15.3-29.4,18c-9.7,3.7-17.5-2.1-23.4-5h0Z"/>
            <g class="st15">
              <path class="st7" d="M353,221.9c-5.4-2.7-10.6-5.7-15.6-9.2-3.4-2.4-3.1-5,1.7-8,6.6-4.2,33.8-19.7,33.8-19.7,0,0,34.4,20.3,32.9,24.1s-22.7,15.3-29.4,18c-9.7,3.7-17.5-2.1-23.4-5h0Z"/>
            </g>
            <path class="st1" d="M386.6,142.2c3.6-1.9,8.4.6,14.2,3.9,3.7,2,6.9,4.5,8.9,9l2.4-1.4c-2-4.5-5.1-6.9-8.9-9-6-3.2-10.7-5.9-14.5-3.7l-2.1,1.1h0Z"/>
            <path class="st9" d="M386.6,142.2c3.6-1.9,8.4.6,14.2,3.9,3.7,2,6.9,4.5,8.9,9l2.4-1.4c-2-4.5-5.1-6.9-8.9-9-6-3.2-10.7-5.9-14.5-3.7l-2.1,1.1h0Z"/>
            <path class="st1" d="M369.4,187s3.5,1.1,16.1,7.2c5.1,2.5,8.5,5,13.3,8.1,7.1,4.5,6.5,7.7,6.5,7.7,3.5-2.9,7-36.7,6.1-47-.1-2.9-.9-5.7-2-8.5l-.2-.5v-.4c-.1,0-.2-.1-.2-.1-.2-.5-.5-.9-.9-1.4v-.2c-.1,0-.5-.2-.5-.2l-.2-.2v-.2c-.5-.5-1-.9-1.5-1.2,0,0-.1-.1-.4-.2-.7-.6-1.5-1.2-2.2-1.6h-.4c0-.1-.5-.5-.5-.5l-.4-.2c-.4-.1-.7-.5-1.1-.6-4.5-2.4-8.2-4.6-11.3-4.6s-2.9.5-3.9,1.5c-2.4,2-3.5,6.4-3.6,6.6-3.9,11.6-7.1,33.8-12.3,37l-.2-.2h0Z"/>
          </g>
        </g>
        <g id="freepik--character--inject-2">
          <g id="freepik--Bottom--inject-2">
            <path class="st20" d="M344.5,233.7s4.5,9.6,5,13.5c.5,4,1.6,5.2,1.4,9.7,0,.9-.4,2.9-.5,3.7,0,.6.2,1.2.9,1.2h.1c1.9.1,4.5-3.2,5.6-7,1.1-4.2,1.9-8.5,2.4-12.8,0-1-.2-2-.9-2.7-.2-.5-.5-.9-.9-1.4-.7-1.6-1.2-5-2-7.2l-11.2,3.1h.1Z"/>
            <path class="st5" d="M363.5,245.4c.2.4.5.9.5,1.2,0,.9-1.5,3.6-2.1,4.6-.9,1.4-1.2,3.1-.9,4.6.1,2.6-.5,5.2-2.1,7.4-2.1,3-5,5.2-8.5,6.5-4.2,1.6-6-.4-6-.4,0,0-1.5-2-.7-2.7s19.8-21.2,19.8-21.2h0Z"/>
            <path class="st2" d="M357.9,237.6s.4,0,.7.2c0,0,1.1,2,1.9,2.9s2.6,2.7,3,4.2c-.7,3.1-3.5,5.7-3.7,8.6s0,6.5-4.2,10.5-9.1,4.7-10.9,3.9-1.7-2.6.2-6.2c2.2-3.9,3.2-12,3.2-12,0-1.1.1-2.2.1-3.4s-.2-2.2-.6-3.2v-1.5c.2-.5.7-.7,1.2-.9.7-.4,1.5-.7,2.4-1s1.6-.1,2.5,0c.5.2,1,.5,1.6.9.9.2,1.6,0,2.2-.5s.7-1.4.5-2.1c0,0,0-.2-.1-.5h-.1Z"/>
            <path class="st31" d="M357.9,261.3c-1.6-2.2-4.2-3.4-7.1-3.1-5,.4-6.5,3-7.1,4.5-.7,1.7-1.4,5,.7,5.7,2.4.9,4.9.2,8.6-2s4.7-5.1,4.7-5.1h.1Z"/>
            <path class="st31" d="M355.8,246.7h-.5c-.9-.2-5-.9-7.1,1.5-.4-.1-.2-.6,0-1.2,2.6-2,6.5-1.5,7.5-1,.2,0,.4.4.2.5h0s0,.1-.1.2h0Z"/>
            <path class="st31" d="M347.9,251.1c-.1-.5,0-.9.1-1.2,2.1-1.2,4.7-1.5,7.1-.9.1,0,.4.4.2.5h0c0,.1,0,.2-.1.2h-.5c-.7-.2-4.6-.7-6.9,1.2h0Z"/>
            <path class="st31" d="M346.5,257.8c0-.6,0-1.2.5-1.7,2.2-1.2,4.9-1.6,7.4-1,.2,0,.4.4.2.5h0s0,.1-.1.1h-.5c-.9-.1-5.4-.7-7.5,2h0Z"/>
            <path class="st31" d="M354.8,252.9h-.5c-.7-.2-4.9-.9-7,1.4-.1-.5,0-1,.2-1.5,2.1-1.2,4.7-1.5,7.1-.9.2,0,.4.4.2.5h0c0,.1,0,.2-.1.4h0Z"/>
            <path class="st20" d="M343.3,243.1s-.9,10-2,17c-.9,5-5,7-8.5,10.1-.7.6-2.5,1.9-3.1,2.4-.5.4-.6,1.1-.2,1.6,0,0,0,.1.1.1,1.2,1.5,7,2.6,10.5.7s7.2-6.5,9.4-8.2c.9-.6,1.6-1.2,2.4-2s.6-1.4.9-2.2c0-.4.5-2.4.5-2.4.7-2,2.6-6.9,3.4-9.1l-13.2-8.1h0Z"/>
            <path class="st5" d="M353.2,269.8c0,.5,0,.9-.2,1.4-.4.7-3.5,2-4.6,2.5-1.6.5-2.9,1.7-3.6,3.4-1.5,2.4-3.6,4-6.2,4.9-3.5,1.2-7.4,1.2-11,.4-4.5-1.1-4.2-3.9-4.2-3.9,0,0,0-2.5,1.1-2.7s28.9-5.9,28.9-5.9h-.1Z"/>
            <path class="st2" d="M353.3,260.2s.1.1.2.6c0,.1-.2,2.2-.2,3.5s.5,3.9,0,5.4c-2.6,2.2-6.5,2.6-8.4,5s-3.9,5.4-9.9,6.1-10.1-1-11-2.7.6-3.2,3.9-5.4c3.9-2.4,9.6-8,9.6-8,.5-.5.9-1,1.4-1.6.7-1,1.2-2.4,1.2-3.6s.1-1.1.7-1.2h.9c1.4,0,2.7.2,4.1.9.6.2,1.2.5,1.9.9.5.2,1.2.5,1.4,1.1v.7c0,.9-.2,1.6-.5,2.4v.4c.1.4,1.5-1.2,1.6-1.4.4-.5.9-.7,1.5-.9.5,0,.9-.5,1.2-.9l.4-.9v-.4h-.1Z"/>
            <path class="st31" d="M338.8,279.7c0-2.7-1.6-5.4-4-6.7-4.4-2.6-6.4-1-7.9,0-1.6,1-4.6,3.1-3.4,5,1.4,2,3.5,2.9,8,3.2s7.2-1.5,7.2-1.5h0Z"/>
            <path class="st31" d="M345.8,266.5c-.1,0-.2,0-.4-.2-.5-.7-3.6-3.6-6.9-3,0-.4.1-.7.9-1,3.4,0,6.4,2.6,6.9,3.5,0,.1,0,.5-.1.6h-.4Z"/>
            <path class="st31" d="M336.7,265.3c0-.5.5-.9.9-1,2.5.2,4.9,1.6,6.5,3.5v.6h-.2c-.1,0-.2,0-.4-.2-.5-.6-3.5-3.4-6.5-3h-.2Z"/>
            <path class="st31" d="M331.3,270.1c.4-.5.9-1,1.5-1.2,2.6.1,5,1.5,6.7,3.5,0,.1,0,.5-.1.6h-.2c-.1,0-.2,0-.4-.2-.5-.7-3.9-3.9-7.4-2.7h-.1Z"/>
            <path class="st31" d="M341.3,270.9c-.1,0-.2,0-.4-.2-.5-.7-3.5-3.5-6.7-3,.1-.5.6-.9,1.1-1,2.5.2,4.9,1.6,6.5,3.5,0,.1,0,.5-.1.6h-.4Z"/>
            <path class="st27" d="M365.2,180.5s-18.7,10.1-27.6,19.3c-3.1,3.4-5.1,6.2-1.7,14.7,2.6,6.6,6.5,15.5,10.7,23.9l39.7-48.1-21.1-9.7h0Z"/>
            <path class="st2" d="M346.5,238.5l25.2-40.2h-.9c-4.7-2.1-6.7-8.6-6.7-8.6-.5,2.9.4,5.9,2,8.2-2.7,2-8.7,6.5-18,13.5-1.6,1.2-4.6,3.5-4.6,8,0,6.5.2,13.3.2,13.3l2.7,5.7h0Z"/>
            <path class="st27" d="M365.2,180.5h0l38.9,5.7c0,4.6-1.2,12.3-4.9,17.7-2.5,3.9-5.4,6.1-15.3,11.3-9.2,4.9-17.5,9-19.6,10.1-1.6.9-1.6,5.1-2.4,9.4-1.6,8.4-6.7,21.1-6.7,21.1-4.6.9-9.4-.4-13.2-3.2,0,0,1.5-19,2.4-25.2.9-7.5.9-9.4,4.6-13,3.1-3.1,21.9-16.1,21.9-16.1,0,0-9-9-5.7-17.7h0Z"/>
            <path class="st2" d="M399,185.5c-.1,6.5-1,11.2-5.7,16-2.9-2-2.4-3.9-1.2-7.1.4-1,.7-2.1,1-3.4.5-2,.9-4.1,1-6.2h-.5c0,2-.5,4.1-.9,6.1-.2,1.2-.6,2.4-1,3.4-1.1,3.2-1.7,5.5,1.4,7.6-1.1,1.1-2.4,2.1-3.7,3.1-6.9,5-16.5,10.7-22.3,14.2-2,1.2-3.6,2.1-4.5,2.7-3.4,2.1-3.6,4-3.7,9.6,0,7.1-4.2,17.5-6.2,24.6h.5c2-7.2,6.4-17.8,6.2-24.6,0-5.7.5-7.2,3.5-9.1.9-.5,2.4-1.5,4.5-2.7,5.7-3.5,15.5-9.2,22.3-14.2,8.4-6.1,9.7-11.7,10-19.7h-.5v-.2h0Z"/>
          </g>
          <g id="freepik--Top--inject-2">
            <path class="st25" d="M348.3,173.3c2.7,1,7.6-.5,11.1-3.9,3.5-3.4,14.7-15.7,14.7-15.7l1.4-19.7c-2.7-.2-5.4.5-7.6,2-3.2,2.7-12.7,17.1-15.3,21s-4.2,16.2-4.2,16.2h0Z"/>
            <g id="freepik--Arm--inject-2">
              <path class="st2" d="M375.8,134.1c-3.7-.5-6.7-.9-11.2,5.2-4.2,5.5-9.6,13.8-9.6,13.8,0,2.7,1.1,5.6,2.9,7.7,3.1,3.9,5.7,4.7,5.7,4.7l10.9-11.5,1.4-20.1Z"/>
            </g>
            <path class="st31" d="M399.3,139.7c2.1,1.1,5.4,5.2,6.1,14.2.5,5.5,1,6.5-.4,22.9-.5,6.5-.5,10.2-2,18.6-7.7,2.6-35.2-.4-41.2-13.5,1.6-2.9,1.9-8.9,1.9-12.6s.2-16.2.5-19.7c.9-11,5.7-15.3,11.3-15.7,0,0,6.9.9,11.2,1.6,4.2.9,8.4,2.2,12.3,3.9"/>
            <path class="st23" d="M399.3,139.7c5,3.2,5.7,10.9,6.5,16.3.4,3.6.5,7.2.1,10.9-.7,9.6-1,19.3-2.7,28.9-7.5,2-15.5.6-22.8-1.1-7.2-2-15.2-5.4-18.6-12.3,1.7-4.1,1.7-8.9,2-13.3.1-4.5.1-9,.4-13.5,0-8.2,1.4-20.7,11.7-21.5,8,1,16.1,2.4,23.4,5.7-3.7-1.6-7.6-2.7-11.6-3.7-3.5-.7-8.5-1.2-12-1.7-10.1.9-11.5,13.1-11.5,21.2s-.1,9-.2,13.5c0,4.5,0,9.1-1.9,13.3h0c1.6,3.2,4.6,5.9,7.9,7.7,8.6,5,23.3,8,33,5.5,1.2-8.6,2-19.2,2.6-28.6.2-3.6.1-7.2-.1-10.9-.5-5.5-1.1-12.8-6.1-16.3h-.1Z"/>
            <g id="freepik--Head--inject-2">
              <path class="st5" d="M389.1,131.1c.5-3.1,3.5-6.5,4.7-9.1s2-4.6,1.7-7.1c0-1.5-1.1-3.4-2.1-3.7.9-3.6-1.2-7.2-4.9-8.2h-.2c-1-.1-2-.5-3-.7-1.2-.5-1.5-1.4-2.4-2.1-1.6-1.2-4.4-1.2-5.4.9-1.1-1.4-2.6-1.2-4.2-.9-1.5.4-2.4,1.7-2.1,3.2-1.4-.9-3.2-.4-4.2,1-.1.2-.2.5-.4.7,0,.9,0,1.7-.5,2.7s-2,1-2.5.1c-.1,1.4.4,2.4,1.9,2.4-.5.9-.6,1.7-.4,2.6.4,1.1,1.5,1.9,2.6,2,0,1.6,1.1,3,2.5,3.6,2.4.9,4.9,1.5,7.2,1.7l2.9.5c.1,0,1,0,1.1.1l7.6,10.1h0Z"/>
              <path class="st20" d="M392.8,127.1c-1.1.9-2.6.9-3.6,0l.4,10.1c-1.6,4.4-9,5.4-11.7,4.1s-2.4-2.7-.7-5.2v-1.6h-3.9c-2.4-.2-4.2-2.1-5-4.9-.9-3.4-1-6.9-.5-10.4.1-.9.1-1.6,0-2.5-.1-1.9,0-3.7.6-5.5,2.6-2.2,8.7-3.1,14.6.2-.5,3.5.9,6.1,3.4,7.4,0,.9-.1,3.2,1.4,3.1,1.1,0,1.1-1.4,2.2-2.7s3.7-1.6,4.7,0c1.2,2.7.5,6.1-1.9,7.7h0Z"/>
              <path class="st5" d="M382.8,117.2l7.4,1.9c-.5.2-.9.7-1,1.2l-6.4-1.2v-1.7h0Z"/>
              <path class="st2" d="M365.5,116.2c0,.4,0,.7.2,1.1v.4c0,1,0,2,.2,3,.2,1.2,1.4,2.4,2.7,2.4h1.1c.2,0,.6-.1.9-.2h.1v-.2h.1c.2-.5.5-.9.9-1.2.5-1,.5-2.4,1.2-2.6h.1c.9,0,.6,1.6,1.1,2.7.5,1.5,1.7,2.5,3.4,2.6h1.4c.1,0,.4-.1.5-.2h.1c0-.1.2-.2.4-.4.2-.2.5-.6.7-1,.4-.9.6-2,.9-2.9,0-.1,0-.2.1-.4.2-.2.5-.6.5-1s-.1-.7-.5-.9h-.5c-1.6-.5-3.4-.5-5-.4-1.6.4-2.2.9-3.1.7s-1.2-.6-2.7-1.2c-1.5-.5-3.1-.6-4.6-.6h-.5c-.4,0-.7.4-.7.9l.9-.5h0ZM376,118c.1-.1.2-.2.5-.4h.2c0-.1.1-.1.1-.1.2-.1.5-.1.7-.2h1.1c1,0,2,.1,2.7.9.4.4,0,1.9-.1,2.6h0v.5h0v.4h0v.2h0v.2c-.5.7-1.4,1-2.4.9-.9,0-1.6-.5-2.2-1.1h0c-.4-.5-.5-1-.5-1.6s0-1.5.2-2.2h-.5ZM367,116.5s.2-.1.4-.1h2.4c.9,0,1.7.5,2.4,1.2.1.7,0,1.6-.1,2.4,0,.1,0,.4-.1.5h0v.4h0c-.5,1-1.6,1.4-2.5,1.1-.4,0-.9-.1-1.1-.4-.7-.6-1.2-1.6-1.2-2.6s0-2.2.2-2.5h-.2,0Z"/>
              <path class="st25" d="M374.9,120.5l-1,5.1-3.7-1.7.5-.6c0-.1.1-.2.2-.5l.4-.5c.4-.6.9-1.2,1.2-1.6,0-.1.2-.4.5-.6.4-.5.7-.9,1-1.2.7,0,.9.9.9,1.9h0Z"/>
              <path class="st25" d="M375.5,127.9c0,.5.4,1,.9,1s1-.4,1-.9-.4-1-.9-1-1,.4-1,.9h0Z"/>
              <path class="st25" d="M376.8,134.5c3.9-.5,6.7-1,8.6-3.9.9-1.4,1.6-3,2.2-4.6-.1,2-.7,3.9-1.5,5.7-.9,1.7-3.1,3.5-9.1,4.1l-.2-1.4h0Z"/>
              <path class="st5" d="M376.7,120c0,.6.5,1.1,1,1.1h0c.6,0,1.1-.5,1.1-1.1s-.5-1.1-1.1-1.1-1,.5-1,1.1h0Z"/>
              <path class="st5" d="M377.3,114.6l2.4,1.2c.4-.6,0-1.5-.6-1.9-.5-.2-1.4,0-1.6.6h-.1Z"/>
              <path class="st5" d="M369.1,114.9l2.5-.9c-.1-.6-.9-1-1.6-.9h0c-.5.4-.9,1.1-.7,1.7h-.1Z"/>
              <path class="st5" d="M368.9,119.3c0,.5.5,1,1.2.9.5,0,1-.5.9-1.2,0-.5-.5-1-1.1-.9-.6,0-1.1.6-1,1.2h0Z"/>
            </g>
            <g id="freepik--laptop--inject-2">
              <path class="st23" d="M330.1,197.1v.5c0,.7.4,1.4,1,1.7l35.8,20.8c.2.1.6.2,1,.2s.7,0,1-.2l19.7-11.2c.6-.4,1-1,1-1.7v-.6h0c0,.1-21.6,12.5-21.6,12.5l-37.8-22.1h-.1Z"/>
              <path class="st5" d="M367.9,219.3v1.4c-.4,0-.7,0-1-.2l-35.8-21c-.6-.4-1-1-1-1.7v-.5l37.8,22.1h0Z"/>
              <path class="st12" d="M389.4,207h0v-.2l-36.8-21.6c-.4-.1-.7-.1-1.1,0l-21.2,12.1,37.8,22.1,21.5-12.3h-.1Z"/>
              <path class="st23" d="M352,185h.5l36.8,21.6h0l-21.5,12.2-37.5-21.9,21.1-12h.6M351.9,184.9c-.1,0-.4,0-.5.1l-21.3,12.1,37.8,22.1,21.6-12.3s.1-.2,0-.4h0l-36.8-21.6h-.7,0Z"/>
              <polygon class="st23" points="368.1 217.4 379.6 211 346.2 191.4 334.6 197.9 368.1 217.4"/>
              <polygon class="st23" points="334.6 197.9 334.9 198.2 346.2 191.9 379.2 211.2 379.6 211 346.2 191.4 334.6 197.9"/>
              <polygon class="st21" points="334.6 197.9 334.9 198.2 346.2 191.9 379.2 211.2 379.6 211 346.2 191.4 334.6 197.9"/>
              <polygon class="st23" points="373.9 199.1 373.6 199.2 368 202.5 358 196.6 357.8 196.5 363.6 193.1 373.9 199.1"/>
              <polygon class="st21" points="373.9 199.1 373.6 199.2 368 202.5 358 196.6 357.8 196.5 363.6 193.1 373.9 199.1"/>
              <polygon class="st23" points="373.6 199.2 368 202.5 358 196.6 363.6 193.4 373.6 199.2"/>
              <g id="freepik--arm--inject-2">
                <path class="st20" d="M416,176.4c-2.2-9-4.5-17.6-6.7-24.4-1.2-3.7-1.9-8.9-9.9-11.6-5,3.9-3.1,14.3-2.2,17l5.4,20.7s-1.4,1.7-6.1,6.5c-4,4-6,5.4-10.6,6.1s-5,.5-7.5,1.6c-1.2.6-4.2,2-5.1,2.6s-2.7,2.4-4.2,3.7.5,2,1.6,1.5c1.2-.5,2.5-1.1,3.6-2,1-.5,2-.9,3.1-1.2-.2,1.2-.5,2.4-.5,3.6s0,1.5.5,2c.5.2.9.5,1.4.5,0,.2,0,.5.2.6.4.1.7.2,1.2.2h.6c0,.5.4.7.9.9.9.2,2,.2,2.9,0,0,0,1.2-.6,1.5-.9s.9-.4,1-.7-.5-1.1-1-1.2c-.6,0-1.2,0-1.7.1.1-.5.4-1,.5-1.6.5-.9,4.1,0,7.2-.9,2.4-.5,4.1-2.7,5.1-3.4,5-3,9.6-6.1,14.2-9.7,6-4.6,6.1-5.5,5-10.2l-.4.2h0Z"/>
                <path class="st25" d="M376.5,197h.6c.1-.9.5-1.6.9-2.2-.7.2-1.2,1.2-1.6,2.2h.1ZM379,197.1c-.1.6-.4,1.2-.5,2,0,.6-.1,1.2-.1,2v2c0-.6,0-1.2.1-2,0-.6.1-1.2.2-2,0-.6.1-1.2.4-1.9,0-.2.1-.6.4-.9,0-.2.2-.5.5-.9-.5.5-.9,1-1.1,1.6h.1ZM380.8,199.9c0,.6-.1,1.2-.1,2v2c0-1.2.2-2.5.5-3.9,0-.6.1-1.2.4-1.9,0-.2.1-.6.2-.9,0-.2.1-.5.4-.9-.5.5-.7,1-.9,1.6-.2.5-.4,1.2-.5,1.9h0ZM384.8,201.9c-.2,0-.5,0-.7.1h-.1v.2h0v.5c0,.1-.1.4-.2.5.4,0,.5-.4.7-.6h0c.1-.2.4-.4.6-.5.2,0,.5,0,.9-.1-.2-.1-.6-.2-.9-.1h-.2,0Z"/>
                <path class="st2" d="M399.3,139.7c4.2,1.6,7.5,2.7,9.4,8.6,2.4,7.1,5.1,18,5.1,18,0,0-1.2,2.7-6.4,4.1s-7.5,0-7.5,0c0,0-2.6-9-3.6-12.7s-2.7-14.6,2.9-17.8h.1Z"/>
              </g>
              <path class="st5" d="M367.4,219.7c-.6.2-1.5.1-2-.1l-35.7-20.8c-.6-.4-1-1-1.2-1.6l-3.9-23.4v-.4c0-.6.2-1.2.7-1.7l37,21.6c.5.2.7.7.9,1.2l4.1,25.3Z"/>
              <path class="st27" d="M367.9,219.3h-.2c0,.1-.1.1-.4.2l-4.1-25.2c0-.5-.4-1-.9-1.2l-37-21.6c.1-.1.2-.2.5-.4l37,21.7c.5.2.7.7.9,1.2l4.2,25.2h0Z"/>
              <path class="st2" d="M362.9,193.5l.5-.4c.1.1.2.5.4.7l4.1,25.3h-.2c0,.1-.1.1-.4.2l-4.1-25.2c0-.2,0-.5-.2-.7h0Z"/>
              <path class="st1" d="M347.3,197.9c-.5-2-1.9-3.6-3.5-4.6-1.7-1-2.9-.5-2.7,1,.5,2,1.9,3.6,3.5,4.6,1.7,1,3,.5,2.7-1Z"/>
            </g>
            <g id="freepik--arm--inject-21">
              <path class="st20" d="M347.4,172.8c-1-1.2-2.4-4.2-1.4-9.1.6-3.1,3.5-5.9,6.7-9.4,4-4.5,6.5-6.5,6.5-10.9s-.4-3.9.6-6.1c.5-1.2,1.7-4,2.2-5s2.1-2.6,3.2-4.2,1.9.4,1.5,1.5c-.4,1.2-.9,2.4-1.6,3.5-.5.9-.9,2-1.1,3,1.1-.2,2.2-.5,3.5-.6.6,0,1.4-.1,1.9.4.2.4.5.9.5,1.2.1,0,.5,0,.5.2.1.2.4.7.2,1.1v.6c.4,0,.7.2.9.7.2.9.2,1.7,0,2.7,0,0-.5,1.1-.7,1.4,0,.4-.4.7-.6,1-.4.1-1.1-.4-1.1-.9v-1.6c-.5.1-.9.4-1.5.5-.7.5.4,1.6-.1,4.6-.4,2.2-2.4,3.6-2.9,4.6-3.4,5.9-4.1,12-8,16.7-1.6,1.6-7.4,6.2-9.2,3.9h0Z"/>
              <path class="st25" d="M362.1,137c.5-.4,1.2-.7,1.9-.9,0-.1,0-.4.1-.5-.9.4-1.9.9-2,1.5h0ZM362.9,138.9c.1-.1.5-.4.7-.5.2,0,.5-.2.9-.4.5-.1,1.1-.2,1.7-.4.5,0,1.2-.1,1.7-.2.5,0,1.2-.1,1.7-.1h-1.9c-.6,0-1.2,0-1.9.2-.6,0-1.2.2-1.7.5-.5.1-1,.5-1.4,1h0ZM365.2,139.9c-.5.1-1.1.5-1.6.9.1-.1.5-.4.7-.4s.5-.1.9-.2c.5-.1,1.1-.2,1.7-.4,1.1-.2,2.4-.5,3.5-.6h-1.9c-.5,0-1.2.1-1.7.2-.5,0-1.1.2-1.6.5h0ZM369.2,144v-.7c0-.1.1-.4.1-.5h.1s.1,0,.2-.1c.1,0,.2-.2.4-.5-.1,0-.2.1-.5.2h-.5c0,.4,0,.6-.1.9v.7h.2,0Z"/>
            </g>
          </g>
        </g>
      </g>
    </g>
    <g id="freepik--character-3--inject-2">
      <g id="freepik--character--inject-21">
        <g id="freepik--Legs--inject-2">
          <path class="st5" d="M385.8,375.6c-.7,2.1-4.5,1.7-8.5,1.9-3.1,0-6.9-.5-9,.5s-2.4,3.5.9,6.4c4.2,3.5,9.7,3.1,12.8,3.5s5,1.4,7.9,1.2c3.6,0,5.7-1.4,6.4-2.4s0-8.9-1.6-8.5c0,0,.1-.2-5.2-.5-3.9,0-3.7-2.1-3.7-2.1h.1Z"/>
          <path class="st17" d="M394.7,378.6l.9-7.4s0-.6-4.5-.7c-2.1,0-4.6-1.9-4.9-.1s-.4,5.2-.4,5.2c-.7,2.1-4.5,1.7-8.5,1.9h-2c-2.1.1-4.1,1.7-1.6,3.2s6.1,1.6,9.6,1.7c3.9,0,11.2.2,11.2-3.9h.1Z"/>
          <path class="st2" d="M384.7,329.2c-.4,8,.7,45.1.7,45.1,0,0,3.7,1.9,9.9-.2l4.1-40.5-14.7-4.4Z"/>
          <path class="st5" d="M366.7,384.8c-.7,2.1-6.5,3.1-10.4,3.4-3.1.1-6.9-.2-9,.9s-2.4,3.6,1.1,6.4c4.2,3.4,11.8,1.6,15,1.7s5,.9,7.5.9c3.6,0,5-1.4,5.4-2.4s.9-8.9-.6-8.4c0,0,.1-.2-5.2-.2s-3.9-2-3.9-2v-.2h.1Z"/>
          <path class="st17" d="M375.8,387.6l2.9-11.6c-1.6,2.1-4.1,3.5-6.9,3.5s-4.6-1.6-4.9,0-.1,3.2-.4,4.9-5,3.1-9.2,3.5c-.6,0-2.4.2-3,.2h0c-2.4.1-4.7,2.1-2.4,3.5s9,0,12.5,0,11.2,0,11.2-4.2v.2h.1Z"/>
          <path class="st27" d="M368.9,343.5c-.9,8.2-1.9,31.4-2,37.9,0,0,5.4,2.2,10.5.6,0,0,7.2-23.3,6.6-32.1-.1-4.2-15.1-6.5-15.1-6.5h0Z"/>
        </g>
        <path class="st5" d="M454.2,409.8l-5.9-49.3-4.9-.2,8.4,49.5h0c0,.1.1.4.2.5.5.2,1.2.4,1.7,0,.1,0,.4-.1.4-.5h0Z"/>
        <path class="st2" d="M388.1,356h-4.9l-7,46.5h0c0,.1,0,.5.4.5.5.2,1.2.2,1.6,0,.1,0,.2-.1.4-.4h0l9.4-46.6h.1Z"/>
        <path class="st5" d="M383.2,356l-2,13c1.1.9,2.4,1.6,3.7,2.2l3.1-15.3h-4.9Z"/>
        <path class="st2" d="M421.9,426.2l-4.6-50-4.9-.2,6.9,50.4h0c0,.1.1.4.2.5.5.2,1.2.4,1.7,0,.2,0,.5-.2.5-.5h.1Z"/>
        <path class="st5" d="M418.1,383.4l-.6-7.4-4.9-.2,1.1,8c1.4.4,2.9.2,4.4-.2h0Z"/>
        <path class="st5" d="M414.5,340.7h-4.9l-7,46.5h0c0,.1,0,.5.4.5.5.2,1.2.2,1.7,0,.1,0,.2-.2.4-.5h0l9.4-46.6h0Z"/>
        <path class="st1" d="M380.2,355.1c-.6-3.9,2.4-6.9,8.4-10.7,5.4-3.5,11.1-6.7,17-9.5,4.9-2.2,9.9-2,16.1,1.2,8.6,4.5,34.8,20.3,34.8,20.3,0,0-39,22.1-46.6,21.1-7.6-1-26.3-13.2-27.8-17.5s-1.9-4.9-1.9-4.9h.1Z"/>
        <g class="st4">
          <path class="st7" d="M380.2,355.1c-.6-3.9,2.4-6.9,8.4-10.7,5.4-3.5,11.1-6.7,17-9.5,4.9-2.2,9.9-2,16.1,1.2,8.6,4.5,34.8,20.3,34.8,20.3,0,0-39,22.1-46.6,21.1-7.6-1-26.3-13.2-27.8-17.5s-1.9-4.9-1.9-4.9h.1Z"/>
        </g>
        <path class="st1" d="M413.6,372.8c-5.6,5.1-11.5.7-20.8-5.4-10.5-6.9-12.6-12.3-12.6-12.3,0,0,0,4.2.7,6.1s2.5,4.2,10.1,9.4c7.6,5.2,13.1,7.9,18.2,8.9l4-.5"/>
        <path class="st11" d="M392.8,367.5c-10.5-6.9-12.6-12.3-12.6-12.3,0,0,0,4.2.7,6.1s2.5,4.2,10.1,9.4c7.6,5.2,13.1,7.9,18.2,8.9l4-.5.2-6.1c-5.5,5-11.3.6-20.7-5.4h0Z"/>
        <path class="st2" d="M444.4,339s-32.8-9.9-38.5-11.5-16.7-4.2-19.8-2.7-4.9,3.1-5.1,7.7v5.1s15.8,5,28.9,5,34.5-3.5,34.5-3.5h0Z"/>
        <path class="st27" d="M446.8,335.8c2,7,3.1,15.6-1.7,20.7-3.5,3.7-12.7,12.2-32.3,11.3-8.9-.4-33.7-17.7-33.7-17.7,0,0-9.4-1.5-9.4-4.7s-.9-1-.7-1.9c1.4-7.2,5.9-10.7,12.2-10.2,10.5.9,34,7.5,34,7.5l31.8-5h-.2,0Z"/>
        <polygon class="st17" points="408.9 279.4 412.1 293.6 424.1 291.1 420 275.3 408.9 279.4"/>
        <path class="st17" d="M426.2,282.4c1.9-.5,6.1-.9,8.6.5s4.6,4.1,6.7,11.2c1.6,5.5,5.4,20.1,4.6,24.9s-17.6,7.7-17.6,7.7l-2.4-44.4Z"/>
        <path class="st12" d="M443.9,325.8c-2.2-3.7-4-7.9-5.1-12-1.6-10.1,2-14.7-1.9-24.4-1.7-4.5-7.4-7.7-12-6.6-1.2.2-1.6.2-2.9.5.9,2.4-7.9,4.9-11.7,2.7-1.6.5-9.7,4.1-9.7,4.1-1.6,3.4-2.7,7.2-3.5,14.6-.4,3,.9,6.2,2.5,9,4.2,7.6,6.1,16.2,5,24.8v.7s7.2,8.1,25.2,4.9c16-2.9,16.5-13.5,16.5-13.5-.5-1.6-1.2-3.1-2-4.7h-.4Z"/>
        <path class="st17" d="M388.7,325.9c.5-6,1.9-13.8,3.1-22.6,1.1-8.6,3.2-10.9,8.9-13.2,8.1,5,5.4,21.1,5.4,21.1,0,0-2,10.6-4.2,18.8-.9,3.6-3,9.7-8.6,9-4.4-.5-5.1-6.5-4.5-13.1Z"/>
        <path class="st18" d="M399.4,265.5s-2.9,4.6-2.5,5,2.5.7,2.5.7v-5.7Z"/>
        <path class="st17" d="M406.9,252.4c-2.5,1.5-6.9,4.2-7.5,13.7-.6,9.7.9,13.1,2.2,14.3.9.9,7.4,1,9.1.4,3-.9,9-5.2,11.8-10.4,3.2-6.1,3.6-14.1-.7-16.8-6.1-4-12.8-2.4-15-1.2h0Z"/>
        <path class="st19" d="M415.3,280.9c-1.4-.4-2.7-1-3.7-2-1.2-1-3.1-5.4-3-6.5,0,0,1.7,1.2,3.9-.9s2.4-6.1-.7-7.1c-2.1-.6-3.7,1.1-4.6,2.7,0,.2-.2.5-.6.6-.5,0-.9-.4-1-.9-.1-.5-.4-1-.7-1.5-.7-.6-1.1-1.6-1.2-2.5,0-.9,0-1.6.1-2.4-1,.9-1.7,2-2.2,3.1-.7-1.5-.6-3.1,0-4.6-1,1.2-1.7,2.6-2.1,4.1-.9-.7-1.2-1.7-1.5-2.9-.4-3,.6-6,2.7-8.1s4.7-3.6,7.6-4.5c2.7-.9,5.6-1.2,8.5-1,6.1.4,9.4,3.4,10.4,4.5.9,1.2,1.4,2.7,1.5,4.1,3.6,1.9,3.7,6.5,2.9,10-.7,3.1-2.7,5.9-4.7,8.2-1,1.2-2.1,2.4-3.1,3.7-.5.5-.9,1.2-1.4,2-.5,1-1,2-1,2-1.7.2-3.9.1-6-.2h.2,0Z"/>
        <path class="st18" d="M409.3,281.2l-.4-1.5c-1.2.4-2.6.6-3.9.6-2.7.1-3.7-.4-3.7-.4,0,.1.2.2.4.5.9.6,5.1,1,7.6.7Z"/>
        <path class="st1" d="M413.4,378.9c3.1-.1,5.7-2.5,13.3-5.7,14-5.9,24.6-10.5,28.6-17.8,3.9-7.4,6.9-40.3,5.9-49.5,0-1-.4-2-.6-3.1h1l-2.5-2.2h0c-2.6-2.1-6.9-.1-10.1,1.5-9.2,5-16.5,9.9-21.9,27.4-4.2,13.1-7.1,37-13,43.4"/>
        <path class="st11" d="M460.3,302.9h1l-2.5-2.2h0c-2.6-2.1-6.9-.1-10.1,1.5-9.2,5-16.5,9.9-21.9,27.4-4.2,13.1-7.1,37-13,43.4l-.2,6.1c3.1-.1,5.7-2.5,13.3-5.7,14-5.9,24.6-10.5,28.6-17.8,3.9-7.4,6.9-40.3,5.9-49.5-.4-1.1-.5-2.1-.9-3.1h-.1Z"/>
        <path class="st1" d="M451.1,303.2c-9.2,5-17.8,10.5-22.7,28.4-4.9,17.8-8,44.8-19.1,47.8,0,0,5,2,20.6-4.6,5-2,10.9-5.9,14.8-8.1,7.7-4.2,12.3-7.9,13.1-9.2,4.1-7.4,6.9-40.3,5.9-49.5-1-9.2-8.1-7.4-12.7-4.9h.1Z"/>
        <g class="st13">
          <path class="st7" d="M451.1,303.2c-9.2,5-17.8,10.5-22.7,28.4-4.9,17.8-8,44.8-19.1,47.8,0,0,5,2,20.6-4.6,5-2,10.9-5.9,14.8-8.1,7.7-4.2,12.3-7.9,13.1-9.2,4.1-7.4,6.9-40.3,5.9-49.5-1-9.2-8.1-7.4-12.7-4.9h.1Z"/>
        </g>
      </g>
    </g>
    <g id="freepik--character-2--inject-2">
      <g id="freepik--character--inject-22">
        <g id="freepik--legs--inject-2">
          <path class="st30" d="M312.7,419.5l1.7-6.5s-.5.5-4.2-.4c-1.4-.4-2.7-1-4-1.6l-1,4.6c-1,1.7-4.2.9-7.9.5-.5,0-1.2-.1-1.9-.2h0c-2,0-3.9,1-1.9,2.7s5.4,2.2,8.4,2.7c3.6.6,10.1,1.7,10.7-1.9h0Z"/>
          <path class="st5" d="M287.3,418.9c-.2.6-.4,1.2-.2,2,0,.7,1.9,3.1,5,4.6s6.9,1.6,8.7,2,3.5,1.6,5.6,2,4.2.7,6.4-.6c.4-.6.6-1.4.7-2.1-.5-.1-26.1-7.9-26.1-7.9h-.1Z"/>
          <path class="st2" d="M304.6,416.1c-1.4.9-4.2.2-7.2,0-2.9-.4-6.1-1.2-8.1-.6s-3.6,3-.9,6c1,1.2,2.2,2.1,3.6,2.7,3.2,1.2,6.2,1.2,8.4,1.7,2.7.6,4.2,1.9,6.9,2.2,3.2.4,5.4-.5,6-1.2s1.1-8-.2-7.9c0,0-.5,2.4-6,0-2.4-1-2.4-2.4-2.2-3h-.1Z"/>
          <path class="st31" d="M295.5,420s.2-3,2.5-3.9c.4-.1.9,0,1.2.1,0,0-2,.2-2.7,3.9,0,0,0,.1-.5.1,0,0-.5-.1-.5-.4h0Z"/>
          <path class="st31" d="M301.3,416.5h-.5c-.1-.1-.4-.1-.5-.1,0,0-1.6.7-2,3.9,0,.2.2.5.5.5s.5,0,.5-.2h0s.4-3.2,2-3.9h0Z"/>
          <path class="st31" d="M303,416.6s0-.1-.5-.1-.5.1-.5.1c-.9,1.1-1.2,2.4-1.2,3.9,0,0,0,.5.5.5s.5-.5.5-.5c0,0,0-3.2,1.1-3.9h.1Z"/>
          <path class="st1" d="M313.6,377.4c-2,8.6-8.4,34.7-8.4,34.7,0,0,4.6,4.2,9.7,2.2,5.4-14.2,15-23.8,15-34.3l-16.2-2.6h-.1Z"/>
          <path class="st14" d="M313.6,377.4c-2,8.6-8.4,34.7-8.4,34.7,0,0,4.6,4.2,9.7,2.2,5.4-14.2,15-23.8,15-34.3l-16.2-2.6h-.1Z"/>
          <path class="st30" d="M294.4,428.5c.5-.9,2.6-6.5,2.6-6.5,0,0-2.1,1.2-5.9.4-1.4-.5-2.7-1.4-3.6-2.5l-1.6,5.5c-.9,1.9-3.9,1.2-7.6.9-.5,0-1.2,0-1.9-.1h0c-2,0-3.9,1.1-1.7,2.7s5.4,2.1,8.4,2.6c3.6.5,9.2.1,11.2-2.9h.1Z"/>
          <path class="st5" d="M266.6,428.3c-.2.6-.4,1.4-.1,2.1,0,.7,2,3.2,5.4,4.7s7.5,1.5,9.4,2,3.7,1.6,6.1,2,4.6.7,6.9-.9c.4-.7.6-1.5.7-2.4-.5-.4-28.2-7.9-28.2-7.9v.2h-.1Z"/>
          <path class="st2" d="M285.3,424.8c-.1.1-.5.2-.6.5-.2,0-.5.1-.7.1h-1.7c-1.5,0-3-.2-4.5-.5-3.1-.2-6.6-1.2-8.6-.5s-4,3.2-1,6.5c1.1,1.2,2.4,2.2,3.9,3,3.5,1.5,7.1,1.2,9.4,1.6,3,.6,4.6,2,7.4,2.1,3.5.4,5.7-.6,6.4-1.6.4-.5,0-3.2.4-5.5.4-1.9.2-3.1-.4-3.1-.1.2-.2.5-.5.6-.1.2-.5.5-.7.6-.5.1-.9.4-1.2.5-.9.2-1.6.4-2.4.4s-.5,0-.6-.1-.4-.5-.4-.9,0-.5-.1-.9c0-.1,0-.2-.1-.5s-.2-.2-.5-.4c-.5-.1-1-.5-1.4-1-.1-.4-.4-.9-.4-1.2s0-.1,0-.1h-.9l-.5.4h0Z"/>
          <path class="st31" d="M275.6,429.2s.2-3.2,2.6-4.1c.5-.1.9-.1,1.2,0,0,0-2.2.4-2.7,4.2,0,0,0,.2-.5.1-.1,0-.5,0-.5-.4h-.1Z"/>
          <path class="st31" d="M281.6,425.3h-.5c-.1-.1-.5-.1-.6-.1,0,0-1.7.9-2,4.2,0,.2.2.5.5.5s.5,0,.6-.2h0s.1-3.5,2-4.2h0Z"/>
          <path class="st31" d="M283.4,425.5s0-.1-.5-.1-.6.1-.6.1c-.9,1.2-1.2,2.6-1.2,4.1,0,0,0,.5.6.5s.5-.5.5-.5c0,0,.1-3.5,1.2-4.1Z"/>
          <path class="st1" d="M296.2,385.7c-2.1,6.5-7.6,25.1-10,34.7,0,0,4.5,4,10.1,3.6,3-7.1,16.8-26.9,15.2-35.4-1-5.4-6.9-3.9-6.9-3.9l-8.5.9h0Z"/>
          <path class="st22" d="M296.2,385.7c-2.1,6.5-7.6,25.1-10,34.7,0,0,4.5,4,10.1,3.6,3-7.1,16.8-26.9,15.2-35.4-1-5.4-6.9-3.9-6.9-3.9l-8.5.9h0Z"/>
          <path class="st22" d="M310.2,396.4c-2-1.4-6.5-4.2-7-5.6,0,0,.6,4.5,6.2,7.6l.7-2Z"/>
        </g>
        <path class="st5" d="M382.8,451.4l-5.9-49.3-4.9-.2,8.4,49.5h0c0,.1.1.4.4.5.5.2,1.1.4,1.6,0,.1,0,.4-.4.4-.5h0Z"/>
        <path class="st2" d="M316.7,397.7h-4.9l-7,46.5h0c0,.1.1.5.4.5.5.2,1.2.2,1.7,0,.1,0,.2-.2.4-.5h0l9.4-46.6h0Z"/>
        <path class="st5" d="M311.9,397.7l-2,13c1.1.9,2.4,1.6,3.7,2.2l3.1-15.3h-4.9Z"/>
        <path class="st2" d="M350.5,467.9l-4.6-50-4.9-.2,6.9,50.4h0c0,.1.1.4.4.5.5.2,1.1.4,1.6,0,.2,0,.5-.2.5-.5h.1Z"/>
        <path class="st5" d="M346.7,425.2l-.6-7.4-4.9-.2,1.1,8c1.5.4,3,.1,4.4-.2h0Z"/>
        <path class="st5" d="M343,382.3h-4.9l-7.1,46.6h0c0,.1.1.5.4.5.5.2,1.2.2,1.7,0,.1,0,.2-.2.4-.5h0l9.4-46.6h.1Z"/>
        <path class="st1" d="M308.9,396.8c-.6-3.9,2.4-6.9,8.4-10.7,5.4-3.5,11.1-6.7,16.8-9.5,4.9-2.2,9.9-2,16.1,1.2,8.6,4.5,34.8,20.3,34.8,20.3,0,0-39,22.1-46.6,21.1-7.6-1-26.3-13.2-27.8-17.5s-1.7-4.9-1.7-4.9h.1Z"/>
        <g class="st4">
          <path class="st7" d="M308.9,396.8c-.6-3.9,2.4-6.9,8.4-10.7,5.4-3.5,11.1-6.7,16.8-9.5,4.9-2.2,9.9-2,16.1,1.2,8.6,4.5,34.8,20.3,34.8,20.3,0,0-39,22.1-46.6,21.1-7.6-1-26.3-13.2-27.8-17.5s-1.7-4.9-1.7-4.9h.1Z"/>
        </g>
        <path class="st1" d="M342.3,414.5c-5.6,5.1-11.5.7-20.8-5.4-10.5-6.9-12.6-12.3-12.6-12.3,0,0,0,4.2.7,6.1s2.5,4.2,10.1,9.4c7.6,5.2,13.1,7.9,18.2,8.7l4-.5"/>
        <path class="st11" d="M321.5,409.1c-10.5-6.9-12.6-12.3-12.6-12.3,0,0,0,4.2.7,6.1s2.5,4.2,10.1,9.4,13.1,7.9,18.2,8.7l4-.5.2-6.1c-5.6,5-11.3.6-20.7-5.4h0Z"/>
        <g id="freepik--top--inject-2">
          <path class="st1" d="M370.4,376.7c-7.2-.7-27.9-6-33-6.9-9.7-1.6-14.6-1.9-17.3-1s-5.1,4-6.1,7.2c-1,3.9-1.5,6-1.5,6,0,0,21.2,7.5,31.9,8.7s25.9-14.2,25.9-14.2h.1Z"/>
          <path class="st14" d="M370.4,376.7c-7.2-.7-27.9-6-33-6.9-9.7-1.6-14.6-1.9-17.3-1s-5.1,4-6.1,7.2c-1,3.9-1.5,6-1.5,6,0,0,21.2,7.5,31.9,8.7s25.9-14.2,25.9-14.2h.1Z"/>
          <path class="st1" d="M370.4,376.7c.4,10.2,0,19.7-4.9,24.9-3.4,3.5-20,12.5-30.7,9-10.6-3.5-32.6-19.7-34.7-21.5s-4.2-2.7-4-3.5c3-9.7,7.2-10.6,15.3-8.9,9.7,2.1,31.3,10.9,31.3,10.9l27.6-11.1h0Z"/>
          <path class="st22" d="M370.4,376.7c.4,10.2,0,19.7-4.9,24.9-3.4,3.5-20,12.5-30.7,9-10.6-3.5-32.6-19.7-34.7-21.5s-4.2-2.7-4-3.5c3-9.7,7.2-10.6,15.3-8.9,9.7,2.1,31.3,10.9,31.3,10.9l27.6-11.1h0Z"/>
          <g id="freepik--character--inject-23">
            <path class="st2" d="M367.6,329.9c5.7-.9,10.9.7,12.3,6.9,1.1,4.5-5.4,18.2-8.6,26.3,0,0-12.8-.5-14-10l10.2-23.2Z"/>
            <path class="st26" d="M343.8,309.2s-4.2,5.2-4,5.7c.9.6,1.7,1.1,2.7,1.6l1.2-7.2h0Z"/>
            <path class="st30" d="M346.7,300c-2.4.7-3.1,2.7-3.5,6.5-.1,1.6.5,4,0,5.6-1.5,4.6-.5,12.3.7,13.8.9,1,6.1,2.6,8.7,2.1,3.2-.5,10.6-2.9,14.5-7.5,4.6-5.4,6.4-13.2,2.4-16.8-5.7-5.1-20.5-4.5-22.8-3.6h0Z"/>
            <path class="st30" d="M365.1,328.2l-.2-4.2-13.1,2.4.2,2.9c.1,1.6.2,3.4-.9,3.9-2,1.1-5.1,2.9-7.4,4.2,0,0,9.4,1.1,16.6,0,7.2-1.1,6.1-7.2,6.1-7.2-.1,0-1.2,0-1.4-1.9h0Z"/>
            <path class="st26" d="M344,326.1c2.4,1.4,5.2,2.1,8,2v-1.9c-1.6.2-3.2.5-4.7.5s-2.2-.2-3.2-.6Z"/>
            <path class="st0" d="M342.3,300.9c-.4.5-.5,1.1-.6,1.6,0,1,.4,2,1.2,2.7.9.5,2,.5,2.9-.2-.2,1,0,2.1.7,3,.7.7,2,.9,2.9.2-.2.5-.5,1.2,0,1.6,0,0,.2.1.4.1h1.2c-.5.5-.6,1.1-.5,1.7,0,.1,1.1,1.5,1.1,1.4,0,0,1.2-3.6,4.5-2.9s3.1,4.9.9,7.2-4,1.1-4,1.1c0,.6,0,4.2,2.7,6.2,1.7,1.2,6.5,1.5,9,0,.9-1.6,2.4-3.7,3.6-5.6,3.9-6.1,5.2-9.9,4.6-13.5-.5-2.4-1.5-3.7-3.2-4.2,0-2.4-.9-4.6-2.7-6.1-3.7-3.2-8.1-3.5-11.6-3.4-1.1,0-2.4.1-3.5,0-1,0-2-.5-2.9-.7-1-.2-2,0-2.7.6-.6.9-.9,2-.5,3-.9,0-1.6.2-2.4.6-.7.5-1.2,1.1-1.2,2s.4,1.6,1.1,2c-.4.5-.6.7-.9,1.1v.2h-.1Z"/>
            <path class="st12" d="M374.5,371.1c-.5,2.5-1,5.1-1.4,7.6-.5,3.4-1.2,6.5-2,9.9,0,.2,0,.5-.2.7s-.5.4-.6.5c-3.2,1.6-6.7,3-10.1,4.1-3.9.9-8,1.2-12,1.1-7.4-.6-12.1-3.1-17.5-8.4,1.2-2.9,2-4.1,3-7.2.9-3.5,1.2-5.4,2-11.6,1.9-17.8,4.1-28.3,8.6-31.8,4.4-2,5-2.4,7.2-3.1,1,.5,3.6,1.2,8,.9,5.2-.5,7.5-3.4,7.5-4.1h.9c1.2.2,2.6.9,3.9,1.5s4.4,2,5.6,8c2.4,13.1-1.4,24.4-2.7,31.9h-.1Z"/>
            <path class="st23" d="M367.6,330.2c1.2.4,2.5.9,3.7,1.6h.2c1.4.9,4.1,2.4,5.2,7.7,2.1,10.5,0,20.1-1.6,27.2-.4,1.6-.7,3-.9,4.4l-.2,1.5c-.4,2-.9,4.1-1.1,6.1-.5,3.2-1.2,6.5-1.9,9.7h0c0,.4,0,.5-.1.7-.1.1-.4.2-.5.4-3.2,1.6-6.7,3-10.1,4.1-3.4.7-6.9,1.2-10.2,1.2s-1.1,0-1.6,0c-6.9-.5-11.6-2.7-17.1-8.1.4-.7.6-1.4.9-2,.9-1.6,1.5-3.2,2-5,.9-3.5,1.2-5.4,2-11.6,1.6-16.3,3.9-27.8,8.5-31.6l2.4-1c2.4-1,3-1.4,4.6-2,1.9.7,3.9,1,5.9,1h2c5-.5,7.2-2.9,7.6-4.1h.5M367.6,329.9h-.9c0,.9-2.1,3.7-7.5,4.2h-2c-2,0-4-.2-5.9-1-2.2.7-2.7,1.1-7.2,3.1-4.6,3.5-6.9,14-8.6,31.8-.6,6.2-.9,8.2-2,11.6-.9,3.1-1.6,4.2-3,7.2,5.4,5.1,10.1,7.7,17.5,8.4h1.6c3.5,0,6.9-.4,10.4-1.2,3.5-1.1,6.9-2.4,10.1-4.1.2,0,.5-.2.6-.5,0-.1.1-.5.2-.7.7-3.4,1.4-6.5,2-9.9.4-2.5.9-5.1,1.4-7.6,1.5-7.6,5.4-18.8,2.6-31.7-1.2-6-4.4-7.2-5.6-8-1-.9-2.2-1.4-3.6-1.7h-.1Z"/>
            <path class="st30" d="M319.1,382.6c-5.4-1.7-7.7-7.6-9.5-13.8-.5-2-1.1-3.9-1.9-5.7s-1.7-4-2.4-6.1c-.4-1.1-.6-2.2-.9-3.4-.6-2.6-.2-5.6,0-8.4,0-.6,0-1.4.1-2,.1-.7.4-1.5.7-2.1.2-.5.7-1.1,1.2-.9.4,0,.6.5.7.9,0,.4.1.7.4,1.1,1.1,1.7,2.9-.5,3.9-1.2s1.5-1.2,2.1-1c1.6.7,4.7,6.6,4.6,9.6s-2,7.7-1.2,10.5,6.1,11.6,6.1,11.6l-3.9,11h-.2Z"/>
            <g id="freepik--Mobile--inject-2">
              <path class="st2" d="M325,354.1l-6.9-24.2c0-.5-.5-.9-1-.9-.5-.1-1-.1-1.5,0l-11.6,6.7c-.5.2-.6.7-.5,1.2l6.9,24.2c.1.4.5.7,1,.9s1,.1,1.6,0l11.6-6.7c.4-.2.6-.7.5-1.2h-.1Z"/>
              <path class="st5" d="M324.2,354.4l-12,6.9-6.9-24.2-1.9-.6v.7l6.9,24.2c.1.4.5.7,1,.9s1,.1,1.6,0l11.6-6.7c.2-.1.5-.4.6-.7h0l-.7-.2h-.2,0Z"/>
              <path class="st27" d="M317.1,329.9l-11.6,6.7c-.4.1-.5.5-.4.9l6.9,23.9c0,.4.5.5.9.5h.2l11.2-6.5c.4-.1.5-.6.5-1l-6.9-24.2c0-.2-.4-.5-.6-.4h-.2Z"/>
              <path d="M317.6,331.3l6.4,22.3c0,.4,0,.7-.5.9l-10.5,6.1c-.1.1-.5,0-.7,0h0c0-.1-6.5-22.6-6.5-22.6,0-.2,0-.6.2-.9h0c0-.1,3-1.7,3-1.7h.1c0-.1.1,0,.1,0h0c0,0,0,.1.2.1l3.5-2s.1-.1.1-.2v-.2h0l2.9-1.6h0c.2-.2.6-.1.9,0h0c0,.1.7,0,.7,0h0Z"/>
              <path class="st31" d="M322.3,354.1c.2-.1.5-.5.5-.9l-6.2-22.1-2.7,1.6h0v.2c0,.1,0,.2-.1.2l-3.5,2h-.6l-3,1.7h0c-.1.2-.4.6-.2,1l6.2,22.1,10.2-5.9h-.5Z"/>
              <path class="st5" d="M310.2,334.3l1.6-.9h.1v.2l-1.6.9h-.1v-.2Z"/>
              <path class="st5" d="M312.6,332.8h.1v.4h-.2s0-.1.1-.2h0Z"/>
              <path class="st27" d="M305.4,339.9c0-.1-.2-.4-.5-.5h-.5v.2l.5,2c0,.1.2.4.5.5h.4v-.2l-.5-2h.1Z"/>
              <path class="st2" d="M305.3,340l.5,2c0,.1,0,.2-.2.1-.1,0-.4-.2-.5-.5l-.5-2c0-.1,0-.2.2-.1.1,0,.4.2.5.5Z"/>
              <path class="st27" d="M306.5,343.4c0-.1-.2-.4-.5-.5h-.5v.2l.5,2c0,.1.2.4.5.5h.4v-.2l-.5-2h.1Z"/>
              <path class="st2" d="M306.1,343.5l.5,2c0,.1,0,.2-.2.1-.1,0-.4-.2-.5-.5l-.5-2c0-.1,0-.2.2-.1.1,0,.4.2.5.5Z"/>
            </g>
            <path class="st30" d="M307,351.8c.2-.4.5-.9.7-1.2,1-1.6,2.2-3.1,3.5-4.6,1.2-1.6,2,0,2,1.4.1,2.9-2,5-2.4,7.7,0,.7,0,1.5-.1,2.1-.2,1.6-.7,3.1-1.2,4.6,0,.5-.4.9-.9.9s-.7-.7-.9-1.1c-.5-.9-.7-1.9-1-2.7-.4-1.2-.5-2.4-.5-3.6s.5-2.4,1.1-3.4h-.4Z"/>
            <path class="st5" d="M319.2,366.8c2.7-5,7.6-12.5,12.3-20.5,4.6-7.6,7-8.1,12.7-10.4,8.2,9.9-3,27.6-3,27.6,0,0-9.2,11.3-13.1,15.8-2.6,2.9-7.5,5.4-10.5,2s-1.1-9.7,1.6-14.7h-.1Z"/>
          </g>
        </g>
        <path class="st1" d="M341.9,420.6c3.1-.1,5.7-2.5,13.3-5.7,14-5.9,24.6-10.5,28.6-17.8,4-7.4,6.9-40.3,5.9-49.5,0-1-.2-2-.6-3.1h1l-2.6-2.2h0c-2.6-2.1-6.9-.1-10.1,1.5-9.2,5-16.5,9.9-21.9,27.4-4.2,13.1-7.1,36.9-13,43.3"/>
        <path class="st11" d="M388.9,344.5h1l-2.6-2.2h0c-2.6-2.1-6.9-.1-10.1,1.5-9.2,5-16.5,9.9-21.9,27.4-4.2,13.1-7.1,36.9-13,43.3l-.2,6.1c3.1-.1,5.7-2.5,13.3-5.7,14-5.9,24.6-10.5,28.6-17.8s6.9-40.3,5.9-49.5c-.2-1-.5-2-.9-3h0Z"/>
        <path class="st1" d="M379.6,344.9c-9.2,5-17.8,10.5-22.7,28.4-4.9,17.8-8,44.8-19.1,47.8,0,0,5,2,20.6-4.6,5-2,10.9-5.9,14.8-8.1,7.7-4.2,12.3-7.9,13.1-9.2,4.1-7.4,6.9-40.3,5.9-49.5-1-9.2-8-7.4-12.7-4.9h.1Z"/>
        <g class="st13">
          <path class="st7" d="M379.6,344.9c-9.2,5-17.8,10.5-22.7,28.4-4.9,17.8-8,44.8-19.1,47.8,0,0,5,2,20.6-4.6,5-2,10.9-5.9,14.8-8.1,7.7-4.2,12.3-7.9,13.1-9.2,4.1-7.4,6.9-40.3,5.9-49.5-1-9.2-8-7.4-12.7-4.9h.1Z"/>
        </g>
      </g>
    </g>
  </g>
  <g id="freepik--Character--inject-25">
    <g id="freepik--character--inject-25">
      <g id="freepik--Bottom--inject-25">
        <g id="freepik--bottom--inject-25">
          <path class="st2" d="M144.9,307.1l-5.6,3.2h-.2c0,.1-13.5,8-13.5,8l-3,1.7-9.7,5.6-.9.5-16.8,9.7c.4-6.5.9-15.7,1.2-26.6,0-2.5.4-4.7.6-6.9,1.1-6.6,3.2-11.8,5.6-16.2,1.5-2.9,3.1-5.4,4.4-7.5l16.2.5,15,.5h3.7c.2,1.2.5,2.6.6,4h0c0,.4,0,.7.1,1.1h0c.9,6,1.5,12.7,1.9,19.5,0,1,0,1.9.1,2.9h.2Z"/>
          <path class="st5" d="M125.5,305l-3,15.1,3-1.7,2.4-11.6c3-.6,10.6-5.5,11.2-10.2-4.1,6.2-13.6,8.5-13.6,8.5ZM111.8,326.2l.9-.5c.4-4.2.7-8.6,1.1-12.8-.7,4.5-1.4,8.9-2,13.3h0ZM138.8,307.2v3.4h.4c-.1-1.1-.2-2.2-.4-3.2h0Z"/>
        </g>
      </g>
      <g id="freepik--Top--inject-25">
        <path class="st6" d="M109.5,207.7c-4.9,1.6-6,6.4-6.1,14.5,0,3.1,0,6-2.7,8.1-1.5,1.1-3.1,2-4.4,3.4-2,2.2-2.2,6.1,0,8.2-1.7.6-2.9,2.2-3.1,4.1-.1,1.9.4,3.6,1.4,5.1,2.1,3,6.4,4.2,10,3.6.9,2.4,3.4,4,6,4.1s5.1-.7,7.2-2.2c1.4,2.6,4.7,3.5,7.4,3,2.7-.4,5.2-2,6.7-4.2,0-.1.2-.4.4-.4h.4c1.9,0,3.6,0,5.2-.9,1.5-.6,2.7-1.7,3.7-3,.6-1,1-2,1-3.2s0-1.9-.5-2.7c1.6-1.2,1.7-4.7,1.2-6.7s-1.7-3.6-3.1-5-2.9-2.7-4-4.4c-1-1.4-1.4-3-1.2-4.6,0-1-.4-2.7.2-3.6,0,0,3-3.6,2.9-7.5,0-5.6-4-10.4-9.4-11.6-6-1.6-16.8-1.1-19.3,6.2v-.2Z"/>
        <g id="freepik--Arm--inject-25">
          <path class="st30" d="M170.1,255.9c1-1.2,1.9-2.6,2.5-4,1.6-3.7,3-4.4,6.2-6.7l1.6-1.2c.2-.1.5-.4.7-.6.2-.2.4-.4.7-.1.2.1.4.4.5.6.2.9,0,1.9-.5,2.6s-1.1,1.5-1.7,2.1.4.6.7.6c1.9,0,4.4-1.7,5.9-2.9,1-.6,1.9-1.5,3-2.1.6-.4,1.5-.5,2.2-.4.5,0,1,.4.7,1-.1.4-.4.7-.6,1-.5.6-1,1.2-1,2v1.6c-.1.6-.6,1.2-.9,1.9.2.2.2.9-.1,1.5-1.1,1.6-2.5,3-4,4.2-1.6,1.2-3.5,2.1-5.5,2.7-1.7.5-3.4,1.5-4.5,2.9-1.7,2-3.4,4.4-7.1,9.1-5.2,6.7-7.1,9.6-10.6,10.7-2.6.7-4.6-1.1-9.9-5.5-5.4-4.6-10.4-9.6-15-15l4.1-20.7c3.2,1.7,5.7,5.9,9.4,11.6,6.7,10.6,9.5,14.2,9.5,14.2,0,0,12.2-9.5,13.6-11.1h-.1Z"/>
          <path class="st26" d="M179.2,249.9c0,4.5-2.2,6.5-3.6,7.7,0,0,2.5-.7,3.5-2.9.7-1.5.9-3.4.1-4.9h0Z"/>
          <path class="st12" d="M163.1,261.5l2.2-1.9c.2,1.9,1,3.7,2,5.5,1,1.6,2.5,3,4.1,3.7l-2,2.5c-1.6-.7-3.1-1.9-4.4-3.2-1.7-2.1-2-6.6-2-6.6Z"/>
          <path class="st1" d="M132.5,239.8c8.6,1.2,11,6.2,13.2,9.9,3.2,5.1,10.6,16.2,10.6,16.2l7.5-5.2c0,2,.6,3.9,1.7,5.5,1.2,1.7,2.9,3.2,4.6,4.2,0,0-5.2,7-8.2,10.1s-4.7,4-10,.4c-6.4-4.5-19.8-19.1-19.8-19.1v-21.9h.4Z"/>
          <path class="st16" d="M156.5,265.8c-1.5,1.2-3,4.5-3.4,6.6-.1-2.2.7-5.7,2.7-7.5l.6,1h0Z"/>
        </g>
        <path id="freepik--Chest--inject-25" class="st31" d="M102.6,286.3c.4-3.1,2.6-3.6,1.5-11.1-.5-3.7-2.4-13.3-2.4-13.3,0,0,6.4-5,4.4-19.3l6.6-3.1,4.1-1,10.5.4,5.4,1.5c1.9,1.6,5.2,4.1,8,8,3.9,5.5,4.6,11.6.6,16.2,0,.9,0,14.6,1.1,18,.4,1.4,1,3.1,0,4.9-3.9,6.4-26.7,12.7-39.8-1Z"/>
        <path class="st1" d="M127.2,238.9l5.4.7c5.1,3.9,11.3,11,11.6,16.3.2,3.2-.6,6.4-2.4,9.1,0,0,0,11,1.2,16.8s2.6,21.3,2.6,21.3c0,0,0,1-4.1,2.1-1.4-7.5-4.6-34.8-4.4-41.4s.2-17-9.9-25.2h-.1Z"/>
        <path class="st22" d="M127.2,238.9l5.4.7c5.1,3.9,11.3,11,11.6,16.3.2,3.2-.6,6.4-2.4,9.1,0,0,0,11,1.2,16.8s2.6,21.3,2.6,21.3c0,0,0,1-4.1,2.1-1.4-7.5-4.6-34.8-4.4-41.4s.2-17-9.9-25.2h-.1Z"/>
        <path class="st16" d="M137.8,267.2c.4-1.7.9-3.5,1.4-5.2s.9-3.5,1.4-5.2c.2-.9.4-1.7.5-2.6.1-.9-.5-1.5-1-2.1-1.2-1.2-2.6-2.4-4.1-3.4h-.1v-.2c.1-1,.1-1.9,0-2.9s-.5-1.9-1-2.6c-.5-.7-1.2-1.5-2-2.1s-1.6-1.1-2.5-1.5c.9.4,1.9.7,2.6,1.4.9.5,1.6,1.2,2.1,2,.5.9,1,1.7,1.1,2.7.2,1,.2,2,0,3v-.2c1.5,1,2.9,2.1,4.1,3.4.4.4.6.7.9,1.1,0,0,0,.2.1.4v1.1c0,.9-.2,1.7-.5,2.6-.5,1.7-1,3.5-1.5,5.1s-1.1,3.4-1.6,5.1v.2Z"/>
        <path class="st1" d="M112.7,239.5s2.2,2.5,5.2,9.4c3,6.9,5.9,13.1,5.9,19.3s-2.1,39-2.1,39c0,0-9.1,1.4-17.3-2l.6-12.7-3.1,12.1s-4-1.4-5.4-2.7c2.1-13.2,7-19.5,7.1-24.3.1-3.4-2.6-12.6-3.2-21-.2-4.9,0-9.9,1-14.6l11.2-2.6h.1Z"/>
        <path class="st22" d="M112.7,239.5s2.2,2.5,5.2,9.4c3,6.9,5.9,13.1,5.9,19.3s-2.1,39-2.1,39c0,0-9.1,1.4-17.3-2l.6-12.7-3.1,12.1s-4-1.4-5.4-2.7c2.1-13.2,7-19.5,7.1-24.3.1-3.4-2.6-12.6-3.2-21-.2-4.9,0-9.9,1-14.6l11.2-2.6h.1Z"/>
        <path class="st16" d="M122.4,270.1c-.6-1.6-1.4-3.1-2.5-4.4-1-1.4-2.1-2.6-3.2-3.9-.5-.6-1.1-1.2-1.7-1.9l-.9-.9c-.1-.1-.2-.2-.5-.5h0v-.7c.1-.9.5-1.7.9-2.5s.9-1.5,1.2-2.2v.4l-2.5-2.6-1.2-1.4-.4-.4h-.1c0-.2-.1-.4-.2-.4v-1.1c.2-1.2.5-2.5.9-3.6.4-1.2.7-2.4,1.2-3.5-.2,1.2-.6,2.4-.9,3.6-.2,1.1-.5,2.4-.6,3.6v.7h.1c0,.1.4.5.4.5l1.4,1.4,2.6,2.6h.2c0,.1-.1.4-.1.4-.4.7-.9,1.5-1.2,2.1-.4.7-.6,1.5-.9,2.2v.2h0c0,.1.2.2.4.5l.9,1c.6.6,1.1,1.2,1.7,1.9,1.1,1.2,2.1,2.6,3.1,4,.5.7,1,1.4,1.4,2.1s.6,1.6.9,2.4l-.2.2Z"/>
        <g id="freepik--arm--inject-25">
          <path class="st30" d="M53.2,251.2c-1.2-.7-2.2-1.6-3.7-2.6s-2.7-1.4-3.4-.7.2,1.7,2.1,3.2c3,2.5,5.2,4.2,5,4.6-1.7,0-2.2.2-2.2,1.5s1,1.5,1,1.5c-.6,0-1,.6-1,1.2s.4,1.1,1,1.5c0,0-.7.1-.5,1.1.1.7.6,1.5,1.4,1.9v-.7h1c.4,0,1.4.1,2,.4s1.5.5,2.1,0c.4-.4.5-.9.2-1.4h0c-.2-.2-.5-.4-.7-.5,0,0,1.1.2,1.5-.6s-.4-1.4-.7-1.7c.5-.4,1-.7.7-1.2s-1.7-1.5-1.7-1.5l.6-1.5s.6-1.2-.2-1.9c-1.5-1-2.5-1.6-3.9-2.5h-.5Z"/>
          <path class="st30" d="M91.4,273.3c-.2-.4-.6-.7-1-1.1-3.5-3.1-8.1-4.5-12.3-6.5-2.7-1.2-5.5-2.7-8.1-4.1-3.2-1.6-3.7-1.7-5-3.9-.6-1.1-1.4-2.1-2.1-3.2-.4-.5-.7-1-1.2-1.4-.6-.5-1.2-.7-2-.7h-1.7c-.5,0-.9,0-1.4.2-.4.1-.7.4-1,.6-.4.4-.7.7-1,1.2v3.2c.5.2,1,.2,1.5,0s.5-.5.6-.7c0,0,1.5.9,1.6,1.4s0,.9-.7,1c.5.4,1.2,1.1,1,1.7s-1.5.7-1.5.7c0,0,1.4,1.1,1.1,1.5s-5.6-1.4-5.6-1.4v2c1.5.6,6.1,2.7,8.9,3.2,1,.1,2.7,1.1,5.2,3,2.9,2.1,5.1,4.6,7.9,6.9,2.6,2.1,5.5,3.6,8.6,4.6.6.2,1.4.4,2.1.4s1.5-.2,2.1-.7c1.5-.9,3.1-3,4.1-4.2,1.2-1.7,1-2.5-.1-4.1v.4Z"/>
          <path class="st26" d="M58.1,259.7c.1,0,.4-.1.5-.4.4,1.2,1,2.5,2,3.5-.7-1.2-1.2-2.7-1.6-4.2-.2-1.1-.1-2.4,0-3.5,0,0-1.1.5-1.7.4h-.1c-.2.6-.5,1.2-.7,1.9-.2.5-.7.6-1.2.4-.2-.1-.2-3.4-.2-3.4l.7-1.1h-.1q0,.1-.1.2h0c-.4.4-.5.5-.6.7-.2.4,0,2.7,0,3.4s1.5.9,2.1-.4h0c.5.2.9.6,1.2,1,.1.2.4.6,0,.9,0,.1-.2.2-.5.2h-.7c.1,0,.4.2.5.2.5.2,1.1,1,.7,1.5-.1.2-.5.5-.9.5h-.7c.4.1.7.4,1.1.7h0c0,.1.1.4.1.6,0,0,0,.1-.1.2h0c-.1.2-.5.4-.6.4h-.1.1c.5,0,.9-.4,1-1,0-.5-.2-.9-.6-1.1.5,0,.9-.2,1.1-.6.5-.9,0-1.4-.7-1.7l.4.6ZM57.5,255.9h.6v1.5h-.4c-.2,0-.5,0-.7-.1.5-1,.6-1.2.6-1.2h-.1Z"/>
          <path class="st12" d="M74.3,263.7l-3.6-1.9s-1.6.6-3.5,4c-.9,1.4-1.2,3-1.4,4.6l4,3.2,4.5-9.9h0Z"/>
          <path class="st1" d="M81.8,266.8c2.9-4.5,7.9-12.2,11-16.7,4.1-5.7,4.7-7.1,10.5-8.4,4.2,11.3,1.2,19.1-.4,21.2s-7.2,10.4-9.9,13.8-4.9,5.7-7.2,6.1-5.1-.9-9-3.4c-3-2-9-7.5-9-7.5.2-2.4,1.2-4.6,2.6-6.5.7-1,1.6-1.9,2.7-2.6l8.7,3.9h-.1Z"/>
          <path class="st16" d="M81.8,266.8c1.2.5,4.7,3.1,5.4,5.1.1-2.1-2.9-5.1-4.5-6.4,0,0-.9,1.2-.9,1.2Z"/>
        </g>
        <g id="freepik--Head--inject-25">
          <path class="st30" d="M107.8,221.3c1-1.2,3.2-1.7,4.2,0,.6,1,.9,2.7,1.9,2.5.6-.1.9-.9.6-2.2,0,0,.7-.4.9-.5.7-.6.6-1.6.9-2.5.2-1,1-1.6,1.5-2.5.7-1.4.4-3,.1-4.5-.1-.6-.2-1.4.2-1.7.4-.2.9-.4,1.2-.4,1.5,0,2.9.4,4.2.7,1.4.4,2.9.4,4.2,0,.6-.2,1.1-.6,1.6-.9.5-.4,1.1-.5,1.7-.4.5.1,1,.4,1.4.9,1.9,1.7,2.5,4.6,3,7,.2,1.9.4,3.7.2,5.6.1,8-1.2,10-2.9,11.3-1.4,1.2-3.6,1.7-6.2,1.7v4.5s3.9,7.1,2,11.2c0,0-6.1-2.5-9.7-5.6-4.5-3.7-5.2-6-5.2-6v-12.1s-2,2.7-4.7.6c-2.4-1.7-2.9-5-1.2-6.9h0Z"/>
          <path class="st26" d="M126.8,235.4c-5,0-9.9-2.1-11.6-6.6,0,0,.1,3,2.1,4.9,3.7,3.6,9.6,3.4,9.6,3.4v-1.6h-.1Z"/>
          <path class="st5" d="M121.2,219.3c0,.6.4,1.2,1.1,1.4.6,0,1.2-.4,1.4-1.1,0-.6-.4-1.2-1.1-1.4h0c-.6,0-1.2.4-1.4,1.1Z"/>
          <path class="st5" d="M130.8,219.8c.2.6.9,1,1.5.7s1-.9.7-1.5-.9-1-1.5-.7h0c-.6.2-1,.9-.7,1.5Z"/>
          <path class="st5" d="M123.4,214.2l-3,1.1c-.2-.9,0-1.7.9-2.1.7-.4,1.7,0,2,.9h.1Z"/>
          <path class="st5" d="M130.4,214.4l3.1.5c0-.9-.5-1.7-1.4-1.9-.9-.1-1.6.4-1.7,1.2h0Z"/>
          <path class="st3" d="M128.8,227.4l-4.4-1.2c-.4,1.2.4,2.5,1.6,2.9s2.4-.4,2.7-1.5h0Z"/>
          <path class="st26" d="M127.4,229c-.2-1.2-1.5-2.1-2.7-2h-.4c0,1,.7,1.7,1.6,2,.5.1,1,0,1.4,0h.1Z"/>
          <path class="st5" d="M118.9,216.8l-7.7,3.6c.5.2.9.6,1,1.1l7.1-3.4-.4-1.4h0Z"/>
          <path class="st2" d="M136.4,215.8h-1c-1.5,0-3.4,0-4.4.4-1.6.5-2.1,1.1-3,1.1s-1.5-.5-3.2-.9c-1.4-.4-3.6-.2-5.2,0h-.5c-.2.1-.5.4-.6.6v.2c0,.4.2.7.5,1h0s.1.2.1.4c.1.7.2,2.1.6,2.9.1.4.4.7.6,1,0,0,.2.2.4.2h.1c.2.2.4.4.6.4h1.2c1.6,0,3.1-.9,3.7-2.4,0-.2.2-.5.2-.7.2-.9.4-1.7,1-1.9h.1c.4,0,.5.4.6.9h0c.1.5.2,1.2.5,1.7.1.4.4.7.7,1.1h.1v.2h0c.2.2.6.4.9.5h1.1c.7,0,1.5-.2,2.1-.7.4-.4.7-.9,1-1.4v-.2h0c.1-.5.2-1,.4-1.5h0c0-.4.1-.7.1-1.2s0-.2.1-.4c.2-.2.4-.6.4-1.1s-.2-.7-.6-.9l1.1.6ZM126,220.3h0c0,.6-.4,1.1-.7,1.6-.6.6-1.5,1-2.2,1h0c-.9,0-1.9-.4-2.4-1.1h0v-.2h0v-.2h0v-.6h0v-.5h0c-.1-.9-.4-2.4,0-2.6.4-.4,1.4-.7,3-.6h1.1c.2,0,.5.1.7.2h.2l.2.2h.1c.1.1.4.2.5.4.4.5.2,1.5,0,2.4h-.6ZM134,222.2c-.4.2-.7.2-1.2.4-.5,0-1.1,0-1.5-.2s-.6-.5-.9-.9h0v-.2h0v-.4c0-.2,0-.4-.1-.6-.1-.9-.2-1.9,0-2.4s1.5-1,2.6-1.1h2.5c.1.1.2.2.4.2.4.4.1,1.9,0,2.7h0c0,.6-.4,2-1.5,2.6h-.2Z"/>
          <path class="st26" d="M126.9,220.4l1.5,4.7,3.9-1.9c-.1-.2-3.7-4.5-4-4.7-.2,0-.6,0-.7.2-.2.5-.5,1-.5,1.6h-.1Z"/>
        </g>
      </g>
    </g>
  </g>
</svg>