<?xml version="1.0" encoding="UTF-8"?>
<svg id="Layer_1" xmlns="http://www.w3.org/2000/svg" version="1.1" viewBox="0 0 500 500">
  <!-- Generator: Adobe Illustrator 29.1.0, SVG Export Plug-In . SVG Version: 2.1.0 Build 142)  -->
  <defs>
    <style>
      .st0 {
        fill: #4c4a4b;
      }

      .st1 {
        fill: #004a99;
      }

      .st2 {
        fill: #37474f;
      }

      .st3 {
        fill: #b16668;
      }

      .st4 {
        opacity: .6;
      }

      .st5 {
        fill: #263238;
      }

      .st6 {
        fill: #c16f19;
      }

      .st7, .st8, .st9, .st10, .st11 {
        fill: #fff;
      }

      .st12 {
        fill: #f0f0f0;
      }

      .st13, .st14 {
        opacity: .4;
      }

      .st15, .st16, .st11 {
        opacity: .2;
      }

      .st17 {
        fill: #ffa8a7;
      }

      .st18 {
        fill: #f28f8f;
      }

      .st19 {
        fill: #711270;
      }

      .st20 {
        fill: #c8856a;
      }

      .st8, .st21, .st9, .st10, .st14, .st22, .st23, .st16, .st11 {
        isolation: isolate;
      }

      .st8, .st23 {
        opacity: .3;
      }

      .st24 {
        fill: #e0e0e0;
      }

      .st21, .st25 {
        opacity: .1;
      }

      .st9 {
        opacity: .5;
      }

      .st10 {
        opacity: .7;
      }

      .st26 {
        fill: #af6152;
      }

      .st22 {
        opacity: .2;
      }

      .st27 {
        fill: #f0997a;
      }

      .st28 {
        fill: #455a64;
      }

      .st29 {
        fill: #ebebeb;
      }

      .st30 {
        fill: #f5f5f5;
      }

      .st31 {
        fill: #ffbda7;
      }

      .st32 {
        fill: #fafafa;
      }

      .st33 {
        fill: #e6e6e6;
      }
    </style>
  </defs>
  <g>
    <g id="freepik--Floor--inject-115">
      <path id="freepik--floor--inject-115" class="st32" d="M119.8,292.9c-71.9,37.6-71.9,98.6,0,136.3,71.9,37.6,188.4,37.6,260.3,0,71.9-37.6,71.9-98.6,0-136.3-71.9-37.6-188.4-37.6-260.3,0h0Z"/>
    </g>
    <g id="freepik--Pictures--inject-115">
      <g id="freepik--Picture--inject-115">
        <g id="freepik--Frame--inject-115">
          <polygon class="st32" points="178.5 133.4 180 134.4 211.5 116.2 210 115.3 178.5 133.4"/>
          <polygon class="st7" points="210 115.3 180 132.6 180 101.2 210 83.9 210 115.3"/>
          <path class="st12" d="M206,109.9c0-.3-.2-.7-.5-.8-.2,0,0-.6-.3-.5,0,0,0-.5-.2-.3,0,.6,0,1-.5.8-.2,0,0-.5,0-.4-.3,0-.4.3-.5.7-.3-.2-.3.5-.5.6,0,.5-.5.6-.6,1-.2.6.2.9.1,1.4s.6-.4.8-.6.5-.5.7-.4c0,0,0,.3.1.2.2-.3,0-.3.2,0,.1.6.5.4.9,0,.1-.5.2-1,.3-1.4v-.3Z"/>
          <path class="st12" d="M204.3,107.5c.1.2.2.2.5,0s0,.4,0,.4c.4,0,.2,0,.6-.4.1,0,.2.3.3,0s-.2,0-.2-.3,0-.2,0-.2c-.3,0-.7-.4-1,.2-.1.2,0-.3-.1-.2s-.3.3-.2.3h0Z"/>
          <path class="st12" d="M207,110.4c-.2,0-.1.2-.2.4s-.3.4-.3.6v.3s0,0,.1,0c.1-.2.7-1.2.4-1.1h0Z"/>
          <path class="st12" d="M207.4,109.8s-.2,0-.2,0c-.1.2-.2.4,0,.5-.1.5.2-.4.2-.5Z"/>
          <path class="st12" d="M205.7,112c0-.2,0,0-.2,0-.4,0,.2.8.2,0Z"/>
          <path class="st12" d="M193.5,99.9c-.2,0-.4.5-.6.3,0,0-.3.6-.2.3.3-.7-.2,0-.3,0,0,0,.2-.2,0-.2,1.2-1.1-1.4,0-1.6.7,0,.3-.2,0-.4.3,0,.2,0,0,0,0h-.2c-.1,0-1.2,1.3-.9,1.3s-.4.5-.5.7.2,0,.2,0v.2c.4.3.9-.9,1.2.3q0,.3.1.2c.2,0-.4.5,0,.5h0v-.2c0-.2,0,0,0,0s-.2.2-.2.5c0,.5.4,1.3.8,1,0-.4.2-.8.3-1.2.3-.2.5-.5.6-.9.2-.2,1.1-1,.5-.8,0,0,0-.2.1-.3,0,0,.3,0,.2,0,0,0-.3-.2,0-.2h0c0-.3-.3.2-.2,0,0-.2.1-.2.2-.2s.2-.2.1-.2,0,0,0,0c.3-.2-.2,0,.2-.4,0-.2-.2,0-.2,0s.2-.3.2-.3c.2-.2-.2,0,0,0h0s-.2.3-.2,0c0-.3.1-.5.3-.7,0,0-.2.2-.2,0,.4-.4,0,0,.3-.4.2,0,.5-.3.4-.4h0Z"/>
          <path class="st12" d="M191.8,115.1c-.2.2-.3-.3-.5,0s-.4,0-.7,0c0-.2-.1-.5-.3-.5s0,0-.3.2c-.1-.2-.3,0-.4-.3-.1,0-.3.2-.4.2,0,0,0,0-.2,0,0,0-.2.3-.2,0,0,0-.3.3-.3.5-1.1.9-.3-.6-.8-.4q-.2.2-.3,0c-.1-.2.2-.2.1-.4s.1-.2,0-.2c-.3,0-.4.9-.7.7-.3-.5-.2-1.1.2-1.5.2,0,.3,0,.4-.3.7-.4.4.3.7.3.1-.4-.3-.7,0-1.1.2-.4.4-.5.2-.8,0-.3,0,.2.1-.2,0,0,.1-.4.2-.4.2-.2,0,0,0,0,.2,0,0-.3.2-.5s.4-.7.3-.2c.1,0,.7-.6.5-.7-.1,0,0,.4-.2.3-.3,0,0-.5-.1-.5-.3.2-.4.4-.1,0,.2,0,.7-.6.7-.5-.3.9-.2.5.2.5s.2-.4,0-.4v-.6c-.3-.3-.4,0-.6-.5-.2-.8-.4.8-.6,0,0-.2-.2,0-.3-.2s-.2,0-.2,0c0,0-.2.2-.2.4.1.2-.1.4.1.5s-.2.5-.2.6.2.4,0,.6c-.1,0-.2-.2-.2-.5-.2.2-.3,0-.5,0s-.3,0-.3,0c0-.3-.3,0-.2-.4,0-.4.5-.8.1-.8.1,0,.7-.5.3-.5,0-.2.2,0,.3-.2,0-.2.2,0,.3-.4s0-.3,0-.6c0,0-.3,0-.1,0s.3-.2.4-.3c.2,0,.1.2.2.4s.2,0,0,0c0,0,.2,0,.2,0,0,.3-.1,0-.2.5-.4,0-.3.6,0,.2.2-.2.1.2.3.2s.6,0,.3-.2c0,0,.1,0,.2-.2.1-.4-.3-.2-.2-.4s.3,0,.3,0c.6-.8-.5-.3-.3-.6,0-.6-.6-.2-.8-.5-.3,0-1.2.2-1,1,0,.2.3,0,.5,0-.2,0,0,.2-.1.3,0,.3-.2,0-.1.3s0,0-.1,0v-.2c-.1,0-.2,0-.2,0-.4-.4,0-.3,0-.7s-.5,0-.4.4c.1,0-.2.3,0,.4s0,.3-.1.3c-.2.4,0,0,0,.4s-1,.5-.2,0c0-.2-.1,0,0-.2-.3-.2-.4,0-.3-.7-.4.3-.2.5-.3.6,0-.2-.2-.3-.2,0h-.2s0,0,0,0c.2-.4-.4.2-.4.4.2.3.2,0,.5,0,0,.2-.4.2-.4.4.3,0,.5,0,.8-.2,0,0-.1,0,0,.2s0,.3,0,0-.4.2-.5.2,0,0,0-.2c-.2,0-.6,0-.7.2h0c-.2.3-.1,0-.3,0,0,.4-.3.2-.4.5-.2,0-.2.3-.3.3-.7,0-1.3.3-1.9.7,0,.2-.1,0-.2.3s-.1.4-.3.4.3.2.3.2c.2.2-.2.3-.2.2-.2.3-.3.2-.2.4s.5-.5.4,0q0,0-.1,0c-.1,0,0,0,0,0,0,0-.3.5-.2.5s0,.2,0,0c0,.2.2,0,.2,0,0,.4.1,0,.2,0s0,0,0,0c.2-.3.1,0,0,.3.2,0,.3-.4.4-.6-.1,0,0-.2.1-.3,0-.3.1,0,0,.2.1,0,.2-.3.3-.3s0-.2,0-.2c.3,0,.8-.3,1,.2.3-.2,0,.5.3,0,.2,0,.1.3.3.2,0,.3,0,.4.3.5.1.5,0,1.3.2,1.7.2.3.4.3.5.7.2,0,0,.3.1.3s.1,0,.1.2c0,0,.1,0,.2,0,.2,0-.3-.7-.4-.8,0-.5.5.6.7.6.1.5.2.6.6.5.4-.2.6,0,.9,0,0,.3.2.4.4.4.2.2.1-.2.2-.3.3.4,0,.7-.1,1.3v.3c-.2.3,0,.4.1.6,0,.8.8.5.7,1.5,0,1-.2,1.9-.3,2.9.1,0,0-.2.1-.3v.4c0,.2-.1.2-.2.5,0,0,.1,0,0,0s0,0,0,0c-.1.2,0,0,0,0v.4s.1,0,0,.2c0,0,.2-.3.1,0s.1,0,0,0,0,.2,0,.3c.1,0,.3,0,.2-.2,0,0,.1-.2,0,0-.2.2,0-.2-.1-.3,0-.3.2-.6.3-.8,0,0-.2,0,0-.3s0-.3.2-.5-.1,0,0-.2,0,0,.2-.2c0-.5.4-.4.5-.8,0-.4-.1-.3.2-.5.1-.2.2-.5.3-.7h0c.2-1.5.5-.8.8-1.9.3-1.7.6-1.2.6-2.2h.2ZM183.7,110.9h0ZM187.4,110.4c.2-.5.3,0,.5,0s.4,0,.2,0c-.1,0,0,.2-.1.3s0-.2,0,0,0-.2,0-.2c-.3,0-.1.5-.3.7-.1,0,0-.5,0-.7-.1,0-.7.5-.2-.2h0ZM186.1,107.5h0ZM184.7,109c.1-.2,0-.4.3-.5,0,.2.2,0,.2,0s-.2.3-.3.4c0,0,0,0,0,0s-.2.2-.1,0h0Z"/>
          <path class="st12" d="M186.9,104.4c.2,0,.4.3.6,0v.3h0c-.1.2-.3.4-.4.3-.6.3.2,0,.1.5l.6-.3c0-.3.3,0,.4-.4-.1-.3-.8.7-.8,0,.3-.2.6-.2.9-.6,0-.2-.2,0,0-.2.3-.4.2,0,.3-.7.3-.3.5-.7.8-1.1.8-.7-.4-.2-.7,0s-.6.3-.8.7c-.1,0-.2,0-.3.3l-.4.3c.1-.2.1.3.4,0,0,0,.1.2.3,0,.1,0,.5-.5.3-.2s-.3,0-.2.4c-.1,0-.6,0-.3.2,0,0,.1,0,0,0s-.2,0-.2,0c0,0-.3,0-.5-.2-.2.2-.3.6-.2.7v.2Z"/>
          <path class="st12" d="M184.6,107.6c.3.3.4-.5.7-.8-.1,0-.5,0-.7.2,0,.4-.2.7,0,.6Z"/>
          <path class="st12" d="M185.3,106.2c0,0,0,.2-.1.3,0,0,.2-.2.3,0-.1.4.2,0,.3-.2s.3,0,.4-.4c0-.2-.3.2-.2-.2-.3,0,0,.4-.2.4-.1,0-.3,0-.4,0h0v.2Z"/>
          <path class="st12" d="M186.7,105.8c-.1,0-.4.3-.2.4,0,0-.3.2-.1.3.4.4.6-.6.4-.4-.2,0,.1,0,0-.3h0Z"/>
          <path class="st12" d="M187.6,107.6s.2,0,.3,0,.2,0,.3-.2-.3,0-.4-.3c-.1,0,0,.4-.2.5h0Z"/>
          <path class="st12" d="M184.8,106.5c.3,0,.3-.6.3-.3.6-1-.6.3-.3.3Z"/>
          <path class="st12" d="M188.9,113.9c.2-.4-.1-.5-.3-.3s-.5-.2-.6.2c.3.3,1-.5.9,0h0Z"/>
          <path class="st12" d="M186.2,104.9c.2,0,0,0,0,.2s.3,0,.5-.2c0-.4-.8,0-.4,0h-.1Z"/>
          <path class="st12" d="M186.5,105.3c0,.4,0,0,0,.3.2,0,.1-.5,0-.3Z"/>
          <path class="st12" d="M184.2,108.3h0Z"/>
          <path class="st12" d="M203.3,107.7c0-.2-.2-.2,0-.6-.2-.2-.2,0-.4.3-.1,0-.2.3-.3.5s-.2,0-.2.2c0,.4.4.6.6.2,0-.2,0-.4.2-.6h0Z"/>
          <path class="st12" d="M205.1,101.4c-.1,0-.1.8-.3.7s0,.3-.3.4c-.4.6-.1.5.1.3,0,0,0-.2,0,0s0,0,0,0c0-.2.3-.3.4-.5s.3-.7,0-.8h.1Z"/>
          <path class="st12" d="M201.2,96.2c.2,0,.6.2.6-.3s-.2,0-.2-.2c0-.5-.5.3-.4.5h0Z"/>
          <path class="st12" d="M204.8,95.3c.1,0,.6-.3.5-.6-.1,0-.9.4-.5.6Z"/>
          <path class="st12" d="M203.6,107.6c0-.2,0,0-.1,0-.2,0-.2.7-.2.8.1,0,0-.5.2-.2.1,0,0-.3,0-.3,0,0,.2-.2,0-.3h.1Z"/>
          <path class="st12" d="M203.9,106.3s-.3.3-.2,0c.1,0,0,0,.1-.2s-.1,0,0,0,0,0,0,0c-.1-.2-.1,0,0,.2s-.3,0-.1.2h0c.1.2,0,0,0,.3.1-.2,0,0,.2,0,0-.3.2-.3.1-.6h-.1Z"/>
          <path class="st12" d="M201.7,96.3c.1,0,.4-.2.5-.5-.2-.3-.4,0-.5.5Z"/>
          <path class="st12" d="M205.4,100.8c-.4.3,0-.6-.4.6,0,.2.1,0,0,0s0,0,0,0c0,0,.5-.4.4-.5h0Z"/>
          <path class="st12" d="M203.4,105.8v.4c.2,0,.1-.5.1-.7s-.2,0-.2,0v.2h0Z"/>
          <path class="st12" d="M205.1,99.6c0,.2,0,1.1,0,.9v-.5c0-.2-.1-1.2-.2-.5h.2Z"/>
          <path class="st12" d="M196.9,109.1h0Z"/>
          <path class="st12" d="M196.1,106.4h0Z"/>
          <path class="st12" d="M197.8,112.5c-.3.8-.4.4-.4,1.4-.2.4.1.8.3.3,0-.5.4-1.5.1-1.7h0Z"/>
          <path class="st12" d="M197.5,110.9c1-2.5.3-1-.2-1.1,0-.3-.2-.3-.3-.4-.1-.2-.2-.4-.2-.7-.1,0-.2-.4-.2-.6.2,0,0-.3,0-.5-.2.2-.5.3-.7.4-.2,0-.4,0-.4.4-.2.2-.4-.2-.5,0h-.1q-.1,0,0,0c.1,0,0,0,0,0,.3-1-1.1.5-1.3.7-.1.4-.3.6-.3.9-.2.3-.4.7-.5,1-.2.5,0,.7-.1,1.2,0,0,0,.2.1.3.2,0,.2.5.4.4.4.3.8-.4,1.2-.6.1,0,.1.2.3,0,.2-.3.4,0,.2.2-.1.6.3.6.3,1.3-.1.7,0,1.4.1,2.1.3.6.1,1.2.8.4.4-.6.6-1.3.7-2.1,0-.4.5-.7.5-1,0-1-.3-1.2.4-2.3h-.2Z"/>
          <path class="st12" d="M209,94.9c-.1-.2-.3.2-.4,0,0-.3-.4-.2-.5-.2s-.5.2-.7.3c-.1,0-.2,0-.2.2s-.4,0-.4.3h0c0-.2-.1,0-.1,0,0-.5-.5.3-.7,0-.2,0-.2-.3-.4,0,0,0,0,0,0,0,0-.3-.3,0-.5,0s.1,0,0,.2-.4.2-.6.3c0,.4-.4.2-.3-.2s-.4,0-.4.2-.2,0-.3.2c-.2,0-.4,0-.5,0,0,0-.4.3-.2,0,.4-.5.2-.8-.2-.5-.1,0-.2,0-.3-.2-.2,0-.3.5-.4.6-.2,0-.4.3-.6.5-.4.4-.2.3-.3.7-.2,0-.5.2-.4.5,0,0,.2,0,.1,0s-.4,0-.4,0h0c0,.2.3.2,0,.3-.3.2,0-.4-.2,0s-.2,0-.1.4q-.1,0,0-.2c0-.4-.3,0-.3.2s-.2.2,0,.4c-.1.3.1.2.1.4-.2.2-.4-.2-.6,0,0,.2-.2,0-.3,0,0,0,.2,0,.2,0s-.1,0-.2,0c-.2.4-.4.2-.6.5-.1.2-.2.3-.3.5s-.2,0,0-.2c0-.3-.3,0-.1.4-.2,0-.4.3-.4.6-.2,0-.4,0-.2.2-.2.3-.2-.3-.3-.3s.8,0,.6-.6h-.8s.1-.3-.2-.2c-.2,0-.4.3-.5.5-.2.2,0,0-.4.4h0c0,.2-.1,0-.2.2.1,0-.2.8-.3.9s-.2.4-.3.5c-.4.3-.2,1.5.2.7.2-.3.2.6.3.4.4-.5,0-.3.3-.8.2-.4-.2-.4,0-.8.1-.2.3-.4.3-.7.2-.3.4-.2.1.2-.7,1.7.7,0,.4.6-.1,0-.2,0-.4.2s-.1.3,0,.2v.2c-.3-.3-.1.6-.4.7-.1,0-.2.3-.4.3s-.2.2-.2,0v-.3c.1,0,0,0,0-.2,0-.3,0,0-.1,0-.2.4.2.4-.3.8-.1,0-.1.4-.2.5s0,.2-.1.2,0,.2-.2.2.1.2-.3.3c-.1.3.2,0,.2.3.1.9-.8.2-.6,1.6,0,.2.2,0,.2,0,0,0,.1,0,.2-.2.3,0,.2-.7.4-.9v-.2c.1-.3.4,0,.6-.5.1.2.6.2.5.7,0,.2.2-.2.2-.3v-.2c-.1-.2-.3,0-.4-.3-.2-.5.4,0,.5,0,0,.2,0,.4.2.4-.1.3,0,.3.2,0,0,0,0,0,0,0s0,0,0-.2c.1,0,.2-.4.3-.2s0,.5.2.5.2-.3.3,0,0,0,.1,0c.3-.5.1.3.1.6,0,.8.6,1.4.8,2,.3-.2,1.5-1.8,1.1-2-.2,0-.1-.5-.3,0-.1.2-.3.4-.3,0,0,0,0,.2-.1,0,0-.2-.2-.2-.2-.4s.2,0,.4,0c.4,0,.8,0,1-.4h.1c.1.2,0,0,.1,0s.2.5.3,0c0,.5.1,1,.3,1.4.2.5.3-.8.4-1,.3-.4.8-1.8.8-1.1.3.3,0,.6.4.3.1,0,0,.3,0,.3h0s-.1,0,0,0,0,.4,0,.5c.2,0,.1.5.3.6-.2,0-.2-.3-.4-.2s.3.5.3.7.4,0,.4.4.3,0,.4,0,.6-.2.5-.3c-.2,0-.2,0-.4,0s-.5.2-.3-.4c-.2,0-.3,0-.3-.3,0,0,.2,0,.1,0,0-.6-.5-.5-.3-1.2.2,0,.3,0,.4.3.2-.2.3-.4.4-.7,0-.4-.2-.4-.3-.6,0-.2.2-.6.3-.5s0,0,0,0c.3-.5.7-.6.7-1.2s.3-.5,0-.6c.2-.2,0,0,0-.2.2,0-.2-.2,0-.5s.4-.4,0-.4c0,0-.1.3-.1,0-.3,0,0-.4.2-.6,0,.3,0,0,.2,0s-.1.5.2.2c0,.4,0,.6.2.2,0-.3-.3-.3,0-.6.2-.5.1-.6.5-.8.4-.6.5-1.2.5-1.9s-.4.3-.4,0q.6-1.2,1.4-1.5c.2-.2.3-1,.6-.8,0,.3.2-.4.4-.4,0,.7-1.1,1.7-.6,2.4,0-.3.2-.6.4-.8.2-.5,0-.4,0-.6.2-.6.5-.5.8-.8s.7-.6.5-.8c0,0-.2,0,0-.2s.2-.6.3-.4.2,0,.2,0c0,0,.2.2.3,0-.1-.3.1-.2,0-.4l-.3.8ZM197.2,105.8c-.2.4-.4.2-.6.3-.3.4-.6.4-.4-.2,0-.3.2-.5.4-.4h0q0,0,.2,0c-.1-.2.2-.4.3-.6-.3.8,0,.3.2.8h0ZM198.2,105.4c-.3.2.1.3,0,.7-.5.2-.3,0-.3-.5-.2-.2-.2-.5,0-.7.3-.5.6-.4.2,0,0,.2.4.2.3.4h-.2ZM199.9,99.7c-.2,0,0-.2,0-.4,0,.2.2.3,0,.4Z"/>
          <path class="st12" d="M194.8,100c0,.2.1.2.2.3,0,.2.1,0,.1.2s.2-.6.3-.7c.1.2.2.3.3,0-.7-.2.4-.4.2-.8-.2,0-.3.3-.5.2s-.2.2-.3.3c-.2,0,0,.3-.1.2h0c0-.2,0,0,0,0h0c0,0-.4.3-.3.4h.1Z"/>
          <path class="st12" d="M199.4,98c-.6.4-1,1-1.2,1.7v.2c0,.2-.2.2,0,.3h.4c-.4-.9,1.2-2.1.9-2.1h0Z"/>
          <path class="st12" d="M193.4,105.5v.3s0,.2,0,0,0,0,.1,0-.1,0-.1.2c-.1.4.1,0,0,.3,0,.2.6-.4.5-.6,0,0-.2,0-.2,0s-.1,0-.1-.2q-.1,0,0-.2c.1-.2,0,0-.1-.2,0,0-.1,0-.1,0s-.1.3,0,.3h0Z"/>
          <path class="st12" d="M193.4,103.8c-.1-.2-.3.2-.4.2s0,.2,0,.2c-.2-.3-.2.4,0,.4s.8-.6.5-.7h-.1Z"/>
          <path class="st12" d="M193.2,106.7c.2-.2.3-.4.2-.7,0,0-.3.2-.2.3s-.2.4,0,.4Z"/>
          <path class="st12" d="M195,107.6v.2s.2-.2,0-.2Z"/>
          <path class="st12" d="M194.7,107.2c0-.5-.2,0-.1.3,0,.3.2-.2.1-.3Z"/>
          <path class="st12" d="M194.1,107.7s-.1.3,0,.2.3-.4,0-.2Z"/>
          <path class="st12" d="M214.4,78l-37.3,21.5v39.9l37.3-21.5s0-39.9,0-39.9ZM211.5,116.2l-31.5,18.2v-33.2l31.5-18.2v33.2Z"/>
          <polygon class="st24" points="211.5 116.2 210 115.3 210 83.9 211.5 83 211.5 116.2"/>
          <polygon class="st32" points="214.4 78 212.9 77.1 175.6 98.6 177.1 99.5 214.4 78"/>
          <polygon class="st24" points="175.6 98.6 177.1 99.5 177.1 139.4 175.6 138.5 175.6 98.6"/>
        </g>
      </g>
      <g id="freepik--picture--inject-115">
        <g id="freepik--frame--inject-115">
          <polygon class="st32" points="178.5 182.4 180 183.3 211.5 165.1 210 164.2 178.5 182.4"/>
          <polygon class="st7" points="210 164.2 180 181.5 180 150.1 210 132.9 210 164.2"/>
          <path class="st12" d="M214.4,126.9l-37.3,21.5v39.9l37.3-21.5v-39.9h0ZM211.5,165.1l-31.5,18.2v-33.2l31.5-18.2v33.2Z"/>
          <polygon class="st24" points="211.5 165.1 210 164.2 210 132.9 211.5 132 211.5 165.1"/>
          <polygon class="st32" points="214.4 126.9 212.9 126 175.6 147.6 177.1 148.5 214.4 126.9"/>
          <polygon class="st24" points="175.6 147.6 177.1 148.5 177.1 188.4 175.6 187.5 175.6 147.6"/>
        </g>
        <g id="freepik--Land--inject-115">
          <polygon class="st12" points="208.8 163.3 181.2 179.3 181.2 171.3 188.1 155.3 192.4 159.3 190.9 166 200.4 145.6 208.8 155.3 208.8 163.3"/>
          <path class="st12" d="M192.2,147.6c-1.2.8-2,2.1-2,3.5s.9,1.8,2,1.2c1.2-.8,2-2.1,2-3.5s-.9-1.8-2-1.2Z"/>
        </g>
      </g>
    </g>
    <g id="freepik--Window--inject-115">
      <g id="freepik--window--inject-115">
        <g id="freepik--window--inject-1151">
          <polygon class="st32" points="71.2 254.5 73.9 254.7 159.3 205.3 158 204.3 71.2 254.5"/>
          <polygon class="st32" points="158 204.3 73.9 252.9 73.9 133.5 158 84.9 158 204.3"/>
          <path class="st12" d="M162,79.5l-90.8,52.5v127.4l90.8-52.5s0-127.4,0-127.4ZM159.3,205.3l-85.4,49.4v-121.2l85.4-49.4v121.2h0Z"/>
          <polygon class="st24" points="159.3 205.3 158 204.3 158 84.9 159.3 84.2 159.3 205.3"/>
          <polygon class="st32" points="162 79.5 158.8 77.7 68 130.1 71.2 132 162 79.5"/>
          <polygon class="st24" points="68 130.1 71.2 132 71.2 259.4 68 257.5 68 130.1"/>
          <polygon class="st32" points="73.9 193.1 157.9 144.5 159.3 145.3 73.9 194.6 73.9 193.1"/>
          <polygon class="st12" points="159.3 145.3 159.3 148.3 73.9 197.7 73.9 194.6 159.3 145.3"/>
        </g>
        <g id="freepik--Blinds--inject-115">
          <path class="st29" d="M73.9,171.1v3.6l84.8-49-.7-3.2-84.1,48.6h0ZM73.9,166.1v3.6l84.8-49-.7-3.2-84.1,48.6h0ZM73.9,176.2v3.6l84.8-49-.7-3.2-84.1,48.6h0ZM73.9,181.2v3.6l84.8-49-.7-3.2-84.1,48.6h0ZM158,87.2l-84.1,48.6v3.6l84.8-49-.7-3.2h0ZM73.9,145.9v3.6l84.8-49-.7-3.2-84.1,48.6h0ZM73.9,161v3.6l84.8-49-.7-3.2-84.1,48.6h0ZM73.9,150.9v3.6l84.8-49-.7-3.2-84.1,48.6h0ZM73.9,140.8v3.6l84.8-49-.7-3.2-84.1,48.6h0ZM73.9,156v3.6l84.8-49-.7-3.2-84.1,48.6h0Z"/>
          <path class="st16" d="M158,87.2l-84.1,48.6v1.5l84.3-48.8-.3-1.3h0ZM73.9,140.8v1.4l84.3-48.8-.3-1.3-84.1,48.6h0ZM73.9,145.8v1.5l84.3-48.8-.3-1.3-84.1,48.6h0ZM73.9,150.9v1.5l84.3-48.8-.3-1.3-84.1,48.5h0ZM73.9,155.9v1.5l84.3-48.7-.3-1.3-84.1,48.5h0ZM73.9,160.9v1.4l84.3-48.7-.3-1.3-84.1,48.5h0ZM73.9,165.9v1.4l84.3-48.6-.3-1.3-84.1,48.4h0ZM73.9,170.9v1.5l84.3-48.6-.3-1.3-84.1,48.4h0ZM73.9,176v1.4l84.3-48.8-.3-1.3-84.1,48.6h0ZM73.9,181v1.5l84.3-48.8-.3-1-84.1,48.4h0Z"/>
        </g>
      </g>
    </g>
    <g id="freepik--Blackboard--inject-115">
      <g id="freepik--Board--inject-115">
        <polygon class="st33" points="261.3 196.6 424.7 290.9 424.7 289.4 261.3 195 261.3 196.6"/>
        <polygon class="st12" points="266.3 192.1 261.3 195 424.7 289.4 429.8 286.5 266.3 192.1"/>
        <polygon class="st24" points="429.8 286.5 424.7 289.4 424.7 290.9 429.8 288 429.8 286.5"/>
        <polygon class="st30" points="266.3 192.1 429.8 286.5 429.8 159.9 266.3 65.5 266.3 192.1"/>
        <polygon class="st24" points="425.3 278 425.3 163.2 270.8 74 270.8 188.8 425.3 278"/>
        <polygon class="st16" points="425.3 274.7 425.3 278 270.8 188.8 270.8 74 273.6 75.7 273.6 187.1 425.3 274.7"/>
        <polygon class="st24" points="433.7 157.6 429.8 159.9 429.8 286.5 433.7 284.2 433.7 157.6"/>
        <polygon class="st32" points="266.3 65.5 270.2 63.3 433.7 157.6 429.8 159.9 266.3 65.5"/>
        <path class="st33" d="M410.7,191.1c.7-.4-7.4-13.2-8-14.2-1.8-3-7.5-2.9-8.1,1.1-.5,3.7-.5,7.5.2,11.2-4.6-10.6-8.3-21.8-14.3-31.6-2.1-3.5-8.9-2.4-8.3,2.3,1.4,11.3,4.4,22.2,7.8,32.9-6.4-17.3-10.8-35.5-14.2-52.8-1-4.9-9-3.8-8.8,1.2.4,10.5,1.7,20.9,3.6,31.2-1.5-3.8-3-7.7-4.5-11.6-2-5.3-10-3.3-8.6,2.4.5,2.2,1,4.3,1.6,6.5-2.1-4.9-4.2-9.9-6.1-14.9-1.7-4.2-9.5-4.2-8.8,1.2,0,.4.1.8.2,1.2h0c.3,2,.6,3.9,1,5.9-2.4-5.9-4.7-12-6.8-18-2.5-7-3.9-15.3-8-21.5-1.3-2.1-4.1-2.8-6.2-1.5-.6.4-1.1.9-1.5,1.5-3.6,5.7-1.4,12.2,0,18.4,2,9,4.5,18,7.5,26.7,1.3,3.9,2.7,7.8,4.2,11.7-2.3-3.7-4.6-7.5-6.7-11.4-8.5-15.6-12.4-32.7-20-48.5-1.9-4-8.5-2-8.3,2.3.5,13,3.8,25.3,8.7,37.3,1.7,4.1,3.5,8.2,5.3,12.3-5.5-7.9-10.7-16-15.6-24.3-1.8-3-7.4-2.9-8.1,1.1-1.4,7.4-1.1,15.1,1,22.4,1.6,5.5,10.2,3.2,8.6-2.4-.3-1.1-.5-2.1-.8-3.2,8.3,12.8,17.3,25.2,26.9,37,2.4,3,7.9.5,7.6-3.2-.2-2.5-.6-5-1.3-7.4,5.9,8.8,12.2,17.4,18.5,25.9,3.4,4.7,10,.8,7.7-4.5-3.7-8.5-7.3-17-10.8-25.6,5.4,10.7,11.7,21,18.8,30.7,3.4,4.6,10.2.8,7.7-4.5-1.3-2.8-2.7-5.7-4-8.6,2.3,1,5,0,6-2.3h0c1.5,2.6,3.1,5.3,4.9,7.8,1.2,2.1,3.9,2.8,6,1.5.7-.4,1.2-.9,1.6-1.6,4.2,9.3,9.4,18.2,15.4,26.4,3,4,9.2,1.7,8.1-3.4-2.1-9.5-4.8-18.8-8-27.9,1.8,3.2,3.8,6.2,6.1,9.1,2.5,3.2,7.5.4,7.6-3.1,0-5-1.2-10-2.4-15,2.8,2.6,6.2,3.8,10.3,1.5,5-2.8.5-10.5-4.5-7.7h-.2Z"/>
        <path class="st7" d="M384.9,262.5c0-1,.6-2,1.5-2.5.3-.2.7-.3,1-.1h0l16.6,9.5-2.1,3.6-16.5-9.6h0c-.3-.2-.5-.6-.5-.9Z"/>
        <path class="st33" d="M402.9,269.5c-.9.6-1.4,1.5-1.5,2.5,0,.9.7,1.3,1.5.8.9-.6,1.4-1.5,1.5-2.5,0-.9-.7-1.3-1.5-.8Z"/>
      </g>
    </g>
  </g>
  <g>
    <g id="freepik--Device--inject-2">
      <g id="freepik--Laptop--inject-2">
        <path class="st2" d="M106.7,353.9c0,2.4,1.8,3.9,4,5.2l90.3,52.1c2.5,1.3,5.5,1.3,8,0l145.6-84c2.2-1.3,4-2.9,4-5.3s-1.8-3.9-4-5.2l-90.3-52.1c-2.5-1.3-5.5-1.3-8,0l-145.5,84.1c-2.2,1.3-4,2.8-4,5.2h0Z"/>
        <path class="st28" d="M110.8,353.3l90.3,52.1c2.5,1.3,5.5,1.3,8,0l145.5-84.1c2.2-1.3,2.2-3.4,0-4.6l-90.3-52.1c-2.5-1.3-5.5-1.3-8,0l-145.5,84.1c-2.2,1.3-2.2,3.4,0,4.6h0Z"/>
        <path class="st5" d="M205,406.3v5.8c-1.4,0-2.8-.3-4-1l-90.3-52.2c-2.2-1.3-4-2.8-4-5.2s1.6-3.8,3.7-5.1c-1.7,1.2-1.7,3.2.3,4.4l90.3,52.1c1.2.7,2.5,1,4,1v.2Z"/>
        <path class="st5" d="M123,349.3l133.8-77.3c1.2-.6,2.5-.6,3.7,0l4.9,2.8c1,.6,1,1.6,0,2.2l-133.8,77.2c-1.2.6-2.5.6-3.7,0l-4.9-2.7c-1-.6-1-1.6,0-2.2Z"/>
        <path class="st5" d="M136.2,357.1l133.8-77.3c1-.6,2.3-.7,3.4-.1l34.8,20.1c.8.5.7,1.4-.3,1.9l-133.6,77.1c-1,.6-2.3.7-3.4.2l-35-20c-.9-.4-.7-1.3.3-1.9Z"/>
        <path class="st28" d="M252.1,312.3l4.2-2.4c.1,0,.2-.3,0-.4l-4-2.3h-.6l-4.2,2.4c-.1,0-.2.2,0,.4l4,2.3h.6,0ZM246,303.9l-4.2,2.4c-.1,0-.2.3,0,.4l4,2.3h.6l4.2-2.4c.1,0,.2-.3,0-.4l-4-2.3h-.7,0ZM232.5,311.7l-7.1,4.1c-.1,0-.2.3,0,.4l4,2.3h.6l7.1-4.1c.1,0,.2-.3,0-.4l-4-2.3h-.7,0ZM239.9,307.4l-4.2,2.5c-.1,0-.2.3,0,.4l4,2.3h.6l4.2-2.4c.1,0,.2-.3,0-.4l-4-2.3c-.1-.1-.4-.1-.6,0h0ZM223.5,316.9l-4.2,2.5c-.1,0-.2.3,0,.4l4,2.3h.6l4.2-2.4c.1,0,.1-.3,0-.4l-4-2.3c-.1-.1-.4-.1-.5,0h-.1ZM217.3,320.5l-4.2,2.4c-.1,0-.2.3,0,.4l4,2.3h.6l4.2-2.4c.1,0,.2-.3,0-.4l-4-2.3h-.6ZM233,329.9l4.2-2.4c.1,0,.2-.3,0-.4l-4-2.3h-.6l-4.2,2.4c-.1,0-.2.3,0,.4l4,2.3h.6ZM226.9,333.4l4.2-2.4c.1,0,.2-.3,0-.4l-4-2.3h-.6l-4.2,2.4c-.1,0-.2.3,0,.4l4,2.3c.2.1.4.1.7,0h0ZM220.8,337l4.2-2.4c.1,0,.2-.3,0-.4l-4-2.3h-.6l-4.2,2.4c-.1,0-.2.3,0,.4l4,2.3h.6ZM214.6,340.5l4.2-2.4c.1,0,.2-.3,0-.4l-4-2.3h-.6l-4.2,2.4c-.1,0-.2.3,0,.4l4,2.3h.6ZM245.9,315.9l4.2-2.4c.1,0,.2-.3,0-.4l-4-2.3h-.6l-4.2,2.4c-.1,0-.2.3,0,.4l4,2.3h.6ZM239.1,326.4l9.3-5.4c.1,0,.2-.3,0-.4l-9.7-5.6h-.6l-4.9,2.8c-.1,0-.2.3,0,.4l5.2,3c.1,0,.1.2,0,.4l-3.9,2.2c-.1,0-.2.3,0,.4l4,2.3h.7-.1ZM211.2,324l-4.2,2.4c-.1,0-.2.3,0,.4l4,2.3h.6l4.2-2.4c.1,0,.2-.3,0-.4l-4-2.3h-.7,0ZM205.1,327.5l-4.2,2.4c-.1,0-.2.3,0,.4l4,2.3h.6l4.2-2.4c.1,0,.2-.3,0-.4l-4-2.3h-.7,0ZM171.2,365.2h.6l4.2-2.4c.1,0,.2-.3,0-.4l-4-2.3h-.6l-4.2,2.4c-.1,0-.2.3,0,.4l4,2.3ZM156.1,355.8l-4.2,2.4c-.1,0-.2.3,0,.4l4,2.3h.6l4.2-2.4c.1,0,.2-.3,0-.4l-4-2.3c-.2-.1-.4-.1-.6,0ZM163.9,362.9h.6l4.2-2.4c.1,0,.2-.3,0-.4l-4-2.3h-.6l-4.2,2.4c-.1,0-.2.3,0,.4l4,2.3ZM180.8,366.7l4.2-2.4c.1,0,.2-.2,0-.4l-4-2.3h-.6l-4.2,2.4c-.1,0-.2.3,0,.4l4,2.3c0,.1.3.1.5,0h.1ZM174.1,370.3h.6l4.2-2.4c.1,0,.2-.2,0-.4l-4-2.3h-.6l-4.2,2.4c-.1,0-.2.3,0,.4l4,2.3ZM162.3,352.2l-4.2,2.4c-.1,0-.2.3,0,.4l4,2.3h.6l4.2-2.4c.1,0,.2-.3,0-.4l-4-2.3h-.7,0ZM192.9,334.6l-4.2,2.4c-.1,0-.2.3,0,.4l4,2.3h.6l4.2-2.4c.1,0,.2-.3,0-.4l-4-2.3h-.6ZM168.4,348.7l-4.2,2.4c-.1,0-.2.3,0,.4l4,2.3h.6l4.2-2.4c.1,0,.2-.3,0-.4l-4-2.3h-.6ZM199,331.1l-4.2,2.4c-.1,0-.2.3,0,.4l4,2.3h.6l4.2-2.4c.1,0,.1-.3,0-.4l-4-2.3c-.2-.1-.4-.1-.6,0h0ZM186.8,338.1l-4.2,2.4c-.1,0-.2.3,0,.4l4,2.3h.6l4.2-2.4c.1,0,.2-.3,0-.4l-4-2.3h-.6ZM180.6,341.7l-4.2,2.4c-.1,0-.2.3,0,.4l4,2.3h.6l4.2-2.4c.1,0,.2-.3,0-.4l-4-2.3c-.2-.1-.4-.1-.6,0h0ZM174.4,345.2l-4.2,2.4c-.1,0-.2.3,0,.4l4,2.3h.6l4.2-2.4c.1,0,.2-.3,0-.4l-4-2.3h-.6ZM202.4,347.6l4.2-2.4c.1,0,.2-.3,0-.4l-4-2.3h-.6l-4.2,2.4c-.1,0-.2.3,0,.4l4,2.3h.7,0ZM259.5,296.1l-4.2,2.4c-.1,0-.2.3,0,.4l4,2.3h.6l4.2-2.4c.1,0,.2-.3,0-.4l-4-2.3h-.6ZM252.2,300.4l-4.2,2.4c-.1,0-.2.3,0,.4l4,2.3h.6l4.2-2.4c.1,0,.2-.3,0-.4l-4-2.3h-.6ZM265.7,292.5l-4.2,2.4c-.1,0-.2.3,0,.4l4,2.3h.6l4.2-2.4c.1,0,.2-.3,0-.4l-4-2.3h-.6ZM231.8,324l4.2-2.4c.1,0,.2-.3,0-.4l-4-2.3h-.6l-4.2,2.4c-.1,0-.2.3,0,.4l4,2.3h.6ZM272.4,289h-.6l-4.2,2.4c-.1,0-.2.3,0,.4l4,2.3h.6l4.2-2.4c.1,0,.2-.3,0-.4l-4-2.3ZM208.6,344l4.2-2.4c.1,0,.2-.3,0-.4l-4-2.3h-.6l-4.2,2.5c-.1,0-.1.3,0,.4l4,2.3h.6ZM283.6,300.7l4.2-2.4c.1,0,.2-.3,0-.4l-4-2.3h-.6l-4.1,2.5c-.1,0-.2.3,0,.4l4,2.3h.5ZM271.8,301l4.2-2.4c.1,0,.2-.2,0-.4l-4-2.3h-.6l-4.2,2.4c-.1,0-.2.3,0,.4l4,2.3h.6ZM278.2,292.3h-.6l-4.2,2.4c-.1,0-.2.3,0,.4l4,2.3h.6l4.2-2.4c.1,0,.2-.2,0-.4l-4-2.3ZM279.4,291.6l9.7,5.6h.6l4.2-2.4c.1,0,.2-.3,0-.4l-9.7-5.6h-.6l-4.2,2.4c-.1.1-.2.3,0,.4h0ZM265.2,299.4l-4.2,2.4c-.1,0-.2.3,0,.4l4,2.3h.6l4.2-2.4c.1,0,.2-.2,0-.4l-4-2.3h-.6ZM219.2,326l-4.2,2.4c-.1,0-.2.3,0,.4l4,2.3h.6l4.2-2.4c.1,0,.2-.3,0-.4l-4-2.3h-.6ZM276.9,304.3h.6l4.2-2.4c.1,0,.2-.3,0-.4l-4-2.3h-.6l-4.2,2.4c-.1,0-.2.3,0,.4l4,2.3ZM225.3,322.5l-4.2,2.4c-.1,0-.2.3,0,.4l4,2.3h.6l4.2-2.4c.1,0,.2-.3,0-.4l-4-2.3c-.2-.1-.4-.1-.6,0h0ZM177.4,361.7h.6l4.2-2.4c.1,0,.2-.3,0-.4l-4-2.3h-.6l-4.2,2.4c-.1,0-.2.3,0,.4l4,2.3ZM170.3,354.3l-4.2,2.4c-.1,0-.2.3,0,.4l3.9,2.3h.6l4.2-2.4c.1,0,.2-.3,0-.4l-4-2.3h-.5ZM184.1,358.2l4.2-2.4c.1,0,.2-.3,0-.4l-4-2.3h-.6l-4.2,2.4c-.1,0-.2.3,0,.4l4,2.3c.1.1.4.1.6,0h0ZM190.2,354.6l4.2-2.4c.1,0,.2-.3,0-.4l-4-2.3h-.6l-4.2,2.4c-.1,0-.2.3,0,.4l4,2.3h.6ZM196.3,351.1l4.2-2.4c.1,0,.2-.3,0-.4l-4-2.3h-.6l-4.2,2.4c-.1,0-.2.3,0,.4l4,2.3h.6ZM176.4,350.8l-4.2,2.4c-.1,0-.2.3,0,.4l4,2.3h.6l4.2-2.4c.1,0,.2-.3,0-.4l-4-2.3h-.6ZM182.5,347.2l-4.2,2.5c-.1,0-.2.3,0,.4l4,2.3h.6l4.2-2.4c.1,0,.1-.3,0-.4l-4-2.3h-.6ZM206.9,333l-4.2,2.4c-.1,0-.2.3,0,.4l4,2.3h.6l4.2-2.4c.1,0,.2-.3,0-.4l-4-2.3h-.6ZM200.8,336.6l-4.2,2.4c-.1,0-.2.3,0,.4l4,2.3h.6l4.2-2.4c.1,0,.2-.3,0-.4l-4-2.3c-.1-.1-.4-.1-.6,0h0ZM213.1,329.5l-4.2,2.4c-.1,0-.2.3,0,.4l4,2.3h.6l4.2-2.4c.1,0,.2-.3,0-.4l-4-2.3h-.6ZM188.6,343.7l-4.2,2.4c-.1,0-.2.3,0,.4l4,2.3h.6l4.2-2.4c.1,0,.2-.3,0-.4l-4-2.3h-.7,0ZM194.7,340.1l-4.2,2.4c-.1,0-.2.3,0,.4l4,2.3h.6l4.2-2.4c.1,0,.2-.3,0-.4l-4-2.3h-.6ZM186.8,363.2l4.2-2.4c.1,0,.2-.2,0-.4l-4-2.3h-.6l-4.2,2.4c-.1,0-.2.3,0,.4l4,2.3h.6ZM154.6,361.7l-4-2.3h-.6l-4.2,2.4c-.1,0-.2.3,0,.4l4,2.3h.6l4.2-2.4c.1-.1.2-.3,0-.4ZM162.6,363.7l-4-2.3h-.6l-6.4,3.7c-.1,0-.2.3,0,.4l4,2.3h.6l6.4-3.7c.1-.1.1-.3,0-.4h0ZM148.6,357.1l-4-2.3h-.6l-5.2,3c-.1,0-.2.3,0,.4l4,2.3h.6l5.2-3c.1-.1.2-.3,0-.4ZM152.5,354.8h.6l4.2-2.4c.1,0,.2-.3,0-.4l-4-2.3h-.6l-4.2,2.4c-.1,0-.2.2,0,.4l4,2.3ZM169.9,366l-4-2.3h-.6l-8.1,4.6c-.1,0-.2.3,0,.4l4,2.3h.6l8.1-4.6c.1,0,.1-.2,0-.4ZM172.7,371l-4-2.3h-.6l-5.2,3c-.1,0-.2.3,0,.4l4,2.3h.6l5.2-3c.2-.1.2-.3,0-.4ZM198.1,328.6h.6l4.2-2.4c.1,0,.2-.3,0-.4l-4-2.3h-.6l-4.2,2.4c-.1,0-.2.3,0,.4l4,2.3ZM185.9,335.6h.6l4.2-2.4c.1,0,.1-.3,0-.4l-4-2.3h-.6l-4.2,2.4c-.1,0-.2.3,0,.4l4.1,2.3h-.1ZM158.7,351.3h.6l4.2-2.4c.1,0,.2-.3,0-.4l-4-2.3h-.6l-4.2,2.4c-.1,0-.2.2,0,.4l4,2.3ZM191.9,332.1h.6l4.2-2.4c.1,0,.2-.3,0-.4l-4-2.3h-.6l-4.2,2.4c-.1,0-.2.3,0,.4l4,2.3ZM179.7,339.2h.6l4.2-2.4c.1,0,.2-.3,0-.4l-4-2.3h-.6l-4.2,2.4c-.1,0-.2.3,0,.4l4,2.3ZM175.7,371.3h-.6l-6.4,3.7c-.1,0-.2.3,0,.4l4,2.3h.6l6.4-3.7c.1,0,.2-.3,0-.4l-4-2.3ZM170.9,344.3h.6l4.2-2.4c.1,0,.2-.3,0-.4l-4-2.3h-.6l-4.2,2.4c-.1,0-.2.2,0,.4l4.1,2.3h-.1ZM164.8,347.8h.6l4.2-2.4c.1,0,.2-.3,0-.4l-4-2.3h-.6l-4.2,2.4c-.1,0-.2.2,0,.4l4,2.3ZM289.1,305.8h-.6l-10.3,6c-.1,0-.2.3,0,.4l4,2.3h.6l10.3-6c.1,0,.2-.3,0-.4l-4-2.3ZM275.6,313.6h-.6l-4.2,2.4c-.1,0-.2.2,0,.4l4,2.3h.6l4.2-2.4c.1,0,.2-.3,0-.4l-4-2.3ZM193,359.6l4.2-2.4c.1,0,.2-.2,0-.4l-4-2.3h-.6l-4.2,2.4c-.1,0-.2.3,0,.4l4,2.3h.6ZM263.4,320.6h-.6l-4.2,2.4c-.1,0-.2.2,0,.4l4,2.3h.6l4.2-2.4c.1,0,.2-.3,0-.4l-4-2.3ZM295.3,302.3h-.6l-4.2,2.4c-.1,0-.2.3,0,.4l4,2.3h.6l4.2-2.4c.1,0,.2-.2,0-.4l-4-2.3ZM305.4,301l-9.7-5.6h-.6l-4.2,2.4c-.1,0-.2.3,0,.4l9.7,5.6h.6l4.2-2.4c.2,0,.2-.2,0-.4h0ZM240.5,333.9h-.6l-5.2,3c-.1,0-.2.3,0,.4l4,2.3h.6l5.2-3c.1,0,.2-.3,0-.4l-4.1-2.3h.1ZM256,325h-.6l-6.4,3.7c-.1,0-.2.3,0,.4l4,2.3h.6l6.4-3.7c.1,0,.2-.2,0-.4l-4-2.3ZM226.3,342.1h-.6l-34.4,19.9c-.1,0-.2.3,0,.4l4,2.3h.6l34.4-19.9c.1,0,.2-.3,0-.4l-4-2.3h0ZM189.9,363.1h-.6l-5.2,3c-.1,0-.2.3,0,.4l4,2.3h.6l5.2-3c.1,0,.2-.3,0-.4l-4-2.3ZM233.4,338h-.6l-5.2,3c-.1,0-.2.3,0,.4l4,2.3h.6l5.2-3c.1,0,.2-.3,0-.4l-4-2.3ZM182.8,367.2h-.6l-5.2,3c-.1,0-.2.3,0,.4l4,2.3h.6l5.2-3c.1,0,.2-.2,0-.4l-4-2.3ZM247.6,329.8h-.6l-5.2,3c-.1,0-.2.3,0,.4l4,2.3h.6l5.2-3c.1,0,.2-.3,0-.4l-4-2.3ZM269.5,317.2h-.6l-4.2,2.4c-.1,0-.2.2,0,.4l4,2.3h.6l4.2-2.4c.1,0,.2-.3,0-.4l-4-2.3ZM283.2,307.6l4.2-2.4c.1,0,.2-.3,0-.4l-4-2.3h-.6l-4.2,2.4c-.1,0-.2.3,0,.4l4,2.3h.6ZM258.2,308.8l4.2-2.4c.1,0,.2-.3,0-.4l-4-2.3h-.6l-4.2,2.4c-.1,0-.2.3,0,.4l4,2.3h.6,0ZM242,331.4l12.3-7.1c.1,0,.2-.3,0-.4l-4-2.3h-.6l-12.3,7c-.1,0-.2.3,0,.4l4,2.3c.1.1.4.1.6,0h0ZM276.5,311.2h.6l4.2-2.4c.1,0,.2-.3,0-.4l-4-2.3h-.6l-4.2,2.4c-.1,0-.2.3,0,.4l4,2.3ZM271.4,307.8l4.2-2.4c.1,0,.2-.3,0-.4l-4-2.3h-.6l-4.2,2.4c-.1,0-.2.3,0,.4l4,2.3h.6ZM235.9,334.9l4.2-2.4c.1,0,.2-.2,0-.4l-4-2.3h-.6l-4.2,2.4c-.1,0-.2.3,0,.4l4,2.3h.6ZM262.9,318.9h.6l4.2-2.4c.1,0,.2-.3,0-.4l-4-2.3h-.6l-4.2,2.4c-.1,0-.2.3,0,.4l4,2.3ZM205.2,352.5l4.2-2.4c.1,0,.2-.2,0-.4l-4-2.3h-.6l-4.2,2.4c-.1,0-.2.3,0,.4l4,2.3c.2.1.5.1.7,0h0ZM211.4,349l4.2-2.4c.1,0,.2-.2,0-.4l-4-2.3h-.6l-4.2,2.4c-.1,0-.2.3,0,.4l4,2.3c.1.1.4,0,.6,0h0ZM199.1,356.1l4.2-2.4c.1,0,.2-.2,0-.4l-4-2.3h-.6l-4.2,2.4c-.1,0-.2.3,0,.4l4,2.3h.6ZM223.6,341.9l4.2-2.4c.1,0,.2-.2,0-.4l-4-2.3h-.6l-4.2,2.4c-.1,0-.2.3,0,.4l4,2.3c.1.1.4.1.6,0h0ZM217.5,345.5l4.2-2.4c.1,0,.2-.2,0-.4l-4-2.3h-.6l-4.2,2.4c-.1,0-.2.3,0,.4l4,2.3h.6ZM229.7,338.4l4.2-2.4c.1,0,.2-.2,0-.4l-4-2.3h-.6l-4.2,2.4c-.1,0-.2.3,0,.4l4,2.3h.7,0ZM263.1,289.3h.6l4.2-2.4c.1,0,.2-.3,0-.4l-1-.6h-.6l-4.2,2.4c-.1,0-.2.2,0,.4l1,.6ZM232.7,308.5h.6l4.2-2.4c.1,0,.2-.3,0-.4l-4-2.3h-.6l-4.2,2.4c-.1,0-.2.2,0,.4l4,2.3ZM245,301.4h.6l4.2-2.4c.1,0,.2-.3,0-.4l-4-2.3h-.6l-4.2,2.4c-.1,0-.2.2,0,.4l4,2.3ZM225.3,312.9h.6l4.2-2.4c.1,0,.2-.2,0-.4l-4-2.3h-.6l-4.2,2.4c-.1,0-.2.3,0,.4l4,2.3ZM238.9,305h.6l4.2-2.4c.1,0,.2-.3,0-.4l-4-2.3h-.6l-4.2,2.4c-.1,0-.2.2,0,.4l4.1,2.3h-.1ZM213,320h.6l4.2-2.5c.1,0,.2-.2,0-.4l-4-2.3h-.6l-4.2,2.4c-.1,0-.1.3,0,.4l4,2.4ZM219.1,316.4h.6l4.2-2.4c.1,0,.2-.2,0-.4l-4-2.3h-.6l-4.2,2.4c-.1,0-.2.3,0,.4l4,2.3ZM250.9,296.4h.6l4.2-2.4c.1,0,.2-.3,0-.4l-1-.6h-.6l-4.2,2.4c-.1,0-.2.2,0,.4l1.1.6h-.1ZM269.3,285.7h.6l4.2-2.4c.1,0,.2-.3,0-.4l-1-.6h-.6l-4.2,2.4c-.1,0-.2.3,0,.4l1,.6ZM277.6,290.6h.6l4.2-2.4c.1,0,.2-.3,0-.4l-4-2.3h-.6l-4.2,2.4c-.1,0-.2.3,0,.4l4,2.3ZM289.4,304.1l4.2-2.4c.1,0,.2-.3,0-.4l-4-2.3h-.6l-4.2,2.4c-.1,0-.2.3,0,.4l4,2.3h.6ZM257,292.8h.6l4.2-2.4c.1,0,.2-.3,0-.4l-1-.6h-.6l-4.2,2.4c-.1,0-.1.2,0,.4l1,.6ZM206.9,323.5h.6l4.2-2.4c.1,0,.2-.2,0-.4l-4-2.3h-.6l-4.2,2.4c-.1,0-.2.3,0,.4l4.1,2.3h-.1Z"/>
        <g id="freepik--tuch-pad--inject-2">
          <polygon class="st5" points="224.4 358.3 225.3 358.8 249.5 372.8 292.5 347.9 293.4 347.4 268.3 332.9 224.4 358.3"/>
          <polygon class="st2" points="292 348.2 268.3 334.6 225.8 359.1 249.5 372.8 292 348.2"/>
        </g>
        <path class="st2" d="M105,349.3c-1.7-.8-2.2-2.2-2.4-4.6l-7.8-114.4c0-2.7,1.3-5.3,3.7-6.7l145.6-84.1c2.2-1.3,3.8-1.9,5.8-.6s2.1,2.2,2.2,4.6l7.8,114.5c0,2.7-1.3,5.2-3.7,6.7l-145.6,84c-2.2,1.3-3.4,1.6-5.7.6h.1Z"/>
        <path class="st28" d="M252.2,143.5c-.1-2.5-2.1-3.4-4.3-2.1l-145.6,84c-1.1.7-2.1,1.7-2.7,2.9l-3.8-1.9h0c.7-1.2,1.6-2.2,2.8-2.9l145.5-84c2.2-1.3,3.8-1.9,5.8-.6,2.2,1.5,2.1,2.2,2.2,4.6h.1Z"/>
        <path class="st5" d="M110.4,348.8c-2,1.2-3.3,1.3-5.4.4-1.6-.7-2.2-2.2-2.4-4.6l-7.8-114.5c0-1.3.3-2.6,1-3.8l3.8,1.9h0c-.7,1.1-1,2.5-1,3.8l7.8,114.5c0,2.2,2.1,3.4,4,2.2h0Z"/>
        <path d="M104.8,229.8l140.1-80.9c1.3-.7,2.5-.2,2.5,1.3l7.3,106.8c0,1.6-.8,3.1-2.2,4l-140,80.8c-1.3.7-2.5.1-2.5-1.3l-7.3-106.7c0-1.6.8-3.2,2.2-4h-.1Z"/>
        <path class="st7" d="M104.8,229.8c-1.4.9-2.2,2.4-2.2,4l7.2,105,138.5-80c1.4-.9,2.2-2.4,2.2-4l-7.2-105-138.5,80h0Z"/>
      </g>
    </g>
    <g id="freepik--speech-bubble-3--inject-2">
      <g id="freepik--speech-bubble--inject-2">
        <g id="freepik--speech-bubble--inject-21">
          <path class="st7" d="M418.1,249c-2.2,3-5.6,5-9.3,5.7h-1.6c-8.1.7-15.2-5.4-15.8-13.6-.5-7.4,4.5-14,11.7-15.5l1.6-.3c8.1-.9,15.5,4.9,16.4,13.1.4,3.9-.7,7.7-3,10.7h0Z"/>
          <path class="st24" d="M415.9,227.2c-7.1-5.4-17.2-4-22.6,3.1-4.8,6.3-4.3,15.1,1.2,20.8l-1.3,4.8c-.1.5.1,1,.7,1.1h.7l4.3-2.6c7.8,4.1,17.6,1,21.7-6.8,3.6-7,1.6-15.6-4.6-20.3h-.1ZM418.1,249c-2.2,3-5.6,5-9.3,5.7h-1.6c-8.1.7-15.2-5.4-15.8-13.6-.5-7.4,4.5-14,11.7-15.5l1.6-.3c8.1-.9,15.5,4.9,16.4,13.1.4,3.9-.7,7.7-3,10.7h0Z"/>
          <path class="st10" d="M418.1,249c-2.2,3-5.6,5-9.3,5.7h-1.6c-8.1.7-15.2-5.4-15.8-13.6-.5-7.4,4.5-14,11.7-15.5l1.6-.3c8.1-.9,15.5,4.9,16.4,13.1.4,3.9-.7,7.7-3,10.7h0Z"/>
        </g>
        <path class="st24" d="M395.6,240.1c0-.3,0-.6.1-.9s.3-.5.4-.7c.4-.4,1-.7,1.6-.7s.6,0,.9.1.5.3.7.5.4.4.5.7.2.6.1.9c0,.6-.2,1.2-.7,1.6-.2.2-.4.4-.7.4-.3.1-.6.1-.9.1s-.6,0-.9-.1-.5-.3-.7-.4c-.2-.2-.4-.4-.5-.7v-.9h.1Z"/>
        <path class="st24" d="M403.9,240.1c0-.3,0-.6.1-.9s.3-.5.4-.7c.7-.7,1.7-.9,2.6-.5.3.1.5.3.7.5s.4.4.5.7.2.6.1.9c0,.3,0,.6-.1.9-.1.3-.3.5-.5.7s-.4.4-.7.4c-.3.1-.6.1-.9.1s-.6,0-.9-.1-.5-.3-.7-.4c-.2-.2-.4-.4-.5-.7,0-.2-.1-.6-.1-.9Z"/>
        <path class="st24" d="M412.2,240.1c0-.3,0-.6.1-.9s.3-.5.4-.7c.7-.7,1.7-.9,2.6-.5.3.1.5.3.7.5s.4.4.5.7c.2.6.2,1.3,0,1.9-.1.3-.3.5-.5.7s-.4.4-.7.4c-.3.1-.6.1-.9.1s-.7,0-.9-.1c-.3-.1-.5-.3-.7-.4-.2-.2-.4-.4-.4-.7-.2-.3-.2-.7-.2-1Z"/>
      </g>
    </g>
    <g id="freepik--Envelopes--inject-2">
      <path class="st28" d="M171.5,222.8c0-1.2.7-2.2,1.6-2.9l85.2-49.2c1-.5,2.3-.5,3.4,0l1.9,1c1,.7,1.6,1.7,1.6,2.9v65.3c0,1.2-.7,2.2-1.6,2.9l-85.2,49.2c-1,.5-2.3.5-3.4,0l-1.9-1c-1-.7-1.6-1.7-1.6-2.9v-65.3h0Z"/>
      <path class="st28" d="M171.5,222.8c0-1.2.7-2.2,1.6-2.9l85.2-49.2c1-.5,2.3-.5,3.4,0l1.9,1c1,.7,1.6,1.7,1.6,2.9v65.3c0,1.2-.7,2.2-1.6,2.9l-85.2,49.2c-1,.5-2.3.5-3.4,0l-1.9-1c-1-.7-1.6-1.7-1.6-2.9v-65.3h0Z"/>
      <path class="st5" d="M179.4,225.3l-7.3-4.3c-.3.5-.4,1-.5,1.6v65.3c0,1.2.7,2.2,1.6,2.9l1.9,1c1,.5,2.3.5,3.4,0l1-.5v-66.1h0Z"/>
      <path class="st2" d="M265.3,174.6v65.3c0,.6-.2,1.2-.5,1.7-.2.4-.6.8-1,1.1h0c0,.1-85.2,49.3-85.2,49.3h0c-.3.2-.7.3-1.1.1-.4-.2-.6-.7-.5-1.1v-65.3c0-.8.5-1.5,1.3-1.6h.5l35.8,8.5,4.7,1.1c1.1.2,2.3-.2,3-1.1l5.5-7.5,36.6-51c.5-.9,1-.7,1,.3v.2Z"/>
      <path class="st5" d="M176.8,291.1c0,.4.1.9.5,1.1.4.1.8,0,1.1-.1h0l29.4-17,6.7-42.3-37.7,57.2v1.1Z"/>
      <path class="st2" d="M264.8,241.6c-.2.4-.6.8-1,1.1h0l-85.3,49.3h0c-.3.2-.7.3-1.1.1l40.8-65.2c1.7-2.7,5.1-3.7,8-2.5l38.7,17v.2Z"/>
      <path class="st5" d="M176.8,223.8l39.2,17.3c2.9,1.3,6.4.2,8-2.5l41.2-65.9-88.3,51h-.1Z"/>
      <path class="st2" d="M176.8,223.8l39.5,14.7c2.8,1,6,0,7.6-2.5l41.2-63.3-88.3,51h0Z"/>
      <path class="st1" d="M191.2,293v-65.3c0-1.3.4-2.5,1.1-3.5l40.6-56.6c1.5-2.1,4.2-3.1,6.7-2.5l38.2,9.1c1.2.3,2.4.8,3.5,1.4l1.9,1c1,.7,1.6,1.7,1.6,2.9v65.3c0,1.2-.7,2.2-1.6,2.9l-85.2,49.2c-1,.5-2.3.5-3.4,0l-1.9-1c-1-.7-1.6-1.9-1.6-3h.1Z"/>
      <path class="st8" d="M191.2,293v-65.3c0-1.3.4-2.5,1.1-3.5l40.6-56.6c1.5-2.1,4.2-3.1,6.7-2.5l38.2,9.1c1.2.3,2.4.8,3.5,1.4l1.9,1c1,.7,1.6,1.7,1.6,2.9v65.3c0,1.2-.7,2.2-1.6,2.9l-85.2,49.2c-1,.5-2.3.5-3.4,0l-1.9-1c-1-.7-1.6-1.9-1.6-3h.1Z"/>
      <path class="st32" d="M198.9,196.1v83.3c0,1,.7,1.5,1.6,1l80-46.2c1-.7,1.6-1.7,1.6-2.9v-83.2c0-1-.7-1.5-1.6-1l-80,46.2c-1,.6-1.6,1.7-1.6,2.8h0Z"/>
      <path class="st24" d="M199.8,281c-.2,0-.4,0-.6-.1-.4-.3-.7-.8-.7-1.3v-83.4c0-1.3.7-2.5,1.8-3.1l80-46.2c.6-.4,1.4-.4,1.9.2.2.3.4.7.3,1v83.3c0,1.3-.7,2.5-1.8,3.1l-80,46.2c-.2.2-.5.3-.9.3h0ZM281.4,147.1c-.2,0-.4,0-.6.1l-80,46.2c-.9.6-1.4,1.6-1.5,2.6v83.3c0,.4.1.7.5.9.2,0,.5,0,.7-.1l80-46.2c.9-.6,1.4-1.6,1.5-2.6v-83.3c0-.3,0-.6-.3-.8h-.4,0Z"/>
      <path class="st1" d="M197.2,229.3l-5.8-3.4c-.1.6-.3,1.1-.3,1.7v65.3c0,1.2.7,2.2,1.6,2.9l1.9,1c1,.5,2.3.5,3.4,0l.8-.4-1.6-67.2h0Z"/>
      <g class="st25">
        <path d="M197.2,229.3l-5.8-3.4c-.1.6-.3,1.1-.3,1.7v65.3c0,1.2.7,2.2,1.6,2.9l1.9,1c1,.5,2.3.5,3.4,0l.8-.4-1.6-67.2h0Z"/>
      </g>
      <path class="st1" d="M284.9,179.6v65.3c0,.6-.2,1.2-.5,1.7-.2.4-.6.8-1,1.1h0c0,.1-85.2,49.3-85.2,49.3h0c-.3.2-.7.3-1.1.1-.4-.2-.6-.7-.5-1.1v-65.3c0-.8.5-1.5,1.3-1.6h.5l35.8,8.5,4.7,1.1c1.1.2,2.3-.2,3-1.1l5.5-7.5,36.6-51c.5-.9,1-.7,1,.3v.2Z"/>
      <path class="st8" d="M284.9,179.6v65.3c0,.6-.2,1.2-.5,1.7-.2.4-.6.8-1,1.1h0c0,.1-85.2,49.3-85.2,49.3h0c-.3.2-.7.3-1.1.1-.4-.2-.6-.7-.5-1.1v-65.3c0-.8.5-1.5,1.3-1.6h.5l35.8,8.5,4.7,1.1c1.1.2,2.3-.2,3-1.1l5.5-7.5,36.6-51c.5-.9,1-.7,1,.3v.2Z"/>
      <path class="st1" d="M283.2,247.8h0c.4-.4.7-.8,1-1.2.3-.5.5-1,.5-1.6l-37.7-14.7,25.3,23.8,10.8-6.2h.1Z"/>
      <path class="st1" d="M196.3,296c0,.4.1.9.5,1.1.4.1.8,0,1.1-.1h0l29.4-17,6.7-42.3-37.7,57.2v1.1Z"/>
      <path class="st1" d="M284.4,246.6c-.2.4-.6.8-1,1.1h0l-85.3,49.3h0c-.3.2-.7.3-1.1.1l40.8-65.2c1.7-2.7,5.1-3.7,8-2.5l38.7,17v.2Z"/>
      <path class="st8" d="M284.4,246.6c-.2.4-.6.8-1,1.1h0l-85.3,49.3h0c-.3.2-.7.3-1.1.1l40.8-65.2c1.7-2.7,5.1-3.7,8-2.5l38.7,17v.2Z"/>
      <path class="st24" d="M234.1,215.3c-1.5.2-3.1-.3-4.1-1.4-1-1-1.5-2.8-1.5-5s.5-5.1,1.6-7.3c1-2.4,2.5-4.6,4.4-6.4,1.9-2,4.2-3.8,6.7-5.2,2.4-1.4,4.5-2.2,6.1-2.3,1.7-.1,3,.3,3.9,1.3s1.3,2.6,1.3,4.7-.4,4.1-1.4,6c-.9,1.6-2.2,3.1-3.8,4-.5.4-1.3.6-1.9.5-.5,0-.9-.4-1-1-.5,1-1.2,1.9-2,2.8s-1.7,1.6-2.8,2.2c-1.7,1-3.1,1.3-4.2,1-1-.4-1.5-1.3-1.5-3.1s.7-4.3,1.9-6.1c1.3-2,3.1-3.7,5.2-4.8.9-.5,1.8-.9,2.8-1.1.7-.2,1.5-.2,2.2,0v6.7c0,.5,0,.9.3,1,.1.1.5,0,.9-.1.8-.5,1.4-1.3,1.7-2.2.4-1.3.7-2.5.6-3.9,0-1.7-.4-2.9-1.1-3.7-.8-.7-1.9-1.1-3-.9-1.6.2-3.1.8-4.4,1.6-2.8,1.6-5.3,3.7-7.2,6.4-1.7,2.5-2.6,5.5-2.6,8.4s.4,3.2,1.1,4c.8.9,1.9,1.3,3.1,1,1.6-.2,3.1-.8,4.5-1.6,1-.5,1.8-1.2,2.7-1.9.7-.7,1.5-1.3,2.1-2.2l.2-.2h.1l.7,1.3h0c0,.2,0,.4-.2.5-.7.9-1.6,1.8-2.5,2.5-1,.8-2,1.6-3.1,2.2-1.7,1-3.8,1.8-6,2.1l.2.2ZM242.5,203.3c.6-.7,1-1.6,1-2.5v-3.9c-.9,0-1.8.4-2.5.9-1.2.7-2.2,1.6-3.1,2.8-.7,1-1.1,2.3-1.1,3.7s.3,1.7.8,1.9,1.4,0,2.5-.7c.9-.7,1.7-1.4,2.3-2.2h.1Z"/>
    </g>
    <g id="freepik--speech-bubble-2--inject-2">
      <g id="freepik--speech-bubble--inject-22">
        <g id="freepik--speech-bubble--inject-23">
          <path class="st7" d="M309.8,151.2c3.4-1.5,7.3-1.6,10.9-.4l1.6.7c7.4,3.6,10.5,12.5,6.9,19.8-3.1,6.5-10.6,9.8-17.6,7.7l-1.6-.6c-7.5-3.2-11.1-11.9-7.8-19.4,1.4-3.4,4.1-6.2,7.6-7.8h0Z"/>
          <path class="st24" d="M301,171.3c3.7,8.1,13.2,11.7,21.2,8.1,7.1-3.2,10.9-11,9-18.5l3.5-3.5c.4-.4.4-1,0-1.3-.1-.2-.4-.3-.7-.3l-5,.2c-4.9-7.4-14.9-9.4-22.3-4.6-6.5,4.3-9,12.7-5.8,19.9h0ZM309.8,151.2c3.4-1.5,7.3-1.6,10.9-.4l1.6.7c7.4,3.6,10.5,12.5,6.9,19.8-3.1,6.5-10.6,9.8-17.6,7.7l-1.6-.6c-7.5-3.2-11.1-11.9-7.8-19.4,1.4-3.4,4.1-6.2,7.6-7.8h0Z"/>
          <path class="st10" d="M309.8,151.2c3.4-1.5,7.3-1.6,10.9-.4l1.6.7c7.4,3.6,10.5,12.5,6.9,19.8-3.1,6.5-10.6,9.8-17.6,7.7l-1.6-.6c-7.5-3.2-11.1-11.9-7.8-19.4,1.4-3.4,4.1-6.2,7.6-7.8h0Z"/>
        </g>
        <path class="st1" d="M309.8,156.5c.4-.3.7-.6,1.1-.9.4-.3.9-.5,1.3-.7.5-.2,1-.4,1.6-.5s1.2-.1,1.9-.1,1.6.1,2.5.4c.7.2,1.3.6,1.9,1s1,1,1.2,1.6c.3.7.4,1.4.4,2.2s0,1.4-.4,2c-.2.5-.5,1-.8,1.5s-.7.7-1.1,1.1l-1.1.9c-.3.2-.7.5-.9.8-.2.2-.4.5-.4.9l-.4,2.2h-2.6l-.3-2.5c0-.4,0-.9.2-1.3s.4-.7.8-1,.7-.6,1.1-.9c.4-.3.8-.6,1.2-.9.4-.3.7-.7.9-1.1.2-.4.4-1,.4-1.5s-.3-1.3-.8-1.8c-.3-.2-.6-.4-.9-.5-.4-.1-.7-.1-1.1-.1-.9,0-1.8.2-2.5.6s-.5.3-.7.4c-.1.1-.3.1-.5.2-.4,0-.7-.1-.8-.4l-1-1.6h-.2ZM312.8,173.1c0-.3,0-.6.1-.9.2-.6.7-1,1.3-1.3.3-.1.6-.2.9-.1.3,0,.6,0,.9.1s.5.3.7.5c.4.4.7,1,.7,1.6s0,.6-.1.9c-.1.3-.3.5-.5.7s-.4.4-.7.5-.6.1-.9.1-.7,0-.9-.1c-.3-.1-.5-.3-.7-.5s-.4-.4-.4-.7c-.1-.3-.2-.6-.2-.9h-.2Z"/>
      </g>
    </g>
    <g id="freepik--character-4--inject-2">
      <g id="freepik--Character--inject-2">
        <g id="freepik--Chair--inject-2">
          <path class="st5" d="M314.1,263.8l5.8-33.8h3.7c0-.1-7.7,33.8-7.7,33.8h0c0,.1-.1.2-.2.3-.4.2-.9.2-1.3,0-.1,0-.2-.2-.3-.4h0Z"/>
          <path class="st2" d="M369.2,224.4h3.7l8.7,35.1h0c0,.1,0,.3-.3.4-.4.2-.9.2-1.3,0-.1,0-.2-.1-.3-.3h0l-10.5-35.2h0Z"/>
          <path class="st2" d="M343.5,279.8v-37.8c.1,0,3.9-.1,3.9-.1l-2,38h0c0,.1-.1.3-.2.3-.4.2-.9.2-1.3,0-.1,0-.2-.3-.3-.4h-.1Z"/>
          <path class="st5" d="M348.9,212.7h3.7l5.9,37.3h0c0,.1,0,.3-.3.4-.4.2-.9.2-1.3,0-.1,0-.2-.1-.3-.3h0l-7.7-37.4h0Z"/>
          <g id="freepik--chair--inject-2">
            <path class="st1" d="M379.9,183.4c.8,2.1,1.3,4.3,1.5,6.5.4,5-1.3,21.1-2.2,28.4h0c-1.5,12.1-3.3,12.1-5.9,14.1-4.5,3.4-17.5,10.3-21.7,12-7.8,3.1-14-1.6-18.8-4-4.3-2.2-8.5-4.6-12.6-7.4-1.2-.8-1.8-1.7-1.8-2.6v-2.2c0-1.2,1-2.4,3.2-3.8,4-2.6,18.5-11.1,24.1-14.1h0c4.3-2.6,6.9-20.4,9.9-29.9,0-.2.1-.4.2-.6s0-.3.1-.4c.1-.5.4-1,.6-1.4"/>
            <path class="st1" d="M318.4,228.2c0-1.2,1-2.4,3.2-3.8,4-2.6,18.5-11.1,24.1-14.1h0c4.3-2.6,6.9-20.4,9.9-29.9.1-.6.4-1.2.6-1.7,0,0,0,0,0-.1,0,0,0-.2.1-.4s0-.1,0-.2h0c.4-1,1.1-2.1,2-2.8.3-.3.6-.5,1-.7l1.8-1c2.9-1.7,6.8.4,11.6,3,3,1.6,5.5,3.6,7.1,7.2h0c.8,2.1,1.3,4.3,1.5,6.5.4,5-1.3,21.1-2.2,28.4h0c-1.5,12.1-3.3,12.1-5.9,14.1-4.5,3.4-17.5,10.3-21.7,12-7.8,3.1-14-1.6-18.8-4-4.3-2.2-8.5-4.6-12.6-7.4-1.2-.8-1.8-1.7-1.8-2.6v-2.5Z"/>
            <path class="st23" d="M318.4,228.2c0-1.2,1-2.4,3.2-3.8,4-2.6,18.5-11.1,24.1-14.1h0c4.3-2.6,6.9-20.4,9.9-29.9.1-.6.4-1.2.6-1.7,0,0,0,0,0-.1,0,0,0-.2.1-.4s0-.1,0-.2h0c.4-1,1.1-2.1,2-2.8.3-.3.6-.5,1-.7l1.8-1c2.9-1.7,6.8.4,11.6,3,3,1.6,5.5,3.6,7.1,7.2h0c.8,2.1,1.3,4.3,1.5,6.5.4,5-1.3,21.1-2.2,28.4h0c-1.5,12.1-3.3,12.1-5.9,14.1-4.5,3.4-17.5,10.3-21.7,12-7.8,3.1-14-1.6-18.8-4-4.3-2.2-8.5-4.6-12.6-7.4-1.2-.8-1.8-1.7-1.8-2.6v-2.5Z"/>
            <path class="st1" d="M332.6,238.2c-4.3-2.2-8.5-4.6-12.5-7.4-2.7-1.9-2.5-4,1.4-6.4,5.3-3.4,27.1-15.8,27.1-15.8,0,0,27.6,16.3,26.4,19.3s-18.2,12.3-23.6,14.4c-7.8,3-14-1.7-18.8-4h0Z"/>
            <g class="st15">
              <path class="st7" d="M332.6,238.2c-4.3-2.2-8.5-4.6-12.5-7.4-2.7-1.9-2.5-4,1.4-6.4,5.3-3.4,27.1-15.8,27.1-15.8,0,0,27.6,16.3,26.4,19.3s-18.2,12.3-23.6,14.4c-7.8,3-14-1.7-18.8-4h0Z"/>
            </g>
            <path class="st1" d="M359.5,174.3c2.9-1.5,6.7.5,11.4,3.1,3,1.6,5.5,3.6,7.1,7.2l1.9-1.1c-1.6-3.6-4.1-5.5-7.1-7.2-4.8-2.6-8.6-4.7-11.6-3l-1.7.9h0Z"/>
            <path class="st9" d="M359.5,174.3c2.9-1.5,6.7.5,11.4,3.1,3,1.6,5.5,3.6,7.1,7.2l1.9-1.1c-1.6-3.6-4.1-5.5-7.1-7.2-4.8-2.6-8.6-4.7-11.6-3l-1.7.9h0Z"/>
            <path class="st1" d="M345.7,210.2s2.8.9,12.9,5.8c4.1,2,6.8,4,10.7,6.5,5.7,3.6,5.2,6.2,5.2,6.2,2.8-2.3,5.6-29.4,4.9-37.7-.1-2.3-.7-4.6-1.6-6.8l-.2-.4v-.3c-.1,0-.2-.1-.2-.1-.2-.4-.4-.7-.7-1.1v-.2c-.1,0-.4-.2-.4-.2l-.2-.2v-.2c-.4-.4-.8-.7-1.2-1,0,0-.1-.1-.3-.2-.6-.5-1.2-1-1.8-1.3h-.3c0-.1-.4-.4-.4-.4l-.3-.2c-.3-.1-.6-.4-.9-.5-3.6-1.9-6.6-3.7-9.1-3.7s-2.3.4-3.1,1.2c-1.9,1.6-2.8,5.1-2.9,5.3-3.1,9.3-5.7,27.1-9.9,29.7l-.2-.2Z"/>
          </g>
        </g>
        <g id="freepik--character--inject-2">
          <g id="freepik--Bottom--inject-2">
            <path class="st20" d="M325.8,247.6s3.6,7.7,4,10.8c.4,3.2,1.3,4.2,1.1,7.8,0,.7-.3,2.3-.4,3,0,.5.2,1,.7,1h.1c1.5.1,3.6-2.6,4.5-5.6.9-3.4,1.5-6.8,1.9-10.3,0-.8-.2-1.6-.7-2.2-.2-.4-.4-.7-.7-1.1-.6-1.3-1-4-1.6-5.8l-9,2.5h.1Z"/>
            <path class="st5" d="M341,257c.2.3.4.7.4,1,0,.7-1.2,2.9-1.7,3.7-.7,1.1-1,2.5-.7,3.7.1,2.1-.4,4.2-1.7,5.9-1.7,2.4-4,4.2-6.8,5.2-3.4,1.3-4.8-.3-4.8-.3,0,0-1.2-1.6-.6-2.2s15.9-17,15.9-17h0Z"/>
            <path class="st2" d="M336.5,250.8s.3,0,.6.2c0,0,.9,1.6,1.5,2.3s2.1,2.2,2.4,3.4c-.6,2.5-2.8,4.6-3,6.9s0,5.2-3.4,8.4-7.3,3.8-8.7,3.1-1.4-2.1.2-5c1.8-3.1,2.6-9.6,2.6-9.6,0-.9.1-1.8.1-2.7s-.2-1.8-.5-2.6v-1.2c.2-.4.6-.6,1-.7.6-.3,1.2-.6,1.9-.8s1.3-.1,2,0c.4.2.8.4,1.3.7.7.2,1.3,0,1.8-.4s.6-1.1.4-1.7c0,0,0-.2-.1-.4h0Z"/>
            <path class="st32" d="M336.5,269.8c-1.3-1.8-3.4-2.7-5.7-2.5-4,.3-5.2,2.4-5.7,3.6-.6,1.4-1.1,4,.6,4.6,1.9.7,3.9.2,6.9-1.6s3.8-4.1,3.8-4.1h.1Z"/>
            <path class="st32" d="M334.8,258.1h-.4c-.7-.2-4-.7-5.7,1.2-.3-.1-.2-.5,0-1,2.1-1.6,5.2-1.2,6-.8.2,0,.3.3.2.4h0s0,.1-.1.2h0Z"/>
            <path class="st32" d="M328.5,261.6c-.1-.4,0-.7.1-1,1.7-1,3.8-1.2,5.7-.7.1,0,.3.3.2.4h0c0,.1,0,.2-.1.2h-.4c-.6-.2-3.7-.6-5.5,1h0Z"/>
            <path class="st32" d="M327.4,267c0-.5,0-1,.4-1.4,1.8-1,3.9-1.3,5.9-.8.2,0,.3.3.2.4h0s0,.1-.1.1h-.4c-.7-.1-4.3-.6-6,1.6h0Z"/>
            <path class="st32" d="M334,263h-.4c-.6-.2-3.9-.7-5.6,1.1-.1-.4,0-.8.2-1.2,1.7-1,3.8-1.2,5.7-.7.2,0,.3.3.2.4h0c0,.1,0,.2-.1.3h0Z"/>
            <path class="st20" d="M324.8,255.2s-.7,8-1.6,13.6c-.7,4-4,5.6-6.8,8.1-.6.5-2,1.5-2.5,1.9-.4.3-.5.9-.2,1.3,0,0,0,.1.1.1,1,1.2,5.6,2.1,8.4.6s5.8-5.2,7.5-6.6c.7-.5,1.3-1,1.9-1.6s.5-1.1.7-1.8c0-.3.4-1.9.4-1.9.6-1.6,2.1-5.5,2.7-7.3l-10.6-6.5h0Z"/>
            <path class="st5" d="M332.7,276.6c0,.4,0,.7-.2,1.1-.3.6-2.8,1.6-3.7,2-1.3.4-2.3,1.4-2.9,2.7-1.2,1.9-2.9,3.2-5,3.9-2.8,1-5.9,1-8.8.3-3.6-.9-3.4-3.1-3.4-3.1,0,0,0-2,.9-2.2s23.2-4.7,23.2-4.7h-.1Z"/>
            <path class="st2" d="M332.8,268.9s.1.1.2.5c0,.1-.2,1.8-.2,2.8s.4,3.1,0,4.3c-2.1,1.8-5.2,2.1-6.7,4s-3.1,4.3-7.9,4.9-8.1-.8-8.8-2.2.5-2.6,3.1-4.3c3.1-1.9,7.7-6.4,7.7-6.4.4-.4.7-.8,1.1-1.3.6-.8,1-1.9,1-2.9s.1-.9.6-1h.7c1.1,0,2.2.2,3.3.7.5.2,1,.4,1.5.7.4.2,1,.4,1.1.9v.6c0,.7-.2,1.3-.4,1.9v.3c.1.3,1.2-1,1.3-1.1.3-.4.7-.6,1.2-.7.4,0,.7-.4,1-.7l.3-.7v-.3Z"/>
            <path class="st32" d="M321.2,284.5c0-2.2-1.3-4.3-3.2-5.4-3.5-2.1-5.1-.8-6.3,0-1.3.8-3.7,2.5-2.7,4,1.1,1.6,2.8,2.3,6.4,2.6s5.8-1.2,5.8-1.2h0Z"/>
            <path class="st32" d="M326.8,273.9c-.1,0-.2,0-.3-.2-.4-.6-2.9-2.9-5.5-2.4,0-.3.1-.6.7-.8,2.7,0,5.1,2.1,5.5,2.8,0,.1,0,.4-.1.5h-.3Z"/>
            <path class="st32" d="M319.5,273c0-.4.4-.7.7-.8,2,.2,3.9,1.3,5.2,2.8v.5h-.2c-.1,0-.2,0-.3-.2-.4-.5-2.8-2.7-5.2-2.4h-.2Z"/>
            <path class="st32" d="M315.2,276.8c.3-.4.7-.8,1.2-1,2.1.1,4,1.2,5.4,2.8,0,.1,0,.4-.1.5h-.2c-.1,0-.2,0-.3-.2-.4-.6-3.1-3.1-5.9-2.2h-.1Z"/>
            <path class="st32" d="M323.2,277.5c-.1,0-.2,0-.3-.2-.4-.6-2.8-2.8-5.4-2.4.1-.4.5-.7.9-.8,2,.2,3.9,1.3,5.2,2.8,0,.1,0,.4-.1.5h-.3Z"/>
            <path class="st28" d="M342.4,205s-15,8.1-22.1,15.5c-2.5,2.7-4.1,5-1.4,11.8,2.1,5.3,5.2,12.4,8.6,19.2l31.8-38.6-16.9-7.8h0Z"/>
            <path class="st2" d="M327.4,251.5l20.2-32.2h-.7c-3.8-1.7-5.4-6.9-5.4-6.9-.4,2.3.3,4.7,1.6,6.6-2.2,1.6-7,5.2-14.4,10.8-1.3,1-3.7,2.8-3.7,6.4,0,5.2.2,10.7.2,10.7l2.2,4.6h0Z"/>
            <path class="st28" d="M342.4,205h0l31.2,4.6c0,3.7-1,9.9-3.9,14.2-2,3.1-4.3,4.9-12.3,9.1-7.4,3.9-14,7.2-15.7,8.1-1.3.7-1.3,4.1-1.9,7.5-1.3,6.7-5.4,16.9-5.4,16.9-3.7.7-7.5-.3-10.6-2.6,0,0,1.2-15.2,1.9-20.2.7-6,.7-7.5,3.7-10.4,2.5-2.5,17.6-12.9,17.6-12.9,0,0-7.2-7.2-4.6-14.2h0Z"/>
            <path class="st2" d="M369.5,209c-.1,5.2-.8,9-4.6,12.8-2.3-1.6-1.9-3.1-1-5.7.3-.8.6-1.7.8-2.7.4-1.6.7-3.3.8-5h-.4c0,1.6-.4,3.3-.7,4.9-.2,1-.5,1.9-.8,2.7-.9,2.6-1.4,4.4,1.1,6.1-.9.9-1.9,1.7-3,2.5-5.5,4-13.2,8.6-17.9,11.4-1.6,1-2.9,1.7-3.6,2.2-2.7,1.7-2.9,3.2-3,7.7,0,5.7-3.4,14-5,19.7h.4c1.6-5.8,5.1-14.3,5-19.7,0-4.6.4-5.8,2.8-7.3.7-.4,1.9-1.2,3.6-2.2,4.6-2.8,12.4-7.4,17.9-11.4,6.7-4.9,7.8-9.4,8-15.8h-.4v-.2Z"/>
          </g>
          <g id="freepik--Top--inject-2">
            <path class="st26" d="M328.8,199.2c2.2.8,6.1-.4,8.9-3.1,2.8-2.7,11.8-12.6,11.8-12.6l1.1-15.8c-2.2-.2-4.3.4-6.1,1.6-2.6,2.2-10.2,13.7-12.3,16.8s-3.4,13-3.4,13h0Z"/>
            <g id="freepik--Arm--inject-2">
              <path class="st2" d="M350.9,167.8c-3-.4-5.4-.7-9,4.2-3.4,4.4-7.7,11.1-7.7,11.1,0,2.2.9,4.5,2.3,6.2,2.5,3.1,4.6,3.8,4.6,3.8l8.7-9.2,1.1-16.1Z"/>
            </g>
            <path class="st32" d="M369.7,172.3c1.7.9,4.3,4.2,4.9,11.4.4,4.4.8,5.2-.3,18.4-.4,5.2-.4,8.2-1.6,14.9-6.2,2.1-28.2-.3-33-10.8,1.3-2.3,1.5-7.1,1.5-10.1s.2-13,.4-15.8c.7-8.8,4.6-12.3,9.1-12.6,0,0,5.5.7,9,1.3,3.4.7,6.7,1.8,9.9,3.1"/>
            <path class="st24" d="M369.7,172.3c4,2.6,4.6,8.7,5.2,13.1.3,2.9.4,5.8.1,8.7-.6,7.7-.8,15.5-2.2,23.2-6,1.6-12.4.5-18.3-.9-5.8-1.6-12.2-4.3-14.9-9.9,1.4-3.3,1.4-7.1,1.6-10.7.1-3.6.1-7.2.3-10.8,0-6.6,1.1-16.6,9.4-17.2,6.4.8,12.9,1.9,18.8,4.6-3-1.3-6.1-2.2-9.3-3-2.8-.6-6.8-1-9.6-1.4-8.1.7-9.2,10.5-9.2,17s-.1,7.2-.2,10.8c0,3.6,0,7.3-1.5,10.7h0c1.3,2.6,3.7,4.7,6.3,6.2,6.9,4,18.7,6.4,26.5,4.4,1-6.9,1.6-15.4,2.1-22.9.2-2.9.1-5.8-.1-8.7-.4-4.4-.9-10.3-4.9-13.1h0Z"/>
            <g id="freepik--Head--inject-2">
              <path class="st5" d="M361.5,165.4c.4-2.5,2.8-5.2,3.8-7.3s1.6-3.7,1.4-5.7c0-1.2-.9-2.7-1.7-3,.7-2.9-1-5.8-3.9-6.6h-.2c-.8-.1-1.6-.4-2.4-.6-1-.4-1.2-1.1-1.9-1.7-1.3-1-3.5-1-4.3.7-.9-1.1-2.1-1-3.4-.7-1.2.3-1.9,1.4-1.7,2.6-1.1-.7-2.6-.3-3.4.8-.1.2-.2.4-.3.6,0,.7,0,1.4-.4,2.2s-1.6.8-2,.1c-.1,1.1.3,1.9,1.5,1.9-.4.7-.5,1.4-.3,2.1.3.9,1.2,1.5,2.1,1.6,0,1.3.9,2.4,2,2.9,1.9.7,3.9,1.2,5.8,1.4l2.3.4c.1,0,.8,0,.9.1l6.1,8.1h0Z"/>
              <path class="st20" d="M364.5,162.2c-.9.7-2.1.7-2.9,0l.3,8.1c-1.3,3.5-7.2,4.3-9.4,3.3s-1.9-2.2-.6-4.2v-1.3h-3.1c-1.9-.2-3.4-1.7-4-3.9-.7-2.7-.8-5.5-.4-8.3.1-.7.1-1.3,0-2-.1-1.5,0-3,.5-4.4,2.1-1.8,7-2.5,11.7.2-.4,2.8.7,4.9,2.7,5.9,0,.7-.1,2.6,1.1,2.5.9,0,.9-1.1,1.8-2.2s3-1.3,3.8,0c1,2.2.4,4.9-1.5,6.2h0Z"/>
              <path class="st5" d="M356.5,154.2l5.9,1.5c-.4.2-.7.6-.8,1l-5.1-1v-1.4h0Z"/>
              <path class="st2" d="M342.6,153.4c0,.3,0,.6.2.9v.3c0,.8,0,1.6.2,2.4.2,1,1.1,1.9,2.2,1.9h.9c.2,0,.5-.1.7-.2h.1v-.2h.1c.2-.4.4-.7.7-1,.4-.8.4-1.9,1-2.1h.1c.7,0,.5,1.3.9,2.2.4,1.2,1.4,2,2.7,2.1h1.1c.1,0,.3-.1.4-.2h.1c0-.1.2-.2.3-.3.2-.2.4-.5.6-.8.3-.7.5-1.6.7-2.3,0-.1,0-.2.1-.3.2-.2.4-.5.4-.8s-.1-.6-.4-.7h-.4c-1.3-.4-2.7-.4-4-.3-1.3.3-1.8.7-2.5.6s-1-.5-2.2-1c-1.2-.4-2.5-.5-3.7-.5h-.4c-.3,0-.6.3-.6.7l.7-.4ZM351,154.9c.1-.1.2-.2.4-.3h.2c0-.1.1-.1.1-.1.2-.1.4-.1.6-.2h.9c.8,0,1.6.1,2.2.7.3.3,0,1.5-.1,2.1h0v.4h0v.3h0v.2h0v.2c-.4.6-1.1.8-1.9.7-.7,0-1.3-.4-1.8-.9h0c-.3-.4-.4-.8-.4-1.3s0-1.2.2-1.8h-.4ZM343.8,153.7s.2-.1.3-.1h1.9c.7,0,1.4.4,1.9,1,.1.6,0,1.3-.1,1.9,0,.1,0,.3-.1.4h0v.3h0c-.4.8-1.3,1.1-2,.9-.3,0-.7-.1-.9-.3-.6-.5-1-1.3-1-2.1s0-1.8.2-2h-.2Z"/>
              <path class="st26" d="M350.1,156.9l-.8,4.1-3-1.4.4-.5c0-.1.1-.2.2-.4l.3-.4c.3-.5.7-1,1-1.3,0-.1.2-.3.4-.5.3-.4.6-.7.8-1,.6,0,.7.7.7,1.5h0Z"/>
              <path class="st26" d="M350.6,162.8c0,.4.3.8.7.8s.8-.3.8-.7-.3-.8-.7-.8-.8.3-.8.7h0Z"/>
              <path class="st26" d="M351.7,168.1c3.1-.4,5.4-.8,6.9-3.1.7-1.1,1.3-2.4,1.8-3.7-.1,1.6-.6,3.1-1.2,4.6-.7,1.4-2.5,2.8-7.3,3.3l-.2-1.1h0Z"/>
              <path class="st5" d="M351.6,156.5c0,.5.4.9.8.9h0c.5,0,.9-.4.9-.9s-.4-.9-.9-.9-.8.4-.8.9h0Z"/>
              <path class="st5" d="M352.1,152.1l1.9,1c.3-.5,0-1.2-.5-1.5-.4-.2-1.1,0-1.3.5h-.1Z"/>
              <path class="st5" d="M345.5,152.4l2-.7c-.1-.5-.7-.8-1.3-.7h0c-.4.3-.7.9-.6,1.4h-.1Z"/>
              <path class="st5" d="M345.3,155.9c0,.4.4.8,1,.7.4,0,.8-.4.7-1,0-.4-.4-.8-.9-.7-.5,0-.9.5-.8,1h0Z"/>
            </g>
            <g id="freepik--laptop--inject-2">
              <path class="st24" d="M314.2,218.3v.4c0,.6.3,1.1.8,1.4l28.7,16.7c.2.1.5.2.8.2s.6,0,.8-.2l15.8-9c.5-.3.8-.8.8-1.4v-.5h0c0,.1-17.3,10-17.3,10l-30.3-17.7h0Z"/>
              <path class="st5" d="M344.5,236.1v1.1c-.3,0-.6,0-.8-.2l-28.7-16.8c-.5-.3-.8-.8-.8-1.4v-.4l30.3,17.7h0Z"/>
              <path class="st12" d="M361.8,226.2h0v-.2l-29.5-17.3c-.3-.1-.6-.1-.9,0l-17,9.7,30.3,17.7,17.2-9.9h-.1Z"/>
              <path class="st24" d="M331.8,208.6h.4l29.5,17.3h0l-17.2,9.8-30.1-17.6,16.9-9.6h.5M331.7,208.5c-.1,0-.3,0-.4.1l-17.1,9.7,30.3,17.7,17.3-9.9s.1-.2,0-.3h0l-29.5-17.3h-.6Z"/>
              <polygon class="st24" points="344.7 234.6 353.9 229.4 327.1 213.7 317.8 218.9 344.7 234.6"/>
              <polygon class="st24" points="317.8 218.9 318.1 219.2 327.1 214.1 353.6 229.6 353.9 229.4 327.1 213.7 317.8 218.9"/>
              <polygon class="st21" points="317.8 218.9 318.1 219.2 327.1 214.1 353.6 229.6 353.9 229.4 327.1 213.7 317.8 218.9"/>
              <polygon class="st24" points="349.3 219.9 349.1 220 344.6 222.6 336.6 217.9 336.4 217.8 341.1 215.1 349.3 219.9"/>
              <polygon class="st21" points="349.3 219.9 349.1 220 344.6 222.6 336.6 217.9 336.4 217.8 341.1 215.1 349.3 219.9"/>
              <polygon class="st24" points="349.1 220 344.6 222.6 336.6 217.9 341.1 215.3 349.1 220"/>
              <g id="freepik--arm--inject-2">
                <path class="st20" d="M383.1,201.7c-1.8-7.2-3.6-14.1-5.4-19.6-1-3-1.5-7.1-7.9-9.3-4,3.1-2.5,11.5-1.8,13.6l4.3,16.6s-1.1,1.4-4.9,5.2c-3.2,3.2-4.8,4.3-8.5,4.9s-4,.4-6,1.3c-1,.5-3.4,1.6-4.1,2.1s-2.2,1.9-3.4,3,.4,1.6,1.3,1.2c1-.4,2-.9,2.9-1.6.8-.4,1.6-.7,2.5-1-.2,1-.4,1.9-.4,2.9s0,1.2.4,1.6c.4.2.7.4,1.1.4,0,.2,0,.4.2.5.3.1.6.2,1,.2h.5c0,.4.3.6.7.7.7.2,1.6.2,2.3,0,0,0,1-.5,1.2-.7s.7-.3.8-.6-.4-.9-.8-1c-.5,0-1,0-1.4.1.1-.4.3-.8.4-1.3.4-.7,3.3,0,5.8-.7,1.9-.4,3.3-2.2,4.1-2.7,4-2.4,7.7-4.9,11.4-7.8,4.8-3.7,4.9-4.4,4-8.2l-.3.2Z"/>
                <path class="st26" d="M351.4,218.2h.5c.1-.7.4-1.3.7-1.8-.6.2-1,1-1.3,1.8h0ZM353.4,218.3c-.1.5-.3,1-.4,1.6,0,.5-.1,1-.1,1.6v1.6c0-.5,0-1,.1-1.6,0-.5.1-1,.2-1.6,0-.5.1-1,.3-1.5,0-.2.1-.5.3-.7,0-.2.2-.4.4-.7-.4.4-.7.8-.9,1.3h.1ZM354.9,220.5c0,.5-.1,1-.1,1.6v1.6c0-1,.2-2,.4-3.1,0-.5.1-1,.3-1.5,0-.2.1-.5.2-.7,0-.2.1-.4.3-.7-.4.4-.6.8-.7,1.3-.2.4-.3,1-.4,1.5h0ZM358.1,222.1c-.2,0-.4,0-.6.1h-.1v.2h0v.4c0,.1-.1.3-.2.4.3,0,.4-.3.6-.5h0c.1-.2.3-.3.5-.4.2,0,.4,0,.7-.1-.2-.1-.5-.2-.7-.1h-.2Z"/>
                <path class="st2" d="M369.7,172.3c3.4,1.3,6,2.2,7.5,6.9,1.9,5.7,4.1,14.4,4.1,14.4,0,0-1,2.2-5.1,3.3s-6,0-6,0c0,0-2.1-7.2-2.9-10.2s-2.2-11.7,2.3-14.3h.1Z"/>
              </g>
              <path class="st5" d="M344.1,236.4c-.5.2-1.2.1-1.6-.1l-28.6-16.7c-.5-.3-.8-.8-1-1.3l-3.1-18.8v-.3c0-.5.2-1,.6-1.4l29.7,17.3c.4.2.6.6.7,1l3.3,20.3Z"/>
              <path class="st28" d="M344.5,236.1h-.2c0,.1-.1.1-.3.2l-3.3-20.2c0-.4-.3-.8-.7-1l-29.7-17.3c.1-.1.2-.2.4-.3l29.7,17.4c.4.2.6.6.7,1l3.4,20.2h0Z"/>
              <path class="st2" d="M340.5,215.4l.4-.3c.1.1.2.4.3.6l3.3,20.3h-.2c0,.1-.1.1-.3.2l-3.3-20.2c0-.2,0-.4-.2-.6h0Z"/>
              <path class="st1" d="M328,218.9c-.4-1.6-1.5-2.9-2.8-3.7-1.4-.8-2.3-.4-2.2.8.4,1.6,1.5,2.9,2.8,3.7,1.4.8,2.4.4,2.2-.8Z"/>
            </g>
            <g id="freepik--arm--inject-21">
              <path class="st20" d="M328.1,198.8c-.8-1-1.9-3.4-1.1-7.3.5-2.5,2.8-4.7,5.4-7.5,3.2-3.6,5.2-5.2,5.2-8.7s-.3-3.1.5-4.9c.4-1,1.4-3.2,1.8-4s1.7-2.1,2.6-3.4,1.5.3,1.2,1.2c-.3,1-.7,1.9-1.3,2.8-.4.7-.7,1.6-.9,2.4.9-.2,1.8-.4,2.8-.5.5,0,1.1-.1,1.5.3.2.3.4.7.4,1,.1,0,.4,0,.4.2.1.2.3.6.2.9v.5c.3,0,.6.2.7.6.2.7.2,1.4,0,2.2,0,0-.4.9-.6,1.1,0,.3-.3.6-.5.8-.3.1-.9-.3-.9-.7v-1.3c-.4.1-.7.3-1.2.4-.6.4.3,1.3-.1,3.7-.3,1.8-1.9,2.9-2.3,3.7-2.7,4.7-3.3,9.6-6.4,13.4-1.3,1.3-5.9,5-7.4,3.1h0Z"/>
              <path class="st26" d="M339.9,170.1c.4-.3,1-.6,1.5-.7,0-.1,0-.3.1-.4-.7.3-1.5.7-1.6,1.2h0ZM340.5,171.6c.1-.1.4-.3.6-.4.2,0,.4-.2.7-.3.4-.1.9-.2,1.4-.3.4,0,1-.1,1.4-.2.4,0,1-.1,1.4-.1h-1.5c-.5,0-1,0-1.5.2-.5,0-1,.2-1.4.4-.4.1-.8.4-1.1.8h0ZM342.4,172.4c-.4.1-.9.4-1.3.7.1-.1.4-.3.6-.3s.4-.1.7-.2c.4-.1.9-.2,1.4-.3.9-.2,1.9-.4,2.8-.5h-1.5c-.4,0-1,.1-1.4.2-.4,0-.9.2-1.3.4h0ZM345.6,175.7v-.6c0-.1.1-.3.1-.4h.1s.1,0,.2-.1c.1,0,.2-.2.3-.4-.1,0-.2.1-.4.2h-.4c0,.3,0,.5-.1.7v.6h.2Z"/>
            </g>
          </g>
        </g>
      </g>
    </g>
    <g id="freepik--character-3--inject-2">
      <g id="freepik--character--inject-21">
        <g id="freepik--Legs--inject-2">
          <path class="st5" d="M358.9,361.4c-.6,1.7-3.6,1.4-6.8,1.5-2.5,0-5.5-.4-7.2.4s-1.9,2.8.7,5.1c3.4,2.8,7.8,2.5,10.3,2.8s4,1.1,6.3,1c2.9,0,4.6-1.1,5.1-1.9s0-7.1-1.3-6.8c0,0,.1-.2-4.2-.4-3.1,0-3-1.7-3-1.7h.1Z"/>
          <path class="st17" d="M366,363.8l.7-5.9s0-.5-3.6-.6c-1.7,0-3.7-1.5-3.9-.1s-.3,4.2-.3,4.2c-.6,1.7-3.6,1.4-6.8,1.5h-1.6c-1.7.1-3.3,1.4-1.3,2.6s4.9,1.3,7.7,1.4c3.1,0,9,.2,9-3.1h0Z"/>
          <path class="st2" d="M358,324.2c-.3,6.4.6,36.2.6,36.2,0,0,3,1.5,7.9-.2l3.3-32.5-11.8-3.5Z"/>
          <path class="st5" d="M343.6,368.8c-.6,1.7-5.2,2.5-8.3,2.7-2.5.1-5.5-.2-7.2.7s-1.9,2.9.9,5.1c3.4,2.7,9.5,1.3,12,1.4s4,.7,6,.7c2.9,0,4-1.1,4.3-1.9s.7-7.1-.5-6.7c0,0,.1-.2-4.2-.2s-3.1-1.6-3.1-1.6v-.2Z"/>
          <path class="st17" d="M350.9,371l2.3-9.3c-1.3,1.7-3.3,2.8-5.5,2.8s-3.7-1.3-3.9,0-.1,2.6-.3,3.9-4,2.5-7.4,2.8c-.5,0-1.9.2-2.4.2h0c-1.9.1-3.8,1.7-1.9,2.8s7.2,0,10,0,9,0,9-3.4v.2Z"/>
          <path class="st28" d="M345.3,335.7c-.7,6.6-1.5,25.2-1.6,30.4,0,0,4.3,1.8,8.4.5,0,0,5.8-18.7,5.3-25.7-.1-3.4-12.1-5.2-12.1-5.2h0Z"/>
        </g>
        <path class="st5" d="M413.7,388.8l-4.7-39.5-3.9-.2,6.7,39.7h0c0,.1.1.3.2.4.4.2,1,.3,1.4,0,.1,0,.3-.1.3-.4h0Z"/>
        <path class="st2" d="M360.7,345.7h-3.9l-5.6,37.3h0c0,.1,0,.4.3.4.4.2,1,.2,1.3,0,.1,0,.2-.1.3-.3h0l7.5-37.4h.1Z"/>
        <path class="st5" d="M356.8,345.7l-1.6,10.4c.9.7,1.9,1.3,3,1.8l2.5-12.3h-3.9Z"/>
        <path class="st2" d="M387.8,402l-3.7-40.1-3.9-.2,5.5,40.4h0c0,.1.1.3.2.4.4.2,1,.3,1.4,0,.2,0,.4-.2.4-.4h.1Z"/>
        <path class="st5" d="M384.8,367.7l-.5-5.9-3.9-.2.9,6.4c1.1.3,2.3.2,3.5-.2h0Z"/>
        <path class="st5" d="M381.9,333.4h-3.9l-5.6,37.3h0c0,.1,0,.4.3.4.4.2,1,.2,1.4,0,.1,0,.2-.2.3-.4h0l7.5-37.4h0Z"/>
        <path class="st1" d="M354.4,345c-.5-3.1,1.9-5.5,6.7-8.6,4.3-2.8,8.9-5.4,13.6-7.6,3.9-1.8,7.9-1.6,12.9,1,6.9,3.6,27.9,16.3,27.9,16.3,0,0-31.3,17.7-37.4,16.9s-21.1-10.6-22.3-14-1.5-3.9-1.5-3.9h0Z"/>
        <g class="st4">
          <path class="st7" d="M354.4,345c-.5-3.1,1.9-5.5,6.7-8.6,4.3-2.8,8.9-5.4,13.6-7.6,3.9-1.8,7.9-1.6,12.9,1,6.9,3.6,27.9,16.3,27.9,16.3,0,0-31.3,17.7-37.4,16.9s-21.1-10.6-22.3-14-1.5-3.9-1.5-3.9h0Z"/>
        </g>
        <path class="st1" d="M381.2,359.2c-4.5,4.1-9.2.6-16.7-4.3-8.4-5.5-10.1-9.9-10.1-9.9,0,0,0,3.4.6,4.9s2,3.4,8.1,7.5c6.1,4.2,10.5,6.3,14.6,7.1l3.2-.4"/>
        <path class="st11" d="M364.5,354.9c-8.4-5.5-10.1-9.9-10.1-9.9,0,0,0,3.4.6,4.9s2,3.4,8.1,7.5c6.1,4.2,10.5,6.3,14.6,7.1l3.2-.4.2-4.9c-4.4,4-9.1.5-16.6-4.3h0Z"/>
        <path class="st2" d="M405.9,332.1s-26.3-7.9-30.9-9.2-13.4-3.4-15.9-2.2-3.9,2.5-4.1,6.2v4.1s12.7,4,23.2,4,27.7-2.8,27.7-2.8h0Z"/>
        <path class="st28" d="M407.8,329.5c1.6,5.6,2.5,12.5-1.4,16.6-2.8,3-10.2,9.8-25.9,9.1-7.1-.3-27-14.2-27-14.2,0,0-7.5-1.2-7.5-3.8s-.7-.8-.6-1.5c1.1-5.8,4.7-8.6,9.8-8.2,8.4.7,27.3,6,27.3,6l25.5-4h-.2Z"/>
        <polygon class="st17" points="377.4 284.3 380 295.7 389.6 293.7 386.3 281 377.4 284.3"/>
        <path class="st17" d="M391.3,286.7c1.5-.4,4.9-.7,6.9.4s3.7,3.3,5.4,9c1.3,4.4,4.3,16.1,3.7,20s-14.1,6.2-14.1,6.2l-1.9-35.6Z"/>
        <path class="st12" d="M405.5,321.5c-1.8-3-3.2-6.3-4.1-9.6-1.3-8.1,1.6-11.8-1.5-19.6-1.4-3.6-5.9-6.2-9.6-5.3-1,.2-1.3.2-2.3.4.7,1.9-6.3,3.9-9.4,2.2-1.3.4-7.8,3.3-7.8,3.3-1.3,2.7-2.2,5.8-2.8,11.7-.3,2.4.7,5,2,7.2,3.4,6.1,4.9,13,4,19.9v.6s5.8,6.5,20.2,3.9c12.8-2.3,13.2-10.8,13.2-10.8-.4-1.3-1-2.5-1.6-3.8h-.3Z"/>
        <path class="st17" d="M361.2,321.6c.4-4.8,1.5-11.1,2.5-18.1.9-6.9,2.6-8.7,7.1-10.6,6.5,4,4.3,16.9,4.3,16.9,0,0-1.6,8.5-3.4,15.1-.7,2.9-2.4,7.8-6.9,7.2-3.5-.4-4.1-5.2-3.6-10.5Z"/>
        <path class="st18" d="M369.8,273.1s-2.3,3.7-2,4,2,.6,2,.6v-4.6Z"/>
        <path class="st17" d="M375.8,262.6c-2,1.2-5.5,3.4-6,11-.5,7.8.7,10.5,1.8,11.5.7.7,5.9.8,7.3.3,2.4-.7,7.2-4.2,9.5-8.3,2.6-4.9,2.9-11.3-.6-13.5-4.9-3.2-10.3-1.9-12-1h0Z"/>
        <path class="st19" d="M382.5,285.5c-1.1-.3-2.2-.8-3-1.6-1-.8-2.5-4.3-2.4-5.2,0,0,1.4,1,3.1-.7s1.9-4.9-.6-5.7c-1.7-.5-3,.9-3.7,2.2,0,.2-.2.4-.5.5-.4,0-.7-.3-.8-.7-.1-.4-.3-.8-.6-1.2-.6-.5-.9-1.3-1-2,0-.7,0-1.3.1-1.9-.8.7-1.4,1.6-1.8,2.5-.6-1.2-.5-2.5,0-3.7-.8,1-1.4,2.1-1.7,3.3-.7-.6-1-1.4-1.2-2.3-.3-2.4.5-4.8,2.2-6.5s3.8-2.9,6.1-3.6c2.2-.7,4.5-1,6.8-.8,4.9.3,7.5,2.7,8.3,3.6.7,1,1.1,2.2,1.2,3.3,2.9,1.5,3,5.2,2.3,8-.6,2.5-2.2,4.7-3.8,6.6-.8,1-1.7,1.9-2.5,3-.4.4-.7,1-1.1,1.6-.4.8-.8,1.6-.8,1.6-1.4.2-3.1.1-4.8-.2h.2Z"/>
        <path class="st18" d="M377.7,285.7l-.3-1.2c-1,.3-2.1.5-3.1.5-2.2.1-3-.3-3-.3,0,.1.2.2.3.4.7.5,4.1.8,6.1.6Z"/>
        <path class="st1" d="M381,364.1c2.5-.1,4.6-2,10.7-4.6,11.2-4.7,19.7-8.4,22.9-14.3,3.1-5.9,5.5-32.3,4.7-39.7,0-.8-.3-1.6-.5-2.5h.8l-2-1.8h0c-2.1-1.7-5.5-.1-8.1,1.2-7.4,4-13.2,7.9-17.6,22-3.4,10.5-5.7,29.7-10.4,34.8"/>
        <path class="st11" d="M418.6,303.1h.8l-2-1.8h0c-2.1-1.7-5.5-.1-8.1,1.2-7.4,4-13.2,7.9-17.6,22-3.4,10.5-5.7,29.7-10.4,34.8l-.2,4.9c2.5-.1,4.6-2,10.7-4.6,11.2-4.7,19.7-8.4,22.9-14.3,3.1-5.9,5.5-32.3,4.7-39.7-.3-.9-.4-1.7-.7-2.5h0Z"/>
        <path class="st1" d="M411.2,303.4c-7.4,4-14.3,8.4-18.2,22.8-3.9,14.3-6.4,35.9-15.3,38.3,0,0,4,1.6,16.5-3.7,4-1.6,8.7-4.7,11.9-6.5,6.2-3.4,9.9-6.3,10.5-7.4,3.3-5.9,5.5-32.3,4.7-39.7s-6.5-5.9-10.2-3.9h.1Z"/>
        <g class="st13">
          <path class="st7" d="M411.2,303.4c-7.4,4-14.3,8.4-18.2,22.8-3.9,14.3-6.4,35.9-15.3,38.3,0,0,4,1.6,16.5-3.7,4-1.6,8.7-4.7,11.9-6.5,6.2-3.4,9.9-6.3,10.5-7.4,3.3-5.9,5.5-32.3,4.7-39.7s-6.5-5.9-10.2-3.9h.1Z"/>
        </g>
      </g>
    </g>
    <g id="freepik--character-2--inject-2">
      <g id="freepik--character--inject-22">
        <g id="freepik--legs--inject-2">
          <path class="st31" d="M300.3,396.6l1.4-5.2s-.4.4-3.4-.3c-1.1-.3-2.2-.8-3.2-1.3l-.8,3.7c-.8,1.4-3.4.7-6.3.4-.4,0-1-.1-1.5-.2h0c-1.6,0-3.1.8-1.5,2.2s4.3,1.8,6.7,2.2c2.9.5,8.1,1.4,8.6-1.5h0Z"/>
          <path class="st5" d="M279.9,396.1c-.2.5-.3,1-.2,1.6,0,.6,1.5,2.5,4,3.7s5.5,1.3,7,1.6,2.8,1.3,4.5,1.6,3.4.6,5.1-.5c.3-.5.5-1.1.6-1.7-.4-.1-20.9-6.3-20.9-6.3h-.1Z"/>
          <path class="st2" d="M293.8,393.9c-1.1.7-3.4.2-5.8,0-2.3-.3-4.9-1-6.5-.5s-2.9,2.4-.7,4.8c.8,1,1.8,1.7,2.9,2.2,2.6,1,5,1,6.7,1.4,2.2.5,3.4,1.5,5.5,1.8,2.6.3,4.3-.4,4.8-1s.9-6.4-.2-6.3c0,0-.4,1.9-4.8,0-1.9-.8-1.9-1.9-1.8-2.4h-.1Z"/>
          <path class="st32" d="M286.5,397s.2-2.4,2-3.1c.3-.1.7,0,1,.1,0,0-1.6.2-2.2,3.1,0,0,0,.1-.4.1,0,0-.4-.1-.4-.3h0Z"/>
          <path class="st32" d="M291.1,394.2h-.4c-.1-.1-.3-.1-.4-.1,0,0-1.3.6-1.6,3.1,0,.2.2.4.4.4s.4,0,.4-.2h0s.3-2.6,1.6-3.1h0Z"/>
          <path class="st32" d="M292.5,394.3s0-.1-.4-.1-.4.1-.4.1c-.7.9-1,1.9-1,3.1,0,0,0,.4.4.4s.4-.4.4-.4c0,0,0-2.6.9-3.1h.1Z"/>
          <path class="st1" d="M301,362.9c-1.6,6.9-6.7,27.8-6.7,27.8,0,0,3.7,3.4,7.8,1.8,4.3-11.4,12-19.1,12-27.5l-13-2.1h0Z"/>
          <path class="st14" d="M301,362.9c-1.6,6.9-6.7,27.8-6.7,27.8,0,0,3.7,3.4,7.8,1.8,4.3-11.4,12-19.1,12-27.5l-13-2.1h0Z"/>
          <path class="st31" d="M285.6,403.8c.4-.7,2.1-5.2,2.1-5.2,0,0-1.7,1-4.7.3-1.1-.4-2.2-1.1-2.9-2l-1.3,4.4c-.7,1.5-3.1,1-6.1.7-.4,0-1,0-1.5-.1h0c-1.6,0-3.1.9-1.4,2.2s4.3,1.7,6.7,2.1c2.9.4,7.4.1,9-2.3h0Z"/>
          <path class="st5" d="M263.3,403.7c-.2.5-.3,1.1-.1,1.7,0,.6,1.6,2.6,4.3,3.8s6,1.2,7.5,1.6,3,1.3,4.9,1.6,3.7.6,5.5-.7c.3-.6.5-1.2.6-1.9-.4-.3-22.6-6.3-22.6-6.3v.2Z"/>
          <path class="st2" d="M278.3,400.9c-.1.1-.4.2-.5.4-.2,0-.4.1-.6.1h-1.4c-1.2,0-2.4-.2-3.6-.4-2.5-.2-5.3-1-6.9-.4s-3.2,2.6-.8,5.2c.9,1,1.9,1.8,3.1,2.4,2.8,1.2,5.7,1,7.5,1.3,2.4.5,3.7,1.6,5.9,1.7,2.8.3,4.6-.5,5.1-1.3.3-.4,0-2.6.3-4.4.3-1.5.2-2.5-.3-2.5-.1.2-.2.4-.4.5-.1.2-.4.4-.6.5-.4.1-.7.3-1,.4-.7.2-1.3.3-1.9.3s-.4,0-.5-.1-.3-.4-.3-.7,0-.4-.1-.7c0-.1,0-.2-.1-.4s-.2-.2-.4-.3c-.4-.1-.8-.4-1.1-.8-.1-.3-.3-.7-.3-1s0-.1,0-.1h-.7l-.4.3Z"/>
          <path class="st32" d="M270.5,404.4s.2-2.6,2.1-3.3c.4-.1.7-.1,1,0,0,0-1.8.3-2.2,3.4,0,0,0,.2-.4.1-.1,0-.4,0-.4-.3h-.1Z"/>
          <path class="st32" d="M275.3,401.3h-.4c-.1-.1-.4-.1-.5-.1,0,0-1.4.7-1.6,3.4,0,.2.2.4.4.4s.4,0,.5-.2h0s.1-2.8,1.6-3.4h0Z"/>
          <path class="st32" d="M276.8,401.4s0-.1-.4-.1-.5.1-.5.1c-.7,1-1,2.1-1,3.3,0,0,0,.4.5.4s.4-.4.4-.4c0,0,.1-2.8,1-3.3Z"/>
          <path class="st1" d="M287,369.5c-1.7,5.2-6.1,20.1-8,27.8,0,0,3.6,3.2,8.1,2.9,2.4-5.7,13.5-21.6,12.2-28.4-.8-4.3-5.5-3.1-5.5-3.1l-6.8.7h0Z"/>
          <path class="st23" d="M287,369.5c-1.7,5.2-6.1,20.1-8,27.8,0,0,3.6,3.2,8.1,2.9,2.4-5.7,13.5-21.6,12.2-28.4-.8-4.3-5.5-3.1-5.5-3.1l-6.8.7h0Z"/>
          <path class="st23" d="M298.3,378.1c-1.6-1.1-5.2-3.4-5.6-4.5,0,0,.5,3.6,5,6.1l.6-1.6Z"/>
        </g>
        <path class="st5" d="M356.5,422.2l-4.7-39.5-3.9-.2,6.7,39.7h0c0,.1.1.3.3.4.4.2.9.3,1.3,0,.1,0,.3-.3.3-.4h0Z"/>
        <path class="st2" d="M303.5,379.1h-3.9l-5.6,37.3h0c0,.1.1.4.3.4.4.2,1,.2,1.4,0,.1,0,.2-.2.3-.4h0l7.5-37.4h0Z"/>
        <path class="st5" d="M299.6,379.1l-1.6,10.4c.9.7,1.9,1.3,3,1.8l2.5-12.3h-3.9Z"/>
        <path class="st2" d="M330.6,435.4l-3.7-40.1-3.9-.2,5.5,40.4h0c0,.1.1.3.3.4.4.2.9.3,1.3,0,.2,0,.4-.2.4-.4h.1Z"/>
        <path class="st5" d="M327.5,401.2l-.5-5.9-3.9-.2.9,6.4c1.2.3,2.4.1,3.5-.2h0Z"/>
        <path class="st5" d="M324.6,366.8h-3.9l-5.7,37.4h0c0,.1.1.4.3.4.4.2,1,.2,1.4,0,.1,0,.2-.2.3-.4h0l7.5-37.4h.1Z"/>
        <path class="st1" d="M297.2,378.4c-.5-3.1,1.9-5.5,6.7-8.6,4.3-2.8,8.9-5.4,13.5-7.6,3.9-1.8,7.9-1.6,12.9,1,6.9,3.6,27.9,16.3,27.9,16.3,0,0-31.3,17.7-37.4,16.9s-21.1-10.6-22.3-14-1.4-3.9-1.4-3.9h0Z"/>
        <g class="st4">
          <path class="st7" d="M297.2,378.4c-.5-3.1,1.9-5.5,6.7-8.6,4.3-2.8,8.9-5.4,13.5-7.6,3.9-1.8,7.9-1.6,12.9,1,6.9,3.6,27.9,16.3,27.9,16.3,0,0-31.3,17.7-37.4,16.9s-21.1-10.6-22.3-14-1.4-3.9-1.4-3.9h0Z"/>
        </g>
        <path class="st1" d="M324,392.6c-4.5,4.1-9.2.6-16.7-4.3-8.4-5.5-10.1-9.9-10.1-9.9,0,0,0,3.4.6,4.9s2,3.4,8.1,7.5c6.1,4.2,10.5,6.3,14.6,7l3.2-.4"/>
        <path class="st11" d="M307.3,388.3c-8.4-5.5-10.1-9.9-10.1-9.9,0,0,0,3.4.6,4.9s2,3.4,8.1,7.5,10.5,6.3,14.6,7l3.2-.4.2-4.9c-4.5,4-9.1.5-16.6-4.3h0Z"/>
        <g id="freepik--top--inject-2">
          <path class="st1" d="M346.5,362.3c-5.8-.6-22.4-4.8-26.5-5.5-7.8-1.3-11.7-1.5-13.9-.8s-4.1,3.2-4.9,5.8c-.8,3.1-1.2,4.8-1.2,4.8,0,0,17,6,25.6,7s20.8-11.4,20.8-11.4h.1Z"/>
          <path class="st14" d="M346.5,362.3c-5.8-.6-22.4-4.8-26.5-5.5-7.8-1.3-11.7-1.5-13.9-.8s-4.1,3.2-4.9,5.8c-.8,3.1-1.2,4.8-1.2,4.8,0,0,17,6,25.6,7s20.8-11.4,20.8-11.4h.1Z"/>
          <path class="st1" d="M346.5,362.3c.3,8.2,0,15.8-3.9,20-2.7,2.8-16,10-24.6,7.2-8.5-2.8-26.1-15.8-27.8-17.2s-3.4-2.2-3.2-2.8c2.4-7.8,5.8-8.5,12.3-7.1,7.8,1.7,25.1,8.7,25.1,8.7l22.1-8.9h0Z"/>
          <path class="st23" d="M346.5,362.3c.3,8.2,0,15.8-3.9,20-2.7,2.8-16,10-24.6,7.2-8.5-2.8-26.1-15.8-27.8-17.2s-3.4-2.2-3.2-2.8c2.4-7.8,5.8-8.5,12.3-7.1,7.8,1.7,25.1,8.7,25.1,8.7l22.1-8.9h0Z"/>
          <g id="freepik--character--inject-23">
            <path class="st2" d="M344.3,324.8c4.6-.7,8.7.6,9.9,5.5.9,3.6-4.3,14.6-6.9,21.1,0,0-10.3-.4-11.2-8l8.2-18.6Z"/>
            <path class="st27" d="M325.2,308.2s-3.4,4.2-3.2,4.6c.7.5,1.4.9,2.2,1.3l1-5.8h0Z"/>
            <path class="st31" d="M327.5,300.8c-1.9.6-2.5,2.2-2.8,5.2-.1,1.3.4,3.2,0,4.5-1.2,3.7-.4,9.9.6,11.1.7.8,4.9,2.1,7,1.7,2.6-.4,8.5-2.3,11.6-6,3.7-4.3,5.1-10.6,1.9-13.5-4.6-4.1-16.4-3.6-18.3-2.9h0Z"/>
            <path class="st31" d="M342.3,323.4l-.2-3.4-10.5,1.9.2,2.3c.1,1.3.2,2.7-.7,3.1-1.6.9-4.1,2.3-5.9,3.4,0,0,7.5.9,13.3,0s4.9-5.8,4.9-5.8c-.1,0-1,0-1.1-1.5h0Z"/>
            <path class="st27" d="M325.4,321.7c1.9,1.1,4.2,1.7,6.4,1.6v-1.5c-1.3.2-2.6.4-3.8.4s-1.8-.2-2.6-.5Z"/>
            <path class="st0" d="M324,301.5c-.3.4-.4.9-.5,1.3,0,.8.3,1.6,1,2.2.7.4,1.6.4,2.3-.2-.2.8,0,1.7.6,2.4.6.6,1.6.7,2.3.2-.2.4-.4,1,0,1.3,0,0,.2.1.3.1h1c-.4.4-.5.9-.4,1.4,0,.1.9,1.2.9,1.1,0,0,1-2.9,3.6-2.3s2.5,3.9.7,5.8-3.2.9-3.2.9c0,.5,0,3.4,2.2,5,1.4,1,5.2,1.2,7.2,0,.7-1.3,1.9-3,2.9-4.5,3.1-4.9,4.2-7.9,3.7-10.8-.4-1.9-1.2-3-2.6-3.4,0-1.9-.7-3.7-2.2-4.9-3-2.6-6.5-2.8-9.3-2.7-.9,0-1.9.1-2.8,0-.8,0-1.6-.4-2.3-.6-.8-.2-1.6,0-2.2.5-.5.7-.7,1.6-.4,2.4-.7,0-1.3.2-1.9.5-.6.4-1,.9-1,1.6s.3,1.3.9,1.6c-.3.4-.5.6-.7.9v.2Z"/>
            <path class="st12" d="M349.8,357.8c-.4,2-.8,4.1-1.1,6.1-.4,2.7-1,5.2-1.6,7.9,0,.2,0,.4-.2.6s-.4.3-.5.4c-2.6,1.3-5.4,2.4-8.1,3.3-3.1.7-6.4,1-9.6.9-5.9-.5-9.7-2.5-14-6.7,1-2.3,1.6-3.3,2.4-5.8.7-2.8,1-4.3,1.6-9.3,1.5-14.3,3.3-22.7,6.9-25.5,3.5-1.6,4-1.9,5.8-2.5.8.4,2.9,1,6.4.7,4.2-.4,6-2.7,6-3.3h.7c1,.2,2.1.7,3.1,1.2s3.5,1.6,4.5,6.4c1.9,10.5-1.1,19.6-2.2,25.6h0Z"/>
            <path class="st24" d="M344.3,325c1,.3,2,.7,3,1.3h.2c1.1.7,3.3,1.9,4.2,6.2,1.7,8.4,0,16.1-1.3,21.8-.3,1.3-.6,2.4-.7,3.5l-.2,1.2c-.3,1.6-.7,3.3-.9,4.9-.4,2.6-1,5.2-1.5,7.8h0c0,.3,0,.4-.1.6-.1.1-.3.2-.4.3-2.6,1.3-5.4,2.4-8.1,3.3-2.7.6-5.5,1-8.2,1s-.9,0-1.3,0c-5.5-.4-9.3-2.2-13.7-6.5.3-.6.5-1.1.7-1.6.7-1.3,1.2-2.6,1.6-4,.7-2.8,1-4.3,1.6-9.3,1.3-13.1,3.1-22.3,6.8-25.3l1.9-.8c1.9-.8,2.4-1.1,3.7-1.6,1.5.6,3.1.8,4.7.8h1.6c4-.4,5.8-2.3,6.1-3.3h.4M344.3,324.8h-.7c0,.7-1.7,3-6,3.4h-1.6c-1.6,0-3.2-.2-4.7-.8-1.8.6-2.2.9-5.8,2.5-3.7,2.8-5.5,11.2-6.9,25.5-.5,5-.7,6.6-1.6,9.3-.7,2.5-1.3,3.4-2.4,5.8,4.3,4.1,8.1,6.2,14,6.7h1.3c2.8,0,5.5-.3,8.3-1,2.8-.9,5.5-1.9,8.1-3.3.2,0,.4-.2.5-.4,0-.1.1-.4.2-.6.6-2.7,1.1-5.2,1.6-7.9.3-2,.7-4.1,1.1-6.1,1.2-6.1,4.3-15.1,2.1-25.4-1-4.8-3.5-5.8-4.5-6.4-.8-.7-1.8-1.1-2.9-1.4h-.1Z"/>
            <path class="st31" d="M305.4,367c-4.3-1.4-6.2-6.1-7.6-11.1-.4-1.6-.9-3.1-1.5-4.6s-1.4-3.2-1.9-4.9c-.3-.9-.5-1.8-.7-2.7-.5-2.1-.2-4.5,0-6.7,0-.5,0-1.1.1-1.6.1-.6.3-1.2.6-1.7.2-.4.6-.9,1-.7.3,0,.5.4.6.7,0,.3.1.6.3.9.9,1.4,2.3-.4,3.1-1s1.2-1,1.7-.8c1.3.6,3.8,5.3,3.7,7.7s-1.6,6.2-1,8.4,4.9,9.3,4.9,9.3l-3.1,8.8h-.2Z"/>
            <g id="freepik--Mobile--inject-2">
              <path class="st2" d="M310.1,344.2l-5.5-19.4c0-.4-.4-.7-.8-.7-.4-.1-.8-.1-1.2,0l-9.3,5.4c-.4.2-.5.6-.4,1l5.5,19.4c.1.3.4.6.8.7s.8.1,1.3,0l9.3-5.4c.3-.2.5-.6.4-1h0Z"/>
              <path class="st5" d="M309.5,344.4l-9.6,5.5-5.5-19.4-1.5-.5v.6l5.5,19.4c.1.3.4.6.8.7s.8.1,1.3,0l9.3-5.4c.2-.1.4-.3.5-.6h0l-.6-.2h-.2Z"/>
              <path class="st28" d="M303.8,324.8l-9.3,5.4c-.3.1-.4.4-.3.7l5.5,19.2c0,.3.4.4.7.4h.2l9-5.2c.3-.1.4-.5.4-.8l-5.5-19.4c0-.2-.3-.4-.5-.3h-.2Z"/>
              <path d="M304.2,325.9l5.1,17.9c0,.3,0,.6-.4.7l-8.4,4.9c-.1.1-.4,0-.6,0h0c0-.1-5.2-18.1-5.2-18.1,0-.2,0-.5.2-.7h0c0-.1,2.4-1.4,2.4-1.4h.1c0-.1.1,0,.1,0h0q0,.1.2.1l2.8-1.6s.1-.1.1-.2v-.2h0l2.3-1.3h0c.2-.2.5-.1.7,0h0c0,.1.6,0,.6,0Z"/>
              <path class="st32" d="M308,344.2c.2-.1.4-.4.4-.7l-5-17.7-2.2,1.3h0v.2c0,.1,0,.2-.1.2l-2.8,1.6h-.5l-2.4,1.4h0c-.1.2-.3.5-.2.8l5,17.7,8.2-4.7h-.4Z"/>
              <path class="st5" d="M298.3,328.3l1.3-.7h.1v.2l-1.3.7h-.1v-.2Z"/>
              <path class="st5" d="M300.2,327.1h.1v.3h-.2s0-.1.1-.2h0Z"/>
              <path class="st28" d="M294.4,332.8c0-.1-.2-.3-.4-.4h-.4v.2l.4,1.6c0,.1.2.3.4.4h.3v-.2l-.4-1.6h.1Z"/>
              <path class="st2" d="M294.3,332.9l.4,1.6c0,.1,0,.2-.2.1-.1,0-.3-.2-.4-.4l-.4-1.6c0-.1,0-.2.2-.1.1,0,.3.2.4.4Z"/>
              <path class="st28" d="M295.3,335.6c0-.1-.2-.3-.4-.4h-.4v.2l.4,1.6c0,.1.2.3.4.4h.3v-.2l-.4-1.6h.1Z"/>
              <path class="st2" d="M295,335.7l.4,1.6c0,.1,0,.2-.2.1-.1,0-.3-.2-.4-.4l-.4-1.6c0-.1,0-.2.2-.1.1,0,.3.2.4.4Z"/>
            </g>
            <path class="st31" d="M295.7,342.3c.2-.3.4-.7.6-1,.8-1.3,1.8-2.5,2.8-3.7,1-1.3,1.6,0,1.6,1.1.1,2.3-1.6,4-1.9,6.2,0,.6,0,1.2-.1,1.7-.2,1.3-.6,2.5-1,3.7,0,.4-.3.7-.7.7s-.6-.6-.7-.9c-.4-.7-.6-1.5-.8-2.2-.3-1-.4-1.9-.4-2.9s.4-1.9.9-2.7h-.3Z"/>
            <path class="st5" d="M305.5,354.4c2.2-4,6.1-10,9.9-16.4,3.7-6.1,5.6-6.5,10.2-8.3,6.6,7.9-2.4,22.1-2.4,22.1,0,0-7.4,9.1-10.5,12.7-2.1,2.3-6,4.3-8.4,1.6s-.9-7.8,1.3-11.8h-.1Z"/>
          </g>
        </g>
        <path class="st1" d="M323.7,397.5c2.5-.1,4.6-2,10.7-4.6,11.2-4.7,19.7-8.4,22.9-14.3s5.5-32.3,4.7-39.7c0-.8-.2-1.6-.5-2.5h.8l-2.1-1.8h0c-2.1-1.7-5.5-.1-8.1,1.2-7.4,4-13.2,7.9-17.6,22-3.4,10.5-5.7,29.6-10.4,34.7"/>
        <path class="st11" d="M361.4,336.5h.8l-2.1-1.8h0c-2.1-1.7-5.5-.1-8.1,1.2-7.4,4-13.2,7.9-17.6,22-3.4,10.5-5.7,29.6-10.4,34.7l-.2,4.9c2.5-.1,4.6-2,10.7-4.6,11.2-4.7,19.7-8.4,22.9-14.3s5.5-32.3,4.7-39.7c-.2-.8-.4-1.6-.7-2.4h0Z"/>
        <path class="st1" d="M353.9,336.8c-7.4,4-14.3,8.4-18.2,22.8-3.9,14.3-6.4,35.9-15.3,38.3,0,0,4,1.6,16.5-3.7,4-1.6,8.7-4.7,11.9-6.5,6.2-3.4,9.9-6.3,10.5-7.4,3.3-5.9,5.5-32.3,4.7-39.7s-6.4-5.9-10.2-3.9h.1Z"/>
        <g class="st13">
          <path class="st7" d="M353.9,336.8c-7.4,4-14.3,8.4-18.2,22.8-3.9,14.3-6.4,35.9-15.3,38.3,0,0,4,1.6,16.5-3.7,4-1.6,8.7-4.7,11.9-6.5,6.2-3.4,9.9-6.3,10.5-7.4,3.3-5.9,5.5-32.3,4.7-39.7s-6.4-5.9-10.2-3.9h.1Z"/>
        </g>
      </g>
    </g>
  </g>
  <g id="freepik--Character--inject-25">
    <g id="freepik--character--inject-25">
      <g id="freepik--Bottom--inject-25">
        <g id="freepik--bottom--inject-25">
          <path class="st2" d="M165.7,306.5l-4.5,2.6h-.2c0,.1-10.8,6.4-10.8,6.4l-2.4,1.4-7.8,4.5-.7.4-13.5,7.8c.3-5.2.7-12.6,1-21.3,0-2,.3-3.8.5-5.5.9-5.3,2.6-9.5,4.5-13,1.2-2.3,2.5-4.3,3.5-6l13,.4,12,.4h2.9c0,0,.1,0,.1,0,.2,1,.4,2.1.5,3.2,0,0,0,0,0,.1,0,.2,0,.5.1.8h0c.7,4.8,1.2,10.2,1.5,15.6,0,.8,0,1.5.1,2.3Z"/>
          <path class="st5" d="M150.2,304.8l-2.4,12.1,2.4-1.4,1.9-9.3c2.4-.5,8.5-4.4,9-8.2-3.3,5-10.9,6.8-10.9,6.8ZM139.2,321.8l.7-.4c.3-3.4.6-6.9.9-10.3-.6,3.6-1.1,7.1-1.6,10.7ZM160.8,306.6v2.7c0,0,.3-.1.3-.1-.1-.8-.2-1.7-.3-2.5Z"/>
        </g>
      </g>
      <g id="freepik--Top--inject-25">
        <path class="st6" d="M137.3,226.8c-3.9,1.3-4.8,5.1-4.9,11.6,0,2.5,0,4.8-2.2,6.5-1.2.9-2.5,1.6-3.5,2.7-1.6,1.8-1.8,4.9,0,6.6-1.4.5-2.3,1.8-2.5,3.3-.1,1.5.3,2.9,1.1,4.1,1.7,2.4,5.1,3.4,8,2.9.7,1.9,2.7,3.2,4.8,3.3s4.1-.6,5.8-1.8c1.1,2.1,3.8,2.8,5.9,2.4,2.2-.3,4.2-1.6,5.4-3.4,0-.1.2-.3.3-.3.1,0,.2,0,.3,0,1.5,0,2.9,0,4.2-.7,1.2-.5,2.2-1.4,3-2.4.5-.8.8-1.6.8-2.6,0-.8,0-1.5-.4-2.2,1.3-1,1.4-3.8,1-5.4s-1.4-2.9-2.5-4-2.3-2.2-3.2-3.5c-.8-1.1-1.1-2.4-1-3.7,0-.8-.3-2.2.2-2.9,0,0,2.4-2.9,2.3-6,0-4.5-3.2-8.3-7.5-9.3-4.8-1.3-13.5-.9-15.5,5Z"/>
        <g id="freepik--Arm--inject-25">
          <path class="st31" d="M185.9,265.4c.8-1,1.5-2.1,2-3.2,1.3-3,2.4-3.5,5-5.4l1.3-1c.2-.1.4-.3.6-.5.2-.2.3-.3.6-.1.2.1.3.3.4.5.2.7,0,1.5-.4,2.1-.4.6-.9,1.2-1.4,1.7-.4.4.3.5.6.5,1.5,0,3.5-1.4,4.7-2.3.8-.5,1.5-1.2,2.4-1.7.5-.3,1.2-.4,1.8-.3.4,0,.8.3.6.8-.1.3-.3.6-.5.8-.4.5-.8,1-.8,1.6,0,.4,0,.9,0,1.3-.1.5-.5,1-.7,1.5.2.2.2.7-.1,1.2-.9,1.3-2,2.4-3.2,3.4-1.3,1-2.8,1.7-4.4,2.2-1.4.4-2.7,1.2-3.6,2.3-1.4,1.6-2.7,3.5-5.7,7.3-4.2,5.4-5.7,7.7-8.5,8.6-2.1.6-3.7-.9-7.9-4.4-4.3-3.7-8.3-7.7-12-12l3.3-16.6c2.6,1.4,4.6,4.7,7.5,9.3,5.4,8.5,7.6,11.4,7.6,11.4,0,0,9.8-7.6,10.9-8.9Z"/>
          <path class="st27" d="M193.2,260.6c0,3.6-1.8,5.2-2.9,6.2,0,0,2-.6,2.8-2.3.6-1.2.7-2.7.1-3.9Z"/>
          <path class="st12" d="M180.3,269.9l1.8-1.5c.2,1.5.8,3,1.6,4.4.8,1.3,2,2.4,3.3,3l-1.6,2c-1.3-.6-2.5-1.5-3.5-2.6-1.4-1.7-1.6-5.3-1.6-5.3Z"/>
          <path class="st1" d="M155.8,252.5c6.9,1,8.8,5,10.6,7.9,2.6,4.1,8.5,13,8.5,13l6-4.2c0,1.6.5,3.1,1.4,4.4,1,1.4,2.3,2.6,3.7,3.4,0,0-4.2,5.6-6.6,8.1s-3.8,3.2-8,.3c-5.1-3.6-15.9-15.3-15.9-15.3v-17.6Z"/>
          <path class="st22" d="M175,273.4c-1.2,1-2.4,3.6-2.7,5.3-.1-1.8.6-4.6,2.2-6l.5.8Z"/>
        </g>
        <path id="freepik--Chest--inject-25" class="st32" d="M131.8,289.8c.3-2.5,2.1-2.9,1.2-8.9-.4-3-1.9-10.7-1.9-10.7,0,0,5.1-4,3.5-15.5l5.3-2.5,3.3-.8,8.4.3,4.3,1.2c1.5,1.3,4.2,3.3,6.4,6.4,3.1,4.4,3.7,9.3.5,13,0,.7,0,11.7.9,14.4.3,1.1.8,2.5,0,3.9-3.1,5.1-21.4,10.2-31.9-.8Z"/>
        <path class="st1" d="M151.5,251.8l4.3.6c4.1,3.1,9.1,8.8,9.3,13.1.2,2.6-.5,5.1-1.9,7.3,0,0,0,8.8,1,13.5s2.1,17.1,2.1,17.1c0,0,0,.8-3.3,1.7-1.1-6-3.7-27.9-3.5-33.2s.2-13.6-7.9-20.2Z"/>
        <path class="st23" d="M151.5,251.8l4.3.6c4.1,3.1,9.1,8.8,9.3,13.1.2,2.6-.5,5.1-1.9,7.3,0,0,0,8.8,1,13.5s2.1,17.1,2.1,17.1c0,0,0,.8-3.3,1.7-1.1-6-3.7-27.9-3.5-33.2s.2-13.6-7.9-20.2Z"/>
        <path class="st16" d="M160,274.5c.3-1.4.7-2.8,1.1-4.2s.7-2.8,1.1-4.2c.2-.7.3-1.4.4-2.1.1-.7-.4-1.2-.8-1.7-1-1-2.1-1.9-3.3-2.7h-.1c0,0,0-.2,0-.2.1-.8.1-1.5,0-2.3-.1-.8-.4-1.5-.8-2.1-.4-.6-1-1.2-1.6-1.7-.6-.5-1.3-.9-2-1.2.7.3,1.5.6,2.1,1.1.7.4,1.3,1,1.7,1.6.4.7.8,1.4.9,2.2.2.8.2,1.6,0,2.4v-.2c1.2.8,2.3,1.7,3.3,2.7.3.3.5.6.7.9,0,0,0,.2.1.3,0,0,0,.2,0,.3,0,.2,0,.4,0,.6,0,.7-.2,1.4-.4,2.1-.4,1.4-.8,2.8-1.2,4.1s-.9,2.7-1.3,4.1Z"/>
        <path class="st1" d="M139.9,252.3s1.8,2,4.2,7.5c2.4,5.5,4.7,10.5,4.7,15.5s-1.7,31.3-1.7,31.3c0,0-7.3,1.1-13.9-1.6l.5-10.2-2.5,9.7s-3.2-1.1-4.3-2.2c1.7-10.6,5.6-15.6,5.7-19.5.1-2.7-2.1-10.1-2.6-16.8-.2-3.9,0-7.9.8-11.7l9-2.1Z"/>
        <path class="st23" d="M139.9,252.3s1.8,2,4.2,7.5c2.4,5.5,4.7,10.5,4.7,15.5s-1.7,31.3-1.7,31.3c0,0-7.3,1.1-13.9-1.6l.5-10.2-2.5,9.7s-3.2-1.1-4.3-2.2c1.7-10.6,5.6-15.6,5.7-19.5.1-2.7-2.1-10.1-2.6-16.8-.2-3.9,0-7.9.8-11.7l9-2.1Z"/>
        <path class="st16" d="M147.7,276.8c-.5-1.3-1.1-2.5-2-3.5-.8-1.1-1.7-2.1-2.6-3.1-.4-.5-.9-1-1.4-1.5l-.7-.7c-.1-.1-.2-.2-.4-.4,0,0,0,0,0-.1,0,0,0-.1,0-.2,0-.1,0-.2,0-.3.1-.7.4-1.4.7-2,.3-.6.7-1.2,1-1.8v.3s-2-2.1-2-2.1l-1-1.1-.3-.3h-.1c0-.2-.1-.3-.2-.3,0-.2,0-.3,0-.5,0-.1,0-.3,0-.4.2-1,.4-2,.7-2.9.3-1,.6-1.9,1-2.8-.2,1-.5,1.9-.7,2.9-.2.9-.4,1.9-.5,2.9,0,.2,0,.4,0,.6,0,0,0,0,0,0h.1c0,.1.3.4.3.4l1.1,1.1,2.1,2.1h.2c0,.1-.1.3-.1.3-.3.6-.7,1.2-1,1.7-.3.6-.5,1.2-.7,1.8,0,0,0,.1,0,.2,0,0,0,0,0,0,0,0,0,0,0,0,0,.1.2.2.3.4l.7.8c.5.5.9,1,1.4,1.5.9,1,1.7,2.1,2.5,3.2.4.6.8,1.1,1.1,1.7.3.6.5,1.3.7,1.9Z"/>
        <g id="freepik--arm--inject-25">
          <path class="st31" d="M92.2,261.7c-1-.6-1.8-1.3-3-2.1s-2.2-1.1-2.7-.6.2,1.4,1.7,2.6c2.4,2,4.2,3.4,4,3.7-1.4,0-1.8.2-1.8,1.2,0,.7.8,1.2.8,1.2-.5,0-.8.5-.8,1,0,.5.3.9.8,1.2,0,0-.6.1-.4.9.1.6.5,1.2,1.1,1.5v-.6c.3,0,.5,0,.8,0,.3,0,1.1.1,1.6.3s1.2.4,1.7,0c.3-.3.4-.7.2-1.1,0,0,0,0,0,0-.2-.2-.4-.3-.6-.4,0,0,.9.2,1.2-.5s-.3-1.1-.6-1.4c.4-.3.8-.6.6-1s-1.4-1.2-1.4-1.2l.5-1.2s.5-1-.2-1.5c-1.2-.8-2-1.3-3.1-2Z"/>
          <path class="st31" d="M122.8,279.4c-.2-.3-.5-.6-.8-.9-2.8-2.5-6.5-3.6-9.9-5.2-2.2-1-4.4-2.2-6.5-3.3-2.6-1.3-3-1.4-4-3.1-.5-.9-1.1-1.7-1.7-2.6-.3-.4-.6-.8-1-1.1-.5-.4-1-.6-1.6-.6-.5,0-.9,0-1.4,0-.4,0-.7,0-1.1.2-.3.1-.6.3-.8.5-.3.3-.6.6-.8,1v2.6c.4.2.8.2,1.2,0,.2-.1.4-.4.5-.6,0,0,1.2.7,1.3,1.1s0,.7-.6.8c.4.3,1,.9.8,1.4s-1.2.6-1.2.6c0,0,1.1.9.9,1.2s-4.5-1.1-4.5-1.1v1.6c1.2.5,4.9,2.2,7.1,2.6.8.1,2.2.9,4.2,2.4,2.3,1.7,4.1,3.7,6.3,5.5,2.1,1.7,4.4,2.9,6.9,3.7.5.2,1.1.3,1.7.3.6,0,1.2-.2,1.7-.6,1.2-.7,2.5-2.4,3.3-3.4,1-1.4.8-2-.1-3.3Z"/>
          <path class="st27" d="M96.1,268.5c.1,0,.3-.1.4-.3.3,1,.8,2,1.6,2.8-.6-1-1-2.2-1.3-3.4-.2-.9-.1-1.9,0-2.8,0,0-.9.4-1.4.3,0,0-.1,0-.1,0-.2.5-.4,1-.6,1.5-.2.4-.6.5-1,.3-.2-.1-.2-2.7-.2-2.7l.6-.9s0,0-.1.1c0,0,0,0-.1.1,0,0,0,0,0,0-.3.3-.4.4-.5.6-.2.3,0,2.2,0,2.7,0,.5,1.2.7,1.7-.3,0,0,0,0,0,0h0c.4.2.7.5,1,.8.1.2.3.5,0,.7,0,.1-.2.2-.4.2-.1,0-.2,0-.3,0-.1,0-.2,0-.3,0,0,0,0,0,0,0,.1,0,.3.2.4.2.4.2.9.8.6,1.2-.1.2-.4.4-.7.4h-.6s0,0,0,0c0,0,0,0,0,0,.3.1.6.3.9.6,0,0,0,0,0,0,0,0,0,0,0,0,0,0,0,0,0,0,0,.1.1.3.1.5,0,0,0,.1-.1.2h0c-.1.2-.4.3-.5.3h-.1q0,0,0,0s0,0,.1,0h0s0,0,0,0c.4,0,.7-.3.8-.8,0-.4-.2-.7-.5-.9.4,0,.7-.2.9-.5.4-.7,0-1.1-.6-1.4ZM95.6,265.4c.2,0,.4,0,.5,0,0,.4,0,.8,0,1.2,0,0,0,0,0,0-.1,0-.2,0-.3,0-.2,0-.4,0-.6-.1.4-.8.5-1,.5-1Z"/>
          <path class="st12" d="M109.1,271.7l-2.9-1.5s-1.3.5-2.8,3.2c-.7,1.1-1,2.4-1.1,3.7l3.2,2.6,3.6-7.9Z"/>
          <path class="st1" d="M115.1,274.2c2.3-3.6,6.3-9.8,8.8-13.4,3.3-4.6,3.8-5.7,8.4-6.7,3.4,9.1,1,15.3-.3,17s-5.8,8.3-7.9,11.1-3.9,4.6-5.8,4.9-4.1-.7-7.2-2.7c-2.4-1.6-7.2-6-7.2-6,.2-1.9,1-3.7,2.1-5.2.6-.8,1.3-1.5,2.2-2.1l7,3.1Z"/>
          <path class="st22" d="M115.1,274.2c1,.4,3.8,2.5,4.3,4.1.1-1.7-2.3-4.1-3.6-5.1l-.7,1Z"/>
        </g>
        <g id="freepik--Head--inject-25">
          <path class="st31" d="M136,237.7c.8-1,2.6-1.4,3.4,0,.5.8.7,2.2,1.5,2,.5-.1.7-.7.5-1.8,0,0,.6-.3.7-.4.6-.5.5-1.3.7-2,.2-.8.8-1.3,1.2-2,.6-1.1.3-2.4.1-3.6-.1-.5-.2-1.1.2-1.4.3-.2.7-.3,1-.3,1.2,0,2.3.3,3.4.6,1.1.3,2.3.3,3.4,0,.5-.2.9-.5,1.3-.7.4-.3.9-.4,1.4-.3.4.1.8.3,1.1.7,1.5,1.4,2,3.7,2.4,5.6.2,1.5.3,3,.2,4.5.1,6.4-1,8-2.3,9.1-1.1,1-2.9,1.4-5,1.4v3.6s3.1,5.7,1.6,9c0,0-4.9-2-7.8-4.5-3.6-3-4.2-4.8-4.2-4.8v-9.7s-1.6,2.2-3.8.5c-1.9-1.4-2.3-4-1-5.5Z"/>
          <path class="st27" d="M151.2,249c-4,0-7.9-1.7-9.3-5.3,0,0,.1,2.4,1.7,3.9,3,2.9,7.7,2.7,7.7,2.7v-1.3Z"/>
          <path class="st5" d="M146.7,236.1c0,.5.3,1,.9,1.1.5,0,1-.3,1.1-.9,0-.5-.3-1-.9-1.1h0c-.5,0-1,.3-1.1.9Z"/>
          <path class="st5" d="M154.4,236.5c.2.5.7.8,1.2.6.5-.2.8-.7.6-1.2-.2-.5-.7-.8-1.2-.6,0,0,0,0,0,0-.5.2-.8.7-.6,1.2Z"/>
          <path class="st5" d="M148.5,232l-2.4.9c-.2-.7,0-1.4.7-1.7.6-.3,1.4,0,1.6.7,0,0,0,0,0,0Z"/>
          <path class="st5" d="M154.1,232.2l2.5.4c0-.7-.4-1.4-1.1-1.5-.7-.1-1.3.3-1.4,1,0,0,0,0,0,0Z"/>
          <path class="st3" d="M152.8,242.6l-3.5-1c-.3,1,.3,2,1.3,2.3,1,.3,1.9-.3,2.2-1.2,0,0,0,0,0,0Z"/>
          <path class="st27" d="M151.7,243.9c-.2-1-1.2-1.7-2.2-1.6,0,0-.2,0-.3,0,0,.8.6,1.4,1.3,1.6.4.1.8,0,1.1,0Z"/>
          <path class="st5" d="M144.9,234.1l-6.2,2.9c.4.2.7.5.8.9l5.7-2.7-.3-1.1Z"/>
          <path class="st2" d="M158.9,233.3h-.4c-.1,0-.2,0-.4,0-1.2,0-2.7,0-3.5.3-1.3.4-1.7.9-2.4.9-.7,0-1.2-.4-2.6-.7-1.1-.3-2.9-.2-4.2,0h-.4c-.2.1-.4.3-.5.5,0,0,0,.2,0,.2,0,.3.2.6.4.8,0,0,0,0,0,0,0,0,.1.2.1.3.1.6.2,1.7.5,2.3.1.3.3.6.5.8,0,0,.2.2.3.2h.1c.2.2.3.3.5.3h0s.1,0,.1,0h.1c.1,0,.3,0,.4,0h.4c1.3,0,2.5-.7,3-1.9,0-.2.2-.4.2-.6.2-.7.3-1.4.8-1.5,0,0,0,0,0,0,0,0,0,0,0,0h.1c.3,0,.4.3.5.7h0c.1.4.2,1,.4,1.4.1.3.3.6.6.9h.1c0,.1,0,.2,0,.2h0c0,0,0,.1,0,.1h0s0,0,0,0h0c.2.1.5.2.7.3h0c.1,0,.2,0,.3,0,.2,0,.4,0,.6,0,.6,0,1.2-.2,1.7-.6.3-.3.6-.7.8-1.1,0,0,0-.1,0-.2h0c.1-.4.2-.8.3-1.2h0c0-.3.1-.6.1-1,0-.1,0-.2.1-.3.2-.2.3-.5.3-.9,0-.3-.2-.6-.5-.7ZM150.6,236.9h0c0,.5-.3.9-.6,1.3-.5.5-1.2.8-1.8.8h0c-.7,0-1.5-.3-1.9-.9h0c0,0,0-.2,0-.2h0c0,0,0-.2,0-.2,0,0,0,0,0,0h0c0,0,0-.1,0-.2,0,0,0-.2,0-.3h0c0-.2,0-.3,0-.4,0,0,0,0,0,0h0c-.1-.7-.3-1.9,0-2.1.3-.3,1.1-.6,2.4-.5h.1c.2,0,.4,0,.6,0h.2c.2,0,.4.1.6.2h.2c0,0,.2.2.2.2h.1c.1.1.3.2.4.3.3.4.2,1.2,0,1.9ZM157,238.4c-.3.2-.6.2-1,.3-.4,0-.9,0-1.2-.2-.3-.2-.5-.4-.7-.7h0c0,0,0,0,0-.1h0c0,0,0,0,0-.1,0,0,0,0,0-.1h0v-.2c0-.2,0-.3-.1-.5-.1-.7-.2-1.5,0-1.9.2-.4,1.2-.8,2.1-.9.2,0,.4,0,.6,0h.7c.1,0,.2,0,.3,0h.4c.1.1.2.2.3.2.3.3.1,1.5,0,2.2h0c0,.5-.3,1.6-1.2,2.1Z"/>
          <path class="st27" d="M151.3,237l1.2,3.8,3.1-1.5c-.1-.2-3-3.6-3.2-3.8-.2,0-.5,0-.6.2-.2.4-.4.8-.4,1.3Z"/>
        </g>
      </g>
    </g>
  </g>
</svg>