<?xml version="1.0" encoding="UTF-8"?>
<svg id="Layer_1" xmlns="http://www.w3.org/2000/svg" version="1.1" viewBox="0 0 500 500">
  <!-- Generator: Adobe Illustrator 29.1.0, SVG Export Plug-In . SVG Version: 2.1.0 Build 142)  -->
  <defs>
    <style>
      .st0 {
        fill: #393035;
      }

      .st1 {
        fill: #004a99;
      }

      .st2 {
        fill: #ebb376;
      }

      .st3 {
        fill: #892b29;
      }

      .st4, .st5 {
        opacity: .6;
      }

      .st6 {
        fill: #263238;
      }

      .st7, .st5, .st8, .st9, .st10, .st11, .st12, .st13, .st14 {
        fill: #fff;
      }

      .st5, .st8, .st9, .st10, .st11, .st15, .st16, .st17, .st12, .st13, .st14 {
        isolation: isolate;
      }

      .st18 {
        fill: #d08245;
      }

      .st8, .st15 {
        opacity: .4;
      }

      .st19 {
        fill: #a30c15;
      }

      .st20 {
        fill: #e0e0e0;
      }

      .st21 {
        fill: #e4897b;
      }

      .st9 {
        stroke: #2e3192;
        stroke-miterlimit: 10;
      }

      .st10 {
        opacity: .5;
      }

      .st11 {
        opacity: .7;
      }

      .st22 {
        fill: #e6ae76;
      }

      .st16 {
        opacity: .3;
      }

      .st17, .st12 {
        opacity: .2;
      }

      .st23 {
        fill: #ebebeb;
      }

      .st24 {
        fill: #b36616;
      }

      .st25 {
        fill: #de5753;
      }

      .st26 {
        fill: #f5f5f5;
      }

      .st27 {
        fill: #fafafa;
      }

      .st13 {
        opacity: .8;
      }

      .st28 {
        fill: #d58745;
      }

      .st29 {
        fill: #9f5b53;
      }

      .st30 {
        fill: #e6e6e6;
      }

      .st14 {
        opacity: .1;
      }
    </style>
  </defs>
  <g id="freepik--background-complete--inject-29">
    <path class="st26" d="M390.4,103.5h85.2l-13.8,10v19.7c0,2.3-1.8,4.2-4.2,4.2h-67.2c-2.3,0-4.2-1.8-4.2-4.2h0v-25.6c0-2.3,1.8-4.2,4.2-4.2h0Z"/>
    <path class="st20" d="M393.9,117.4s12.9.1,28.7.1,28.7,0,28.7-.1-12.9-.1-28.7-.1-28.7,0-28.7.1Z"/>
    <path class="st20" d="M393.9,124.9s12.9.1,28.7.1,28.7,0,28.7-.1-12.9-.1-28.7-.1-28.7,0-28.7.1Z"/>
    <rect class="st20" x="257" y="30.8" width="3.9" height="13.3"/>
    <rect class="st20" x="223.7" y="28.9" width="3.9" height="15.3"/>
    <rect class="st20" x="232.1" y="25.6" width="3.9" height="18.5"/>
    <rect class="st20" x="240.4" y="26.6" width="3.9" height="17.4"/>
    <rect class="st20" x="248.6" y="20.8" width="3.9" height="23.4"/>
    <rect class="st20" x="265.3" y="20.9" width="3.9" height="23.2"/>
    <rect class="st20" x="273.7" y="28.5" width="3.9" height="15.6"/>
    <rect class="st20" x="282" y="21.8" width="3.9" height="22.3"/>
    <rect class="st20" x="290.3" y="16.8" width="3.9" height="27.2"/>
    <rect class="st20" x="298.6" y="21.8" width="3.9" height="22.3"/>
    <path class="st23" d="M407.6,42.9l33-5c2.7,18.2-9.7,35.3-27.9,38-18.2,2.7-35.3-9.7-38-27.9-2.7-18.2,9.7-35.3,27.9-38,2.9-.5,5.8-.5,8.7-.2,0,0-3.7,33.1-3.7,33.1Z"/>
    <path class="st20" d="M418.4,9.8l-4.1,25.5,25.1-4.8s-3.7-14.3-21.1-20.9h0Z"/>
    <path class="st26" d="M154.6,10.3H62.9l14.9,10.7v21.2c0,2.4,2,4.4,4.4,4.4h72.4c2.5,0,4.4-2,4.4-4.4h0V14.7c0-2.5-2-4.4-4.4-4.4h0Z"/>
    <path class="st20" d="M150.8,25.3s-13.8.1-30.9.1-30.9,0-30.9-.1,13.8-.1,30.9-.1,30.9,0,30.9.1Z"/>
    <path class="st20" d="M150.8,33.4s-13.8.1-30.9.1-30.9,0-30.9-.1,13.8-.1,30.9-.1,30.9,0,30.9.1Z"/>
  </g>
  <g id="freepik--background-complete--inject-206">
    <rect class="st26" x="287.7" y="324.5" width="180.1" height="147.9"/>
    <polygon class="st23" points="287.7 327.4 475.1 327.4 441.7 283.8 287.7 283.8 287.7 327.4"/>
    <path class="st30" d="M422.7,428.2c0-8.2,6.7-14.9,14.9-14.9s14.9,6.7,14.9,14.9v36.8h-29.9v-36.8h.1Z"/>
    <path class="st30" d="M370.1,428.2c0-8.2,6.7-14.9,14.9-14.9s14.9,6.7,14.9,14.9v36.8h-29.9v-36.8h.1Z"/>
    <path class="st30" d="M317.4,428.2c-.2-8.2,6.3-15.1,14.5-15.4,8.2-.2,15.1,6.3,15.4,14.5v37.7h-29.9v-36.8h0Z"/>
    <path class="st30" d="M422.7,348.1c0-8.2,6.7-14.9,14.9-14.9s14.9,6.7,14.9,14.9v36.8h-29.9v-36.8h.1Z"/>
    <path class="st30" d="M370.1,348.1c0-8.2,6.7-14.9,14.9-14.9s14.9,6.7,14.9,14.9v36.8h-29.9v-36.8h.1Z"/>
    <path class="st30" d="M317.4,348.1c-.2-8.2,6.3-15.1,14.5-15.4,8.2-.2,15.1,6.3,15.4,14.5v37.7h-29.9v-36.8h0Z"/>
    <rect class="st30" x="294.9" y="390.5" width="180.2" height="8.5"/>
    <rect class="st26" x="34.9" y="324.5" width="180.1" height="147.9"/>
    <polygon class="st23" points="215 327.4 27.6 327.4 61 283.8 215 283.8 215 327.4"/>
    <path class="st30" d="M80.1,428.2c0-8.2-6.7-14.9-14.9-14.9s-14.9,6.7-14.9,14.9v36.8h29.9v-36.8h-.1Z"/>
    <path class="st30" d="M132.7,428.2c0-8.2-6.7-14.9-14.9-14.9s-14.9,6.7-14.9,14.9h0v36.9h29.9v-36.8h-.1Z"/>
    <path class="st30" d="M185.2,428.2c.2-8.2-6.3-15.1-14.5-15.4-8.2-.2-15.1,6.3-15.4,14.5v37.7h29.9v-36.8h0Z"/>
    <path class="st30" d="M80.1,348.1c0-8.2-6.7-14.9-14.9-14.9s-14.9,6.7-14.9,14.9v36.8h29.9v-36.8h-.1Z"/>
    <path class="st30" d="M132.7,348.1c0-8.2-6.7-14.9-14.9-14.9s-14.9,6.7-14.9,14.9h0v36.9h29.9v-36.8h-.1Z"/>
    <path class="st30" d="M185.2,348.1c.2-8.2-6.3-15.1-14.5-15.4-8.2-.2-15.1,6.3-15.4,14.5v37.7h29.9v-36.8h0Z"/>
    <rect class="st30" x="27.6" y="390.5" width="180.2" height="8.5"/>
    <rect class="st26" x="195.6" y="341.3" width="112.2" height="131.1"/>
    <polygon class="st26" points="293.8 337.3 209.5 337.3 209.5 238.8 251.6 201.9 293.8 238.8 293.8 337.3"/>
    <path class="st30" d="M278.2,406.8c-.4-14.7-12.4-26.3-27.1-26-14.2.2-25.7,11.8-26,26v65.6h53.2v-65.6h-.1Z"/>
    <rect class="st30" x="190.7" y="333.5" width="121.8" height="8.5"/>
    <circle class="st30" cx="251.5" cy="251" r="25.5"/>
    <path class="st27" d="M252.6,256.5h-4.3l.6-24.4c0-.8.7-1.4,1.5-1.4h0c.8,0,1.4.6,1.5,1.4l.7,24.4h-.1Z"/>
    <path class="st27" d="M248.3,256.5v-4.3l17.3.6c.6,0,1.1.7,1.1,1.5h0c0,.8-.5,1.4-1.1,1.5l-17.3.6Z"/>
  </g>
  <g id="freepik--Test--inject-3" class="st4">
    <rect class="st1" x="71.4" y="43.3" width="267.7" height="253.5"/>
    <rect class="st11" x="71.4" y="43.3" width="267.7" height="253.5"/>
    <rect class="st1" x="71.4" y="43.3" width="267.7" height="12.9"/>
    <rect class="st17" x="330.3" y="56.2" width="8.8" height="240.8"/>
    <path class="st5" d="M334.4,61.9h.8c1.2,0,2.3,1,2.3,2.3v29.1c0,1.2-1,2.3-2.3,2.3h-.8c-1.2,0-2.3-1-2.3-2.3v-29.1c0-1.3,1-2.3,2.3-2.3Z"/>
    <path class="st17" d="M324.4,222.6H77c-.4,0-.7-.4-.7-.7s.4-.7.7-.7h247.4c.4,0,.7.4.7.7s-.4.7-.7.7Z"/>
    <path class="st17" d="M324.4,164.7H77c-.4,0-.7-.4-.7-.7s.4-.7.7-.7h247.4c.4,0,.7.4.7.7s-.4.7-.7.7Z"/>
    <rect class="st1" x="77" y="61.9" width="247.4" height="37.8"/>
    <path class="st5" d="M336.1,49.7c0,1.8-1.4,3.2-3.2,3.2s-3.2-1.4-3.2-3.2,1.4-3.2,3.2-3.2,3.2,1.4,3.2,3.2h0Z"/>
    <path class="st5" d="M324.7,49.7c0,1.8-1.4,3.2-3.2,3.2s-3.2-1.4-3.2-3.2,1.4-3.2,3.2-3.2,3.2,1.4,3.2,3.2h0Z"/>
    <path class="st5" d="M313.2,49.7c0,1.8-1.4,3.2-3.2,3.2s-3.2-1.4-3.2-3.2,1.4-3.2,3.2-3.2,3.2,1.4,3.2,3.2h0Z"/>
    <path class="st15" d="M87.6,125.1c-4.4,0-7.9-3.6-7.9-7.9s3.6-7.9,7.9-7.9,7.9,3.6,7.9,7.9h0c0,4.3-3.5,7.9-7.9,7.9Z"/>
    <path class="st7" d="M88.6,114.1v6h-1.3v-4.9h-1.2v-1.1h2.5Z"/>
    <path class="st15" d="M103,109.4h210.7c.8,0,1.5.7,1.5,1.5v1c0,.8-.7,1.5-1.5,1.5H103c-.8,0-1.5-.7-1.5-1.5v-1c0-.8.7-1.5,1.5-1.5Z"/>
    <path class="st15" d="M103,119.9h210.7c.8,0,1.5.7,1.5,1.5v1c0,.8-.7,1.5-1.5,1.5H103c-.8,0-1.5-.7-1.5-1.5v-1c0-1,.7-1.5,1.5-1.5Z"/>
    <path class="st15" d="M103,130.3h137.9c.8,0,1.5.7,1.5,1.5v1c0,.8-.7,1.5-1.5,1.5H103c-.8,0-1.5-.7-1.5-1.5v-1c0-.8.7-1.5,1.5-1.5Z"/>
    <circle class="st17" cx="105.1" cy="150.3" r="3.7"/>
    <path class="st7" d="M107.6,150.3c0,1.4-1.1,2.5-2.5,2.5s-2.5-1.1-2.5-2.5,1.1-2.5,2.5-2.5h0c1.4,0,2.5,1.2,2.5,2.5h0Z"/>
    <path class="st15" d="M117.2,148.4h35.6c.8,0,1.5.7,1.5,1.5v1c0,.8-.7,1.5-1.5,1.5h-35.6c-.8,0-1.5-.7-1.5-1.5v-1c0-1,.7-1.5,1.5-1.5Z"/>
    <path class="st17" d="M183.4,150.3c0,2-1.7,3.7-3.7,3.7s-3.7-1.7-3.7-3.7,1.7-3.7,3.7-3.7,3.7,1.7,3.7,3.7h0Z"/>
    <path class="st1" d="M182.4,150.3c0,1.4-1.1,2.5-2.5,2.5s-2.5-1.1-2.5-2.5,1.1-2.5,2.5-2.5h0c1.3,0,2.4,1.1,2.5,2.5Z"/>
    <path class="st15" d="M191.8,148.3h35.6c.8,0,1.5.7,1.5,1.5v1c0,.8-.7,1.5-1.5,1.5h-35.6c-.8,0-1.5-.7-1.5-1.5v-1c0-.8.7-1.5,1.5-1.5Z"/>
    <path class="st17" d="M258,150.2c0,2-1.7,3.7-3.7,3.7s-3.7-1.7-3.7-3.7,1.7-3.7,3.7-3.7,3.7,1.7,3.7,3.7h0Z"/>
    <path class="st7" d="M257,150.2c0,1.4-1.2,2.5-2.5,2.5s-2.5-1.2-2.5-2.5,1.2-2.5,2.5-2.5,2.5,1.1,2.5,2.5h0Z"/>
    <path class="st15" d="M266.4,148.2h35.6c.8,0,1.5.7,1.5,1.5v1c0,.8-.7,1.5-1.5,1.5h-35.6c-.8,0-1.5-.7-1.5-1.5v-1c0-.8.7-1.5,1.5-1.5Z"/>
    <circle class="st15" cx="87.6" cy="184.2" r="7.9"/>
    <path class="st7" d="M89.9,186.1v1.1h-4.5v-1l2.3-2.1c.6-.5.6-.8.6-1.1s-.4-.7-1-.7-1,.2-1.2.6l-1-.7c.6-.7,1.4-1.2,2.4-1.1,1.3,0,2.3.7,2.3,1.8s-.4,1.4-1,1.9l-1.3,1.3h2.4Z"/>
    <path class="st15" d="M103,176.5h210.7c.8,0,1.5.7,1.5,1.5v1c0,.8-.7,1.5-1.5,1.5H103c-.8,0-1.5-.7-1.5-1.5v-1c0-1,.7-1.5,1.5-1.5Z"/>
    <path class="st15" d="M103,186.9h40c.8,0,1.5.7,1.5,1.5v1c0,.8-.7,1.5-1.5,1.5h-40c-.8,0-1.5-.7-1.5-1.5v-1c0-.8.7-1.5,1.5-1.5Z"/>
    <circle class="st17" cx="105.1" cy="206.8" r="3.7"/>
    <circle class="st7" cx="105.1" cy="206.8" r="2.5"/>
    <path class="st15" d="M117.2,204.8h35.6c.8,0,1.5.7,1.5,1.5v1c0,.8-.7,1.5-1.5,1.5h-35.6c-.8,0-1.5-.7-1.5-1.5v-1c0-.8.7-1.5,1.5-1.5Z"/>
    <circle class="st17" cx="179.7" cy="206.7" r="3.7"/>
    <circle class="st7" cx="179.7" cy="206.7" r="2.5"/>
    <path class="st15" d="M191.8,204.7h35.6c.8,0,1.5.7,1.5,1.5v1c0,.8-.7,1.5-1.5,1.5h-35.6c-.8,0-1.5-.7-1.5-1.5v-1c0-.8.7-1.5,1.5-1.5Z"/>
    <path class="st17" d="M258,206.7c0,2-1.7,3.7-3.7,3.7s-3.7-1.7-3.7-3.7,1.7-3.7,3.7-3.7,3.7,1.7,3.7,3.7h0Z"/>
    <path class="st1" d="M257,206.7c0,1.4-1.2,2.5-2.5,2.5s-2.5-1.2-2.5-2.5,1.2-2.5,2.5-2.5,2.5,1.1,2.5,2.5h0Z"/>
    <path class="st15" d="M266.4,204.7h35.6c.8,0,1.5.7,1.5,1.5v1c0,.8-.7,1.5-1.5,1.5h-35.6c-.8,0-1.5-.7-1.5-1.5v-1c0-1,.7-1.5,1.5-1.5Z"/>
    <path class="st15" d="M87.6,250.2c-4.4,0-7.9-3.6-7.9-7.9s3.6-7.9,7.9-7.9,7.9,3.6,7.9,7.9-3.5,7.9-7.9,7.9h0Z"/>
    <path class="st7" d="M89.9,243.4c0,1-.8,1.9-2.5,1.9s-1.5-.2-2.3-.6l.6-1.1c.5.4,1.1.6,1.7.6s1.1-.2,1.1-.7-.4-.7-1.1-.7h-.6v-1l1.2-1.3h-2.5v-1.1h4.3v1l-1.3,1.5c.7-.1,1.4.6,1.4,1.4Z"/>
    <path class="st15" d="M103,234.6h210.7c.8,0,1.5.7,1.5,1.5v1c0,.8-.7,1.5-1.5,1.5H103c-.8,0-1.5-.7-1.5-1.5v-1c0-.8.7-1.5,1.5-1.5Z"/>
    <path class="st15" d="M103,245.1h210.7c.8,0,1.5.7,1.5,1.5v1c0,.8-.7,1.5-1.5,1.5H103c-.8,0-1.5-.7-1.5-1.5v-1c0-.8.7-1.5,1.5-1.5Z"/>
    <path class="st15" d="M103,255.6h105.6c.8,0,1.5.7,1.5,1.5v1c0,.8-.7,1.5-1.5,1.5h-105.6c-.8,0-1.5-.7-1.5-1.5v-1c0-1,.7-1.5,1.5-1.5Z"/>
    <path class="st15" d="M176.6,272.1h6.3c.2,0,.6.2.6.6v6.3c0,.2-.2.6-.6.6h-6.3c-.2,0-.6-.2-.6-.6v-6.3c0-.4.2-.6.6-.6Z"/>
    <rect class="st7" x="177" y="273.1" width="5.6" height="5.6"/>
    <path class="st15" d="M191.8,273.8h35.6c.8,0,1.5.7,1.5,1.5v1c0,.8-.7,1.5-1.5,1.5h-35.6c-.8,0-1.5-.7-1.5-1.5v-1c0-.8.7-1.5,1.5-1.5Z"/>
    <path class="st1" d="M179.5,277.5s-.1,0-.2-.1l-1.3-1.3c-.1-.1-.1-.4,0-.5.1-.1.4-.1.5,0h0l1.2,1.1,1.9-2.3c.1-.1.4-.1.5,0s.1.4,0,.5l-2.3,2.6h-.2Z"/>
    <path class="st15" d="M251.3,272h6.3c.2,0,.6.2.6.6v6.3c0,.2-.2.6-.6.6h-6.3c-.2,0-.6-.2-.6-.6v-6.3c0-.2.4-.6.6-.6h0Z"/>
    <rect class="st7" x="251.6" y="273" width="5.6" height="5.6"/>
    <path class="st15" d="M266.4,273.7h35.6c.8,0,1.5.7,1.5,1.5v1c0,.8-.7,1.5-1.5,1.5h-35.6c-.8,0-1.5-.7-1.5-1.5v-1c0-.8.7-1.5,1.5-1.5Z"/>
    <path class="st1" d="M254.1,277.4s-.1,0-.2-.1l-1.3-1.3c-.1-.1-.2-.4-.1-.5s.4-.2.5-.1h.1c0,.1,1.1,1.2,1.1,1.2l1.9-2.3c.1-.1.4-.2.5-.1s.2.4.1.5h0l-2.1,2.6s-.2.1-.4.1h0Z"/>
    <path class="st15" d="M102,272.3h6.3c.2,0,.6.2.6.6v6.3c0,.2-.2.6-.6.6h-6.3c-.2,0-.6-.2-.6-.6v-6.3c0-.4.2-.6.6-.6Z"/>
    <rect class="st7" x="102.4" y="273.1" width="5.6" height="5.6"/>
    <path class="st15" d="M117.2,273.9h35.6c.8,0,1.5.7,1.5,1.5v1c0,.8-.7,1.5-1.5,1.5h-35.6c-.8,0-1.5-.7-1.5-1.5v-1c0-.8.7-1.5,1.5-1.5Z"/>
    <path class="st7" d="M88.9,79.5c0-2.9,2-5.2,4.9-5.5,2.9,0,5.2,2,5.5,4.9,0,2.9-2,5.2-4.9,5.5h-.4c-2.6,0-5-1.9-5.1-4.5,0,0,0-.2,0-.4ZM96.9,79.5c0-1.7-1.4-3-3-2.9-1.7,0-3,1.4-2.9,3,0,1.5,1.3,2.9,3,2.9s2.9-1.2,3-2.7v-.2h-.1Z"/>
    <path class="st7" d="M108,80.1v4.2h-2v-3.8c0-1.2-.6-1.7-1.4-1.7s-1.8.6-1.8,1.9v3.6h-2v-7.3h2v.8c.6-.6,1.5-1,2.4-1,1.5,0,2.9,1.1,3,2.6,0,.2,0,.5-.1.6Z"/>
    <path class="st7" d="M109.9,74.3h2v10h-2v-10Z"/>
    <path class="st7" d="M113.7,74.9c0-.7.6-1.2,1.2-1.2h.1c.6,0,1.2.4,1.3,1h0c-.2.8-1,1.3-1.7,1.1-.4,0-.7-.4-1-.8h0ZM113.9,77h2.1v7.3h-2.1v-7.3Z"/>
    <path class="st7" d="M125.4,80.1v4.2h-2.1v-3.8c0-1.2-.6-1.7-1.4-1.7s-1.7.6-1.7,1.9v3.6h-2.1v-7.3h2v.8c.6-.6,1.4-1,2.4-1,1.5,0,3,1.1,3.1,2.6-.1.2-.1.5-.1.6Z"/>
    <path class="st7" d="M134.3,81.3h-5.4c.2,1,1.1,1.5,2,1.4.7,0,1.3-.2,1.8-.7l1.1,1.2c-.7.8-1.9,1.2-3,1.2-2,.2-3.9-1.3-4.1-3.3v-.4c0-2,1.5-3.7,3.7-3.7h.2c2,0,3.7,1.4,3.7,3.3v.4s-.1.4-.1.6ZM128.8,80h3.6c-.1-1-1.1-1.7-2.1-1.4-.7,0-1.3.7-1.4,1.4Z"/>
    <path class="st7" d="M141.7,76.7h-3v-1.8h8.2v1.8h-3v7.6h-2.1v-7.6h-.1Z"/>
    <path class="st7" d="M154.2,81.3h-5.5c.2,1,1.1,1.5,2,1.4.7,0,1.3-.2,1.8-.7l1.1,1.2c-.7.8-1.9,1.2-3,1.2-2,.2-3.9-1.3-4.1-3.3v-.4c0-2,1.5-3.7,3.7-3.7h.2c2,0,3.7,1.4,3.8,3.3v1h-.1ZM148.7,80h3.6c-.1-1-1.1-1.7-2.1-1.4-.7,0-1.3.7-1.4,1.4Z"/>
    <path class="st7" d="M154.9,83.6l.7-1.5c.7.5,1.7.7,2.5.7s1.3-.2,1.3-.6c0-1.2-4.4,0-4.4-2.9s1.2-2.4,3.3-2.4,1.9.2,2.7.6l-.7,1.5c-.6-.4-1.3-.6-2-.6s-1.3.2-1.3.7c0,1.2,4.4,0,4.4,2.9s-1.2,2.3-3.5,2.3-2.1,0-3.1-.7h0Z"/>
    <path class="st7" d="M167.3,83.9c-.5.4-1.1.5-1.7.5-1.3.2-2.5-.7-2.6-2v-3.6h-1.1v-1.7h1.1v-1.8h2v1.8h1.8v1.7h-1.8v3c-.1.5.2.8.7,1h.2c.4,0,.6,0,.8-.2,0,0,.5,1.4.5,1.4Z"/>
    <circle class="st7" cx="302.5" cy="81" r="10.6"/>
    <path class="st17" d="M311.9,75.9l-9.4,5v-10.6c4.1,0,7.6,2.1,9.4,5.6Z"/>
  </g>
  <g id="freepik--Shadow--inject-35">
    <ellipse id="freepik--path--inject-35" class="st26" cx="247.2" cy="478.7" rx="234.9" ry="13.5"/>
  </g>
  <g id="freepik--Table--inject-35">
    <polygon class="st6" points="152.4 482 145.2 482 131.9 299.3 141.7 299.3 152.4 482"/>
    <polygon class="st8" points="152.4 482 145.2 482 132.7 308.5 131.9 299.7 141.7 299.7 142.2 308.5 152.4 482"/>
    <polygon class="st17" points="142.2 308 132.7 308 131.9 299.7 141.7 299.7 142.2 308"/>
    <polygon class="st6" points="325.2 482 317.9 482 316.7 299.3 326.3 299.3 325.2 482"/>
    <polygon class="st10" points="326.3 299.7 326.2 329.1 325.2 482 317.9 482 316.9 329.1 316.7 299.7 326.3 299.7"/>
    <polygon class="st17" points="326.3 299.7 326.2 329.5 316.9 329.5 316.7 299.7 326.3 299.7"/>
    <polygon class="st6" points="402.7 482 395.4 482 382.2 299.3 392 299.3 402.7 482"/>
    <polygon class="st10" points="402.7 482 395.4 482 383 308.5 382.2 299.7 392 299.7 392.5 308.5 402.7 482"/>
    <polygon class="st17" points="392.5 308 383 308 382.2 299.7 392 299.7 392.5 308"/>
    <polygon class="st6" points="68.9 482 61.6 482 72.3 299.3 82 299.3 68.9 482"/>
    <polygon class="st10" points="82 299.7 81.4 308.5 68.9 482 61.6 482 71.7 308.5 72.3 299.7 82 299.7"/>
    <polygon class="st17" points="72.3 299.7 82 299.7 81.4 308 71.7 308 72.3 299.7"/>
    <path class="st1" d="M64.6,294.8h335.1v6.6c0,1.4-1.2,2.6-2.6,2.6H67.2c-1.4,0-2.6-1.1-2.6-2.5h0v-6.7h0Z"/>
    <path class="st5" d="M64.6,294.8h335.1v6.6c0,1.4-1.2,2.6-2.6,2.6H67.2c-1.4,0-2.6-1.1-2.6-2.5h0v-6.7h0Z"/>
    <rect class="st17" x="64.6" y="294.8" width="335.1" height="4.5"/>
    <path class="st1" d="M404.2,296H60.1c-1.4,0-2.6-1.2-2.6-2.6h0c0-1.4,1.2-2.6,2.6-2.6h344.1c1.4,0,2.6,1.2,2.6,2.6h0c0,1.4-1.2,2.6-2.6,2.6h0Z"/>
    <path class="st5" d="M404.2,296H60.1c-1.4,0-2.6-1.2-2.6-2.6h0c0-1.4,1.2-2.6,2.6-2.6h344.1c1.4,0,2.6,1.2,2.6,2.6h0c0,1.4-1.2,2.6-2.6,2.6h0Z"/>
  </g>
  <g id="freepik--device-1--inject-35">
    <polygon class="st6" points="177.7 252.8 189.2 252.8 186.1 285.4 211.6 288.1 211.6 290.3 156.5 290.3 156.5 288.1 173.9 285.4 177.7 252.8"/>
    <polygon class="st14" points="177.7 252.8 189.2 252.8 186.1 285.4 211.6 288.1 211.6 290.3 156.5 290.3 156.5 288.1 173.9 285.4 177.7 252.8"/>
    <path class="st6" d="M132.9,267.1h106.3c3.2,0,5.7-2.5,5.8-5.7v-.6l-6-67.6c-.4-3.6-3.3-6.3-6.9-6.3h-106.2c-3.2,0-5.7,2.5-5.8,5.7v.6l6,67.6c.4,3.6,3.2,6.2,6.8,6.3Z"/>
    <path class="st1" d="M138.5,262.7h94.5c2.9,0,5.1-2.1,5.1-5v-.6l-5.2-60.1c-.4-3.2-3-5.6-6.1-5.6h-94.5c-2.9,0-5.1,2.1-5.1,5v.6l5.2,60.1c.2,3.1,2.9,5.5,6.1,5.6h0Z"/>
    <path class="st11" d="M138.5,262.7h94.5c2.9,0,5.1-2.1,5.1-5v-.6l-5.2-60.1c-.4-3.2-3-5.6-6.1-5.6h-94.5c-2.9,0-5.1,2.1-5.1,5v.6l5.2,60.1c.2,3.1,2.9,5.5,6.1,5.6h0Z"/>
    <polygon class="st7" points="216.7 198.6 175 198.6 175 197.8 216.7 197.8 216.7 198.6"/>
    <polygon class="st7" points="217.3 201 188.7 201 188.7 200.1 217.3 200.1 217.3 201"/>
    <polygon class="st7" points="217.4 203.4 194 203.4 193.9 202.5 217.4 202.5 217.4 203.4"/>
    <polygon class="st7" points="217.8 205.7 187.4 205.7 187.4 204.9 217.8 204.9 217.8 205.7"/>
    <polygon class="st7" points="218.1 208.1 197.9 208.1 197.9 207.3 218 207.3 218.1 208.1"/>
    <polygon class="st7" points="219 215.4 177.2 215.4 177.2 214.6 219 214.6 219 215.4"/>
    <polygon class="st7" points="219.3 217.7 182.2 217.7 182.1 217 219.3 217 219.3 217.7"/>
    <polygon class="st7" points="219.7 220.2 196.3 220.2 196.2 219.3 219.7 219.3 219.7 220.2"/>
    <polygon class="st7" points="219.9 222.6 189.5 222.6 189.5 221.7 219.9 221.7 219.9 222.6"/>
    <polygon class="st7" points="220.3 224.8 183.9 224.8 183.9 224.1 220.3 224.1 220.3 224.8"/>
    <polygon class="st7" points="219.8 228.6 178.2 228.6 178.1 227.8 219.8 227.8 219.8 228.6"/>
    <polygon class="st7" points="220.5 231 191.8 231 191.8 230.2 220.4 230.2 220.5 231"/>
    <polygon class="st7" points="220.5 233.4 197.1 233.4 197 232.6 220.5 232.6 220.5 233.4"/>
    <polygon class="st7" points="220.9 235.8 190.5 235.8 190.5 235 220.9 235 220.9 235.8"/>
    <polygon class="st7" points="221.2 238.2 201 238.2 201 237.3 221.1 237.3 221.2 238.2"/>
    <polygon class="st7" points="222.1 245.4 180.3 245.4 180.3 244.6 222.1 244.6 222.1 245.4"/>
    <polygon class="st7" points="222.4 247.8 185.3 247.8 185.2 247 222.4 247 222.4 247.8"/>
    <polygon class="st7" points="222.8 250.2 199.4 250.2 199.3 249.4 222.8 249.4 222.8 250.2"/>
    <polygon class="st7" points="223 252.6 192.6 252.6 192.6 251.8 223 251.8 223 252.6"/>
    <polygon class="st7" points="223.4 255 187 255 187 254.1 223.4 254.1 223.4 255"/>
    <path class="st1" d="M161.7,210.5h-14.3c-1.8,0-3.3-1.4-3.5-3.2l-.6-6.9c-.1-1.9,1.3-3.6,3.2-3.8h14.7c1.8,0,3.3,1.4,3.5,3.2l.6,6.9c.1,1.9-1.2,3.6-3.1,3.8h-.5Z"/>
    <path class="st1" d="M161.7,210.5h-14.3c-1.8,0-3.3-1.4-3.5-3.2l-.6-6.9c-.1-1.9,1.3-3.6,3.2-3.8h14.7c1.8,0,3.3,1.4,3.5,3.2l.6,6.9c.1,1.9-1.2,3.6-3.1,3.8h-.5Z"/>
    <path class="st6" d="M160.9,209.8h-12.8c-1.8,0-3.3-1.4-3.5-3.2l-.4-3.6c-.1-1.9,1.3-3.6,3.2-3.8h13.1c1.8,0,3.3,1.4,3.5,3.2l.4,3.6c.2,1.9-1.2,3.6-3.1,3.8h-.5Z"/>
    <polygon class="st7" points="160.4 201.1 151.1 201.1 151.1 200.7 160.4 200.7 160.4 201.1"/>
    <polygon class="st7" points="155.7 201.9 151.2 201.9 151.2 201.7 155.7 201.7 155.7 201.9"/>
    <polygon class="st7" points="157 202.9 151.2 202.9 151.2 202.5 156.9 202.5 157 202.9"/>
    <polygon class="st7" points="153.4 203.7 151.4 203.7 151.4 203.5 153.4 203.5 153.4 203.7"/>
    <polygon class="st7" points="152.8 204.7 151.5 204.7 151.5 204.3 152.7 204.3 152.8 204.7"/>
    <polygon class="st7" points="161 205.5 151.7 205.5 151.7 205.2 161 205.2 161 205.5"/>
    <polygon class="st7" points="156.3 206.3 151.8 206.3 151.8 206.1 156.3 206.1 156.3 206.3"/>
    <polygon class="st7" points="157.6 207.2 152 207.2 151.8 206.9 157.4 206.9 157.6 207.2"/>
    <polygon class="st7" points="154 208.1 152 208.1 152 207.9 154 207.9 154 208.1"/>
    <polygon class="st7" points="153.4 209 152.1 209 152.1 208.7 153.3 208.7 153.4 209"/>
    <path class="st7" d="M150.1,208.3h-2.9c-.6,0-1.2-.5-1.2-1.1l-.6-5.1c-.1-.7.4-1.3,1.1-1.3h3c.6,0,1.2.5,1.2,1.1l.6,5.1c.1.7-.4,1.3-1.1,1.3h-.1Z"/>
    <path class="st6" d="M146.5,207.9h4.5l-.2-1.7c-.5-.5-1.1-.7-1.8-.7.7-.2,1.1-1,1.1-1.7-.1-1.2-.5-2.3-1.7-2.3s-1.4,1.2-1.4,2.3.5,1.3,1.1,1.7c-.6-.1-1.3.1-1.7.6v1.8h.1Z"/>
    <path class="st1" d="M163.5,225.4h-15c-1.5,0-3-1.2-3.1-2.9l-.7-7.7c-.1-1.7,1.1-3.2,2.7-3.3h15.4c1.5,0,3,1.2,3.1,2.7l.7,7.7c.1,1.7-1.1,3.2-2.7,3.3h-.4,0Z"/>
    <path class="st1" d="M163.5,225.4h-15c-1.5,0-3-1.2-3.1-2.9l-.7-7.7c-.1-1.7,1.1-3.2,2.7-3.3h15.4c1.5,0,3,1.2,3.1,2.7l.7,7.7c.1,1.7-1.1,3.2-2.7,3.3h-.4,0Z"/>
    <path class="st6" d="M162.7,224.8h-13.5c-1.5,0-2.9-1.2-3.1-2.7l-.4-4.4c-.1-1.7,1.1-3.2,2.7-3.3h13.8c1.5,0,3,1.2,3.1,2.7l.4,4.4c.1,1.7-1.1,3.2-2.9,3.3h-.2Z"/>
    <polygon class="st7" points="161.9 216 152.6 216 152.4 215.8 161.7 215.8 161.9 216"/>
    <polygon class="st7" points="157.1 217 152.6 217 152.6 216.6 157 216.6 157.1 217"/>
    <polygon class="st7" points="158.3 217.8 152.7 217.8 152.7 217.5 158.3 217.5 158.3 217.8"/>
    <polygon class="st7" points="154.7 218.7 152.7 218.7 152.7 218.4 154.7 218.4 154.7 218.7"/>
    <polygon class="st7" points="154.1 219.6 152.8 219.6 152.8 219.3 154.1 219.3 154.1 219.6"/>
    <polygon class="st7" points="162.5 220.4 153.2 220.4 153 220.2 162.3 220.2 162.5 220.4"/>
    <polygon class="st7" points="157.7 221.4 153.2 221.4 153.2 221 157.6 221 157.7 221.4"/>
    <polygon class="st7" points="158.9 222.2 153.3 222.2 153.3 222 158.9 222 158.9 222.2"/>
    <polygon class="st7" points="155.3 223.2 153.4 223.2 153.3 222.8 155.3 222.8 155.3 223.2"/>
    <polygon class="st7" points="154.7 224 153.4 224 153.4 223.7 154.7 223.7 154.7 224"/>
    <path class="st7" d="M150.9,223.3h-1.8c-.8,0-1.7-.6-1.7-1.5l-.5-4.1c-.1-1,.6-1.8,1.4-1.9h2c.8,0,1.7.6,1.7,1.5l.5,4.2c.1,1-.6,1.8-1.5,1.9h0c0-.1-.1-.1-.1-.1Z"/>
    <path class="st6" d="M147.8,222.9h4.5l-.2-1.7c-.5-.5-1.1-.7-1.8-.7.7-.2,1.1-1,1.1-1.7-.1-1.2-.5-2.3-1.7-2.3s-1.4,1.2-1.4,2.3.5,1.3,1.1,1.7c-.7-.2-1.2.2-1.7.6v1.8h.1Z"/>
    <path class="st1" d="M165,240.8h-15c-1.7,0-3-1.3-3.1-2.9l-.7-7.7c-.1-1.7,1.1-3.2,2.7-3.3h15.4c1.7,0,3,1.3,3.1,2.9l.7,7.7c.1,1.7-1.1,3.2-2.9,3.3h-.2Z"/>
    <path class="st1" d="M165,240.8h-15c-1.7,0-3-1.3-3.1-2.9l-.7-7.7c-.1-1.7,1.1-3.2,2.7-3.3h15.4c1.7,0,3,1.3,3.1,2.9l.7,7.7c.1,1.7-1.1,3.2-2.9,3.3h-.2Z"/>
    <path class="st6" d="M164.1,240.1h-13.5c-1.7,0-3-1.3-3.1-2.9l-.4-4.3c-.1-1.7,1.2-3.2,2.9-3.3h13.7c1.7,0,3,1.3,3.1,2.9l.4,4.4c.1,1.7-1.2,3.1-2.9,3.2h-.2Z"/>
    <polygon class="st7" points="163.2 231.4 153.9 231.4 153.9 231 163.2 231 163.2 231.4"/>
    <polygon class="st7" points="158.4 232.3 154 232.3 153.9 232 158.4 232 158.4 232.3"/>
    <polygon class="st7" points="159.7 233.2 154 233.2 154 232.8 159.6 232.8 159.7 233.2"/>
    <polygon class="st7" points="156.1 234 154.1 234 154.1 233.8 156.1 233.8 156.1 234"/>
    <polygon class="st7" points="155.5 235 154.2 235 154.2 234.6 155.4 234.6 155.5 235"/>
    <polygon class="st7" points="163.8 235.8 154.5 235.8 154.5 235.4 163.8 235.4 163.8 235.8"/>
    <polygon class="st7" points="159 236.6 154.6 236.6 154.6 236.4 159 236.4 159 236.6"/>
    <polygon class="st7" points="160.3 237.6 154.7 237.6 154.6 237.2 160.2 237.2 160.3 237.6"/>
    <polygon class="st7" points="156.7 238.4 154.7 238.4 154.7 238.2 156.7 238.2 156.7 238.4"/>
    <polygon class="st7" points="156.1 239.4 154.8 239.4 154.8 239 156 239 156.1 239.4"/>
    <path class="st7" d="M152.4,238.6h-2.1c-.8,0-1.5-.6-1.5-1.4l-.5-4.3c-.1-.8.6-1.7,1.4-1.8h2.3c.8,0,1.5.6,1.5,1.4l.5,4.3c.1.8-.6,1.7-1.4,1.8h-.1,0Z"/>
    <path class="st6" d="M149.2,238.3h4.5l-.2-1.7c-.5-.5-1.1-.7-1.8-.7.7-.2,1.1-1,1.1-1.7-.1-1.2-.5-2.3-1.7-2.3s-1.4,1.2-1.4,2.3.5,1.3,1.1,1.7c-.7-.2-1.2.2-1.7.6v1.8h.1Z"/>
    <path class="st1" d="M166.9,255.8h-16c-1.3,0-2.5-1.1-2.6-2.4l-.8-8.7c-.1-1.4.8-2.7,2.3-2.9h16.2c1.3,0,2.5,1.1,2.6,2.4l.8,8.7c.1,1.4-1,2.7-2.4,2.9h-.1Z"/>
    <path class="st1" d="M166.9,255.8h-16c-1.3,0-2.5-1.1-2.6-2.4l-.8-8.7c-.1-1.4.8-2.7,2.3-2.9h16.2c1.3,0,2.5,1.1,2.6,2.4l.8,8.7c.1,1.4-1,2.7-2.4,2.9h-.1Z"/>
    <path class="st6" d="M166,255.1h-14.4c-1.3,0-2.5-1.1-2.6-2.4l-.5-5.4c-.1-1.4,1-2.7,2.4-2.9h14.7c1.3,0,2.5,1.1,2.6,2.4l.5,5.4c.1,1.4-1,2.7-2.4,2.9h-.2Z"/>
    <polygon class="st7" points="164.6 246.4 155.2 246.4 155.2 246 164.5 246 164.6 246.4"/>
    <polygon class="st7" points="159.8 247.2 155.3 247.2 155.3 247 159.7 247 159.8 247.2"/>
    <polygon class="st7" points="161 248.2 155.4 248.2 155.4 247.8 161 247.8 161 248.2"/>
    <polygon class="st7" points="157.4 249 155.5 249 155.4 248.8 157.4 248.8 157.4 249"/>
    <polygon class="st7" points="156.9 250 155.5 250 155.5 249.6 156.9 249.6 156.9 250"/>
    <polygon class="st7" points="165.2 250.8 155.9 250.8 155.8 250.4 165.1 250.4 165.2 250.8"/>
    <polygon class="st7" points="160.4 251.6 155.9 251.6 155.9 251.4 160.4 251.4 160.4 251.6"/>
    <polygon class="st7" points="161.6 252.6 156 252.6 156 252.2 161.6 252.2 161.6 252.6"/>
    <polygon class="st7" points="158 253.4 156.1 253.4 156 253.2 158 253.2 158 253.4"/>
    <polygon class="st7" points="157.4 254.4 156.1 254.4 156.1 254 157.4 254 157.4 254.4"/>
    <path class="st7" d="M153.5,253.7h-1.8c-1,0-1.7-.7-1.8-1.5l-.5-4.1c-.1-1,.6-1.9,1.5-1.9h1.9c1,0,1.7.7,1.8,1.5l.5,4.1c.1,1-.6,1.9-1.5,1.9h-.1Z"/>
    <path class="st6" d="M150.5,253.3h4.5l-.2-1.7c-.5-.5-1.1-.7-1.8-.7.7-.2,1.1-1,1.1-1.7-.1-1.2-.5-2.3-1.7-2.3s-1.4,1.2-1.4,2.3.5,1.3,1.1,1.7c-.6-.1-1.3.1-1.8.6l.2,1.8Z"/>
  </g>
  <g id="freepik--Character--inject-35">
    <path class="st22" d="M303.3,144.7l2.6,2.9c1,1.1,1.3,2.6,1.1,4.1l-1.5,6.8c-.6,2.7-2.5,4.9-5,6l-1.5.7c-4.6-4.5-6.4-13-6.4-13l-.7-2.4c-.7-2,.4-4.2,2.4-4.9h0l4.6-1.5c1.5-.5,3.3.1,4.5,1.4h0Z"/>
    <path class="st22" d="M359.1,175.5l-.2.5-.2.4-.5.6-.8,1.1c-.6.7-1.1,1.3-1.7,2-1.2,1.3-2.4,2.5-3.6,3.6-2.4,2.3-5,4.3-7.7,6.1-1.3,1-2.7,1.8-4.1,2.6s-2.9,1.5-4.2,2.3c-2.9,1.4-5.7,2.7-8.7,3.9h-.4c-.2.2-.6.4-.8.4-1.7.2-3.5.2-5.1-.1-1.4-.4-2.9-.8-4.1-1.7-2-1.2-3.8-2.7-5.5-4.5-1.3-1.5-2.6-3.2-3.7-4.9-1.1-1.7-2-3.3-3-5s-1.7-3.3-2.5-5c-.7-1.7-1.4-3.5-2.1-5.1s-1.3-3.5-1.8-5.2c-.2-.8-.6-1.8-.8-2.6s-.5-1.8-.7-2.7c-.5-1.8.7-3.7,2.5-4.1,1.5-.4,3.1.4,3.8,1.7h0c0,.1,1.2,2.4,1.2,2.4.4.7.8,1.5,1.2,2.3.8,1.5,1.7,3.1,2.5,4.5s1.8,3,2.6,4.4c1,1.4,1.8,2.9,2.7,4.2s1.9,2.6,3,3.9c1,1.2,2,2.3,3.1,3.3.8.8,1.8,1.5,2.9,2,.2.1.6.2.8.2s.1,0,.2-.1l-1.2.4c2.5-1.2,4.9-2.6,7.3-4.1,1.2-.7,2.4-1.4,3.5-2.3,1.1-.7,2.3-1.5,3.3-2.4.5-.4,1.1-.8,1.7-1.2s1.1-.8,1.5-1.3c1.1-.8,2-1.8,3-2.6s1.9-1.8,2.7-2.7c.5-.5.8-1,1.2-1.4.2-.2.4-.5.6-.7l.2-.4h.1c2.1-3.2,6.4-4.1,9.5-1.9,3,2,3.8,6.1,2,9.2v.2h.1Z"/>
    <path class="st1" d="M305.4,161.8c5.6,10.7,11.6,18.7,18,24.4,6.7-3.5,24.9-19.8,28.2-21.5l.5,21.6c-8.2,8-22.2,15.7-26.5,16.2-12.8,2.9-20.3-15.3-28.2-36l8-4.8h0Z"/>
    <path class="st1" d="M351.6,164.7s-11.4,13-.6,93.3h57.8c.4-8.8-5.1-52.1,3.3-93.9-6.4-1.2-12.9-2-19.3-2.4-8.2-.5-16.3-.5-24.6,0-5.7.6-11.2,1.5-16.7,3h0Z"/>
    <rect class="st6" x="402.8" y="217.9" width="3.2" height="23.7" transform="translate(-51.2 323.3) rotate(-41.2)"/>
    <rect class="st12" x="402.8" y="217.9" width="3.2" height="23.7" transform="translate(-51.2 323.3) rotate(-41.2)"/>
    <circle class="st6" cx="388.3" cy="211.4" r="13.8"/>
    <path class="st1" d="M397.3,203.5c4.3,5,3.8,12.5-1.2,16.8s-12.5,3.8-16.8-1.2-3.8-12.5,1.1-16.8c5-4.3,12.5-3.8,16.9,1.2h0Z"/>
    <path class="st5" d="M397.3,203.5c4.3,5,3.8,12.5-1.2,16.8s-12.5,3.8-16.8-1.2-3.8-12.5,1.1-16.8c5-4.3,12.5-3.8,16.9,1.2h0Z"/>
    <path class="st5" d="M391.9,202.4c.8,1,.7,2.5-.4,3.3-1,.8-2.5.7-3.3-.4-.8-1-.7-2.4.2-3.3,1-.8,2.5-.7,3.5.4h0Z"/>
    <path class="st22" d="M389.9,139.6c-1.1,6.4-2.1,18.1,2.4,22.3,0,0-5.8,8.8-15.3,9.2-8.2.4-4.5-8.8-4.5-8.8,7-1.9,6.8-7.2,5.5-12l11.9-10.6h0Z"/>
    <path class="st17" d="M384.9,144l-7,6.3c.4,1.2.6,2.3.7,3.5,2.7-.5,8.6-6.2,8.8-9.1,0-1.2-2.1.4-2.5-.7h0Z"/>
    <path class="st22" d="M395.7,230.7l2.1-3.3c.8-1.2,2.1-2,3.6-2l6.9-.2c2.7-.1,5.4,1.1,7.2,3.3l1.1,1.3c-3.2,5.7-10.8,9.5-10.8,9.5l-2,1.3c-1.8,1.2-4.1.7-5.2-1h0l-2.7-4.1c-1-1.5-1-3.5,0-4.9h0Z"/>
    <path class="st22" d="M411,168.8h.5c0,.1.4.2.4.2l.7.2c.5.1.8.4,1.3.5.8.4,1.5.7,2.4,1.2,1.5.7,3,1.7,4.4,2.5,2.7,1.8,5.4,3.7,7.9,5.8,1.2,1.1,2.4,2.1,3.6,3.3s2.3,2.3,3.3,3.5c2.1,2.4,4.2,4.9,6.1,7.4l.2.4c.2.2.4.5.5.8.7,1.5,1.2,3.2,1.2,4.9.1,1.4-.1,3-.5,4.4-.6,2.3-1.7,4.4-3,6.4-1.1,1.7-2.4,3.3-3.7,4.9-1.3,1.4-2.6,2.9-4.1,4.2s-2.9,2.5-4.3,3.7-3,2.3-4.4,3.3-3,2.1-4.5,3.1l-2.4,1.4c-.8.5-1.5,1-2.4,1.4-1.7,1-3.7.4-4.6-1.3-.7-1.3-.5-3.1.7-4.2h.1c0-.1,1.9-1.9,1.9-1.9l1.9-1.8c1.3-1.2,2.5-2.4,3.7-3.6s2.4-2.5,3.6-3.7,2.3-2.5,3.3-3.8,2.1-2.5,3-3.8c.8-1.2,1.7-2.5,2.4-3.8.6-1.1,1-2.1,1.2-3.3v-1c0-.1-.1-.1-.1-.1l.7,1.1c-1.8-2.1-3.8-4.1-5.7-6.1-1-1-2-1.9-3.1-2.7s-2-1.8-3.1-2.6l-1.7-1.2-1.7-1.2c-1.1-.7-2.3-1.5-3.3-2.3s-2.3-1.3-3.5-1.9c-.6-.4-1.1-.6-1.7-.8l-.8-.4h-.4c0-.1-.1-.1-.1-.1h0c-3.6-1.1-5.7-4.9-4.6-8.5s4.9-5.7,8.5-4.6c.1,0,.2.1.4.1h-.1Z"/>
    <path class="st1" d="M411.7,224.2c8.9-8.2,15.1-16,19-23.7-5-5.6-20.5-15.3-23.1-16.9s-7.7-5.7-7.7-12.8,12.3-6.7,12.3-6.7c9.8,5.8,32.2,26,33.7,29.9,6,11.6-9.5,23.5-27.5,36.6l-6.6-6.4h0Z"/>
    <path class="st6" d="M373.1,117.9c4.2,2.9,2.3,7.7-7.3,15.3-3.8-5-4.5-14.8-1.4-17.3s5-.5,8.7,2h0Z"/>
    <path class="st22" d="M391.2,125.8c-.5,10.3-.2,16.3-5.4,21.7-7.7,8.1-20.5,3.6-23.1-6.7-2.4-9.2-1.2-24.6,8.8-28.8,7.2-3.1,15.4.2,18.5,7.4,1,2,1.3,4.3,1.2,6.4h0Z"/>
    <path class="st6" d="M375.9,128.9c0,.8-.5,1.5-1,1.5s-1-.7-1.1-1.4.4-1.5,1-1.5,1,.6,1.1,1.4Z"/>
    <path class="st6" d="M366.4,129c0,.8-.5,1.5-1,1.5s-1.1-.7-1.1-1.5.5-1.5,1-1.5,1,.7,1.1,1.5Z"/>
    <path class="st18" d="M369.4,129.3c-1,2.6-2.3,5-3.9,7.3,1.2.8,2.6,1.1,4.1.7v-8s-.1,0-.1,0Z"/>
    <path class="st6" d="M378.4,125.8h.4c.2,0,.2-.5.1-.7h0c-1-1.3-2.5-2-4.1-2s-.5.2-.5.5h0c0,.2.2.5.6.5h0c1.2,0,2.4.6,3.2,1.5-.1.4.1.4.2.4h0Z"/>
    <path class="st6" d="M362,125.9c.2,0,.4,0,.5-.2.5-1.2,1.5-2,2.7-2.4.2,0,.5-.2.5-.6s-.2-.5-.6-.5c-1.5.4-2.9,1.4-3.5,2.9-.1.2,0,.6.2.7h0c-.1,0,0,0,.1,0h0Z"/>
    <path class="st6" d="M386.9,116.7c-4.8,1.7-4.2,6.9,3.3,16.6,5-3.9,8-13.2,5.6-16.3s-4.6-1.8-8.9-.2Z"/>
    <path class="st22" d="M396.3,133.9c-.7,2.5-2.3,4.6-4.5,6-3,1.7-5.4-.8-5.1-4.1.1-3,1.8-7.4,5.2-7.7s5.1,2.7,4.4,5.8h0Z"/>
    <path class="st6" d="M391.8,117.2s1.2-5.7-2-8.9-16.7-2.4-24.2-1.2-14.8,10.1-14.8,10.1h11.8c-1.2.5-2.3,2.1-3.2,3.8,9.9-.8,21.1-1.1,25.1-4.4l.5,1.2,2.7.2,4.1-.8h0Z"/>
    <path class="st6" d="M369.6,141.1c2.7-.7,5.4-1.8,7.7-3.5.5,4.1-1.4,6.8-5.2,7.6l-2.5-4.2Z"/>
    <path class="st25" d="M374,144.7c1.5-.7,2.7-2.3,3.2-3.9-1.1.1-1.9.6-2.6,1.4-.6.7-.8,1.7-.6,2.5Z"/>
    <path class="st6" d="M366.6,131.8h-3.8c-1.1,0-1.9-.8-1.9-1.9v-2.4c0-1.1.8-1.9,1.9-1.9h3.8c1.1,0,1.9.8,1.9,1.9h0v2.4c0,1.1-.8,1.9-1.9,1.9ZM362.8,126.7c-.5,0-.8.4-.8.7h0v2.4c0,.5.4.8.7.8h3.8c.5,0,.8-.4.8-.8v-2.4c0-.5-.4-.8-.8-.8h-3.7Z"/>
    <path class="st6" d="M375.9,131.8h-3.8c-1.1,0-1.9-.8-1.9-1.9v-2.4c0-1.1.8-1.9,1.9-1.9h3.8c1.1,0,1.9.8,1.9,1.9h0v2.4c0,1.1-.8,1.9-1.9,1.9ZM372,126.7c-.5,0-.8.4-.8.7h0v2.4c0,.5.4.8.7.8h3.8c.5,0,.8-.4.8-.8v-2.4c0-.5-.4-.8-.8-.8h-3.7Z"/>
    <rect class="st6" x="368.1" y="128.2" width="2.6" height="1.2"/>
    <rect class="st6" x="377.8" y="128.2" width="10" height="1.2"/>
    <path class="st6" d="M373.4,173.2c-1.5,3.8-7.5,22.2-9.3,45.1.5,2.1,1.1,4.3,1.8,6.6,1.3-2,3.6-4.2,5.1-6.2.8-20.5,2.7-40.3,4.4-45.2l-2-.2h0Z"/>
    <polygon class="st6" points="373.3 176.3 371.9 171.3 375.6 170 378.1 171.9 373.3 176.3"/>
    <path class="st7" d="M375.6,170s2.1,3.1,4.6,6.3c4.2-1.8,14.2-6.8,14.3-12.2-.5-1.2-1.3-2.1-2.4-2.7-5.1,3.8-10.7,6.7-16.6,8.6Z"/>
    <path class="st7" d="M375.6,170c-2.1,1.5-4.1,3.3-5.7,5.5-2.7-2.3-.2-12,1-13,1.2-.7,2.6-1.1,4.1-1,0-.1-3.9,6.9.7,8.5h0Z"/>
    <polygon class="st2" points="338.5 473.5 329 472.1 330.3 448.9 339.8 450.3 338.5 473.5"/>
    <polygon class="st17" points="339.8 450.3 330.3 448.9 329.4 463.3 339 463.3 339.8 450.3"/>
    <path class="st6" d="M328.3,471.1l10.7-.7c.4,0,.7.2.7.6h0l1.1,8.5c0,1-.6,1.7-1.5,1.8-3.7.1-5.5.1-10.3.4-2.9.1-8.6.8-12.6.4-4.1-.5-3.5-4.3-1.8-4.5,4.1-.5,9.5-3.5,12-5.7.5-.4,1.1-.6,1.7-.6Z"/>
    <path class="st1" d="M328,472.1h0c0-.1-.1-2.9-1.2-3.7-.4-.2-.7-.4-1.1-.2-.4,0-.7.4-.8.7,0,.8.4,1.5,1,2.1-.8-.5-1.8-.6-2.6-.5-.2.1-.5.4-.5.7-.1.5,0,.8.4,1.2.6.4,1.2.5,1.8.4.8-.1,1.7-.2,2.5-.5h.1c0-.1.2-.1.2-.2h.2ZM325.4,469c0-.1.1-.2.4-.4h.1c.1,0,.4,0,.5.1.6.8.8,1.9.8,3h-.2c-.8-.8-1.3-1.8-1.5-2.7h0ZM323.5,472.1c-.2-.2-.2-.5-.2-.7s.1-.2.2-.4c.6-.2,2.3.5,3.5,1.1-1.8.4-3,.5-3.5,0h0Z"/>
    <polygon class="st2" points="408.3 473.5 398.9 472.1 397.6 449.6 407 450.9 408.3 473.5"/>
    <polygon class="st17" points="407 450.9 397.6 449.6 398.3 463.3 407.8 463.3 407 450.9"/>
    <path class="st6" d="M398.2,471.1l10.7-.7c.4,0,.7.2.7.6h0l1.1,8.5c0,1-.6,1.7-1.5,1.8-3.7.1-5.5.1-10.3.4-2.9.1-8.6.8-12.6.4-4.1-.5-3.5-4.3-1.8-4.5,4.1-.5,9.5-3.5,12-5.7.5-.4,1.1-.6,1.7-.6Z"/>
    <path class="st1" d="M398,472.1h0c0-.1-.1-2.9-1.2-3.7-.4-.2-.7-.4-1.1-.2-.4,0-.7.4-.8.7,0,.8.4,1.5,1,2.1-.8-.5-1.8-.6-2.6-.5-.2.1-.5.4-.5.7-.1.5,0,.8.4,1.2.6.4,1.2.5,1.8.4.8-.1,1.7-.2,2.5-.5h.1c0-.2.2-.1.2-.2h.2ZM395.4,469c0-.1.1-.2.4-.4h.1c.1,0,.4,0,.5.1.6.8.8,1.9.8,3h-.2c-.8-.8-1.4-1.8-1.5-2.7h0ZM393.3,472.1c-.2-.2-.2-.5-.2-.7s.1-.2.2-.4c.6-.2,2.3.5,3.5,1.1-1.7.4-3,.5-3.5,0h0Z"/>
    <path class="st6" d="M384,258.1v36c-11.4,29.6-28.8,78.4-31.8,94.4s-2.3,35.5-7.6,70.8l-18.7.5s-1.3-40.4,1.4-70.1c2.7-29.7,25.6-131.5,25.6-131.5h31.1Z"/>
    <path class="st6" d="M407.6,258.1c2.1,16-5.4,122.5-3.5,137.4,1.9,14.9,4.2,28.2,6.6,64.2h-17.6s-9.2-34-13.9-63.8c-4.8-29.8-7.4-108.8-4.3-137.8h32.8Z"/>
    <path class="st17" d="M365.8,343.5s1.8-16.6,2.3-23.4,5-25.5,5-25.5l.7,26.2-8,22.6Z"/>
    <path class="st17" d="M335.5,198.2c5.5-4.1,9.8-8.6,11.8-13.9-.5,2.3-.8,4.5-1.1,6.8-3.2,2.6-6.9,5-10.7,7.2Z"/>
    <path class="st17" d="M407.5,203.6c-.7-6.9-1.8-16.4-3-22.3,1.4,1.2,2.9,2.4,4.4,3.5"/>
    <path class="st1" d="M306.6,133.3c0-14.7-11.8-26.5-26.5-26.5s-26.5,11.8-26.5,26.5,5.8,19.5,15.1,24c-.4-1.2-.8-2.5-1.2-3.8s-.8-2.6-1.3-4.1c3-1,6.1-1.7,9.1-2.1,3.2-.6,6.6-1,9.9-1.1,4.3,0,9.2.5,9.2.5,0,0,.7.1,1.2,4.6.1,1,.1,2,.2,3.5,6.8-5.1,10.7-13,10.7-21.5Z"/>
    <path class="st9" d="M306.6,133.3c0-14.7-11.8-26.5-26.5-26.5s-26.5,11.8-26.5,26.5,5.8,19.5,15.1,24c-.4-1.2-.8-2.5-1.2-3.8s-.8-2.6-1.3-4.1c3-1,6.1-1.7,9.1-2.1,3.2-.6,6.6-1,9.9-1.1,4.3,0,9.2.5,9.2.5,0,0,.7.1,1.2,4.6.1,1,.1,2,.2,3.5,6.8-5.1,10.7-13,10.7-21.5Z"/>
    <path class="st19" d="M287.8,122l-7.4-3s-8.1-.5-9.5,3.8c-1.4,4.2-1,11.4-2,17.8-.7,4.4-5.2,7.3-7.9,11.2.8.8,1.7,1.5,2.5,2.3,4.6,3.7,10.5,5.7,16.4,5.7s3.3-.1,4.9-.5c1.7-6.6,3.3-15.7,5-24.9l-2-12.4h0Z"/>
    <path class="st19" d="M287.8,122c2,1.4,3.2,3.8,3.1,6.2-.1,4.2-.8,8.2-.5,10.8.5,3-1.4,7.3-1.4,7.3-.1-1.3-.4-2.7-.7-4.1,0,0,0,1.1-1.4,1.4s-13.1.7-15.9-1.4,2.9-19.8,5.8-20.9c3.1-1,11,.6,11,.6Z"/>
    <path class="st1" d="M294.3,146.5s-4.9-.5-9.2-.5c-3.3.1-6.6.5-9.9,1.1-3.1.5-6.2,1.3-9.2,2.3.5,1.4,1,2.7,1.3,4.1.4,1.3.8,2.6,1.2,3.8,8.8,4.2,19.2,3.2,26.9-2.5,0-1.4-.1-2.5-.2-3.5-.2-4.6-1-4.8-1-4.8h0Z"/>
    <path class="st16" d="M294.3,146.5s-4.9-.5-9.2-.5c-3.3.1-6.6.5-9.9,1.1-3.1.5-6.2,1.3-9.2,2.3.5,1.4,1,2.7,1.3,4.1.4,1.3.8,2.6,1.2,3.8,8.8,4.2,19.2,3.2,26.9-2.5,0-1.4-.1-2.5-.2-3.5-.2-4.6-1-4.8-1-4.8h0Z"/>
    <path class="st21" d="M283.3,150.9c-5.5-.7-7-3-7-3,3.5-3.2.6-8.8.6-8.8l6.6,1.2c-.1,1-.2,1.8-.2,2.7,0,3.9,1.8,4.1,1.8,4.1,1,2-1.7,3.8-1.7,3.8Z"/>
    <path class="st17" d="M283.3,140.2c-.1,1-.2,1.8-.2,2.7-2.6-.1-5-1.5-6.3-3.9l6.6,1.2Z"/>
    <path class="st21" d="M271.2,148.5s6.3,5.1,12.3,5.1c6-.1,8-6.8,8-6.8-6.7-1.5-13.8-1-20.3,1.7Z"/>
    <path class="st21" d="M283.7,123c5.4,1,6.6,4.1,6.1,9.7-.7,6.9-3.1,11.6-9.5,8.9-8.7-3.5-5.5-20.1,3.5-18.6Z"/>
    <path class="st25" d="M286.3,131.8c.2.8.7,1.7,1.2,2.5-.4.4-1,.6-1.5.4l.4-2.9Z"/>
    <path class="st6" d="M283.1,130.8c-.1.5-.4.7-.7.7s-.5-.5-.4-.8.4-.7.6-.7.6.4.5.8Z"/>
    <path class="st6" d="M282.6,129.9l1.1-.2s-.7.7-1.1.2Z"/>
    <path class="st6" d="M288.6,131.5c-.1.5-.4.7-.7.7s-.5-.5-.5-.8.4-.7.7-.7.6.4.5.8Z"/>
    <path class="st6" d="M288.1,130.7l1.1-.2c-.1,0-.7.7-1.1.2Z"/>
    <path class="st6" d="M281.2,127.7h-.1c-.1,0-.1-.2,0-.4.7-.6,1.8-.7,2.6-.5.1,0,.2,0,.1.2,0,0-.1.2-.2,0-.7-.2-1.5,0-2.3.4,0,.1,0,.2-.1.2Z"/>
    <path class="st6" d="M289.6,128.5h-.1c-.5-.5-1.2-.8-1.9-.7-.1,0-.2,0-.2-.2s.1-.2.2-.2c.8,0,1.7.2,2.3.8.1,0,.1.2,0,.4h-.2,0Z"/>
    <path class="st19" d="M276.3,131s3.2-3.9,3.5-7.4c0,0,11.3-2.5,10,8.3,0,0,2.6-9.4-6.4-11.2s-10.3,15.7-6.2,20.6c0,0-2.9-7.9-.8-10.4h0Z"/>
    <path class="st21" d="M277,132.3c.1-1.3-.8-2.5-2.1-2.6-1.7,0-3.1,3.2,1,4.6.5.4,1-.2,1.2-2Z"/>
    <path class="st19" d="M278.5,122.4c1.4,1.4,3,2.7,4.9,3.6,2.4.8,4.9,1.4,7.3,1.9-1,4.9-.8,8.9,1.5,11.6-.8-1.4.5-12.4.4-13.3-.4-2.3-2.6-3.7-5.1-5.5-1.9-1.1-4.2-1.5-6.4-1.4,0,0-2.5,3.2-2.5,3.2Z"/>
    <path class="st19" d="M275.9,123.6v6.3c-.6,1.9-.4,4.1.6,5.7-.1-2.5.1-4.9.6-7.3l2.1-4.2s-3.3-.6-3.3-.6Z"/>
    <path class="st6" d="M284.9,136.5c-1.3,0-2.5-.5-3.3-1.4v-.2h.2c1,1,2.4,1.4,3.7,1.2,0,0,.1,0,.1.1h0s0,.1-.1.1h0l-.6.2h0Z"/>
    <path class="st1" d="M266,149.3c-1.3,1.2-2.4,2.6-3,4.3,1.7,1.4,3.6,2.6,5.6,3.6l-2.6-7.9Z"/>
    <path class="st16" d="M266,149.3c-1.3,1.2-2.4,2.6-3,4.3,1.7,1.4,3.6,2.6,5.6,3.6l-2.6-7.9Z"/>
    <path class="st1" d="M294.3,146.5l1.3,8.1c1.9-1.4,3.6-3,5.1-4.9-1.8-1.5-4.1-2.7-6.4-3.2Z"/>
    <path class="st16" d="M294.3,146.5l1.3,8.1c1.9-1.4,3.6-3,5.1-4.9-1.8-1.5-4.1-2.7-6.4-3.2Z"/>
  </g>
  <g id="freepik--character-2--inject-2">
    <path class="st9" d="M417.3,85.1h0c0,5.2,1.8,10.5,5,14.7.7,1,1.7,1.9,2.5,2.9,0,0,.2.2.4.4.1,0,.4.2.5.5q0,0,0,0c.2.2.4.4.6.5.6.5,1.3,1,2,1.4h.1c.8.6,1.8,1.1,2.6,1.5,8.2,3.9,17.8,2.7,24.8-2.5h.1q0-.2,0,0c1.3-1.1,2.6-2.3,3.7-3.6,3.8-4.5,5.7-10.1,5.7-15.6s-2.9-13.6-8.5-18.4c-10.1-8.6-25.4-7.4-34,2.7-3.7,4.4-5.7,9.9-5.7,15.6h.1Z"/>
    <g id="freepik--group--inject-2">
      <path class="st1" d="M424.8,102.6s.2.2.4.4c.1,0,.4.2.5.5q0,0,0,0c.2.2.4.4.6.5v-.6c0-.6-.2-1-.2-1.1h0c-.2,0-.6,0-.8.2h-.4Z"/>
      <path class="st1" d="M425.9,102.3c0,.4-.2.7-.2,1.1.2.2.4.4.6.5.6.5,1.3,1,2,1.4h.1c.8.6,1.8,1.1,2.6,1.5,8.2,3.9,17.8,2.7,24.8-2.5h-.4l-1-.2h-.4c-1.1-.2-2.3-.5-3.3-.6l-1.4-.2c-.6,0-1.3,0-1.9-.2h-.1c-1.5,0-3-.4-4.4-.4h-16.9v-.2h-.1Z"/>
      <path class="st17" d="M425.9,102.3c0,.4-.2.7-.2,1.1s0,.2,0,0c.2.2.4.4.6.5.6.5,1.3,1,2,1.4h.1c.8.6,1.8,1.1,2.6,1.5,8.2,3.9,17.8,2.7,24.8-2.5h.6-1l-1-.2h-.4c-1.1-.2-2.3-.5-3.3-.6l-1.4-.2c-.6,0-1.3,0-1.9-.2h-.1c-1.5,0-3-.4-4.4-.4h-16.9v-.2h-.1Z"/>
      <path class="st2" d="M447.6,103c-2.6,2.5-9.2,1.5-9.2,1.5,0,0-4.1-1.1-3.2-2.4,2.4-.4,3.6-1.5,4.1-3,.2-.8.4-1.8.2-2.7,0-.5,0-1.1-.2-1.5l8-6c-1.1,3.9-2.3,11.1.2,13.9h.1Z"/>
      <path class="st17" d="M445.4,92.8c-.4,4.8-4.3,6.2-6.2,6.4.2-.8.4-1.8.2-2.7l6-3.7Z"/>
      <path class="st24" d="M431.6,77.5s-1.2,7.5,2.9,10.4,3.9-11.1,3.9-11.1l-6.8.7h0Z"/>
      <path class="st2" d="M445.9,93.8c-1.7,2.5-4.9,3.6-7.9,2.6-1.8-.6-3.3-1.8-4.3-3.6-.1-.2-.2-.5-.4-.7-1.9-4.5-2.6-12.6,2.3-15.6,3.5-2.1,8-1.2,10.1,2.3h0c.6,1,1,2.1,1.1,3.2.6,5.4,1.2,8.5-1.1,11.7h.1Z"/>
      <path class="st6" d="M439.2,85c0,.5,0,.8-.4.8s-.6-.2-.6-.7,0-.8.4-.8.6.2.6.7Z"/>
      <path class="st6" d="M434.3,85.8c0,.5,0,.8-.4.8s-.6-.2-.6-.7,0-.8.4-.8.6.2.6.7Z"/>
      <path class="st28" d="M435.9,85.8c-.2,1.4-.7,2.7-1.4,4.1.7.4,1.4.4,2.1,0l-.7-4.1h0Z"/>
      <path class="st6" d="M440.4,83.2h-.2c-.5-.5-1.1-.7-1.8-.6-.1,0-.2,0-.4-.2,0,0,0-.2.2-.4h0c.8,0,1.7,0,2.3.7v.4h-.1Z"/>
      <path class="st6" d="M431.8,84.5h-.1c-.1,0-.2,0-.2-.4h0c.2-.8.8-1.4,1.5-1.8h.4s0,.2-.1.4h0c-.6.2-1.1.7-1.2,1.4h-.1v.4Z"/>
      <path class="st24" d="M442,76.2v2.4c.8.2,1.3,1.2,1.2,2.1-.5,2,1,5,2.6,6.1,0,0,0-.8.7-.7s1.1,4.6,0,6.9c0,0,1.9-2.1,2.5-7,.6-4.5.2-8.1-.8-9.7h-6.2Z"/>
      <path class="st2" d="M450.1,86.2c-.4,1.3-1.3,2.4-2.5,3.1-1.5.8-2.7-.5-2.6-2.1,0-1.5,1.1-3.8,2.9-3.9,1.3,0,2.4.8,2.4,2.1s0,.6-.1,1h0Z"/>
      <path class="st24" d="M442,78.6s-1.5,1.5-3.1.4c0,0-1.7,1.4-3.1.4-.5.7-1.2,1.3-2,1.4-.6,0-1.2-.4-1.2-1v-.2s-2,1.2-2.7.6.4-2.6.4-2.6c0,0-1-.5-.4-2.3s3.3-1.3,3.3-1.3c0,0,0-1.7,1.8-3.2.7-.7,1.9-.8,2.6,0,.1,0,.4.4.5.6,0,0,1.9-2.5,4.2-2.1s2,1.9,2,1.9c0,0,2.6-1.7,3.8,0s0,2.5,0,2.5c0,0,2.6.8,2.5,2.7s-1.5,1.5-1.5,1.5c0,0,.7.8-1,1.7s-3.3-1.1-3.3-1.1c.4.6.2,1.3-.4,1.7h-.2c-1.2.7-2.4-1.4-2.4-1.4h.2,0Z"/>
      <path class="st6" d="M436.7,91.6c.6.5,1.1,1.1,1.5,1.7l.4-.2c1.5-.8,1.9-1.8,1.9-2.5s0-.7-.2-1.1c0,0-.2-.4-.4-.5-.7,1-1.5,1.8-2.6,2.4-.4,0-.6.2-.6.2h0Z"/>
      <path class="st7" d="M437.2,91.2l.5.5c1.4-.8,2.4-1.7,2.5-2.3,0,0-.2-.4-.4-.5-.7,1-1.7,1.8-2.6,2.4h0Z"/>
      <path class="st25" d="M438.5,93c1.5-.8,1.9-1.8,1.9-2.5-.6.4-1.1.8-1.5,1.3-.2.4-.5.8-.5,1.2h.1Z"/>
      <path class="st1" d="M438.4,104.4s9.4-6.3,12.4-6.7,2.5,3.3,2.5,3.3c0,0,2.3,0,1.4,2.9s-13.6,4.4-18.4,3-7.5-4.1-6.7-6.6,3-.4,3-.4c0,0,1.3-2.4,3.1-1.8s2.7,6.2,2.7,6.2h-.1Z"/>
    </g>
  </g>
  <g>
    <path class="st9" d="M374,60.1c0,3.9-1,7.7-2.6,11.2-.4.7-.7,1.3-1.1,2-.4.5-.6,1-1,1.4-1.4,2-3.2,3.8-5.2,5.4-.5.4-1,.7-1.4,1-1.9,1.3-4.1,2.3-6.3,3-5.8,1.8-12.2,1.4-17.8-1.1-.4-.2-.8-.4-1.2-.6h0c-4.4-2.4-8.1-6-10.5-10.4-.4-.6-.6-1.3-1-1.9h0c-5.5-12.8.4-27.4,13-33,12.8-5.5,27.4.4,33,13,1.3,3.1,2,6.6,2,10h0Z"/>
    <g id="freepik--group--inject-21">
      <path class="st1" d="M335.2,76.1h0l-.4,4.1h0c-.1,0-.4-.2-.5-.4-.6-.5-1.3-1-1.9-1.5,1.1-1.1,2-1.9,2.9-2.1,0,0-.1,0-.1,0Z"/>
      <path class="st16" d="M335.2,76.1h0l-.4,4.1h0c-.1,0-.4-.2-.5-.4-.6-.5-1.3-1-1.9-1.5,1.1-1.1,2-1.9,2.9-2.1,0,0-.1,0-.1,0Z"/>
      <path class="st1" d="M366.6,77h0c0,.2-.2.4-.4.5-1,1-1.9,1.8-3,2.6-1.5,1.1-3.2,2-4.9,2.7-.1,0-.4,0-.5.2-6.6,2.6-14.1,2.1-20.4-1.2-.1,0-.2,0-.4-.2-.6-.4-1.1-.6-1.7-1-.2,0-.5-.4-.7-.5h0c-.1,0-.4-.2-.5-.4.2-1.2.6-2.5,1-3.7h0c2.6-.7,5.2-1.3,8-1.7h.5c3.7-.2,7.5-.4,11.2-.2h0c2.7,0,5.4.4,8,.8,1.3.6,2.6,1.2,3.8,2h-.1Z"/>
      <path class="st16" d="M366.6,77h0c0,.2-.2.4-.4.5-1,1-1.9,1.8-3,2.6-1.5,1.1-3.2,2-4.9,2.7-.1,0-.4,0-.5.2-6.6,2.6-14.1,2.1-20.4-1.2-.1,0-.2,0-.4-.2-.6-.4-1.1-.6-1.7-1-.2,0-.5-.4-.7-.5h0c-.1,0-.4-.2-.5-.4.2-1.2.6-2.5,1-3.7h0c2.6-.7,5.2-1.3,8-1.7h.5c3.7-.2,7.5-.4,11.2-.2h0c2.7,0,5.4.4,8,.8,1.3.6,2.6,1.2,3.8,2h-.1Z"/>
      <path class="st13" d="M357.8,83c-6.6,2.6-14.1,2.1-20.4-1.2,1.5-1.7,3.1-3.2,4.9-4.6.7.8,1.8,1.3,2.9,1.4,2.4.5,5-.6,7.3-2,1.4,1.3,2.7,2.9,3.9,4.3.5.6,1.1,1.3,1.4,2h0Z"/>
      <path class="st29" d="M354.8,74.2c-2.3,2.4-5.2,3.8-8.6,3.8-4.9.2-3.2-3.6-3.2-3.6,1.8-.5,2.7-1.3,3.2-2.3.6-1.3.5-3,0-4.5v-.4l7-6.3c-.7,3.7-1.2,10.7,1.4,13.2h.1Z"/>
      <path class="st17" d="M352.2,66.5c-.4,2.4-3.3,4.9-5.8,5.6.6-1.3.5-3,0-4.5l5.8-4.5c.2,1.2.2,2.3,0,3.5Z"/>
      <path class="st6" d="M347.7,52.7c1.7,1.9.1,4.1-5.4,6.4-1.2-2.9-.4-7.7,1.4-8.5s2.5.4,3.9,2Z"/>
      <path class="st29" d="M355.4,58.8c-1.5,4.9-2.1,7.9-5.2,9.9-4.6,3-10.4-.8-10.4-6.1s2.4-12,7.7-12.8c3.8-.6,7.4,2,8,5.8.1,1.1,0,2.1-.2,3.2h.1Z"/>
      <path class="st6" d="M347.7,58.3c0,.4-.4.7-.7.6s-.4-.5-.4-.8.4-.7.6-.6.4.5.4.8h.1Z"/>
      <path class="st6" d="M343,57.2c0,.4-.4.7-.7.6s-.4-.5-.4-.8.4-.7.7-.6.4.5.4.8Z"/>
      <path class="st3" d="M344.5,57.8c-.8,1.1-1.7,2.1-2.7,3,.5.5,1.2.8,1.9.8l1-3.8s-.1,0-.1,0Z"/>
      <path class="st6" d="M349.2,57.2h.1c.1,0,.2-.2.1-.4-.4-.7-1-1.3-1.7-1.4-.1,0-.2,0-.2.2h0s0,.2.2.2h0c.6,0,1.1.6,1.3,1.2h.1,0Z"/>
      <path class="st6" d="M341.2,55.2h.2c.4-.5,1-.7,1.5-.7s.2,0,.2-.2,0-.2-.2-.2c-.8,0-1.5.4-2,1v.4h.2Z"/>
      <path class="st0" d="M354.5,53.9c-2.5.2-2.9,2.9-.5,8.5,2.9-1.3,5.5-5.4,4.8-7.2s-2-1.4-4.3-1.2h0Z"/>
      <path class="st29" d="M356.9,63.3c-.6,1.1-1.7,1.9-3,2.3-1.7.5-2.5-1.1-2-2.6.5-1.4,1.8-3.3,3.5-3.1,1.2,0,2,1.3,1.8,2.5,0,.4-.1.6-.4,1,0,0,.1,0,.1,0Z"/>
      <path class="st0" d="M349.6,51.8s-.5,5.1,4.2,6.7c4.6,1.5,6.4-1.2,6.4-1.2-.4,0-.8,0-1.2-.2,1.2-1.3,1.7-3.1,1.2-4.8-.8-2.7-5-6.3-8.8-6-2-1.3-4.5-1.7-6.9-1.1-3.8,1.1-4.3,5.5-4.3,5.5,0,0,.5-2.6,2.3-2.9,0,0-3.2,4.8-.7,6.9,0,0,1.7-5.1,7.9-3Z"/>
      <path class="st6" d="M342.7,63.6c.4.6.7,1.2,1,1.8h.4c1.5-.5,2.1-1.2,2.3-1.9v-1c0-.2,0-.4-.2-.5-.8.7-1.8,1.2-2.9,1.4h-.6.1Z"/>
      <path class="st7" d="M343.2,63.4l.2.5c1.4-.4,2.4-1,2.7-1.4,0-.2,0-.4-.2-.5-.8.7-1.8,1.2-2.9,1.4h.1Z"/>
      <path class="st25" d="M344,65.2c1.5-.5,2.1-1.2,2.3-1.8-.6.2-1.1.5-1.7.8-.4.2-.6.6-.7,1h.1Z"/>
    </g>
  </g>
</svg>