<?xml version="1.0" encoding="UTF-8"?>
<svg id="Layer_1" xmlns="http://www.w3.org/2000/svg" version="1.1" viewBox="0 0 500 500">
  <!-- Generator: Adobe Illustrator 29.1.0, SVG Export Plug-In . SVG Version: 2.1.0 Build 142)  -->
  <defs>
    <style>
      .st0 {
        fill: #393035;
      }

      .st1 {
        fill: #004a99;
      }

      .st2 {
        fill: #ebb376;
      }

      .st3 {
        fill: #892b29;
      }

      .st4, .st5 {
        opacity: .6;
      }

      .st6 {
        fill: #263238;
      }

      .st7, .st5, .st8, .st9, .st10, .st11, .st12, .st13, .st14 {
        fill: #fff;
      }

      .st5, .st8, .st9, .st10, .st11, .st15, .st16, .st17, .st12, .st13, .st14 {
        isolation: isolate;
      }

      .st18 {
        fill: #d08245;
      }

      .st8, .st15 {
        opacity: .4;
      }

      .st19 {
        fill: #a30c15;
      }

      .st20 {
        fill: #e0e0e0;
      }

      .st21 {
        fill: #e4897b;
      }

      .st9 {
        stroke: #2e3192;
        stroke-miterlimit: 10;
      }

      .st10 {
        opacity: .5;
      }

      .st11 {
        opacity: .7;
      }

      .st22 {
        fill: #e6ae76;
      }

      .st16 {
        opacity: .3;
      }

      .st17, .st12 {
        opacity: .2;
      }

      .st23 {
        fill: #ebebeb;
      }

      .st24 {
        fill: #b36616;
      }

      .st25 {
        fill: #de5753;
      }

      .st26 {
        fill: #f5f5f5;
      }

      .st27 {
        fill: #fafafa;
      }

      .st13 {
        opacity: .8;
      }

      .st28 {
        fill: #d58745;
      }

      .st29 {
        fill: #9f5b53;
      }

      .st30 {
        fill: #e6e6e6;
      }

      .st14 {
        opacity: .1;
      }
    </style>
  </defs>
  <g id="freepik--background-complete--inject-29">
    <path class="st26" d="M367.3,101.4h71.5l-11.6,8.4v16.5c0,1.9-1.5,3.5-3.5,3.5h-56.4c-1.9,0-3.5-1.5-3.5-3.5h0v-21.5c0-1.9,1.5-3.5,3.5-3.5Z"/>
    <path class="st20" d="M370.3,113.1c0,0,10.8.1,24.1.1s24.1,0,24.1-.1-10.8-.1-24.1-.1-24.1,0-24.1.1Z"/>
    <path class="st20" d="M370.3,119.4c0,0,10.8.1,24.1.1s24.1,0,24.1-.1-10.8-.1-24.1-.1-24.1,0-24.1.1Z"/>
    <rect class="st20" x="255.4" y="40.4" width="3.3" height="11.2"/>
    <rect class="st20" x="227.5" y="38.8" width="3.3" height="12.8"/>
    <rect class="st20" x="234.5" y="36.1" width="3.3" height="15.5"/>
    <rect class="st20" x="241.5" y="36.9" width="3.3" height="14.6"/>
    <rect class="st20" x="248.4" y="32" width="3.3" height="19.6"/>
    <rect class="st20" x="262.4" y="32.1" width="3.3" height="19.5"/>
    <rect class="st20" x="269.4" y="38.5" width="3.3" height="13.1"/>
    <rect class="st20" x="276.4" y="32.9" width="3.3" height="18.7"/>
    <rect class="st20" x="283.4" y="28.7" width="3.3" height="22.8"/>
    <rect class="st20" x="290.3" y="32.9" width="3.3" height="18.7"/>
    <path class="st23" d="M381.8,50.6l27.7-4.2c2.3,15.3-8.1,29.6-23.4,31.9-15.3,2.3-29.6-8.1-31.9-23.4-2.3-15.3,8.1-29.6,23.4-31.9,2.4-.4,4.9-.4,7.3-.2l-3.1,27.8Z"/>
    <path class="st20" d="M390.8,22.8l-3.4,21.4,21.1-4s-3.1-12-17.7-17.5Z"/>
    <path class="st26" d="M169.5,23.2h-76.9l12.5,9v17.8c0,2,1.7,3.7,3.7,3.7,0,0,0,0,0,0h60.7c2.1,0,3.7-1.7,3.7-3.7h0v-23.1c0-2.1-1.7-3.7-3.7-3.7,0,0,0,0,0,0Z"/>
    <path class="st20" d="M166.3,35.8c0,0-11.6.1-25.9.1s-25.9,0-25.9-.1,11.6-.1,25.9-.1,25.9,0,25.9.1Z"/>
    <path class="st20" d="M166.3,42.6c0,0-11.6.1-25.9.1s-25.9,0-25.9-.1,11.6-.1,25.9-.1,25.9,0,25.9.1Z"/>
  </g>
  <g id="freepik--background-complete--inject-206">
    <rect class="st26" x="281.2" y="286.8" width="151.1" height="124.1"/>
    <polygon class="st23" points="281.2 289.3 438.4 289.3 410.4 252.7 281.2 252.7 281.2 289.3"/>
    <path class="st30" d="M394.4,373.8c0-6.9,5.6-12.5,12.5-12.5s12.5,5.6,12.5,12.5v30.9h-25.1v-30.9Z"/>
    <path class="st30" d="M350.3,373.8c0-6.9,5.6-12.5,12.5-12.5s12.5,5.6,12.5,12.5v30.9h-25.1v-30.9Z"/>
    <path class="st30" d="M306.1,373.8c-.2-6.9,5.3-12.7,12.2-12.9,6.9-.2,12.7,5.3,12.9,12.2,0,.2,0,.5,0,.7v30.9h-25.1v-30.9Z"/>
    <path class="st30" d="M394.4,306.6c0-6.9,5.6-12.5,12.5-12.5s12.5,5.6,12.5,12.5v30.9h-25.1v-30.9Z"/>
    <path class="st30" d="M350.3,306.6c0-6.9,5.6-12.5,12.5-12.5s12.5,5.6,12.5,12.5v30.9h-25.1v-30.9Z"/>
    <path class="st30" d="M306.1,306.6c-.2-6.9,5.3-12.7,12.2-12.9,6.9-.2,12.7,5.3,12.9,12.2,0,.2,0,.5,0,.7v30.9h-25.1v-30.9Z"/>
    <rect class="st30" x="287.2" y="342.2" width="151.2" height="7.1"/>
    <rect class="st26" x="69.1" y="286.8" width="151.1" height="124.1"/>
    <polygon class="st23" points="220.2 289.3 63 289.3 91 252.7 220.2 252.7 220.2 289.3"/>
    <path class="st30" d="M107,373.8c0-6.9-5.6-12.5-12.5-12.5-6.9,0-12.5,5.6-12.5,12.5v30.9h25.1v-30.9Z"/>
    <path class="st30" d="M151.1,373.8c0-6.9-5.6-12.5-12.5-12.5-6.9,0-12.5,5.6-12.5,12.5h0v31h25.1v-30.9Z"/>
    <path class="st30" d="M195.2,373.8c.2-6.9-5.3-12.7-12.2-12.9-6.9-.2-12.7,5.3-12.9,12.2,0,.2,0,.5,0,.7v30.9h25.1v-30.9Z"/>
    <path class="st30" d="M107,306.6c0-6.9-5.6-12.5-12.5-12.5-6.9,0-12.5,5.6-12.5,12.5v30.9h25.1v-30.9Z"/>
    <path class="st30" d="M151.1,306.6c0-6.9-5.6-12.5-12.5-12.5-6.9,0-12.5,5.6-12.5,12.5h0v31h25.1v-30.9Z"/>
    <path class="st30" d="M195.2,306.6c.2-6.9-5.3-12.7-12.2-12.9-6.9-.2-12.7,5.3-12.9,12.2,0,.2,0,.5,0,.7v30.9h25.1v-30.9Z"/>
    <rect class="st30" x="63" y="342.2" width="151.2" height="7.1"/>
    <rect class="st26" x="203.9" y="300.9" width="94.1" height="110"/>
    <polygon class="st26" points="286.3 297.6 215.6 297.6 215.6 214.9 250.9 184 286.3 214.9 286.3 297.6"/>
    <path class="st30" d="M273.2,355.9c-.3-12.3-10.4-22.1-22.7-21.8-11.9.2-21.6,9.9-21.8,21.8v55h44.6v-55Z"/>
    <rect class="st30" x="199.8" y="294.4" width="102.2" height="7.1"/>
    <circle class="st30" cx="250.9" cy="225.2" r="21.4" transform="translate(-11.6 436.8) rotate(-80.8)"/>
    <path class="st27" d="M251.7,229.8h-3.6l.5-20.5c0-.7.6-1.2,1.3-1.2h0c.7,0,1.2.5,1.3,1.2l.6,20.5Z"/>
    <path class="st27" d="M248.1,229.8v-3.6l14.5.5c.5,0,.9.6.9,1.3h0c0,.7-.4,1.2-.9,1.3l-14.5.5Z"/>
  </g>
  <g id="freepik--Test--inject-3" class="st4">
    <rect class="st1" x="99.7" y="50.9" width="224.6" height="212.7"/>
    <rect class="st11" x="99.7" y="50.9" width="224.6" height="212.7"/>
    <rect class="st1" x="99.7" y="50.9" width="224.6" height="10.8"/>
    <rect class="st17" x="316.9" y="61.7" width="7.4" height="202"/>
    <path class="st5" d="M320.4,66.5h.7c1,0,1.9.8,1.9,1.9v24.4c0,1-.8,1.9-1.9,1.9h-.7c-1,0-1.9-.8-1.9-1.9v-24.4c0-1.1.8-1.9,1.9-1.9Z"/>
    <path class="st17" d="M312,201.3H104.4c-.3,0-.6-.3-.6-.6s.3-.6.6-.6h207.6c.3,0,.6.3.6.6s-.3.6-.6.6Z"/>
    <path class="st17" d="M312,152.8H104.4c-.3,0-.6-.3-.6-.6s.3-.6.6-.6h207.6c.3,0,.6.3.6.6s-.3.6-.6.6Z"/>
    <rect class="st1" x="104.4" y="66.5" width="207.6" height="31.7"/>
    <path class="st5" d="M321.8,56.3c0,1.5-1.2,2.7-2.7,2.7s-2.7-1.2-2.7-2.7,1.2-2.7,2.7-2.7,2.7,1.2,2.7,2.7h0Z"/>
    <path class="st5" d="M312.2,56.3c0,1.5-1.2,2.7-2.7,2.7s-2.7-1.2-2.7-2.7,1.2-2.7,2.7-2.7,2.7,1.2,2.7,2.7h0Z"/>
    <path class="st5" d="M302.6,56.3c0,1.5-1.2,2.7-2.7,2.7s-2.7-1.2-2.7-2.7,1.2-2.7,2.7-2.7,2.7,1.2,2.7,2.7h0Z"/>
    <path class="st15" d="M113.3,119.5c-3.7,0-6.6-3-6.6-6.6s3-6.6,6.6-6.6,6.6,3,6.6,6.6h0c0,3.6-2.9,6.6-6.6,6.6Z"/>
    <path class="st7" d="M114.1,110.3v5h-1.1v-4.1h-1v-.9h2.1Z"/>
    <path class="st15" d="M126.2,106.4h176.8c.7,0,1.3.6,1.3,1.3v.8c0,.7-.6,1.3-1.3,1.3H126.2c-.7,0-1.3-.6-1.3-1.3v-.8c0-.7.6-1.3,1.3-1.3Z"/>
    <path class="st15" d="M126.2,115.2h176.8c.7,0,1.3.6,1.3,1.3v.8c0,.7-.6,1.3-1.3,1.3H126.2c-.7,0-1.3-.6-1.3-1.3v-.8c0-.8.6-1.3,1.3-1.3Z"/>
    <path class="st15" d="M126.2,123.9h115.7c.7,0,1.3.6,1.3,1.3v.8c0,.7-.6,1.3-1.3,1.3h-115.7c-.7,0-1.3-.6-1.3-1.3v-.8c0-.7.6-1.3,1.3-1.3Z"/>
    <circle class="st17" cx="128" cy="140.7" r="3.1"/>
    <path class="st7" d="M130.1,140.7c0,1.2-.9,2.1-2.1,2.1s-2.1-.9-2.1-2.1.9-2.1,2.1-2.1h0c1.2,0,2.1,1,2.1,2.1h0Z"/>
    <path class="st15" d="M138.1,139.1h29.9c.7,0,1.3.6,1.3,1.3v.8c0,.7-.6,1.3-1.3,1.3h-29.9c-.7,0-1.3-.6-1.3-1.3v-.8c0-.8.6-1.3,1.3-1.3Z"/>
    <path class="st17" d="M193.7,140.7c0,1.7-1.4,3.1-3.1,3.1s-3.1-1.4-3.1-3.1,1.4-3.1,3.1-3.1,3.1,1.4,3.1,3.1h0Z"/>
    <path class="st1" d="M192.8,140.7c0,1.2-.9,2.1-2.1,2.1s-2.1-.9-2.1-2.1.9-2.1,2.1-2.1h0c1.1,0,2,.9,2.1,2.1Z"/>
    <path class="st15" d="M200.7,139h29.9c.7,0,1.3.6,1.3,1.3v.8c0,.7-.6,1.3-1.3,1.3h-29.9c-.7,0-1.3-.6-1.3-1.3v-.8c0-.7.6-1.3,1.3-1.3Z"/>
    <path class="st17" d="M256.3,140.6c0,1.7-1.4,3.1-3.1,3.1s-3.1-1.4-3.1-3.1,1.4-3.1,3.1-3.1,3.1,1.4,3.1,3.1h0Z"/>
    <path class="st7" d="M255.4,140.6c0,1.2-1,2.1-2.1,2.1s-2.1-1-2.1-2.1,1-2.1,2.1-2.1,2.1.9,2.1,2.1h0Z"/>
    <path class="st15" d="M263.3,138.9h29.9c.7,0,1.3.6,1.3,1.3v.8c0,.7-.6,1.3-1.3,1.3h-29.9c-.7,0-1.3-.6-1.3-1.3v-.8c0-.7.6-1.3,1.3-1.3Z"/>
    <circle class="st15" cx="113.3" cy="169.1" r="6.6"/>
    <path class="st7" d="M115.2,170.7v.9h-3.8v-.8l1.9-1.8c.5-.4.5-.7.5-.9s-.3-.6-.8-.6-.8.2-1,.5l-.8-.6c.5-.6,1.2-1,2-.9,1.1,0,1.9.6,1.9,1.5s-.3,1.2-.8,1.6l-1.1,1.1h2Z"/>
    <path class="st15" d="M126.2,162.7h176.8c.7,0,1.3.6,1.3,1.3v.8c0,.7-.6,1.3-1.3,1.3H126.2c-.7,0-1.3-.6-1.3-1.3v-.8c0-.8.6-1.3,1.3-1.3Z"/>
    <path class="st15" d="M126.2,171.4h33.6c.7,0,1.3.6,1.3,1.3v.8c0,.7-.6,1.3-1.3,1.3h-33.6c-.7,0-1.3-.6-1.3-1.3v-.8c0-.7.6-1.3,1.3-1.3Z"/>
    <circle class="st17" cx="128" cy="188.1" r="3.1"/>
    <circle class="st7" cx="128" cy="188.1" r="2.1"/>
    <path class="st15" d="M138.1,186.4h29.9c.7,0,1.3.6,1.3,1.3v.8c0,.7-.6,1.3-1.3,1.3h-29.9c-.7,0-1.3-.6-1.3-1.3v-.8c0-.7.6-1.3,1.3-1.3Z"/>
    <circle class="st17" cx="190.6" cy="188" r="3.1"/>
    <circle class="st7" cx="190.6" cy="188" r="2.1"/>
    <path class="st15" d="M200.7,186.3h29.9c.7,0,1.3.6,1.3,1.3v.8c0,.7-.6,1.3-1.3,1.3h-29.9c-.7,0-1.3-.6-1.3-1.3v-.8c0-.7.6-1.3,1.3-1.3Z"/>
    <path class="st17" d="M256.3,188c0,1.7-1.4,3.1-3.1,3.1s-3.1-1.4-3.1-3.1,1.4-3.1,3.1-3.1,3.1,1.4,3.1,3.1h0Z"/>
    <path class="st1" d="M255.4,188c0,1.2-1,2.1-2.1,2.1s-2.1-1-2.1-2.1,1-2.1,2.1-2.1,2.1.9,2.1,2.1h0Z"/>
    <path class="st15" d="M263.3,186.3h29.9c.7,0,1.3.6,1.3,1.3v.8c0,.7-.6,1.3-1.3,1.3h-29.9c-.7,0-1.3-.6-1.3-1.3v-.8c0-.8.6-1.3,1.3-1.3Z"/>
    <path class="st15" d="M113.3,224.5c-3.7,0-6.6-3-6.6-6.6s3-6.6,6.6-6.6,6.6,3,6.6,6.6-2.9,6.6-6.6,6.6h0Z"/>
    <path class="st7" d="M115.2,218.8c0,.8-.7,1.6-2.1,1.6s-1.3-.2-1.9-.5l.5-.9c.4.3.9.5,1.4.5s.9-.2.9-.6-.3-.6-.9-.6h-.5v-.8l1-1.1h-2.1v-.9h3.6v.8l-1.1,1.3c.6-.1,1.2.5,1.2,1.2Z"/>
    <path class="st15" d="M126.2,211.4h176.8c.7,0,1.3.6,1.3,1.3v.8c0,.7-.6,1.3-1.3,1.3H126.2c-.7,0-1.3-.6-1.3-1.3v-.8c0-.7.6-1.3,1.3-1.3Z"/>
    <path class="st15" d="M126.2,220.2h176.8c.7,0,1.3.6,1.3,1.3v.8c0,.7-.6,1.3-1.3,1.3H126.2c-.7,0-1.3-.6-1.3-1.3v-.8c0-.7.6-1.3,1.3-1.3Z"/>
    <path class="st15" d="M126.2,229h88.6c.7,0,1.3.6,1.3,1.3v.8c0,.7-.6,1.3-1.3,1.3h-88.6c-.7,0-1.3-.6-1.3-1.3v-.8c0-.8.6-1.3,1.3-1.3Z"/>
    <path class="st15" d="M188,242.9h5.3c.2,0,.5.2.5.5v5.3c0,.2-.2.5-.5.5h-5.3c-.2,0-.5-.2-.5-.5v-5.3c0-.3.2-.5.5-.5Z"/>
    <rect class="st7" x="188.3" y="243.7" width="4.7" height="4.7"/>
    <path class="st15" d="M200.7,244.3h29.9c.7,0,1.3.6,1.3,1.3v.8c0,.7-.6,1.3-1.3,1.3h-29.9c-.7,0-1.3-.6-1.3-1.3v-.8c0-.7.6-1.3,1.3-1.3Z"/>
    <path class="st1" d="M190.4,247.4c0,0-.1,0-.2-.1l-1.1-1.1c-.1-.1-.1-.3,0-.4.1-.1.3-.1.4,0h0l1,.9,1.6-1.9c.1-.1.3-.1.4,0s.1.3,0,.4l-1.9,2.2h-.2Z"/>
    <path class="st15" d="M250.6,242.8h5.3c.2,0,.5.2.5.5v5.3c0,.2-.2.5-.5.5h-5.3c-.2,0-.5-.2-.5-.5v-5.3c0-.2.3-.5.5-.5h0Z"/>
    <rect class="st7" x="250.9" y="243.6" width="4.7" height="4.7"/>
    <path class="st15" d="M263.3,244.2h29.9c.7,0,1.3.6,1.3,1.3v.8c0,.7-.6,1.3-1.3,1.3h-29.9c-.7,0-1.3-.6-1.3-1.3v-.8c0-.7.6-1.3,1.3-1.3Z"/>
    <path class="st1" d="M253,247.3c0,0-.1,0-.2-.1l-1.1-1.1c-.1-.1-.2-.3-.1-.4s.3-.2.4-.1h.1c0,.1.9,1,.9,1l1.6-1.9c.1-.1.3-.2.4-.1s.2.3.1.4h0l-1.8,2.2s-.2.1-.3.1h0Z"/>
    <path class="st15" d="M125.4,243h5.3c.2,0,.5.2.5.5v5.3c0,.2-.2.5-.5.5h-5.3c-.2,0-.5-.2-.5-.5v-5.3c0-.3.2-.5.5-.5Z"/>
    <rect class="st7" x="125.7" y="243.7" width="4.7" height="4.7"/>
    <path class="st15" d="M138.1,244.4h29.9c.7,0,1.3.6,1.3,1.3v.8c0,.7-.6,1.3-1.3,1.3h-29.9c-.7,0-1.3-.6-1.3-1.3v-.8c0-.7.6-1.3,1.3-1.3Z"/>
    <path class="st7" d="M114.4,81.3c0-2.4,1.7-4.4,4.1-4.6,2.4,0,4.4,1.7,4.6,4.1,0,2.4-1.7,4.4-4.1,4.6h-.3c-2.2,0-4.2-1.6-4.3-3.8,0,0,0-.2,0-.3ZM121.1,81.3c0-1.4-1.2-2.5-2.5-2.4-1.4,0-2.5,1.2-2.4,2.5,0,1.3,1.1,2.4,2.5,2.4s2.4-1,2.5-2.3v-.2h0Z"/>
    <path class="st7" d="M130.4,81.8v3.5h-1.7v-3.2c0-1-.5-1.4-1.2-1.4s-1.5.5-1.5,1.6v3h-1.7v-6.1h1.7v.7c.5-.5,1.3-.8,2-.8,1.3,0,2.4.9,2.5,2.2,0,.2,0,.4-.1.5Z"/>
    <path class="st7" d="M132,76.9h1.7v8.4h-1.7v-8.4Z"/>
    <path class="st7" d="M135.2,77.4c0-.6.5-1,1-1h.1c.5,0,1,.3,1.1.8h0c-.2.7-.8,1.1-1.4.9-.3,0-.6-.3-.8-.7h0ZM135.4,79.2h1.8v6.1h-1.8v-6.1Z"/>
    <path class="st7" d="M145,81.8v3.5h-1.8v-3.2c0-1-.5-1.4-1.2-1.4s-1.4.5-1.4,1.6v3h-1.8v-6.1h1.7v.7c.5-.5,1.2-.8,2-.8,1.3,0,2.5.9,2.6,2.2-.1.2-.1.4-.1.5Z"/>
    <path class="st7" d="M152.5,82.8h-4.5c.2.8.9,1.3,1.7,1.2.6,0,1.1-.2,1.5-.6l.9,1c-.6.7-1.6,1-2.5,1-1.7.2-3.3-1.1-3.4-2.8v-.3c0-1.7,1.3-3.1,3.1-3.1h.2c1.7,0,3.1,1.2,3.1,2.8v.3s-.1.3-.1.5ZM147.9,81.7h3c-.1-.8-.9-1.4-1.8-1.2-.6,0-1.1.6-1.2,1.2Z"/>
    <path class="st7" d="M158.7,78.9h-2.5v-1.5h6.9v1.5h-2.5v6.4h-1.8v-6.4h0Z"/>
    <path class="st7" d="M169.2,82.8h-4.6c.2.8.9,1.3,1.7,1.2.6,0,1.1-.2,1.5-.6l.9,1c-.6.7-1.6,1-2.5,1-1.7.2-3.3-1.1-3.4-2.8v-.3c0-1.7,1.3-3.1,3.1-3.1h.2c1.7,0,3.1,1.2,3.2,2.8v.8h0ZM164.6,81.7h3c-.1-.8-.9-1.4-1.8-1.2-.6,0-1.1.6-1.2,1.2Z"/>
    <path class="st7" d="M169.8,84.7l.6-1.3c.6.4,1.4.6,2.1.6s1.1-.2,1.1-.5c0-1-3.7,0-3.7-2.4s1-2,2.8-2,1.6.2,2.3.5l-.6,1.3c-.5-.3-1.1-.5-1.7-.5s-1.1.2-1.1.6c0,1,3.7,0,3.7,2.4s-1,1.9-2.9,1.9c-.9,0-1.8,0-2.6-.6h0Z"/>
    <path class="st7" d="M180.2,85c-.4.3-.9.4-1.4.4-1.1.2-2.1-.6-2.2-1.7v-3h-.9v-1.4h.9v-1.5h1.7v1.5h1.5v1.4h-1.5v2.5c-.1.4.2.7.6.8h.2c.3,0,.5,0,.7-.2,0,0,.4,1.2.4,1.2Z"/>
    <circle class="st7" cx="293.6" cy="82.5" r="8.9"/>
    <path class="st17" d="M301.5,78.3l-7.9,4.2v-8.9c3.4,0,6.4,1.8,7.9,4.7Z"/>
  </g>
  <g id="freepik--Shadow--inject-35">
    <ellipse id="freepik--path--inject-35" class="st26" cx="247.2" cy="416.2" rx="197.1" ry="11.3"/>
  </g>
  <g id="freepik--Table--inject-35">
    <polygon class="st6" points="167.7 419 161.6 419 150.5 265.7 158.7 265.7 167.7 419"/>
    <polygon class="st8" points="167.7 419 161.6 419 151.1 273.4 150.5 266 158.7 266 159.1 273.4 167.7 419"/>
    <polygon class="st17" points="159.1 273 151.1 273 150.5 266 158.7 266 159.1 273"/>
    <polygon class="st6" points="312.6 419 306.5 419 305.5 265.7 313.6 265.7 312.6 419"/>
    <polygon class="st10" points="313.6 266 313.5 290.7 312.6 419 306.5 419 305.7 290.7 305.5 266 313.6 266"/>
    <polygon class="st17" points="313.6 266 313.5 291 305.7 291 305.5 266 313.6 266"/>
    <polygon class="st6" points="377.7 419 371.5 419 360.5 265.7 368.7 265.7 377.7 419"/>
    <polygon class="st10" points="377.7 419 371.5 419 361.1 273.4 360.5 266 368.7 266 369.1 273.4 377.7 419"/>
    <polygon class="st17" points="369.1 273 361.1 273 360.5 266 368.7 266 369.1 273"/>
    <polygon class="st6" points="97.6 419 91.5 419 100.5 265.7 108.6 265.7 97.6 419"/>
    <polygon class="st10" points="108.6 266 108.1 273.4 97.6 419 91.5 419 100 273.4 100.5 266 108.6 266"/>
    <polygon class="st17" points="100.5 266 108.6 266 108.1 273 100 273 100.5 266"/>
    <path class="st1" d="M94,261.9h281.1v5.5c0,1.2-1,2.2-2.2,2.2H96.2c-1.2,0-2.2-.9-2.2-2.1h0v-5.6h0Z"/>
    <path class="st5" d="M94,261.9h281.1v5.5c0,1.2-1,2.2-2.2,2.2H96.2c-1.2,0-2.2-.9-2.2-2.1h0v-5.6h0Z"/>
    <rect class="st17" x="94" y="261.9" width="281.1" height="3.8"/>
    <path class="st1" d="M378.9,262.9H90.2c-1.2,0-2.2-1-2.2-2.2h0c0-1.2,1-2.2,2.2-2.2h288.7c1.2,0,2.2,1,2.2,2.2h0c0,1.2-1,2.2-2.2,2.2h0Z"/>
    <path class="st5" d="M378.9,262.9H90.2c-1.2,0-2.2-1-2.2-2.2h0c0-1.2,1-2.2,2.2-2.2h288.7c1.2,0,2.2,1,2.2,2.2h0c0,1.2-1,2.2-2.2,2.2h0Z"/>
  </g>
  <g id="freepik--device-1--inject-35">
    <polygon class="st6" points="188.9 226.7 198.5 226.7 195.9 254 217.3 256.3 217.3 258.1 171.1 258.1 171.1 256.3 185.7 254 188.9 226.7"/>
    <polygon class="st14" points="188.9 226.7 198.5 226.7 195.9 254 217.3 256.3 217.3 258.1 171.1 258.1 171.1 256.3 185.7 254 188.9 226.7"/>
    <path class="st6" d="M151.3,238.7h89.2c2.7,0,4.8-2.1,4.9-4.8v-.5l-5-56.7c-.3-3-2.8-5.3-5.8-5.3h-89.1c-2.7,0-4.8,2.1-4.9,4.8v.5l5,56.7c.3,3,2.7,5.2,5.7,5.3Z"/>
    <path class="st1" d="M156,235h79.3c2.4,0,4.3-1.8,4.3-4.2v-.5l-4.4-50.4c-.3-2.7-2.5-4.7-5.1-4.7h-79.3c-2.4,0-4.3,1.8-4.3,4.2v.5l4.4,50.4c.2,2.6,2.4,4.6,5.1,4.7h0Z"/>
    <path class="st11" d="M156,235h79.3c2.4,0,4.3-1.8,4.3-4.2v-.5l-4.4-50.4c-.3-2.7-2.5-4.7-5.1-4.7h-79.3c-2.4,0-4.3,1.8-4.3,4.2v.5l4.4,50.4c.2,2.6,2.4,4.6,5.1,4.7h0Z"/>
    <polygon class="st7" points="221.6 181.2 186.6 181.2 186.6 180.5 221.6 180.5 221.6 181.2"/>
    <polygon class="st7" points="222.1 183.2 198.1 183.2 198.1 182.5 222.1 182.5 222.1 183.2"/>
    <polygon class="st7" points="222.2 185.2 202.6 185.2 202.5 184.5 222.2 184.5 222.2 185.2"/>
    <polygon class="st7" points="222.5 187.2 197 187.2 197 186.5 222.5 186.5 222.5 187.2"/>
    <polygon class="st7" points="222.8 189.2 205.8 189.2 205.8 188.5 222.7 188.5 222.8 189.2"/>
    <polygon class="st7" points="223.5 195.3 188.5 195.3 188.5 194.6 223.5 194.6 223.5 195.3"/>
    <polygon class="st7" points="223.8 197.2 192.7 197.2 192.6 196.6 223.8 196.6 223.8 197.2"/>
    <polygon class="st7" points="224.1 199.3 204.5 199.3 204.4 198.6 224.1 198.6 224.1 199.3"/>
    <polygon class="st7" points="224.3 201.3 198.8 201.3 198.8 200.6 224.3 200.6 224.3 201.3"/>
    <polygon class="st7" points="224.6 203.2 194.1 203.2 194.1 202.6 224.6 202.6 224.6 203.2"/>
    <polygon class="st7" points="224.2 206.4 189.3 206.4 189.2 205.7 224.2 205.7 224.2 206.4"/>
    <polygon class="st7" points="224.8 208.4 200.7 208.4 200.7 207.7 224.7 207.7 224.8 208.4"/>
    <polygon class="st7" points="224.8 210.4 205.2 210.4 205.1 209.7 224.8 209.7 224.8 210.4"/>
    <polygon class="st7" points="225.1 212.4 199.6 212.4 199.6 211.7 225.1 211.7 225.1 212.4"/>
    <polygon class="st7" points="225.4 214.4 208.4 214.4 208.4 213.7 225.3 213.7 225.4 214.4"/>
    <polygon class="st7" points="226.1 220.5 191.1 220.5 191.1 219.8 226.1 219.8 226.1 220.5"/>
    <polygon class="st7" points="226.4 222.5 195.3 222.5 195.2 221.8 226.4 221.8 226.4 222.5"/>
    <polygon class="st7" points="226.7 224.5 207.1 224.5 207 223.8 226.7 223.8 226.7 224.5"/>
    <polygon class="st7" points="226.9 226.5 201.4 226.5 201.4 225.8 226.9 225.8 226.9 226.5"/>
    <polygon class="st7" points="227.2 228.5 196.7 228.5 196.7 227.8 227.2 227.8 227.2 228.5"/>
    <path class="st1" d="M175.5,191.2h-12c-1.5,0-2.8-1.2-2.9-2.7l-.5-5.8c-.1-1.6,1.1-3,2.7-3.2h12.3c1.5,0,2.8,1.2,2.9,2.7l.5,5.8c.1,1.6-1,3-2.6,3.2h-.4Z"/>
    <path class="st1" d="M175.5,191.2h-12c-1.5,0-2.8-1.2-2.9-2.7l-.5-5.8c-.1-1.6,1.1-3,2.7-3.2h12.3c1.5,0,2.8,1.2,2.9,2.7l.5,5.8c.1,1.6-1,3-2.6,3.2h-.4Z"/>
    <path class="st6" d="M174.8,190.6h-10.7c-1.5,0-2.8-1.2-2.9-2.7l-.3-3c-.1-1.6,1.1-3,2.7-3.2h11c1.5,0,2.8,1.2,2.9,2.7l.3,3c.2,1.6-1,3-2.6,3.2h-.4Z"/>
    <polygon class="st7" points="174.4 183.3 166.6 183.3 166.6 183 174.4 183 174.4 183.3"/>
    <polygon class="st7" points="170.4 184 166.7 184 166.7 183.8 170.4 183.8 170.4 184"/>
    <polygon class="st7" points="171.5 184.8 166.7 184.8 166.7 184.5 171.4 184.5 171.5 184.8"/>
    <polygon class="st7" points="168.5 185.5 166.8 185.5 166.8 185.3 168.5 185.3 168.5 185.5"/>
    <polygon class="st7" points="168 186.3 166.9 186.3 166.9 186 167.9 186 168 186.3"/>
    <polygon class="st7" points="174.9 187 167.1 187 167.1 186.7 174.9 186.7 174.9 187"/>
    <polygon class="st7" points="170.9 187.7 167.2 187.7 167.2 187.5 170.9 187.5 170.9 187.7"/>
    <polygon class="st7" points="172 188.4 167.3 188.4 167.2 188.2 171.9 188.2 172 188.4"/>
    <polygon class="st7" points="169 189.2 167.3 189.2 167.3 189 169 189 169 189.2"/>
    <polygon class="st7" points="168.5 189.9 167.4 189.9 167.4 189.7 168.4 189.7 168.5 189.9"/>
    <path class="st7" d="M165.7,189.3h-2.4c-.5,0-1-.4-1-.9l-.5-4.3c-.1-.6.3-1.1.9-1.1h2.5c.5,0,1,.4,1,.9l.5,4.3c.1.6-.3,1.1-.9,1.1h-.1Z"/>
    <path class="st6" d="M162.7,189h3.8l-.2-1.4c-.4-.4-.9-.6-1.5-.6.6-.2.9-.8.9-1.4-.1-1-.4-1.9-1.4-1.9s-1.2,1-1.2,1.9.4,1.1.9,1.4c-.5-.1-1.1.1-1.4.5v1.5h0Z"/>
    <path class="st1" d="M177,203.7h-12.6c-1.3,0-2.5-1-2.6-2.4l-.6-6.5c-.1-1.4.9-2.7,2.3-2.8h12.9c1.3,0,2.5,1,2.6,2.3l.6,6.5c.1,1.4-.9,2.7-2.3,2.8h-.3,0Z"/>
    <path class="st1" d="M177,203.7h-12.6c-1.3,0-2.5-1-2.6-2.4l-.6-6.5c-.1-1.4.9-2.7,2.3-2.8h12.9c1.3,0,2.5,1,2.6,2.3l.6,6.5c.1,1.4-.9,2.7-2.3,2.8h-.3,0Z"/>
    <path class="st6" d="M176.3,203.2h-11.3c-1.3,0-2.4-1-2.6-2.3l-.3-3.7c-.1-1.4.9-2.7,2.3-2.8h11.6c1.3,0,2.5,1,2.6,2.3l.3,3.7c.1,1.4-.9,2.7-2.4,2.8h-.2Z"/>
    <polygon class="st7" points="175.6 195.8 167.8 195.8 167.7 195.6 175.5 195.6 175.6 195.8"/>
    <polygon class="st7" points="171.6 196.6 167.8 196.6 167.8 196.3 171.5 196.3 171.6 196.6"/>
    <polygon class="st7" points="172.6 197.3 167.9 197.3 167.9 197.1 172.6 197.1 172.6 197.3"/>
    <polygon class="st7" points="169.6 198.1 167.9 198.1 167.9 197.8 169.6 197.8 169.6 198.1"/>
    <polygon class="st7" points="169.1 198.8 168 198.8 168 198.6 169.1 198.6 169.1 198.8"/>
    <polygon class="st7" points="176.1 199.5 168.3 199.5 168.2 199.3 176 199.3 176.1 199.5"/>
    <polygon class="st7" points="172.1 200.3 168.3 200.3 168.3 200 172 200 172.1 200.3"/>
    <polygon class="st7" points="173.1 201 168.4 201 168.4 200.8 173.1 200.8 173.1 201"/>
    <polygon class="st7" points="170.1 201.8 168.5 201.8 168.4 201.5 170.1 201.5 170.1 201.8"/>
    <polygon class="st7" points="169.6 202.5 168.5 202.5 168.5 202.3 169.6 202.3 169.6 202.5"/>
    <path class="st7" d="M166.4,201.9h-1.5c-.7,0-1.4-.5-1.4-1.3l-.4-3.4c-.1-.8.5-1.5,1.2-1.6h1.7c.7,0,1.4.5,1.4,1.3l.4,3.5c.1.8-.5,1.5-1.3,1.6h0c0-.1,0-.1,0-.1Z"/>
    <path class="st6" d="M163.8,201.6h3.8l-.2-1.4c-.4-.4-.9-.6-1.5-.6.6-.2.9-.8.9-1.4-.1-1-.4-1.9-1.4-1.9s-1.2,1-1.2,1.9.4,1.1.9,1.4c-.6-.2-1,.2-1.4.5v1.5h0Z"/>
    <path class="st1" d="M178.2,216.6h-12.6c-1.4,0-2.5-1.1-2.6-2.4l-.6-6.5c-.1-1.4.9-2.7,2.3-2.8h12.9c1.4,0,2.5,1.1,2.6,2.4l.6,6.5c.1,1.4-.9,2.7-2.4,2.8h-.2Z"/>
    <path class="st1" d="M178.2,216.6h-12.6c-1.4,0-2.5-1.1-2.6-2.4l-.6-6.5c-.1-1.4.9-2.7,2.3-2.8h12.9c1.4,0,2.5,1.1,2.6,2.4l.6,6.5c.1,1.4-.9,2.7-2.4,2.8h-.2Z"/>
    <path class="st6" d="M177.5,216h-11.3c-1.4,0-2.5-1.1-2.6-2.4l-.3-3.6c-.1-1.4,1-2.7,2.4-2.8h11.5c1.4,0,2.5,1.1,2.6,2.4l.3,3.7c.1,1.4-1,2.6-2.4,2.7h-.2Z"/>
    <polygon class="st7" points="176.7 208.7 168.9 208.7 168.9 208.4 176.7 208.4 176.7 208.7"/>
    <polygon class="st7" points="172.7 209.5 169 209.5 168.9 209.2 172.7 209.2 172.7 209.5"/>
    <polygon class="st7" points="173.8 210.2 169 210.2 169 209.9 173.7 209.9 173.8 210.2"/>
    <polygon class="st7" points="170.8 210.9 169.1 210.9 169.1 210.7 170.8 210.7 170.8 210.9"/>
    <polygon class="st7" points="170.3 211.7 169.2 211.7 169.2 211.4 170.2 211.4 170.3 211.7"/>
    <polygon class="st7" points="177.2 212.4 169.4 212.4 169.4 212.1 177.2 212.1 177.2 212.4"/>
    <polygon class="st7" points="173.2 213.1 169.5 213.1 169.5 212.9 173.2 212.9 173.2 213.1"/>
    <polygon class="st7" points="174.3 213.9 169.6 213.9 169.5 213.6 174.2 213.6 174.3 213.9"/>
    <polygon class="st7" points="171.3 214.6 169.6 214.6 169.6 214.4 171.3 214.4 171.3 214.6"/>
    <polygon class="st7" points="170.8 215.4 169.7 215.4 169.7 215.1 170.7 215.1 170.8 215.4"/>
    <path class="st7" d="M167.7,214.8h-1.8c-.7,0-1.3-.5-1.3-1.2l-.4-3.6c-.1-.7.5-1.4,1.2-1.5h1.9c.7,0,1.3.5,1.3,1.2l.4,3.6c.1.7-.5,1.4-1.2,1.5h-.1,0Z"/>
    <path class="st6" d="M165,214.5h3.8l-.2-1.4c-.4-.4-.9-.6-1.5-.6.6-.2.9-.8.9-1.4-.1-1-.4-1.9-1.4-1.9s-1.2,1-1.2,1.9.4,1.1.9,1.4c-.6-.2-1,.2-1.4.5v1.5h0Z"/>
    <path class="st1" d="M179.8,229.2h-13.4c-1.1,0-2.1-.9-2.2-2l-.7-7.3c-.1-1.2.7-2.3,1.9-2.4h13.6c1.1,0,2.1.9,2.2,2l.7,7.3c.1,1.2-.8,2.3-2,2.4h-.1Z"/>
    <path class="st1" d="M179.8,229.2h-13.4c-1.1,0-2.1-.9-2.2-2l-.7-7.3c-.1-1.2.7-2.3,1.9-2.4h13.6c1.1,0,2.1.9,2.2,2l.7,7.3c.1,1.2-.8,2.3-2,2.4h-.1Z"/>
    <path class="st6" d="M179.1,228.6h-12.1c-1.1,0-2.1-.9-2.2-2l-.4-4.5c-.1-1.2.8-2.3,2-2.4h12.3c1.1,0,2.1.9,2.2,2l.4,4.5c.1,1.2-.8,2.3-2,2.4h-.2Z"/>
    <polygon class="st7" points="177.9 221.3 170 221.3 170 221 177.8 221 177.9 221.3"/>
    <polygon class="st7" points="173.9 222 170.1 222 170.1 221.8 173.8 221.8 173.9 222"/>
    <polygon class="st7" points="174.9 222.8 170.2 222.8 170.2 222.5 174.9 222.5 174.9 222.8"/>
    <polygon class="st7" points="171.9 223.5 170.3 223.5 170.2 223.3 171.9 223.3 171.9 223.5"/>
    <polygon class="st7" points="171.4 224.3 170.3 224.3 170.3 224 171.4 224 171.4 224.3"/>
    <polygon class="st7" points="178.4 225 170.6 225 170.5 224.7 178.3 224.7 178.4 225"/>
    <polygon class="st7" points="174.4 225.7 170.6 225.7 170.6 225.5 174.4 225.5 174.4 225.7"/>
    <polygon class="st7" points="175.4 226.5 170.7 226.5 170.7 226.2 175.4 226.2 175.4 226.5"/>
    <polygon class="st7" points="172.4 227.2 170.8 227.2 170.7 227 172.4 227 172.4 227.2"/>
    <polygon class="st7" points="171.9 228 170.8 228 170.8 227.7 171.9 227.7 171.9 228"/>
    <path class="st7" d="M168.6,227.4h-1.5c-.8,0-1.4-.6-1.5-1.3l-.4-3.4c-.1-.8.5-1.6,1.3-1.6h1.6c.8,0,1.4.6,1.5,1.3l.4,3.4c.1.8-.5,1.6-1.3,1.6h-.1Z"/>
    <path class="st6" d="M166.1,227.1h3.8l-.2-1.4c-.4-.4-.9-.6-1.5-.6.6-.2.9-.8.9-1.4-.1-1-.4-1.9-1.4-1.9s-1.2,1-1.2,1.9.4,1.1.9,1.4c-.5-.1-1.1.1-1.5.5l.2,1.5Z"/>
  </g>
  <g id="freepik--Character--inject-35">
    <path class="st22" d="M294.3,136l2.2,2.4c.8.9,1.1,2.2.9,3.4l-1.3,5.7c-.5,2.3-2.1,4.1-4.2,5l-1.3.6c-3.9-3.8-5.4-10.9-5.4-10.9l-.6-2c-.6-1.7.3-3.5,2-4.1h0l3.9-1.3c1.3-.4,2.8.1,3.8,1.2h0Z"/>
    <path class="st22" d="M341.1,161.8l-.2.4-.2.3-.4.5-.7.9c-.5.6-.9,1.1-1.4,1.7-1,1.1-2,2.1-3,3-2,1.9-4.2,3.6-6.5,5.1-1.1.8-2.3,1.5-3.4,2.2s-2.4,1.3-3.5,1.9c-2.4,1.2-4.8,2.3-7.3,3.3h-.3c-.2.2-.5.3-.7.3-1.4.2-2.9.2-4.3-.1-1.2-.3-2.4-.7-3.4-1.4-1.7-1-3.2-2.3-4.6-3.8-1.1-1.3-2.2-2.7-3.1-4.1-.9-1.4-1.7-2.8-2.5-4.2s-1.4-2.8-2.1-4.2c-.6-1.4-1.2-2.9-1.8-4.3s-1.1-2.9-1.5-4.4c-.2-.7-.5-1.5-.7-2.2s-.4-1.5-.6-2.3c-.4-1.5.6-3.1,2.1-3.4,1.3-.3,2.6.3,3.2,1.4h0c0,.1,1,2,1,2,.3.6.7,1.3,1,1.9.7,1.3,1.4,2.6,2.1,3.8s1.5,2.5,2.2,3.7c.8,1.2,1.5,2.4,2.3,3.5s1.6,2.2,2.5,3.3c.8,1,1.7,1.9,2.6,2.8.7.7,1.5,1.3,2.4,1.7.2.1.5.2.7.2s.1,0,.2-.1l-1,.3c2.1-1,4.1-2.2,6.1-3.4,1-.6,2-1.2,2.9-1.9.9-.6,1.9-1.3,2.8-2,.4-.3.9-.7,1.4-1s.9-.7,1.3-1.1c.9-.7,1.7-1.5,2.5-2.2s1.6-1.5,2.3-2.3c.4-.4.7-.8,1-1.2.2-.2.3-.4.5-.6l.2-.3h.1c1.8-2.7,5.4-3.4,8-1.6,2.5,1.7,3.2,5.1,1.7,7.7v.2h0Z"/>
    <path class="st1" d="M296,150.3c4.7,9,9.7,15.7,15.1,20.5,5.6-2.9,20.9-16.6,23.7-18l.4,18.1c-6.9,6.7-18.6,13.2-22.2,13.6-10.7,2.4-17-12.8-23.7-30.2l6.7-4h0Z"/>
    <path class="st1" d="M334.8,152.8s-9.6,10.9-.5,78.3h48.5c.3-7.4-4.3-43.7,2.8-78.8-5.4-1-10.8-1.7-16.2-2-6.9-.4-13.7-.4-20.6,0-4.8.5-9.4,1.3-14,2.5h0Z"/>
    <rect class="st6" x="377.7" y="197.4" width="2.7" height="19.9" transform="translate(-42.7 301) rotate(-41.2)"/>
    <rect class="st12" x="377.7" y="197.4" width="2.7" height="19.9" transform="translate(-42.7 301) rotate(-41.2)"/>
    <circle class="st6" cx="365.6" cy="191.9" r="11.6"/>
    <path class="st1" d="M373.1,185.3c3.6,4.2,3.2,10.5-1,14.1s-10.5,3.2-14.1-1-3.2-10.5.9-14.1c4.2-3.6,10.5-3.2,14.2,1h0Z"/>
    <path class="st5" d="M373.1,185.3c3.6,4.2,3.2,10.5-1,14.1s-10.5,3.2-14.1-1-3.2-10.5.9-14.1c4.2-3.6,10.5-3.2,14.2,1h0Z"/>
    <path class="st5" d="M368.6,184.4c.7.8.6,2.1-.3,2.8-.8.7-2.1.6-2.8-.3-.7-.8-.6-2,.2-2.8.8-.7,2.1-.6,2.9.3h0Z"/>
    <path class="st22" d="M366.9,131.7c-.9,5.4-1.8,15.2,2,18.7,0,0-4.9,7.4-12.8,7.7-6.9.3-3.8-7.4-3.8-7.4,5.9-1.6,5.7-6,4.6-10.1l10-8.9h0Z"/>
    <path class="st17" d="M362.7,135.4l-5.9,5.3c.3,1,.5,1.9.6,2.9,2.3-.4,7.2-5.2,7.4-7.6,0-1-1.8.3-2.1-.6h0Z"/>
    <path class="st22" d="M371.8,208.1l1.8-2.8c.7-1,1.8-1.7,3-1.7l5.8-.2c2.3-.1,4.5.9,6,2.8l.9,1.1c-2.7,4.8-9.1,8-9.1,8l-1.7,1.1c-1.5,1-3.4.6-4.4-.8h0l-2.3-3.4c-.8-1.3-.8-2.9,0-4.1h0Z"/>
    <path class="st22" d="M384.6,156.2h.4c0,.1.3.2.3.2l.6.2c.4.1.7.3,1.1.4.7.3,1.3.6,2,1,1.3.6,2.5,1.4,3.7,2.1,2.3,1.5,4.5,3.1,6.6,4.9,1,.9,2,1.8,3,2.8s1.9,1.9,2.8,2.9c1.8,2,3.5,4.1,5.1,6.2l.2.3c.2.2.3.4.4.7.6,1.3,1,2.7,1,4.1.1,1.2-.1,2.5-.4,3.7-.5,1.9-1.4,3.7-2.5,5.4-.9,1.4-2,2.8-3.1,4.1-1.1,1.2-2.2,2.4-3.4,3.5s-2.4,2.1-3.6,3.1-2.5,1.9-3.7,2.8-2.5,1.8-3.8,2.6l-2,1.2c-.7.4-1.3.8-2,1.2-1.4.8-3.1.3-3.9-1.1-.6-1.1-.4-2.6.6-3.5h.1c0-.1,1.6-1.6,1.6-1.6l1.6-1.5c1.1-1,2.1-2,3.1-3s2-2.1,3-3.1,1.9-2.1,2.8-3.2,1.8-2.1,2.5-3.2c.7-1,1.4-2.1,2-3.2.5-.9.8-1.8,1-2.8v-.8c0-.1-.1-.1-.1-.1l.6.9c-1.5-1.8-3.2-3.4-4.8-5.1-.8-.8-1.7-1.6-2.6-2.3s-1.7-1.5-2.6-2.2l-1.4-1-1.4-1c-.9-.6-1.9-1.3-2.8-1.9s-1.9-1.1-2.9-1.6c-.5-.3-.9-.5-1.4-.7l-.7-.3h-.3c0-.1-.1-.1-.1-.1h0c-3-.9-4.8-4.1-3.9-7.1s4.1-4.8,7.1-3.9c.1,0,.2.1.3.1h-.1Z"/>
    <path class="st1" d="M385.2,202.7c7.5-6.9,12.7-13.4,15.9-19.9-4.2-4.7-17.2-12.8-19.4-14.2s-6.5-4.8-6.5-10.7,10.3-5.6,10.3-5.6c8.2,4.9,27,21.8,28.3,25.1,5,9.7-8,19.7-23.1,30.7l-5.5-5.4h0Z"/>
    <path class="st6" d="M352.8,113.5c3.5,2.4,1.9,6.5-6.1,12.8-3.2-4.2-3.8-12.4-1.2-14.5s4.2-.4,7.3,1.7h0Z"/>
    <path class="st22" d="M368,120.1c-.4,8.6-.2,13.7-4.5,18.2-6.5,6.8-17.2,3-19.4-5.6-2-7.7-1-20.6,7.4-24.2,6-2.6,12.9.2,15.5,6.2.8,1.7,1.1,3.6,1,5.4h0Z"/>
    <path class="st6" d="M355.2,122.7c0,.7-.4,1.3-.8,1.3s-.8-.6-.9-1.2.3-1.3.8-1.3.8.5.9,1.2Z"/>
    <path class="st6" d="M347.2,122.8c0,.7-.4,1.3-.8,1.3s-.9-.6-.9-1.3.4-1.3.8-1.3.8.6.9,1.3Z"/>
    <path class="st18" d="M349.7,123.1c-.8,2.2-1.9,4.2-3.3,6.1,1,.7,2.2.9,3.4.6v-6.7h-.1Z"/>
    <path class="st6" d="M357.3,120.1h.3c.2,0,.2-.4.1-.6h0c-.8-1.1-2.1-1.7-3.4-1.7s-.4.2-.4.4h0c0,.2.2.4.5.4h0c1,0,2,.5,2.7,1.3-.1.3.1.3.2.3h0Z"/>
    <path class="st6" d="M343.5,120.2c.2,0,.3,0,.4-.2.4-1,1.3-1.7,2.3-2,.2,0,.4-.2.4-.5s-.2-.4-.5-.4c-1.3.3-2.4,1.2-2.9,2.4-.1.2,0,.5.2.6h0c-.1,0,0,0,.1,0h0Z"/>
    <path class="st6" d="M364.4,112.5c-4,1.4-3.5,5.8,2.8,13.9,4.2-3.3,6.7-11.1,4.7-13.7s-3.9-1.5-7.5-.2Z"/>
    <path class="st22" d="M372.3,126.9c-.6,2.1-1.9,3.9-3.8,5-2.5,1.4-4.5-.7-4.3-3.4.1-2.5,1.5-6.2,4.4-6.5s4.3,2.3,3.7,4.9h0Z"/>
    <path class="st6" d="M368.5,112.9s1-4.8-1.7-7.5-14-2-20.3-1-12.4,8.5-12.4,8.5h9.9c-1,.4-1.9,1.8-2.7,3.2,8.3-.7,17.7-.9,21.1-3.7l.4,1,2.3.2,3.4-.7h0Z"/>
    <path class="st6" d="M349.9,133c2.3-.6,4.5-1.5,6.5-2.9.4,3.4-1.2,5.7-4.4,6.4l-2.1-3.5Z"/>
    <path class="st25" d="M353.6,136c1.3-.6,2.3-1.9,2.7-3.3-.9.1-1.6.5-2.2,1.2-.5.6-.7,1.4-.5,2.1Z"/>
    <path class="st6" d="M347.4,125.2h-3.2c-.9,0-1.6-.7-1.6-1.6v-2c0-.9.7-1.6,1.6-1.6h3.2c.9,0,1.6.7,1.6,1.6h0v2c0,.9-.7,1.6-1.6,1.6ZM344.2,120.9c-.4,0-.7.3-.7.6h0v2c0,.4.3.7.6.7h3.2c.4,0,.7-.3.7-.7v-2c0-.4-.3-.7-.7-.7h-3.1Z"/>
    <path class="st6" d="M355.2,125.2h-3.2c-.9,0-1.6-.7-1.6-1.6v-2c0-.9.7-1.6,1.6-1.6h3.2c.9,0,1.6.7,1.6,1.6h0v2c0,.9-.7,1.6-1.6,1.6ZM351.9,120.9c-.4,0-.7.3-.7.6h0v2c0,.4.3.7.6.7h3.2c.4,0,.7-.3.7-.7v-2c0-.4-.3-.7-.7-.7h-3.1Z"/>
    <rect class="st6" x="348.6" y="122.1" width="2.2" height="1"/>
    <rect class="st6" x="356.8" y="122.1" width="8.4" height="1"/>
    <path class="st6" d="M353.1,159.9c-1.3,3.2-6.3,18.6-7.8,37.8.4,1.8.9,3.6,1.5,5.5,1.1-1.7,3-3.5,4.3-5.2.7-17.2,2.3-33.8,3.7-37.9l-1.7-.2h0Z"/>
    <polygon class="st6" points="353 162.5 351.8 158.3 354.9 157.2 357 158.8 353 162.5"/>
    <path class="st7" d="M354.9,157.2s1.8,2.6,3.9,5.3c3.5-1.5,11.9-5.7,12-10.2-.4-1-1.1-1.8-2-2.3-4.3,3.2-9,5.6-13.9,7.2Z"/>
    <path class="st7" d="M354.9,157.2c-1.8,1.3-3.4,2.8-4.8,4.6-2.3-1.9-.2-10.1.8-10.9,1-.6,2.2-.9,3.4-.8,0-.1-3.3,5.8.6,7.1h0Z"/>
    <polygon class="st2" points="323.8 411.8 315.8 410.7 316.9 391.2 324.9 392.4 323.8 411.8"/>
    <polygon class="st17" points="324.9 392.4 316.9 391.2 316.2 403.3 324.2 403.3 324.9 392.4"/>
    <path class="st6" d="M315.2,409.8l9-.6c.3,0,.6.2.6.5h0l.9,7.1c0,.8-.5,1.4-1.3,1.5-3.1.1-4.6.1-8.6.3-2.4.1-7.2.7-10.6.3s-2.9-3.6-1.5-3.8c3.4-.4,8-2.9,10.1-4.8.4-.3.9-.5,1.4-.5Z"/>
    <path class="st1" d="M315,410.7h0c0-.1-.1-2.4-1-3.1-.3-.2-.6-.3-.9-.2-.3,0-.6.3-.7.6,0,.7.3,1.3.8,1.8-.7-.4-1.5-.5-2.2-.4-.2.1-.4.3-.4.6-.1.4,0,.7.3,1,.5.3,1,.4,1.5.3.7-.1,1.4-.2,2.1-.4h.1c0-.1.2-.1.2-.2h.2ZM312.8,408.1c0-.1.1-.2.3-.3h.1c.1,0,.3,0,.4.1.5.7.7,1.6.7,2.5h-.2c-.7-.7-1.1-1.5-1.3-2.3h0ZM311.2,410.7c-.2-.2-.2-.4-.2-.6s.1-.2.2-.3c.5-.2,1.9.4,2.9.9-1.5.3-2.5.4-2.9,0h0Z"/>
    <polygon class="st2" points="382.4 411.8 374.5 410.7 373.4 391.8 381.3 392.9 382.4 411.8"/>
    <polygon class="st17" points="381.3 392.9 373.4 391.8 374 403.3 381.9 403.3 381.3 392.9"/>
    <path class="st6" d="M373.9,409.8l9-.6c.3,0,.6.2.6.5h0l.9,7.1c0,.8-.5,1.4-1.3,1.5-3.1.1-4.6.1-8.6.3-2.4.1-7.2.7-10.6.3s-2.9-3.6-1.5-3.8c3.4-.4,8-2.9,10.1-4.8.4-.3.9-.5,1.4-.5Z"/>
    <path class="st1" d="M373.7,410.7h0c0-.1-.1-2.4-1-3.1-.3-.2-.6-.3-.9-.2-.3,0-.6.3-.7.6,0,.7.3,1.3.8,1.8-.7-.4-1.5-.5-2.2-.4-.2.1-.4.3-.4.6-.1.4,0,.7.3,1,.5.3,1,.4,1.5.3.7-.1,1.4-.2,2.1-.4h.1c0-.2.2-.1.2-.2h.2ZM371.5,408.1c0-.1.1-.2.3-.3h.1c.1,0,.3,0,.4.1.5.7.7,1.6.7,2.5h-.2c-.7-.7-1.2-1.5-1.3-2.3h0ZM369.8,410.7c-.2-.2-.2-.4-.2-.6s.1-.2.2-.3c.5-.2,1.9.4,2.9.9-1.4.3-2.5.4-2.9,0h0Z"/>
    <path class="st6" d="M362,231.1v30.2c-9.6,24.8-24.2,65.8-26.7,79.2s-1.9,29.8-6.4,59.4l-15.7.4s-1.1-33.9,1.2-58.8c2.3-24.9,21.5-110.3,21.5-110.3h26.1Z"/>
    <path class="st6" d="M381.8,231.1c1.8,13.4-4.5,102.8-2.9,115.3s3.5,23.7,5.5,53.9h-14.8s-7.7-28.5-11.7-53.5-6.2-91.3-3.6-115.6h27.5Z"/>
    <path class="st17" d="M346.7,302.8s1.5-13.9,1.9-19.6,4.2-21.4,4.2-21.4l.6,22-6.7,19Z"/>
    <path class="st17" d="M321.3,180.9c4.6-3.4,8.2-7.2,9.9-11.7-.4,1.9-.7,3.8-.9,5.7-2.7,2.2-5.8,4.2-9,6Z"/>
    <path class="st17" d="M381.7,185.4c-.6-5.8-1.5-13.8-2.5-18.7,1.2,1,2.4,2,3.7,2.9"/>
    <path class="st1" d="M297,126.4c0-12.3-9.9-22.2-22.2-22.2s-22.2,9.9-22.2,22.2,4.9,16.4,12.7,20.1c-.3-1-.7-2.1-1-3.2s-.7-2.2-1.1-3.4c2.5-.8,5.1-1.4,7.6-1.8,2.7-.5,5.5-.8,8.3-.9,3.6,0,7.7.4,7.7.4,0,0,.6.1,1,3.9.1.8.1,1.7.2,2.9,5.7-4.3,9-10.9,9-18Z"/>
    <path class="st9" d="M297,126.4c0-12.3-9.9-22.2-22.2-22.2s-22.2,9.9-22.2,22.2,4.9,16.4,12.7,20.1c-.3-1-.7-2.1-1-3.2s-.7-2.2-1.1-3.4c2.5-.8,5.1-1.4,7.6-1.8,2.7-.5,5.5-.8,8.3-.9,3.6,0,7.7.4,7.7.4,0,0,.6.1,1,3.9.1.8.1,1.7.2,2.9,5.7-4.3,9-10.9,9-18Z"/>
    <path class="st19" d="M281.3,116.9l-6.2-2.5s-6.8-.4-8,3.2c-1.2,3.5-.8,9.6-1.7,14.9-.6,3.7-4.4,6.1-6.6,9.4.7.7,1.4,1.3,2.1,1.9,3.9,3.1,8.8,4.8,13.8,4.8s2.8-.1,4.1-.4c1.4-5.5,2.8-13.2,4.2-20.9l-1.7-10.4h0Z"/>
    <path class="st19" d="M281.3,116.9c1.7,1.2,2.7,3.2,2.6,5.2-.1,3.5-.7,6.9-.4,9.1.4,2.5-1.2,6.1-1.2,6.1-.1-1.1-.3-2.3-.6-3.4,0,0,0,.9-1.2,1.2s-11,.6-13.3-1.2,2.4-16.6,4.9-17.5c2.6-.8,9.2.5,9.2.5Z"/>
    <path class="st1" d="M286.7,137.5s-4.1-.4-7.7-.4c-2.8.1-5.5.4-8.3.9-2.6.4-5.2,1.1-7.7,1.9.4,1.2.8,2.3,1.1,3.4.3,1.1.7,2.2,1,3.2,7.4,3.5,16.1,2.7,22.6-2.1,0-1.2-.1-2.1-.2-2.9-.2-3.9-.8-4-.8-4h0Z"/>
    <path class="st16" d="M286.7,137.5s-4.1-.4-7.7-.4c-2.8.1-5.5.4-8.3.9-2.6.4-5.2,1.1-7.7,1.9.4,1.2.8,2.3,1.1,3.4.3,1.1.7,2.2,1,3.2,7.4,3.5,16.1,2.7,22.6-2.1,0-1.2-.1-2.1-.2-2.9-.2-3.9-.8-4-.8-4h0Z"/>
    <path class="st21" d="M277.5,141.2c-4.6-.6-5.9-2.5-5.9-2.5,2.9-2.7.5-7.4.5-7.4l5.5,1c-.1.8-.2,1.5-.2,2.3,0,3.3,1.5,3.4,1.5,3.4.8,1.7-1.4,3.2-1.4,3.2Z"/>
    <path class="st17" d="M277.5,132.2c-.1.8-.2,1.5-.2,2.3-2.2-.1-4.2-1.3-5.3-3.3l5.5,1Z"/>
    <path class="st21" d="M267.3,139.2s5.3,4.3,10.3,4.3c5-.1,6.7-5.7,6.7-5.7-5.6-1.3-11.6-.8-17,1.4Z"/>
    <path class="st21" d="M277.8,117.8c4.5.8,5.5,3.4,5.1,8.1-.6,5.8-2.6,9.7-8,7.5-7.3-2.9-4.6-16.9,2.9-15.6Z"/>
    <path class="st25" d="M280,125.2c.2.7.6,1.4,1,2.1-.3.3-.8.5-1.3.3l.3-2.4Z"/>
    <path class="st6" d="M277.3,124.3c-.1.4-.3.6-.6.6s-.4-.4-.3-.7.3-.6.5-.6.5.3.4.7Z"/>
    <path class="st6" d="M276.9,123.6l.9-.2s-.6.6-.9.2Z"/>
    <path class="st6" d="M281.9,124.9c-.1.4-.3.6-.6.6s-.4-.4-.4-.7.3-.6.6-.6.5.3.4.7Z"/>
    <path class="st6" d="M281.5,124.2l.9-.2c-.1,0-.6.6-.9.2Z"/>
    <path class="st6" d="M275.7,121.7c0,0-.1,0-.1,0-.1,0-.1-.2,0-.3.6-.5,1.5-.6,2.2-.4.1,0,.2,0,.1.2,0,0-.1.2-.2,0-.6-.2-1.3,0-1.9.3,0,.1,0,.2-.1.2Z"/>
    <path class="st6" d="M282.8,122.4h-.1c-.4-.4-1-.7-1.6-.6-.1,0-.2,0-.2-.2s.1-.2.2-.2c.7,0,1.4.2,1.9.7.1,0,.1.2,0,.3h-.2,0Z"/>
    <path class="st19" d="M271.6,124.5s2.7-3.3,2.9-6.2c0,0,9.5-2.1,8.4,7,0,0,2.2-7.9-5.4-9.4s-8.6,13.2-5.2,17.3c0,0-2.4-6.6-.7-8.7h0Z"/>
    <path class="st21" d="M272.2,125.6c.1-1.1-.7-2.1-1.8-2.2-1.4,0-2.6,2.7.8,3.9.4.3.8-.2,1-1.7Z"/>
    <path class="st19" d="M273.5,117.3c1.2,1.2,2.5,2.3,4.1,3,2,.7,4.1,1.2,6.1,1.6-.8,4.1-.7,7.5,1.3,9.7-.7-1.2.4-10.4.3-11.2-.3-1.9-2.2-3.1-4.3-4.6-1.6-.9-3.5-1.3-5.4-1.2,0,0-2.1,2.7-2.1,2.7Z"/>
    <path class="st19" d="M271.3,118.3v5.3c-.5,1.6-.3,3.4.5,4.8-.1-2.1.1-4.1.5-6.1l1.8-3.5s-2.8-.5-2.8-.5Z"/>
    <path class="st6" d="M278.8,129.1c-1.1,0-2.1-.4-2.8-1.2v-.2h.2c.8.8,2,1.2,3.1,1,0,0,.1,0,.1.1h0c0,0,0,.1-.1.1h0l-.5.2h0Z"/>
    <path class="st1" d="M263,139.8c-1.1,1-2,2.2-2.5,3.6,1.4,1.2,3,2.2,4.7,3l-2.2-6.6Z"/>
    <path class="st16" d="M263,139.8c-1.1,1-2,2.2-2.5,3.6,1.4,1.2,3,2.2,4.7,3l-2.2-6.6Z"/>
    <path class="st1" d="M286.7,137.5l1.1,6.8c1.6-1.2,3-2.5,4.3-4.1-1.5-1.3-3.4-2.3-5.4-2.7Z"/>
    <path class="st16" d="M286.7,137.5l1.1,6.8c1.6-1.2,3-2.5,4.3-4.1-1.5-1.3-3.4-2.3-5.4-2.7Z"/>
  </g>
  <g id="freepik--character-2--inject-2">
    <path class="st9" d="M389.9,86h0c0,4.4,1.5,8.8,4.2,12.3.6.8,1.4,1.6,2.1,2.4,0,0,.2.2.3.3.1,0,.3.2.4.4q0,.1,0,0c.2.2.3.3.5.4.5.4,1.1.8,1.7,1.2h.1c.7.5,1.5.9,2.2,1.3,6.9,3.3,14.9,2.3,20.8-2.1h.1q0-.2,0,0c1.1-.9,2.2-1.9,3.1-3,3.2-3.8,4.8-8.5,4.8-13.1s-2.4-11.4-7.1-15.4c-8.5-7.2-21.3-6.2-28.5,2.3-3.1,3.7-4.8,8.3-4.8,13.1h0Z"/>
    <g id="freepik--group--inject-2">
      <path class="st1" d="M396.2,100.7s.2.2.3.3c.1,0,.3.2.4.4q0,.1,0,0c.2.2.3.3.5.4v-.5c0-.5-.2-.8-.2-.9h0c-.2,0-.5,0-.7.2,0,0-.2,0-.2,0h0Z"/>
      <path class="st1" d="M397.1,100.4c0,.3-.2.6-.2.9.2.2.3.3.5.4.5.4,1.1.8,1.7,1.2h.1c.7.5,1.5.9,2.2,1.3,6.9,3.3,14.9,2.3,20.8-2.1h0c0,0-.2,0-.3,0l-.8-.2h-.3c-.9-.2-1.9-.4-2.8-.5l-1.2-.2c-.5,0-1.1,0-1.6-.2h-.1c-1.3,0-2.5-.3-3.7-.3h-14.2v-.2Z"/>
      <path class="st17" d="M397.1,100.4c0,.3-.2.6-.2.9s0,.2,0,0c.2.2.3.3.5.4.5.4,1.1.8,1.7,1.2h.1c.7.5,1.5.9,2.2,1.3,6.9,3.3,14.9,2.3,20.8-2.1h0c0,0,.5,0,.5,0h-.5c0,0-.3,0-.3,0l-.8-.2h-.3c-.9-.2-1.9-.4-2.8-.5l-1.2-.2c-.5,0-1.1,0-1.6-.2h-.1c-1.3,0-2.5-.3-3.7-.3h-14.2v-.2Z"/>
      <path class="st2" d="M415.3,101c-2.2,2.1-7.7,1.3-7.7,1.3,0,0-3.4-.9-2.7-2,2-.3,3-1.3,3.4-2.5.2-.7.3-1.5.2-2.3,0-.4,0-.9-.2-1.3l6.7-5c-.9,3.3-1.9,9.3.2,11.7h.1Z"/>
      <path class="st17" d="M413.5,92.4c-.3,4-3.6,5.2-5.2,5.4.2-.7.3-1.5.2-2.3l5-3.1Z"/>
      <path class="st24" d="M401.9,79.6s-1,6.3,2.4,8.7,3.3-9.3,3.3-9.3l-5.7.6h0Z"/>
      <path class="st2" d="M413.9,93.3c-1.4,2.1-4.1,3-6.6,2.2-1.5-.5-2.8-1.5-3.6-3-.1-.2-.2-.4-.3-.6-1.6-3.8-2.2-10.6,1.9-13.1,2.9-1.8,6.7-1,8.5,1.9h0c.5.8.8,1.8.9,2.7.5,4.5,1,7.1-.9,9.8h.1Z"/>
      <path class="st6" d="M408.3,85.9c0,.4,0,.7-.3.7s-.5-.2-.5-.6,0-.7.3-.7.5.2.5.6Z"/>
      <path class="st6" d="M404.2,86.6c0,.4,0,.7-.3.7s-.5-.2-.5-.6,0-.7.3-.7.5.2.5.6Z"/>
      <path class="st28" d="M405.5,86.6c-.2,1.2-.6,2.3-1.2,3.4.6.3,1.2.3,1.8,0l-.6-3.4h0Z"/>
      <path class="st6" d="M409.3,84.4h-.2c-.4-.4-.9-.6-1.5-.5-.1,0-.2,0-.3-.2,0,0,0-.2.2-.3h0c.7,0,1.4,0,1.9.6v.3h-.1Z"/>
      <path class="st6" d="M402.1,85.5h-.1c-.1,0-.2,0-.2-.3h0c.2-.7.7-1.2,1.3-1.5.1,0,.2,0,.3,0h0c0,0,0,.2-.1.3h0c-.5.2-.9.6-1,1.2,0,0,0,0-.1,0h0Z"/>
      <path class="st24" d="M410.6,78.5v2c.7.2,1.1,1,1,1.8-.4,1.7.8,4.2,2.2,5.1,0,0,0-.7.6-.6s.9,3.9,0,5.8c0,0,1.6-1.8,2.1-5.9.5-3.8.2-6.8-.7-8.1h-5.2Z"/>
      <path class="st2" d="M417.4,86.9c-.3,1.1-1.1,2-2.1,2.6-1.3.7-2.3-.4-2.2-1.8,0-1.3.9-3.2,2.4-3.3,1.1,0,2,.7,2,1.8s0,.5-.1.8h0Z"/>
      <path class="st24" d="M410.6,80.5s-1.3,1.3-2.6.3c0,0-1.4,1.2-2.6.3-.4.6-1,1.1-1.7,1.2-.5,0-1-.3-1-.8v-.2s-1.7,1-2.3.5.3-2.2.3-2.2c0,0-.8-.4-.3-1.9s2.8-1.1,2.8-1.1c0,0,0-1.4,1.5-2.7.6-.6,1.6-.7,2.2,0,.1,0,.3.3.4.5,0,0,1.6-2.1,3.5-1.8s1.7,1.6,1.7,1.6c0,0,2.2-1.4,3.2,0s0,2.1,0,2.1c0,0,2.2.7,2.1,2.3s-1.3,1.3-1.3,1.3c0,0,.6.7-.8,1.4s-2.8-.9-2.8-.9c.3.5.2,1.1-.3,1.4h-.2c-1,.6-2-1.2-2-1.2h.2Z"/>
      <path class="st6" d="M406.2,91.4c.5.4.9.9,1.3,1.4l.3-.2c1.3-.7,1.6-1.5,1.6-2.1s0-.6-.2-.9c0,0-.2-.3-.3-.4-.6.8-1.3,1.5-2.2,2-.3,0-.5.2-.5.2h0Z"/>
      <path class="st7" d="M406.6,91.1l.4.4c1.2-.7,2-1.4,2.1-1.9,0,0-.2-.3-.3-.4-.6.8-1.4,1.5-2.2,2h0Z"/>
      <path class="st25" d="M407.7,92.6c1.3-.7,1.6-1.5,1.6-2.1-.5.3-.9.7-1.3,1.1-.2.3-.4.7-.4,1h0Z"/>
      <path class="st1" d="M407.6,102.2s7.9-5.3,10.4-5.6,2.1,2.8,2.1,2.8c0,0,1.9,0,1.2,2.4s-11.4,3.7-15.4,2.5-6.3-3.4-5.6-5.5,2.5-.3,2.5-.3c0,0,1.1-2,2.6-1.5s2.3,5.2,2.3,5.2h-.1Z"/>
    </g>
  </g>
  <g>
    <path class="st9" d="M353.6,65c0,3.3-.8,6.5-2.2,9.4-.3.6-.6,1.1-.9,1.7-.3.4-.5.8-.8,1.2-1.2,1.7-2.7,3.2-4.4,4.5-.4.3-.8.6-1.2.8-1.6,1.1-3.4,1.9-5.3,2.5-4.9,1.5-10.2,1.2-14.9-.9-.3-.2-.7-.3-1-.5h0c-3.7-2-6.8-5-8.8-8.7-.3-.5-.5-1.1-.8-1.6h0c-4.6-10.7.3-23,10.9-27.7,10.7-4.6,23,.3,27.7,10.9,1.1,2.6,1.7,5.5,1.7,8.4h0Z"/>
    <g id="freepik--group--inject-21">
      <path class="st1" d="M321,78.4h0l-.3,3.4h0c-.1,0-.3-.2-.4-.3-.5-.4-1.1-.8-1.6-1.3.9-.9,1.7-1.6,2.4-1.8h-.1Z"/>
      <path class="st16" d="M321,78.4h0l-.3,3.4h0c-.1,0-.3-.2-.4-.3-.5-.4-1.1-.8-1.6-1.3.9-.9,1.7-1.6,2.4-1.8h-.1Z"/>
      <path class="st1" d="M347.4,79.2h0c0,.2-.2.3-.3.4-.8.8-1.6,1.5-2.5,2.2-1.3.9-2.7,1.7-4.1,2.3-.1,0-.3,0-.4.2-5.5,2.2-11.8,1.8-17.1-1-.1,0-.2,0-.3-.2-.5-.3-.9-.5-1.4-.8-.2,0-.4-.3-.6-.4h0c-.1,0-.3-.2-.4-.3.2-1,.5-2.1.8-3.1h0c2.2-.6,4.4-1.1,6.7-1.4h.4c3.1-.2,6.3-.3,9.4-.2h0c2.3,0,4.5.3,6.7.7,1.1.5,2.2,1,3.2,1.7h-.1Z"/>
      <path class="st16" d="M347.4,79.2h0c0,.2-.2.3-.3.4-.8.8-1.6,1.5-2.5,2.2-1.3.9-2.7,1.7-4.1,2.3-.1,0-.3,0-.4.2-5.5,2.2-11.8,1.8-17.1-1-.1,0-.2,0-.3-.2-.5-.3-.9-.5-1.4-.8-.2,0-.4-.3-.6-.4h0c-.1,0-.3-.2-.4-.3.2-1,.5-2.1.8-3.1h0c2.2-.6,4.4-1.1,6.7-1.4h.4c3.1-.2,6.3-.3,9.4-.2h0c2.3,0,4.5.3,6.7.7,1.1.5,2.2,1,3.2,1.7h-.1Z"/>
      <path class="st13" d="M340,84.2c-5.5,2.2-11.8,1.8-17.1-1,1.3-1.4,2.6-2.7,4.1-3.9.6.7,1.5,1.1,2.4,1.2,2,.4,4.2-.5,6.1-1.7,1.2,1.1,2.3,2.4,3.3,3.6.4.5.9,1.1,1.2,1.7h0Z"/>
      <path class="st29" d="M337.5,76.8c-1.9,2-4.4,3.2-7.2,3.2-4.1.2-2.7-3-2.7-3,1.5-.4,2.3-1.1,2.7-1.9.5-1.1.4-2.5,0-3.8v-.3l5.9-5.3c-.6,3.1-1,9,1.2,11.1h.1Z"/>
      <path class="st17" d="M335.3,70.4c-.3,2-2.8,4.1-4.9,4.7.5-1.1.4-2.5,0-3.8l4.9-3.8c.2,1,.2,1.9,0,2.9Z"/>
      <path class="st6" d="M331.5,58.8c1.4,1.6.1,3.4-4.5,5.4-1-2.4-.3-6.5,1.2-7.1s2.1.3,3.3,1.7Z"/>
      <path class="st29" d="M338,63.9c-1.3,4.1-1.8,6.6-4.4,8.3-3.9,2.5-8.7-.7-8.7-5.1s2-10.1,6.5-10.7c3.2-.5,6.2,1.7,6.7,4.9.1.9,0,1.8-.2,2.7h.1Z"/>
      <path class="st6" d="M331.5,63.5c0,.3-.3.6-.6.5s-.3-.4-.3-.7.3-.6.5-.5.3.4.3.7h.1Z"/>
      <path class="st6" d="M327.6,62.6c0,.3-.3.6-.6.5s-.3-.4-.3-.7.3-.6.6-.5.3.4.3.7Z"/>
      <path class="st3" d="M328.8,63.1c-.7.9-1.4,1.8-2.3,2.5.4.4,1,.7,1.6.7l.8-3.2h-.1Z"/>
      <path class="st6" d="M332.8,62.6h.1c.1,0,.2-.2.1-.3-.3-.6-.8-1.1-1.4-1.2-.1,0-.2,0-.2.2h0c0,0,0,.2.2.2h0c.5,0,.9.5,1.1,1,0,0,0,0,.1,0h0Z"/>
      <path class="st6" d="M326.1,60.9h.2c.3-.4.8-.6,1.3-.6s.2,0,.2-.2,0-.2-.2-.2c-.7,0-1.3.3-1.7.8v.3h.2Z"/>
      <path class="st0" d="M337.2,59.8c-2.1.2-2.4,2.4-.4,7.1,2.4-1.1,4.6-4.5,4-6s-1.7-1.2-3.6-1h0Z"/>
      <path class="st29" d="M339.2,67.7c-.5.9-1.4,1.6-2.5,1.9-1.4.4-2.1-.9-1.7-2.2.4-1.2,1.5-2.8,2.9-2.6,1,0,1.7,1.1,1.5,2.1,0,.3-.1.5-.3.8h.1Z"/>
      <path class="st0" d="M333.1,58s-.4,4.3,3.5,5.6c3.9,1.3,5.4-1,5.4-1-.3,0-.7,0-1-.2,1-1.1,1.4-2.6,1-4-.7-2.3-4.2-5.3-7.4-5-1.7-1.1-3.8-1.4-5.8-.9-3.2.9-3.6,4.6-3.6,4.6,0,0,.4-2.2,1.9-2.4,0,0-2.7,4-.6,5.8,0,0,1.4-4.3,6.6-2.5Z"/>
      <path class="st6" d="M327.3,67.9c.3.5.6,1,.8,1.5h.3c1.3-.4,1.8-1,1.9-1.6v-.8c0-.2,0-.3-.2-.4-.7.6-1.5,1-2.4,1.2-.2,0-.5,0-.5,0h.1Z"/>
      <path class="st7" d="M327.7,67.8l.2.4c1.2-.3,2-.8,2.3-1.2,0-.2,0-.3-.2-.4-.7.6-1.5,1-2.4,1.2h.1Z"/>
      <path class="st25" d="M328.4,69.3c1.3-.4,1.8-1,1.9-1.5-.5.2-.9.4-1.4.7-.3.2-.5.5-.6.8h.1Z"/>
    </g>
  </g>
</svg>