<?xml version="1.0" encoding="UTF-8"?>
<svg id="Layer_1" xmlns="http://www.w3.org/2000/svg" version="1.1" viewBox="0 0 500 500">
  <!-- Generator: Adobe Illustrator 29.1.0, SVG Export Plug-In . SVG Version: 2.1.0 Build 142)  -->
  <defs>
    <style>
      .st0, .st1 {
        fill: #004a99;
      }

      .st2 {
        fill: #fab27b;
      }

      .st3 {
        fill: #263238;
      }

      .st4, .st5, .st6, .st7, .st8 {
        fill: #fff;
      }

      .st5, .st6, .st1, .st9, .st7, .st10, .st11, .st12, .st8 {
        isolation: isolate;
      }

      .st5, .st1, .st10 {
        opacity: .6;
      }

      .st13, .st12, .st8 {
        opacity: .2;
      }

      .st6 {
        opacity: .4;
      }

      .st14 {
        fill: #e0e0e0;
      }

      .st15 {
        fill: #ff8b7b;
      }

      .st9, .st16 {
        opacity: .1;
      }

      .st17 {
        fill: #b9671b;
      }

      .st18 {
        fill: #218972;
      }

      .st7, .st19 {
        opacity: .7;
      }

      .st10 {
        fill: #fafafa;
      }

      .st20 {
        fill: #e5edea;
      }

      .st21, .st11 {
        opacity: .3;
      }

      .st22 {
        fill: #bc006d;
      }

      .st23 {
        fill: #ebebeb;
      }

      .st24 {
        fill: #f5f5f5;
      }

      .st25 {
        fill: #ed847e;
      }

      .st26 {
        fill: #d85b5b;
      }

      .st27 {
        opacity: .5;
      }

      .st28 {
        fill: #ffc3bd;
      }
    </style>
  </defs>
  <g class="st19">
    <g id="freepik--freepik--high-school-building--inject-76--inject-90">
      <rect class="st24" x="16.9" y="96.3" width="468.4" height="131.5"/>
      <rect class="st24" x="141" y="82.3" width="221.6" height="146.8"/>
      <rect class="st23" x="16.9" y="188.8" width="158.4" height="13.1"/>
      <rect class="st23" x="328.1" y="188.8" width="157.2" height="13.1"/>
      <g class="st21">
        <rect class="st14" x="164.5" y="138.7" width="174.6" height="89"/>
      </g>
      <g class="st21">
        <path class="st14" d="M226.1,123.1c-.6-.1-1.3-.3-1.7-.8l.9-2c1,.6,2,1,3.1,1s1.6-.2,1.6-.8-.1-.5-.5-.6c-.5-.1-1-.3-1.4-.3-.6-.1-1.3-.2-1.7-.5-.5-.1-.9-.5-1.3-.9s-.5-1-.5-1.6.1-1.1.5-1.6c.3-.5.9-.9,1.4-1.1.8-.2,1.5-.5,2.4-.3.6,0,1.3,0,1.8.2.6.1,1.1.3,1.6.6l-.9,2c-.8-.5-1.7-.8-2.6-.8s-.9,0-1.1.2c-.2,0-.3.3-.3.6s.1.5.5.6c.5.1,1,.2,1.4.3.6.1,1.3.2,1.8.5.5.1.9.5,1.3.9s.5,1,.5,1.6-.1,1.1-.5,1.5c-.3.5-.9.9-1.4,1.1-.8.2-1.5.3-2.4.3s-1.5-.1-2.3-.3h-.2v.2Z"/>
        <path class="st14" d="M236,122.8c-.8-.3-1.4-1-1.8-1.7-.9-1.6-.9-3.5,0-5.1.5-.8,1.1-1.4,1.8-1.7,1.6-.8,3.5-.9,5.1-.1.6.2,1.3.8,1.7,1.4l-1.7,1.5c-.5-.8-1.4-1.1-2.3-1.1s-1,0-1.4.3c-.3.2-.8.6-1,1-.3.9-.3,2,0,2.8.2.3.5.8,1,1,1.3.6,2.7.3,3.6-.8l1.7,1.5c-.5.6-1.1,1-1.7,1.4-1.6.6-3.5.6-5.1-.1h0v-.2h0Z"/>
        <path class="st14" d="M253.1,113.7v9.6h-2.7v-3.8h-3.8v3.8h-2.7v-9.6h2.7v3.6h3.8v-3.6s2.7,0,2.7,0Z"/>
        <path class="st14" d="M257.1,122.8c-2.4-1.3-3.4-4.2-2.2-6.6.5-.9,1.3-1.6,2.2-2.2,1.7-.9,3.8-.9,5.5,0,2.4,1.3,3.4,4.2,2.2,6.6h0c-.5.9-1.1,1.6-2.2,2.2-1.7.9-3.8.9-5.5,0h0ZM261.2,120.9c.3-.2.8-.5,1-1,.5-.9.5-2,0-2.8-.2-.3-.5-.8-.9-1-.9-.5-1.8-.5-2.6,0s-.8.6-1,1c-.5.9-.5,2,0,2.8.2.3.5.8,1,1,.8.5,1.7.5,2.6,0h-.1Z"/>
        <path class="st14" d="M268.7,122.8c-2.4-1.3-3.4-4.2-2-6.6.5-.9,1.1-1.6,2-2,1.7-.9,3.8-.9,5.5,0,2.4,1.3,3.4,4.2,2,6.6-.5.9-1.1,1.6-2,2-1.7.9-3.8.9-5.5,0ZM272.8,120.9c.3-.2.8-.5,1-1,.5-.9.5-2,0-2.8-.2-.3-.5-.8-1-1-.9-.5-1.7-.5-2.6,0-.3.2-.8.6-.9,1-.5.9-.5,2,0,2.8.2.3.5.8.9,1,.9.5,1.7.5,2.6,0Z"/>
        <path class="st14" d="M278.1,113.7h2.7v7.5h4.7v2.2h-7.3v-9.6h-.1Z"/>
      </g>
      <path class="st14" d="M225.3,122.3c-.6-.1-1.3-.3-1.7-.8l.9-2c1,.6,2,.9,3.1,1,1,0,1.5-.2,1.5-.8s-.1-.5-.5-.6c-.5-.1-.9-.3-1.4-.3s-1.3-.2-1.7-.5c-.5-.1-.9-.5-1.3-.9s-.5-1-.5-1.6.1-1.1.5-1.6c.3-.5.9-.9,1.4-1.1.8-.2,1.5-.3,2.4-.3s1.3,0,1.8.2c.6,0,1.1.3,1.6.6l-.9,2c-.8-.5-1.7-.8-2.6-.8s-.9,0-1.1.2c-.2.1-.3.3-.3.6s.1.5.3.6c.5.1,1,.2,1.4.3.6.1,1.3.2,1.7.5.5.1.9.5,1.3.9s.6,1,.5,1.6c0,.5-.1,1.1-.5,1.6-.3.5-.9.9-1.4,1.1-.8.2-1.5.3-2.4.3s-1.5-.1-2.3-.3h.2Z"/>
      <path class="st14" d="M235.2,122c-.8-.3-1.4-1-1.8-1.7-.9-1.6-.9-3.5,0-5.1.5-.8,1.1-1.4,1.8-1.7,1.6-.8,3.4-.9,5.1-.1.8.2,1.3.8,1.7,1.4l-1.7,1.6c-.9-1.1-2.4-1.4-3.6-.8-.3.2-.8.5-1,1-.5.9-.5,2,0,2.8.2.3.5.8,1,1,1.3.8,2.7.3,3.6-.8l1.7,1.6c-.5.6-1.1,1-1.7,1.4-.8.3-1.5.5-2.4.5s-1.8-.2-2.7-.8v-.3h0Z"/>
      <path class="st14" d="M252.3,112.9v9.6h-2.7v-3.8h-3.8v3.8h-2.7v-9.6h2.7v3.6h3.8v-3.6h2.7Z"/>
      <path class="st14" d="M256.5,122c-2.4-1.3-3.4-4.2-2.2-6.6h0c.5-.9,1.3-1.6,2.2-2.2,1.7-.9,3.8-.9,5.5,0,2.4,1.3,3.4,4.2,2.2,6.6-.5.9-1.3,1.6-2.2,2.2-1.7.9-3.8.9-5.5,0h0ZM260.5,120.2c.3-.2.8-.5,1-1,.5-.9.5-2,0-2.8-.2-.3-.5-.8-.9-1-.3-.2-.9-.3-1.4-.3s-.9,0-1.4.3c-.3.2-.8.6-.9,1-.2.3-.3.9-.3,1.4s0,1,.3,1.4c.2.3.5.8.9,1,.9.5,1.8.5,2.6,0h0Z"/>
      <path class="st14" d="M267.9,122c-2.4-1.3-3.4-4.2-2-6.6.5-.9,1.1-1.6,2-2,1.7-.9,3.8-.9,5.5,0,2.4,1.3,3.4,4.2,2,6.6-.5.9-1.1,1.6-2,2-1.7.9-3.8.9-5.5,0ZM272.1,120.2c.3-.2.8-.5.9-1,.5-.9.5-2,0-2.8-.2-.3-.5-.8-.9-1-.9-.5-1.8-.5-2.6,0-.3.2-.8.5-.9,1-.5.9-.5,2,0,2.8.2.3.5.8.9,1,.9.5,1.8.5,2.6,0Z"/>
      <path class="st14" d="M277.4,112.9h2.7v7.5h4.7v2.2h-7.3v-9.6h-.1Z"/>
      <rect class="st14" x="133.5" y="74.9" width="233.8" height="7.4"/>
      <rect class="st14" x="175.3" y="147.1" width="154.8" height="80.7"/>
      <rect class="st23" x="280" y="169.9" width="47.7" height="55.8"/>
      <path class="st14" d="M303.8,227s-.1-13-.1-29,0-29,.1-29,.1,13,.1,29,0,29-.1,29Z"/>
      <rect class="st23" x="178.2" y="169.9" width="47.7" height="55.8"/>
      <path class="st14" d="M202,227s-.1-13-.1-29,0-29,.1-29,.1,13,.1,29,0,29-.1,29Z"/>
      <rect class="st14" x="197.9" y="192.7" width="2.8" height="10.5"/>
      <rect class="st14" x="203.6" y="192.7" width="2.8" height="10.5"/>
      <rect class="st23" x="178.5" y="150.7" width="47.7" height="15.8"/>
      <rect class="st23" x="229.1" y="150.7" width="47.7" height="15.8"/>
      <rect class="st23" x="279.7" y="150.7" width="47.7" height="15.8"/>
      <g class="st13">
        <polygon class="st4" points="327.7 184.7 280 206.4 280 211.6 327.7 188.9 327.7 184.7"/>
      </g>
      <g class="st13">
        <polygon class="st4" points="327.4 192.9 279.7 214.5 279.7 217.8 327.4 195.7 327.4 192.9"/>
      </g>
      <rect class="st23" x="229.1" y="169.9" width="47.7" height="55.8"/>
      <g class="st13">
        <polygon class="st4" points="276.7 169.9 229.1 191.5 229.1 201.9 276.7 178.7 276.7 169.9"/>
      </g>
      <g class="st13">
        <polygon class="st4" points="276.7 182.1 229.1 203.8 229.1 206.9 276.7 185 276.7 182.1"/>
      </g>
      <path class="st14" d="M253,227s-.1-13-.1-29,0-29,.1-29,.1,13,.1,29,0,29-.1,29Z"/>
      <path class="st14" d="M261.3,194.7s2-3,4.8-6.6,5-6.5,5-6.4-2,3-4.8,6.6-5,6.5-5,6.4Z"/>
      <path class="st14" d="M259.8,205s2.4-3.8,5.5-8.1,5.7-8,5.9-7.9-2.4,3.8-5.5,8.1-5.7,8-5.9,7.9Z"/>
      <path class="st14" d="M233.8,208.5s2.3-2.4,5.1-5.2,3.5-3.4,5.3-5c0,0-2.3,2.4-5.1,5.2s-3.5,3.4-5.3,5Z"/>
      <path class="st14" d="M230.5,217.8c.1-.2.3-.3.5-.6l1.6-1.5,5.2-4.9,5.1-4.9,1.5-1.5c.1-.2.3-.3.6-.5-.1.2-.3.3-.5.6-.3.3-.9.9-1.5,1.6-1.3,1.4-3,3.1-5.1,5s-3.9,3.5-5.2,4.8c-.8.6-1.3,1.1-1.6,1.4-.2.1-.3.3-.6.5h0Z"/>
      <rect class="st14" x="248.9" y="192.7" width="2.8" height="10.5"/>
      <rect class="st14" x="254.6" y="192.7" width="2.8" height="10.5"/>
      <path class="st14" d="M261.7,154.9c-.6.5-1.4,1.1-2,1.6l-5,3.8c-2,1.4-3.8,2.7-5.1,3.6-.6.5-1.3.8-1.6,1-.2.1-.3.2-.6.3.6-.5,1.4-1.1,2-1.6,1.4-1,3.1-2.3,5-3.8s3.8-2.7,5.1-3.6c.6-.5,1.3-.8,1.6-1,.1-.1.3-.2.6-.3h0Z"/>
      <path class="st14" d="M253.1,157.7c-1.5,1.3-3,2.4-4.4,3.5-1.5,1.1-3.1,2.3-4.8,3.1,1.5-1.3,3-2.4,4.4-3.5,1.5-1.1,3.1-2.3,4.8-3.1Z"/>
      <path class="st14" d="M211.2,152.4c-.6.6-1.4,1.1-2,1.5l-5,3.8c-2,1.4-3.8,2.7-5.1,3.6-.6.5-1.3.8-1.6,1-.2.1-.3.2-.6.3.6-.5,1.4-1.1,2-1.5l5-3.8c2-1.4,3.8-2.7,5.1-3.6.6-.5,1.3-.8,1.6-1,.2-.1.3-.2.6-.3Z"/>
      <path class="st14" d="M202.7,155.1c-1.5,1.3-3,2.4-4.4,3.5-1.5,1.1-3.1,2.3-4.8,3.1,3-2.4,6.1-4.7,9.3-6.6h-.1Z"/>
      <path class="st14" d="M317.8,153.6c-.6.6-1.4,1.1-2.2,1.6l-5,3.8c-2,1.4-3.8,2.7-5.1,3.6-.6.5-1.3.8-1.6,1-.1.1-.3.2-.6.3.6-.5,1.4-1.1,2-1.5l5-3.8c2-1.4,3.8-2.7,5.1-3.6.6-.5,1.3-.8,1.6-1,.2-.1.3-.2.6-.3h.1Z"/>
      <path class="st14" d="M309.3,156.4c-1.5,1.3-3,2.4-4.4,3.5s-3.1,2.3-4.8,3.1c1.4-1.3,3-2.4,4.4-3.5s3.1-2.3,4.8-3.1Z"/>
      <g class="st13">
        <polygon class="st4" points="219.6 169.9 200.6 169.9 178.5 179.7 178.5 188.8 219.6 169.9 219.6 169.9"/>
      </g>
      <g class="st13">
        <polygon class="st4" points="226.2 170.2 178.5 191.9 178.5 195.1 226.2 173.2 226.2 170.2"/>
      </g>
      <g class="st16">
        <rect class="st14" x="151.2" y="161.8" width="13.2" height="5.5"/>
      </g>
      <g class="st13">
        <rect class="st14" x="144.8" y="155.5" width="13.2" height="5.5"/>
      </g>
      <g class="st16">
        <rect class="st14" x="163.4" y="125.6" width="13.2" height="5.5"/>
      </g>
      <g class="st13">
        <rect class="st14" x="170.4" y="117.9" width="13.2" height="5.5"/>
      </g>
      <g class="st16">
        <rect class="st14" x="120.7" y="113.7" width="13.2" height="5.5"/>
      </g>
      <g class="st13">
        <rect class="st14" x="127.6" y="105.8" width="13.2" height="5.5"/>
      </g>
      <g class="st16">
        <rect class="st14" x="55.1" y="132.8" width="13.2" height="5.5"/>
      </g>
      <g class="st16">
        <rect class="st14" x="38.4" y="112" width="13.2" height="5.5"/>
      </g>
      <g class="st13">
        <rect class="st14" x="62.1" y="125.1" width="13.2" height="5.5"/>
      </g>
      <g class="st13">
        <rect class="st14" x="65.7" y="214.1" width="13.2" height="5.5"/>
      </g>
      <g class="st13">
        <rect class="st14" x="113.6" y="121.2" width="13.2" height="5.5"/>
      </g>
      <g class="st16">
        <rect class="st14" x="455.8" y="110.8" width="13.2" height="5.5"/>
      </g>
      <g class="st13">
        <rect class="st14" x="462.8" y="103.1" width="13.2" height="5.5"/>
      </g>
      <g class="st16">
        <rect class="st14" x="390.3" y="130.1" width="13.2" height="5.5"/>
      </g>
      <g class="st16">
        <rect class="st14" x="373.5" y="109.2" width="13.2" height="5.5"/>
      </g>
      <g class="st13">
        <rect class="st14" x="397.3" y="122.4" width="13.2" height="5.5"/>
      </g>
      <g class="st13">
        <rect class="st14" x="446.3" y="132.1" width="13.2" height="5.5"/>
      </g>
      <g class="st13">
        <rect class="st14" x="226.1" y="101.4" width="13.2" height="5.5"/>
      </g>
      <g class="st16">
        <rect class="st14" x="232.7" y="93.3" width="13.2" height="5.5"/>
      </g>
      <g class="st13">
        <rect class="st14" x="349.7" y="136.1" width="12.9" height="5.5"/>
      </g>
      <g class="st16">
        <rect class="st14" x="356.3" y="127.9" width="6.3" height="5.5"/>
      </g>
      <g class="st13">
        <rect class="st14" x="306.5" y="122.9" width="13.2" height="5.5"/>
      </g>
      <g class="st16">
        <rect class="st14" x="313.5" y="114.6" width="13.2" height="5.5"/>
      </g>
      <path class="st14" d="M141,227.6s-.1-32.4-.1-72.5,0-72.5.1-72.5.1,32.4.1,72.5,0,72.5-.1,72.5Z"/>
      <rect class="st14" x="299.7" y="192.7" width="2.8" height="10.5"/>
      <rect class="st14" x="305.5" y="192.7" width="2.8" height="10.5"/>
      <rect class="st23" x="83.1" y="141.8" width="51.7" height="71.8"/>
      <rect class="st14" x="88.2" y="147.1" width="41.7" height="61.6"/>
      <rect class="st23" x="91.7" y="164.3" width="34.6" height="40.4"/>
      <rect class="st23" x="91.7" y="150.7" width="34.6" height="11.4"/>
      <path class="st14" d="M109,205.9s-.1-9.1-.1-20.5,0-20.5.1-20.5.1,9.1.1,20.5,0,20.5-.1,20.5Z"/>
      <path class="st14" d="M105.5,187.5c-1.5,1.5-3,3-4.7,4.3-1.5,1.5-3.1,2.7-4.9,4,1.5-1.5,3-3,4.7-4.3,1.5-1.5,3.1-2.7,4.9-4.1h0Z"/>
      <path class="st14" d="M105.5,184.7c-.9,1-1.8,1.8-2.8,2.7s-2,1.7-3.1,2.5c.9-1,1.8-1.8,2.8-2.7s2-1.7,3.1-2.5Z"/>
      <path class="st14" d="M123.5,174.9c-1.6,1.5-3.3,3-5,4.3-1.6,1.5-3.4,2.8-5.2,4.1,1.6-1.5,3.3-3,5-4.3,1.6-1.5,3.4-2.8,5.2-4.1Z"/>
      <path class="st14" d="M119.1,181.2s-.3.6-1,1.3-1.1,1-1.3,1,.3-.6,1-1.3,1.3-1,1.3-1Z"/>
      <rect class="st23" x="25.7" y="141.8" width="51.7" height="71.8"/>
      <rect class="st14" x="30.7" y="147.1" width="41.7" height="61.6"/>
      <rect class="st23" x="34.3" y="164.3" width="34.6" height="40.4"/>
      <rect class="st23" x="34.3" y="150.7" width="34.6" height="11.4"/>
      <path class="st14" d="M51.5,205.9v-41,41Z"/>
      <path class="st14" d="M48,187.5c-1.5,1.5-3,3-4.7,4.3-1.5,1.5-3.1,2.7-4.9,4,1.5-1.5,3-3,4.7-4.3,1.5-1.5,3.3-2.8,4.9-4.1h0Z"/>
      <path class="st14" d="M48,184.7c-.9,1-1.8,1.8-2.8,2.7s-2,1.7-3.1,2.5c.9-1,1.8-1.8,2.8-2.7s2-1.7,3.1-2.5Z"/>
      <path class="st14" d="M66.1,174.9c-1.6,1.5-3.3,3-5,4.3-1.6,1.5-3.4,2.7-5.2,4,1.6-1.5,3.3-3,5-4.3,1.6-1.5,3.4-2.7,5.2-4Z"/>
      <path class="st14" d="M61.6,181.2s-.3.6-1,1.3-1.1,1-1.3,1,.3-.6,1-1.3,1.1-1,1.3-1Z"/>
      <rect class="st23" x="427.1" y="141.8" width="51.7" height="71.8"/>
      <rect class="st14" x="432.1" y="147.1" width="41.7" height="61.6"/>
      <rect class="st23" x="435.7" y="164.3" width="34.6" height="40.4"/>
      <rect class="st23" x="435.7" y="150.7" width="34.6" height="11.4"/>
      <path class="st14" d="M452.9,205.9s-.1-9.1-.1-20.5,0-20.5.1-20.5.1,9.1.1,20.5,0,20.5-.1,20.5Z"/>
      <path class="st14" d="M449.5,187.5c-1.5,1.5-3,3-4.7,4.3-1.5,1.5-3.1,2.8-4.9,4.1,1.5-1.5,3-3,4.7-4.3,1.5-1.5,3.1-2.8,4.9-4.1Z"/>
      <path class="st14" d="M449.5,184.7c-.9,1-1.8,1.8-2.8,2.7s-2,1.7-3.1,2.5c.9-1,1.8-1.8,2.8-2.7s2-1.7,3.1-2.5Z"/>
      <path class="st14" d="M467.6,174.9c-1.6,1.5-3.3,3-5,4.3-1.6,1.5-3.4,2.8-5.2,4.1,1.6-1.5,3.3-3,5-4.3,1.6-1.5,3.4-2.8,5.2-4.1Z"/>
      <path class="st14" d="M463.1,181.2s-.3.6-1,1.3-1.1,1-1.3,1,.3-.6,1-1.3,1.1-1,1.3-1Z"/>
      <rect class="st23" x="369.7" y="141.8" width="51.7" height="71.8"/>
      <rect class="st14" x="374.7" y="147.1" width="41.7" height="61.6"/>
      <rect class="st23" x="378.3" y="164.3" width="34.6" height="40.4"/>
      <rect class="st23" x="378.3" y="150.7" width="34.6" height="11.4"/>
      <path class="st14" d="M395.6,205.9s-.1-9.1-.1-20.5,0-20.5.1-20.5.1,9.1.1,20.5,0,20.5-.1,20.5Z"/>
      <path class="st14" d="M392,187.5c-1.5,1.5-3,3-4.7,4.3-1.5,1.5-3.1,2.8-4.9,4.1,1.5-1.5,3-3,4.7-4.3,1.5-1.5,3.1-2.8,4.9-4.1Z"/>
      <path class="st14" d="M392,184.7c-.9,1-1.8,1.8-2.8,2.7s-2,1.7-3.1,2.5c.9-1,1.8-1.8,2.8-2.7s2-1.7,3.1-2.5Z"/>
      <path class="st14" d="M410.1,174.9c-1.6,1.5-3.3,3-5,4.3-1.6,1.5-3.4,2.8-5.2,4.1,1.6-1.5,3.3-3,5-4.3,1.6-1.5,3.4-2.8,5.2-4.1Z"/>
      <path class="st14" d="M405.7,181.2s-.3.6-1,1.3-1.1,1-1.3,1,.3-.6,1-1.3,1.1-1,1.3-1Z"/>
      <rect class="st14" x="12.1" y="93.6" width="128.8" height="5.5"/>
      <rect class="st14" x="362.6" y="93.6" width="125.2" height="5.5"/>
      <path class="st14" d="M362.6,227.7s-.1-32.4-.1-72.5,0-72.5.1-72.5.1,32.4.1,72.5,0,72.5-.1,72.5Z"/>
    </g>
    <g id="freepik--freepik--high-school-building--inject-76--inject-901">
      <rect class="st24" x="16.9" y="319.8" width="468.4" height="131.5"/>
      <rect class="st24" x="141" y="305.8" width="221.6" height="146.8"/>
      <rect class="st23" x="16.9" y="412.2" width="158.4" height="13.1"/>
      <rect class="st23" x="328.1" y="412.2" width="157.2" height="13.1"/>
      <g class="st21">
        <rect class="st14" x="164.5" y="362.1" width="174.6" height="89"/>
      </g>
      <rect class="st14" x="133.5" y="298.4" width="233.8" height="7.4"/>
      <rect class="st14" x="175.3" y="370.5" width="154.8" height="80.7"/>
      <rect class="st23" x="280" y="393.4" width="47.7" height="55.8"/>
      <path class="st14" d="M303.8,450.5s-.1-13-.1-29,0-29,.1-29,.1,13,.1,29,0,29-.1,29Z"/>
      <rect class="st23" x="178.2" y="393.4" width="47.7" height="55.8"/>
      <path class="st14" d="M202,450.5s-.1-13-.1-29,0-29,.1-29,.1,13,.1,29,0,29-.1,29Z"/>
      <rect class="st14" x="197.9" y="416.1" width="2.8" height="10.5"/>
      <rect class="st14" x="203.6" y="416.1" width="2.8" height="10.5"/>
      <rect class="st23" x="178.5" y="374.1" width="47.7" height="15.8"/>
      <rect class="st23" x="229.1" y="374.1" width="47.7" height="15.8"/>
      <rect class="st23" x="279.7" y="374.1" width="47.7" height="15.8"/>
      <g class="st13">
        <polygon class="st4" points="327.7 408.1 280 429.8 280 435 327.7 412.3 327.7 408.1"/>
      </g>
      <g class="st13">
        <polygon class="st4" points="327.4 416.4 279.7 438.1 279.7 441.1 327.4 419.3 327.4 416.4"/>
      </g>
      <rect class="st23" x="229.1" y="393.4" width="47.7" height="55.8"/>
      <g class="st13">
        <polygon class="st4" points="276.7 393.4 229.1 415.1 229.1 425.3 276.7 402.1 276.7 393.4"/>
      </g>
      <g class="st13">
        <polygon class="st4" points="276.7 405.5 229.1 427.1 229.1 430.4 276.7 408.5 276.7 405.5"/>
      </g>
      <path class="st14" d="M253,450.5s-.1-13-.1-29,0-29,.1-29,.1,13,.1,29,0,29-.1,29Z"/>
      <path class="st14" d="M261.3,418.1s2-3,4.8-6.6c2.7-3.6,5-6.5,5-6.4s-2,3-4.8,6.6-5,6.5-5,6.4Z"/>
      <path class="st14" d="M259.8,428.4s2.4-3.8,5.5-8.1c3.1-4.3,5.7-8,5.9-7.9s-2.4,3.8-5.5,8.1-5.7,8-5.9,7.9Z"/>
      <path class="st14" d="M233.8,432s2.3-2.4,5.1-5.2,3.5-3.4,5.3-5c0,0-2.3,2.4-5.1,5.2s-3.5,3.4-5.3,5Z"/>
      <path class="st14" d="M230.5,441.1c.1-.2.3-.3.5-.6l1.6-1.5,5.2-4.9,5.1-4.9,1.5-1.5c.1-.2.3-.3.6-.5-.1.2-.3.3-.5.6-.3.3-.9.9-1.5,1.6-1.3,1.4-3,3.1-5.1,5s-3.9,3.5-5.2,4.8c-.8.6-1.3,1.1-1.6,1.4-.2.1-.3.3-.6.5h0Z"/>
      <rect class="st14" x="248.9" y="416.1" width="2.8" height="10.5"/>
      <rect class="st14" x="254.6" y="416.1" width="2.8" height="10.5"/>
      <path class="st14" d="M261.7,378.2c-.6.5-1.4,1.1-2,1.6l-5,3.8c-2,1.4-3.8,2.7-5.1,3.6-.6.5-1.3.8-1.6,1-.2.1-.3.2-.6.3.6-.5,1.4-1.1,2-1.6,1.4-1,3.1-2.3,5-3.8s3.8-2.7,5.1-3.6c.6-.5,1.3-.8,1.6-1,.1-.1.3-.2.6-.3h0Z"/>
      <path class="st14" d="M253.1,381c-1.5,1.3-3,2.4-4.4,3.5-1.5,1.1-3.1,2.3-4.8,3.1,1.5-1.3,3-2.4,4.4-3.5,1.5-1.1,3.1-2.3,4.8-3.1Z"/>
      <path class="st14" d="M211.2,375.7c-.6.6-1.4,1.1-2,1.5l-5,3.8c-2,1.4-3.8,2.7-5.1,3.6-.6.5-1.3.8-1.6,1-.2.1-.3.2-.6.3.6-.5,1.4-1.1,2-1.5l5-3.8c2-1.4,3.8-2.7,5.1-3.6.6-.5,1.3-.8,1.6-1,.2-.1.3-.2.6-.3Z"/>
      <path class="st14" d="M202.7,378.5c-1.5,1.3-3,2.4-4.4,3.5-1.5,1.1-3.1,2.3-4.8,3.1,3-2.4,6.1-4.7,9.3-6.6h-.1Z"/>
      <path class="st14" d="M317.8,376.9c-.6.6-1.4,1.1-2.2,1.6l-5,3.8c-2,1.4-3.8,2.7-5.1,3.6-.6.5-1.3.8-1.6,1-.1.1-.3.2-.6.3.6-.5,1.4-1.1,2-1.5l5-3.8c2-1.4,3.8-2.7,5.1-3.6.6-.5,1.3-.8,1.6-1,.2-.1.3-.2.6-.3h.1Z"/>
      <path class="st14" d="M309.3,379.8c-1.5,1.3-3,2.4-4.4,3.5s-3.1,2.3-4.8,3.1c1.4-1.3,3-2.4,4.4-3.5s3.1-2.3,4.8-3.1Z"/>
      <g class="st13">
        <polygon class="st4" points="219.6 393.4 200.6 393.4 178.5 403.2 178.5 412.2 219.6 393.4 219.6 393.4"/>
      </g>
      <g class="st13">
        <polygon class="st4" points="226.2 393.7 178.5 415.3 178.5 418.5 226.2 396.5 226.2 393.7"/>
      </g>
      <g class="st16">
        <rect class="st14" x="151.2" y="385.2" width="13.2" height="5.5"/>
      </g>
      <g class="st13">
        <rect class="st14" x="144.8" y="378.9" width="13.2" height="5.5"/>
      </g>
      <g class="st16">
        <rect class="st14" x="163.4" y="349.1" width="13.2" height="5.5"/>
      </g>
      <g class="st13">
        <rect class="st14" x="170.4" y="341.3" width="13.2" height="5.5"/>
      </g>
      <g class="st16">
        <rect class="st14" x="120.7" y="337.1" width="13.2" height="5.5"/>
      </g>
      <g class="st13">
        <rect class="st14" x="127.6" y="329.4" width="13.2" height="5.5"/>
      </g>
      <g class="st16">
        <rect class="st14" x="55.1" y="356.3" width="13.2" height="5.5"/>
      </g>
      <g class="st16">
        <rect class="st14" x="38.4" y="335.4" width="13.2" height="5.5"/>
      </g>
      <g class="st13">
        <rect class="st14" x="62.1" y="348.6" width="13.2" height="5.5"/>
      </g>
      <g class="st13">
        <rect class="st14" x="65.7" y="437.5" width="13.2" height="5.5"/>
      </g>
      <g class="st13">
        <rect class="st14" x="113.6" y="344.6" width="13.2" height="5.5"/>
      </g>
      <g class="st16">
        <rect class="st14" x="455.8" y="334.4" width="13.2" height="5.5"/>
      </g>
      <g class="st13">
        <rect class="st14" x="462.8" y="326.6" width="13.2" height="5.5"/>
      </g>
      <g class="st16">
        <rect class="st14" x="390.3" y="353.6" width="13.2" height="5.5"/>
      </g>
      <g class="st16">
        <rect class="st14" x="373.5" y="332.7" width="13.2" height="5.5"/>
      </g>
      <g class="st13">
        <rect class="st14" x="397.3" y="345.9" width="13.2" height="5.5"/>
      </g>
      <g class="st13">
        <rect class="st14" x="446.3" y="355.7" width="13.2" height="5.5"/>
      </g>
      <g class="st13">
        <rect class="st14" x="226.1" y="324.9" width="13.2" height="5.5"/>
      </g>
      <g class="st16">
        <rect class="st14" x="232.7" y="316.6" width="13.2" height="5.5"/>
      </g>
      <g class="st13">
        <rect class="st14" x="349.7" y="359.6" width="12.9" height="5.5"/>
      </g>
      <g class="st16">
        <rect class="st14" x="356.3" y="351.3" width="6.3" height="5.5"/>
      </g>
      <g class="st13">
        <rect class="st14" x="306.5" y="346.3" width="13.2" height="5.5"/>
      </g>
      <g class="st16">
        <rect class="st14" x="313.5" y="338.1" width="13.2" height="5.5"/>
      </g>
      <path class="st14" d="M141,451s-.1-32.4-.1-72.5,0-72.5.1-72.5.1,32.4.1,72.5,0,72.5-.1,72.5Z"/>
      <rect class="st14" x="299.7" y="416.1" width="2.8" height="10.5"/>
      <rect class="st14" x="305.5" y="416.1" width="2.8" height="10.5"/>
      <rect class="st23" x="83.1" y="365.3" width="51.7" height="71.8"/>
      <rect class="st14" x="88.2" y="370.5" width="41.7" height="61.6"/>
      <rect class="st23" x="91.7" y="387.6" width="34.6" height="40.4"/>
      <rect class="st23" x="91.7" y="374.1" width="34.6" height="11.4"/>
      <path class="st14" d="M109,429.4s-.1-9.1-.1-20.5,0-20.5.1-20.5.1,9.1.1,20.5,0,20.5-.1,20.5Z"/>
      <path class="st14" d="M105.5,411.1c-1.5,1.5-3,3-4.7,4.3-1.5,1.5-3.1,2.7-4.9,4,1.5-1.5,3-3,4.7-4.3,1.5-1.5,3.1-2.7,4.9-4.1h0Z"/>
      <path class="st14" d="M105.5,408.1c-.9,1-1.8,1.8-2.8,2.7s-2,1.7-3.1,2.5c.9-1,1.8-1.8,2.8-2.7s2-1.7,3.1-2.5Z"/>
      <path class="st14" d="M123.5,398.3c-1.6,1.5-3.3,3-5,4.3-1.6,1.5-3.4,2.8-5.2,4.1,1.6-1.5,3.3-3,5-4.3,1.6-1.5,3.4-2.8,5.2-4.1Z"/>
      <path class="st14" d="M119.1,404.6s-.3.6-1,1.3-1.1,1-1.3,1,.3-.6,1-1.3,1.3-1,1.3-1Z"/>
      <rect class="st23" x="25.7" y="365.3" width="51.7" height="71.8"/>
      <rect class="st14" x="30.7" y="370.5" width="41.7" height="61.6"/>
      <rect class="st23" x="34.3" y="387.6" width="34.6" height="40.4"/>
      <rect class="st23" x="34.3" y="374.1" width="34.6" height="11.4"/>
      <path class="st14" d="M51.5,429.4v-41,41Z"/>
      <path class="st14" d="M48,411.1c-1.5,1.5-3,3-4.7,4.3-1.5,1.5-3.1,2.7-4.9,4,1.5-1.5,3-3,4.7-4.3,1.5-1.5,3.3-2.8,4.9-4.1h0Z"/>
      <path class="st14" d="M48,408.1c-.9,1-1.8,1.8-2.8,2.7s-2,1.7-3.1,2.5c.9-1,1.8-1.8,2.8-2.7s2-1.7,3.1-2.5Z"/>
      <path class="st14" d="M66.1,398.3c-1.6,1.5-3.3,3-5,4.3-1.6,1.5-3.4,2.7-5.2,4,1.6-1.5,3.3-3,5-4.3,1.6-1.5,3.4-2.7,5.2-4Z"/>
      <path class="st14" d="M61.6,404.6s-.3.6-1,1.3-1.1,1-1.3,1,.3-.6,1-1.3,1.1-1,1.3-1Z"/>
      <rect class="st23" x="427.1" y="365.3" width="51.7" height="71.8"/>
      <rect class="st14" x="432.1" y="370.5" width="41.7" height="61.6"/>
      <rect class="st23" x="435.7" y="387.6" width="34.6" height="40.4"/>
      <rect class="st23" x="435.7" y="374.1" width="34.6" height="11.4"/>
      <path class="st14" d="M452.9,429.4s-.1-9.1-.1-20.5,0-20.5.1-20.5.1,9.1.1,20.5,0,20.5-.1,20.5Z"/>
      <path class="st14" d="M449.5,411.1c-1.5,1.5-3,3-4.7,4.3-1.5,1.5-3.1,2.8-4.9,4.1,1.5-1.5,3-3,4.7-4.3,1.5-1.5,3.1-2.8,4.9-4.1Z"/>
      <path class="st14" d="M449.5,408.1c-.9,1-1.8,1.8-2.8,2.7s-2,1.7-3.1,2.5c.9-1,1.8-1.8,2.8-2.7s2-1.7,3.1-2.5Z"/>
      <path class="st14" d="M467.6,398.3c-1.6,1.5-3.3,3-5,4.3-1.6,1.5-3.4,2.8-5.2,4.1,1.6-1.5,3.3-3,5-4.3,1.6-1.5,3.4-2.8,5.2-4.1Z"/>
      <path class="st14" d="M463.1,404.6s-.3.6-1,1.3-1.1,1-1.3,1,.3-.6,1-1.3,1.1-1,1.3-1Z"/>
      <rect class="st23" x="369.7" y="365.3" width="51.7" height="71.8"/>
      <rect class="st14" x="374.7" y="370.5" width="41.7" height="61.6"/>
      <rect class="st23" x="378.3" y="387.6" width="34.6" height="40.4"/>
      <rect class="st23" x="378.3" y="374.1" width="34.6" height="11.4"/>
      <path class="st14" d="M395.6,429.4s-.1-9.1-.1-20.5,0-20.5.1-20.5.1,9.1.1,20.5,0,20.5-.1,20.5Z"/>
      <path class="st14" d="M392,411.1c-1.5,1.5-3,3-4.7,4.3-1.5,1.5-3.1,2.8-4.9,4.1,1.5-1.5,3-3,4.7-4.3,1.5-1.5,3.1-2.8,4.9-4.1Z"/>
      <path class="st14" d="M392,408.1c-.9,1-1.8,1.8-2.8,2.7s-2,1.7-3.1,2.5c.9-1,1.8-1.8,2.8-2.7s2-1.7,3.1-2.5Z"/>
      <path class="st14" d="M410.1,398.3c-1.6,1.5-3.3,3-5,4.3-1.6,1.5-3.4,2.8-5.2,4.1,1.6-1.5,3.3-3,5-4.3,1.6-1.5,3.4-2.8,5.2-4.1Z"/>
      <path class="st14" d="M405.7,404.6s-.3.6-1,1.3-1.1,1-1.3,1,.3-.6,1-1.3,1.1-1,1.3-1Z"/>
      <path class="st14" d="M362.6,451.1s-.1-32.4-.1-72.5,0-72.5.1-72.5.1,32.4.1,72.5,0,72.5-.1,72.5Z"/>
    </g>
    <g id="freepik--freepik--high-school-building--inject-76--inject-902">
      <rect class="st24" x="64.3" y="22.2" width="379.9" height="251.6"/>
      <g class="st21">
        <rect class="st14" x="104.5" y="118.9" width="299.1" height="152.7"/>
      </g>
      <rect class="st14" x="51.4" y="9.7" width="400.6" height="12.6"/>
      <rect class="st14" x="123.3" y="133.1" width="265.5" height="138.4"/>
      <rect class="st23" x="302.6" y="172.4" width="81.8" height="95.8"/>
      <path class="st14" d="M343.4,270.2c-.1,0-.3-22.2-.3-49.7s.1-49.7.3-49.7.3,22.2.3,49.7-.2,49.7-.3,49.7Z"/>
      <rect class="st23" x="128" y="172.4" width="81.8" height="95.8"/>
      <path class="st14" d="M168.7,270.2c-.1,0-.2-22.2-.2-49.7s.1-49.7.2-49.7.3,22.2.3,49.7-.1,49.7-.3,49.7Z"/>
      <rect class="st14" x="161.9" y="211.2" width="4.9" height="18"/>
      <rect class="st14" x="171.7" y="211.2" width="4.9" height="18"/>
      <rect class="st23" x="128.6" y="139.4" width="81.8" height="27.2"/>
      <rect class="st23" x="215.4" y="139.4" width="81.8" height="27.2"/>
      <rect class="st23" x="302" y="139.4" width="81.8" height="27.2"/>
      <g class="st13">
        <polygon class="st4" points="384.4 197.8 302.6 234.9 302.6 243.8 384.4 205 384.4 197.8"/>
      </g>
      <g class="st13">
        <polygon class="st4" points="383.8 211.8 302 248.9 302 254.2 383.8 216.8 383.8 211.8"/>
      </g>
      <rect class="st23" x="215.4" y="172.4" width="81.8" height="95.8"/>
      <g class="st13">
        <polygon class="st4" points="297 172.4 215.4 209.5 215.4 227.2 297 187.3 297 172.4"/>
      </g>
      <g class="st13">
        <polygon class="st4" points="297 193.2 215.4 230.3 215.4 235.8 297 198.2 297 193.2"/>
      </g>
      <path class="st14" d="M256,270.2c-.1,0-.3-22.2-.3-49.7s.1-49.7.3-49.7.3,22.2.3,49.7-.1,49.7-.3,49.7Z"/>
      <path class="st14" d="M270.5,214.8c-.1,0,3.5-5.1,8.1-11.4,4.7-6.1,8.5-11,8.7-11s-3.5,5.1-8.1,11.4-8.5,11.2-8.7,11Z"/>
      <path class="st14" d="M268.1,232.4c-.1,0,4.1-6.4,9.4-13.9,5.3-7.5,9.9-13.7,10-13.7s-4.1,6.4-9.4,13.9c-5.3,7.5-9.9,13.7-10,13.7Z"/>
      <path class="st14" d="M223.5,238.7s3.9-4.1,8.9-9c3-3,6-5.9,9.2-8.5,0,0-3.9,4.1-8.9,9-2.8,3-6,5.9-9.2,8.7h0Z"/>
      <path class="st14" d="M217.7,254.2c.2-.3.6-.6.9-1l2.7-2.5,9-8.2,8.8-8.4,2.6-2.5c.2-.3.6-.6,1-.9-.2.3-.5.8-.9,1-.6.6-1.5,1.6-2.5,2.7-2.2,2.3-5.2,5.2-8.8,8.7-3.5,3.3-6.7,6.1-9.1,8.1-1.3,1-2.2,1.8-2.8,2.4-.3.2-.6.6-1,.9v-.2h.1Z"/>
      <rect class="st14" x="249.2" y="211.2" width="4.9" height="18"/>
      <rect class="st14" x="258.9" y="211.2" width="4.9" height="18"/>
      <path class="st14" d="M271.2,146.5c-1.1,1-2.3,1.8-3.5,2.6l-8.7,6.4c-3.4,2.4-6.4,4.7-8.8,6.3-1.1.8-2.2,1.4-2.7,1.7-.3.2-.6.3-1,.5,1.1-1,2.3-1.8,3.5-2.6,2.4-1.7,5.2-3.9,8.7-6.4,3.3-2.5,6.4-4.7,8.8-6.3,1.1-.8,2.2-1.4,2.7-1.7.3-.2.6-.3,1-.5h0Z"/>
      <path class="st14" d="M256.5,151.4c-2.5,2.2-5.1,4.1-7.7,6-2.6,2-5.3,3.9-8.1,5.5,2.5-2.2,5.1-4.1,7.7-6,2.6-2,5.3-3.9,8.1-5.5Z"/>
      <path class="st14" d="M184.8,142.1c-1.1,1-2.3,1.8-3.5,2.6l-8.7,6.4c-3.4,2.4-6.4,4.7-8.8,6.3-1.1.8-2.2,1.4-2.7,1.7-.3.2-.6.3-1,.5,1.1-1,2.3-1.8,3.5-2.6l8.7-6.4c3.4-2.5,6.4-4.7,8.8-6.3,1.1-.8,2.2-1.4,2.7-1.7.3-.2.6-.3,1-.5Z"/>
      <path class="st14" d="M170,146.9c-2.5,2.2-5.1,4.1-7.7,6-2.6,2-5.3,3.8-8.1,5.5,5.1-4.1,10.4-8,15.9-11.4h-.1,0Z"/>
      <path class="st14" d="M367.5,144.2c-1.1,1-2.3,1.8-3.5,2.6l-8.7,6.4c-3.4,2.5-6.4,4.7-8.8,6.3-1.1.8-2.2,1.4-2.7,1.7-.3.2-.6.3-1,.5,1.1-1,2.3-1.8,3.5-2.6l8.7-6.4c3.4-2.4,6.4-4.7,8.8-6.3,1.1-.8,2.2-1.4,2.7-1.7.3-.2.8-.3,1-.5Z"/>
      <path class="st14" d="M352.7,149.1c-2.5,2.2-5.1,4.1-7.7,6-2.6,2-5.3,3.9-8.1,5.5,2.5-2.2,5.1-4.1,7.7-6,2.6-2,5.3-3.8,8.1-5.5Z"/>
      <g class="st13">
        <polygon class="st4" points="199.1 172.4 166.6 172.4 128.6 189.1 128.6 204.6 199.1 172.4 199.1 172.4"/>
      </g>
      <g class="st13">
        <polygon class="st4" points="210.4 173 128.6 210.1 128.6 215.4 210.4 178 210.4 173"/>
      </g>
      <g class="st16">
        <rect class="st14" x="81.9" y="158.4" width="22.8" height="9.3"/>
      </g>
      <g class="st13">
        <rect class="st14" x="70.9" y="147.5" width="22.8" height="9.3"/>
      </g>
      <g class="st16">
        <rect class="st14" x="102.6" y="96.4" width="22.8" height="9.3"/>
      </g>
      <g class="st13">
        <rect class="st14" x="114.7" y="83.3" width="22.8" height="9.3"/>
      </g>
      <g class="st16">
        <rect class="st14" x="221.4" y="41" width="22.8" height="9.3"/>
      </g>
      <g class="st13">
        <rect class="st14" x="422" y="114.4" width="22.1" height="9.3"/>
      </g>
      <g class="st16">
        <rect class="st14" x="433.4" y="100.4" width="10.7" height="9.3"/>
      </g>
      <g class="st13">
        <rect class="st14" x="348" y="91.6" width="22.8" height="9.3"/>
      </g>
      <g class="st16">
        <rect class="st14" x="360.1" y="77.7" width="22.8" height="9.3"/>
      </g>
      <path class="st14" d="M64.4,271.2c-.2,0-.3-55.7-.3-124.4s0-124.4.3-124.4.2,55.7.2,124.4,0,124.4-.2,124.4Z"/>
      <rect class="st14" x="336.5" y="211.2" width="4.9" height="18"/>
      <rect class="st14" x="346.2" y="211.2" width="4.9" height="18"/>
    </g>
    <g id="freepik--freepik--high-school-building--inject-76--inject-9011" data-name="freepik--freepik--high-school-building--inject-76--inject-901">
      <rect class="st24" x="16.9" y="207.5" width="468.4" height="131.5"/>
      <rect class="st24" x="141" y="193.5" width="221.6" height="146.8"/>
      <rect class="st23" x="16.9" y="300" width="158.4" height="13.1"/>
      <rect class="st23" x="328.1" y="300" width="157.2" height="13.1"/>
      <g class="st21">
        <rect class="st14" x="164.5" y="249.9" width="174.6" height="89"/>
      </g>
      <g class="st21">
        <path class="st14" d="M226.1,234.3c-.6-.1-1.3-.3-1.7-.8l.9-2c1,.6,2,1,3.1,1s1.6-.2,1.6-.8-.1-.5-.5-.6c-.5-.1-1-.3-1.4-.3-.6-.1-1.3-.2-1.7-.5-.5-.1-.9-.5-1.3-.9-.3-.5-.5-1-.5-1.6s.1-1.1.5-1.6c.3-.5.9-.9,1.4-1.1.8-.2,1.5-.5,2.4-.3.6,0,1.3,0,1.8.2.6.1,1.1.3,1.6.6l-.9,2c-.8-.5-1.7-.8-2.6-.8s-.9,0-1.1.2c-.2,0-.3.3-.3.6s.1.5.5.6c.5.1,1,.2,1.4.3.6.1,1.3.2,1.8.5.5.1.9.5,1.3.9.3.5.5,1,.5,1.6s-.1,1.1-.5,1.5c-.3.5-.9.9-1.4,1.1-.8.2-1.5.3-2.4.3s-1.5-.1-2.3-.3h-.2v.2Z"/>
        <path class="st14" d="M236,233.9c-.8-.3-1.4-1-1.8-1.7-.9-1.6-.9-3.5,0-5.1.5-.8,1.1-1.4,1.8-1.7,1.6-.8,3.5-.9,5.1-.1.6.2,1.3.8,1.7,1.4l-1.7,1.5c-.5-.8-1.4-1.1-2.3-1.1s-1,0-1.4.3c-.3.2-.8.6-1,1-.3.9-.3,2,0,2.8.2.3.5.8,1,1,1.3.6,2.7.3,3.6-.8l1.7,1.5c-.5.6-1.1,1-1.7,1.4-1.6.6-3.5.6-5.1-.1h0v-.2h0Z"/>
        <path class="st14" d="M253.1,224.8v9.6h-2.7v-3.8h-3.8v3.8h-2.7v-9.6h2.7v3.6h3.8v-3.6h2.7Z"/>
        <path class="st14" d="M257.1,233.9c-2.4-1.3-3.4-4.2-2.2-6.6.5-.9,1.3-1.6,2.2-2.2,1.7-.9,3.8-.9,5.5,0,2.4,1.3,3.4,4.2,2.2,6.6h0c-.5.9-1.1,1.6-2.2,2.2-1.7.9-3.8.9-5.5,0h0ZM261.2,232.1c.3-.2.8-.5,1-1,.5-.9.5-2,0-2.8-.2-.3-.5-.8-.9-1-.9-.5-1.8-.5-2.6,0s-.8.6-1,1c-.5.9-.5,2,0,2.8.2.3.5.8,1,1,.8.5,1.7.5,2.6,0h-.1Z"/>
        <path class="st14" d="M268.7,233.9c-2.4-1.3-3.4-4.2-2-6.6.5-.9,1.1-1.6,2-2,1.7-.9,3.8-.9,5.5,0,2.4,1.3,3.4,4.2,2,6.6-.5.9-1.1,1.6-2,2-1.7.9-3.8.9-5.5,0ZM272.8,232.1c.3-.2.8-.5,1-1,.5-.9.5-2,0-2.8-.2-.3-.5-.8-1-1-.9-.5-1.7-.5-2.6,0-.3.2-.8.6-.9,1-.5.9-.5,2,0,2.8.2.3.5.8.9,1,.9.5,1.7.5,2.6,0Z"/>
        <path class="st14" d="M278.1,224.8h2.7v7.5h4.7v2.2h-7.3v-9.6h-.1Z"/>
      </g>
      <path class="st14" d="M225.3,233.5c-.6-.1-1.3-.3-1.7-.8l.9-2c1,.6,2,.9,3.1,1,1,0,1.5-.2,1.5-.8s-.1-.5-.5-.6c-.5-.1-.9-.3-1.4-.3s-1.3-.2-1.7-.5c-.5-.1-.9-.5-1.3-.9-.3-.5-.5-1-.5-1.6s.1-1.1.5-1.6c.3-.5.9-.9,1.4-1.1.8-.2,1.5-.3,2.4-.3s1.3,0,1.8.2c.6,0,1.1.3,1.6.6l-.9,2c-.8-.5-1.7-.8-2.6-.8s-.9,0-1.1.2c-.2.1-.3.3-.3.6s.1.5.3.6c.5.1,1,.2,1.4.3.6.1,1.3.2,1.7.5.5.1.9.5,1.3.9.3.5.6,1,.5,1.6,0,.5-.1,1.1-.5,1.6-.3.5-.9.9-1.4,1.1-.8.2-1.5.3-2.4.3s-1.5-.1-2.3-.3h.2Z"/>
      <path class="st14" d="M235.2,233.2c-.8-.3-1.4-1-1.8-1.7-.9-1.6-.9-3.5,0-5.1.5-.8,1.1-1.4,1.8-1.7,1.6-.8,3.4-.9,5.1-.1.8.2,1.3.8,1.7,1.4l-1.7,1.6c-.9-1.1-2.4-1.4-3.6-.8-.3.2-.8.5-1,1-.5.9-.5,2,0,2.8.2.3.5.8,1,1,1.3.8,2.7.3,3.6-.8l1.7,1.6c-.5.6-1.1,1-1.7,1.4-.8.3-1.5.5-2.4.5s-1.8-.2-2.7-.8v-.3h0Z"/>
      <path class="st14" d="M252.3,224.1v9.6h-2.7v-3.8h-3.8v3.8h-2.7v-9.6h2.7v3.6h3.8v-3.6h2.7Z"/>
      <path class="st14" d="M256.5,233.2c-2.4-1.3-3.4-4.2-2.2-6.6h0c.5-.9,1.3-1.6,2.2-2.2,1.7-.9,3.8-.9,5.5,0,2.4,1.3,3.4,4.2,2.2,6.6-.5.9-1.3,1.6-2.2,2.2-1.7.9-3.8.9-5.5,0h0ZM260.5,231.3c.3-.2.8-.5,1-1,.5-.9.5-2,0-2.8-.2-.3-.5-.8-.9-1-.3-.2-.9-.3-1.4-.3s-.9,0-1.4.3c-.3.2-.8.6-.9,1-.2.3-.3.9-.3,1.4s0,1,.3,1.4c.2.3.5.8.9,1,.9.5,1.8.5,2.6,0h0Z"/>
      <path class="st14" d="M267.9,233.2c-2.4-1.3-3.4-4.2-2-6.6.5-.9,1.1-1.6,2-2,1.7-.9,3.8-.9,5.5,0,2.4,1.3,3.4,4.2,2,6.6-.5.9-1.1,1.6-2,2-1.7.9-3.8.9-5.5,0ZM272.1,231.3c.3-.2.8-.5.9-1,.5-.9.5-2,0-2.8-.2-.3-.5-.8-.9-1-.9-.5-1.8-.5-2.6,0-.3.2-.8.5-.9,1-.5.9-.5,2,0,2.8.2.3.5.8.9,1,.9.5,1.8.5,2.6,0Z"/>
      <path class="st14" d="M277.4,224.1h2.7v7.5h4.7v2.2h-7.3v-9.6h-.1Z"/>
      <rect class="st14" x="133.5" y="186.1" width="233.8" height="7.4"/>
      <rect class="st14" x="175.3" y="258.2" width="154.8" height="80.7"/>
      <rect class="st23" x="280" y="281.1" width="47.7" height="55.8"/>
      <path class="st14" d="M303.8,338.1s-.1-13-.1-29,0-29,.1-29,.1,13,.1,29,0,29-.1,29Z"/>
      <rect class="st23" x="178.2" y="281.1" width="47.7" height="55.8"/>
      <path class="st14" d="M202,338.1s-.1-13-.1-29,0-29,.1-29,.1,13,.1,29,0,29-.1,29Z"/>
      <rect class="st14" x="197.9" y="303.9" width="2.8" height="10.5"/>
      <rect class="st14" x="203.6" y="303.9" width="2.8" height="10.5"/>
      <rect class="st23" x="178.5" y="261.9" width="47.7" height="15.8"/>
      <rect class="st23" x="229.1" y="261.9" width="47.7" height="15.8"/>
      <rect class="st23" x="279.7" y="261.9" width="47.7" height="15.8"/>
      <g class="st13">
        <polygon class="st4" points="327.7 295.8 280 317.5 280 322.6 327.7 300.1 327.7 295.8"/>
      </g>
      <g class="st13">
        <polygon class="st4" points="327.4 304.1 279.7 325.7 279.7 328.9 327.4 306.9 327.4 304.1"/>
      </g>
      <rect class="st23" x="229.1" y="281.1" width="47.7" height="55.8"/>
      <g class="st13">
        <polygon class="st4" points="276.7 281.1 229.1 302.7 229.1 313.1 276.7 289.9 276.7 281.1"/>
      </g>
      <g class="st13">
        <polygon class="st4" points="276.7 293.2 229.1 314.9 229.1 318.1 276.7 296.2 276.7 293.2"/>
      </g>
      <path class="st14" d="M253,338.1s-.1-13-.1-29,0-29,.1-29,.1,13,.1,29,0,29-.1,29Z"/>
      <path class="st14" d="M261.3,305.8s2-3,4.8-6.6,5-6.5,5-6.4-2,3-4.8,6.6-5,6.5-5,6.4Z"/>
      <path class="st14" d="M259.8,316s2.4-3.8,5.5-8.1c3.1-4.3,5.7-8,5.9-7.9s-2.4,3.8-5.5,8.1-5.7,8-5.9,7.9Z"/>
      <path class="st14" d="M233.8,319.7s2.3-2.4,5.1-5.2,3.5-3.4,5.3-5c0,0-2.3,2.4-5.1,5.2-2.8,2.8-3.5,3.4-5.3,5Z"/>
      <path class="st14" d="M230.5,328.9c.1-.2.3-.3.5-.6l1.6-1.5,5.2-4.9,5.1-4.9,1.5-1.5c.1-.2.3-.3.6-.5-.1.2-.3.3-.5.6-.3.3-.9.9-1.5,1.6-1.3,1.4-3,3.1-5.1,5s-3.9,3.5-5.2,4.8c-.8.6-1.3,1.1-1.6,1.4-.2.1-.3.3-.6.5h0Z"/>
      <rect class="st14" x="248.9" y="303.9" width="2.8" height="10.5"/>
      <rect class="st14" x="254.6" y="303.9" width="2.8" height="10.5"/>
      <path class="st14" d="M261.7,266c-.6.5-1.4,1.1-2,1.6l-5,3.8c-2,1.4-3.8,2.7-5.1,3.6-.6.5-1.3.8-1.6,1-.2.1-.3.2-.6.3.6-.5,1.4-1.1,2-1.6,1.4-1,3.1-2.3,5-3.8s3.8-2.7,5.1-3.6c.6-.5,1.3-.8,1.6-1,.1-.1.3-.2.6-.3h0Z"/>
      <path class="st14" d="M253.1,268.8c-1.5,1.3-3,2.4-4.4,3.5-1.5,1.1-3.1,2.3-4.8,3.1,1.5-1.3,3-2.4,4.4-3.5,1.5-1.1,3.1-2.3,4.8-3.1Z"/>
      <path class="st14" d="M211.2,263.5c-.6.6-1.4,1.1-2,1.5l-5,3.8c-2,1.4-3.8,2.7-5.1,3.6-.6.5-1.3.8-1.6,1-.2.1-.3.2-.6.3.6-.5,1.4-1.1,2-1.5l5-3.8c2-1.4,3.8-2.7,5.1-3.6.6-.5,1.3-.8,1.6-1,.2-.1.3-.2.6-.3h0Z"/>
      <path class="st14" d="M202.7,266.2c-1.5,1.3-3,2.4-4.4,3.5-1.5,1.1-3.1,2.3-4.8,3.1,3-2.4,6.1-4.7,9.3-6.6h-.1Z"/>
      <path class="st14" d="M317.8,264.7c-.6.6-1.4,1.1-2.2,1.6l-5,3.8c-2,1.4-3.8,2.7-5.1,3.6-.6.5-1.3.8-1.6,1-.1.1-.3.2-.6.3.6-.5,1.4-1.1,2-1.5l5-3.8c2-1.4,3.8-2.7,5.1-3.6.6-.5,1.3-.8,1.6-1,.2-.1.3-.2.6-.3h.1Z"/>
      <path class="st14" d="M309.3,267.4c-1.5,1.3-3,2.4-4.4,3.5s-3.1,2.3-4.8,3.1c1.4-1.3,3-2.4,4.4-3.5s3.1-2.3,4.8-3.1h0Z"/>
      <g class="st13">
        <polygon class="st4" points="219.6 281.1 200.6 281.1 178.5 290.9 178.5 300 219.6 281.1 219.6 281.1"/>
      </g>
      <g class="st13">
        <polygon class="st4" points="226.2 281.3 178.5 303.1 178.5 306.3 226.2 284.4 226.2 281.3"/>
      </g>
      <g class="st16">
        <rect class="st14" x="151.2" y="273" width="13.2" height="5.5"/>
      </g>
      <g class="st13">
        <rect class="st14" x="144.8" y="266.7" width="13.2" height="5.5"/>
      </g>
      <g class="st16">
        <rect class="st14" x="163.4" y="236.8" width="13.2" height="5.5"/>
      </g>
      <g class="st13">
        <rect class="st14" x="170.4" y="229" width="13.2" height="5.5"/>
      </g>
      <g class="st16">
        <rect class="st14" x="120.7" y="224.8" width="13.2" height="5.5"/>
      </g>
      <g class="st13">
        <rect class="st14" x="127.6" y="217" width="13.2" height="5.5"/>
      </g>
      <g class="st16">
        <rect class="st14" x="55.1" y="244" width="13.2" height="5.5"/>
      </g>
      <g class="st16">
        <rect class="st14" x="38.4" y="223.2" width="13.2" height="5.5"/>
      </g>
      <g class="st13">
        <rect class="st14" x="62.1" y="236.3" width="13.2" height="5.5"/>
      </g>
      <g class="st13">
        <rect class="st14" x="65.7" y="325.2" width="13.2" height="5.5"/>
      </g>
      <g class="st13">
        <rect class="st14" x="113.6" y="232.4" width="13.2" height="5.5"/>
      </g>
      <g class="st16">
        <rect class="st14" x="455.8" y="222" width="13.2" height="5.5"/>
      </g>
      <g class="st13">
        <rect class="st14" x="462.8" y="214.3" width="13.2" height="5.5"/>
      </g>
      <g class="st16">
        <rect class="st14" x="390.3" y="241.3" width="13.2" height="5.5"/>
      </g>
      <g class="st16">
        <rect class="st14" x="373.5" y="220.4" width="13.2" height="5.5"/>
      </g>
      <g class="st13">
        <rect class="st14" x="397.3" y="233.6" width="13.2" height="5.5"/>
      </g>
      <g class="st13">
        <rect class="st14" x="446.3" y="243.3" width="13.2" height="5.5"/>
      </g>
      <g class="st13">
        <rect class="st14" x="226.1" y="212.6" width="13.2" height="5.5"/>
      </g>
      <g class="st16">
        <rect class="st14" x="232.7" y="204.4" width="13.2" height="5.5"/>
      </g>
      <g class="st13">
        <rect class="st14" x="349.7" y="247.3" width="12.9" height="5.5"/>
      </g>
      <g class="st16">
        <rect class="st14" x="356.3" y="239" width="6.3" height="5.5"/>
      </g>
      <g class="st13">
        <rect class="st14" x="306.5" y="234" width="13.2" height="5.5"/>
      </g>
      <g class="st16">
        <rect class="st14" x="313.5" y="225.8" width="13.2" height="5.5"/>
      </g>
      <path class="st14" d="M141,338.8s-.1-32.4-.1-72.5,0-72.5.1-72.5.1,32.4.1,72.5,0,72.5-.1,72.5Z"/>
      <rect class="st14" x="299.7" y="303.9" width="2.8" height="10.5"/>
      <rect class="st14" x="305.5" y="303.9" width="2.8" height="10.5"/>
      <rect class="st23" x="83.1" y="253" width="51.7" height="71.8"/>
      <rect class="st14" x="88.2" y="258.2" width="41.7" height="61.6"/>
      <rect class="st23" x="91.7" y="275.5" width="34.6" height="40.4"/>
      <rect class="st23" x="91.7" y="261.9" width="34.6" height="11.4"/>
      <path class="st14" d="M109,317.1s-.1-9.1-.1-20.5,0-20.5.1-20.5.1,9.1.1,20.5,0,20.5-.1,20.5Z"/>
      <path class="st14" d="M105.5,298.7c-1.5,1.5-3,3-4.7,4.3-1.5,1.5-3.1,2.7-4.9,4,1.5-1.5,3-3,4.7-4.3,1.5-1.5,3.1-2.7,4.9-4.1h0Z"/>
      <path class="st14" d="M105.5,295.8c-.9,1-1.8,1.8-2.8,2.7s-2,1.7-3.1,2.5c.9-1,1.8-1.8,2.8-2.7s2-1.7,3.1-2.5Z"/>
      <path class="st14" d="M123.5,286.1c-1.6,1.5-3.3,3-5,4.3-1.6,1.5-3.4,2.8-5.2,4.1,1.6-1.5,3.3-3,5-4.3,1.6-1.5,3.4-2.8,5.2-4.1Z"/>
      <path class="st14" d="M119.1,292.4s-.3.6-1,1.3-1.1,1-1.3,1,.3-.6,1-1.3,1.3-1,1.3-1Z"/>
      <rect class="st23" x="25.7" y="253" width="51.7" height="71.8"/>
      <rect class="st14" x="30.7" y="258.2" width="41.7" height="61.6"/>
      <rect class="st23" x="34.3" y="275.5" width="34.6" height="40.4"/>
      <rect class="st23" x="34.3" y="261.9" width="34.6" height="11.4"/>
      <path class="st14" d="M51.5,317.1v-41,41Z"/>
      <path class="st14" d="M48,298.7c-1.5,1.5-3,3-4.7,4.3-1.5,1.5-3.1,2.7-4.9,4,1.5-1.5,3-3,4.7-4.3,1.5-1.5,3.3-2.8,4.9-4.1h0Z"/>
      <path class="st14" d="M48,295.8c-.9,1-1.8,1.8-2.8,2.7s-2,1.7-3.1,2.5c.9-1,1.8-1.8,2.8-2.7s2-1.7,3.1-2.5Z"/>
      <path class="st14" d="M66.1,286.1c-1.6,1.5-3.3,3-5,4.3-1.6,1.5-3.4,2.7-5.2,4,1.6-1.5,3.3-3,5-4.3,1.6-1.5,3.4-2.7,5.2-4Z"/>
      <path class="st14" d="M61.6,292.4s-.3.6-1,1.3-1.1,1-1.3,1,.3-.6,1-1.3,1.1-1,1.3-1Z"/>
      <rect class="st23" x="427.1" y="253" width="51.7" height="71.8"/>
      <rect class="st14" x="432.1" y="258.2" width="41.7" height="61.6"/>
      <rect class="st23" x="435.7" y="275.5" width="34.6" height="40.4"/>
      <rect class="st23" x="435.7" y="261.9" width="34.6" height="11.4"/>
      <path class="st14" d="M452.9,317.1s-.1-9.1-.1-20.5,0-20.5.1-20.5.1,9.1.1,20.5,0,20.5-.1,20.5Z"/>
      <path class="st14" d="M449.5,298.7c-1.5,1.5-3,3-4.7,4.3-1.5,1.5-3.1,2.8-4.9,4.1,1.5-1.5,3-3,4.7-4.3,1.5-1.5,3.1-2.8,4.9-4.1Z"/>
      <path class="st14" d="M449.5,295.8c-.9,1-1.8,1.8-2.8,2.7s-2,1.7-3.1,2.5c.9-1,1.8-1.8,2.8-2.7s2-1.7,3.1-2.5Z"/>
      <path class="st14" d="M467.6,286.1c-1.6,1.5-3.3,3-5,4.3-1.6,1.5-3.4,2.8-5.2,4.1,1.6-1.5,3.3-3,5-4.3,1.6-1.5,3.4-2.8,5.2-4.1Z"/>
      <path class="st14" d="M463.1,292.4s-.3.6-1,1.3-1.1,1-1.3,1,.3-.6,1-1.3,1.1-1,1.3-1Z"/>
      <rect class="st23" x="369.7" y="253" width="51.7" height="71.8"/>
      <rect class="st14" x="374.7" y="258.2" width="41.7" height="61.6"/>
      <rect class="st23" x="378.3" y="275.5" width="34.6" height="40.4"/>
      <rect class="st23" x="378.3" y="261.9" width="34.6" height="11.4"/>
      <path class="st14" d="M395.6,317.1s-.1-9.1-.1-20.5,0-20.5.1-20.5.1,9.1.1,20.5,0,20.5-.1,20.5Z"/>
      <path class="st14" d="M392,298.7c-1.5,1.5-3,3-4.7,4.3-1.5,1.5-3.1,2.8-4.9,4.1,1.5-1.5,3-3,4.7-4.3,1.5-1.5,3.1-2.8,4.9-4.1Z"/>
      <path class="st14" d="M392,295.8c-.9,1-1.8,1.8-2.8,2.7s-2,1.7-3.1,2.5c.9-1,1.8-1.8,2.8-2.7s2-1.7,3.1-2.5Z"/>
      <path class="st14" d="M410.1,286.1c-1.6,1.5-3.3,3-5,4.3-1.6,1.5-3.4,2.8-5.2,4.1,1.6-1.5,3.3-3,5-4.3,1.6-1.5,3.4-2.8,5.2-4.1Z"/>
      <path class="st14" d="M405.7,292.4s-.3.6-1,1.3-1.1,1-1.3,1,.3-.6,1-1.3,1.1-1,1.3-1Z"/>
      <rect class="st14" x="12.1" y="204.8" width="128.8" height="5.5"/>
      <rect class="st14" x="362.6" y="204.8" width="125.2" height="5.5"/>
      <path class="st14" d="M362.6,338.9s-.1-32.4-.1-72.5,0-72.5.1-72.5.1,32.4.1,72.5,0,72.5-.1,72.5Z"/>
    </g>
  </g>
  <path class="st4" d="M422.2,141.9v-45.2h0c0-.6,0-1.3-.1-1.8h0c0-.5,0-.7-.2-1h0v-.2c0-.2-.1-.5-.2-.8-.2-.9-.7-1.7-1-2.5-.9-1.5-2-2.6-3.3-3.8-.9-.6-1.7-1.1-2.6-1.5-1-.3-2-.7-3.2-.9H89.2c-1,.2-2,.5-3.2.9-2,.8-3.8,2.2-5.1,3.9-1.4,1.8-2.3,3.8-2.6,6-.2,1-.2,2.2-.2,3.2v213.4c0,1.3.2,2.5.6,3.8s.9,2.4,1.6,3.4c.8,1,1.6,1.9,2.6,2.7.9.8,2,1.5,3.2,1.9s2.4.8,3.6.9h321.5c.9,0,1.9-.3,2.7-.7,3.5-1.3,6.4-4,7.7-7.5.7-1.7.9-3.5.9-5.3v-168.8h-.3Z"/>
  <g id="freepik--Shadow--inject-35">
    <ellipse id="freepik--path--inject-35" class="st24" cx="250" cy="456.5" rx="242.8" ry="33.3"/>
  </g>
  <g>
    <g id="freepik--Device--inject-231">
      <path class="st14" d="M96.2,88.4h307.6c6.7,0,12.2,5.5,12.2,12.2v207c0,6.7-5.5,12.2-12.2,12.2H96.2c-6.7,0-12.2-5.5-12.2-12.2V100.5c0-6.7,5.5-12.2,12.2-12.2h0Z"/>
      <path class="st3" d="M416.1,100.5v-.7c0-.7-.2-1.4-.3-2.2-.7-2.7-2.3-5.1-4.6-6.8-.7-.6-1.7-1.1-2.5-1.5-1-.3-2-.7-3.1-.8-1.1,0-2.4-.2-3.5,0H94.8c-1,0-1.9.3-3,.7-1.8.7-3.5,2-4.8,3.5-1.3,1.6-2.2,3.5-2.4,5.5,0,1-.2,2-.2,3.1v205.8c0,1.1.2,2.3.5,3.5,1.4,4.6,5.5,7.9,10.1,8.3h310.3c.8,0,1.7-.2,2.6-.6,3.3-1.1,5.9-3.6,7.2-6.9.6-1.6.8-3.3.8-5V102.9c0-1.7,0-2.6.2-2.7v206.3c0,1.7-.2,3.5-.8,5.1-1.3,3.4-4.1,6-7.4,7.3-.8.2-1.7.6-2.6.7s-1.8,0-2.6,0H95.1c-1.1-.2-2.4-.5-3.5-.9s-2.2-1.1-3.1-1.8c-.9-.8-1.7-1.7-2.5-2.6-.7-1-1.1-2.2-1.6-3.3-.3-1.1-.6-2.4-.6-3.5V101.8c0-1,0-2.2.2-3.1.2-2.2,1.1-4.1,2.5-5.8,1.3-1.7,3.1-3.1,5-3.8,1-.3,2-.7,3.1-.8,1,0,2-.2,3.1,0h307.9c1.1.2,2.2.5,3.1.8.9.3,1.7.9,2.6,1.5,1.3,1,2.4,2.2,3.2,3.5.6,1,1,2.2,1.3,3.3.2.7.2,1.4.2,2.2v.8h.1,0Z"/>
      <rect class="st4" x="107.8" y="96.6" width="277.1" height="216.7"/>
      <circle class="st3" cx="399.3" cy="203.1" r="8.9"/>
      <path class="st3" d="M93.7,237.6v-67c0-.7.6-1.3,1.3-1.3h1.1c.7,0,1.3.6,1.3,1.3v67c0,.7-.6,1.3-1.3,1.3h-1.1c-.7,0-1.3-.7-1.3-1.3h0Z"/>
    </g>
    <g>
      <rect class="st4" x="108.3" y="97.1" width="91.5" height="107.3"/>
      <path class="st20" d="M199.2,97.5v106.4h-90.6v-106.4h90.6M200.3,96.6h-92.4v108.2h92.4v-108.2h0Z"/>
    </g>
    <g>
      <rect class="st4" x="200.7" y="97.1" width="91.5" height="107.3"/>
      <path class="st20" d="M291.7,97.5v106.4h-90.6v-106.4h90.6M292.6,96.6h-92.4v108.2h92.4v-108.2h0Z"/>
    </g>
    <g>
      <rect class="st4" x="293" y="97.1" width="91.5" height="107.3"/>
      <path class="st20" d="M384.1,97.5v106.4h-90.6v-106.4h90.6M385,96.6h-92.4v108.2h92.4v-108.2h0Z"/>
    </g>
    <g class="st21">
      <path class="st0" d="M319.9,133.1c-.1-.1-1.7.3-2-.5s-.3-3.3.6-3.4h42.2c.7,1.7.9,4.6-1.7,3.9v26.5c1.1.3,1.9-.3,2,1.1s.2,2.6-.6,2.8h-10.4c-.3.5-2.6,6.9-3.2,8.1s-1.4.8-1.6-.2l3.9-9.8c-.6-2.6-2.4-1.7-3.3.1-1.5,3-2.5,6.8-4.1,9.6s-.9,1-1.6.2c-.6-2.4-.7-5.1-1.1-7.5-.9-3.8-8.4-2.7-8.8-6.8-.5.6-1,1-1.7,1.4s-1.8,1-2.6,1.3c-2,.9-6,1.5-6.8,4s-.6,5.5-1.5,7.7c-.6.5-1.4.1-1.4-.7.3-2.7,1.1-5.5,1.5-8.2s-.1-3,.3-3.1,1.3,0,1.7,0v-26.6h.1ZM357.4,133.1h-36v26.3s.2.2.3.2c.5,0,4-1.4,4.1-1.6,1-1.4-.7-2.4-1.4-3.4-3.1-5-2.3-13.9,5.5-13.2s6.4,9.3,3.5,13.3-2.6,2-1.1,3.4,3.9,1.5,4.3,1.6c1.4.1,6.9.2,8.1,0s1.1-.9,1.8-1.1c1.3-.3,2-.2,3.1.6s.5.7.5.7h7.1v-26.6h.2ZM328.2,142.9c-5.9,1-4,12.2.3,12.6s5.6-5.3,5.2-8.5-2.8-4.6-5.6-4.1ZM343.3,163.5h-2.7c0,.6.6,4.7.8,4.7l1.9-4.7h0Z"/>
      <path class="st0" d="M331.5,171.7h-5l1.5-7.6c0-.6-1.5-1.4-1.5-1.8s1.9-2.3,2.3-2.4,2.5,1.9,2.5,2.3c0,.8-1.4,1.1-1.4,2l1.5,7.5h.1Z"/>
      <path class="st0" d="M349.7,144c1.1,1.1,1.7-1.7,3.4-.1s-.7,1.8-.2,3.2,2.7-.2,2.4,2.3-1.9.7-2.3,1.4.9,1.4.8,2.3-.8,1.1-1,1.3c-1.3.8-1.7-.9-2.5-.7s-.1,2.3-1.5,2.5c-2.7.6-1.4-1.9-2.5-2.5s-1,.5-1.5.7c-1,.5-2.3-.8-2-1.8s1.7-1.7.3-2.2-2.2.1-2-1.6,1.9-.6,2.4-1.8-1.4-1.3-.6-2.7,2.2.3,3.3,0,0-2,1.4-2.3c2.8-.5,1.4,1.4,2.2,2.2h0ZM347.3,146.6c-1.8.5-2.3,3.6,0,4.3,3.8,1.3,4.2-5.3,0-4.3Z"/>
      <path class="st0" d="M340.7,135.5c.2.3-.3,1.1,0,1.6s1.6-.6,1.9.7-.9.9-.9,1.7,1.5.5.9,1.6-1.4,0-1.7.5.7,1.4-.6,1.8-.9-1.1-1.8-.9-.2,1.6-1.7.9,0-1.3-.3-1.7-1.4.6-1.8-.5c-.7-1.5.9-.9.8-1.9s-1.6-.5-1-1.7,1.4,0,1.7-.3c.6-.5-.6-1.6.7-2s.8.8,1.4.9.7-.8,1.1-.9,1,0,1.1.2h.2,0ZM338.1,138.2c-1.1.3-1.1,2.4.2,2.7,2.6.6,2.4-3.4-.2-2.7Z"/>
    </g>
    <g>
      <rect class="st4" x="108.3" y="205.4" width="91.5" height="107.3"/>
      <path class="st20" d="M199.2,205.9v106.4h-90.6v-106.4h90.6M200.3,205h-92.4v108.2h92.4v-108.2h0Z"/>
    </g>
    <g>
      <rect class="st4" x="200.7" y="205.4" width="91.5" height="107.3"/>
      <path class="st20" d="M291.7,205.9v106.4h-90.6v-106.4h90.6M292.6,205h-92.4v108.2h92.4v-108.2h0Z"/>
    </g>
    <g>
      <rect class="st4" x="293" y="205.4" width="91.5" height="107.3"/>
      <path class="st20" d="M384.1,205.9v106.4h-90.6v-106.4h90.6M385,205h-92.4v108.2h92.4v-108.2h0Z"/>
    </g>
    <g class="st21">
      <path class="st0" d="M358.5,243.5c.3,0,.3.6.5.9.6,4.8,0,11.7.2,16.8s-1,3.3.9,3.4,2.2-2.6,4.1-1,1.9,2.7,1.9,3.3c0,1.7-3.3,1.8-2,4.1s2.6.3,3.4.9.5,4.2-.2,4.9c-1.4,1.6-3.6-1.1-4.4,1.6s1.6,1.9,1,3.6-2.7,2.5-3.4,2.6c-1.6,0-1.9-1.8-2.7-2.2s-1.7.3-1.8.5c-.2.3.2,3-1.4,3.5s-3.9-.1-4.4-.8c-1.3-1.4.9-3.8-1.5-4s-1.5.9-2.2,1.1c-2.5.8-2.6-2-3.8-2.3h-31.9c-1,0-1.6-.7-1-1.6s2.5,0,2.5-.7v-14.1c2.3-.2,5.7-.6,8-.2s1.1.3,1.1.7v14.1h3.4v-20.8l.3-.3h8.1s.7.6.7.7v20.6h3.4v-27.9s.3-.3.2-.7h8.4l.3.3v11.3c1.3-.6,2-1.3,3.4-.2v-17.5s.6-.7.7-.7c1.6,0,7.1-.3,8.1,0h0ZM357,245.4h-5.2v17.9c1.3.3.8-1.7,1.1-2.6.5-1.8,2.7-1.3,4.1-.9v-14.2h0ZM344.6,252.2h-5.5v26.3c0,.5,2.7.5,3.2.3s2.3-2.2,2.4-2.3c.7-1.9-2.3-1.7-3.2-2.3s-.8-3.3-.5-4.6c.8-2.8,4.4.5,5.1-2.2s-1.5-2.2-1.5-2.7v-12.5h-.1ZM332.1,259.4h-5.5v19.5h5l.3-.3v-19h.1ZM357,261.5s-1.9-.1-2.3-.2c.6,2.7-1.8,4.9-4.4,4.1s-1.3-2.4-2.4-1.8c-2.4,1.1.6,2.2.5,3.8s-1.1,2.4-1.5,2.7c-1.1,1.3-3.8,0-4,.2-.8,3.9.9,1.9,2.7,3.1s1.4,3.1,1,3.9-2,1.5-1.8,2.3,1.1,1.5,1.3,1.5c.6,0,1.4-1.9,3.3-1.4s3,2.5,2.6,4.8c.6-.3,2,.3,2,.2.5-.6-.3-2.7,1.5-3.5s3.8-.8,4.8,1.5c3.5-1,.3-2.2.5-4s1.7-3.1,2.5-3.3,1.8,0,2.7.2v-2c-.1-.5-2.3-.1-3.1-.9s-1.1-3.1-.8-3.9c.8-1.6,3.3-1.4.8-3.5-1.9,1.6-3.3,1.9-5.2,0s0-3.5-.6-4v.3h-.1ZM314.2,278.8h5l.3-.3v-12.2l-.3-.3h-5v13h0Z"/>
      <path class="st0" d="M357.2,232.7c2.6,2.6.5,7.1-3.4,6.7s-1.4-.8-2.3-.8c-1,.9-5,2.4-5.7,3.2s0,.9,0,1.5c-.5,2.5-2.5,3.8-4.9,3.3s-1.5-1-2-.9-4.6,2.3-4.9,2.6c-1.1.9-.5,1.7-.9,3s-2.3,2.4-3.8,2.4-2.5-1.3-2.8-1.1-5,2.6-5,3,.2.9.2,1.5c-.3,3.4-5.2,5-7.2,1.8s2.4-8,6-5c.6-.7,5.1-2.5,5.3-2.8s-.2-.8-.2-1.1c0-2.2,2-4.1,4.2-4s2.5,1.3,3.1,1.1c1.6-.3,3.6-2.4,5.3-2.8-.6-3.5,2.3-6.1,5.7-4.7s.8.8,1.1.8c1.1,0,4.4-2.8,5.9-3.1-1.6-4,3.4-7.3,6.4-4.3h-.2ZM355.8,237.1c1.8-1.9-1-4.7-3-3s1,5,3,3ZM343.4,244.3c1.6-2-1.4-4.9-3.2-2.7s1.5,4.8,3.2,2.7ZM328.6,247.8c-1.6.3-1.7,3.2-.2,3.8,3.6,1.3,4-4.6.2-3.8ZM317,254.5c-2.3.5-1.8,4.3.7,4.1s2.2-4.7-.7-4.1Z"/>
      <path class="st0" d="M352.8,267.2c9.9-1.7,9.4,13.1.2,11.5-6-1-6-10.6-.2-11.5h0ZM351.4,270.1c-4,4.3,3.2,10,6.4,4.9,3.2-5.1-3.3-8.2-6.4-4.9Z"/>
    </g>
    <path class="st0" d="M149.3,130.6c14.5-1.3,23.3,15.5,14,26.6l9.9,10.4c1.1,2-1.4,4.2-3.2,2.7l-9.9-10.2c-9.9,7.1-23.9.7-25.4-11.3-1.1-9,5.6-17.4,14.6-18.3h0ZM149.6,134.9c-8.3.8-13.2,9.8-9.6,17.3s15.9,9,20.9,1-1.5-19.3-11.4-18.3h0Z"/>
    <g>
      <path class="st0" d="M239.6,130.3c6.7-.7,13.1,2.5,16.2,8.5,5.8,11.5-4.2,24.7-16.7,22.6-12.5-2-3-.9-3.4-.9s-1.7,1-2.4,1.1c-1.8.6-3.6.6-5.5,0-2.8-1-1.7-1.8-.9-3.8,1.7-4.6-.7-6.6-1-10.7-.7-8.2,5.5-16.2,13.8-17ZM229.2,159.5c1.5.3,3,.2,4.2-.5s1.4-1.3,2.2-1.3,2.3.9,3,1c12.3,3,21.6-11.4,13.4-21.3-8.3-10-24.6-3.2-23.3,9.8s1.4,4.3,1.6,6.6-.2,3.9-.9,5.7h-.1Z"/>
      <path class="st0" d="M263.7,168.5c-1-2.4-1.3-4.9-.7-7.4,1-3.9,2-5.9.7-10.1s-1.5-2.8-2.5-4.4.7-3,2.2-1.5c2.7,2.7,3.8,8.2,3.4,12s-2.4,5.3-1.3,9.4,2.5,3.2-.5,4.4-3.9.7-5.6.2-2.2-1.3-2.4-1.3-1.6.6-2,.6c-4.1.9-8.1.6-11.8-1.6s-3.9-2.2-2.6-3.6,2,.2,3,.8c3.4,2,6.9,2.8,10.9,1.8s2.4-1,3-1,1.3.8,1.7,1.1c1.4.8,2.8,1,4.4.6h.1Z"/>
      <path class="st0" d="M241.5,144.1c3-.5,3,4.3,0,4s-2.3-3.6,0-4Z"/>
      <path class="st0" d="M248.4,144.1c2.6-.3,3.1,3.6.6,4s-3.1-3.6-.6-4Z"/>
      <path class="st0" d="M234.2,144.1c3-.5,3.2,4.4,0,4s-2-3.6,0-4Z"/>
    </g>
    <g>
      <path class="st0" d="M153.5,238.9c2-.2,11.3,2,13.8,2.7s4.9,1.9,5.1,5.1c1,12.1-1.4,23.3-12.2,30-10.8,6.7-5.1,3.1-8.1,2.2-7.3-2.3-13.7-10.2-15.6-17.4s-1.4-11.2-.9-15.1,1.9-4,4-4.6c4.4-.6,9.4-2.6,13.8-3.1h.1ZM153.6,242.6c-3.9,1-7.9,1.6-11.6,2.6s-2.4.3-2.6,1.9-.1,6.5,0,8.8c.5,8.1,5.7,16.3,13.4,19.2,1.3.5,1.4.5,2.5,0,11.4-4.6,14.3-16.6,13.3-27.8,0-1-.3-1.4-1.4-1.7-3.9-1.5-9.6-1.8-13.7-3h0Z"/>
      <path class="st0" d="M161,252c1.8-.3,3,1.6,1.9,3.1l-8.8,8.7c-.8.7-1.8.8-2.6.2-1-1.4-4.1-3.3-4.8-4.7s.2-3,1.8-2.8,3.6,3.4,4.1,3.3l7.5-7.3c.2-.2.6-.3.8-.3h0Z"/>
    </g>
    <g>
      <path class="st0" d="M241,265.2c2.5-.3,4.6,1,6.8,1.8s3.8,1,5.9,1.3,2.3-.2,2.6.9c.9,3-4.9,2-6.5,1.8s-2-.9-2.5-.3c-.7.9,1.3,1.4,1.8,1.6,4.7,1.3,8.1,0,12.1-2.3,4-2.3,4.4-3,5.5-3.2,1.9-.5,2.7,1.3,1.4,2.6-1.6,1.7-9.4,6.1-11.7,6.8-5.3,1.6-11.2-1.1-16.4,1l-6.4-6.4c1.7-2,4.4-5.2,7.2-5.6h.2,0Z"/>
      <path class="st0" d="M234.4,238s1.7.8,1.9.8c.6,0,1.1-.8,1.5-.7s1.8,1.7,1.9,1.8c.2.5-.7,1-.7,1.7s.7,1.7.8,1.8c.3.3,1.3,0,1.5.6s.1,2.2,0,2.5c-.2.5-1.5.3-1.7.6s-.7,1.9-.7,2c0,.5.7.9.7,1.3s-1.1,1.5-1.5,1.7c-1.1.7-1.3-.5-1.9-.5s-1.8.7-1.9.8c-.2.2,0,1.4-.5,1.6s-2.4.1-2.7,0c-.5-.1-.2-1.1-.8-1.6s-1.6-.8-1.8-.7c-.5,0-.9.8-1.5.7s-1.7-1.5-1.7-1.7c-.3-.7.7-1,.7-1.7s-.7-1.7-.8-1.8c-.5-.3-1.3-.2-1.5-.6s-.1-2,0-2.3c.2-1,1.4-.5,1.7-.9s.7-1.7.7-1.8c0-.6-.8-1-.7-1.5s1.7-1.8,1.8-1.9c.3-.1.9.6,1.3.6s2-.6,2.3-.8c.3-.5-.1-1.5,1-1.6s1.7,0,1.9,0c.6.2.3,1.3.6,1.5h.1ZM231.6,240.5c-5.6.9-4.6,10.1,1.4,9.6s5.7-10.8-1.4-9.6Z"/>
      <path class="st0" d="M256.4,249.7s1.9.8,2.2.8c.5,0,.9-.8,1.3-.7s1.6,1.4,1.7,1.5c.8,1-.5,1.4-.5,1.9s.7,1.8.8,1.9c.2.2,1.4,0,1.6.5s.1,2.4,0,2.7c-.1.5-1.1.2-1.6.8s-.8,1.6-.7,1.8c0,.5.8.9.7,1.5s-1.5,1.7-1.7,1.7c-.7.3-1.1-.7-1.7-.6s-1.7.7-1.8.8c-.3.5-.2,1.3-.6,1.5s-2,.1-2.3,0c-1-.2-.5-1.4-.9-1.7s-1.7-.7-1.8-.7c-.3,0-1,.8-1.5.7s-1.8-1.7-1.9-1.8c-.1-.3.7-1,.6-1.7s-.7-1.7-.8-1.8c-.3-.2-1.3,0-1.5-.6s-.1-1.8,0-2.2c.2-.9,1.3-.5,1.7-1s.7-1.7.7-1.8c0-.6-.8-1.1-.7-1.5s1.7-1.8,1.8-1.9c.5-.2,1,.6,1.5.7s1.9-.6,2-.8c.5-.5-.1-1.5,1-1.6s1.9,0,2.2,0c.3.2.2,1.4.3,1.6h-.1ZM253.4,252.2c-5.2.9-4.8,9.7,1.3,9.6,6.6-.1,6-10.8-1.3-9.6Z"/>
      <path class="st0" d="M231.9,271.3c.3,0,.7.2,1,.5l6.5,6.6c.7,1.6-1.1,2.5-2,3.4l-8.2-8.1c.5-.7,1.9-2.4,2.7-2.4h0Z"/>
      <path class="st0" d="M232.8,254.9c.7-.2,1.4,1.7,1.7,2.3,2.4,3.3,5.9,4.7,9.9,4.6,4-.1,1.4-.5,1.6.3s-.6.9-1.1,1c-4.3.5-8.7-1.6-11.2-5s-2.2-2.8-.8-3.2h-.1Z"/>
      <path class="st0" d="M241.3,239.9c-.5-.1-.5-1,.2-1.3s2.6-.1,3.3,0c3.3.2,6.9,2.4,8.8,5.1s1.8,2.7.7,3-1.3-1.6-1.7-2.2c-1.3-1.8-4.9-4.7-7.3-4.7s-3.5.2-4.1,0h.1Z"/>
      <path class="st0" d="M231.9,242.1c.2-.6,1.3-.1,1.3.2v3.8c0,.6-1.3.6-1.3,0s-.1-3.3,0-3.9h0Z"/>
      <path class="st0" d="M232.5,247.2c.6,0,1.3.8.6,1.4s-1.9-1.1-.6-1.4Z"/>
      <path class="st0" d="M253.9,253.9c.1-.6,1.3-.6,1.3-.2v3.9c0,.6-1.3.6-1.3,0s-.1-3.1,0-3.8h0Z"/>
      <path class="st0" d="M255.1,259.1c.5.5.2,1.1-.5,1.3-1.6.2-.6-2.3.5-1.3Z"/>
    </g>
  </g>
  <g>
    <g id="freepik--character-2--inject-254">
      <g id="freepik--Character--inject-166--inject-254">
        <path class="st0" d="M375.9,263.9c-.6.5-1,.8-1.5,1.1s-1,.7-1.5,1c-1,.7-1.8,1.3-2.8,1.7-1.9,1.3-4.1,2.2-6.1,3.2-2.2,1-4.6,1.7-6.8,2.4-1.3.3-2.5.6-3.8.8h-4.4c-1.7-.3-3.3-.9-4.9-1.7-1.3-.7-2.3-1.5-3.4-2.3-1.8-1.6-3.5-3.3-5-5.1-2.7-3.5-5-7.4-6.9-11.6l5-3.2c2.6,3,5.5,5.8,8.3,8.4,1.4,1.3,2.7,2.3,4.3,3.3.7.5,1.4.7,1.9,1,.5,0,.8.2,1.3.2h.7c.3-.2.8-.2,1.1-.3.8-.2,1.6-.5,2.3-.7,1.7-.7,3.4-1.4,5-2.2,1.7-.9,3.3-1.7,5-2.8.8-.5,1.7-1,2.4-1.6l1.3-.8,3.3-2.2,5.3,11.2h0Z"/>
        <path class="st12" d="M375.9,263.9c-.6.5-1,.8-1.5,1.1s-1,.7-1.5,1c-1,.7-1.8,1.3-2.8,1.7-1.9,1.3-4.1,2.2-6.1,3.2-2.2,1-4.6,1.7-6.8,2.4-1.3.3-2.5.6-3.8.8h-4.4c-1.7-.3-3.3-.9-4.9-1.7-1.3-.7-2.3-1.5-3.4-2.3-1.8-1.6-3.5-3.3-5-5.1-2.7-3.5-5-7.4-6.9-11.6l5-3.2c2.6,3,5.5,5.8,8.3,8.4,1.4,1.3,2.7,2.3,4.3,3.3.7.5,1.4.7,1.9,1,.5,0,.8.2,1.3.2h.7c.3-.2.8-.2,1.1-.3.8-.2,1.6-.5,2.3-.7,1.7-.7,3.4-1.4,5-2.2,1.7-.9,3.3-1.7,5-2.8.8-.5,1.7-1,2.4-1.6l1.3-.8,3.3-2.2,5.3,11.2h0Z"/>
        <path class="st15" d="M330.9,254l-4.8-2.3,3.9-5.9s4,3.3,4.4,6.7l-3.5,1.6h0Z"/>
        <polygon class="st15" points="321 247.9 324.2 244.2 330 245.8 326.3 251.7 321 247.9"/>
        <path class="st3" d="M421.5,463.7c.6-1.3,1.3-2.3,2-3.3h0s3.5-6.1.8-16.8l5-4.3c1.4,0,2.6.6,3.6,1.5.7.7,1.3,1.5,1.7,2.2,1.7,3.1,5.7,10.2,5.7,10.2l-.8.5c-1.4-2-2.7-4.1-4.3-6-1.7-1.7-1.6,1.5-1,4.2.6,2.7-1.3,7.1-5.8,9.9-5.3,3.3-7.9,4.3-7.1,2h.1Z"/>
        <path class="st15" d="M430.4,449c0,1.7,1.3,5-.5,7.4-1.5,2.2-3.9,3.8-6.5,4,0,0,2.7-4.9,1.6-13.2-.2-1.3-.5-2.4-.8-3.5,0,0,4.3-3.2,6.3-3.6l1,2.8c-.2,1.8-.6,3.8-1.1,5.5v.7h0Z"/>
        <path class="st15" d="M431.7,442.7c-.2,1.8-.6,3.8-1.1,5.5v.8l-4.1,1.7-1.4-3.6-4.8-12.9,7.1-3,3.2,8.7,1.1,2.8h0Z"/>
        <path class="st12" d="M427.4,431.2l-7.1,3,2.4,6.5h0c2.6,0,5.1-.9,7.1-2.7h0l-2.5-6.7h.1Z"/>
        <path class="st3" d="M367.7,459.6c1.1-.7,2.3-1.3,3.5-1.6h0s6.4-3.3,9.8-13.8l6.6-1.4c1.3.6,2,1.7,2.4,2.8v3.4c0,3.6-.7,12.9-.7,12.9h-.9c0-2.8,0-5.7-.2-8.5-.5-2.4-2,.3-3.1,3s-4.9,5.2-10.2,5.1c-6.4-.2-9-.6-7.2-2h0Z"/>
        <path class="st15" d="M386.6,448.1c-.8,1.4-1.7,2.4-2.8,3.4-1.4,1-1.7,5.2-4.9,6.6-2.4,1.1-5.2,1.1-7.6,0,0,0,4.8-2.4,8.3-10,.8-1.7,1-3.8.7-5.6l-2.3-12.2,8.1-1.1,1.9,14.7c0,1.7-.3,3.2-1.4,4.4v-.2h0Z"/>
        <path class="st12" d="M377.1,425.5l1.8,10.8h.7c2.4.7,5,0,6.9-1.4h0l-1.4-10.5-8.2,1h.1Z"/>
        <path class="st3" d="M403.9,258.1v-.9c-.7-5.5-5.5-9.4-11-8.8h-.2c-.7,0-1.4.2-2,.2-4.7.7-9.2,1.6-13.8,2.8-.8.2-1.6.5-2.3.7-1.1.3-2,.7-3.1,1.1-4.8,1.7-7.4,6.6-6.4,11.5,1.6,8.5,4.3,17,8.3,24.8,1.4,2.5,1.6,7.9,2.6,11l30.4-6.1h0c-1.5-9.4-2-25.6-2.3-36.2l-.2-.2h0Z"/>
        <path class="st3" d="M375.9,300.5s-1.7,38.7-3.2,68.4c-1.3,23.7,3.4,64.1,3.4,64.1,4.2,1.1,8.5.5,12.3-1.7.2,1.8,1.8-37.2,0-59.8,8.4-32.9,21.1-64.1,11.7-76.1l-24.4,5.1h.1Z"/>
        <path class="st11" d="M390.3,323.2l12.5-7.2c-1.7,11.7-6.3,26.5-10.8,42.2-3.5-12.5-5.1-25.6-1.7-35.1h0Z"/>
        <path class="st3" d="M381.3,301.4s8.3,30,13.7,58.7c2.3,20.7,24.6,77.2,24.6,77.2l3.9-.8c1.8-.3,3.5-1.3,4.9-2.4l1.4-1.3s-6.6-41-13-56.9c0-33.3.8-69.2-11.7-80.5l-23.4,5.8h-.2Z"/>
        <path class="st0" d="M391.2,248.4s-3.2,35.4,4.9,81.5c13.2-.8,21.4-4.4,21.4-4.4,0,0-2.7-24.9-10.9-37.8-1.5-8.9,0-28-1-34.9-.3-2.5-2.3-4.6-4.8-4.9-3.2-.2-6.4,0-9.6.5h0Z"/>
        <path class="st9" d="M391.2,248.4s-3.2,35.4,4.9,81.5c13.2-.8,21.4-4.4,21.4-4.4,0,0-2.7-24.9-10.9-37.8-1.5-8.9,0-28-1-34.9-.3-2.5-2.3-4.6-4.8-4.9-3.2-.2-6.4,0-9.6.5h0Z"/>
        <path class="st0" d="M376.6,250.9s-1.7,16.8,9,79.9c-4.3,2.3-13.4,1.6-13.4,1.6,0,0,0-21.1,1.6-37.8.7-8.2-5.1-9.3-8.5-18.3-1.7-10.5-.7-18.9.9-20.1,2.5-1.9,6.4-4.7,10.6-5.1h-.1Z"/>
        <path class="st9" d="M376.6,250.9s-1.7,16.8,9,79.9c-4.3,2.3-13.4,1.6-13.4,1.6,0,0,0-21.1,1.6-37.8.7-8.2-5.1-9.3-8.5-18.3-1.7-10.5-.7-18.9.9-20.1,2.5-1.9,6.4-4.7,10.6-5.1h-.1Z"/>
        <path class="st7" d="M391,248.3s-.7,14.6-.5,25c1.1-7.5,3.8-14.8,3.8-17.1-.8-.5-1.6-.9-2.2-1.5.9-.7,1.7-1.4,2.7-1.7v-5.3c-2,.3-4,.6-4,.6h.1Z"/>
        <path class="st7" d="M376.7,250.8c-.2,8.3,0,16.8,1.1,25.2-2.3-6.7-5.3-13.1-5-15.6,1.3-1,2.3-2.2,2.3-2.2-.8-.5-1.7-.9-2.5-1,0-1.8.2-3.8.5-5.6,2-.5,3.8-.8,3.8-.8h-.1Z"/>
        <path class="st0" d="M402.1,253.4c-2,3.6-.9,8.3,2.6,10.5h0c2.2,1.4,4.3,2.7,6.4,4.1,2,1.4,4.1,2.8,5.8,4.3.9.7,1.7,1.5,2.4,2.2s.6.7.9,1,.3.5.3.3l-.3-1.6c0,1,0,1.8-.6,2.7-.7,1.5-1.6,2.8-2.5,4.1-1.1,1.5-2.2,2.8-3.4,4.2s-2.6,2.7-3.9,4l3.3,5c1.8-.9,3.8-1.8,5.5-3.1s3.5-2.4,5-3.9c1.7-1.6,3.3-3.3,4.7-5.1.9-1.4,1.6-2.6,1.9-4.2.5-1.5.7-2.8.7-4.3v-.7l-.2-.8c-.3-1-.8-1.8-1.4-2.7s-1.3-1.7-1.8-2.5c-1-1.3-2-2.3-3.2-3.3-2-1.8-4.3-3.8-6.5-5.3s-4.4-3.2-6.7-4.7-4.6-2.8-6.9-4.2l-2.3,4.1h.2Z"/>
        <path class="st15" d="M413.7,289.4c-2.4-.8-5-.8-7.4.2l2.7,8.3,4.3-3.8.3-4.9h0Z"/>
        <polygon class="st15" points="409.2 298.1 406.4 289.6 402.2 294.3 405.8 300.1 409.2 298.1"/>
      </g>
      <path class="st22" d="M372.7,247.6c-1.7-10.4-.3-21.1,4.2-30.5,5.2-11,27.1-3.3,23.8,15.1-1.9,10.9-6.6,9,1.7,16.3,4.8,4.2-9.2,5.2-10.5,2.4,0,0-5,.5-8.4-2.3,0,0-9.8,4.6-10.7-1.1h-.1Z"/>
      <path class="st15" d="M381.1,258.6c4.8.8,7.9-5.2,9-8.3h-.6c-1.4-3.8-.5-10,.6-13.7l-8.8,6.9c.6,2.8.7,5.7-1.9,7.3-.6,0-1.1.2-1.6.3-.7,2.8-.7,6.8,3.3,7.5h0Z"/>
      <path class="st12" d="M386.4,239.3l-5.1,4.1c.2.8.3,1.7.3,2.5,1.8-.2,4.9-1.7,5.1-3.8,0-1,0-1.8-.3-2.8Z"/>
      <path class="st15" d="M394.8,230.1c-2.7,6.9-3.9,9.9-8.5,12.3-7.2,3.6-15-1.4-14.5-8.9.6-6.8,5-17.1,13-17.6,5.6-.5,10.5,3.9,10.9,9.4,0,1.7-.2,3.2-.9,4.8h0Z"/>
      <path class="st26" d="M378.3,227.8c-1,1.1-2,2.2-3.3,3,.5.7,1.1,1,1.8,1.1l1.5-4.1Z"/>
      <path class="st3" d="M385.6,226.8h0s.2-.2,0-.3h0c-.5-1-1.4-1.7-2.4-2,0,0-.3,0-.3.2s0,.3.2.3c.9.2,1.7.9,1.9,1.7h.6,0Z"/>
      <path class="st3" d="M374.7,222.6h0c.9-.3,1.8-.3,2.6,0h.5v-.5c-1-.6-2.2-.7-3.2-.2,0,0-.2.2-.2.3h0c0,.2.2.3.3.3h0Z"/>
      <path class="st3" d="M382.7,228.3c-.2.6-.7,1-1,.8s-.6-.7-.3-1.4.7-1,1-.8.6.8.3,1.4Z"/>
      <path class="st3" d="M376.2,226c-.2.6-.7,1-1,.8s-.6-.7-.3-1.3.7-1,1-.8.6.7.3,1.3Z"/>
      <path class="st3" d="M376,224.9l-1.3-.9s.3,1.5,1.3.9Z"/>
      <path class="st3" d="M382.6,227l-1.3-.9s.2,1.4,1.3.9Z"/>
      <path class="st3" d="M381.2,236c.3,0,.8-.2,1.1-.5v-.2h-.2c-1.7.8-3.5.8-5.1,0h-.3v.3c1.5.7,3,.8,4.6.5h0Z"/>
      <path class="st22" d="M382.1,218.2s-2.4,1.9-1,4,5.8,1.1,6.7,4.9-.8,6.5,1.8,7.7,5.2-2.5,5.2-2.5c0,0,4.2-8.5-1-13.2-5.1-4.7-11.3-6.3-14.9-4.2s-5.6,3.6-4.3,4.6,3.4,1.6,4.3.7c.9-.9,1.8-1.5,3-1.7l.2-.2h0Z"/>
      <path class="st15" d="M394.7,236.1c-.9,1.3-2,1.9-3.5,2.2-1.8.3-2.6-1.5-1.9-3.1.7-1.6,2.3-3.5,4.2-3.1,1.4.3,2,1.7,1.7,3.1,0,.3,0,.7-.3.9h-.1Z"/>
      <path class="st0" d="M376.6,251.3c.7-.5,1.5-.6,2.2-.6,0,0-2,6.8,2.7,7.2,4.8.3,8.5-8,8.5-8,.7-.2,1.5-.2,2,.2,0,0-3.9,9.7-10.6,9.3s-5-8.3-5-8.3h.1Z"/>
      <path class="st7" d="M376.6,251.3c.7-.5,1.5-.6,2.2-.6,0,0-2,6.8,2.7,7.2,4.8.3,8.5-8,8.5-8,.7-.2,1.5-.2,2,.2,0,0-3.9,9.7-10.6,9.3s-5-8.3-5-8.3h.1Z"/>
      <path class="st3" d="M390.6,230.3l-4.7-1.7c0-1.4-1.8-1.9-2.5-2.3s-2.5-1-3.5,0l-1.7-.7c0-1.5-1.7-2-2.5-2.4s-3.2-1.3-4,.8c-.6,1.8.6,3.8,2.3,4.2,1.6.5,3.3-.3,4-1.7v-.3l1.5.6v.3c-.6,1.8.6,3.8,2.3,4.2,1.6.5,3.3-.3,4-1.7v-.5l4.6,1.7c.7.2,1.1.7,1.5,1.3l.5-.2c-.3-.7-.9-1.1-1.7-1.5h.1ZM373.9,227.7c-1.5-.5-2.3-1.9-1.7-3.5.5-1.1,1.5-1.3,3.3-.5s2.5,1.6,2.2,2.6c-.8,1.4-2.3,1.8-3.8,1.4ZM381.7,230.7c-1.5-.5-2.3-1.9-1.7-3.5.5-1.1,1.5-1.3,3.3-.5s2.5,1.6,2.2,2.6c-.8,1.4-2.3,1.9-3.8,1.4Z"/>
    </g>
    <g>
      <g id="freepik--character-2--inject-65">
        <polygon class="st28" points="200.3 346.6 199.2 352.9 194.1 355.1 193.9 347.8 200.3 346.6"/>
        <path class="st3" d="M219,284.7c0,.5.5.9.8.8s.5-.6.5-1-.5-.8-.8-.8-.6.6-.5,1Z"/>
        <path class="st25" d="M219.4,285.5c.9,1.4,2,2.7,3.3,3.8-.6.7-1.5,1-2.3,1l-.9-4.8h-.1Z"/>
        <path class="st3" d="M216.7,282.2h-.2c-.1,0-.1-.3,0-.5h0c.7-.7,1.6-1.1,2.5-1,.1,0,.2.2.2.3h0c0,.1-.2.2-.3.2h0c-.8,0-1.5.2-2,.8h-.2.1Z"/>
        <path class="st28" d="M204.7,291.8c.9,4.7,1.8,13.1-1.4,16.3,0,0,1.3,4.7,9.9,4.7s4.6-4.7,4.6-4.7c-5.2-1.3-5-5.1-4.1-8.7l-8.9-7.5h-.1Z"/>
        <path class="st3" d="M201.4,308.9c-.7-1.3-1.5-2.7.1-3.2,1.7-.5,12.9-1.5,16.2-.5-1,1.8.7,4,.7,4l-17-.2h0Z"/>
        <path class="st28" d="M197.8,319.2l-2.5,4.3-2.4,4.4c-1.6,3-3.2,5.9-4.6,9-.7,1.5-1.4,3-1.9,4.6v.2h-.1c0,.1,0,.2-.1.3v1c.5,1.1,1.1,2.3,2,3.2,1,1.1,2.2,2.2,3.4,3.2l-2,4.3c-.9-.2-1.9-.6-2.7-1-.9-.3-1.8-.8-2.6-1.4-1.9-1.1-3.6-2.6-4.9-4.6-.8-1.1-1.3-2.5-1.5-4v-2.4c0-.3,0-.8.2-1.1v-.6c.1,0,.2-.3.2-.3.6-1.7,1.1-3.5,1.8-5.2,1.4-3.4,2.8-6.7,4.4-9.9.8-1.6,1.6-3.2,2.5-4.7.9-1.6,1.7-3.1,2.7-4.7l8.1,5v.2h-.1Z"/>
        <path class="st28" d="M189.3,348.9l4.6-1.1.2,7.3s-3.5.6-5.7-1.6l.9-4.6Z"/>
        <path class="st0" d="M192,309.4c-5.9,1.4-10.8,16.5-10.8,16.5l12,9.1c3.1-3.3,5.2-7.3,6.4-11.7,2-8-1.4-15.4-7.4-14h-.1Z"/>
        <path class="st10" d="M192,309.4c-5.9,1.4-10.8,16.5-10.8,16.5l12,9.1c3.1-3.3,5.2-7.3,6.4-11.7,2-8-1.4-15.4-7.4-14h-.1Z"/>
        <path class="st12" d="M197.1,320.6c-3.2,3.2-4.3,9-4.6,14.1l.6.5c3.1-3.3,5.2-7.3,6.4-11.7.1-.5.2-1,.3-1.4l-2.6-1.4h-.1Z"/>
        <path class="st0" d="M227.5,309.8s6.7,7.6.3,54.9h-33.9c-.2-5.2,3.1-30.6-1.9-55.1,3.8-.7,7.5-1.3,11.4-1.5,4.8-.2,9.6-.2,14.5,0,3.3.3,6.5.9,9.8,1.7h-.1Z"/>
        <path class="st1" d="M227.5,309.8s6.7,7.6.3,54.9h-33.9c-.2-5.2,3.1-30.6-1.9-55.1,3.8-.7,7.5-1.3,11.4-1.5,4.8-.2,9.6-.2,14.5,0,3.3.3,6.5.9,9.8,1.7h-.1Z"/>
        <path class="st28" d="M202.1,287c1.6,6,2.3,9.8,6,12.3,5.7,3.8,12.6-.6,12.9-6.9.2-5.8-2.5-14.8-9-16-4.7-.9-9.1,2.2-10,6.8-.2,1.4-.2,2.6.1,4h0Z"/>
        <path class="st18" d="M204.9,296.9c2.6,1.5,12.1-3.4,10.1-10.9.8-1,1.5-2,1.9-3.2.3-.7.6,3.6.9,2.7.3-2.8.5-5.8.3-8.7-.5-4.8-3.6-6.6-7.2-5.6-3.1.9-3,2.6-3,2.6,0,0-14.5,1.7-11.4,7.6-5.9,6.4,5,13.5,8.3,15.4h-.1Z"/>
        <path class="st18" d="M197.1,282s-1.7-3-4.2-1.4c1.1,0,3.2.2,4.2,1.4Z"/>
        <path class="st18" d="M219.7,282.7s.8-10.9-6.8-11.6c3.8,2.7,6.3,6.9,6.8,11.6Z"/>
        <path class="st28" d="M212.4,287.3c.5,1.5,1.4,2.8,2.5,3.8,1.6,1.3,3,0,2.7-1.8,0-1.7-1.1-4.3-3-4.9s-2.8,1.1-2.4,3h.1Z"/>
        <path class="st5" d="M227.4,309.8s6.7,7.6.3,54.9h-33.9c-.2-5.2,3.1-30.6-1.9-55.1,3.8-.7,7.5-1.3,11.4-1.5,4.8-.2,9.6-.2,14.5,0,3.3.3,6.5.9,9.7,1.7h0Z"/>
        <path class="st12" d="M230.1,326.2h-.1l-7.7,1.7c-.5,5.2,4.9,11.5,7.6,14.3.3-5.3.3-10.7.1-16h.1Z"/>
        <path class="st28" d="M230.7,315.5c1,1.5,2,3.2,3.2,4.8s2.3,3.2,3.4,4.7c2.3,3.1,4.8,5.8,7.5,8.4.7.6,1.4,1.1,2,1.7l.6.3h-.3c-.2,0-.3,0-.2,0,.5,0,1,0,1.4-.3.8-.3,1.5-.7,2.2-1.1,3.2-2.2,6.3-4.4,9.1-7.1l3.8,3c-2.3,3.8-5,7.2-8.3,10.1-.9.8-1.9,1.6-3,2.2-1.4.8-2.8,1.4-4.3,1.6-1.1.1-2.3,0-3.3-.2-.6-.2-1.1-.5-1.7-.8l-.8-.5c-1-.7-1.9-1.4-2.8-2-3.4-2.7-6.5-5.9-9.3-9.3-1.4-1.7-2.6-3.4-3.9-5.1s-2.4-3.5-3.5-5.5l8.2-4.9h.2Z"/>
        <path class="st0" d="M218.1,319.3c-2,8.5,13.3,16.8,13.3,16.8l10-11.7c-3-4.4-6.4-8.7-10.2-12.4-6.9-6.7-11.6.8-13.1,7.3Z"/>
        <path class="st10" d="M218.1,319.3c-2,8.5,13.3,16.8,13.3,16.8l10-11.7c-3-4.4-6.4-8.7-10.2-12.4-6.9-6.7-11.6.8-13.1,7.3Z"/>
        <path class="st28" d="M258.5,328.8l2.4-7.6,6.1,3.1s-.9,5.5-5.5,6.5l-3.2-2h.1Z"/>
        <polygon class="st28" points="263.3 319.1 269 320.6 267.1 324.2 260.9 321.2 263.3 319.1"/>
        <path class="st18" d="M208,273.9s-1.3-1.9-4.7-.7c-1.3.3-2.3,1.3-2.7,2.5l3.9,2.8,3.5-4.6h0Z"/>
        <polygon class="st2" points="262.2 446.4 263.8 454.1 272.2 453 270.9 444.4 262.2 446.4"/>
        <path class="st0" d="M273.7,453s-.1,0-.2-.1v-.2c.1,0,3.1-2.2,4.6-1.9.2,0,.6.2.7.5.2.2.2.6,0,.9-.3.5-1.4.8-2.5.9h-2.7.2ZM274.4,452.6c1.7,0,3.9-.2,4.2-.8v-.5c0-.1-.2-.2-.5-.2h-.5c-1.1.3-2.3.8-3.3,1.5h0Z"/>
        <path class="st0" d="M273.6,453v-.2c0-.1,0-2.5,1-3.5s.7-.5,1.1-.5.8.2.8.5c.2,1-1.6,3.1-2.6,3.6h-.3ZM275.5,449.2c-.2,0-.6.1-.7.3-.6.8-.9,1.8-.9,2.8,1-.8,2.3-2.4,2.2-3,0,0,0-.2-.5-.2h-.1Z"/>
        <path class="st3" d="M272.6,451.8l-9.6,1c-.3,0-.7.3-.7.7l-1,8c0,.7.5,1.4,1.1,1.5h.2c3.4-.5,6.5-.9,10.8-1.3,5.1-.5,3.9.2,9.8-.2,3.6-.3,3.9-4.4,2.3-4.6-7.1-.2-8-2.3-10.9-4.4-.6-.5-1.4-.6-2.2-.6h.1Z"/>
        <polygon class="st12" points="271.6 448.9 262.9 449.6 262.2 446.4 270.9 444.4 271.6 448.9"/>
        <polygon class="st0" points="264.5 382.6 272.8 443.3 259.9 444.3 245 384.1 264.5 382.6"/>
        <polygon class="st11" points="264.5 382.6 272.8 443.3 259.9 444.3 245 384.1 264.5 382.6"/>
        <path class="st0" d="M258.8,443.4l15.5-1.3c.8,1.1.7,2.7-.1,3.9l-14.9,1.4s-1.5-.9-.5-4Z"/>
        <path class="st0" d="M193.9,364.8s-.9,8.8-.8,12c.7,16.4,16.2,22.2,28.6,19.9l44-4.8c1.8,5.9,22.5,38.8,22.5,38.8l10.9-6.3s-11.3-27.1-18.7-46c-4.2-10.8-37.3-11.2-49.7-8.9-3.8,1-3.1-4.9-3.1-4.9h-33.9.1Z"/>
        <polygon class="st2" points="291.1 431.2 295.3 438.2 303 434.3 299.1 426.5 291.1 431.2"/>
        <path class="st0" d="M304.6,433.7h-.2v-.2c0-.1,2.3-3.1,3.8-3.3.3,0,.6,0,.8.2.3.1.5.5.5.8-.1.6-1.1,1.3-2.2,1.7-.8.3-1.7.7-2.6.9h0ZM305.1,433.3c1.6-.6,3.8-1.5,3.9-2.2,0,0,0-.2-.2-.5-.1,0-.3-.1-.5,0-.1,0-.2,0-.5.1-1,.7-2,1.6-2.7,2.6h0Z"/>
        <path class="st0" d="M304.4,433.8s-.1,0-.1-.1c0,0-.8-2.4-.2-3.8.2-.5.6-.7,1-.8.6-.2.9,0,1,.2.6.8-.6,3.5-1.4,4.4h-.3,0ZM305.1,429.5c-.2,0-.5.3-.6.6-.3,1-.2,2,0,3.1.8-1,1.4-3.1,1.1-3.6,0,0-.1-.2-.5,0h-.1Z"/>
        <path class="st3" d="M303.2,433.1l-9,4.1c-.3.1-.6.6-.5.9l1.7,8.1c.1.7.8,1.1,1.6,1h.2c3.2-1.6,6-3.1,10-4.9,4.8-2.2,3.9-1,9.4-3.5,3.4-1.5,2.3-5.6.8-5.1-6.9,2.2-8.5.5-12.2-.7-.8-.2-1.6-.1-2.3.2h.1Z"/>
        <polygon class="st12" points="293.3 434.8 291.1 431.2 299.1 426.5 301 430.2 293.3 434.8"/>
        <path class="st0" d="M286.5,431.2l13.5-8.4c1.3.7,1.9,2.2,1.7,3.5l-13,8.3s-1.7,0-2.3-3.4Z"/>
        <polygon class="st3" points="214 400 214.3 411.4 215.5 469.8 219.5 469.8 220.6 411.4 220.9 400 214 400"/>
        <polygon class="st6" points="214 400 214.3 411.4 215.5 469.8 219.5 469.8 220.6 411.4 220.9 400 214 400"/>
        <polygon class="st12" points="214 400 214.3 411.8 220.6 411.8 220.9 400 214 400"/>
        <polygon class="st3" points="192.6 469.6 196.3 400.8 202.2 400.8 197.1 469.6 192.6 469.6"/>
        <polygon class="st6" points="197.1 469.6 192.6 469.6 195.9 406.4 196.3 400.7 202.2 400.7 201.7 406.4 197.1 469.6"/>
        <polygon class="st12" points="202.2 400.7 201.7 406.6 195.9 406.6 196.3 400.7 202.2 400.7"/>
        <polygon class="st3" points="237.8 469.6 232.7 400.8 238.7 400.8 242.4 469.6 237.8 469.6"/>
        <polygon class="st6" points="237.8 469.6 233.2 406.4 232.7 400.7 238.7 400.7 239.1 406.4 242.4 469.6 237.8 469.6"/>
        <polygon class="st12" points="232.7 400.7 233.2 406.6 239.1 406.6 238.7 400.7 232.7 400.7"/>
        <path class="st3" d="M241.9,403h-48.8v-4.4c0-2.3,1.8-4.1,4.1-4.1h40.6c2.3,0,4.1,1.8,4.1,4.1h0v4.4h0Z"/>
        <rect class="st3" x="190.7" y="398.7" width="53.6" height="4.2" rx="1.7" ry="1.7"/>
        <rect class="st5" x="190.7" y="398.7" width="53.6" height="4.2" rx="1.7" ry="1.7"/>
        <polygon class="st3" points="187.2 347.2 190.2 347.2 199 398.7 195.9 398.7 187.2 347.2"/>
        <polygon class="st3" points="210.5 347.2 213.7 347.2 222.5 398.7 219.3 398.7 210.5 347.2"/>
        <polygon class="st6" points="187.2 347.2 190.2 347.2 199 398.7 195.9 398.7 187.2 347.2"/>
        <polygon class="st6" points="210.5 347.2 213.7 347.2 222.5 398.7 219.3 398.7 210.5 347.2"/>
        <path class="st3" d="M216.5,357h-29c-2.2,0-4-1.8-4.1-4l-3-12.6c-.3-2.7,1.6-5.2,4.1-5.2h29c2.2,0,4,1.8,4.1,4l3,12.6c.2,2.7-1.7,5.2-4.1,5.2Z"/>
        <rect class="st5" x="218.1" y="398.7" width="26.1" height="4.2" rx="1.7" ry="1.7"/>
      </g>
      <g id="freepik--character-1--inject-65">
        <polygon class="st2" points="139.8 449.1 141.4 456.5 149.5 455.5 148.2 447.2 139.8 449.1"/>
        <path class="st0" d="M151,455.5s-.1,0-.2-.1v-.2c.1,0,3-2,4.3-1.8.2,0,.5.2.7.5.2.2.2.6,0,.9-.7.6-1.6.9-2.4.9h-2.6.2ZM151.5,455.1c1.6,0,3.8-.2,4.1-.8v-.5c0-.1-.2-.2-.5-.2h-.3c-1.1.2-2.3.8-3.2,1.5h-.1Z"/>
        <path class="st0" d="M150.9,455.5v-.2s0-2.4,1-3.4c.2-.3.7-.5,1-.5.6,0,.8.2.8.5.2,1-1.6,3-2.5,3.5h-.3,0ZM152.7,451.8c-.2,0-.5.1-.7.3-.6.8-.9,1.7-.9,2.7,1-.7,2.2-2.3,2-2.8,0,0,0-.2-.5-.2h-.1.1Z"/>
        <path class="st3" d="M150,454.3l-9.2.9c-.3,0-.7.3-.7.7l-1,7.7c0,.7.3,1.3,1,1.4h.2c3.3-.3,6.3-.9,10.5-1.3,4.9-.5,3.8.2,9.6-.2,3.5-.3,3.8-4.3,2.3-4.3-6.8-.2-7.7-2.2-10.6-4.3-.6-.5-1.4-.6-2-.5h0Z"/>
        <polygon class="st12" points="148.9 451.5 140.5 452.2 139.8 449.1 148.2 447.2 148.9 451.5"/>
        <polygon class="st3" points="142 387.3 149.3 450.4 139.8 451.4 123.2 388.8 142 387.3"/>
        <polygon class="st11" points="142 387.3 149.3 450.4 139.8 451.4 123.2 388.8 142 387.3"/>
        <polygon class="st2" points="167.8 434.4 171.8 441.1 179.4 437.4 175.5 429.8 167.8 434.4"/>
        <path class="st0" d="M180.8,436.9h-.2v-.2c0-.1,2.2-3,3.6-3.2.2,0,.6,0,.8.2.3.1.5.5.5.8-.1.6-1,1.3-2,1.7-.8.3-1.7.7-2.5.9v-.2h-.1ZM181.4,436.4c1.6-.5,3.5-1.5,3.8-2.2,0,0,0-.2-.2-.5-.1,0-.3-.1-.5,0-.1,0-.2,0-.3.1-1,.7-1.9,1.5-2.6,2.5h-.1Z"/>
        <path class="st0" d="M180.7,436.9s-.1,0-.1-.1c0,0-.8-2.4-.2-3.6.2-.3.5-.7.9-.8.6-.2.8,0,1,.2.6.8-.6,3.4-1.3,4.3h-.3,0ZM181.4,432.7c-.2,0-.5.3-.6.6-.2.9-.2,1.9,0,3,.7-1,1.4-3,1-3.5,0,0-.1-.2-.5,0h0Z"/>
        <path class="st3" d="M179.5,436.1l-8.8,4c-.3.1-.5.6-.5.9l1.7,7.7c.1.7.8,1.1,1.5,1h.2c3.1-1.5,5.8-3,9.8-4.8,4.7-2.2,3.8-1,9.1-3.4,3.3-1.5,2.2-5.5.7-5-6.7,2-8.2.5-11.7-.7-.7-.1-1.5,0-2.2.2h.1Z"/>
        <polygon class="st12" points="169.9 437.8 167.8 434.4 175.5 429.8 177.4 433.4 169.9 437.8"/>
        <path class="st3" d="M79.6,364.3s-5.9,7.7-6.7,17.3c-1.1,15.9,12.3,20,27.7,19.3l42.7-4.7c1.7,5.8,25.3,41,25.3,41l8.8-5s-12.6-30.7-19.7-48.9c-4-10.5-36.1-10.7-48.1-8.7-3.6,1-3-4.8-3-4.8l-27-5.6h.1Z"/>
        <path class="st3" d="M115.9,308.1c-.1.6,0,1,.3,1.1s.7-.2.9-.8,0-1-.3-1.1-.8.2-.9.8Z"/>
        <path class="st3" d="M116.6,307.3h1.4s-.9.8-1.4,0Z"/>
        <path class="st25" d="M116.2,308.8c.1,1.4.5,2.6,1,3.9-.7.2-1.4.1-1.9-.2l1-3.6h-.1Z"/>
        <path class="st3" d="M117.5,304.9h-.1c-.7-.5-1.5-.6-2.3-.3-.1,0-.3,0-.5-.2,0-.1,0-.3.2-.5,1-.3,2-.1,3,.5.1,0,.2.3,0,.5h-.2c0,.1-.1.1-.1.1Z"/>
        <path class="st28" d="M98.9,311.4c0,4.1-1.6,10.7-4.8,12.7,0,0,2,4.4,9.4,5.8,8.1,1.6,4.6-3.2,4.6-3.2-4.2-1.9-3.5-5.1-2.3-8.1l-6.8-7.3h-.1Z"/>
        <path class="st28" d="M98.7,301.5c-1.4,6.5-2,9.2.3,13.5,3.5,6.4,12,6.8,15.1.9,3-5.3,4.6-15.1-1-19.6-3.8-3.2-9.4-2.6-12.5,1.1-1,1.1-1.6,2.5-1.9,4h0Z"/>
        <path class="st28" d="M111.3,306.1c0,1.3.2,2.5.9,3.5.9,1.5,2.2,1.3,2.5,0s.3-3.3-.8-4.3-2.4-.6-2.6.8h0Z"/>
        <path class="st28" d="M88,332.7v9c0,3.1.5,6,1,9l.5,1.9c0,.2,0,.5.3.7.8.8,1.8,1.5,3,2,2.7,1.3,5.6,2.3,8.5,3l-.3,4c-3.5.2-7.1-.1-10.5-1.1-2-.6-3.9-1.5-5.5-2.7-1-.9-1.9-2-2.4-3.3l-.2-.6v-.3l-.3-.6-.3-1.3c-.9-3.4-1.5-6.8-1.7-10.2s-.2-3.4,0-5.2v-4c0-.5,0-.9.2-1.4l8.1,1.1s-.3,0-.3,0Z"/>
        <path class="st28" d="M99.3,358.3l7.4-.2-3,4.4s-3.6.8-4.8-1.8l.3-2.5h0Z"/>
        <polygon class="st28" points="108.5 360.1 108.3 363.9 103.7 362.6 106.7 358.2 108.5 360.1"/>
        <path class="st0" d="M80.8,324.4c-3.3,3.3-2.2,15-2.2,15l11.6,1.5s3.6-10.2-.2-15.9c-3.9-5.7-5.9-3.9-9.1-.6h-.1Z"/>
        <path class="st0" d="M80.3,364l27.1,5.2c12.7-37.6,9.8-38.8,9.8-38.8-1.9-1-4-2-6.1-2.8,0,0-.2,0-.3-.1-1.7-.7-2-.7-4.4-1.4-4-1-7.7-1.7-12.3-2.4h-.9c-.8-.2-1.6-.3-2.4-.3s-1,0-1.6-.1h-1.7c-3-.2-5.1-.2-5.1-.2,1.5,23.4.3,30.2-1.8,41.1h-.1Z"/>
        <path class="st8" d="M80.3,364l27.1,5.2c12.7-37.6,9.8-38.8,9.8-38.8-1.9-1-4-2-6.1-2.8,0,0-.2,0-.3-.1-1.7-.7-2-.7-4.4-1.4-4-1-7.7-1.7-12.3-2.4h-.9c-.8-.2-1.6-.3-2.4-.3s-1,0-1.6-.1h-1.7c-3-.2-5.1-.2-5.1-.2,1.5,23.4.3,30.2-1.8,41.1h-.1Z"/>
        <polygon class="st28" points="161.3 353.8 163.7 357.4 160.5 358.7 159.1 353.9 161.3 353.8"/>
        <path class="st28" d="M118.2,335.1c1,1.7,2.3,3.5,3.4,5.2s2.4,3.5,3.6,5.2,2.5,3.4,3.9,5c.7.8,1.4,1.6,1.9,2.4.3.5.7.8,1,1.1l.6.6.2.2h0c.5.5.9.7,1.5.9.8.2,1.7.5,2.6.7,2,.3,4,.5,6,.5,4.1,0,8.4-.1,12.6-.6l.8,4c-4.3,1.3-8.8,2.2-13.2,2.6-2.4.2-4.7.3-7.1.2-1.3,0-2.6-.3-3.9-.6-1.6-.3-3.1-1-4.3-2-.2-.1-.3-.3-.6-.5l-.3-.3-.6-.6c-.5-.5-.8-.8-1.3-1.3-.8-.8-1.6-1.6-2.3-2.5-1.5-1.7-3-3.4-4.3-5.2s-2.7-3.5-4-5.5-2.5-3.6-3.6-5.7l7.2-4.2v.2h0Z"/>
        <path class="st28" d="M154.6,357.5l4.4-3.5,2.3,4.4s-3.6,4.1-6.6,1.4v-2.4h-.1Z"/>
        <path class="st12" d="M111.6,341.8c-.8,4-.5,8,.8,11.8,2.3-7.4,3.5-12.4,4.2-15.8-2-.2-4.3.5-5,4Z"/>
        <path class="st0" d="M116.8,330.3c4.6,3,7.4,9.4,8.2,13.2l-10.5,8.5s-5.7-12.7-3.9-15.9c1.8-3.3,4.4-6.9,6.1-5.8Z"/>
        <path class="st0" d="M80.2,362.3l-1.6,2.2c0,.2,0,.5.3.5l28.3,5.5c.2,0,.5,0,.5-.2l.7-2.4c0-.1,0-.3-.5-.5l-27.3-5.3c-.2,0-.3,0-.5.1v.2h0Z"/>
        <path class="st12" d="M83.4,366h-.8c0-.1-.2-.2-.2-.3l.9-3.1s0-.1.3,0h.7c0,.1.2.2.2.3l-.9,3.1s0,.1-.3,0h.1Z"/>
        <path class="st12" d="M101.8,369.7h-.7c0-.1-.2-.2-.2-.3l.9-3.1s0-.1.3,0h.7c0,.1.2.2.2.3l-.9,3.1c0,0-.1.1-.3.1h0Z"/>
        <path class="st17" d="M97.6,290.9c-3.8.1-6.9,2.7-7.7,6.4-1.5,4.9-2.5,11.3-6,10.6.8.8,3,1.5,3.4,1-1.8,2.6-1.9,4.4-1.6,9,.5,5.7-3,5-3,5,0,0,4.6,5.1,16.6,5.1s15.1-3.2,16.2-5.5c-1.5-.2-4.7-4.9-3.2-8.2,1.5-3.3,3.4-12,2.3-15.1,1.6,1.8,2.3,4.9,2.7,1.6s.3-6.8-4.2-10.1c-4.1-2.8-14.6-2.8-15.6.3h.1Z"/>
        <path class="st0" d="M99.2,300.5c0,3-1.7,5.2-3.8,5.2s-3.8-2.3-3.8-5.2,1.7-5.2,3.8-5.2,3.8,2.4,3.8,5.2Z"/>
        <path class="st17" d="M93.3,291.8c-3.3-2.2-9.4,1.1-12.3,4s-7.1,12.2-7.1,12.2c-2.8,3-6.7,4.8-10.9,4.9,0,0,10.6,4.9,14,4.3s6-3.8,6-3.8c-1.7,3.8-3.8,6.9-6.7,8.1,3.8-.8,7.2-2.7,9.8-5.6,2.3-2.7,2.5-9.2,2.5-9.2,0,0,4,.6,6.3-2.3,2.3-2.8,1.7-10.6-1.5-12.7h-.1Z"/>
        <polygon class="st3" points="92 400.3 92.3 411.7 93.5 469.9 97.4 469.9 98.6 411.7 98.9 400.3 92 400.3"/>
        <polygon class="st6" points="92 400.3 92.3 411.7 93.5 469.9 97.4 469.9 98.6 411.7 98.9 400.3 92 400.3"/>
        <polygon class="st12" points="92 400.3 92.3 412 98.6 412 98.9 400.3 92 400.3"/>
        <polygon class="st3" points="70.5 469.8 74.2 401.1 80.2 401.1 75.1 469.8 70.5 469.8"/>
        <polygon class="st6" points="75.1 469.8 70.5 469.8 73.9 406.6 74.2 401 80.2 401 79.7 406.6 75.1 469.8"/>
        <polygon class="st12" points="80.2 401 79.7 406.9 73.9 406.9 74.2 401 80.2 401"/>
        <polygon class="st3" points="115.8 469.8 110.7 401.1 116.7 401.1 120.4 469.8 115.8 469.8"/>
        <polygon class="st6" points="115.8 469.8 111.1 406.6 110.7 401 116.7 401 117.1 406.6 120.4 469.8 115.8 469.8"/>
        <polygon class="st12" points="110.7 401 111.1 406.9 117.1 406.9 116.7 401 110.7 401"/>
        <path class="st3" d="M119.9,403.2h-48.8v-4.4c0-2.3,1.8-4.1,4.1-4.1h40.6c2.3,0,4.1,1.8,4.1,4.1h0v4.4h0Z"/>
        <rect class="st3" x="68.7" y="398.9" width="53.6" height="4.2" rx="1.7" ry="1.7"/>
        <rect class="st5" x="68.7" y="398.9" width="53.6" height="4.2" rx="1.7" ry="1.7"/>
        <polygon class="st3" points="65 347.5 68.2 347.5 77 398.9 73.9 398.9 65 347.5"/>
        <polygon class="st3" points="88.5 347.5 91.6 347.5 100.4 398.9 97.3 398.9 88.5 347.5"/>
        <polygon class="st6" points="65 347.5 68.2 347.5 77 398.9 73.9 398.9 65 347.5"/>
        <polygon class="st6" points="88.5 347.5 91.6 347.5 100.4 398.9 97.3 398.9 88.5 347.5"/>
        <path class="st3" d="M94.5,357.2h-29c-2.2,0-4-1.8-4.1-4.1l-3-12.6c-.3-2.7,1.6-5.2,4.1-5.2h29c2.2,0,4,1.8,4.1,4l3,12.6c.2,2.7-1.7,5.2-4.1,5.2h0Z"/>
        <rect class="st5" x="96" y="398.9" width="26.1" height="4.2" rx="1.7" ry="1.7"/>
      </g>
    </g>
    <polygon class="st3" points="313.1 199.5 313.9 199.2 331.3 257.1 330 257.4 313.1 199.5"/>
    <polygon class="st6" points="311.9 193.8 312.7 193.5 330.1 251.4 328.9 251.7 311.9 193.8"/>
  </g>
  <g>
    <g>
      <path class="st14" d="M200.1,62.7c-1.5-1-2.2-2.6-2.3-4.6h5.7c0,.7.2,1.1.6,1.5s.8.5,1.4.5.9,0,1.3-.3c.3-.2.5-.6.5-1s-.2-1-.8-1.3c-.6-.3-1.4-.7-2.5-1-1.3-.5-2.3-.8-3.1-1.3-.8-.3-1.5-.9-2-1.7s-.9-1.7-.9-3,.3-2.3.9-3.2,1.5-1.6,2.5-2c1.1-.5,2.3-.7,3.6-.7,2.3,0,4,.6,5.3,1.6s2,2.5,2.2,4.4h-5.8c0-.6-.2-1-.6-1.3-.3-.3-.8-.5-1.3-.5s-.7,0-1,.3c-.2.2-.3.6-.3,1s.1.7.5.9c.2.2.7.5,1,.7.5.2,1,.5,1.8.7,1.3.5,2.2.8,3,1.3.8.5,1.5,1,2,1.7s.9,1.7.9,2.7-.3,2.2-.9,3.1c-.6.9-1.4,1.6-2.5,2.2-1,.6-2.4.8-3.9.8-2.3,0-4.1-.6-5.5-1.6h.2Z"/>
      <path class="st14" d="M215.9,49.5c.8-1.5,1.9-2.6,3.3-3.4,1.5-.8,3.1-1.3,5-1.3s4.4.7,6,1.9c1.6,1.3,2.7,3,3.2,5.2h-5.7c-.3-.7-.8-1.3-1.5-1.7-.6-.3-1.4-.6-2.2-.6-1.3,0-2.2.5-3,1.4-.7.9-1.1,2-1.1,3.5s.3,2.6,1.1,3.5c.7.9,1.7,1.4,3,1.4s1.5-.2,2.2-.6c.6-.3,1.1-.9,1.5-1.7h5.7c-.5,2.2-1.5,4-3.2,5.2-1.6,1.3-3.6,1.9-6,1.9s-3.5-.5-5-1.3c-1.5-.8-2.6-1.9-3.3-3.4-.8-1.5-1.1-3.2-1.1-5.1s.3-3.5,1.1-5h0Z"/>
      <path class="st14" d="M253.1,44.9v19.1h-5.3v-7.7h-6.5v7.7h-5.3v-19.1h5.3v7.2h6.5v-7.2s5.3,0,5.3,0Z"/>
      <path class="st14" d="M261.4,44.9v11.2c0,1,.2,1.8.7,2.4s1.3.8,2.2.8,1.7-.3,2.2-.9.8-1.4.8-2.4v-11.2h5.3v11.2c0,1.7-.3,3.3-1.1,4.6s-1.7,2.2-3.1,2.8c-1.3.6-2.7.9-4.2.9s-3-.3-4.2-.9-2.2-1.6-2.8-2.7-1-2.7-1-4.6v-11.2s5.3,0,5.3,0Z"/>
      <path class="st14" d="M281,60.1h5.9v4.1h-11.3v-19.1h5.3v15.1h0Z"/>
      <path class="st14" d="M294.2,49.3v3.1h6.1v4.1h-6.1v3.4h6.9v4.3h-12.3v-19.1h12.3v4.3h-6.9Z"/>
    </g>
    <g class="st27">
      <path class="st14" d="M201.3,63.6c-1.5-1-2.2-2.6-2.3-4.6h5.7c0,.7.2,1.1.6,1.5s.8.5,1.4.5.9,0,1.3-.3c.3-.2.5-.6.5-1s-.2-1-.8-1.3c-.6-.3-1.4-.7-2.5-1-1.3-.5-2.3-.8-3.1-1.3-.8-.3-1.5-.9-2-1.7s-.9-1.7-.9-3,.3-2.3.9-3.2,1.5-1.6,2.5-2c1.1-.5,2.3-.7,3.6-.7,2.3,0,4,.6,5.3,1.6s2,2.5,2.2,4.4h-5.8c0-.6-.2-1-.6-1.3-.3-.3-.8-.5-1.3-.5s-.7,0-1,.3c-.2.2-.3.6-.3,1s.1.7.5.9c.2.2.7.5,1,.7.5.2,1,.5,1.8.7,1.3.5,2.2.8,3,1.3.8.5,1.5,1,2,1.7s.9,1.7.9,2.7-.3,2.2-.9,3.1c-.6.9-1.4,1.6-2.5,2.2-1,.6-2.4.8-3.9.8-2.3,0-4.1-.6-5.5-1.6h.2Z"/>
      <path class="st14" d="M216.8,50.4c.8-1.5,1.9-2.6,3.3-3.4,1.5-.8,3.1-1.3,5-1.3s4.4.7,6,1.9c1.6,1.3,2.7,3,3.2,5.2h-5.7c-.3-.7-.8-1.3-1.5-1.7-.6-.3-1.4-.6-2.2-.6-1.3,0-2.2.5-3,1.4-.7.9-1.1,2-1.1,3.5s.3,2.6,1.1,3.5c.7.9,1.7,1.4,3,1.4s1.5-.2,2.2-.6c.6-.3,1.1-.9,1.5-1.7h5.7c-.5,2.2-1.5,4-3.2,5.2-1.6,1.3-3.6,1.9-6,1.9s-3.5-.5-5-1.3c-1.5-.8-2.6-1.9-3.3-3.4-.8-1.5-1.1-3.2-1.1-5.1s.3-3.5,1.1-5h0Z"/>
      <path class="st14" d="M254,45.8v19.1h-5.3v-7.7h-6.5v7.7h-5.3v-19.1h5.3v7.2h6.5v-7.2h5.3Z"/>
      <path class="st14" d="M262.3,45.8v11.2c0,1,.2,1.8.7,2.4s1.3.8,2.2.8,1.7-.3,2.2-.9.8-1.4.8-2.4v-11.2h5.3v11.2c0,1.7-.3,3.3-1.1,4.6s-1.7,2.2-3.1,2.8c-1.3.6-2.7.9-4.2.9s-3-.3-4.2-.9-2.2-1.6-2.8-2.7-1-2.7-1-4.6v-11.2s5.3,0,5.3,0Z"/>
      <path class="st14" d="M281.8,61h5.9v4.1h-11.3v-19.1h5.3v15.1h0Z"/>
      <path class="st14" d="M295.2,50.2v3.1h6.1v4.1h-6.1v3.4h6.9v4.3h-12.3v-19.1h12.3v4.3h-6.9Z"/>
    </g>
  </g>
</svg>