<?xml version="1.0" encoding="UTF-8"?>
<svg id="Layer_1" xmlns="http://www.w3.org/2000/svg" version="1.1" viewBox="0 0 500 500">
  <!-- Generator: Adobe Illustrator 29.1.0, SVG Export Plug-In . SVG Version: 2.1.0 Build 142)  -->
  <defs>
    <style>
      .st0, .st1 {
        fill: #004a99;
      }

      .st2 {
        fill: #fab27b;
      }

      .st3 {
        fill: #263238;
      }

      .st4, .st5, .st6, .st7, .st8 {
        fill: #fff;
      }

      .st5, .st6, .st1, .st9, .st7, .st10, .st11, .st12, .st8 {
        isolation: isolate;
      }

      .st5, .st1, .st10 {
        opacity: .6;
      }

      .st13, .st12, .st8 {
        opacity: .2;
      }

      .st6 {
        opacity: .4;
      }

      .st14 {
        fill: #e0e0e0;
      }

      .st15 {
        fill: #ff8b7b;
      }

      .st9, .st16 {
        opacity: .1;
      }

      .st17 {
        fill: #b9671b;
      }

      .st18 {
        fill: #218972;
      }

      .st7 {
        opacity: .7;
      }

      .st10 {
        fill: #fafafa;
      }

      .st19 {
        fill: #e5edea;
      }

      .st20, .st11 {
        opacity: .3;
      }

      .st21 {
        fill: #bc006d;
      }

      .st22 {
        fill: #ebebeb;
      }

      .st23 {
        fill: #f5f5f5;
      }

      .st24 {
        fill: #ed847e;
      }

      .st25 {
        fill: #d85b5b;
      }

      .st26 {
        opacity: .5;
      }

      .st27 {
        fill: #ffc3bd;
      }

      .st28 {
        opacity: .7;
      }
    </style>
  </defs>
  <g class="st28">
    <g id="freepik--freepik--high-school-building--inject-76--inject-90">
      <rect class="st23" x="45.2" y="105" width="411.5" height="115.5"/>
      <rect class="st23" x="154.2" y="92.7" width="194.7" height="129"/>
      <rect class="st22" x="45.2" y="186.3" width="139.2" height="11.5"/>
      <rect class="st22" x="318.6" y="186.3" width="138.1" height="11.5"/>
      <g class="st20">
        <rect class="st14" x="174.9" y="142.3" width="153.4" height="78.2"/>
      </g>
      <g class="st20">
        <path class="st14" d="M229,128.6c-.5-.1-1.1-.3-1.5-.7l.8-1.8c.9.5,1.8.9,2.7.9s1.4-.2,1.4-.7-.1-.4-.4-.5c-.4-.1-.9-.3-1.2-.3-.5-.1-1.1-.2-1.5-.4-.4-.1-.8-.4-1.1-.8-.3-.4-.4-.9-.4-1.4s.1-1,.4-1.4c.3-.4.8-.8,1.2-1,.7-.2,1.3-.4,2.1-.3.5,0,1.1,0,1.6.2.5.1,1,.3,1.4.5l-.8,1.8c-.7-.4-1.5-.7-2.3-.7s-.8,0-1,.2c-.2,0-.3.3-.3.5s.1.4.4.5c.4.1.9.2,1.2.3.5.1,1.1.2,1.6.4.4.1.8.4,1.1.8.3.4.4.9.4,1.4s-.1,1-.4,1.3c-.3.4-.8.8-1.2,1-.7.2-1.3.3-2.1.3s-1.3-.1-2-.3h-.2Z"/>
        <path class="st14" d="M237.7,128.3c-.7-.3-1.2-.9-1.6-1.5-.8-1.4-.8-3.1,0-4.5.4-.7,1-1.2,1.6-1.5,1.4-.7,3.1-.8,4.5-.1.5.2,1.1.7,1.5,1.2l-1.5,1.3c-.4-.7-1.2-1-2-1s-.9,0-1.2.3c-.3.2-.7.5-.9.9-.3.8-.3,1.8,0,2.5.2.3.4.7.9.9,1.1.5,2.4.3,3.2-.7l1.5,1.3c-.4.5-1,.9-1.5,1.2-1.4.5-3.1.5-4.5-.1h0v-.2h0Z"/>
        <path class="st14" d="M252.7,120.3v8.4h-2.4v-3.3h-3.3v3.3h-2.4v-8.4h2.4v3.2h3.3v-3.2h2.4Z"/>
        <path class="st14" d="M256.2,128.3c-2.1-1.1-3-3.7-1.9-5.8.4-.8,1.1-1.4,1.9-1.9,1.5-.8,3.3-.8,4.8,0,2.1,1.1,3,3.7,1.9,5.8h0c-.4.8-1,1.4-1.9,1.9-1.5.8-3.3.8-4.8,0h0ZM259.8,126.6c.3-.2.7-.4.9-.9.4-.8.4-1.8,0-2.5-.2-.3-.4-.7-.8-.9-.8-.4-1.6-.4-2.3,0s-.7.5-.9.9c-.4.8-.4,1.8,0,2.5.2.3.4.7.9.9.7.4,1.5.4,2.3,0h-.1Z"/>
        <path class="st14" d="M266.4,128.3c-2.1-1.1-3-3.7-1.8-5.8.4-.8,1-1.4,1.8-1.8,1.5-.8,3.3-.8,4.8,0,2.1,1.1,3,3.7,1.8,5.8-.4.8-1,1.4-1.8,1.8-1.5.8-3.3.8-4.8,0ZM270,126.6c.3-.2.7-.4.9-.9.4-.8.4-1.8,0-2.5-.2-.3-.4-.7-.9-.9-.8-.4-1.5-.4-2.3,0-.3.2-.7.5-.8.9-.4.8-.4,1.8,0,2.5.2.3.4.7.8.9.8.4,1.5.4,2.3,0Z"/>
        <path class="st14" d="M274.7,120.3h2.4v6.6h4.1v1.9h-6.4v-8.4h-.1Z"/>
      </g>
      <path class="st14" d="M228.3,127.9c-.5-.1-1.1-.3-1.5-.7l.8-1.8c.9.5,1.8.8,2.7.9.9,0,1.3-.2,1.3-.7s-.1-.4-.4-.5c-.4-.1-.8-.3-1.2-.3s-1.1-.2-1.5-.4c-.4-.1-.8-.4-1.1-.8-.3-.4-.4-.9-.4-1.4s.1-1,.4-1.4c.3-.4.8-.8,1.2-1,.7-.2,1.3-.3,2.1-.3s1.1,0,1.6.2c.5,0,1,.3,1.4.5l-.8,1.8c-.7-.4-1.5-.7-2.3-.7s-.8,0-1,.2c-.2.1-.3.3-.3.5s.1.4.3.5c.4.1.9.2,1.2.3.5.1,1.1.2,1.5.4.4.1.8.4,1.1.8.3.4.5.9.4,1.4,0,.4-.1,1-.4,1.4-.3.4-.8.8-1.2,1-.7.2-1.3.3-2.1.3s-1.3-.1-2-.3h.1Z"/>
      <path class="st14" d="M237,127.6c-.7-.3-1.2-.9-1.6-1.5-.8-1.4-.8-3.1,0-4.5.4-.7,1-1.2,1.6-1.5,1.4-.7,3-.8,4.5-.1.7.2,1.1.7,1.5,1.2l-1.5,1.4c-.8-1-2.1-1.2-3.2-.7-.3.2-.7.4-.9.9-.4.8-.4,1.8,0,2.5.2.3.4.7.9.9,1.1.7,2.4.3,3.2-.7l1.5,1.4c-.4.5-1,.9-1.5,1.2-.7.3-1.3.4-2.1.4s-1.6-.2-2.4-.7v-.3h0Z"/>
      <path class="st14" d="M252,119.6v8.4h-2.4v-3.3h-3.3v3.3h-2.4v-8.4h2.4v3.2h3.3v-3.2h2.4Z"/>
      <path class="st14" d="M255.7,127.6c-2.1-1.1-3-3.7-1.9-5.8h0c.4-.8,1.1-1.4,1.9-1.9,1.5-.8,3.3-.8,4.8,0,2.1,1.1,3,3.7,1.9,5.8-.4.8-1.1,1.4-1.9,1.9-1.5.8-3.3.8-4.8,0h0ZM259.2,126c.3-.2.7-.4.9-.9.4-.8.4-1.8,0-2.5-.2-.3-.4-.7-.8-.9-.3-.2-.8-.3-1.2-.3s-.8,0-1.2.3c-.3.2-.7.5-.8.9-.2.3-.3.8-.3,1.2s0,.9.3,1.2c.2.3.4.7.8.9.8.4,1.6.4,2.3,0h0Z"/>
      <path class="st14" d="M265.7,127.6c-2.1-1.1-3-3.7-1.8-5.8.4-.8,1-1.4,1.8-1.8,1.5-.8,3.3-.8,4.8,0,2.1,1.1,3,3.7,1.8,5.8-.4.8-1,1.4-1.8,1.8-1.5.8-3.3.8-4.8,0ZM269.4,126c.3-.2.7-.4.8-.9.4-.8.4-1.8,0-2.5-.2-.3-.4-.7-.8-.9-.8-.4-1.6-.4-2.3,0-.3.2-.7.4-.8.9-.4.8-.4,1.8,0,2.5.2.3.4.7.8.9.8.4,1.6.4,2.3,0Z"/>
      <path class="st14" d="M274.1,119.6h2.4v6.6h4.1v1.9h-6.4v-8.4h-.1Z"/>
      <rect class="st14" x="147.6" y="86.2" width="205.4" height="6.5"/>
      <rect class="st14" x="184.4" y="149.7" width="136" height="70.9"/>
      <rect class="st22" x="276.4" y="169.7" width="41.9" height="49"/>
      <path class="st14" d="M297.3,219.9s-.1-11.4-.1-25.5,0-25.5.1-25.5.1,11.4.1,25.5,0,25.5-.1,25.5Z"/>
      <rect class="st22" x="186.9" y="169.7" width="41.9" height="49"/>
      <path class="st14" d="M207.8,219.9s-.1-11.4-.1-25.5,0-25.5.1-25.5.1,11.4.1,25.5,0,25.5-.1,25.5Z"/>
      <rect class="st14" x="204.2" y="189.7" width="2.5" height="9.2"/>
      <rect class="st14" x="209.2" y="189.7" width="2.5" height="9.2"/>
      <rect class="st22" x="187.2" y="152.8" width="41.9" height="13.9"/>
      <rect class="st22" x="231.6" y="152.8" width="41.9" height="13.9"/>
      <rect class="st22" x="276.1" y="152.8" width="41.9" height="13.9"/>
      <g class="st13">
        <polygon class="st4" points="318.3 182.7 276.4 201.8 276.4 206.3 318.3 186.4 318.3 182.7"/>
      </g>
      <g class="st13">
        <polygon class="st4" points="318 189.9 276.1 208.9 276.1 211.8 318 192.4 318 189.9"/>
      </g>
      <rect class="st22" x="231.6" y="169.7" width="41.9" height="49"/>
      <g class="st13">
        <polygon class="st4" points="273.5 169.7 231.6 188.7 231.6 197.8 273.5 177.4 273.5 169.7"/>
      </g>
      <g class="st13">
        <polygon class="st4" points="273.5 180.4 231.6 199.5 231.6 202.2 273.5 183 273.5 180.4"/>
      </g>
      <path class="st14" d="M252.6,219.9s-.1-11.4-.1-25.5,0-25.5.1-25.5.1,11.4.1,25.5,0,25.5-.1,25.5Z"/>
      <path class="st14" d="M259.9,191.5s1.8-2.6,4.2-5.8,4.4-5.7,4.4-5.6-1.8,2.6-4.2,5.8-4.4,5.7-4.4,5.6Z"/>
      <path class="st14" d="M258.6,200.5s2.1-3.3,4.8-7.1,5-7,5.2-6.9-2.1,3.3-4.8,7.1-5,7-5.2,6.9Z"/>
      <path class="st14" d="M235.8,203.6s2-2.1,4.5-4.6,3.1-3,4.7-4.4c0,0-2,2.1-4.5,4.6s-3.1,3-4.7,4.4Z"/>
      <path class="st14" d="M232.9,211.8c.1-.2.3-.3.4-.5l1.4-1.3,4.6-4.3,4.5-4.3,1.3-1.3c.1-.2.3-.3.5-.4-.1.2-.3.3-.4.5-.3.3-.8.8-1.3,1.4-1.1,1.2-2.6,2.7-4.5,4.4s-3.4,3.1-4.6,4.2c-.7.5-1.1,1-1.4,1.2-.2.1-.3.3-.5.4h0Z"/>
      <rect class="st14" x="249" y="189.7" width="2.5" height="9.2"/>
      <rect class="st14" x="254" y="189.7" width="2.5" height="9.2"/>
      <path class="st14" d="M260.3,156.5c-.5.4-1.2,1-1.8,1.4l-4.4,3.3c-1.8,1.2-3.3,2.4-4.5,3.2-.5.4-1.1.7-1.4.9-.2.1-.3.2-.5.3.5-.4,1.2-1,1.8-1.4,1.2-.9,2.7-2,4.4-3.3s3.3-2.4,4.5-3.2c.5-.4,1.1-.7,1.4-.9.1-.1.3-.2.5-.3h0Z"/>
      <path class="st14" d="M252.7,159c-1.3,1.1-2.6,2.1-3.9,3.1-1.3,1-2.7,2-4.2,2.7,1.3-1.1,2.6-2.1,3.9-3.1,1.3-1,2.7-2,4.2-2.7Z"/>
      <path class="st14" d="M215.9,154.3c-.5.5-1.2,1-1.8,1.3l-4.4,3.3c-1.8,1.2-3.3,2.4-4.5,3.2-.5.4-1.1.7-1.4.9-.2.1-.3.2-.5.3.5-.4,1.2-1,1.8-1.3l4.4-3.3c1.8-1.2,3.3-2.4,4.5-3.2.5-.4,1.1-.7,1.4-.9.2-.1.3-.2.5-.3Z"/>
      <path class="st14" d="M208.4,156.7c-1.3,1.1-2.6,2.1-3.9,3.1-1.3,1-2.7,2-4.2,2.7,2.6-2.1,5.4-4.1,8.2-5.8h-.1Z"/>
      <path class="st14" d="M309.6,155.4c-.5.5-1.2,1-1.9,1.4l-4.4,3.3c-1.8,1.2-3.3,2.4-4.5,3.2-.5.4-1.1.7-1.4.9-.1.1-.3.2-.5.3.5-.4,1.2-1,1.8-1.3l4.4-3.3c1.8-1.2,3.3-2.4,4.5-3.2.5-.4,1.1-.7,1.4-.9.2-.1.3-.2.5-.3h.1Z"/>
      <path class="st14" d="M302.1,157.8c-1.3,1.1-2.6,2.1-3.9,3.1-1.3,1-2.7,2-4.2,2.7,1.2-1.1,2.6-2.1,3.9-3.1,1.3-1,2.7-2,4.2-2.7Z"/>
      <g class="st13">
        <polygon class="st4" points="223.3 169.7 206.6 169.7 187.2 178.3 187.2 186.3 223.3 169.7 223.3 169.7"/>
      </g>
      <g class="st13">
        <polygon class="st4" points="229.1 170 187.2 189 187.2 191.8 229.1 172.6 229.1 170"/>
      </g>
      <g class="st16">
        <rect class="st14" x="163.2" y="162.6" width="11.6" height="4.8"/>
      </g>
      <g class="st13">
        <rect class="st14" x="157.6" y="157" width="11.6" height="4.8"/>
      </g>
      <g class="st16">
        <rect class="st14" x="173.9" y="130.8" width="11.6" height="4.8"/>
      </g>
      <g class="st13">
        <rect class="st14" x="180.1" y="124" width="11.6" height="4.8"/>
      </g>
      <g class="st16">
        <rect class="st14" x="136.4" y="120.3" width="11.6" height="4.8"/>
      </g>
      <g class="st13">
        <rect class="st14" x="142.5" y="113.4" width="11.6" height="4.8"/>
      </g>
      <g class="st16">
        <rect class="st14" x="78.8" y="137.1" width="11.6" height="4.8"/>
      </g>
      <g class="st16">
        <rect class="st14" x="64.1" y="118.8" width="11.6" height="4.8"/>
      </g>
      <g class="st13">
        <rect class="st14" x="84.9" y="130.3" width="11.6" height="4.8"/>
      </g>
      <g class="st13">
        <rect class="st14" x="88.1" y="208.5" width="11.6" height="4.8"/>
      </g>
      <g class="st13">
        <rect class="st14" x="130.2" y="126.9" width="11.6" height="4.8"/>
      </g>
      <g class="st16">
        <rect class="st14" x="430.8" y="117.8" width="11.6" height="4.8"/>
      </g>
      <g class="st13">
        <rect class="st14" x="437" y="111" width="11.6" height="4.8"/>
      </g>
      <g class="st16">
        <rect class="st14" x="373.3" y="134.7" width="11.6" height="4.8"/>
      </g>
      <g class="st16">
        <rect class="st14" x="358.5" y="116.4" width="11.6" height="4.8"/>
      </g>
      <g class="st13">
        <rect class="st14" x="379.4" y="128" width="11.6" height="4.8"/>
      </g>
      <g class="st13">
        <rect class="st14" x="422.5" y="136.5" width="11.6" height="4.8"/>
      </g>
      <g class="st13">
        <rect class="st14" x="229" y="109.5" width="11.6" height="4.8"/>
      </g>
      <g class="st16">
        <rect class="st14" x="234.8" y="102.4" width="11.6" height="4.8"/>
      </g>
      <g class="st13">
        <rect class="st14" x="337.6" y="140" width="11.3" height="4.8"/>
      </g>
      <g class="st16">
        <rect class="st14" x="343.4" y="132.8" width="5.5" height="4.8"/>
      </g>
      <g class="st13">
        <rect class="st14" x="299.6" y="128.4" width="11.6" height="4.8"/>
      </g>
      <g class="st16">
        <rect class="st14" x="305.8" y="121.1" width="11.6" height="4.8"/>
      </g>
      <path class="st14" d="M154.2,220.4s-.1-28.5-.1-63.7,0-63.7.1-63.7.1,28.5.1,63.7,0,63.7-.1,63.7Z"/>
      <rect class="st14" x="293.7" y="189.7" width="2.5" height="9.2"/>
      <rect class="st14" x="298.8" y="189.7" width="2.5" height="9.2"/>
      <rect class="st22" x="103.4" y="145" width="45.4" height="63.1"/>
      <rect class="st14" x="107.8" y="149.7" width="36.6" height="54.1"/>
      <rect class="st22" x="110.9" y="164.8" width="30.4" height="35.5"/>
      <rect class="st22" x="110.9" y="152.8" width="30.4" height="10"/>
      <path class="st14" d="M126.1,201.3s-.1-8-.1-18,0-18,.1-18,.1,8,.1,18,0,18-.1,18Z"/>
      <path class="st14" d="M123,185.2c-1.3,1.3-2.6,2.6-4.1,3.8-1.3,1.3-2.7,2.4-4.3,3.5,1.3-1.3,2.6-2.6,4.1-3.8,1.3-1.3,2.7-2.4,4.3-3.6h0Z"/>
      <path class="st14" d="M123,182.7c-.8.9-1.6,1.6-2.5,2.4s-1.8,1.5-2.7,2.2c.8-.9,1.6-1.6,2.5-2.4s1.8-1.5,2.7-2.2Z"/>
      <path class="st14" d="M138.9,174.1c-1.4,1.3-2.9,2.6-4.4,3.8-1.4,1.3-3,2.5-4.6,3.6,1.4-1.3,2.9-2.6,4.4-3.8,1.4-1.3,3-2.5,4.6-3.6Z"/>
      <path class="st14" d="M135,179.6s-.3.5-.9,1.1-1,.9-1.1.9.3-.5.9-1.1,1.1-.9,1.1-.9Z"/>
      <rect class="st22" x="52.9" y="145" width="45.4" height="63.1"/>
      <rect class="st14" x="57.3" y="149.7" width="36.6" height="54.1"/>
      <rect class="st22" x="60.5" y="164.8" width="30.4" height="35.5"/>
      <rect class="st22" x="60.5" y="152.8" width="30.4" height="10"/>
      <path class="st14" d="M75.6,201.3v-36,36Z"/>
      <path class="st14" d="M72.5,185.2c-1.3,1.3-2.6,2.6-4.1,3.8-1.3,1.3-2.7,2.4-4.3,3.5,1.3-1.3,2.6-2.6,4.1-3.8,1.3-1.3,2.9-2.5,4.3-3.6h0Z"/>
      <path class="st14" d="M72.5,182.7c-.8.9-1.6,1.6-2.5,2.4s-1.8,1.5-2.7,2.2c.8-.9,1.6-1.6,2.5-2.4s1.8-1.5,2.7-2.2Z"/>
      <path class="st14" d="M88.4,174.1c-1.4,1.3-2.9,2.6-4.4,3.8-1.4,1.3-3,2.4-4.6,3.5,1.4-1.3,2.9-2.6,4.4-3.8,1.4-1.3,3-2.4,4.6-3.5Z"/>
      <path class="st14" d="M84.5,179.6s-.3.5-.9,1.1-1,.9-1.1.9.3-.5.9-1.1,1-.9,1.1-.9Z"/>
      <rect class="st22" x="405.6" y="145" width="45.4" height="63.1"/>
      <rect class="st14" x="410" y="149.7" width="36.6" height="54.1"/>
      <rect class="st22" x="413.2" y="164.8" width="30.4" height="35.5"/>
      <rect class="st22" x="413.2" y="152.8" width="30.4" height="10"/>
      <path class="st14" d="M428.3,201.3s-.1-8-.1-18,0-18,.1-18,.1,8,.1,18,0,18-.1,18Z"/>
      <path class="st14" d="M425.3,185.2c-1.3,1.3-2.6,2.6-4.1,3.8-1.3,1.3-2.7,2.5-4.3,3.6,1.3-1.3,2.6-2.6,4.1-3.8,1.3-1.3,2.7-2.5,4.3-3.6Z"/>
      <path class="st14" d="M425.3,182.7c-.8.9-1.6,1.6-2.5,2.4s-1.8,1.5-2.7,2.2c.8-.9,1.6-1.6,2.5-2.4s1.8-1.5,2.7-2.2Z"/>
      <path class="st14" d="M441.2,174.1c-1.4,1.3-2.9,2.6-4.4,3.8-1.4,1.3-3,2.5-4.6,3.6,1.4-1.3,2.9-2.6,4.4-3.8,1.4-1.3,3-2.5,4.6-3.6Z"/>
      <path class="st14" d="M437.2,179.6s-.3.5-.9,1.1-1,.9-1.1.9.3-.5.9-1.1,1-.9,1.1-.9Z"/>
      <rect class="st22" x="355.2" y="145" width="45.4" height="63.1"/>
      <rect class="st14" x="359.6" y="149.7" width="36.6" height="54.1"/>
      <rect class="st22" x="362.7" y="164.8" width="30.4" height="35.5"/>
      <rect class="st22" x="362.7" y="152.8" width="30.4" height="10"/>
      <path class="st14" d="M377.9,201.3s-.1-8-.1-18,0-18,.1-18,.1,8,.1,18,0,18-.1,18Z"/>
      <path class="st14" d="M374.8,185.2c-1.3,1.3-2.6,2.6-4.1,3.8-1.3,1.3-2.7,2.5-4.3,3.6,1.3-1.3,2.6-2.6,4.1-3.8,1.3-1.3,2.7-2.5,4.3-3.6Z"/>
      <path class="st14" d="M374.8,182.7c-.8.9-1.6,1.6-2.5,2.4s-1.8,1.5-2.7,2.2c.8-.9,1.6-1.6,2.5-2.4s1.8-1.5,2.7-2.2Z"/>
      <path class="st14" d="M390.7,174.1c-1.4,1.3-2.9,2.6-4.4,3.8-1.4,1.3-3,2.5-4.6,3.6,1.4-1.3,2.9-2.6,4.4-3.8,1.4-1.3,3-2.5,4.6-3.6Z"/>
      <path class="st14" d="M386.8,179.6s-.3.5-.9,1.1-1,.9-1.1.9.3-.5.9-1.1,1-.9,1.1-.9Z"/>
      <rect class="st14" x="41" y="102.7" width="113.2" height="4.8"/>
      <rect class="st14" x="348.9" y="102.7" width="110" height="4.8"/>
      <path class="st14" d="M348.9,220.5s-.1-28.5-.1-63.7,0-63.7.1-63.7.1,28.5.1,63.7,0,63.7-.1,63.7Z"/>
    </g>
    <g id="freepik--freepik--high-school-building--inject-76--inject-901">
      <rect class="st23" x="45.2" y="301.4" width="411.5" height="115.5"/>
      <rect class="st23" x="154.2" y="289.1" width="194.7" height="129"/>
      <rect class="st22" x="45.2" y="382.6" width="139.2" height="11.5"/>
      <rect class="st22" x="318.6" y="382.6" width="138.1" height="11.5"/>
      <g class="st20">
        <rect class="st14" x="174.9" y="338.6" width="153.4" height="78.2"/>
      </g>
      <rect class="st14" x="147.6" y="282.6" width="205.4" height="6.5"/>
      <rect class="st14" x="184.4" y="345.9" width="136" height="70.9"/>
      <rect class="st22" x="276.4" y="366.1" width="41.9" height="49"/>
      <path class="st14" d="M297.3,416.2s-.1-11.4-.1-25.5,0-25.5.1-25.5.1,11.4.1,25.5,0,25.5-.1,25.5Z"/>
      <rect class="st22" x="186.9" y="366.1" width="41.9" height="49"/>
      <path class="st14" d="M207.8,416.2s-.1-11.4-.1-25.5,0-25.5.1-25.5.1,11.4.1,25.5,0,25.5-.1,25.5Z"/>
      <rect class="st14" x="204.2" y="386" width="2.5" height="9.2"/>
      <rect class="st14" x="209.2" y="386" width="2.5" height="9.2"/>
      <rect class="st22" x="187.2" y="349.1" width="41.9" height="13.9"/>
      <rect class="st22" x="231.6" y="349.1" width="41.9" height="13.9"/>
      <rect class="st22" x="276.1" y="349.1" width="41.9" height="13.9"/>
      <g class="st13">
        <polygon class="st4" points="318.3 379 276.4 398 276.4 402.6 318.3 382.7 318.3 379"/>
      </g>
      <g class="st13">
        <polygon class="st4" points="318 386.3 276.1 405.3 276.1 408 318 388.8 318 386.3"/>
      </g>
      <rect class="st22" x="231.6" y="366.1" width="41.9" height="49"/>
      <g class="st13">
        <polygon class="st4" points="273.5 366.1 231.6 385.1 231.6 394.1 273.5 373.7 273.5 366.1"/>
      </g>
      <g class="st13">
        <polygon class="st4" points="273.5 376.7 231.6 395.7 231.6 398.6 273.5 379.3 273.5 376.7"/>
      </g>
      <path class="st14" d="M252.6,416.2s-.1-11.4-.1-25.5,0-25.5.1-25.5.1,11.4.1,25.5,0,25.5-.1,25.5Z"/>
      <path class="st14" d="M259.9,387.8s1.8-2.6,4.2-5.8c2.4-3.2,4.4-5.7,4.4-5.6s-1.8,2.6-4.2,5.8-4.4,5.7-4.4,5.6Z"/>
      <path class="st14" d="M258.6,396.8s2.1-3.3,4.8-7.1c2.7-3.8,5-7,5.2-6.9s-2.1,3.3-4.8,7.1-5,7-5.2,6.9Z"/>
      <path class="st14" d="M235.8,400s2-2.1,4.5-4.6c1.5-1.5,3.1-3,4.7-4.4,0,0-2,2.1-4.5,4.6-1.5,1.5-3.1,3-4.7,4.4Z"/>
      <path class="st14" d="M232.9,408c.1-.2.3-.3.4-.5l1.4-1.3,4.6-4.3,4.5-4.3,1.3-1.3c.1-.2.3-.3.5-.4-.1.2-.3.3-.4.5-.3.3-.8.8-1.3,1.4-1.1,1.2-2.6,2.7-4.5,4.4s-3.4,3.1-4.6,4.2c-.7.5-1.1,1-1.4,1.2-.2.1-.3.3-.5.4h0Z"/>
      <rect class="st14" x="249" y="386" width="2.5" height="9.2"/>
      <rect class="st14" x="254" y="386" width="2.5" height="9.2"/>
      <path class="st14" d="M260.3,352.7c-.5.4-1.2,1-1.8,1.4l-4.4,3.3c-1.8,1.2-3.3,2.4-4.5,3.2-.5.4-1.1.7-1.4.9-.2.1-.3.2-.5.3.5-.4,1.2-1,1.8-1.4,1.2-.9,2.7-2,4.4-3.3s3.3-2.4,4.5-3.2c.5-.4,1.1-.7,1.4-.9.1-.1.3-.2.5-.3h0Z"/>
      <path class="st14" d="M252.7,355.2c-1.3,1.1-2.6,2.1-3.9,3.1-1.3,1-2.7,2-4.2,2.7,1.3-1.1,2.6-2.1,3.9-3.1,1.3-1,2.7-2,4.2-2.7Z"/>
      <path class="st14" d="M215.9,350.5c-.5.5-1.2,1-1.8,1.3l-4.4,3.3c-1.8,1.2-3.3,2.4-4.5,3.2-.5.4-1.1.7-1.4.9-.2.1-.3.2-.5.3.5-.4,1.2-1,1.8-1.3l4.4-3.3c1.8-1.2,3.3-2.4,4.5-3.2.5-.4,1.1-.7,1.4-.9.2-.1.3-.2.5-.3Z"/>
      <path class="st14" d="M208.4,353c-1.3,1.1-2.6,2.1-3.9,3.1-1.3,1-2.7,2-4.2,2.7,2.6-2.1,5.4-4.1,8.2-5.8h-.1Z"/>
      <path class="st14" d="M309.6,351.6c-.5.5-1.2,1-1.9,1.4l-4.4,3.3c-1.8,1.2-3.3,2.4-4.5,3.2-.5.4-1.1.7-1.4.9-.1.1-.3.2-.5.3.5-.4,1.2-1,1.8-1.3l4.4-3.3c1.8-1.2,3.3-2.4,4.5-3.2.5-.4,1.1-.7,1.4-.9.2-.1.3-.2.5-.3h.1Z"/>
      <path class="st14" d="M302.1,354.1c-1.3,1.1-2.6,2.1-3.9,3.1s-2.7,2-4.2,2.7c1.2-1.1,2.6-2.1,3.9-3.1s2.7-2,4.2-2.7Z"/>
      <g class="st13">
        <polygon class="st4" points="223.3 366.1 206.6 366.1 187.2 374.7 187.2 382.6 223.3 366.1 223.3 366.1"/>
      </g>
      <g class="st13">
        <polygon class="st4" points="229.1 366.3 187.2 385.3 187.2 388.1 229.1 368.8 229.1 366.3"/>
      </g>
      <g class="st16">
        <rect class="st14" x="163.2" y="358.9" width="11.6" height="4.8"/>
      </g>
      <g class="st13">
        <rect class="st14" x="157.6" y="353.3" width="11.6" height="4.8"/>
      </g>
      <g class="st16">
        <rect class="st14" x="173.9" y="327.1" width="11.6" height="4.8"/>
      </g>
      <g class="st13">
        <rect class="st14" x="180.1" y="320.3" width="11.6" height="4.8"/>
      </g>
      <g class="st16">
        <rect class="st14" x="136.4" y="316.6" width="11.6" height="4.8"/>
      </g>
      <g class="st13">
        <rect class="st14" x="142.5" y="309.8" width="11.6" height="4.8"/>
      </g>
      <g class="st16">
        <rect class="st14" x="78.8" y="333.5" width="11.6" height="4.8"/>
      </g>
      <g class="st16">
        <rect class="st14" x="64.1" y="315.1" width="11.6" height="4.8"/>
      </g>
      <g class="st13">
        <rect class="st14" x="84.9" y="326.7" width="11.6" height="4.8"/>
      </g>
      <g class="st13">
        <rect class="st14" x="88.1" y="404.8" width="11.6" height="4.8"/>
      </g>
      <g class="st13">
        <rect class="st14" x="130.2" y="323.2" width="11.6" height="4.8"/>
      </g>
      <g class="st16">
        <rect class="st14" x="430.8" y="314.2" width="11.6" height="4.8"/>
      </g>
      <g class="st13">
        <rect class="st14" x="437" y="307.4" width="11.6" height="4.8"/>
      </g>
      <g class="st16">
        <rect class="st14" x="373.3" y="331.1" width="11.6" height="4.8"/>
      </g>
      <g class="st16">
        <rect class="st14" x="358.5" y="312.7" width="11.6" height="4.8"/>
      </g>
      <g class="st13">
        <rect class="st14" x="379.4" y="324.3" width="11.6" height="4.8"/>
      </g>
      <g class="st13">
        <rect class="st14" x="422.5" y="332.9" width="11.6" height="4.8"/>
      </g>
      <g class="st13">
        <rect class="st14" x="229" y="305.9" width="11.6" height="4.8"/>
      </g>
      <g class="st16">
        <rect class="st14" x="234.8" y="298.6" width="11.6" height="4.8"/>
      </g>
      <g class="st13">
        <rect class="st14" x="337.6" y="336.4" width="11.3" height="4.8"/>
      </g>
      <g class="st16">
        <rect class="st14" x="343.4" y="329.1" width="5.5" height="4.8"/>
      </g>
      <g class="st13">
        <rect class="st14" x="299.6" y="324.7" width="11.6" height="4.8"/>
      </g>
      <g class="st16">
        <rect class="st14" x="305.8" y="317.5" width="11.6" height="4.8"/>
      </g>
      <path class="st14" d="M154.2,416.7s-.1-28.5-.1-63.7,0-63.7.1-63.7.1,28.5.1,63.7,0,63.7-.1,63.7Z"/>
      <rect class="st14" x="293.7" y="386" width="2.5" height="9.2"/>
      <rect class="st14" x="298.8" y="386" width="2.5" height="9.2"/>
      <rect class="st22" x="103.4" y="341.4" width="45.4" height="63.1"/>
      <rect class="st14" x="107.8" y="345.9" width="36.6" height="54.1"/>
      <rect class="st22" x="110.9" y="361" width="30.4" height="35.5"/>
      <rect class="st22" x="110.9" y="349.1" width="30.4" height="10"/>
      <path class="st14" d="M126.1,397.7s-.1-8-.1-18,0-18,.1-18,.1,8,.1,18,0,18-.1,18Z"/>
      <path class="st14" d="M123,381.6c-1.3,1.3-2.6,2.6-4.1,3.8-1.3,1.3-2.7,2.4-4.3,3.5,1.3-1.3,2.6-2.6,4.1-3.8,1.3-1.3,2.7-2.4,4.3-3.6h0Z"/>
      <path class="st14" d="M123,379c-.8.9-1.6,1.6-2.5,2.4s-1.8,1.5-2.7,2.2c.8-.9,1.6-1.6,2.5-2.4s1.8-1.5,2.7-2.2Z"/>
      <path class="st14" d="M138.9,370.4c-1.4,1.3-2.9,2.6-4.4,3.8-1.4,1.3-3,2.5-4.6,3.6,1.4-1.3,2.9-2.6,4.4-3.8,1.4-1.3,3-2.5,4.6-3.6Z"/>
      <path class="st14" d="M135,375.9s-.3.5-.9,1.1-1,.9-1.1.9.3-.5.9-1.1,1.1-.9,1.1-.9Z"/>
      <rect class="st22" x="52.9" y="341.4" width="45.4" height="63.1"/>
      <rect class="st14" x="57.3" y="345.9" width="36.6" height="54.1"/>
      <rect class="st22" x="60.5" y="361" width="30.4" height="35.5"/>
      <rect class="st22" x="60.5" y="349.1" width="30.4" height="10"/>
      <path class="st14" d="M75.6,397.7v-36,36Z"/>
      <path class="st14" d="M72.5,381.6c-1.3,1.3-2.6,2.6-4.1,3.8-1.3,1.3-2.7,2.4-4.3,3.5,1.3-1.3,2.6-2.6,4.1-3.8,1.3-1.3,2.9-2.5,4.3-3.6h0Z"/>
      <path class="st14" d="M72.5,379c-.8.9-1.6,1.6-2.5,2.4s-1.8,1.5-2.7,2.2c.8-.9,1.6-1.6,2.5-2.4s1.8-1.5,2.7-2.2Z"/>
      <path class="st14" d="M88.4,370.4c-1.4,1.3-2.9,2.6-4.4,3.8-1.4,1.3-3,2.4-4.6,3.5,1.4-1.3,2.9-2.6,4.4-3.8,1.4-1.3,3-2.4,4.6-3.5Z"/>
      <path class="st14" d="M84.5,375.9s-.3.5-.9,1.1-1,.9-1.1.9.3-.5.9-1.1,1-.9,1.1-.9Z"/>
      <rect class="st22" x="405.6" y="341.4" width="45.4" height="63.1"/>
      <rect class="st14" x="410" y="345.9" width="36.6" height="54.1"/>
      <rect class="st22" x="413.2" y="361" width="30.4" height="35.5"/>
      <rect class="st22" x="413.2" y="349.1" width="30.4" height="10"/>
      <path class="st14" d="M428.3,397.7s-.1-8-.1-18,0-18,.1-18,.1,8,.1,18,0,18-.1,18Z"/>
      <path class="st14" d="M425.3,381.6c-1.3,1.3-2.6,2.6-4.1,3.8-1.3,1.3-2.7,2.5-4.3,3.6,1.3-1.3,2.6-2.6,4.1-3.8,1.3-1.3,2.7-2.5,4.3-3.6Z"/>
      <path class="st14" d="M425.3,379c-.8.9-1.6,1.6-2.5,2.4s-1.8,1.5-2.7,2.2c.8-.9,1.6-1.6,2.5-2.4s1.8-1.5,2.7-2.2Z"/>
      <path class="st14" d="M441.2,370.4c-1.4,1.3-2.9,2.6-4.4,3.8-1.4,1.3-3,2.5-4.6,3.6,1.4-1.3,2.9-2.6,4.4-3.8,1.4-1.3,3-2.5,4.6-3.6Z"/>
      <path class="st14" d="M437.2,375.9s-.3.5-.9,1.1-1,.9-1.1.9.3-.5.9-1.1,1-.9,1.1-.9Z"/>
      <rect class="st22" x="355.2" y="341.4" width="45.4" height="63.1"/>
      <rect class="st14" x="359.6" y="345.9" width="36.6" height="54.1"/>
      <rect class="st22" x="362.7" y="361" width="30.4" height="35.5"/>
      <rect class="st22" x="362.7" y="349.1" width="30.4" height="10"/>
      <path class="st14" d="M377.9,397.7s-.1-8-.1-18,0-18,.1-18,.1,8,.1,18,0,18-.1,18Z"/>
      <path class="st14" d="M374.8,381.6c-1.3,1.3-2.6,2.6-4.1,3.8-1.3,1.3-2.7,2.5-4.3,3.6,1.3-1.3,2.6-2.6,4.1-3.8,1.3-1.3,2.7-2.5,4.3-3.6Z"/>
      <path class="st14" d="M374.8,379c-.8.9-1.6,1.6-2.5,2.4s-1.8,1.5-2.7,2.2c.8-.9,1.6-1.6,2.5-2.4s1.8-1.5,2.7-2.2Z"/>
      <path class="st14" d="M390.7,370.4c-1.4,1.3-2.9,2.6-4.4,3.8-1.4,1.3-3,2.5-4.6,3.6,1.4-1.3,2.9-2.6,4.4-3.8,1.4-1.3,3-2.5,4.6-3.6Z"/>
      <path class="st14" d="M386.8,375.9s-.3.5-.9,1.1-1,.9-1.1.9.3-.5.9-1.1,1-.9,1.1-.9Z"/>
      <path class="st14" d="M348.9,416.8s-.1-28.5-.1-63.7,0-63.7.1-63.7.1,28.5.1,63.7,0,63.7-.1,63.7Z"/>
    </g>
    <g id="freepik--freepik--high-school-building--inject-76--inject-902">
      <rect class="st23" x="86.8" y="39.9" width="333.8" height="221.1"/>
      <g class="st20">
        <rect class="st14" x="122.2" y="124.9" width="262.8" height="134.2"/>
      </g>
      <rect class="st14" x="75.5" y="28.9" width="352" height="11.1"/>
      <rect class="st14" x="138.7" y="137.4" width="233.3" height="121.6"/>
      <rect class="st22" x="296.2" y="171.9" width="71.9" height="84.2"/>
      <path class="st14" d="M332.1,257.8c-.1,0-.3-19.5-.3-43.7s.1-43.7.3-43.7.3,19.5.3,43.7-.2,43.7-.3,43.7Z"/>
      <rect class="st22" x="142.8" y="171.9" width="71.9" height="84.2"/>
      <path class="st14" d="M178.6,257.8c-.1,0-.2-19.5-.2-43.7s.1-43.7.2-43.7.3,19.5.3,43.7-.1,43.7-.3,43.7Z"/>
      <rect class="st14" x="172.6" y="206" width="4.3" height="15.8"/>
      <rect class="st14" x="181.2" y="206" width="4.3" height="15.8"/>
      <rect class="st22" x="143.3" y="142.9" width="71.9" height="23.9"/>
      <rect class="st22" x="219.6" y="142.9" width="71.9" height="23.9"/>
      <rect class="st22" x="295.7" y="142.9" width="71.9" height="23.9"/>
      <g class="st13">
        <polygon class="st4" points="368.1 194.2 296.2 226.8 296.2 234.6 368.1 200.5 368.1 194.2"/>
      </g>
      <g class="st13">
        <polygon class="st4" points="367.6 206.5 295.7 239.1 295.7 243.8 367.6 210.9 367.6 206.5"/>
      </g>
      <rect class="st22" x="219.6" y="171.9" width="71.9" height="84.2"/>
      <g class="st13">
        <polygon class="st4" points="291.3 171.9 219.6 204.5 219.6 220 291.3 185 291.3 171.9"/>
      </g>
      <g class="st13">
        <polygon class="st4" points="291.3 190.2 219.6 222.8 219.6 227.6 291.3 194.6 291.3 190.2"/>
      </g>
      <path class="st14" d="M255.3,257.8c-.1,0-.3-19.5-.3-43.7s.1-43.7.3-43.7.3,19.5.3,43.7-.1,43.7-.3,43.7Z"/>
      <path class="st14" d="M268,209.1c-.1,0,3.1-4.5,7.1-10,4.1-5.4,7.5-9.7,7.6-9.7s-3.1,4.5-7.1,10-7.5,9.8-7.6,9.7Z"/>
      <path class="st14" d="M265.9,224.6c-.1,0,3.6-5.6,8.3-12.2,4.7-6.6,8.7-12,8.8-12s-3.6,5.6-8.3,12.2c-4.7,6.6-8.7,12-8.8,12Z"/>
      <path class="st14" d="M226.7,230.1s3.4-3.6,7.8-7.9c2.6-2.6,5.3-5.2,8.1-7.5,0,0-3.4,3.6-7.8,7.9-2.5,2.6-5.3,5.2-8.1,7.6h0Z"/>
      <path class="st14" d="M221.6,243.8c.2-.3.5-.5.8-.9l2.4-2.2,7.9-7.2,7.7-7.4,2.3-2.2c.2-.3.5-.5.9-.8-.2.3-.4.7-.8.9-.5.5-1.3,1.4-2.2,2.4-1.9,2-4.6,4.6-7.7,7.6-3.1,2.9-5.9,5.4-8,7.1-1.1.9-1.9,1.6-2.5,2.1-.3.2-.5.5-.9.8v-.2h.1Z"/>
      <rect class="st14" x="249.3" y="206" width="4.3" height="15.8"/>
      <rect class="st14" x="257.8" y="206" width="4.3" height="15.8"/>
      <path class="st14" d="M268.6,149.1c-1,.9-2,1.6-3.1,2.3l-7.6,5.6c-3,2.1-5.6,4.1-7.7,5.5-1,.7-1.9,1.2-2.4,1.5-.3.2-.5.3-.9.4,1-.9,2-1.6,3.1-2.3,2.1-1.5,4.6-3.4,7.6-5.6,2.9-2.2,5.6-4.1,7.7-5.5,1-.7,1.9-1.2,2.4-1.5.3-.2.5-.3.9-.4h0Z"/>
      <path class="st14" d="M255.7,153.4c-2.2,1.9-4.5,3.6-6.8,5.3-2.3,1.8-4.7,3.4-7.1,4.8,2.2-1.9,4.5-3.6,6.8-5.3,2.3-1.8,4.7-3.4,7.1-4.8Z"/>
      <path class="st14" d="M192.7,145.3c-1,.9-2,1.6-3.1,2.3l-7.6,5.6c-3,2.1-5.6,4.1-7.7,5.5-1,.7-1.9,1.2-2.4,1.5-.3.2-.5.3-.9.4,1-.9,2-1.6,3.1-2.3l7.6-5.6c3-2.2,5.6-4.1,7.7-5.5,1-.7,1.9-1.2,2.4-1.5.3-.2.5-.3.9-.4Z"/>
      <path class="st14" d="M179.7,149.5c-2.2,1.9-4.5,3.6-6.8,5.3-2.3,1.8-4.7,3.3-7.1,4.8,4.5-3.6,9.1-7,14-10h-.1Z"/>
      <path class="st14" d="M353.2,147.1c-1,.9-2,1.6-3.1,2.3l-7.6,5.6c-3,2.2-5.6,4.1-7.7,5.5-1,.7-1.9,1.2-2.4,1.5-.3.2-.5.3-.9.4,1-.9,2-1.6,3.1-2.3l7.6-5.6c3-2.1,5.6-4.1,7.7-5.5,1-.7,1.9-1.2,2.4-1.5.3-.2.7-.3.9-.4Z"/>
      <path class="st14" d="M340.2,151.4c-2.2,1.9-4.5,3.6-6.8,5.3-2.3,1.8-4.7,3.4-7.1,4.8,2.2-1.9,4.5-3.6,6.8-5.3,2.3-1.8,4.7-3.3,7.1-4.8Z"/>
      <g class="st13">
        <polygon class="st4" points="205.3 171.9 176.7 171.9 143.3 186.6 143.3 200.2 205.3 171.9 205.3 171.9"/>
      </g>
      <g class="st13">
        <polygon class="st4" points="215.2 172.4 143.3 205 143.3 209.7 215.2 176.8 215.2 172.4"/>
      </g>
      <g class="st16">
        <rect class="st14" x="102.3" y="159.6" width="20" height="8.2"/>
      </g>
      <g class="st13">
        <rect class="st14" x="92.6" y="150" width="20" height="8.2"/>
      </g>
      <g class="st16">
        <rect class="st14" x="120.5" y="105.1" width="20" height="8.2"/>
      </g>
      <g class="st13">
        <rect class="st14" x="131.1" y="93.6" width="20" height="8.2"/>
      </g>
      <g class="st16">
        <rect class="st14" x="224.9" y="56.4" width="20" height="8.2"/>
      </g>
      <g class="st13">
        <rect class="st14" x="401.1" y="120.9" width="19.4" height="8.2"/>
      </g>
      <g class="st16">
        <rect class="st14" x="411.1" y="108.6" width="9.4" height="8.2"/>
      </g>
      <g class="st13">
        <rect class="st14" x="336.1" y="100.9" width="20" height="8.2"/>
      </g>
      <g class="st16">
        <rect class="st14" x="346.7" y="88.7" width="20" height="8.2"/>
      </g>
      <path class="st14" d="M86.9,258.7c-.2,0-.3-48.9-.3-109.3s0-109.3.3-109.3.2,48.9.2,109.3,0,109.3-.2,109.3Z"/>
      <rect class="st14" x="326" y="206" width="4.3" height="15.8"/>
      <rect class="st14" x="334.5" y="206" width="4.3" height="15.8"/>
    </g>
    <g id="freepik--freepik--high-school-building--inject-76--inject-901" data-name="freepik--freepik--high-school-building--inject-76--inject-90">
      <rect class="st23" x="45.2" y="202.7" width="411.5" height="115.5"/>
      <rect class="st23" x="154.2" y="190.4" width="194.7" height="129"/>
      <rect class="st22" x="45.2" y="284" width="139.2" height="11.5"/>
      <rect class="st22" x="318.6" y="284" width="138.1" height="11.5"/>
      <g class="st20">
        <rect class="st14" x="174.9" y="240" width="153.4" height="78.2"/>
      </g>
      <g class="st20">
        <path class="st14" d="M229,226.3c-.5-.1-1.1-.3-1.5-.7l.8-1.8c.9.5,1.8.9,2.7.9s1.4-.2,1.4-.7-.1-.4-.4-.5c-.4-.1-.9-.3-1.2-.3-.5-.1-1.1-.2-1.5-.4-.4-.1-.8-.4-1.1-.8-.3-.4-.4-.9-.4-1.4s.1-1,.4-1.4c.3-.4.8-.8,1.2-1,.7-.2,1.3-.4,2.1-.3.5,0,1.1,0,1.6.2.5.1,1,.3,1.4.5l-.8,1.8c-.7-.4-1.5-.7-2.3-.7s-.8,0-1,.2c-.2,0-.3.3-.3.5s.1.4.4.5c.4.1.9.2,1.2.3.5.1,1.1.2,1.6.4.4.1.8.4,1.1.8.3.4.4.9.4,1.4s-.1,1-.4,1.3c-.3.4-.8.8-1.2,1-.7.2-1.3.3-2.1.3s-1.3-.1-2-.3h-.2Z"/>
        <path class="st14" d="M237.7,225.9c-.7-.3-1.2-.9-1.6-1.5-.8-1.4-.8-3.1,0-4.5.4-.7,1-1.2,1.6-1.5,1.4-.7,3.1-.8,4.5-.1.5.2,1.1.7,1.5,1.2l-1.5,1.3c-.4-.7-1.2-1-2-1s-.9,0-1.2.3c-.3.2-.7.5-.9.9-.3.8-.3,1.8,0,2.5.2.3.4.7.9.9,1.1.5,2.4.3,3.2-.7l1.5,1.3c-.4.5-1,.9-1.5,1.2-1.4.5-3.1.5-4.5-.1h0v-.2h0Z"/>
        <path class="st14" d="M252.7,217.9v8.4h-2.4v-3.3h-3.3v3.3h-2.4v-8.4h2.4v3.2h3.3v-3.2h2.4Z"/>
        <path class="st14" d="M256.2,225.9c-2.1-1.1-3-3.7-1.9-5.8.4-.8,1.1-1.4,1.9-1.9,1.5-.8,3.3-.8,4.8,0,2.1,1.1,3,3.7,1.9,5.8h0c-.4.8-1,1.4-1.9,1.9-1.5.8-3.3.8-4.8,0h0ZM259.8,224.3c.3-.2.7-.4.9-.9.4-.8.4-1.8,0-2.5-.2-.3-.4-.7-.8-.9-.8-.4-1.6-.4-2.3,0s-.7.5-.9.9c-.4.8-.4,1.8,0,2.5.2.3.4.7.9.9.7.4,1.5.4,2.3,0h-.1Z"/>
        <path class="st14" d="M266.4,225.9c-2.1-1.1-3-3.7-1.8-5.8.4-.8,1-1.4,1.8-1.8,1.5-.8,3.3-.8,4.8,0,2.1,1.1,3,3.7,1.8,5.8-.4.8-1,1.4-1.8,1.8-1.5.8-3.3.8-4.8,0ZM270,224.3c.3-.2.7-.4.9-.9.4-.8.4-1.8,0-2.5-.2-.3-.4-.7-.9-.9-.8-.4-1.5-.4-2.3,0-.3.2-.7.5-.8.9-.4.8-.4,1.8,0,2.5.2.3.4.7.8.9.8.4,1.5.4,2.3,0Z"/>
        <path class="st14" d="M274.7,217.9h2.4v6.6h4.1v1.9h-6.4v-8.4h-.1Z"/>
      </g>
      <path class="st14" d="M228.3,225.6c-.5-.1-1.1-.3-1.5-.7l.8-1.8c.9.5,1.8.8,2.7.9.9,0,1.3-.2,1.3-.7s-.1-.4-.4-.5c-.4-.1-.8-.3-1.2-.3s-1.1-.2-1.5-.4c-.4-.1-.8-.4-1.1-.8-.3-.4-.4-.9-.4-1.4s.1-1,.4-1.4c.3-.4.8-.8,1.2-1,.7-.2,1.3-.3,2.1-.3s1.1,0,1.6.2c.5,0,1,.3,1.4.5l-.8,1.8c-.7-.4-1.5-.7-2.3-.7s-.8,0-1,.2c-.2.1-.3.3-.3.5s.1.4.3.5c.4.1.9.2,1.2.3.5.1,1.1.2,1.5.4.4.1.8.4,1.1.8.3.4.5.9.4,1.4,0,.4-.1,1-.4,1.4-.3.4-.8.8-1.2,1-.7.2-1.3.3-2.1.3s-1.3-.1-2-.3h.1Z"/>
      <path class="st14" d="M237,225.3c-.7-.3-1.2-.9-1.6-1.5-.8-1.4-.8-3.1,0-4.5.4-.7,1-1.2,1.6-1.5,1.4-.7,3-.8,4.5-.1.7.2,1.1.7,1.5,1.2l-1.5,1.4c-.8-1-2.1-1.2-3.2-.7-.3.2-.7.4-.9.9-.4.8-.4,1.8,0,2.5.2.3.4.7.9.9,1.1.7,2.4.3,3.2-.7l1.5,1.4c-.4.5-1,.9-1.5,1.2-.7.3-1.3.4-2.1.4s-1.6-.2-2.4-.7v-.3h0Z"/>
      <path class="st14" d="M252,217.3v8.4h-2.4v-3.3h-3.3v3.3h-2.4v-8.4h2.4v3.2h3.3v-3.2h2.4Z"/>
      <path class="st14" d="M255.7,225.3c-2.1-1.1-3-3.7-1.9-5.8h0c.4-.8,1.1-1.4,1.9-1.9,1.5-.8,3.3-.8,4.8,0,2.1,1.1,3,3.7,1.9,5.8-.4.8-1.1,1.4-1.9,1.9-1.5.8-3.3.8-4.8,0h0ZM259.2,223.6c.3-.2.7-.4.9-.9.4-.8.4-1.8,0-2.5-.2-.3-.4-.7-.8-.9-.3-.2-.8-.3-1.2-.3s-.8,0-1.2.3c-.3.2-.7.5-.8.9-.2.3-.3.8-.3,1.2s0,.9.3,1.2c.2.3.4.7.8.9.8.4,1.6.4,2.3,0h0Z"/>
      <path class="st14" d="M265.7,225.3c-2.1-1.1-3-3.7-1.8-5.8.4-.8,1-1.4,1.8-1.8,1.5-.8,3.3-.8,4.8,0,2.1,1.1,3,3.7,1.8,5.8-.4.8-1,1.4-1.8,1.8-1.5.8-3.3.8-4.8,0ZM269.4,223.6c.3-.2.7-.4.8-.9.4-.8.4-1.8,0-2.5-.2-.3-.4-.7-.8-.9-.8-.4-1.6-.4-2.3,0-.3.2-.7.4-.8.9-.4.8-.4,1.8,0,2.5.2.3.4.7.8.9.8.4,1.6.4,2.3,0Z"/>
      <path class="st14" d="M274.1,217.3h2.4v6.6h4.1v1.9h-6.4v-8.4h-.1Z"/>
      <rect class="st14" x="147.6" y="183.9" width="205.4" height="6.5"/>
      <rect class="st14" x="184.4" y="247.3" width="136" height="70.9"/>
      <rect class="st22" x="276.4" y="267.4" width="41.9" height="49"/>
      <path class="st14" d="M297.3,317.5s-.1-11.4-.1-25.5,0-25.5.1-25.5.1,11.4.1,25.5,0,25.5-.1,25.5Z"/>
      <rect class="st22" x="186.9" y="267.4" width="41.9" height="49"/>
      <path class="st14" d="M207.8,317.5s-.1-11.4-.1-25.5,0-25.5.1-25.5.1,11.4.1,25.5,0,25.5-.1,25.5Z"/>
      <rect class="st14" x="204.2" y="287.4" width="2.5" height="9.2"/>
      <rect class="st14" x="209.2" y="287.4" width="2.5" height="9.2"/>
      <rect class="st22" x="187.2" y="250.5" width="41.9" height="13.9"/>
      <rect class="st22" x="231.6" y="250.5" width="41.9" height="13.9"/>
      <rect class="st22" x="276.1" y="250.5" width="41.9" height="13.9"/>
      <g class="st13">
        <polygon class="st4" points="318.3 280.3 276.4 299.4 276.4 303.9 318.3 284.1 318.3 280.3"/>
      </g>
      <g class="st13">
        <polygon class="st4" points="318 287.6 276.1 306.6 276.1 309.4 318 290.1 318 287.6"/>
      </g>
      <rect class="st22" x="231.6" y="267.4" width="41.9" height="49"/>
      <g class="st13">
        <polygon class="st4" points="273.5 267.4 231.6 286.4 231.6 295.5 273.5 275.1 273.5 267.4"/>
      </g>
      <g class="st13">
        <polygon class="st4" points="273.5 278 231.6 297.1 231.6 299.9 273.5 280.7 273.5 278"/>
      </g>
      <path class="st14" d="M252.6,317.5s-.1-11.4-.1-25.5,0-25.5.1-25.5.1,11.4.1,25.5,0,25.5-.1,25.5Z"/>
      <path class="st14" d="M259.9,289.1s1.8-2.6,4.2-5.8,4.4-5.7,4.4-5.6-1.8,2.6-4.2,5.8-4.4,5.7-4.4,5.6Z"/>
      <path class="st14" d="M258.6,298.1s2.1-3.3,4.8-7.1,5-7,5.2-6.9-2.1,3.3-4.8,7.1-5,7-5.2,6.9Z"/>
      <path class="st14" d="M235.8,301.3s2-2.1,4.5-4.6,3.1-3,4.7-4.4c0,0-2,2.1-4.5,4.6s-3.1,3-4.7,4.4Z"/>
      <path class="st14" d="M232.9,309.4c.1-.2.3-.3.4-.5l1.4-1.3,4.6-4.3,4.5-4.3,1.3-1.3c.1-.2.3-.3.5-.4-.1.2-.3.3-.4.5-.3.3-.8.8-1.3,1.4-1.1,1.2-2.6,2.7-4.5,4.4s-3.4,3.1-4.6,4.2c-.7.5-1.1,1-1.4,1.2-.2.1-.3.3-.5.4h0Z"/>
      <rect class="st14" x="249" y="287.4" width="2.5" height="9.2"/>
      <rect class="st14" x="254" y="287.4" width="2.5" height="9.2"/>
      <path class="st14" d="M260.3,254.1c-.5.4-1.2,1-1.8,1.4l-4.4,3.3c-1.8,1.2-3.3,2.4-4.5,3.2-.5.4-1.1.7-1.4.9-.2.1-.3.2-.5.3.5-.4,1.2-1,1.8-1.4,1.2-.9,2.7-2,4.4-3.3s3.3-2.4,4.5-3.2c.5-.4,1.1-.7,1.4-.9.1-.1.3-.2.5-.3h0Z"/>
      <path class="st14" d="M252.7,256.6c-1.3,1.1-2.6,2.1-3.9,3.1-1.3,1-2.7,2-4.2,2.7,1.3-1.1,2.6-2.1,3.9-3.1,1.3-1,2.7-2,4.2-2.7Z"/>
      <path class="st14" d="M215.9,251.9c-.5.5-1.2,1-1.8,1.3l-4.4,3.3c-1.8,1.2-3.3,2.4-4.5,3.2-.5.4-1.1.7-1.4.9-.2.1-.3.2-.5.3.5-.4,1.2-1,1.8-1.3l4.4-3.3c1.8-1.2,3.3-2.4,4.5-3.2.5-.4,1.1-.7,1.4-.9.2-.1.3-.2.5-.3Z"/>
      <path class="st14" d="M208.4,254.3c-1.3,1.1-2.6,2.1-3.9,3.1-1.3,1-2.7,2-4.2,2.7,2.6-2.1,5.4-4.1,8.2-5.8h-.1Z"/>
      <path class="st14" d="M309.6,253c-.5.5-1.2,1-1.9,1.4l-4.4,3.3c-1.8,1.2-3.3,2.4-4.5,3.2-.5.4-1.1.7-1.4.9-.1.1-.3.2-.5.3.5-.4,1.2-1,1.8-1.3l4.4-3.3c1.8-1.2,3.3-2.4,4.5-3.2.5-.4,1.1-.7,1.4-.9.2-.1.3-.2.5-.3h.1Z"/>
      <path class="st14" d="M302.1,255.4c-1.3,1.1-2.6,2.1-3.9,3.1-1.3,1-2.7,2-4.2,2.7,1.2-1.1,2.6-2.1,3.9-3.1,1.3-1,2.7-2,4.2-2.7Z"/>
      <g class="st13">
        <polygon class="st4" points="223.3 267.4 206.6 267.4 187.2 276 187.2 284 223.3 267.4 223.3 267.4"/>
      </g>
      <g class="st13">
        <polygon class="st4" points="229.1 267.6 187.2 286.7 187.2 289.5 229.1 270.3 229.1 267.6"/>
      </g>
      <g class="st16">
        <rect class="st14" x="163.2" y="260.3" width="11.6" height="4.8"/>
      </g>
      <g class="st13">
        <rect class="st14" x="157.6" y="254.7" width="11.6" height="4.8"/>
      </g>
      <g class="st16">
        <rect class="st14" x="173.9" y="228.5" width="11.6" height="4.8"/>
      </g>
      <g class="st13">
        <rect class="st14" x="180.1" y="221.6" width="11.6" height="4.8"/>
      </g>
      <g class="st16">
        <rect class="st14" x="136.4" y="217.9" width="11.6" height="4.8"/>
      </g>
      <g class="st13">
        <rect class="st14" x="142.5" y="211.1" width="11.6" height="4.8"/>
      </g>
      <g class="st16">
        <rect class="st14" x="78.8" y="234.8" width="11.6" height="4.8"/>
      </g>
      <g class="st16">
        <rect class="st14" x="64.1" y="216.5" width="11.6" height="4.8"/>
      </g>
      <g class="st13">
        <rect class="st14" x="84.9" y="228" width="11.6" height="4.8"/>
      </g>
      <g class="st13">
        <rect class="st14" x="88.1" y="306.1" width="11.6" height="4.8"/>
      </g>
      <g class="st13">
        <rect class="st14" x="130.2" y="224.6" width="11.6" height="4.8"/>
      </g>
      <g class="st16">
        <rect class="st14" x="430.8" y="215.5" width="11.6" height="4.8"/>
      </g>
      <g class="st13">
        <rect class="st14" x="437" y="208.7" width="11.6" height="4.8"/>
      </g>
      <g class="st16">
        <rect class="st14" x="373.3" y="232.4" width="11.6" height="4.8"/>
      </g>
      <g class="st16">
        <rect class="st14" x="358.5" y="214.1" width="11.6" height="4.8"/>
      </g>
      <g class="st13">
        <rect class="st14" x="379.4" y="225.7" width="11.6" height="4.8"/>
      </g>
      <g class="st13">
        <rect class="st14" x="422.5" y="234.2" width="11.6" height="4.8"/>
      </g>
      <g class="st13">
        <rect class="st14" x="229" y="207.2" width="11.6" height="4.8"/>
      </g>
      <g class="st16">
        <rect class="st14" x="234.8" y="200" width="11.6" height="4.8"/>
      </g>
      <g class="st13">
        <rect class="st14" x="337.6" y="237.7" width="11.3" height="4.8"/>
      </g>
      <g class="st16">
        <rect class="st14" x="343.4" y="230.4" width="5.5" height="4.8"/>
      </g>
      <g class="st13">
        <rect class="st14" x="299.6" y="226" width="11.6" height="4.8"/>
      </g>
      <g class="st16">
        <rect class="st14" x="305.8" y="218.8" width="11.6" height="4.8"/>
      </g>
      <path class="st14" d="M154.2,318.1s-.1-28.5-.1-63.7,0-63.7.1-63.7.1,28.5.1,63.7,0,63.7-.1,63.7Z"/>
      <rect class="st14" x="293.7" y="287.4" width="2.5" height="9.2"/>
      <rect class="st14" x="298.8" y="287.4" width="2.5" height="9.2"/>
      <rect class="st22" x="103.4" y="242.7" width="45.4" height="63.1"/>
      <rect class="st14" x="107.8" y="247.3" width="36.6" height="54.1"/>
      <rect class="st22" x="110.9" y="262.5" width="30.4" height="35.5"/>
      <rect class="st22" x="110.9" y="250.5" width="30.4" height="10"/>
      <path class="st14" d="M126.1,299s-.1-8-.1-18,0-18,.1-18,.1,8,.1,18,0,18-.1,18Z"/>
      <path class="st14" d="M123,282.9c-1.3,1.3-2.6,2.6-4.1,3.8-1.3,1.3-2.7,2.4-4.3,3.5,1.3-1.3,2.6-2.6,4.1-3.8,1.3-1.3,2.7-2.4,4.3-3.6h0Z"/>
      <path class="st14" d="M123,280.3c-.8.9-1.6,1.6-2.5,2.4s-1.8,1.5-2.7,2.2c.8-.9,1.6-1.6,2.5-2.4s1.8-1.5,2.7-2.2Z"/>
      <path class="st14" d="M138.9,271.8c-1.4,1.3-2.9,2.6-4.4,3.8-1.4,1.3-3,2.5-4.6,3.6,1.4-1.3,2.9-2.6,4.4-3.8,1.4-1.3,3-2.5,4.6-3.6Z"/>
      <path class="st14" d="M135,277.3s-.3.5-.9,1.1-1,.9-1.1.9.3-.5.9-1.1,1.1-.9,1.1-.9Z"/>
      <rect class="st22" x="52.9" y="242.7" width="45.4" height="63.1"/>
      <rect class="st14" x="57.3" y="247.3" width="36.6" height="54.1"/>
      <rect class="st22" x="60.5" y="262.5" width="30.4" height="35.5"/>
      <rect class="st22" x="60.5" y="250.5" width="30.4" height="10"/>
      <path class="st14" d="M75.6,299v-36,36Z"/>
      <path class="st14" d="M72.5,282.9c-1.3,1.3-2.6,2.6-4.1,3.8-1.3,1.3-2.7,2.4-4.3,3.5,1.3-1.3,2.6-2.6,4.1-3.8,1.3-1.3,2.9-2.5,4.3-3.6h0Z"/>
      <path class="st14" d="M72.5,280.3c-.8.9-1.6,1.6-2.5,2.4s-1.8,1.5-2.7,2.2c.8-.9,1.6-1.6,2.5-2.4s1.8-1.5,2.7-2.2Z"/>
      <path class="st14" d="M88.4,271.8c-1.4,1.3-2.9,2.6-4.4,3.8-1.4,1.3-3,2.4-4.6,3.5,1.4-1.3,2.9-2.6,4.4-3.8,1.4-1.3,3-2.4,4.6-3.5Z"/>
      <path class="st14" d="M84.5,277.3s-.3.5-.9,1.1-1,.9-1.1.9.3-.5.9-1.1,1-.9,1.1-.9Z"/>
      <rect class="st22" x="405.6" y="242.7" width="45.4" height="63.1"/>
      <rect class="st14" x="410" y="247.3" width="36.6" height="54.1"/>
      <rect class="st22" x="413.2" y="262.5" width="30.4" height="35.5"/>
      <rect class="st22" x="413.2" y="250.5" width="30.4" height="10"/>
      <path class="st14" d="M428.3,299s-.1-8-.1-18,0-18,.1-18,.1,8,.1,18,0,18-.1,18Z"/>
      <path class="st14" d="M425.3,282.9c-1.3,1.3-2.6,2.6-4.1,3.8-1.3,1.3-2.7,2.5-4.3,3.6,1.3-1.3,2.6-2.6,4.1-3.8,1.3-1.3,2.7-2.5,4.3-3.6Z"/>
      <path class="st14" d="M425.3,280.3c-.8.9-1.6,1.6-2.5,2.4s-1.8,1.5-2.7,2.2c.8-.9,1.6-1.6,2.5-2.4s1.8-1.5,2.7-2.2Z"/>
      <path class="st14" d="M441.2,271.8c-1.4,1.3-2.9,2.6-4.4,3.8-1.4,1.3-3,2.5-4.6,3.6,1.4-1.3,2.9-2.6,4.4-3.8,1.4-1.3,3-2.5,4.6-3.6Z"/>
      <path class="st14" d="M437.2,277.3s-.3.5-.9,1.1-1,.9-1.1.9.3-.5.9-1.1,1-.9,1.1-.9Z"/>
      <rect class="st22" x="355.2" y="242.7" width="45.4" height="63.1"/>
      <rect class="st14" x="359.6" y="247.3" width="36.6" height="54.1"/>
      <rect class="st22" x="362.7" y="262.5" width="30.4" height="35.5"/>
      <rect class="st22" x="362.7" y="250.5" width="30.4" height="10"/>
      <path class="st14" d="M377.9,299s-.1-8-.1-18,0-18,.1-18,.1,8,.1,18,0,18-.1,18Z"/>
      <path class="st14" d="M374.8,282.9c-1.3,1.3-2.6,2.6-4.1,3.8-1.3,1.3-2.7,2.5-4.3,3.6,1.3-1.3,2.6-2.6,4.1-3.8,1.3-1.3,2.7-2.5,4.3-3.6Z"/>
      <path class="st14" d="M374.8,280.3c-.8.9-1.6,1.6-2.5,2.4s-1.8,1.5-2.7,2.2c.8-.9,1.6-1.6,2.5-2.4s1.8-1.5,2.7-2.2Z"/>
      <path class="st14" d="M390.7,271.8c-1.4,1.3-2.9,2.6-4.4,3.8-1.4,1.3-3,2.5-4.6,3.6,1.4-1.3,2.9-2.6,4.4-3.8,1.4-1.3,3-2.5,4.6-3.6Z"/>
      <path class="st14" d="M386.8,277.3s-.3.5-.9,1.1-1,.9-1.1.9.3-.5.9-1.1,1-.9,1.1-.9Z"/>
      <rect class="st14" x="41" y="200.4" width="113.2" height="4.8"/>
      <rect class="st14" x="348.9" y="200.4" width="110" height="4.8"/>
      <path class="st14" d="M348.9,318.2s-.1-28.5-.1-63.7,0-63.7.1-63.7.1,28.5.1,63.7,0,63.7-.1,63.7Z"/>
    </g>
  </g>
  <path class="st4" d="M401.3,145.1v-39.7h0c0-.5,0-1.1-.1-1.6h0c0-.4,0-.6-.2-.9h0v-.2c0-.2-.1-.4-.2-.7-.2-.8-.6-1.5-.9-2.2-.8-1.3-1.8-2.3-2.9-3.3-.8-.5-1.5-1-2.3-1.3-.9-.3-1.8-.6-2.8-.8H108.7c-.9.2-1.8.4-2.8.8-1.8.7-3.3,1.9-4.5,3.4-1.2,1.6-2,3.3-2.3,5.3-.2.9-.2,1.9-.2,2.8v187.5c0,1.1.2,2.2.5,3.3s.8,2.1,1.4,3c.7.9,1.4,1.7,2.3,2.4.8.7,1.8,1.3,2.8,1.7s2.1.7,3.2.8h282.5c.8,0,1.7-.3,2.4-.6,3.1-1.1,5.6-3.5,6.8-6.6.6-1.5.8-3.1.8-4.7v-148.3h-.3Z"/>
  <g id="freepik--Shadow--inject-35">
    <ellipse id="freepik--path--inject-35" class="st23" cx="250" cy="421.5" rx="213.3" ry="29.3"/>
  </g>
  <g>
    <g id="freepik--Device--inject-231">
      <path class="st14" d="M114.9,98.1h270.3c5.9,0,10.7,4.8,10.7,10.7v181.9c0,5.9-4.8,10.7-10.7,10.7H114.9c-5.9,0-10.7-4.8-10.7-10.7V108.7c0-5.9,4.8-10.7,10.7-10.7h0Z"/>
      <path class="st3" d="M395.9,108.7v-.6c0-.6-.2-1.2-.3-1.9-.6-2.4-2-4.5-4-6-.6-.5-1.5-1-2.2-1.3-.9-.3-1.8-.6-2.7-.7-1,0-2.1-.2-3.1,0H113.6c-.9,0-1.7.3-2.6.6-1.6.6-3.1,1.8-4.2,3.1-1.1,1.4-1.9,3.1-2.1,4.8,0,.9-.2,1.8-.2,2.7v180.8c0,1,.2,2,.4,3.1,1.2,4,4.8,6.9,8.9,7.3h272.6c.7,0,1.5-.2,2.3-.5,2.9-1,5.2-3.2,6.3-6.1.5-1.4.7-2.9.7-4.4V110.8c0-1.5,0-2.3.2-2.4v181.3c0,1.5-.2,3.1-.7,4.5-1.1,3-3.6,5.3-6.5,6.4-.7.2-1.5.5-2.3.6s-1.6,0-2.3,0H113.9c-1-.2-2.1-.4-3.1-.8s-1.9-1-2.7-1.6c-.8-.7-1.5-1.5-2.2-2.3-.6-.9-1-1.9-1.4-2.9-.3-1-.5-2.1-.5-3.1V109.9c0-.9,0-1.9.2-2.7.2-1.9,1-3.6,2.2-5.1,1.1-1.5,2.7-2.7,4.4-3.3.9-.3,1.8-.6,2.7-.7.9,0,1.8-.2,2.7,0h270.5c1,.2,1.9.4,2.7.7.8.3,1.5.8,2.3,1.3,1.1.9,2.1,1.9,2.8,3.1.5.9.9,1.9,1.1,2.9.2.6.2,1.2.2,1.9v.7h.1,0Z"/>
      <rect class="st4" x="125.1" y="105.3" width="243.5" height="190.4"/>
      <circle class="st3" cx="381.2" cy="198.9" r="7.8"/>
      <path class="st3" d="M112.7,229.2v-58.9c0-.6.5-1.1,1.1-1.1h1c.6,0,1.1.5,1.1,1.1v58.9c0,.6-.5,1.1-1.1,1.1h-1c-.6,0-1.1-.6-1.1-1.1h0Z"/>
    </g>
    <g>
      <rect class="st4" x="125.5" y="105.7" width="80.4" height="94.3"/>
      <path class="st19" d="M205.4,106.1v93.5h-79.6v-93.5h79.6M206.3,105.3h-81.2v95.1h81.2v-95.1h0Z"/>
    </g>
    <g>
      <rect class="st4" x="206.7" y="105.7" width="80.4" height="94.3"/>
      <path class="st19" d="M286.6,106.1v93.5h-79.6v-93.5h79.6M287.4,105.3h-81.2v95.1h81.2v-95.1h0Z"/>
    </g>
    <g>
      <rect class="st4" x="287.8" y="105.7" width="80.4" height="94.3"/>
      <path class="st19" d="M367.8,106.1v93.5h-79.6v-93.5h79.6M368.6,105.3h-81.2v95.1h81.2v-95.1h0Z"/>
    </g>
    <g class="st20">
      <path class="st0" d="M311.4,137.4c-.1-.1-1.5.3-1.8-.4s-.3-2.9.5-3h37.1c.6,1.5.8,4-1.5,3.4v23.3c1,.3,1.7-.3,1.8,1s.2,2.3-.5,2.5h-9.1c-.3.4-2.3,6.1-2.8,7.1s-1.2.7-1.4-.2l3.4-8.6c-.5-2.3-2.1-1.5-2.9.1-1.3,2.6-2.2,6-3.6,8.4s-.8.9-1.4.2c-.5-2.1-.6-4.5-1-6.6-.8-3.3-7.4-2.4-7.7-6-.4.5-.9.9-1.5,1.2s-1.6.9-2.3,1.1c-1.8.8-5.3,1.3-6,3.5s-.5,4.8-1.3,6.8c-.5.4-1.2.1-1.2-.6.3-2.4,1-4.8,1.3-7.2s-.1-2.6.3-2.7,1.1,0,1.5,0v-23.4h.1ZM344.4,137.4h-31.6v23.1s.2.2.3.2c.4,0,3.5-1.2,3.6-1.4.9-1.2-.6-2.1-1.2-3-2.7-4.4-2-12.2,4.8-11.6s5.6,8.2,3.1,11.7-2.3,1.8-1,3,3.4,1.3,3.8,1.4c1.2.1,6.1.2,7.1,0s1-.8,1.6-1c1.1-.3,1.8-.2,2.7.5s.4.6.4.6h6.2v-23.4h.2ZM318.7,146c-5.2.9-3.5,10.7.3,11.1s4.9-4.7,4.6-7.5-2.5-4-4.9-3.6ZM332,164.1h-2.4c0,.5.5,4.1.7,4.1l1.7-4.1h0Z"/>
      <path class="st0" d="M321.6,171.3h-4.4l1.3-6.7c0-.5-1.3-1.2-1.3-1.6s1.7-2,2-2.1,2.2,1.7,2.2,2c0,.7-1.2,1-1.2,1.8l1.3,6.6h.1Z"/>
      <path class="st0" d="M337.6,146.9c1,1,1.5-1.5,3-.1s-.6,1.6-.2,2.8,2.4-.2,2.1,2-1.7.6-2,1.2.8,1.2.7,2-.7,1-.9,1.1c-1.1.7-1.5-.8-2.2-.6s-.1,2-1.3,2.2c-2.4.5-1.2-1.7-2.2-2.2s-.9.4-1.3.6c-.9.4-2-.7-1.8-1.6s1.5-1.5.3-1.9-1.9.1-1.8-1.4,1.7-.5,2.1-1.6-1.2-1.1-.5-2.4,1.9.3,2.9,0,0-1.8,1.2-2c2.5-.4,1.2,1.2,1.9,1.9h0ZM335.5,149.2c-1.6.4-2,3.2,0,3.8,3.3,1.1,3.7-4.7,0-3.8Z"/>
      <path class="st0" d="M329.7,139.5c.2.3-.3,1,0,1.4s1.4-.5,1.7.6-.8.8-.8,1.5,1.3.4.8,1.4-1.2,0-1.5.4.6,1.2-.5,1.6-.8-1-1.6-.8-.2,1.4-1.5.8,0-1.1-.3-1.5-1.2.5-1.6-.4c-.6-1.3.8-.8.7-1.7s-1.4-.4-.9-1.5,1.2,0,1.5-.3c.5-.4-.5-1.4.6-1.8s.7.7,1.2.8.6-.7,1-.8.9,0,1,.2h.2,0ZM327.4,141.8c-1,.3-1,2.1.2,2.4,2.3.5,2.1-3-.2-2.4Z"/>
    </g>
    <g>
      <rect class="st4" x="125.5" y="200.9" width="80.4" height="94.3"/>
      <path class="st19" d="M205.4,201.3v93.5h-79.6v-93.5h79.6M206.3,200.5h-81.2v95.1h81.2v-95.1h0Z"/>
    </g>
    <g>
      <rect class="st4" x="206.7" y="200.9" width="80.4" height="94.3"/>
      <path class="st19" d="M286.6,201.3v93.5h-79.6v-93.5h79.6M287.4,200.5h-81.2v95.1h81.2v-95.1h0Z"/>
    </g>
    <g>
      <rect class="st4" x="287.8" y="200.9" width="80.4" height="94.3"/>
      <path class="st19" d="M367.8,201.3v93.5h-79.6v-93.5h79.6M368.6,200.5h-81.2v95.1h81.2v-95.1h0Z"/>
    </g>
    <g class="st20">
      <path class="st0" d="M345.3,234.4c.3,0,.3.5.4.8.5,4.2,0,10.3.2,14.8s-.9,2.9.8,3,1.9-2.3,3.6-.9,1.7,2.4,1.7,2.9c0,1.5-2.9,1.6-1.8,3.6s2.3.3,3,.8.4,3.7-.2,4.3c-1.2,1.4-3.2-1-3.9,1.4s1.4,1.7.9,3.2-2.4,2.2-3,2.3c-1.4,0-1.7-1.6-2.4-1.9s-1.5.3-1.6.4c-.2.3.2,2.6-1.2,3.1s-3.4-.1-3.9-.7c-1.1-1.2.8-3.3-1.3-3.5s-1.3.8-1.9,1c-2.2.7-2.3-1.8-3.3-2h-28c-.9,0-1.4-.6-.9-1.4s2.2,0,2.2-.6v-12.4c2-.2,5-.5,7-.2s1,.3,1,.6v12.4h3v-18.3l.3-.3h7.1s.6.5.6.6v18.1h3v-24.5s.3-.3.2-.6h7.4l.3.3v9.9c1.1-.5,1.8-1.1,3-.2v-15.4s.5-.6.6-.6c1.4,0,6.2-.3,7.1,0h0ZM344,236h-4.6v15.7c1.1.3.7-1.5,1-2.3.4-1.6,2.4-1.1,3.6-.8v-12.5h0ZM333.1,242h-4.8v23.1c0,.4,2.4.4,2.8.3s2-1.9,2.1-2c.6-1.7-2-1.5-2.8-2s-.7-2.9-.4-4c.7-2.5,3.9.4,4.5-1.9s-1.3-1.9-1.3-2.4v-11h-.1ZM322.1,248.3h-4.8v17.1h4.4l.3-.3v-16.7h.1ZM344,250.2s-1.7-.1-2-.2c.5,2.4-1.6,4.3-3.9,3.6s-1.1-2.1-2.1-1.6c-2.1,1,.5,1.9.4,3.3s-1,2.1-1.3,2.4c-1,1.1-3.3,0-3.5.2-.7,3.4.8,1.7,2.4,2.7s1.2,2.7.9,3.4-1.8,1.3-1.6,2,1,1.3,1.1,1.3c.5,0,1.2-1.7,2.9-1.2s2.6,2.2,2.3,4.2c.5-.3,1.8.3,1.8.2.4-.5-.3-2.4,1.3-3.1s3.3-.7,4.2,1.3c3.1-.9.3-1.9.4-3.5s1.5-2.7,2.2-2.9,1.6,0,2.4.2v-1.8c-.1-.4-2-.1-2.7-.8s-1-2.7-.7-3.4c.7-1.4,2.9-1.2.7-3.1-1.7,1.4-2.9,1.7-4.6,0s0-3.1-.5-3.5v.3h0ZM306.4,265.4h4.4l.3-.3v-10.7l-.3-.3h-4.4v11.4h0Z"/>
      <path class="st0" d="M344.2,224.9c2.3,2.3.4,6.2-3,5.9s-1.2-.7-2-.7c-.9.8-4.4,2.1-5,2.8s0,.8,0,1.3c-.4,2.2-2.2,3.3-4.3,2.9s-1.3-.9-1.8-.8-4,2-4.3,2.3c-1,.8-.4,1.5-.8,2.6s-2,2.1-3.3,2.1-2.2-1.1-2.5-1-4.4,2.3-4.4,2.6.2.8.2,1.3c-.3,3-4.6,4.4-6.3,1.6s2.1-7,5.3-4.4c.5-.6,4.5-2.2,4.7-2.5s-.2-.7-.2-1c0-1.9,1.8-3.6,3.7-3.5s2.2,1.1,2.7,1c1.4-.3,3.2-2.1,4.7-2.5-.5-3.1,2-5.4,5-4.1s.7.7,1,.7c1,0,3.9-2.5,5.2-2.7-1.4-3.5,3-6.4,5.6-3.8h-.2ZM343,228.7c1.6-1.7-.9-4.1-2.6-2.6s.9,4.4,2.6,2.6ZM332.1,235.1c1.4-1.8-1.2-4.3-2.8-2.4s1.3,4.2,2.8,2.4ZM319.1,238.1c-1.4.3-1.5,2.8-.2,3.3,3.2,1.1,3.5-4,.2-3.3ZM308.9,244c-2,.4-1.6,3.8.6,3.6s1.9-4.1-.6-3.6Z"/>
      <path class="st0" d="M340.3,255.2c8.7-1.5,8.3,11.5.2,10.1-5.3-.9-5.3-9.3-.2-10.1h0ZM339.1,257.7c-3.5,3.8,2.8,8.8,5.6,4.3s-2.9-7.2-5.6-4.3Z"/>
    </g>
    <path class="st0" d="M161.5,135.2c12.7-1.1,20.5,13.6,12.3,23.4l8.7,9.1c1,1.8-1.2,3.7-2.8,2.4l-8.7-9c-8.7,6.2-21,.6-22.3-9.9-1-7.9,4.9-15.3,12.8-16.1h0ZM161.8,138.9c-7.3.7-11.6,8.6-8.4,15.2s14,7.9,18.4.9-1.3-17-10-16.1h0Z"/>
    <g>
      <path class="st0" d="M240.9,134.9c5.9-.6,11.5,2.2,14.2,7.5,5.1,10.1-3.7,21.7-14.7,19.9s-2.6-.8-3-.8-1.5.9-2.1,1c-1.6.5-3.2.5-4.8,0-2.5-.9-1.5-1.6-.8-3.3,1.5-4-.6-5.8-.9-9.4-.6-7.2,4.8-14.2,12.1-14.9ZM231.7,160.6c1.3.3,2.6.2,3.7-.4s1.2-1.1,1.9-1.1,2,.8,2.6.9c10.8,2.6,19-10,11.8-18.7-7.3-8.8-21.6-2.8-20.5,8.6s1.2,3.8,1.4,5.8-.2,3.4-.8,5h0Z"/>
      <path class="st0" d="M262,168.5c-.9-2.1-1.1-4.3-.6-6.5.9-3.4,1.8-5.2.6-8.9s-1.3-2.5-2.2-3.9.6-2.6,1.9-1.3c2.4,2.4,3.3,7.2,3,10.5s-2.1,4.7-1.1,8.3,2.2,2.8-.4,3.9-3.4.6-4.9.2-1.9-1.1-2.1-1.1-1.4.5-1.8.5c-3.6.8-7.1.5-10.4-1.4s-3.4-1.9-2.3-3.2,1.8.2,2.6.7c3,1.8,6.1,2.5,9.6,1.6s2.1-.9,2.6-.9,1.1.7,1.5,1c1.2.7,2.5.9,3.9.5h.1Z"/>
      <path class="st0" d="M242.5,147c2.6-.4,2.6,3.8,0,3.5s-2-3.2,0-3.5Z"/>
      <path class="st0" d="M248.6,147c2.3-.3,2.7,3.2.5,3.5s-2.7-3.2-.5-3.5Z"/>
      <path class="st0" d="M236.1,147c2.6-.4,2.8,3.9,0,3.5s-1.8-3.2,0-3.5Z"/>
    </g>
    <g>
      <path class="st0" d="M165.2,230.3c1.8-.2,9.9,1.8,12.1,2.4s4.3,1.7,4.5,4.5c.9,10.6-1.2,20.5-10.7,26.4s-4.5,2.7-7.1,1.9c-6.4-2-12-9-13.7-15.3s-1.2-9.8-.8-13.3,1.7-3.5,3.5-4c3.9-.5,8.3-2.3,12.1-2.7h0ZM165.3,233.6c-3.4.9-6.9,1.4-10.2,2.3s-2.1.3-2.3,1.7-.1,5.7,0,7.7c.4,7.1,5,14.3,11.8,16.9,1.1.4,1.2.4,2.2,0,10-4,12.6-14.6,11.7-24.4,0-.9-.3-1.2-1.2-1.5-3.4-1.3-8.4-1.6-12-2.6h0Z"/>
      <path class="st0" d="M171.8,241.8c1.6-.3,2.6,1.4,1.7,2.7l-7.7,7.6c-.7.6-1.6.7-2.3.2-.9-1.2-3.6-2.9-4.2-4.1s.2-2.6,1.6-2.5,3.2,3,3.6,2.9l6.6-6.4c.2-.2.5-.3.7-.3h0Z"/>
    </g>
    <g>
      <path class="st0" d="M242.1,253.4c2.2-.3,4,.9,6,1.6s3.3.9,5.2,1.1,2-.2,2.3.8c.8,2.6-4.3,1.8-5.7,1.6s-1.8-.8-2.2-.3c-.6.8,1.1,1.2,1.6,1.4,4.1,1.1,7.1,0,10.6-2s3.9-2.6,4.8-2.8c1.7-.4,2.4,1.1,1.2,2.3-1.4,1.5-8.3,5.4-10.3,6-4.7,1.4-9.8-1-14.4.9l-5.6-5.6c1.5-1.8,3.9-4.6,6.3-4.9h.2,0Z"/>
      <path class="st0" d="M236.3,229.5s1.5.7,1.7.7c.5,0,1-.7,1.3-.6s1.6,1.5,1.7,1.6c.2.4-.6.9-.6,1.5s.6,1.5.7,1.6c.3.3,1.1,0,1.3.5s.1,1.9,0,2.2c-.2.4-1.3.3-1.5.5s-.6,1.7-.6,1.8c0,.4.6.8.6,1.1s-1,1.3-1.3,1.5c-1,.6-1.1-.4-1.7-.4s-1.6.6-1.7.7c-.2.2,0,1.2-.4,1.4s-2.1.1-2.4,0c-.4-.1-.2-1-.7-1.4s-1.4-.7-1.6-.6c-.4,0-.8.7-1.3.6s-1.5-1.3-1.5-1.5c-.3-.6.6-.9.6-1.5s-.6-1.5-.7-1.6c-.4-.3-1.1-.2-1.3-.5s-.1-1.8,0-2c.2-.9,1.2-.4,1.5-.8s.6-1.5.6-1.6c0-.5-.7-.9-.6-1.3s1.5-1.6,1.6-1.7c.3-.1.8.5,1.1.5s1.8-.5,2-.7c.3-.4-.1-1.3.9-1.4s1.5,0,1.7,0c.5.2.3,1.1.5,1.3h0ZM233.8,231.7c-4.9.8-4,8.9,1.2,8.4s5-9.5-1.2-8.4Z"/>
      <path class="st0" d="M255.6,239.8s1.7.7,1.9.7c.4,0,.8-.7,1.1-.6s1.4,1.2,1.5,1.3c.7.9-.4,1.2-.4,1.7s.6,1.6.7,1.7c.2.2,1.2,0,1.4.4s.1,2.1,0,2.4c-.1.4-1,.2-1.4.7s-.7,1.4-.6,1.6c0,.4.7.8.6,1.3s-1.3,1.5-1.5,1.5c-.6.3-1-.6-1.5-.5s-1.5.6-1.6.7c-.3.4-.2,1.1-.5,1.3s-1.8.1-2,0c-.9-.2-.4-1.2-.8-1.5s-1.5-.6-1.6-.6c-.3,0-.9.7-1.3.6s-1.6-1.5-1.7-1.6c-.1-.3.6-.9.5-1.5s-.6-1.5-.7-1.6c-.3-.2-1.1,0-1.3-.5s-.1-1.6,0-1.9c.2-.8,1.1-.4,1.5-.9s.6-1.5.6-1.6c0-.5-.7-1-.6-1.3s1.5-1.6,1.6-1.7c.4-.2.9.5,1.3.6s1.7-.5,1.8-.7c.4-.4-.1-1.3.9-1.4s1.7,0,1.9,0c.3.2.2,1.2.3,1.4h-.1ZM253,242c-4.6.8-4.2,8.5,1.1,8.4,5.8-.1,5.3-9.5-1.1-8.4Z"/>
      <path class="st0" d="M234.1,258.8c.3,0,.6.2.9.4l5.7,5.8c.6,1.4-1,2.2-1.8,3l-7.2-7.1c.4-.6,1.7-2.1,2.4-2.1h0Z"/>
      <path class="st0" d="M234.9,244.4c.6-.2,1.2,1.5,1.5,2,2.1,2.9,5.2,4.1,8.7,4s1.2-.4,1.4.3-.5.8-1,.9c-3.8.4-7.6-1.4-9.8-4.4s-1.9-2.5-.7-2.8h0Z"/>
      <path class="st0" d="M242.4,231.2c-.4-.1-.4-.9.2-1.1s2.3-.1,2.9,0c2.9.2,6.1,2.1,7.7,4.5s1.6,2.4.6,2.6-1.1-1.4-1.5-1.9c-1.1-1.6-4.3-4.1-6.4-4.1s-3.1.2-3.6,0h.1Z"/>
      <path class="st0" d="M234.1,233.1c.2-.5,1.1-.1,1.1.2v3.3c0,.5-1.1.5-1.1,0s-.1-2.9,0-3.4h0Z"/>
      <path class="st0" d="M234.6,237.6c.5,0,1.1.7.5,1.2s-1.7-1-.5-1.2Z"/>
      <path class="st0" d="M253.4,243.5c.1-.5,1.1-.5,1.1-.2v3.4c0,.5-1.1.5-1.1,0s-.1-2.7,0-3.3h0Z"/>
      <path class="st0" d="M254.5,248.1c.4.4.2,1-.4,1.1-1.4.2-.5-2,.4-1.1Z"/>
    </g>
  </g>
  <g>
    <g id="freepik--character-2--inject-254">
      <g id="freepik--Character--inject-166--inject-254">
        <path class="st0" d="M360.6,252.3c-.5.4-.9.7-1.3,1s-.9.6-1.3.9c-.9.6-1.6,1.1-2.5,1.5-1.7,1.1-3.6,1.9-5.4,2.8-1.9.9-4,1.5-6,2.1-1.1.3-2.2.5-3.3.7h-3.9c-1.5-.3-2.9-.8-4.3-1.5-1.1-.6-2-1.3-3-2-1.6-1.4-3.1-2.9-4.4-4.5-2.4-3.1-4.4-6.5-6.1-10.2l4.4-2.8c2.3,2.6,4.8,5.1,7.3,7.4,1.2,1.1,2.4,2,3.8,2.9.6.4,1.2.6,1.7.9.4,0,.7.2,1.1.2h.6c.3-.2.7-.2,1-.3.7-.2,1.4-.4,2-.6,1.5-.6,3-1.2,4.4-1.9,1.5-.8,2.9-1.5,4.4-2.5.7-.4,1.5-.9,2.1-1.4l1.1-.7,2.9-1.9,4.7,9.8h0Z"/>
        <path class="st12" d="M360.6,252.3c-.5.4-.9.7-1.3,1s-.9.6-1.3.9c-.9.6-1.6,1.1-2.5,1.5-1.7,1.1-3.6,1.9-5.4,2.8-1.9.9-4,1.5-6,2.1-1.1.3-2.2.5-3.3.7h-3.9c-1.5-.3-2.9-.8-4.3-1.5-1.1-.6-2-1.3-3-2-1.6-1.4-3.1-2.9-4.4-4.5-2.4-3.1-4.4-6.5-6.1-10.2l4.4-2.8c2.3,2.6,4.8,5.1,7.3,7.4,1.2,1.1,2.4,2,3.8,2.9.6.4,1.2.6,1.7.9.4,0,.7.2,1.1.2h.6c.3-.2.7-.2,1-.3.7-.2,1.4-.4,2-.6,1.5-.6,3-1.2,4.4-1.9,1.5-.8,2.9-1.5,4.4-2.5.7-.4,1.5-.9,2.1-1.4l1.1-.7,2.9-1.9,4.7,9.8h0Z"/>
        <path class="st15" d="M321.1,243.6l-4.2-2,3.4-5.2s3.5,2.9,3.9,5.9l-3.1,1.4h0Z"/>
        <polygon class="st15" points="312.4 238.2 315.2 235 320.3 236.4 317 241.6 312.4 238.2"/>
        <path class="st3" d="M400.7,427.8c.5-1.1,1.1-2,1.8-2.9h0s3.1-5.4.7-14.8l4.4-3.8c1.2,0,2.3.5,3.2,1.3.6.6,1.1,1.3,1.5,1.9,1.5,2.7,5,9,5,9l-.7.4c-1.2-1.8-2.4-3.6-3.8-5.3-1.5-1.5-1.4,1.3-.9,3.7.5,2.4-1.1,6.2-5.1,8.7-4.7,2.9-6.9,3.8-6.2,1.8h.1Z"/>
        <path class="st15" d="M408.5,414.9c0,1.5,1.1,4.4-.4,6.5-1.3,1.9-3.4,3.3-5.7,3.5,0,0,2.4-4.3,1.4-11.6-.2-1.1-.4-2.1-.7-3.1,0,0,3.8-2.8,5.5-3.2l.9,2.5c-.2,1.6-.5,3.3-1,4.8v.6h0Z"/>
        <path class="st15" d="M409.6,409.4c-.2,1.6-.5,3.3-1,4.8v.7l-3.6,1.5-1.2-3.2-4.2-11.3,6.2-2.6,2.8,7.6,1,2.5h0Z"/>
        <path class="st12" d="M405.9,399.3l-6.2,2.6,2.1,5.7h0c2.3,0,4.5-.8,6.2-2.4h0l-2.2-5.9h.1Z"/>
        <path class="st3" d="M353.4,424.2c1-.6,2-1.1,3.1-1.4h0s5.6-2.9,8.6-12.1l5.8-1.2c1.1.5,1.8,1.5,2.1,2.5v3c0,3.2-.6,11.3-.6,11.3h-.8c0-2.5,0-5-.2-7.5-.4-2.1-1.8.3-2.7,2.6s-4.3,4.6-9,4.5c-5.6-.2-7.9-.5-6.3-1.8h0Z"/>
        <path class="st15" d="M370,414.1c-.7,1.2-1.5,2.1-2.5,3-1.2.9-1.5,4.6-4.3,5.8-2.1,1-4.6,1-6.7,0,0,0,4.2-2.1,7.3-8.8.7-1.5.9-3.3.6-4.9l-2-10.7,7.1-1,1.7,12.9c0,1.5-.3,2.8-1.2,3.9v-.2h0Z"/>
        <path class="st12" d="M361.7,394.3l1.6,9.5h.6c2.1.6,4.4,0,6.1-1.2h0l-1.2-9.2-7.2.9h.1Z"/>
        <path class="st3" d="M385.2,247.2v-.8c-.6-4.8-4.8-8.3-9.7-7.7h-.2c-.6,0-1.2.2-1.8.2-4.1.6-8.1,1.4-12.1,2.5-.7.2-1.4.4-2,.6-1,.3-1.8.6-2.7,1-4.2,1.5-6.5,5.8-5.6,10.1,1.4,7.5,3.8,14.9,7.3,21.8,1.2,2.2,1.4,6.9,2.3,9.7l26.7-5.4h0c-1.3-8.3-1.8-22.5-2-31.8l-.2-.2h0Z"/>
        <path class="st3" d="M360.6,284.4s-1.5,34-2.8,60.1c-1.1,20.8,3,56.3,3,56.3,3.7,1,7.5.4,10.8-1.5.2,1.6,1.6-32.7,0-52.5,7.4-28.9,18.5-56.3,10.3-66.9l-21.4,4.5h.1Z"/>
        <path class="st11" d="M373.3,304.4l11-6.3c-1.5,10.3-5.5,23.3-9.5,37.1-3.1-11-4.5-22.5-1.5-30.8h0Z"/>
        <path class="st3" d="M365.4,285.2s7.3,26.4,12,51.6c2,18.2,21.6,67.8,21.6,67.8l3.4-.7c1.6-.3,3.1-1.1,4.3-2.1l1.2-1.1s-5.8-36-11.4-50c0-29.3.7-60.8-10.3-70.7l-20.6,5.1h-.2Z"/>
        <path class="st0" d="M374.1,238.7s-2.8,31.1,4.3,71.6c11.6-.7,18.8-3.9,18.8-3.9,0,0-2.4-21.9-9.6-33.2-1.3-7.8,0-24.6-.9-30.7-.3-2.2-2-4-4.2-4.3-2.8-.2-5.6,0-8.4.4h0Z"/>
        <path class="st9" d="M374.1,238.7s-2.8,31.1,4.3,71.6c11.6-.7,18.8-3.9,18.8-3.9,0,0-2.4-21.9-9.6-33.2-1.3-7.8,0-24.6-.9-30.7-.3-2.2-2-4-4.2-4.3-2.8-.2-5.6,0-8.4.4h0Z"/>
        <path class="st0" d="M361.2,240.9s-1.5,14.8,7.9,70.2c-3.8,2-11.8,1.4-11.8,1.4,0,0,0-18.5,1.4-33.2.6-7.2-4.5-8.2-7.5-16.1-1.5-9.2-.6-16.6.8-17.7,2.2-1.7,5.6-4.1,9.3-4.5h0Z"/>
        <path class="st9" d="M361.2,240.9s-1.5,14.8,7.9,70.2c-3.8,2-11.8,1.4-11.8,1.4,0,0,0-18.5,1.4-33.2.6-7.2-4.5-8.2-7.5-16.1-1.5-9.2-.6-16.6.8-17.7,2.2-1.7,5.6-4.1,9.3-4.5h0Z"/>
        <path class="st7" d="M373.9,238.6s-.6,12.8-.4,22c1-6.6,3.3-13,3.3-15-.7-.4-1.4-.8-1.9-1.3.8-.6,1.5-1.2,2.4-1.5v-4.7c-1.8.3-3.5.5-3.5.5h.1Z"/>
        <path class="st7" d="M361.3,240.8c-.2,7.3,0,14.8,1,22.1-2-5.9-4.7-11.5-4.4-13.7,1.1-.9,2-1.9,2-1.9-.7-.4-1.5-.8-2.2-.9,0-1.6.2-3.3.4-4.9,1.8-.4,3.3-.7,3.3-.7h0Z"/>
        <path class="st0" d="M383.6,243.1c-1.8,3.2-.8,7.3,2.3,9.2h0c1.9,1.2,3.8,2.4,5.6,3.6,1.8,1.2,3.6,2.5,5.1,3.8.8.6,1.5,1.3,2.1,1.9s.5.6.8.9.3.4.3.3l-.3-1.4c0,.9,0,1.6-.5,2.4-.6,1.3-1.4,2.5-2.2,3.6-1,1.3-1.9,2.5-3,3.7s-2.3,2.4-3.4,3.5l2.9,4.4c1.6-.8,3.3-1.6,4.8-2.7s3.1-2.1,4.4-3.4c1.5-1.4,2.9-2.9,4.1-4.5.8-1.2,1.4-2.3,1.7-3.7.4-1.3.6-2.5.6-3.8v-.6l-.2-.7c-.3-.9-.7-1.6-1.2-2.4s-1.1-1.5-1.6-2.2c-.9-1.1-1.8-2-2.8-2.9-1.8-1.6-3.8-3.3-5.7-4.7s-3.9-2.8-5.9-4.1-4-2.5-6.1-3.7l-2,3.6h.2Z"/>
        <path class="st15" d="M393.8,274.7c-2.1-.7-4.4-.7-6.5.2l2.4,7.3,3.8-3.3.3-4.3h0Z"/>
        <polygon class="st15" points="389.9 282.3 387.4 274.9 383.7 279 386.9 284.1 389.9 282.3"/>
      </g>
      <path class="st21" d="M357.8,238c-1.5-9.1-.3-18.5,3.7-26.8,4.6-9.7,23.8-2.9,20.9,13.3-1.7,9.6-5.8,7.9,1.5,14.3,4.2,3.7-8.1,4.6-9.2,2.1,0,0-4.4.4-7.4-2,0,0-8.6,4-9.4-1h-.1Z"/>
      <path class="st15" d="M365.2,247.6c4.2.7,6.9-4.6,7.9-7.3h-.5c-1.2-3.3-.4-8.8.5-12l-7.7,6.1c.5,2.5.6,5-1.7,6.4-.5,0-1,.2-1.4.3-.6,2.5-.6,6,2.9,6.6h0Z"/>
      <path class="st12" d="M369.8,230.7l-4.5,3.6c.2.7.3,1.5.3,2.2,1.6-.2,4.3-1.5,4.5-3.3,0-.9,0-1.6-.3-2.5Z"/>
      <path class="st15" d="M377.2,222.6c-2.4,6.1-3.4,8.7-7.5,10.8-6.3,3.2-13.2-1.2-12.7-7.8.5-6,4.4-15,11.4-15.5,4.9-.4,9.2,3.4,9.6,8.3,0,1.5-.2,2.8-.8,4.2h0Z"/>
      <path class="st25" d="M362.7,220.6c-.9,1-1.8,1.9-2.9,2.6.4.6,1,.9,1.6,1l1.3-3.6Z"/>
      <path class="st3" d="M369.1,219.7h0s.2-.2,0-.3h0c-.4-.9-1.2-1.5-2.1-1.8,0,0-.3,0-.3.2s0,.3.2.3c.8.2,1.5.8,1.7,1.5h.5,0Z"/>
      <path class="st3" d="M359.6,216h0c.8-.3,1.6-.3,2.3,0h.4v-.4c-.9-.5-1.9-.6-2.8-.2,0,0-.2.2-.2.3h0c0,.2.2.3.3.3h0Z"/>
      <path class="st3" d="M366.6,221c-.2.5-.6.9-.9.7s-.5-.6-.3-1.2.6-.9.9-.7.5.7.3,1.2Z"/>
      <path class="st3" d="M360.9,219c-.2.5-.6.9-.9.7s-.5-.6-.3-1.1.6-.9.9-.7.5.6.3,1.1Z"/>
      <path class="st3" d="M360.7,218l-1.1-.8s.3,1.3,1.1.8Z"/>
      <path class="st3" d="M366.5,219.9l-1.1-.8s.2,1.2,1.1.8Z"/>
      <path class="st3" d="M365.3,227.8c.3,0,.7-.2,1-.4v-.2h-.2c-1.5.7-3.1.7-4.5,0h-.3v.3c1.3.6,2.6.7,4,.4h0Z"/>
      <path class="st21" d="M366.1,212.1s-2.1,1.7-.9,3.5,5.1,1,5.9,4.3-.7,5.7,1.6,6.8,4.6-2.2,4.6-2.2c0,0,3.7-7.5-.9-11.6-4.5-4.1-9.9-5.5-13.1-3.7s-4.9,3.2-3.8,4,3,1.4,3.8.6c.8-.8,1.6-1.3,2.6-1.5l.2-.2h0Z"/>
      <path class="st15" d="M377.1,227.9c-.8,1.1-1.8,1.7-3.1,1.9-1.6.3-2.3-1.3-1.7-2.7.6-1.4,2-3.1,3.7-2.7,1.2.3,1.8,1.5,1.5,2.7,0,.3,0,.6-.3.8h-.1Z"/>
      <path class="st0" d="M361.2,241.2c.6-.4,1.3-.5,1.9-.5,0,0-1.8,6,2.4,6.3s7.5-7,7.5-7c.6-.2,1.3-.2,1.8.2,0,0-3.4,8.5-9.3,8.2s-4.4-7.3-4.4-7.3h.1Z"/>
      <path class="st7" d="M361.2,241.2c.6-.4,1.3-.5,1.9-.5,0,0-1.8,6,2.4,6.3s7.5-7,7.5-7c.6-.2,1.3-.2,1.8.2,0,0-3.4,8.5-9.3,8.2s-4.4-7.3-4.4-7.3h.1Z"/>
      <path class="st3" d="M373.5,222.8l-4.1-1.5c0-1.2-1.6-1.7-2.2-2s-2.2-.9-3.1,0l-1.5-.6c0-1.3-1.5-1.8-2.2-2.1s-2.8-1.1-3.5.7c-.5,1.6.5,3.3,2,3.7,1.4.4,2.9-.3,3.5-1.5v-.3l1.3.5v.3c-.5,1.6.5,3.3,2,3.7,1.4.4,2.9-.3,3.5-1.5v-.4l4,1.5c.6.2,1,.6,1.3,1.1l.4-.2c-.3-.6-.8-1-1.5-1.3h.1ZM358.9,220.5c-1.3-.4-2-1.7-1.5-3.1.4-1,1.3-1.1,2.9-.4s2.2,1.4,1.9,2.3c-.7,1.2-2,1.6-3.3,1.2ZM365.7,223.1c-1.3-.4-2-1.7-1.5-3.1.4-1,1.3-1.1,2.9-.4s2.2,1.4,1.9,2.3c-.7,1.2-2,1.7-3.3,1.2Z"/>
    </g>
    <g>
      <g id="freepik--character-2--inject-65">
        <polygon class="st27" points="206.3 324.9 205.4 330.5 200.9 332.4 200.7 326 206.3 324.9"/>
        <path class="st3" d="M222.8,270.6c0,.4.4.8.7.7s.4-.5.4-.9-.4-.7-.7-.7-.5.5-.4.9Z"/>
        <path class="st24" d="M223.1,271.3c.8,1.2,1.8,2.4,2.9,3.3-.5.6-1.3.9-2,.9l-.8-4.2h0Z"/>
        <path class="st3" d="M220.7,268.4h-.2c-.1,0-.1-.3,0-.4h0c.6-.6,1.4-1,2.2-.9.1,0,.2.2.2.3h0c0,.1-.2.2-.3.2h0c-.7,0-1.3.2-1.8.7h-.2.1Z"/>
        <path class="st27" d="M210.2,276.8c.8,4.1,1.6,11.5-1.2,14.3,0,0,1.1,4.1,8.7,4.1s4-4.1,4-4.1c-4.6-1.1-4.4-4.5-3.6-7.6l-7.8-6.6h0Z"/>
        <path class="st3" d="M207.3,291.8c-.6-1.1-1.3-2.4.1-2.8,1.5-.4,11.3-1.3,14.2-.4-.9,1.6.6,3.5.6,3.5l-14.9-.2h0Z"/>
        <path class="st27" d="M204.1,300.9l-2.2,3.8-2.1,3.9c-1.4,2.6-2.8,5.2-4,7.9-.6,1.3-1.2,2.6-1.7,4v.2h-.1c0,.1,0,.2-.1.3v.9c.4,1,1,2,1.8,2.8.9,1,1.9,1.9,3,2.8l-1.8,3.8c-.8-.2-1.7-.5-2.4-.9-.8-.3-1.6-.7-2.3-1.2-1.7-1-3.2-2.3-4.3-4-.7-1-1.1-2.2-1.3-3.5v-2.1c0-.3,0-.7.2-1v-.5c.1,0,.2-.3.2-.3.5-1.5,1-3.1,1.6-4.6,1.2-3,2.5-5.9,3.9-8.7.7-1.4,1.4-2.8,2.2-4.1.8-1.4,1.5-2.7,2.4-4.1l7.1,4.4v.2h0Z"/>
        <path class="st27" d="M196.7,327l4-1,.2,6.4s-3.1.5-5-1.4l.8-4Z"/>
        <path class="st0" d="M199,292.3c-5.2,1.2-9.5,14.5-9.5,14.5l10.5,8c2.7-2.9,4.6-6.4,5.6-10.3,1.8-7-1.2-13.5-6.5-12.3h-.1Z"/>
        <path class="st10" d="M199,292.3c-5.2,1.2-9.5,14.5-9.5,14.5l10.5,8c2.7-2.9,4.6-6.4,5.6-10.3,1.8-7-1.2-13.5-6.5-12.3h-.1Z"/>
        <path class="st12" d="M203.5,302.1c-2.8,2.8-3.8,7.9-4,12.4l.5.4c2.7-2.9,4.6-6.4,5.6-10.3.1-.4.2-.9.3-1.2l-2.3-1.2h-.1Z"/>
        <path class="st0" d="M230.2,292.6s5.9,6.7.3,48.2h-29.8c-.2-4.6,2.7-26.9-1.7-48.4,3.3-.6,6.6-1.1,10-1.3,4.2-.2,8.4-.2,12.7,0,2.9.3,5.7.8,8.6,1.5h-.1Z"/>
        <path class="st1" d="M230.2,292.6s5.9,6.7.3,48.2h-29.8c-.2-4.6,2.7-26.9-1.7-48.4,3.3-.6,6.6-1.1,10-1.3,4.2-.2,8.4-.2,12.7,0,2.9.3,5.7.8,8.6,1.5h-.1Z"/>
        <path class="st27" d="M207.9,272.6c1.4,5.3,2,8.6,5.3,10.8,5,3.3,11.1-.5,11.3-6.1.2-5.1-2.2-13-7.9-14.1-4.1-.8-8,1.9-8.8,6-.2,1.2-.2,2.3.1,3.5h0Z"/>
        <path class="st18" d="M210.4,281.3c2.3,1.3,10.6-3,8.9-9.6.7-.9,1.3-1.8,1.7-2.8.3-.6.5,3.2.8,2.4.3-2.5.4-5.1.3-7.6-.4-4.2-3.2-5.8-6.3-4.9-2.7.8-2.6,2.3-2.6,2.3,0,0-12.7,1.5-10,6.7-5.2,5.6,4.4,11.9,7.3,13.5h0Z"/>
        <path class="st18" d="M203.5,268.2s-1.5-2.6-3.7-1.2c1,0,2.8.2,3.7,1.2Z"/>
        <path class="st18" d="M223.4,268.8s.7-9.6-6-10.2c3.3,2.4,5.5,6.1,6,10.2Z"/>
        <path class="st27" d="M217,272.8c.4,1.3,1.2,2.5,2.2,3.3,1.4,1.1,2.6,0,2.4-1.6,0-1.5-1-3.8-2.6-4.3s-2.5,1-2.1,2.6h.1Z"/>
        <path class="st5" d="M230.1,292.6s5.9,6.7.3,48.2h-29.8c-.2-4.6,2.7-26.9-1.7-48.4,3.3-.6,6.6-1.1,10-1.3,4.2-.2,8.4-.2,12.7,0,2.9.3,5.7.8,8.5,1.5h0Z"/>
        <path class="st12" d="M232.5,307h-.1l-6.8,1.5c-.4,4.6,4.3,10.1,6.7,12.6.3-4.7.3-9.4.1-14.1h.1Z"/>
        <path class="st27" d="M233,297.6c.9,1.3,1.8,2.8,2.8,4.2s2,2.8,3,4.1c2,2.7,4.2,5.1,6.6,7.4.6.5,1.2,1,1.8,1.5l.5.3h-.3c-.2,0-.3,0-.2,0,.4,0,.9,0,1.2-.3.7-.3,1.3-.6,1.9-1,2.8-1.9,5.5-3.9,8-6.2l3.3,2.6c-2,3.3-4.4,6.3-7.3,8.9-.8.7-1.7,1.4-2.6,1.9-1.2.7-2.5,1.2-3.8,1.4-1,.1-2,0-2.9-.2-.5-.2-1-.4-1.5-.7l-.7-.4c-.9-.6-1.7-1.2-2.5-1.8-3-2.4-5.7-5.2-8.2-8.2-1.2-1.5-2.3-3-3.4-4.5s-2.1-3.1-3.1-4.8l7.2-4.3h.2Z"/>
        <path class="st0" d="M222,301c-1.8,7.5,11.7,14.8,11.7,14.8l8.8-10.3c-2.6-3.9-5.6-7.6-9-10.9-6.1-5.9-10.2.7-11.5,6.4Z"/>
        <path class="st10" d="M222,301c-1.8,7.5,11.7,14.8,11.7,14.8l8.8-10.3c-2.6-3.9-5.6-7.6-9-10.9-6.1-5.9-10.2.7-11.5,6.4Z"/>
        <path class="st27" d="M257.5,309.3l2.1-6.7,5.4,2.7s-.8,4.8-4.8,5.7l-2.8-1.8h0Z"/>
        <polygon class="st27" points="261.7 300.8 266.7 302.1 265 305.3 259.6 302.6 261.7 300.8"/>
        <path class="st18" d="M213.1,261.1s-1.1-1.7-4.1-.6c-1.1.3-2,1.1-2.4,2.2l3.4,2.5,3.1-4h0Z"/>
        <polygon class="st2" points="260.7 412.6 262.1 419.4 269.5 418.4 268.4 410.9 260.7 412.6"/>
        <path class="st0" d="M270.8,418.4s-.1,0-.2-.1v-.2c.1,0,2.7-1.9,4-1.7.2,0,.5.2.6.4.2.2.2.5,0,.8-.3.4-1.2.7-2.2.8h-2.4.2ZM271.4,418.1c1.5,0,3.4-.2,3.7-.7v-.4c0-.1-.2-.2-.4-.2h-.4c-1,.3-2,.7-2.9,1.3h0Z"/>
        <path class="st0" d="M270.7,418.4v-.2c0-.1,0-2.2.9-3.1s.6-.4,1-.4.7.2.7.4c.2.9-1.4,2.7-2.3,3.2h-.3ZM272.4,415.1c-.2,0-.5.1-.6.3-.5.7-.8,1.6-.8,2.5.9-.7,2-2.1,1.9-2.6,0,0,0-.2-.4-.2h-.1Z"/>
        <path class="st3" d="M269.9,417.4l-8.4.9c-.3,0-.6.3-.6.6l-.9,7c0,.6.4,1.2,1,1.3h.2c3-.4,5.7-.8,9.5-1.1,4.5-.4,3.4.2,8.6-.2,3.2-.3,3.4-3.9,2-4-6.2-.2-7-2-9.6-3.9-.5-.4-1.2-.5-1.9-.5h0Z"/>
        <polygon class="st12" points="269 414.8 261.3 415.4 260.7 412.6 268.4 410.9 269 414.8"/>
        <polygon class="st0" points="262.7 356.6 270 409.9 258.7 410.8 245.6 357.9 262.7 356.6"/>
        <polygon class="st11" points="262.7 356.6 270 409.9 258.7 410.8 245.6 357.9 262.7 356.6"/>
        <path class="st0" d="M257.7,410l13.6-1.1c.7,1,.6,2.4-.1,3.4l-13.1,1.2s-1.3-.8-.4-3.5Z"/>
        <path class="st0" d="M200.7,340.9s-.8,7.7-.7,10.5c.6,14.4,14.2,19.5,25.1,17.5l38.7-4.2c1.6,5.2,19.8,34.1,19.8,34.1l9.6-5.5s-9.9-23.8-16.4-40.4c-3.7-9.5-32.8-9.8-43.7-7.8-3.3.9-2.7-4.3-2.7-4.3h-29.8,0Z"/>
        <polygon class="st2" points="286.1 399.3 289.8 405.4 296.6 402 293.1 395.1 286.1 399.3"/>
        <path class="st0" d="M298,401.5h-.2v-.2c0-.1,2-2.7,3.3-2.9.3,0,.5,0,.7.2.3.1.4.4.4.7-.1.5-1,1.1-1.9,1.5-.7.3-1.5.6-2.3.8h0ZM298.4,401.1c1.4-.5,3.3-1.3,3.4-1.9,0,0,0-.2-.2-.4-.1,0-.3-.1-.4,0-.1,0-.2,0-.4.1-.9.6-1.8,1.4-2.4,2.3h0Z"/>
        <path class="st0" d="M297.8,401.6s-.1,0-.1-.1c0,0-.7-2.1-.2-3.3.2-.4.5-.6.9-.7.5-.2.8,0,.9.2.5.7-.5,3.1-1.2,3.9h-.3,0ZM298.4,397.8c-.2,0-.4.3-.5.5-.3.9-.2,1.8,0,2.7.7-.9,1.2-2.7,1-3.2,0,0-.1-.2-.4,0h-.1Z"/>
        <path class="st3" d="M296.7,400.9l-7.9,3.6c-.3.1-.5.5-.4.8l1.5,7.1c.1.6.7,1,1.4.9h.2c2.8-1.4,5.3-2.7,8.8-4.3,4.2-1.9,3.4-.9,8.3-3.1,3-1.3,2-4.9.7-4.5-6.1,1.9-7.5.4-10.7-.6-.7-.2-1.4-.1-2,.2h.1Z"/>
        <polygon class="st12" points="288 402.4 286.1 399.3 293.1 395.1 294.8 398.4 288 402.4"/>
        <path class="st0" d="M282.1,399.3l11.9-7.4c1.1.6,1.7,1.9,1.5,3.1l-11.4,7.3s-1.5,0-2-3Z"/>
        <polygon class="st3" points="218.4 371.9 218.6 381.9 219.7 433.2 223.2 433.2 224.2 381.9 224.4 371.9 218.4 371.9"/>
        <polygon class="st6" points="218.4 371.9 218.6 381.9 219.7 433.2 223.2 433.2 224.2 381.9 224.4 371.9 218.4 371.9"/>
        <polygon class="st12" points="218.4 371.9 218.6 382.2 224.2 382.2 224.4 371.9 218.4 371.9"/>
        <polygon class="st3" points="199.6 433 202.8 372.6 208 372.6 203.5 433 199.6 433"/>
        <polygon class="st6" points="203.5 433 199.6 433 202.5 377.5 202.8 372.5 208 372.5 207.6 377.5 203.5 433"/>
        <polygon class="st12" points="208 372.5 207.6 377.7 202.5 377.7 202.8 372.5 208 372.5"/>
        <polygon class="st3" points="239.3 433 234.8 372.6 240.1 372.6 243.3 433 239.3 433"/>
        <polygon class="st6" points="239.3 433 235.2 377.5 234.8 372.5 240.1 372.5 240.4 377.5 243.3 433 239.3 433"/>
        <polygon class="st12" points="234.8 372.5 235.2 377.7 240.4 377.7 240.1 372.5 234.8 372.5"/>
        <path class="st3" d="M242.9,374.5h-42.9v-3.9c0-2,1.6-3.6,3.6-3.6h35.7c2,0,3.6,1.6,3.6,3.6h0v3.9h0Z"/>
        <rect class="st3" x="197.9" y="370.7" width="47.1" height="3.7" rx="1.7" ry="1.7"/>
        <rect class="st5" x="197.9" y="370.7" width="47.1" height="3.7" rx="1.7" ry="1.7"/>
        <polygon class="st3" points="194.8 325.5 197.5 325.5 205.2 370.7 202.5 370.7 194.8 325.5"/>
        <polygon class="st3" points="215.3 325.5 218.1 325.5 225.8 370.7 223 370.7 215.3 325.5"/>
        <polygon class="st6" points="194.8 325.5 197.5 325.5 205.2 370.7 202.5 370.7 194.8 325.5"/>
        <polygon class="st6" points="215.3 325.5 218.1 325.5 225.8 370.7 223 370.7 215.3 325.5"/>
        <path class="st3" d="M220.6,334.1h-25.5c-1.9,0-3.5-1.6-3.6-3.5l-2.6-11.1c-.3-2.4,1.4-4.6,3.6-4.6h25.5c1.9,0,3.5,1.6,3.6,3.5l2.6,11.1c.2,2.4-1.5,4.6-3.6,4.6Z"/>
        <rect class="st5" x="222" y="370.7" width="22.9" height="3.7" rx="1.7" ry="1.7"/>
      </g>
      <g id="freepik--character-1--inject-65">
        <polygon class="st2" points="153.2 415 154.6 421.5 161.7 420.6 160.6 413.3 153.2 415"/>
        <path class="st0" d="M163,420.6s-.1,0-.2-.1v-.2c.1,0,2.6-1.8,3.8-1.6.2,0,.4.2.6.4.2.2.2.5,0,.8-.6.5-1.4.8-2.1.8h-2.3.2ZM163.5,420.3c1.4,0,3.3-.2,3.6-.7v-.4c0-.1-.2-.2-.4-.2h-.3c-1,.2-2,.7-2.8,1.3h-.1Z"/>
        <path class="st0" d="M162.9,420.6v-.2s0-2.1.9-3c.2-.3.6-.4.9-.4.5,0,.7.2.7.4.2.9-1.4,2.6-2.2,3.1h-.3,0ZM164.5,417.4c-.2,0-.4.1-.6.3-.5.7-.8,1.5-.8,2.4.9-.6,1.9-2,1.8-2.5,0,0,0-.2-.4-.2h-.1.1Z"/>
        <path class="st3" d="M162.1,419.6l-8.1.8c-.3,0-.6.3-.6.6l-.9,6.8c0,.6.3,1.1.9,1.2h.2c2.9-.3,5.5-.8,9.2-1.1,4.3-.4,3.3.2,8.4-.2,3.1-.3,3.3-3.8,2-3.8-6-.2-6.8-1.9-9.3-3.8-.5-.4-1.2-.5-1.8-.4h0Z"/>
        <polygon class="st12" points="161.2 417.1 153.8 417.7 153.2 415 160.6 413.3 161.2 417.1"/>
        <polygon class="st3" points="155.1 360.7 161.5 416.1 153.2 417 138.6 362 155.1 360.7"/>
        <polygon class="st11" points="155.1 360.7 161.5 416.1 153.2 417 138.6 362 155.1 360.7"/>
        <polygon class="st2" points="177.8 402.1 181.3 408 188 404.7 184.5 398 177.8 402.1"/>
        <path class="st0" d="M189.2,404.3h-.2v-.2c0-.1,1.9-2.6,3.2-2.8.2,0,.5,0,.7.2.3.1.4.4.4.7-.1.5-.9,1.1-1.8,1.5-.7.3-1.5.6-2.2.8v-.2h0ZM189.7,403.8c1.4-.4,3.1-1.3,3.3-1.9,0,0,0-.2-.2-.4-.1,0-.3-.1-.4,0-.1,0-.2,0-.3.1-.9.6-1.7,1.3-2.3,2.2h-.1Z"/>
        <path class="st0" d="M189.1,404.3s-.1,0-.1-.1c0,0-.7-2.1-.2-3.2.2-.3.4-.6.8-.7.5-.2.7,0,.9.2.5.7-.5,3-1.1,3.8h-.3,0ZM189.7,400.6c-.2,0-.4.3-.5.5-.2.8-.2,1.7,0,2.6.6-.9,1.2-2.6.9-3.1,0,0-.1-.2-.4,0h0Z"/>
        <path class="st3" d="M188.1,403.6l-7.7,3.5c-.3.1-.4.5-.4.8l1.5,6.8c.1.6.7,1,1.3.9h.2c2.7-1.3,5.1-2.6,8.6-4.2,4.1-1.9,3.3-.9,8-3,2.9-1.3,1.9-4.8.6-4.4-5.9,1.8-7.2.4-10.3-.6-.6-.1-1.3,0-1.9.2h0Z"/>
        <polygon class="st12" points="179.6 405.1 177.8 402.1 184.5 398 186.2 401.2 179.6 405.1"/>
        <path class="st3" d="M100.3,340.5s-5.2,6.8-5.9,15.2c-1,14,10.8,17.6,24.3,17l37.5-4.1c1.5,5.1,22.2,36,22.2,36l7.7-4.4s-11.1-27-17.3-43c-3.5-9.2-31.7-9.4-42.3-7.6-3.2.9-2.6-4.2-2.6-4.2l-23.7-4.9h.1Z"/>
        <path class="st3" d="M132.2,291.1c-.1.5,0,.9.3,1s.6-.2.8-.7,0-.9-.3-1-.7.2-.8.7Z"/>
        <path class="st3" d="M132.8,290.4h1.2s-.8.7-1.2,0Z"/>
        <path class="st24" d="M132.4,291.7c.1,1.2.4,2.3.9,3.4-.6.2-1.2.1-1.7-.2l.9-3.2h0Z"/>
        <path class="st3" d="M133.6,288.3h-.1c-.6-.4-1.3-.5-2-.3-.1,0-.3,0-.4-.2,0-.1,0-.3.2-.4.9-.3,1.8-.1,2.6.4.1,0,.2.3,0,.4h-.2c0,.1-.1.1-.1.1Z"/>
        <path class="st27" d="M117.2,294c0,3.6-1.4,9.4-4.2,11.2,0,0,1.8,3.9,8.3,5.1,7.1,1.4,4-2.8,4-2.8-3.7-1.7-3.1-4.5-2-7.1l-6-6.4h-.1Z"/>
        <path class="st27" d="M117.1,285.3c-1.2,5.7-1.8,8.1.3,11.9,3.1,5.6,10.5,6,13.3.8,2.6-4.7,4-13.3-.9-17.2-3.3-2.8-8.3-2.3-11,1-.9,1-1.4,2.2-1.7,3.5h0Z"/>
        <path class="st27" d="M128.1,289.4c0,1.1.2,2.2.8,3.1.8,1.3,1.9,1.1,2.2,0s.3-2.9-.7-3.8-2.1-.5-2.3.7h0Z"/>
        <path class="st27" d="M107.7,312.7v7.9c0,2.7.4,5.3.9,7.9l.4,1.7c0,.2,0,.4.3.6.7.7,1.6,1.3,2.6,1.8,2.4,1.1,4.9,2,7.5,2.6l-.3,3.5c-3.1.2-6.2-.1-9.2-1-1.8-.5-3.4-1.3-4.8-2.4-.9-.8-1.7-1.8-2.1-2.9l-.2-.5v-.3l-.3-.5-.3-1.1c-.8-3-1.3-6-1.5-9s-.2-3,0-4.6v-3.5c0-.4,0-.8.2-1.2l7.1,1h-.3Z"/>
        <path class="st27" d="M117.6,335.2l6.5-.2-2.6,3.9s-3.2.7-4.2-1.6l.3-2.2h0Z"/>
        <polygon class="st27" points="125.7 336.8 125.5 340.1 121.5 339 124.1 335.1 125.7 336.8"/>
        <path class="st0" d="M101.3,305.4c-2.9,2.9-1.9,13.2-1.9,13.2l10.2,1.3s3.2-9-.2-14-5.2-3.4-8-.5h0Z"/>
        <path class="st0" d="M100.9,340.2l23.8,4.6c11.2-33,8.6-34.1,8.6-34.1-1.7-.9-3.5-1.8-5.4-2.5,0,0-.2,0-.3-.1-1.5-.6-1.8-.6-3.9-1.2-3.5-.9-6.8-1.5-10.8-2.1h-.8c-.7-.2-1.4-.3-2.1-.3s-.9,0-1.4-.1h-1.5c-2.6-.2-4.5-.2-4.5-.2,1.3,20.6.3,26.5-1.6,36.1h0Z"/>
        <path class="st8" d="M100.9,340.2l23.8,4.6c11.2-33,8.6-34.1,8.6-34.1-1.7-.9-3.5-1.8-5.4-2.5,0,0-.2,0-.3-.1-1.5-.6-1.8-.6-3.9-1.2-3.5-.9-6.8-1.5-10.8-2.1h-.8c-.7-.2-1.4-.3-2.1-.3s-.9,0-1.4-.1h-1.5c-2.6-.2-4.5-.2-4.5-.2,1.3,20.6.3,26.5-1.6,36.1h0Z"/>
        <polygon class="st27" points="172.1 331.3 174.2 334.4 171.4 335.6 170.1 331.4 172.1 331.3"/>
        <path class="st27" d="M134.2,314.8c.9,1.5,2,3.1,3,4.6s2.1,3.1,3.2,4.6,2.2,3,3.4,4.4c.6.7,1.2,1.4,1.7,2.1.3.4.6.7.9,1l.5.5.2.2h0c.4.4.8.6,1.3.8.7.2,1.5.4,2.3.6,1.8.3,3.5.4,5.3.4,3.6,0,7.4-.1,11.1-.5l.7,3.5c-3.8,1.1-7.7,1.9-11.6,2.3-2.1.2-4.1.3-6.2.2-1.1,0-2.3-.3-3.4-.5-1.4-.3-2.7-.9-3.8-1.8-.2-.1-.3-.3-.5-.4l-.3-.3-.5-.5c-.4-.4-.7-.7-1.1-1.1-.7-.7-1.4-1.4-2-2.2-1.3-1.5-2.6-3-3.8-4.6s-2.4-3.1-3.5-4.8-2.2-3.2-3.2-5l6.3-3.7v.2h0Z"/>
        <path class="st27" d="M166.2,334.5l3.9-3.1,2,3.9s-3.2,3.6-5.8,1.2v-2.1h0Z"/>
        <path class="st12" d="M128.4,320.7c-.7,3.5-.4,7,.7,10.4,2-6.5,3.1-10.9,3.7-13.9-1.8-.2-3.8.4-4.4,3.5Z"/>
        <path class="st0" d="M133,310.6c4,2.6,6.5,8.3,7.2,11.6l-9.2,7.5s-5-11.2-3.4-14c1.6-2.9,3.9-6.1,5.4-5.1Z"/>
        <path class="st0" d="M100.8,338.7l-1.4,1.9c0,.2,0,.4.3.4l24.9,4.8c.2,0,.4,0,.4-.2l.6-2.1c0-.1,0-.3-.4-.4l-24-4.7c-.2,0-.3,0-.4.1v.2h0Z"/>
        <path class="st12" d="M103.6,342h-.7c0-.1-.2-.2-.2-.3l.8-2.7s0-.1.3,0h.6c0,.1.2.2.2.3l-.8,2.7s0,.1-.3,0h0Z"/>
        <path class="st12" d="M119.8,345.2h-.6c0-.1-.2-.2-.2-.3l.8-2.7s0-.1.3,0h.6c0,.1.2.2.2.3l-.8,2.7q0,.1-.3.1h0Z"/>
        <path class="st17" d="M116.1,276c-3.3.1-6.1,2.4-6.8,5.6-1.3,4.3-2.2,9.9-5.3,9.3.7.7,2.6,1.3,3,.9-1.6,2.3-1.7,3.9-1.4,7.9.4,5-2.6,4.4-2.6,4.4,0,0,4,4.5,14.6,4.5s13.3-2.8,14.2-4.8c-1.3-.2-4.1-4.3-2.8-7.2,1.3-2.9,3-10.5,2-13.3,1.4,1.6,2,4.3,2.4,1.4s.3-6-3.7-8.9c-3.6-2.5-12.8-2.5-13.7.3h.1Z"/>
        <path class="st0" d="M117.5,284.4c0,2.6-1.5,4.6-3.3,4.6s-3.3-2-3.3-4.6,1.5-4.6,3.3-4.6,3.3,2.1,3.3,4.6Z"/>
        <path class="st17" d="M112.3,276.8c-2.9-1.9-8.3,1-10.8,3.5s-6.2,10.7-6.2,10.7c-2.5,2.6-5.9,4.2-9.6,4.3,0,0,9.3,4.3,12.3,3.8s5.3-3.3,5.3-3.3c-1.5,3.3-3.3,6.1-5.9,7.1,3.3-.7,6.3-2.4,8.6-4.9,2-2.4,2.2-8.1,2.2-8.1,0,0,3.5.5,5.5-2s1.5-9.3-1.3-11.2h0Z"/>
        <polygon class="st3" points="111.2 372.1 111.4 382.1 112.5 433.3 115.9 433.3 117 382.1 117.2 372.1 111.2 372.1"/>
        <polygon class="st6" points="111.2 372.1 111.4 382.1 112.5 433.3 115.9 433.3 117 382.1 117.2 372.1 111.2 372.1"/>
        <polygon class="st12" points="111.2 372.1 111.4 382.4 117 382.4 117.2 372.1 111.2 372.1"/>
        <polygon class="st3" points="92.3 433.2 95.5 372.8 100.8 372.8 96.3 433.2 92.3 433.2"/>
        <polygon class="st6" points="96.3 433.2 92.3 433.2 95.3 377.7 95.5 372.7 100.8 372.7 100.4 377.7 96.3 433.2"/>
        <polygon class="st12" points="100.8 372.7 100.4 377.9 95.3 377.9 95.5 372.7 100.8 372.7"/>
        <polygon class="st3" points="132.1 433.2 127.6 372.8 132.9 372.8 136.1 433.2 132.1 433.2"/>
        <polygon class="st6" points="132.1 433.2 128 377.7 127.6 372.7 132.9 372.7 133.2 377.7 136.1 433.2 132.1 433.2"/>
        <polygon class="st12" points="127.6 372.7 128 377.9 133.2 377.9 132.9 372.7 127.6 372.7"/>
        <path class="st3" d="M135.7,374.7h-42.9v-3.9c0-2,1.6-3.6,3.6-3.6h35.7c2,0,3.6,1.6,3.6,3.6h0v3.9h0Z"/>
        <rect class="st3" x="90.7" y="370.9" width="47.1" height="3.7" rx="1.7" ry="1.7"/>
        <rect class="st5" x="90.7" y="370.9" width="47.1" height="3.7" rx="1.7" ry="1.7"/>
        <polygon class="st3" points="87.5 325.7 90.3 325.7 98 370.9 95.3 370.9 87.5 325.7"/>
        <polygon class="st3" points="108.1 325.7 110.8 325.7 118.6 370.9 115.8 370.9 108.1 325.7"/>
        <polygon class="st6" points="87.5 325.7 90.3 325.7 98 370.9 95.3 370.9 87.5 325.7"/>
        <polygon class="st6" points="108.1 325.7 110.8 325.7 118.6 370.9 115.8 370.9 108.1 325.7"/>
        <path class="st3" d="M113.4,334.3h-25.5c-1.9,0-3.5-1.6-3.6-3.6l-2.6-11.1c-.3-2.4,1.4-4.6,3.6-4.6h25.5c1.9,0,3.5,1.6,3.6,3.5l2.6,11.1c.2,2.4-1.5,4.6-3.6,4.6h0Z"/>
        <rect class="st5" x="114.7" y="370.9" width="22.9" height="3.7" rx="1.7" ry="1.7"/>
      </g>
    </g>
    <polygon class="st3" points="305.4 195.7 306.1 195.4 321.4 246.3 320.3 246.6 305.4 195.7"/>
    <polygon class="st6" points="304.4 190.7 305.1 190.4 320.4 241.3 319.3 241.6 304.4 190.7"/>
  </g>
  <g>
    <g>
      <path class="st14" d="M206.2,75.5c-1.3-.9-1.9-2.3-2-4h5c0,.6.2,1,.5,1.3s.7.4,1.2.4.8,0,1.1-.3c.3-.2.4-.5.4-.9s-.2-.9-.7-1.1c-.5-.3-1.2-.6-2.2-.9-1.1-.4-2-.7-2.7-1.1-.7-.3-1.3-.8-1.8-1.5s-.8-1.5-.8-2.6.3-2,.8-2.8,1.3-1.4,2.2-1.8c1-.4,2-.6,3.2-.6,2,0,3.5.5,4.7,1.4s1.8,2.2,1.9,3.9h-5.1c0-.5-.2-.9-.5-1.1-.3-.3-.7-.4-1.1-.4s-.6,0-.9.3c-.2.2-.3.5-.3.9s.1.6.4.8c.2.2.6.4.9.6.4.2.9.4,1.6.6,1.1.4,1.9.7,2.6,1.1.7.4,1.3.9,1.8,1.5s.8,1.5.8,2.4-.3,1.9-.8,2.7c-.5.8-1.2,1.4-2.2,1.9-.9.5-2.1.7-3.4.7-2,0-3.6-.5-4.8-1.4h.2Z"/>
      <path class="st14" d="M220,63.9c.7-1.3,1.7-2.3,2.9-3,1.3-.7,2.7-1.1,4.4-1.1s3.9.6,5.3,1.7c1.4,1.1,2.4,2.6,2.8,4.6h-5c-.3-.6-.7-1.1-1.3-1.5-.5-.3-1.2-.5-1.9-.5-1.1,0-1.9.4-2.6,1.2-.6.8-1,1.8-1,3.1s.3,2.3,1,3.1c.6.8,1.5,1.2,2.6,1.2s1.3-.2,1.9-.5c.5-.3,1-.8,1.3-1.5h5c-.4,1.9-1.3,3.5-2.8,4.6-1.4,1.1-3.2,1.7-5.3,1.7s-3.1-.4-4.4-1.1c-1.3-.7-2.3-1.7-2.9-3-.7-1.3-1-2.8-1-4.5s.3-3.1,1-4.4h0Z"/>
      <path class="st14" d="M252.7,59.9v16.8h-4.7v-6.8h-5.7v6.8h-4.7v-16.8h4.7v6.3h5.7v-6.3s4.7,0,4.7,0Z"/>
      <path class="st14" d="M260,59.9v9.8c0,.9.2,1.6.6,2.1.4.5,1.1.7,1.9.7s1.5-.3,1.9-.8.7-1.2.7-2.1v-9.8h4.7v9.8c0,1.5-.3,2.9-1,4s-1.5,1.9-2.7,2.5c-1.1.5-2.4.8-3.7.8s-2.6-.3-3.7-.8c-1.1-.5-1.9-1.4-2.5-2.4s-.9-2.4-.9-4v-9.8s4.7,0,4.7,0Z"/>
      <path class="st14" d="M277.2,73.2h5.2v3.6h-9.9v-16.8h4.7v13.3h0Z"/>
      <path class="st14" d="M288.8,63.7v2.7h5.4v3.6h-5.4v3h6.1v3.8h-10.8v-16.8h10.8v3.8h-6.1Z"/>
    </g>
    <g class="st26">
      <path class="st14" d="M207.2,76.3c-1.3-.9-1.9-2.3-2-4h5c0,.6.2,1,.5,1.3s.7.4,1.2.4.8,0,1.1-.3c.3-.2.4-.5.4-.9s-.2-.9-.7-1.1c-.5-.3-1.2-.6-2.2-.9-1.1-.4-2-.7-2.7-1.1-.7-.3-1.3-.8-1.8-1.5s-.8-1.5-.8-2.6.3-2,.8-2.8,1.3-1.4,2.2-1.8c1-.4,2-.6,3.2-.6,2,0,3.5.5,4.7,1.4s1.8,2.2,1.9,3.9h-5.1c0-.5-.2-.9-.5-1.1-.3-.3-.7-.4-1.1-.4s-.6,0-.9.3c-.2.2-.3.5-.3.9s.1.6.4.8c.2.2.6.4.9.6.4.2.9.4,1.6.6,1.1.4,1.9.7,2.6,1.1.7.4,1.3.9,1.8,1.5s.8,1.5.8,2.4-.3,1.9-.8,2.7c-.5.8-1.2,1.4-2.2,1.9-.9.5-2.1.7-3.4.7-2,0-3.6-.5-4.8-1.4h.2Z"/>
      <path class="st14" d="M220.8,64.7c.7-1.3,1.7-2.3,2.9-3,1.3-.7,2.7-1.1,4.4-1.1s3.9.6,5.3,1.7c1.4,1.1,2.4,2.6,2.8,4.6h-5c-.3-.6-.7-1.1-1.3-1.5-.5-.3-1.2-.5-1.9-.5-1.1,0-1.9.4-2.6,1.2-.6.8-1,1.8-1,3.1s.3,2.3,1,3.1c.6.8,1.5,1.2,2.6,1.2s1.3-.2,1.9-.5c.5-.3,1-.8,1.3-1.5h5c-.4,1.9-1.3,3.5-2.8,4.6-1.4,1.1-3.2,1.7-5.3,1.7s-3.1-.4-4.4-1.1c-1.3-.7-2.3-1.7-2.9-3-.7-1.3-1-2.8-1-4.5s.3-3.1,1-4.4h0Z"/>
      <path class="st14" d="M253.5,60.7v16.8h-4.7v-6.8h-5.7v6.8h-4.7v-16.8h4.7v6.3h5.7v-6.3s4.7,0,4.7,0Z"/>
      <path class="st14" d="M260.8,60.7v9.8c0,.9.2,1.6.6,2.1.4.5,1.1.7,1.9.7s1.5-.3,1.9-.8.7-1.2.7-2.1v-9.8h4.7v9.8c0,1.5-.3,2.9-1,4s-1.5,1.9-2.7,2.5c-1.1.5-2.4.8-3.7.8s-2.6-.3-3.7-.8c-1.1-.5-1.9-1.4-2.5-2.4s-.9-2.4-.9-4v-9.8s4.7,0,4.7,0Z"/>
      <path class="st14" d="M277.9,74h5.2v3.6h-9.9v-16.8h4.7v13.3h0Z"/>
      <path class="st14" d="M289.7,64.5v2.7h5.4v3.6h-5.4v3h6.1v3.8h-10.8v-16.8h10.8v3.8h-6.1Z"/>
    </g>
  </g>
</svg>