<?xml version="1.0" encoding="UTF-8"?>
<svg id="Layer_1" xmlns="http://www.w3.org/2000/svg" version="1.1" viewBox="0 0 500 500">
  <!-- Generator: Adobe Illustrator 29.1.0, SVG Export Plug-In . SVG Version: 2.1.0 Build 142)  -->
  <defs>
    <style>
      .st0 {
        fill: #004a99;
      }

      .st1 {
        fill: #ebb376;
      }

      .st2 {
        fill: #263238;
      }

      .st3, .st4, .st5, .st6, .st7, .st8, .st9 {
        fill: #fff;
      }

      .st4 {
        opacity: .6;
      }

      .st4, .st5, .st6, .st7, .st10, .st11, .st8, .st9 {
        isolation: isolate;
      }

      .st12, .st5 {
        opacity: .4;
      }

      .st13 {
        fill: #dd0982;
      }

      .st14 {
        fill: #e9b376;
      }

      .st15 {
        fill: #e4897b;
      }

      .st16 {
        fill: #a24e3f;
      }

      .st6 {
        opacity: .5;
      }

      .st7 {
        opacity: .7;
      }

      .st10 {
        opacity: .3;
      }

      .st11, .st8 {
        opacity: .2;
      }

      .st17 {
        fill: #de5753;
      }

      .st18 {
        fill: #f5f5f5;
      }

      .st19 {
        fill: #d58745;
      }

      .st9 {
        opacity: .1;
      }
    </style>
  </defs>
  <g class="st12">
    <path class="st0" d="M245.1,108.9h102.6l5.9,3.6v-46.2c0-3.6-2.9-6.7-6.7-6.7h-101.8c-3.6,0-6.7,2.9-6.7,6.7h0v36c0,3.6,2.9,6.7,6.7,6.7h0Z"/>
    <path class="st3" d="M344.9,69.1h-97.8c-.3,0-.6-.3-.6-.6s.3-.6.6-.6h97.8c.3,0,.6.3.6.6s-.3.6-.6.6Z"/>
    <path class="st3" d="M344.9,75.2h-97.8c-.3,0-.6-.3-.6-.6s.3-.6.6-.6h97.8c.3,0,.6.3.6.6s-.3.6-.6.6Z"/>
    <path class="st3" d="M344.9,81.3h-97.8c-.3,0-.6-.3-.6-.6s.3-.6.6-.6h97.8c.3,0,.6.3.6.6s-.3.6-.6.6Z"/>
    <path class="st3" d="M344.9,93.6h-97.8c-.3,0-.6-.3-.6-.6s.3-.6.6-.6h97.8c.3,0,.6.3.6.6s-.3.6-.6.6Z"/>
    <path class="st3" d="M285.7,99.6h-38.8c-.3,0-.6-.3-.6-.6s.3-.6.6-.6h38.8c.3,0,.6.3.6.6s-.3.6-.6.6Z"/>
    <path class="st3" d="M344.9,87.5h-97.8c-.3,0-.6-.3-.6-.6s.3-.6.6-.6h97.8c.3,0,.6.3.6.6s-.3.6-.6.6Z"/>
  </g>
  <g class="st12">
    <path class="st0" d="M245.1,183.6h102.6l5.9,3.6v-46.2c0-3.6-2.9-6.7-6.7-6.7h-101.8c-3.6,0-6.7,2.9-6.7,6.7h0v36c0,3.6,2.9,6.7,6.7,6.7h0Z"/>
    <path class="st3" d="M344.9,143.9h-97.8c-.3,0-.6-.3-.6-.6s.3-.6.6-.6h97.8c.3,0,.6.3.6.6s-.3.6-.6.6Z"/>
    <path class="st3" d="M344.9,150h-97.8c-.3,0-.6-.3-.6-.6s.3-.6.6-.6h97.8c.3,0,.6.3.6.6s-.3.6-.6.6Z"/>
    <path class="st3" d="M344.9,156.1h-97.8c-.3,0-.6-.3-.6-.6s.3-.6.6-.6h97.8c.3,0,.6.3.6.6s-.3.6-.6.6Z"/>
    <path class="st3" d="M344.9,168.4h-97.8c-.3,0-.6-.3-.6-.6s.3-.6.6-.6h97.8c.3,0,.6.3.6.6s-.3.6-.6.6Z"/>
    <path class="st3" d="M285.7,174.4h-38.8c-.3,0-.6-.3-.6-.6s.3-.6.6-.6h38.8c.3,0,.6.3.6.6s-.3.6-.6.6Z"/>
    <path class="st3" d="M344.9,162.2h-97.8c-.3,0-.6-.3-.6-.6s.3-.6.6-.6h97.8c.3,0,.6.3.6.6s-.3.6-.6.6Z"/>
  </g>
  <g class="st12">
    <path class="st11" d="M209.4,246.9h-105l-6.7,4.2v-46.6c0-4.3,3.5-7.7,7.7-7.7h104c4.2,0,7.7,3.5,7.7,7.7h0v34.7c0,4.2-3.5,7.7-7.7,7.7Z"/>
    <path class="st3" d="M207.2,207.7h-99.5c-.4,0-.7-.3-.7-.7s.3-.7.7-.7h99.5c.4,0,.7.3.7.7s-.3.7-.7.7Z"/>
    <path class="st3" d="M207.2,214.9h-99.5c-.4,0-.7-.3-.7-.7s.3-.7.7-.7h99.5c.4,0,.7.3.7.7s-.3.7-.7.7Z"/>
    <path class="st3" d="M207.2,222h-99.5c-.4,0-.7-.3-.7-.7s.3-.7.7-.7h99.5c.4,0,.7.3.7.7s-.3.7-.7.7Z"/>
    <path class="st3" d="M151.2,236.3h-43.5c-.4,0-.7-.3-.7-.7s.3-.7.7-.7h43.5c.4,0,.7.3.7.7s-.3.7-.7.7Z"/>
    <path class="st3" d="M207.2,229h-99.5c-.4,0-.7-.3-.7-.7s.3-.7.7-.7h99.5c.4,0,.7.3.7.7s-.3.7-.7.7Z"/>
  </g>
  <g class="st12">
    <path class="st11" d="M212.6,144.3h-105l-6.7,4.2v-46.6c0-4.3,3.5-7.7,7.7-7.7h104c4.2,0,7.7,3.5,7.7,7.7h0v34.7c0,4.2-3.5,7.7-7.7,7.7Z"/>
    <path class="st3" d="M210.4,105.1h-99.5c-.4,0-.7-.3-.7-.7s.3-.7.7-.7h99.5c.4,0,.7.3.7.7s-.3.7-.7.7h0Z"/>
    <path class="st3" d="M210.4,112.2h-99.5c-.4,0-.7-.3-.7-.7s.3-.7.7-.7h99.5c.4,0,.7.3.7.7s-.3.7-.7.7h0Z"/>
    <path class="st3" d="M210.4,119.2h-99.5c-.4,0-.7-.3-.7-.7s.3-.7.7-.7h99.5c.4,0,.7.3.7.7s-.3.7-.7.7h0Z"/>
    <path class="st3" d="M154.4,133.5h-43.5c-.4,0-.7-.3-.7-.7s.3-.7.7-.7h43.5c.4,0,.7.3.7.7s-.3.7-.7.7Z"/>
    <path class="st3" d="M210.4,126.4h-99.5c-.4,0-.7-.3-.7-.7s.3-.7.7-.7h99.5c.4,0,.7.3.7.7s-.3.7-.7.7h0Z"/>
  </g>
  <g>
    <g id="freepik--Shadow--inject-2">
      <ellipse id="freepik--path--inject-2" class="st18" cx="250" cy="404" rx="242.2" ry="19.3"/>
    </g>
    <g id="freepik--speech-bubble-2--inject-2">
      <path class="st0" d="M381.3,111.4h-37.8c-7.1,0-13,5.9-13,13v15.7c0,7.1,5.9,13,13,13h16.1l4.3,13.7,4.3-13.7h12.9c7.1,0,13-5.9,13-13v-15.7c0-7.1-5.7-13-12.9-13Z"/>
      <path class="st3" d="M347.7,131.3c0,1.4-1.1,2.7-2.7,2.7s-2.7-1.1-2.7-2.7,1.1-2.7,2.7-2.7h0c1.5,0,2.7,1.3,2.7,2.7ZM356.7,128.6c-1.4,0-2.7,1.1-2.7,2.7s1.1,2.7,2.7,2.7,2.7-1.1,2.7-2.7h0c0-1.4-1.3-2.5-2.7-2.7h0ZM368.3,128.6c-1.4,0-2.7,1.1-2.7,2.7s1.1,2.7,2.7,2.7,2.7-1.1,2.7-2.7h0c-.1-1.4-1.3-2.5-2.7-2.7h0ZM379.8,128.6c-1.4,0-2.7,1.1-2.7,2.7s1.1,2.7,2.7,2.7,2.7-1.1,2.7-2.7h0c0-1.4-1.3-2.5-2.7-2.7h0Z"/>
    </g>
    <g id="freepik--speech-bubble-1--inject-2">
      <path class="st0" d="M119.8,157.6h-37.8c-7.1,0-13,5.9-13,13h0v15.7c0,7.1,5.9,13,13,13h16.1l4.3,13.7,4.3-13.7h12.9c7.1,0,13-5.9,13-13v-15.7c0-7.1-5.7-13-12.9-13h0Z"/>
      <path class="st3" d="M86.2,177.5c0,1.4-1.1,2.7-2.7,2.7s-2.7-1.1-2.7-2.7,1.1-2.7,2.7-2.7h0c1.5,0,2.7,1.3,2.7,2.7ZM95.2,174.8c-1.4,0-2.7,1.1-2.7,2.7s1.1,2.7,2.7,2.7,2.7-1.1,2.7-2.7h0c0-1.4-1.3-2.5-2.7-2.7h0ZM106.7,174.8c-1.4,0-2.7,1.1-2.7,2.5s1.1,2.7,2.5,2.7,2.7-1.1,2.7-2.5h0c0-1.4-1-2.5-2.5-2.7h0ZM118.3,174.8c-1.4,0-2.7,1.1-2.7,2.7s1.1,2.7,2.7,2.7,2.7-1.1,2.7-2.7h0c0-1.4-1.3-2.5-2.7-2.7h0Z"/>
    </g>
    <g id="freepik--character-4--inject-2">
      <path class="st2" d="M415.5,404.5h-177.8c-33.2,0-35.3-39.1-8-57.5,5-3.4,10.5-5.7,16.4-7.1,54-14.1,129.9-109.7,183.4-69.7h.1c53.2,40.3,16,134.4-14.1,134.4Z"/>
      <path class="st6" d="M415.5,404.5h-177.8c-33.2,0-35.3-39.1-8-57.5,5-3.4,10.5-5.7,16.4-7.1,54-14.1,129.9-109.7,183.4-69.7h.1c53.2,40.3,16,134.4-14.1,134.4Z"/>
      <path class="st11" d="M429.3,270c-4.5-.3-9.9,1-15.8,5.9-15.3,12.7,7.8,74.1-28.4,99.5-20.3,14.3-107.6,20.4-136.9,3.1-21.6-12.9-21.8-21-18.5-31.5,5-3.4,10.5-5.7,16.4-7.1,53.9-14.3,129.8-109.7,183.2-69.9h0Z"/>
      <g id="freepik--group--inject-2">
        <path class="st15" d="M291.2,258.5l-10.6-7.4,8-8.1s8.1,4.2,7.4,11.8l-4.8,3.8h0Z"/>
        <polygon class="st15" points="276.3 242.7 283.7 238.2 288.5 242.9 280.5 251 276.3 242.7"/>
        <path class="st2" d="M343.2,239.2c-10.1,2.9-15,20.6-23.2,37.2l-24.1-23.9-7.7,6.9s22.1,35.1,32.5,35.1,26.6-36.1,26.6-36.1l-4.1-19.2Z"/>
        <path class="st9" d="M347.3,258.2s-2.1,5.7-5.6,12.6c-3.4,6.7-7.7,14.6-12.6,19.2-2.8,2.7-5.6,4.3-8.4,4.3-10.5,0-32.5-35.1-32.5-35.1l7.7-6.9,24.1,23.9c8.3-16.7,13.2-34.3,23.2-37.2l4.1,19.2h0Z"/>
        <path class="st11" d="M341.7,270.8c-3.4,6.7-7.7,14.6-12.6,19.2.6-16,8.4-31.6,8.4-31.6,2.2,3.9,3.6,8.1,4.2,12.5Z"/>
        <path class="st0" d="M333.7,336.8s-85.1-12.2-89.7,6.4c-4.8,19.7,63.7,33,104.6,34.4,40.9,1.4,52.6-8.4,46.1-58.8h-56l-4.9,17.9h0Z"/>
        <path class="st4" d="M333.7,336.8s-85.1-12.2-89.7,6.4c-4.8,19.7,63.7,33,104.6,34.4,40.9,1.4,52.6-8.4,46.1-58.8h-56l-4.9,17.9h0Z"/>
        <polygon class="st15" points="286.3 375.7 268.3 375.7 259.8 375.7 258.8 366.7 266.7 365.6 286.1 363.1 286.3 375.7"/>
        <path class="st2" d="M260.6,365.6l2.1,10.4c.1.6-.3,1.1-.8,1.3h0l-5.2,1s-6.9,1.7-8.7.6c-5.6-3.6-10.9-26.2-8.7-27.9.8-.6,2.2.3,2.9,1.1,2.2,2.4,7.1,8.8,9.1,10.8,2.2,2.2,6.3,2.4,8,2.2.7-.4,1.3,0,1.3.6Z"/>
        <polygon class="st11" points="286.3 375.7 268.3 375.7 266.7 365.6 286.1 363.1 286.3 375.7"/>
        <polygon class="st15" points="312.3 359.7 329.2 365.3 337.3 368.1 335.5 377 327.7 375.4 308.5 371.8 312.3 359.7"/>
        <path class="st2" d="M333.3,377.4l1.3-10.5c.1-.6.6-1,1.1-1h0l5.2.7s7,.6,8.4,2.2c4.2,5.2,2.1,28.4-.6,29.3-1,.3-2.1-1-2.5-2-1.4-2.9-4.1-10.6-5.2-13.2-1.4-2.8-5.2-4.2-6.9-4.6-.6,0-.8-.4-.8-1Z"/>
        <polygon class="st11" points="312.3 359.7 329.2 365.3 327.7 375.4 308.5 371.8 312.3 359.7"/>
        <polygon class="st0" points="324.8 377.1 319.9 377.5 322.8 360.9 328.2 363.7 324.8 377.1"/>
        <polygon class="st4" points="324.8 377.1 319.9 377.5 322.8 360.9 328.2 363.7 324.8 377.1"/>
        <path class="st0" d="M340.8,383.1c.1.7,0,1.5-.3,2.2-.3.4-.7.7-1.3.7s-.6-.1-.7-.4c-.7-1.3,1-5,1.3-5.5,0-.1.1-.1.3-.1s.1.1.3.1c0,1,.3,2,.4,2.9h0ZM338.9,384.9c0,.1,0,.3.1.3,0,.1.1.1.3.1.3,0,.7-.1.8-.4.4-1.4.3-2.8-.1-4.1-.7,1.4-1.1,2.7-1.1,4.1h0Z"/>
        <path class="st0" d="M340.1,380.2h0c-.4,1.3-2.5,3.8-3.8,3.5-.4-.1-.7-.4-.7-.8-.1-.4,0-.8.1-1.1.8-1.4,3.9-1.8,4.1-1.8s.3.1.3.3h0ZM336.2,382.7h0c.1.4.3.4.3.6.7.1,2.2-1.4,2.9-2.7-1.3.1-2.2.7-3.2,1.5,0,0-.1.4,0,.6h0Z"/>
        <path class="st0" d="M270,364.4s79.2-30.8,103.6-25.6,24.4,17.9,12,29.7-30.7,7.3-30.7,7.3c0,0,14.4-8.7,13.4-14s-10.2,6.9-10.2,6.9c0,0-47.9,11.8-87.5,8.7l-.7-12.9h0Z"/>
        <path class="st0" d="M252.1,362.7c-.4-.6-.7-1.4-.7-2.1s.4-1,.8-1.1c.3-.1.6-.1.8,0,1.3.7,1.4,4.9,1.4,5.5s0,.1-.1.3h-.3c-.7-.8-1.4-1.7-2-2.5h0ZM253.1,360.2s-.1-.1-.3-.3h-.3c-.3.1-.6.4-.6.7.3,1.4,1,2.7,2.1,3.5-.1-1.4-.4-2.7-1-3.9h0Z"/>
        <path class="st0" d="M254.1,364.9h0c-.1-1.4.6-4.5,1.7-4.9.4-.1.8,0,1,.4.3.3.4.7.4,1.1-.1,1.7-2.7,3.4-2.8,3.5h-.3ZM256.4,360.7h0c-.3-.4-.4-.3-.4-.3-.7.3-1.4,2.4-1.4,3.8.7-.6,2-1.8,2.1-2.8,0-.1,0-.4-.3-.7h0Z"/>
        <path class="st7" d="M270,364.4s79.2-30.8,103.6-25.6,24.4,17.9,12,29.7-30.7,7.3-30.7,7.3c0,0,14.4-8.7,13.4-14s-10.2,6.9-10.2,6.9c0,0-47.9,11.8-87.5,8.7l-.7-12.9h0Z"/>
        <polygon class="st0" points="269 364.1 273.5 362 276 378.8 269.9 377.7 269 364.1"/>
        <polygon class="st4" points="269 364.1 273.5 362 276 378.8 269.9 377.7 269 364.1"/>
        <path class="st2" d="M400.2,241.9c-8.5,47.6-5.5,78.4-5.5,78.4,0,0-39.8-.6-56.1-1.4-8.7-57.7,4.8-79.6,4.8-79.6,4.3-.8,8.5-1.4,12.9-1.8.8,0,1.8-.1,2.8-.1,7.7,0,15.4.4,23.1,1.3,1.4.1,2.9.3,4.3.6,7.3,1.1,13.7,2.8,13.7,2.8Z"/>
        <path class="st9" d="M400.2,241.9c-1.1,5.9-2,11.6-2.7,16.9-1.1,8.4-2,16.2-2.4,23.1-.1,2.1-.3,4.1-.4,6-.4,7.1-.6,13.2-.6,18.1,0,9.2.6,14.3.6,14.3,0,0-39.8-.6-56.1-1.4-8.7-57.7,4.8-79.6,4.8-79.6,4.3-.8,8.5-1.4,12.9-1.8.8,0,1.8-.1,2.8-.1,7.7,0,15.4.4,23.1,1.3,1.4.1,2.9.3,4.3.6,7.3,1.1,13.7,2.8,13.7,2.8Z"/>
        <path class="st11" d="M364.6,294.4c10.2-1.3,20.3-3.4,30.1-6.4-.4,7.1-.6,13.2-.6,18.1-19,1.7-26.7-2-26.7-2l-2.8-9.7Z"/>
        <path class="st11" d="M397.5,258.8c-1.1,8.4-2,16.2-2.4,23.1-5.5-11.1-1.4-24.4-1.4-24.4l3.8,1.3Z"/>
        <path class="st2" d="M366.7,314h-29c-1.1,0-2.1-1-2.2-2.1l-4.1-38.5c-.1-1,.6-2,1.7-2h29.3c1.1,0,2.1.8,2.2,2.1l4.1,38.5c.1,1-.6,2-1.5,2.1-.1-.1-.3-.1-.4-.1Z"/>
        <path class="st4" d="M366.7,314h-29c-1.1,0-2.1-1-2.2-2.1l-4.1-38.5c-.1-1,.6-2,1.7-2h29.3c1.1,0,2.1.8,2.2,2.1l4.1,38.5c.1,1-.6,2-1.5,2.1-.1-.1-.3-.1-.4-.1Z"/>
        <path class="st8" d="M365.6,314h-27.7c-1.1,0-2.1-1-2.2-2.1l-4.1-38.5c-.1-1,.6-2,1.7-2h28c1.1,0,2.1.8,2.2,2.1l4.1,38.5c.1,1-.6,2-1.5,2.1-.3-.1-.4-.1-.4-.1h0Z"/>
        <path class="st2" d="M348.7,289.6c-1.5,0-2.8,1.3-2.8,2.8v.4c.1,1.8,1.7,3.1,3.4,3.1s2.8-1.3,2.8-2.8v-.4c-1.7,0-3.2-1.4-3.4-3.1Z"/>
        <path class="st10" d="M355,274.5h-15.4c-.7,0-1.4-.4-1.8-1.1l-.8-2h20.2l-.6,2c-.1.7-.8,1.3-1.5,1.1Z"/>
        <path class="st15" d="M363.9,293.1l-6.7-.6.3,9,5.6,2.9,12.9-1.1,1.1-6c-4.2-6.3-13.2-4.2-13.2-4.2h0Z"/>
        <path class="st2" d="M400.2,241.9c6.9,2.1,16.7,42,15.1,50.8-1.5,8.8-18.5,12.6-40,12v-10.4l25.1-7.3-4.2-15.4s-3.5-11.3-2-19.3c.7-4.1,2.8-7.7,6-10.5h0Z"/>
        <path class="st9" d="M400.2,241.9c6.9,2.1,16.7,42,15.1,50.8-1.5,8.8-18.5,12.6-40,12v-10.4l25.1-7.3-4.2-15.4s-3.5-11.3-2-19.3c.7-4.1,2.8-7.7,6-10.5h0Z"/>
        <path class="st15" d="M378.8,238.1c-3.5,3.6-9,6.7-17.8,6.3-6.7-.3-7.7-4.5-6.4-6.9,4.1-.8,5.9-2.7,6.4-4.9s-.3-5.3-1.4-8.1l11.3-9.5,2-1.7c0,.6,0,1.1-.1,1.7-.1,2.2-.1,4.5,0,6.7.4,6.3,2,13.2,6,16.4h0Z"/>
        <path class="st11" d="M372.8,221.9c-2.1,4.3-5.9,9.5-11.8,10.9.6-2.4-.3-5.3-1.4-8.1l11.3-9.5c.6,0,1.3,0,1.8.1-.1,2.1-.1,4.3,0,6.6h0Z"/>
        <path class="st2" d="M346.9,196.1c-1.7,3.8-1.8,12,3.9,9.9s-1.1-16.5-3.9-9.9Z"/>
        <path class="st15" d="M374.6,204.5c-.6,10.2-.3,16.2-5.3,21.4-7.7,7.8-20.3,3.2-23-6.9-2.2-9.1-1.1-24.4,8.8-28.4,7.1-2.9,15.4.6,18.3,7.7.8,2,1.3,4.1,1.1,6.2Z"/>
        <path class="st2" d="M359,207.4c0,.8-.4,1.5-1,1.5s-1-.7-1-1.5.4-1.5,1-1.5,1,.7,1,1.5Z"/>
        <path class="st2" d="M349.7,207.4c0,.8-.4,1.5-1,1.5s-1-.7-1-1.5.4-1.5,1-1.5,1,.7,1,1.5Z"/>
        <path class="st17" d="M352.7,207.9c-1,2.5-2.4,4.8-3.9,6.9,1.1.7,2.7,1,3.9.7v-7.6Z"/>
        <path class="st2" d="M362,204.4c-.1,0-.3,0-.4-.1-.7-1-2-1.7-3.1-1.7s-.6-.1-.6-.4.1-.6.4-.6h0c1.5,0,3.1.7,4.1,2,.1.3.1.6-.1.7,0,.1-.3.1-.3.1h0Z"/>
        <path class="st2" d="M345.6,204.2h-.3c-.3-.1-.3-.4-.3-.7h0c.6-1.4,2-2.5,3.5-2.8.3,0,.6.1.6.4h0c0,.3-.1.6-.4.6h0c-1.3.3-2.2,1.1-2.8,2.2,0,.1,0,.3-.3.3h0Z"/>
        <path class="st2" d="M358.5,196.4s2.8-2,4.1.1,1.3,8,1.3,8l.6-1s3.6,12.9,8.8,9.7c5.2-3.2,13-16.4.7-23,0,0-1.3-3.1-9.4-4.6s-17.9,3.5-19.6,8.8.7,8.4.7,8.4c.3-1.1.8-2.2,1.5-3.2.3,1.1,1,2.1,2.1,2.5-.1-1.1.1-2.2.7-3.2.3,1,.7,1.8,1.4,2.5.6-5.5,4.3-6.6,5.5-6.6s1.5.7,1.7,1.5h0Z"/>
        <path class="st15" d="M378.6,212.9c-.7,2.4-2.5,4.5-4.8,5.7-3.1,1.5-5.2-1-5-4.2.3-2.9,2.1-7.1,5.3-7.4,2.4-.1,4.5,1.8,4.6,4.2.1.6,0,1.1,0,1.7h-.1Z"/>
        <path class="st2" d="M353,218.8c.8,1,1.7,2,2.4,2.9l.6-.3c2.7-1.4,3.5-2.9,3.6-4.2,0-.6-.1-1.3-.4-1.8-.1-.3-.3-.6-.6-.8-1.3,1.5-2.9,2.9-4.8,3.8-.4.3-.8.4-.8.4h0Z"/>
        <path class="st3" d="M354,218.2l.7.8c2.5-1.3,4.2-2.5,4.6-3.8-.1-.3-.3-.6-.6-.8-1.4,1.7-2.9,2.9-4.8,3.8Z"/>
        <path class="st16" d="M356.1,221.4c2.7-1.4,3.5-2.9,3.6-4.2-1,.6-2,1.3-2.7,2.1-.7.6-1,1.3-1,2.1Z"/>
      </g>
    </g>
    <g id="freepik--character-1--inject-2">
      <path class="st14" d="M117.3,298.1c6.9,6.9,13.4,14.6,21.7,19.7l.6.3c-.3-.1-.4-.1-.7-.1s.1,0,.6,0c9.2-2.7,17.9-8.7,26.5-13.3,1.5-.8,3.4-.4,4.3,1.1.7,1.3.6,2.8-.6,3.9-6.7,6.2-24.6,22.7-34,19.2-5.7-2.1-10.6-6.2-15.1-9.9s-8.5-8-12.5-12.3c-5.5-6.3,3.5-14.4,9.2-8.5h0Z"/>
      <path class="st0" d="M129.1,307.8c-1.3,9-8.4,17.6-8.4,17.6l-1.5-1-7.4-4.9s-.1-.4-.3-1.1c-.1-.7-.4-1.5-.8-2.8-1.7-5.9-4.8-17.1-5.2-21.7,9.2-.1,13.3,4.2,23.7,13.9h0Z"/>
      <path class="st7" d="M129.1,307.8c-1.3,9-8.4,17.6-8.4,17.6l-1.5-1-7.4-4.9s-.1-.4-.3-1.1c-.1-.7-.4-1.5-.8-2.8-1.7-5.9-4.8-17.1-5.2-21.7,9.2-.1,13.3,4.2,23.7,13.9h0Z"/>
      <path class="st11" d="M119.1,324.5l-7.4-4.9s-.1-.4-.3-1.1c.3-2.2.7-4.5,1.3-6.7,3.9,3.1,6.3,7.7,6.4,12.7h0Z"/>
      <path class="st2" d="M110.2,351.8l6.3,11.1c16.8-3.9,70.8-12.2,77.4,6.3,8.3,23-51.2,41.3-84.3,42.4-33,1.1-61.7-6.7-40.9-54.7l41.4-5h0Z"/>
      <path class="st11" d="M110.2,351.8l6.3,11.1c16.8-3.9,70.8-12.2,77.4,6.3,8.3,23-51.2,41.3-84.3,42.4-33,1.1-61.7-6.7-40.9-54.7l41.4-5h0Z"/>
      <path class="st2" d="M184.3,401.6h-.3c.1-.6,1.3-3.6,2.2-4.1.3,0,.4,0,.7.1.3.3.4.7.4,1.1-.1.6-.6,1.1-1,1.5-.7.6-1.4,1-2.1,1.3h0ZM184.6,401c1-.4,1.8-1.3,2.4-2.2,0-.3,0-.6-.3-.7,0-.1-.1-.1-.3-.1s-.1.1-.3.1c-.7,1-1.3,2-1.5,2.9h0Z"/>
      <path class="st2" d="M184.2,401.7h-.1c-.1-.1-1.7-2-1.4-3.4,0-.3.3-.6.6-.8s.6-.3.8-.1c.8.7.7,3.2.1,4.3h0ZM183.4,397.9c-.1.1-.3.3-.3.4,0,1,.4,2,1,2.7.3-1.1.1-2.9-.3-3.2,0,0,0-.1-.4.1h0Z"/>
      <path class="st2" d="M126.4,407c0-.1.1-.1.1-.1,0,0,.1,0,.1.1.1.4.7,3.6-.1,4.5s-.4.3-.7.1c-.4,0-.7-.4-.8-.7-.1-.6-.1-1.3.1-1.8.4-.7.8-1.4,1.3-2.1h0ZM126.4,407.7c-.7.8-1,2-1,3.1.1.3.3.4.6.6h.3c0-.1.1-.1.1-.3.3-1.1.3-2.2,0-3.4h0Z"/>
      <polygon class="st1" points="148 390.4 134.4 395.2 127.9 397.5 129.6 404.7 135.9 403.3 151.3 400 148 390.4"/>
      <path class="st0" d="M131.3,404.9l-1.1-8.4c0-.4-.4-.8-1-.7h0l-4.2.7s-5.6.6-6.7,2c-3.2,4.2-1.3,22.8,1,23.5.8.3,1.7-.8,2-1.5,1.1-2.4,3.1-8.7,4.1-10.6,1.1-2.4,4.2-3.5,5.5-3.9.4,0,.7-.6.6-1h0Z"/>
      <path class="st2" d="M126.4,407h.3c.1,0,2.4,1,2.8,2.2.1.3,0,.7-.1,1s-.4.6-.7.6c-1-.1-2.1-2.4-2.2-3.5v-.3h0ZM129.1,409.8v-.6c-.3-.8-1.5-1.5-2.2-1.8.3,1.1,1.3,2.7,1.8,2.7l.4-.3h0Z"/>
      <polygon class="st11" points="148 390.4 134.4 395.2 135.9 403.3 151.3 400 148 390.4"/>
      <polygon class="st0" points="138.3 404.5 142.2 404.8 139.6 391.4 135.2 393.9 138.3 404.5"/>
      <polygon class="st4" points="138.3 404.5 142.2 404.8 139.6 391.4 135.2 393.9 138.3 404.5"/>
      <path class="st11" d="M81.7,352.5l20.3,22.5s22.4-.6,49.7,12.9c0,0,29.3-12,31.9-22.1,3.5-13.2-67.2-2.8-67.2-2.8l-34.7-10.5h0Z"/>
      <path class="st0" d="M109.9,361.4l-41.4-4.8c.8-4.3,1.3-8.5,1.4-12.9,0-6.2,0-12.3-.7-18.5-.6-5.9-1.4-12.6-2.8-20.6-1-5.3,2.4-10.4,7.7-11.5.7-.1,1.4-.1,2.1-.1,1.7,0,3.4.1,5.2.1,6.3.3,12.6,1,18.9,2.2,2,.4,4.1.8,6.2,1.4,7.1,1.8,11.6,10.9,11.1,18.2-.3,5.6-.8,11.3-1.8,16.9-1.4,8-2.9,16.1-5.7,29.4h0Z"/>
      <path class="st7" d="M109.9,361.4l-41.4-4.8c.8-4.3,1.3-8.5,1.4-12.9,0-6.2,0-12.3-.7-18.5-.6-5.9-1.4-12.6-2.8-20.6-1-5.3,2.4-10.4,7.7-11.5.7-.1,1.4-.1,2.1-.1,1.7,0,3.4.1,5.2.1,6.3.3,12.6,1,18.9,2.2,2,.4,4.1.8,6.2,1.4,7.1,1.8,11.6,10.9,11.1,18.2-.3,5.6-.8,11.3-1.8,16.9-1.4,8-2.9,16.1-5.7,29.4h0Z"/>
      <path class="st11" d="M70,343.8c0-6.2,0-12.3-.7-18.5,5.2-6.2,10.1-11.2,10.1-11.2,0,0,8.1,20.7-9.4,29.7Z"/>
      <path class="st14" d="M76.6,311.7c.4,8.8.4,22.7,2,31.1l-.4-1c-.3-.4,0,0,0,.3.4.4.8.7,1.3,1.1,5.6,4.2,12.3,7.4,18.6,10.8l8,4.1c1.5.8,2.2,2.7,1.4,4.2-.7,1.3-2.1,2-3.5,1.7-3.1-.7-5.9-1.5-9-2.5-8.4-2.8-17.1-5.5-24.2-10.9-1.4-1.1-2.5-2.5-3.2-4.2-3.2-11.5-3.5-22.5-3.8-34.3.4-8.3,12.2-8.4,12.7-.3h.1Z"/>
      <path class="st1" d="M117.3,357.5l-2.5-1.8c-1-.7-2.1-.8-3.2-.6l-5.2,1.7c-2.1.7-3.6,2.4-4.3,4.5l-.4,1.3c3.9,3.4,10.6,3.9,10.6,3.9l2,.4c1.7.4,3.2-.6,3.6-2.2h0l.8-3.8c.3-1.3-.3-2.7-1.4-3.4Z"/>
      <path class="st0" d="M72.8,293.5c-8.1,2.9-10.4,9.9-10.6,24.6,4.2,3.8,16.9,4.1,16.9,4.1,0,0,2.2-22.3-6.3-28.7Z"/>
      <path class="st2" d="M170.8,365.6v3.4c0,.8-1,1.3-1.8,1.3h-66.6c-.8,0-2-.3-2-1.3v-3.4h70.4,0Z"/>
      <path class="st5" d="M170.8,365.6v3.4c0,.8-1,1.3-1.8,1.3h-66.6c-.8,0-2-.3-2-1.3v-3.4h70.4,0Z"/>
      <path class="st11" d="M170.8,365.6v3.4c0,.8-1,1.3-1.8,1.3h-44c-.8,0-1.8-.3-1.8-1.3v-3.4h47.6Z"/>
      <path class="st2" d="M182,330.9l-8,36c-.3,1.1-1.4,2-2.5,2.1h-43.4c-1,0-1.7-.8-1.7-1.8s0-.3.1-.4l8-35.7c.3-1.1,1.4-1.8,2.5-1.8h43.4c1,0,1.7.6,1.5,1.7h0Z"/>
      <path class="st5" d="M182,330.9l-8,36c-.3,1.1-1.4,2-2.5,2.1h-41.9c-1,0-1.7-.8-1.7-1.8s0-.3.1-.4l8-35.7c.3-1.1,1.4-1.8,2.5-1.8h41.9c1,0,1.7.6,1.5,1.7h0Z"/>
      <path class="st11" d="M160.6,349.2h0c-.3,3.1-2.7,5.3-5.7,5.6-2.4,0-3.9-2.5-3.2-5.6s3.1-5.5,5.5-5.6c-.7,3.1.8,5.6,3.2,5.6h.3Z"/>
      <path class="st1" d="M167.4,310.9l9.4.3-4.2-9.4s-8.3.3-8,4.6l2.8,4.5Z"/>
      <polygon class="st1" points="184.8 306.5 178.3 299.5 172.5 301.6 176.8 311.2 184.8 306.5"/>
      <path class="st1" d="M79.2,293.1c-1,0,2,11.6,16.1,14.6s13-10.1,11.9-13.4c.1,0-18.5-.6-28-1.1Z"/>
      <path class="st13" d="M83.1,247.3s8.1-9,23-4.3c14.8,4.6,14.1,31.1,6.7,40.7-11.8-.4-23.7.7-35.1,3.2,0,0-7.1-19.2-3.6-30.5s9.1-9.1,9.1-9.1Z"/>
      <path class="st1" d="M86.1,273.8c1,6.3,1.7,17.5-2.8,21.1,0,0,5.9-.1,17.1,8.7,4.1-4.6,1.7-6.6,1.7-6.6-6.7-2.4-6.3-7.4-4.9-12l-11.1-11.2Z"/>
      <path class="st11" d="M90.7,278.3l6.6,6.7c-.3,1.1-.6,2.2-.7,3.4-2.5-.7-6-3.9-6.2-6.7-.1-1.1,0-2.2.3-3.4Z"/>
      <path class="st1" d="M82.4,261c.7,9.9.8,14.1,5.9,19.6,7.6,8,19.6,5.6,21.8-4.2,2-8.8.6-23.7-9.1-28-6.3-3.1-14-.6-17.2,5.7-1.3,2.1-1.7,4.5-1.4,6.9Z"/>
      <path class="st2" d="M94.6,264.1c0,.8.4,1.5,1,1.5s1-.7,1-1.5-.4-1.5-1-1.5-1,.6-1,1.5Z"/>
      <path class="st2" d="M105.1,264.1c0,.8.4,1.5,1,1.5s1-.7,1-1.5-.4-1.5-1-1.5-1,.7-1,1.5Z"/>
      <path class="st2" d="M105.8,262.7l2-.6s-1,1.5-2,.6Z"/>
      <path class="st19" d="M101.9,265.9c.8,2,1.8,3.8,3.1,5.5-.8.6-2,.7-2.9.4v-5.9h-.1Z"/>
      <path class="st2" d="M92.9,258.7c.1,0,.3,0,.3-.1.8-.8,2.1-1.1,3.4-.8.3.1.4,0,.6-.3h0c.1-.3-.1-.6-.3-.7-1.5-.4-3.1,0-4.2,1-.1.1-.1.6,0,.7,0,.1.1.3.3.3h0Z"/>
      <path class="st2" d="M109.2,258.8h.3c.3-.1.3-.4.1-.7h0c-.8-1.4-2.1-2.4-3.8-2.7-.3,0-.4.1-.4.4h0c0,.3.1.6.4.6,1.3.1,2.4,1,2.9,2.1,0,.1.3.3.4.3h0Z"/>
      <path class="st2" d="M95.3,262.6l2-.6c0,.1-1,1.7-2,.6Z"/>
      <path class="st13" d="M84.4,266.9s7.7-6,5.9-15.5c0,0,13.7-5.5,19.2,8.4,0,0,1.1-11.9-11.8-14.1-12.9-2.2-28.3,15.3-13.6,28.6l.3-7.3h0Z"/>
      <path class="st1" d="M79.2,269c1,1.8,2.7,3.2,4.8,3.9,2.7.7,3.8-1.8,2.9-4.5-.8-2.4-3.1-5.6-5.6-5.2-2.5.3-3.4,3.4-2.1,5.7h0Z"/>
      <path class="st13" d="M111.1,265.8c-.1,0-.3-.1-.3-.1-4.9-17.4-21.3-13.9-21.4-13.9s-.3,0-.3-.3,0-.3.3-.3,17.1-3.8,22.1,14.1c-.1.1-.3.3-.4.4h0Z"/>
      <path class="st2" d="M102.6,274.8c-.4,1.1-.8,2.4-1.3,3.5h-.7c-2.9-.3-4.2-1.4-4.8-2.7-.3-.6-.3-1.1-.3-1.8s.1-.7.1-1c1.7,1,3.6,1.7,5.7,1.8.7,0,1.1.1,1.1.1h0Z"/>
      <path class="st3" d="M101.6,274.6l-.4,1c-2.8-.3-4.8-.8-5.5-1.8,0-.3.1-.7.1-1,1.8,1,3.6,1.5,5.7,1.8h0Z"/>
      <path class="st17" d="M100.8,278.1c-2.9-.3-4.2-1.4-4.8-2.7,1.1.1,2.2.4,3.2,1,.7.6,1.1,1.1,1.5,1.7h0Z"/>
      <path class="st2" d="M100.2,321.4s-.1,0-.3-.1c-7.4-8-13-17.5-16.4-27.9,0-.1,0-.4.3-.4s.3,0,.4.3h0c3.4,10.1,8.7,19.3,16,27.2.8-2.8,4.3-16.1-1-26.3,0-.1,0-.4.3-.4s.3,0,.4.1c6,11.6.8,27.2.8,27.3-.3,0-.3.3-.6.3h0Z"/>
      <path class="st3" d="M100.6,320.8l1.1,1.4c.1.3.1.6,0,.8l-1.1,1.4c-.3.3-.7.3-1,.1h-.1c0-.1-1-1.3-1-1.3-.1-.3-.1-.6,0-.8l.8-1.7c.1-.3.6-.4,1-.3,0,.1.3.1.3.3Z"/>
      <path class="st7" d="M72.8,293.5c-8.1,2.9-10.4,9.9-10.6,24.6,4.2,3.8,16.9,4.1,16.9,4.1,0,0,2.2-22.3-6.3-28.7Z"/>
      <polygon class="st1" points="157.3 405.8 171.6 408.2 178.3 409.3 180.4 402.1 174.3 400.3 159.2 395.7 157.3 405.8"/>
      <path class="st0" d="M179,401l-3.1,7.8c-.1.4,0,1,.6,1.1h0l3.9,1.4s5.2,2.2,6.9,1.5c4.9-2.1,12.2-19.5,10.5-21-.6-.6-1.8,0-2.5.4-2.1,1.5-6.9,6.2-8.7,7.4-2.1,1.5-5.3,1-6.7.7-.3,0-.7.3-.8.6h0Z"/>
      <polygon class="st11" points="157.3 405.8 171.6 408.2 174.3 400.3 159.2 395.7 157.3 405.8"/>
      <path class="st2" d="M171.8,398.9s-57.8-32.5-77.8-31.6-22.8,18.5-14.6,29.5c8.3,11.1,23.5,13.7,23.5,13.7,0,0-10.4-14.7-8.8-18.8,1.5-4.1,7.3,1.7,7.3,1.7,0,0,36.4,11.8,68.3,14.4l2.1-9Z"/>
      <polygon class="st0" points="172.7 397.9 169.4 395.9 165.2 408.7 170.2 408.7 172.7 397.9"/>
      <polygon class="st4" points="172.7 397.9 169.4 395.9 165.2 408.7 170.2 408.7 172.7 397.9"/>
    </g>
  </g>
</svg>