<?xml version="1.0" encoding="UTF-8"?>
<svg id="Layer_1" xmlns="http://www.w3.org/2000/svg" version="1.1" viewBox="0 0 500 500">
  <!-- Generator: Adobe Illustrator 29.1.0, SVG Export Plug-In . SVG Version: 2.1.0 Build 142)  -->
  <defs>
    <style>
      .st0 {
        fill: #004a99;
      }

      .st1 {
        fill: #ebb376;
      }

      .st2 {
        fill: #263238;
      }

      .st3, .st4, .st5, .st6, .st7, .st8, .st9 {
        fill: #fff;
      }

      .st4 {
        opacity: .6;
      }

      .st4, .st5, .st6, .st7, .st10, .st11, .st8, .st9 {
        isolation: isolate;
      }

      .st12 {
        opacity: .4;
      }

      .st13 {
        fill: #dd0982;
      }

      .st5 {
        opacity: .4;
      }

      .st14 {
        fill: #e9b376;
      }

      .st15 {
        fill: #e4897b;
      }

      .st16 {
        fill: #a24e3f;
      }

      .st6 {
        opacity: .5;
      }

      .st7 {
        opacity: .7;
      }

      .st10 {
        opacity: .3;
      }

      .st11, .st8 {
        opacity: .2;
      }

      .st17 {
        fill: #de5753;
      }

      .st18 {
        fill: #f5f5f5;
      }

      .st19 {
        fill: #d58745;
      }

      .st9 {
        opacity: .1;
      }
    </style>
  </defs>
  <g class="st12">
    <path class="st0" d="M246.5,204h73.3l4.2,2.6v-33c0-2.6-2.1-4.8-4.8-4.8h-72.7c-2.6,0-4.8,2.1-4.8,4.8,0,0,0,0,0,0v25.7c0,2.6,2.1,4.8,4.8,4.8Z"/>
    <path class="st3" d="M317.8,175.6h-69.9c-.2,0-.4-.2-.4-.4s.2-.4.4-.4h69.9c.2,0,.4.2.4.4s-.2.4-.4.4Z"/>
    <path class="st3" d="M317.8,179.9h-69.9c-.2,0-.4-.2-.4-.4s.2-.4.4-.4h69.9c.2,0,.4.2.4.4s-.2.4-.4.4Z"/>
    <path class="st3" d="M317.8,184.3h-69.9c-.2,0-.4-.2-.4-.4s.2-.4.4-.4h69.9c.2,0,.4.2.4.4s-.2.4-.4.4Z"/>
    <path class="st3" d="M317.8,193.1h-69.9c-.2,0-.4-.2-.4-.4s.2-.4.4-.4h69.9c.2,0,.4.2.4.4s-.2.4-.4.4Z"/>
    <path class="st3" d="M275.5,197.4h-27.7c-.2,0-.4-.2-.4-.4s.2-.4.4-.4h27.7c.2,0,.4.2.4.4s-.2.4-.4.4Z"/>
    <path class="st3" d="M317.8,188.7h-69.9c-.2,0-.4-.2-.4-.4s.2-.4.4-.4h69.9c.2,0,.4.2.4.4s-.2.4-.4.4Z"/>
  </g>
  <g class="st12">
    <path class="st0" d="M246.5,257.4h73.3l4.2,2.6v-33c0-2.6-2.1-4.8-4.8-4.8h-72.7c-2.6,0-4.8,2.1-4.8,4.8,0,0,0,0,0,0v25.7c0,2.6,2.1,4.8,4.8,4.8Z"/>
    <path class="st3" d="M317.8,229h-69.9c-.2,0-.4-.2-.4-.4s.2-.4.4-.4h69.9c.2,0,.4.2.4.4s-.2.4-.4.4Z"/>
    <path class="st3" d="M317.8,233.4h-69.9c-.2,0-.4-.2-.4-.4s.2-.4.4-.4h69.9c.2,0,.4.2.4.4s-.2.4-.4.4Z"/>
    <path class="st3" d="M317.8,237.7h-69.9c-.2,0-.4-.2-.4-.4s.2-.4.4-.4h69.9c.2,0,.4.2.4.4s-.2.4-.4.4Z"/>
    <path class="st3" d="M317.8,246.5h-69.9c-.2,0-.4-.2-.4-.4s.2-.4.4-.4h69.9c.2,0,.4.2.4.4s-.2.4-.4.4Z"/>
    <path class="st3" d="M275.5,250.8h-27.7c-.2,0-.4-.2-.4-.4s.2-.4.4-.4h27.7c.2,0,.4.2.4.4s-.2.4-.4.4Z"/>
    <path class="st3" d="M317.8,242.1h-69.9c-.2,0-.4-.2-.4-.4s.2-.4.4-.4h69.9c.2,0,.4.2.4.4s-.2.4-.4.4Z"/>
  </g>
  <g class="st12">
    <path class="st11" d="M221,302.6h-75l-4.8,3v-33.3c0-3.1,2.5-5.5,5.5-5.5,0,0,0,0,0,0h74.3c3,0,5.5,2.5,5.5,5.5,0,0,0,0,0,0v24.8c0,3-2.5,5.5-5.5,5.5Z"/>
    <path class="st3" d="M219.4,274.6h-71.1c-.3,0-.5-.2-.5-.5s.2-.5.5-.5h71.1c.3,0,.5.2.5.5s-.2.5-.5.5Z"/>
    <path class="st3" d="M219.4,279.7h-71.1c-.3,0-.5-.2-.5-.5s.2-.5.5-.5h71.1c.3,0,.5.2.5.5s-.2.5-.5.5Z"/>
    <path class="st3" d="M219.4,284.8h-71.1c-.3,0-.5-.2-.5-.5s.2-.5.5-.5h71.1c.3,0,.5.2.5.5s-.2.5-.5.5Z"/>
    <path class="st3" d="M179.4,295h-31.1c-.3,0-.5-.2-.5-.5s.2-.5.5-.5h31.1c.3,0,.5.2.5.5s-.2.5-.5.5Z"/>
    <path class="st3" d="M219.4,289.8h-71.1c-.3,0-.5-.2-.5-.5s.2-.5.5-.5h71.1c.3,0,.5.2.5.5s-.2.5-.5.5Z"/>
  </g>
  <g class="st12">
    <path class="st11" d="M223.3,229.3h-75l-4.8,3v-33.3c0-3.1,2.5-5.5,5.5-5.5,0,0,0,0,0,0h74.3c3,0,5.5,2.5,5.5,5.5,0,0,0,0,0,0v24.8c0,3-2.5,5.5-5.5,5.5Z"/>
    <path class="st3" d="M221.7,201.3h-71.1c-.3,0-.5-.2-.5-.5s.2-.5.5-.5h71.1c.3,0,.5.2.5.5s-.2.5-.5.5Z"/>
    <path class="st3" d="M221.7,206.4h-71.1c-.3,0-.5-.2-.5-.5s.2-.5.5-.5h71.1c.3,0,.5.2.5.5s-.2.5-.5.5Z"/>
    <path class="st3" d="M221.7,211.4h-71.1c-.3,0-.5-.2-.5-.5s.2-.5.5-.5h71.1c.3,0,.5.2.5.5s-.2.5-.5.5Z"/>
    <path class="st3" d="M181.7,221.6h-31.1c-.3,0-.5-.2-.5-.5s.2-.5.5-.5h31.1c.3,0,.5.2.5.5s-.2.5-.5.5Z"/>
    <path class="st3" d="M221.7,216.5h-71.1c-.3,0-.5-.2-.5-.5s.2-.5.5-.5h71.1c.3,0,.5.2.5.5s-.2.5-.5.5Z"/>
  </g>
  <g>
    <g id="freepik--Shadow--inject-2">
      <ellipse id="freepik--path--inject-2" class="st18" cx="250" cy="414.8" rx="173" ry="13.8"/>
    </g>
    <g id="freepik--speech-bubble-2--inject-2">
      <path class="st0" d="M343.8,205.8h-27c-5.1,0-9.3,4.2-9.3,9.3v11.2c0,5.1,4.2,9.3,9.3,9.3h11.5l3.1,9.8,3.1-9.8h9.2c5.1,0,9.3-4.2,9.3-9.3v-11.2c0-5.1-4.1-9.3-9.2-9.3Z"/>
      <path class="st3" d="M319.8,220c0,1-.8,1.9-1.9,1.9s-1.9-.8-1.9-1.9.8-1.9,1.9-1.9h0c1.1,0,1.9.9,1.9,1.9ZM326.2,218.1c-1,0-1.9.8-1.9,1.9s.8,1.9,1.9,1.9,1.9-.8,1.9-1.9h0c0-1-.9-1.8-1.9-1.9h0ZM334.5,218.1c-1,0-1.9.8-1.9,1.9s.8,1.9,1.9,1.9,1.9-.8,1.9-1.9h0c-.1-1-.9-1.8-1.9-1.9h0ZM342.7,218.1c-1,0-1.9.8-1.9,1.9s.8,1.9,1.9,1.9,1.9-.8,1.9-1.9h0c0-1-.9-1.8-1.9-1.9h0Z"/>
    </g>
    <g id="freepik--speech-bubble-1--inject-2">
      <path class="st0" d="M157,238.8h-27c-5.1,0-9.3,4.2-9.3,9.3h0v11.2c0,5.1,4.2,9.3,9.3,9.3h11.5l3.1,9.8,3.1-9.8h9.2c5.1,0,9.3-4.2,9.3-9.3v-11.2c0-5.1-4.1-9.3-9.2-9.3h0Z"/>
      <path class="st3" d="M133,253c0,1-.8,1.9-1.9,1.9s-1.9-.8-1.9-1.9.8-1.9,1.9-1.9h0c1.1,0,1.9.9,1.9,1.9ZM139.4,251.1c-1,0-1.9.8-1.9,1.9s.8,1.9,1.9,1.9,1.9-.8,1.9-1.9h0c0-1-.9-1.8-1.9-1.9h0ZM147.6,251.1c-1,0-1.9.8-1.9,1.8s.8,1.9,1.8,1.9,1.9-.8,1.9-1.8h0c0-1-.7-1.8-1.8-1.9h0ZM155.9,251.1c-1,0-1.9.8-1.9,1.9s.8,1.9,1.9,1.9,1.9-.8,1.9-1.9h0c0-1-.9-1.8-1.9-1.9h0Z"/>
    </g>
    <g id="freepik--character-4--inject-2">
      <path class="st2" d="M368.2,415.2h-127c-23.7,0-25.2-27.9-5.7-41.1,3.6-2.4,7.5-4.1,11.7-5.1,38.6-10.1,92.8-78.4,131-49.8h.1c38,28.8,11.4,96-10.1,96Z"/>
      <path class="st6" d="M368.2,415.2h-127c-23.7,0-25.2-27.9-5.7-41.1,3.6-2.4,7.5-4.1,11.7-5.1,38.6-10.1,92.8-78.4,131-49.8h.1c38,28.8,11.4,96-10.1,96Z"/>
      <path class="st11" d="M378.1,319.1c-3.2-.2-7.1.7-11.3,4.2-10.9,9.1,5.6,52.9-20.3,71.1-14.5,10.2-76.9,14.6-97.8,2.2-15.4-9.2-15.6-15-13.2-22.5,3.6-2.4,7.5-4.1,11.7-5.1,38.5-10.2,92.7-78.4,130.9-49.9h0Z"/>
      <g id="freepik--group--inject-2">
        <path class="st15" d="M279.4,310.9l-7.6-5.3,5.7-5.8s5.8,3,5.3,8.4l-3.4,2.7h0Z"/>
        <polygon class="st15" points="268.8 299.6 274.1 296.4 277.5 299.7 271.8 305.5 268.8 299.6"/>
        <path class="st2" d="M316.6,297.1c-7.2,2.1-10.7,14.7-16.6,26.6l-17.2-17.1-5.5,4.9s15.8,25.1,23.2,25.1,19-25.8,19-25.8l-2.9-13.7Z"/>
        <path class="st9" d="M319.5,310.7s-1.5,4.1-4,9c-2.4,4.8-5.5,10.4-9,13.7-2,1.9-4,3.1-6,3.1-7.5,0-23.2-25.1-23.2-25.1l5.5-4.9,17.2,17.1c5.9-11.9,9.4-24.5,16.6-26.6l2.9,13.7h0Z"/>
        <path class="st11" d="M315.5,319.7c-2.4,4.8-5.5,10.4-9,13.7.4-11.4,6-22.6,6-22.6,1.6,2.8,2.6,5.8,3,8.9Z"/>
        <path class="st0" d="M309.8,366.8s-60.8-8.7-64.1,4.6c-3.4,14.1,45.5,23.6,74.7,24.6s37.6-6,32.9-42h-40l-3.5,12.8h0Z"/>
        <path class="st4" d="M309.8,366.8s-60.8-8.7-64.1,4.6c-3.4,14.1,45.5,23.6,74.7,24.6s37.6-6,32.9-42h-40l-3.5,12.8h0Z"/>
        <polygon class="st15" points="275.9 394.6 263.1 394.6 257 394.6 256.3 388.2 261.9 387.4 275.8 385.6 275.9 394.6"/>
        <path class="st2" d="M257.6,387.4l1.5,7.4c.1.4-.2.8-.6.9h0l-3.7.7s-4.9,1.2-6.2.4c-4-2.6-7.8-18.7-6.2-19.9.6-.4,1.6.2,2.1.8,1.6,1.7,5.1,6.3,6.5,7.7,1.6,1.6,4.5,1.7,5.7,1.6.5-.3.9,0,.9.4Z"/>
        <polygon class="st11" points="275.9 394.6 263.1 394.6 261.9 387.4 275.8 385.6 275.9 394.6"/>
        <polygon class="st15" points="294.5 383.2 306.6 387.2 312.4 389.2 311.1 395.5 305.5 394.4 291.8 391.8 294.5 383.2"/>
        <path class="st2" d="M309.5,395.8l.9-7.5c.1-.4.4-.7.8-.7h0l3.7.5s5,.4,6,1.6c3,3.7,1.5,20.3-.4,20.9-.7.2-1.5-.7-1.8-1.4-1-2.1-2.9-7.6-3.7-9.4-1-2-3.7-3-4.9-3.3-.4,0-.6-.3-.6-.7Z"/>
        <polygon class="st11" points="294.5 383.2 306.6 387.2 305.5 394.4 291.8 391.8 294.5 383.2"/>
        <polygon class="st0" points="303.4 395.6 299.9 395.9 302 384 305.9 386 303.4 395.6"/>
        <polygon class="st4" points="303.4 395.6 299.9 395.9 302 384 305.9 386 303.4 395.6"/>
        <path class="st0" d="M314.9,399.9c.1.5,0,1.1-.2,1.6-.2.3-.5.5-.9.5s-.4-.1-.5-.3c-.5-.9.7-3.6.9-3.9,0-.1.1-.1.2-.1s.1.1.2.1c0,.7.2,1.4.3,2.1h0ZM313.5,401.2c0,.1,0,.2.1.2,0,.1.1.1.2.1.2,0,.5-.1.6-.3.3-1,.2-2-.1-2.9-.5,1-.8,1.9-.8,2.9h0Z"/>
        <path class="st0" d="M314.4,397.8h0c-.3.9-1.8,2.7-2.7,2.5-.3-.1-.5-.3-.5-.6-.1-.3,0-.6.1-.8.6-1,2.8-1.3,2.9-1.3s.2.1.2.2h0ZM311.6,399.6h0c.1.3.2.3.2.4.5.1,1.6-1,2.1-1.9-.9.1-1.6.5-2.3,1.1,0,0-.1.3,0,.4h0Z"/>
        <path class="st0" d="M264.3,386.5s56.6-22,74-18.3,17.4,12.8,8.6,21.2-21.9,5.2-21.9,5.2c0,0,10.3-6.2,9.6-10s-7.3,4.9-7.3,4.9c0,0-34.2,8.4-62.5,6.2l-.5-9.2h0Z"/>
        <path class="st0" d="M251.5,385.3c-.3-.4-.5-1-.5-1.5s.3-.7.6-.8c.2-.1.4-.1.6,0,.9.5,1,3.5,1,3.9s0,.1-.1.2h-.2c-.5-.6-1-1.2-1.4-1.8h0ZM252.2,383.5c0,0-.1-.1-.2-.2h-.2c-.2.1-.4.3-.4.5.2,1,.7,1.9,1.5,2.5-.1-1-.3-1.9-.7-2.8h0Z"/>
        <path class="st0" d="M252.9,386.9h0c-.1-1,.4-3.2,1.2-3.5.3-.1.6,0,.7.3.2.2.3.5.3.8-.1,1.2-1.9,2.4-2,2.5h-.2ZM254.6,383.9h0c-.2-.3-.3-.2-.3-.2-.5.2-1,1.7-1,2.7.5-.4,1.4-1.3,1.5-2,0-.1,0-.3-.2-.5h0Z"/>
        <path class="st7" d="M264.3,386.5s56.6-22,74-18.3,17.4,12.8,8.6,21.2-21.9,5.2-21.9,5.2c0,0,10.3-6.2,9.6-10s-7.3,4.9-7.3,4.9c0,0-34.2,8.4-62.5,6.2l-.5-9.2h0Z"/>
        <polygon class="st0" points="263.6 386.3 266.8 384.8 268.6 396.8 264.2 396 263.6 386.3"/>
        <polygon class="st4" points="263.6 386.3 266.8 384.8 268.6 396.8 264.2 396 263.6 386.3"/>
        <path class="st2" d="M357.3,299c-6.1,34-3.9,56-3.9,56,0,0-28.4-.4-40.1-1-6.2-41.2,3.4-56.9,3.4-56.9,3.1-.6,6.1-1,9.2-1.3.6,0,1.3-.1,2-.1,5.5,0,11,.3,16.5.9,1,.1,2.1.2,3.1.4,5.2.8,9.8,2,9.8,2Z"/>
        <path class="st9" d="M357.3,299c-.8,4.2-1.4,8.3-1.9,12.1-.8,6-1.4,11.6-1.7,16.5-.1,1.5-.2,2.9-.3,4.3-.3,5.1-.4,9.4-.4,12.9,0,6.6.4,10.2.4,10.2,0,0-28.4-.4-40.1-1-6.2-41.2,3.4-56.9,3.4-56.9,3.1-.6,6.1-1,9.2-1.3.6,0,1.3-.1,2-.1,5.5,0,11,.3,16.5.9,1,.1,2.1.2,3.1.4,5.2.8,9.8,2,9.8,2Z"/>
        <path class="st11" d="M331.9,336.5c7.3-.9,14.5-2.4,21.5-4.6-.3,5.1-.4,9.4-.4,12.9-13.6,1.2-19.1-1.4-19.1-1.4l-2-6.9Z"/>
        <path class="st11" d="M355.4,311.1c-.8,6-1.4,11.6-1.7,16.5-3.9-7.9-1-17.4-1-17.4l2.7.9Z"/>
        <path class="st2" d="M333.4,350.5h-20.7c-.8,0-1.5-.7-1.6-1.5l-2.9-27.5c-.1-.7.4-1.4,1.2-1.4h20.9c.8,0,1.5.6,1.6,1.5l2.9,27.5c.1.7-.4,1.4-1.1,1.5-.1-.1-.2-.1-.3-.1Z"/>
        <path class="st4" d="M333.4,350.5h-20.7c-.8,0-1.5-.7-1.6-1.5l-2.9-27.5c-.1-.7.4-1.4,1.2-1.4h20.9c.8,0,1.5.6,1.6,1.5l2.9,27.5c.1.7-.4,1.4-1.1,1.5-.1-.1-.2-.1-.3-.1Z"/>
        <path class="st8" d="M332.6,350.5h-19.8c-.8,0-1.5-.7-1.6-1.5l-2.9-27.5c-.1-.7.4-1.4,1.2-1.4h20c.8,0,1.5.6,1.6,1.5l2.9,27.5c.1.7-.4,1.4-1.1,1.5-.2-.1-.3-.1-.3-.1h0Z"/>
        <path class="st2" d="M320.5,333.1c-1.1,0-2,.9-2,2v.3c.1,1.3,1.2,2.2,2.4,2.2s2-.9,2-2v-.3c-1.2,0-2.3-1-2.4-2.2Z"/>
        <path class="st10" d="M325,322.3h-11c-.5,0-1-.3-1.3-.8l-.6-1.4h14.4l-.4,1.4c-.1.5-.6.9-1.1.8Z"/>
        <path class="st15" d="M331.4,335.6l-4.8-.4.2,6.4,4,2.1,9.2-.8.8-4.3c-3-4.5-9.4-3-9.4-3h0Z"/>
        <path class="st2" d="M357.3,299c4.9,1.5,11.9,30,10.8,36.3s-13.2,9-28.6,8.6v-7.4l17.9-5.2-3-11s-2.5-8.1-1.4-13.8c.5-2.9,2-5.5,4.3-7.5h0Z"/>
        <path class="st9" d="M357.3,299c4.9,1.5,11.9,30,10.8,36.3s-13.2,9-28.6,8.6v-7.4l17.9-5.2-3-11s-2.5-8.1-1.4-13.8c.5-2.9,2-5.5,4.3-7.5h0Z"/>
        <path class="st15" d="M342,296.3c-2.5,2.6-6.4,4.8-12.7,4.5-4.8-.2-5.5-3.2-4.6-4.9,2.9-.6,4.2-1.9,4.6-3.5s-.2-3.8-1-5.8l8.1-6.8,1.4-1.2c0,.4,0,.8-.1,1.2-.1,1.6-.1,3.2,0,4.8.3,4.5,1.4,9.4,4.3,11.7h0Z"/>
        <path class="st11" d="M337.7,284.7c-1.5,3.1-4.2,6.8-8.4,7.8.4-1.7-.2-3.8-1-5.8l8.1-6.8c.4,0,.9,0,1.3.1-.1,1.5-.1,3.1,0,4.7h0Z"/>
        <path class="st2" d="M319.2,266.3c-1.2,2.7-1.3,8.6,2.8,7.1s-.8-11.8-2.8-7.1Z"/>
        <path class="st15" d="M339,272.3c-.4,7.3-.2,11.6-3.8,15.3-5.5,5.6-14.5,2.3-16.4-4.9-1.6-6.5-.8-17.4,6.3-20.3,5.1-2.1,11,.4,13.1,5.5.6,1.4.9,2.9.8,4.4Z"/>
        <path class="st2" d="M327.9,274.4c0,.6-.3,1.1-.7,1.1s-.7-.5-.7-1.1.3-1.1.7-1.1.7.5.7,1.1Z"/>
        <path class="st2" d="M321.2,274.4c0,.6-.3,1.1-.7,1.1s-.7-.5-.7-1.1.3-1.1.7-1.1.7.5.7,1.1Z"/>
        <path class="st17" d="M323.4,274.7c-.7,1.8-1.7,3.4-2.8,4.9.8.5,1.9.7,2.8.5v-5.4Z"/>
        <path class="st2" d="M330,272.2c-.1,0-.2,0-.3-.1-.5-.7-1.4-1.2-2.2-1.2s-.4-.1-.4-.3.1-.4.3-.4h0c1.1,0,2.2.5,2.9,1.4.1.2.1.4-.1.5,0,.1-.2.1-.2.1h0Z"/>
        <path class="st2" d="M318.3,272.1h-.2c-.2-.1-.2-.3-.2-.5h0c.4-1,1.4-1.8,2.5-2,.2,0,.4.1.4.3h0c0,.2-.1.4-.3.4h0c-.9.2-1.6.8-2,1.6,0,.1,0,.2-.2.2h0Z"/>
        <path class="st2" d="M327.5,266.5s2-1.4,2.9.1.9,5.7.9,5.7l.4-.7s2.6,9.2,6.3,6.9,9.3-11.7.5-16.4c0,0-.9-2.2-6.7-3.3s-12.8,2.5-14,6.3.5,6,.5,6c.2-.8.6-1.6,1.1-2.3.2.8.7,1.5,1.5,1.8-.1-.8.1-1.6.5-2.3.2.7.5,1.3,1,1.8.4-3.9,3.1-4.7,3.9-4.7s1.1.5,1.2,1.1h0Z"/>
        <path class="st15" d="M341.9,278.3c-.5,1.7-1.8,3.2-3.4,4.1-2.2,1.1-3.7-.7-3.6-3,.2-2.1,1.5-5.1,3.8-5.3,1.7-.1,3.2,1.3,3.3,3,.1.4,0,.8,0,1.2h0Z"/>
        <path class="st2" d="M323.6,282.5c.6.7,1.2,1.4,1.7,2.1l.4-.2c1.9-1,2.5-2.1,2.6-3,0-.4-.1-.9-.3-1.3-.1-.2-.2-.4-.4-.6-.9,1.1-2.1,2.1-3.4,2.7-.3.2-.6.3-.6.3h0Z"/>
        <path class="st3" d="M324.3,282.1l.5.6c1.8-.9,3-1.8,3.3-2.7-.1-.2-.2-.4-.4-.6-1,1.2-2.1,2.1-3.4,2.7Z"/>
        <path class="st16" d="M325.8,284.4c1.9-1,2.5-2.1,2.6-3-.7.4-1.4.9-1.9,1.5-.5.4-.7.9-.7,1.5Z"/>
      </g>
    </g>
    <g id="freepik--character-1--inject-2">
      <path class="st14" d="M155.2,339.2c4.9,4.9,9.6,10.4,15.5,14.1l.4.2c-.2-.1-.3-.1-.5-.1s.1,0,.4,0c6.6-1.9,12.8-6.2,18.9-9.5,1.1-.6,2.4-.3,3.1.8.5.9.4,2-.4,2.8-4.8,4.4-17.6,16.2-24.3,13.7-4.1-1.5-7.6-4.4-10.8-7.1s-6.1-5.7-8.9-8.8c-3.9-4.5,2.5-10.3,6.6-6.1h0Z"/>
      <path class="st0" d="M163.6,346.1c-.9,6.4-6,12.6-6,12.6l-1.1-.7-5.3-3.5s-.1-.3-.2-.8c-.1-.5-.3-1.1-.6-2-1.2-4.2-3.4-12.2-3.7-15.5,6.6-.1,9.5,3,16.9,9.9h0Z"/>
      <path class="st7" d="M163.6,346.1c-.9,6.4-6,12.6-6,12.6l-1.1-.7-5.3-3.5s-.1-.3-.2-.8c-.1-.5-.3-1.1-.6-2-1.2-4.2-3.4-12.2-3.7-15.5,6.6-.1,9.5,3,16.9,9.9h0Z"/>
      <path class="st11" d="M156.5,358l-5.3-3.5s-.1-.3-.2-.8c.2-1.6.5-3.2.9-4.8,2.8,2.2,4.5,5.5,4.6,9.1h0Z"/>
      <path class="st2" d="M150.1,377.5l4.5,7.9c12-2.8,50.6-8.7,55.3,4.5,5.9,16.4-36.6,29.5-60.2,30.3s-44.1-4.8-29.2-39.1l29.6-3.6h0Z"/>
      <path class="st11" d="M150.1,377.5l4.5,7.9c12-2.8,50.6-8.7,55.3,4.5,5.9,16.4-36.6,29.5-60.2,30.3s-44.1-4.8-29.2-39.1l29.6-3.6h0Z"/>
      <path class="st2" d="M203.1,413.1h-.2c.1-.4.9-2.6,1.6-2.9.2,0,.3,0,.5.1.2.2.3.5.3.8-.1.4-.4.8-.7,1.1-.5.4-1,.7-1.5.9h0ZM203.3,412.7c.7-.3,1.3-.9,1.7-1.6,0-.2,0-.4-.2-.5,0-.1-.1-.1-.2-.1s-.1.1-.2.1c-.5.7-.9,1.4-1.1,2.1h0Z"/>
      <path class="st2" d="M203,413.2h-.1c-.1-.1-1.2-1.4-1-2.4,0-.2.2-.4.4-.6s.4-.2.6-.1c.6.5.5,2.3.1,3.1h0ZM202.4,410.5c-.1.1-.2.2-.2.3,0,.7.3,1.4.7,1.9.2-.8.1-2.1-.2-2.3,0,0,0-.1-.3.1h0Z"/>
      <path class="st2" d="M161.7,417c0-.1.1-.1.1-.1,0,0,.1,0,.1.1.1.3.5,2.6-.1,3.2s-.3.2-.5.1c-.3,0-.5-.3-.6-.5-.1-.4-.1-.9.1-1.3.3-.5.6-1,.9-1.5h0ZM161.7,417.5c-.5.6-.7,1.4-.7,2.2.1.2.2.3.4.4h.2c0-.1.1-.1.1-.2.2-.8.2-1.6,0-2.4h0Z"/>
      <polygon class="st1" points="177.1 405.1 167.4 408.5 162.8 410.2 164 415.3 168.5 414.3 179.5 412 177.1 405.1"/>
      <path class="st0" d="M165.2,415.5l-.8-6c0-.3-.3-.6-.7-.5h0l-3,.5s-4,.4-4.8,1.4c-2.3,3-.9,16.3.7,16.8.6.2,1.2-.6,1.4-1.1.8-1.7,2.2-6.2,2.9-7.6.8-1.7,3-2.5,3.9-2.8.3,0,.5-.4.4-.7h0Z"/>
      <path class="st2" d="M161.7,417h.2c.1,0,1.7.7,2,1.6.1.2,0,.5-.1.7s-.3.4-.5.4c-.7-.1-1.5-1.7-1.6-2.5v-.2h0ZM163.6,419v-.4c-.2-.6-1.1-1.1-1.6-1.3.2.8.9,1.9,1.3,1.9l.3-.2h0Z"/>
      <polygon class="st11" points="177.1 405.1 167.4 408.5 168.5 414.3 179.5 412 177.1 405.1"/>
      <polygon class="st0" points="170.2 415.2 173 415.4 171.1 405.8 168 407.6 170.2 415.2"/>
      <polygon class="st4" points="170.2 415.2 173 415.4 171.1 405.8 168 407.6 170.2 415.2"/>
      <path class="st11" d="M129.8,378l14.5,16.1s16-.4,35.5,9.2c0,0,20.9-8.6,22.8-15.8,2.5-9.4-48-2-48-2l-24.8-7.5h0Z"/>
      <path class="st0" d="M149.9,384.4l-29.6-3.4c.6-3.1.9-6.1,1-9.2,0-4.4,0-8.8-.5-13.2-.4-4.2-1-9-2-14.7-.7-3.8,1.7-7.4,5.5-8.2.5-.1,1-.1,1.5-.1,1.2,0,2.4.1,3.7.1,4.5.2,9,.7,13.5,1.6,1.4.3,2.9.6,4.4,1,5.1,1.3,8.3,7.8,7.9,13-.2,4-.6,8.1-1.3,12.1-1,5.7-2.1,11.5-4.1,21h0Z"/>
      <path class="st7" d="M149.9,384.4l-29.6-3.4c.6-3.1.9-6.1,1-9.2,0-4.4,0-8.8-.5-13.2-.4-4.2-1-9-2-14.7-.7-3.8,1.7-7.4,5.5-8.2.5-.1,1-.1,1.5-.1,1.2,0,2.4.1,3.7.1,4.5.2,9,.7,13.5,1.6,1.4.3,2.9.6,4.4,1,5.1,1.3,8.3,7.8,7.9,13-.2,4-.6,8.1-1.3,12.1-1,5.7-2.1,11.5-4.1,21h0Z"/>
      <path class="st11" d="M121.4,371.8c0-4.4,0-8.8-.5-13.2,3.7-4.4,7.2-8,7.2-8,0,0,5.8,14.8-6.7,21.2Z"/>
      <path class="st14" d="M126.1,348.9c.3,6.3.3,16.2,1.4,22.2l-.3-.7c-.2-.3,0,0,0,.2.3.3.6.5.9.8,4,3,8.8,5.3,13.3,7.7l5.7,2.9c1.1.6,1.6,1.9,1,3-.5.9-1.5,1.4-2.5,1.2-2.2-.5-4.2-1.1-6.4-1.8-6-2-12.2-3.9-17.3-7.8-1-.8-1.8-1.8-2.3-3-2.3-8.2-2.5-16.1-2.7-24.5.3-5.9,8.7-6,9.1-.2h.1Z"/>
      <path class="st1" d="M155.2,381.6l-1.8-1.3c-.7-.5-1.5-.6-2.3-.4l-3.7,1.2c-1.5.5-2.6,1.7-3.1,3.2l-.3.9c2.8,2.4,7.6,2.8,7.6,2.8l1.4.3c1.2.3,2.3-.4,2.6-1.6h0l.6-2.7c.2-.9-.2-1.9-1-2.4Z"/>
      <path class="st0" d="M123.4,335.9c-5.8,2.1-7.4,7.1-7.6,17.6,3,2.7,12.1,2.9,12.1,2.9,0,0,1.6-15.9-4.5-20.5Z"/>
      <path class="st2" d="M193.4,387.4v2.4c0,.6-.7.9-1.3.9h-47.6c-.6,0-1.4-.2-1.4-.9v-2.4h50.3,0Z"/>
      <path class="st5" d="M193.4,387.4v2.4c0,.6-.7.9-1.3.9h-47.6c-.6,0-1.4-.2-1.4-.9v-2.4h50.3,0Z"/>
      <path class="st11" d="M193.4,387.4v2.4c0,.6-.7.9-1.3.9h-31.4c-.6,0-1.3-.2-1.3-.9v-2.4h34Z"/>
      <path class="st2" d="M201.4,362.6l-5.7,25.7c-.2.8-1,1.4-1.8,1.5h-31c-.7,0-1.2-.6-1.2-1.3s0-.2.1-.3l5.7-25.5c.2-.8,1-1.3,1.8-1.3h31c.7,0,1.2.4,1.1,1.2h0Z"/>
      <path class="st5" d="M201.4,362.6l-5.7,25.7c-.2.8-1,1.4-1.8,1.5h-29.9c-.7,0-1.2-.6-1.2-1.3s0-.2.1-.3l5.7-25.5c.2-.8,1-1.3,1.8-1.3h29.9c.7,0,1.2.4,1.1,1.2h0Z"/>
      <path class="st11" d="M186.1,375.7h0c-.2,2.2-1.9,3.8-4.1,4-1.7,0-2.8-1.8-2.3-4s2.2-3.9,3.9-4c-.5,2.2.6,4,2.3,4h.2Z"/>
      <path class="st1" d="M191,348.3l6.7.2-3-6.7s-5.9.2-5.7,3.3l2,3.2Z"/>
      <polygon class="st1" points="203.4 345.2 198.8 340.2 194.6 341.7 197.7 348.5 203.4 345.2"/>
      <path class="st1" d="M128,335.6c-.7,0,1.4,8.3,11.5,10.4s9.3-7.2,8.5-9.6c.1,0-13.2-.4-20-.8Z"/>
      <path class="st13" d="M130.8,302.9s5.8-6.4,16.4-3.1,10.1,22.2,4.8,29.1c-8.4-.3-16.9.5-25.1,2.3,0,0-5.1-13.7-2.6-21.8s6.5-6.5,6.5-6.5Z"/>
      <path class="st1" d="M132.9,321.8c.7,4.5,1.2,12.5-2,15.1,0,0,4.2-.1,12.2,6.2,2.9-3.3,1.2-4.7,1.2-4.7-4.8-1.7-4.5-5.3-3.5-8.6l-7.9-8Z"/>
      <path class="st11" d="M136.2,325l4.7,4.8c-.2.8-.4,1.6-.5,2.4-1.8-.5-4.3-2.8-4.4-4.8-.1-.8,0-1.6.2-2.4Z"/>
      <path class="st1" d="M130.3,312.7c.5,7.1.6,10.1,4.2,14,5.4,5.7,14,4,15.6-3,1.4-6.3.4-16.9-6.5-20-4.5-2.2-10-.4-12.3,4.1-.9,1.5-1.2,3.2-1,4.9Z"/>
      <path class="st2" d="M139,314.9c0,.6.3,1.1.7,1.1s.7-.5.7-1.1-.3-1.1-.7-1.1-.7.4-.7,1.1Z"/>
      <path class="st2" d="M146.5,314.9c0,.6.3,1.1.7,1.1s.7-.5.7-1.1-.3-1.1-.7-1.1-.7.5-.7,1.1Z"/>
      <path class="st2" d="M147,313.9l1.4-.4s-.7,1.1-1.4.4Z"/>
      <path class="st19" d="M144.2,316.2c.6,1.4,1.3,2.7,2.2,3.9-.6.4-1.4.5-2.1.3v-4.2h0Z"/>
      <path class="st2" d="M137.8,311c.1,0,.2,0,.2-.1.6-.6,1.5-.8,2.4-.6.2.1.3,0,.4-.2h0c.1-.2-.1-.4-.2-.5-1.1-.3-2.2,0-3,.7-.1.1-.1.4,0,.5,0,.1.1.2.2.2h0Z"/>
      <path class="st2" d="M149.4,311.1h.2c.2-.1.2-.3.1-.5h0c-.6-1-1.5-1.7-2.7-1.9-.2,0-.3.1-.3.3h0c0,.2.1.4.3.4.9.1,1.7.7,2.1,1.5,0,.1.2.2.3.2h0Z"/>
      <path class="st2" d="M139.5,313.8l1.4-.4c0,.1-.7,1.2-1.4.4Z"/>
      <path class="st13" d="M131.7,316.9s5.5-4.3,4.2-11.1c0,0,9.8-3.9,13.7,6,0,0,.8-8.5-8.4-10.1s-20.2,10.9-9.7,20.4l.2-5.2h0Z"/>
      <path class="st1" d="M128,318.4c.7,1.3,1.9,2.3,3.4,2.8,1.9.5,2.7-1.3,2.1-3.2-.6-1.7-2.2-4-4-3.7-1.8.2-2.4,2.4-1.5,4.1h0Z"/>
      <path class="st13" d="M150.8,316.1c-.1,0-.2-.1-.2-.1-3.5-12.4-15.2-9.9-15.3-9.9s-.2,0-.2-.2,0-.2.2-.2,12.2-2.7,15.8,10.1c-.1.1-.2.2-.3.3q0,0,0,0h0Z"/>
      <path class="st2" d="M144.7,322.5c-.3.8-.6,1.7-.9,2.5h-.5c-2.1-.2-3-1-3.4-1.9-.2-.4-.2-.8-.2-1.3s.1-.5.1-.7c1.2.7,2.6,1.2,4.1,1.3.5,0,.8.1.8.1h0Z"/>
      <path class="st3" d="M144,322.4l-.3.7c-2-.2-3.4-.6-3.9-1.3,0-.2.1-.5.1-.7,1.3.7,2.6,1.1,4.1,1.3h0Z"/>
      <path class="st17" d="M143.4,324.9c-2.1-.2-3-1-3.4-1.9.8.1,1.6.3,2.3.7.5.4.8.8,1.1,1.2h0Z"/>
      <path class="st2" d="M143,355.8c0,0-.1,0-.2-.1-5.3-5.7-9.3-12.5-11.7-19.9,0-.1,0-.3.2-.3s.2,0,.3.2h0c2.4,7.2,6.2,13.8,11.4,19.4.6-2,3.1-11.5-.7-18.8,0-.1,0-.3.2-.3s.2,0,.3.1c4.3,8.3.6,19.4.6,19.5-.2,0-.2.2-.4.2h0Z"/>
      <path class="st3" d="M143.3,355.4l.8,1c.1.2.1.4,0,.6l-.8,1c-.2.2-.5.2-.7.1h-.1c0-.1-.7-.9-.7-.9-.1-.2-.1-.4,0-.6l.6-1.2c.1-.2.4-.3.7-.2,0,.1.2.1.2.2Z"/>
      <path class="st7" d="M123.4,335.9c-5.8,2.1-7.4,7.1-7.6,17.6,3,2.7,12.1,2.9,12.1,2.9,0,0,1.6-15.9-4.5-20.5Z"/>
      <polygon class="st1" points="183.8 416.1 194 417.8 198.8 418.6 200.3 413.5 195.9 412.2 185.1 408.9 183.8 416.1"/>
      <path class="st0" d="M199.3,412.7l-2.2,5.6c-.1.3,0,.7.4.8h0l2.8,1s3.7,1.6,4.9,1.1c3.5-1.5,8.7-13.9,7.5-15-.4-.4-1.3,0-1.8.3-1.5,1.1-4.9,4.4-6.2,5.3-1.5,1.1-3.8.7-4.8.5-.2,0-.5.2-.6.4h0Z"/>
      <polygon class="st11" points="183.8 416.1 194 417.8 195.9 412.2 185.1 408.9 183.8 416.1"/>
      <path class="st2" d="M194.1,411.2s-41.3-23.2-55.6-22.6-16.3,13.2-10.4,21.1c5.9,7.9,16.8,9.8,16.8,9.8,0,0-7.4-10.5-6.3-13.4,1.1-2.9,5.2,1.2,5.2,1.2,0,0,26,8.4,48.8,10.3l1.5-6.4Z"/>
      <polygon class="st0" points="194.8 410.5 192.4 409 189.4 418.2 193 418.2 194.8 410.5"/>
      <polygon class="st4" points="194.8 410.5 192.4 409 189.4 418.2 193 418.2 194.8 410.5"/>
    </g>
  </g>
</svg>