<?xml version="1.0" encoding="UTF-8"?>
<svg id="Layer_1" xmlns="http://www.w3.org/2000/svg" version="1.1" viewBox="0 0 500 500">
  <!-- Generator: Adobe Illustrator 29.1.0, SVG Export Plug-In . SVG Version: 2.1.0 Build 142)  -->
  <defs>
    <style>
      .st0 {
        fill: #004a99;
      }

      .st1 {
        fill: #37474f;
      }

      .st2 {
        opacity: .9;
      }

      .st2, .st3, .st4, .st5, .st6, .st7 {
        fill: #fff;
      }

      .st2, .st4, .st5, .st8, .st9, .st10, .st11, .st12, .st6, .st13, .st7 {
        isolation: isolate;
      }

      .st14 {
        fill: #b16668;
      }

      .st15 {
        fill: #263238;
      }

      .st16 {
        fill: #9a4a4d;
      }

      .st17 {
        fill: #f0f0f0;
      }

      .st4, .st13 {
        opacity: .6;
      }

      .st18, .st5, .st9 {
        opacity: .4;
      }

      .st19, .st11, .st6 {
        opacity: .2;
      }

      .st20 {
        fill: #5a5e5f;
      }

      .st21 {
        fill: #ffa8a7;
      }

      .st22 {
        fill: #f28f8f;
      }

      .st23 {
        fill: #c8856a;
      }

      .st24 {
        fill: #e0e0e0;
      }

      .st25 {
        fill: #006491;
      }

      .st8, .st26 {
        opacity: .1;
      }

      .st27 {
        fill: #af6152;
      }

      .st28, .st10 {
        opacity: .3;
      }

      .st12, .st29 {
        opacity: .5;
      }

      .st30 {
        fill: #ab0712;
      }

      .st31 {
        fill: #f0997a;
      }

      .st32 {
        fill: #455a64;
      }

      .st33 {
        fill: #ebebeb;
      }

      .st34 {
        fill: #f5f5f5;
      }

      .st35 {
        fill: #ffbda7;
      }

      .st36 {
        fill: #fafafa;
      }

      .st7 {
        opacity: .8;
      }

      .st37 {
        fill: #e6e6e6;
      }
    </style>
  </defs>
  <g id="freepik--freepik--high-school-building--inject-76--inject-90">
    <rect class="st34" x="62" y="142.3" width="375.1" height="105.3"/>
    <rect class="st34" x="161.3" y="131.1" width="177.5" height="117.6"/>
    <rect class="st33" x="62" y="216.4" width="126.9" height="10.5"/>
    <rect class="st33" x="311.2" y="216.4" width="125.9" height="10.5"/>
    <g class="st28">
      <rect class="st24" x="180.2" y="176.3" width="139.8" height="71.3"/>
    </g>
    <g class="st28">
      <path class="st24" d="M229.5,163.8c-.5-.1-1-.3-1.4-.6l.7-1.6c.8.5,1.6.8,2.5.8s1.3-.2,1.3-.6-.1-.4-.4-.5c-.4-.1-.8-.3-1.1-.3-.5-.1-1-.2-1.4-.4-.4-.1-.7-.4-1-.7-.3-.4-.4-.8-.4-1.3s.1-.9.4-1.3c.3-.4.7-.7,1.1-.9.6-.2,1.2-.4,1.9-.3.5,0,1,0,1.5.2.5.1.9.3,1.3.5l-.7,1.6c-.6-.4-1.4-.6-2.1-.6s-.7,0-.9.2c-.2,0-.3.3-.3.5s.1.4.4.5c.4.1.8.2,1.1.3.5.1,1,.2,1.5.4.4.1.7.4,1,.7.3.4.4.8.4,1.3s-.1.9-.4,1.2c-.3.4-.7.7-1.1.9-.6.2-1.2.3-1.9.3s-1.2-.1-1.8-.3h-.2Z"/>
      <path class="st24" d="M237.4,163.5c-.6-.3-1.1-.8-1.5-1.4-.7-1.3-.7-2.8,0-4.1.4-.6.9-1.1,1.5-1.4,1.3-.6,2.8-.7,4.1-.1.5.2,1,.6,1.4,1.1l-1.4,1.2c-.4-.6-1.1-.9-1.8-.9s-.8,0-1.1.3c-.3.2-.6.5-.8.8-.3.7-.3,1.6,0,2.3.2.3.4.6.8.8,1,.5,2.2.3,2.9-.6l1.4,1.2c-.4.5-.9.8-1.4,1.1-1.3.5-2.8.5-4.1-.1h0v-.2Z"/>
      <path class="st24" d="M251.1,156.2v7.7h-2.2v-3h-3v3h-2.2v-7.7h2.2v2.9h3v-2.9h2.2Z"/>
      <path class="st24" d="M254.3,163.5c-1.9-1-2.7-3.4-1.7-5.3.4-.7,1-1.3,1.7-1.7,1.4-.7,3-.7,4.4,0,1.9,1,2.7,3.4,1.7,5.3h0c-.4.7-.9,1.3-1.7,1.7-1.4.7-3,.7-4.4,0h0ZM257.6,162c.3-.2.6-.4.8-.8.4-.7.4-1.6,0-2.3-.2-.3-.4-.6-.7-.8-.7-.4-1.5-.4-2.1,0s-.6.5-.8.8c-.4.7-.4,1.6,0,2.3.2.3.4.6.8.8.6.4,1.4.4,2.1,0h0Z"/>
      <path class="st24" d="M263.6,163.5c-1.9-1-2.7-3.4-1.6-5.3.4-.7.9-1.3,1.6-1.6,1.4-.7,3-.7,4.4,0,1.9,1,2.7,3.4,1.6,5.3-.4.7-.9,1.3-1.6,1.6-1.4.7-3,.7-4.4,0ZM266.9,162c.3-.2.6-.4.8-.8.4-.7.4-1.6,0-2.3-.2-.3-.4-.6-.8-.8-.7-.4-1.4-.4-2.1,0-.3.2-.6.5-.7.8-.4.7-.4,1.6,0,2.3.2.3.4.6.7.8.7.4,1.4.4,2.1,0Z"/>
      <path class="st24" d="M271.2,156.2h2.2v6h3.7v1.7h-5.8v-7.7h-.1Z"/>
    </g>
    <path class="st24" d="M228.9,163.2c-.5-.1-1-.3-1.4-.6l.7-1.6c.8.5,1.6.7,2.5.8.8,0,1.2-.2,1.2-.6s-.1-.4-.4-.5c-.4-.1-.7-.3-1.1-.3s-1-.2-1.4-.4c-.4-.1-.7-.4-1-.7-.3-.4-.4-.8-.4-1.3s.1-.9.4-1.3c.3-.4.7-.7,1.1-.9.6-.2,1.2-.3,1.9-.3s1,0,1.5.2c.5,0,.9.3,1.3.5l-.7,1.6c-.6-.4-1.4-.6-2.1-.6s-.7,0-.9.2c-.2.1-.3.3-.3.5s.1.4.3.5c.4.1.8.2,1.1.3.5.1,1,.2,1.4.4.4.1.7.4,1,.7.3.4.5.8.4,1.3,0,.4-.1.9-.4,1.3-.3.4-.7.7-1.1.9-.6.2-1.2.3-1.9.3s-1.2-.1-1.8-.3h0Z"/>
    <path class="st24" d="M236.8,162.9c-.6-.3-1.1-.8-1.5-1.4-.7-1.3-.7-2.8,0-4.1.4-.6.9-1.1,1.5-1.4,1.3-.6,2.7-.7,4.1-.1.6.2,1,.6,1.4,1.1l-1.4,1.3c-.7-.9-1.9-1.1-2.9-.6-.3.2-.6.4-.8.8-.4.7-.4,1.6,0,2.3.2.3.4.6.8.8,1,.6,2.2.3,2.9-.6l1.4,1.3c-.4.5-.9.8-1.4,1.1-.6.3-1.2.4-1.9.4s-1.5-.2-2.2-.6v-.3Z"/>
    <path class="st24" d="M250.5,155.6v7.7h-2.2v-3h-3v3h-2.2v-7.7h2.2v2.9h3v-2.9h2.2Z"/>
    <path class="st24" d="M253.8,162.9c-1.9-1-2.7-3.4-1.7-5.3h0c.4-.7,1-1.3,1.7-1.7,1.4-.7,3-.7,4.4,0,1.9,1,2.7,3.4,1.7,5.3-.4.7-1,1.3-1.7,1.7-1.4.7-3,.7-4.4,0h0ZM257,161.4c.3-.2.6-.4.8-.8.4-.7.4-1.6,0-2.3-.2-.3-.4-.6-.7-.8-.3-.2-.7-.3-1.1-.3s-.7,0-1.1.3c-.3.2-.6.5-.7.8-.2.3-.3.7-.3,1.1s0,.8.3,1.1c.2.3.4.6.7.8.7.4,1.5.4,2.1,0h0Z"/>
    <path class="st24" d="M263,162.9c-1.9-1-2.7-3.4-1.6-5.3.4-.7.9-1.3,1.6-1.6,1.4-.7,3-.7,4.4,0,1.9,1,2.7,3.4,1.6,5.3-.4.7-.9,1.3-1.6,1.6-1.4.7-3,.7-4.4,0ZM266.3,161.4c.3-.2.6-.4.7-.8.4-.7.4-1.6,0-2.3-.2-.3-.4-.6-.7-.8-.7-.4-1.5-.4-2.1,0-.3.2-.6.4-.7.8-.4.7-.4,1.6,0,2.3.2.3.4.6.7.8.7.4,1.5.4,2.1,0Z"/>
    <path class="st24" d="M270.6,155.6h2.2v6h3.7v1.7h-5.8v-7.7h-.1Z"/>
    <rect class="st24" x="155.3" y="125.2" width="187.2" height="5.9"/>
    <rect class="st24" x="188.9" y="183" width="124" height="64.6"/>
    <rect class="st33" x="272.7" y="201.3" width="38.2" height="44.7"/>
    <path class="st24" d="M291.8,247s-.1-10.4-.1-23.2,0-23.2.1-23.2.1,10.4.1,23.2,0,23.2-.1,23.2Z"/>
    <rect class="st33" x="191.1" y="201.3" width="38.2" height="44.7"/>
    <path class="st24" d="M210.2,247s-.1-10.4-.1-23.2,0-23.2.1-23.2.1,10.4.1,23.2,0,23.2-.1,23.2Z"/>
    <rect class="st24" x="206.9" y="219.5" width="2.3" height="8.4"/>
    <rect class="st24" x="211.5" y="219.5" width="2.3" height="8.4"/>
    <rect class="st33" x="191.4" y="185.9" width="38.2" height="12.7"/>
    <rect class="st33" x="231.9" y="185.9" width="38.2" height="12.7"/>
    <rect class="st33" x="272.4" y="185.9" width="38.2" height="12.7"/>
    <g class="st19">
      <polygon class="st3" points="310.9 213.1 272.7 230.5 272.7 234.6 310.9 216.5 310.9 213.1"/>
    </g>
    <g class="st19">
      <polygon class="st3" points="310.6 219.7 272.4 237 272.4 239.6 310.6 222 310.6 219.7"/>
    </g>
    <rect class="st33" x="231.9" y="201.3" width="38.2" height="44.7"/>
    <g class="st19">
      <polygon class="st3" points="270.1 201.3 231.9 218.6 231.9 226.9 270.1 208.3 270.1 201.3"/>
    </g>
    <g class="st19">
      <polygon class="st3" points="270.1 211 231.9 228.4 231.9 230.9 270.1 213.4 270.1 211"/>
    </g>
    <path class="st24" d="M251,247s-.1-10.4-.1-23.2,0-23.2.1-23.2.1,10.4.1,23.2,0,23.2-.1,23.2Z"/>
    <path class="st24" d="M257.7,221.1s1.6-2.4,3.8-5.3,4-5.2,4-5.1-1.6,2.4-3.8,5.3-4,5.2-4,5.1Z"/>
    <path class="st24" d="M256.5,229.3s1.9-3,4.4-6.5,4.6-6.4,4.7-6.3-1.9,3-4.4,6.5-4.6,6.4-4.7,6.3Z"/>
    <path class="st24" d="M235.7,232.2s1.8-1.9,4.1-4.2,2.8-2.7,4.3-4c0,0-1.8,1.9-4.1,4.2s-2.8,2.7-4.3,4Z"/>
    <path class="st24" d="M233.1,239.6c.1-.2.3-.3.4-.5l1.3-1.2,4.2-3.9,4.1-3.9,1.2-1.2c.1-.2.3-.3.5-.4-.1.2-.3.3-.4.5-.3.3-.7.7-1.2,1.3-1,1.1-2.4,2.5-4.1,4s-3.1,2.8-4.2,3.8c-.6.5-1,.9-1.3,1.1-.2.1-.3.3-.5.4h0Z"/>
    <rect class="st24" x="247.7" y="219.5" width="2.3" height="8.4"/>
    <rect class="st24" x="252.3" y="219.5" width="2.3" height="8.4"/>
    <path class="st24" d="M258,189.2c-.5.4-1.1.9-1.6,1.3l-4,3c-1.6,1.1-3,2.2-4.1,2.9-.5.4-1,.6-1.3.8-.2.1-.3.2-.5.3.5-.4,1.1-.9,1.6-1.3,1.1-.8,2.5-1.8,4-3s3-2.2,4.1-2.9c.5-.4,1-.6,1.3-.8.1-.1.3-.2.5-.3h0Z"/>
    <path class="st24" d="M251.1,191.5c-1.2,1-2.4,1.9-3.6,2.8-1.2.9-2.5,1.8-3.8,2.5,1.2-1,2.4-1.9,3.6-2.8,1.2-.9,2.5-1.8,3.8-2.5Z"/>
    <path class="st24" d="M217.6,187.2c-.5.5-1.1.9-1.6,1.2l-4,3c-1.6,1.1-3,2.2-4.1,2.9-.5.4-1,.6-1.3.8-.2.1-.3.2-.5.3.5-.4,1.1-.9,1.6-1.2l4-3c1.6-1.1,3-2.2,4.1-2.9.5-.4,1-.6,1.3-.8.2-.1.3-.2.5-.3Z"/>
    <path class="st24" d="M210.7,189.4c-1.2,1-2.4,1.9-3.6,2.8-1.2.9-2.5,1.8-3.8,2.5,2.4-1.9,4.9-3.7,7.5-5.3h0Z"/>
    <path class="st24" d="M303,188.2c-.5.5-1.1.9-1.7,1.3l-4,3c-1.6,1.1-3,2.2-4.1,2.9-.5.4-1,.6-1.3.8-.1.1-.3.2-.5.3.5-.4,1.1-.9,1.6-1.2l4-3c1.6-1.1,3-2.2,4.1-2.9.5-.4,1-.6,1.3-.8.2-.1.3-.2.5-.3h.1Z"/>
    <path class="st24" d="M296.1,190.4c-1.2,1-2.4,1.9-3.6,2.8-1.2.9-2.5,1.8-3.8,2.5,1.1-1,2.4-1.9,3.6-2.8,1.2-.9,2.5-1.8,3.8-2.5Z"/>
    <g class="st19">
      <polygon class="st3" points="224.3 201.3 209.1 201.3 191.4 209.1 191.4 216.4 224.3 201.3 224.3 201.3"/>
    </g>
    <g class="st19">
      <polygon class="st3" points="229.6 201.5 191.4 218.9 191.4 221.4 229.6 203.9 229.6 201.5"/>
    </g>
    <g class="st26">
      <rect class="st24" x="169.5" y="194.8" width="10.6" height="4.4"/>
    </g>
    <g class="st19">
      <rect class="st24" x="164.4" y="189.7" width="10.6" height="4.4"/>
    </g>
    <g class="st26">
      <rect class="st24" x="179.3" y="165.8" width="10.6" height="4.4"/>
    </g>
    <g class="st19">
      <rect class="st24" x="184.9" y="159.6" width="10.6" height="4.4"/>
    </g>
    <g class="st26">
      <rect class="st24" x="145.1" y="156.2" width="10.6" height="4.4"/>
    </g>
    <g class="st19">
      <rect class="st24" x="150.7" y="150" width="10.6" height="4.4"/>
    </g>
    <g class="st26">
      <rect class="st24" x="92.6" y="171.6" width="10.6" height="4.4"/>
    </g>
    <g class="st26">
      <rect class="st24" x="79.2" y="154.9" width="10.6" height="4.4"/>
    </g>
    <g class="st19">
      <rect class="st24" x="98.2" y="165.4" width="10.6" height="4.4"/>
    </g>
    <g class="st19">
      <rect class="st24" x="101.1" y="236.6" width="10.6" height="4.4"/>
    </g>
    <g class="st19">
      <rect class="st24" x="139.5" y="162.3" width="10.6" height="4.4"/>
    </g>
    <g class="st26">
      <rect class="st24" x="413.4" y="154" width="10.6" height="4.4"/>
    </g>
    <g class="st19">
      <rect class="st24" x="419.1" y="147.8" width="10.6" height="4.4"/>
    </g>
    <g class="st26">
      <rect class="st24" x="361" y="169.4" width="10.6" height="4.4"/>
    </g>
    <g class="st26">
      <rect class="st24" x="347.5" y="152.7" width="10.6" height="4.4"/>
    </g>
    <g class="st19">
      <rect class="st24" x="366.6" y="163.3" width="10.6" height="4.4"/>
    </g>
    <g class="st19">
      <rect class="st24" x="405.9" y="171" width="10.6" height="4.4"/>
    </g>
    <g class="st19">
      <rect class="st24" x="229.5" y="146.4" width="10.6" height="4.4"/>
    </g>
    <g class="st26">
      <rect class="st24" x="234.8" y="139.9" width="10.6" height="4.4"/>
    </g>
    <g class="st19">
      <rect class="st24" x="328.5" y="174.2" width="10.3" height="4.4"/>
    </g>
    <g class="st26">
      <rect class="st24" x="333.8" y="167.6" width="5" height="4.4"/>
    </g>
    <g class="st19">
      <rect class="st24" x="293.9" y="163.6" width="10.6" height="4.4"/>
    </g>
    <g class="st26">
      <rect class="st24" x="299.5" y="157" width="10.6" height="4.4"/>
    </g>
    <path class="st24" d="M161.3,247.5s-.1-26-.1-58.1,0-58.1.1-58.1.1,26,.1,58.1,0,58.1-.1,58.1Z"/>
    <rect class="st24" x="288.5" y="219.5" width="2.3" height="8.4"/>
    <rect class="st24" x="293.1" y="219.5" width="2.3" height="8.4"/>
    <rect class="st33" x="115" y="178.8" width="41.4" height="57.5"/>
    <rect class="st24" x="119" y="183" width="33.4" height="49.3"/>
    <rect class="st33" x="121.9" y="196.8" width="27.7" height="32.4"/>
    <rect class="st33" x="121.9" y="185.9" width="27.7" height="9.1"/>
    <path class="st24" d="M135.7,230.1s-.1-7.3-.1-16.4,0-16.4.1-16.4.1,7.3.1,16.4,0,16.4-.1,16.4Z"/>
    <path class="st24" d="M132.9,215.4c-1.2,1.2-2.4,2.4-3.7,3.5-1.2,1.2-2.5,2.2-3.9,3.2,1.2-1.2,2.4-2.4,3.7-3.5,1.2-1.2,2.5-2.2,3.9-3.3h0Z"/>
    <path class="st24" d="M132.9,213.1c-.7.8-1.5,1.5-2.3,2.2s-1.6,1.4-2.5,2c.7-.8,1.5-1.5,2.3-2.2s1.6-1.4,2.5-2Z"/>
    <path class="st24" d="M147.4,205.3c-1.3,1.2-2.6,2.4-4,3.5-1.3,1.2-2.7,2.3-4.2,3.3,1.3-1.2,2.6-2.4,4-3.5,1.3-1.2,2.7-2.3,4.2-3.3Z"/>
    <path class="st24" d="M143.8,210.3s-.3.5-.8,1-.9.8-1,.8.3-.5.8-1,1-.8,1-.8Z"/>
    <rect class="st33" x="69" y="178.8" width="41.4" height="57.5"/>
    <rect class="st24" x="73" y="183" width="33.4" height="49.3"/>
    <rect class="st33" x="75.9" y="196.8" width="27.7" height="32.4"/>
    <rect class="st33" x="75.9" y="185.9" width="27.7" height="9.1"/>
    <path class="st24" d="M89.7,230.1s0-7.3,0-16.4,0-16.4,0-16.4,0,7.3,0,16.4,0,16.4,0,16.4Z"/>
    <path class="st24" d="M86.9,215.4c-1.2,1.2-2.4,2.4-3.7,3.5-1.2,1.2-2.5,2.2-3.9,3.2,1.2-1.2,2.4-2.4,3.7-3.5,1.2-1.2,2.6-2.3,3.9-3.3h0Z"/>
    <path class="st24" d="M86.9,213.1c-.7.8-1.5,1.5-2.3,2.2s-1.6,1.4-2.5,2c.7-.8,1.5-1.5,2.3-2.2s1.6-1.4,2.5-2Z"/>
    <path class="st24" d="M101.4,205.3c-1.3,1.2-2.6,2.4-4,3.5-1.3,1.2-2.7,2.2-4.2,3.2,1.3-1.2,2.6-2.4,4-3.5,1.3-1.2,2.7-2.2,4.2-3.2Z"/>
    <path class="st24" d="M97.8,210.3s-.3.5-.8,1-.9.8-1,.8.3-.5.8-1,.9-.8,1-.8Z"/>
    <rect class="st33" x="390.5" y="178.8" width="41.4" height="57.5"/>
    <rect class="st24" x="394.5" y="183" width="33.4" height="49.3"/>
    <rect class="st33" x="397.4" y="196.8" width="27.7" height="32.4"/>
    <rect class="st33" x="397.4" y="185.9" width="27.7" height="9.1"/>
    <path class="st24" d="M411.2,230.1s-.1-7.3-.1-16.4,0-16.4.1-16.4.1,7.3.1,16.4,0,16.4-.1,16.4Z"/>
    <path class="st24" d="M408.4,215.4c-1.2,1.2-2.4,2.4-3.7,3.5-1.2,1.2-2.5,2.3-3.9,3.3,1.2-1.2,2.4-2.4,3.7-3.5,1.2-1.2,2.5-2.3,3.9-3.3Z"/>
    <path class="st24" d="M408.4,213.1c-.7.8-1.5,1.5-2.3,2.2s-1.6,1.4-2.5,2c.7-.8,1.5-1.5,2.3-2.2s1.6-1.4,2.5-2Z"/>
    <path class="st24" d="M422.9,205.3c-1.3,1.2-2.6,2.4-4,3.5-1.3,1.2-2.7,2.3-4.2,3.3,1.3-1.2,2.6-2.4,4-3.5,1.3-1.2,2.7-2.3,4.2-3.3Z"/>
    <path class="st24" d="M419.3,210.3s-.3.5-.8,1-.9.8-1,.8.3-.5.8-1,.9-.8,1-.8Z"/>
    <rect class="st33" x="344.5" y="178.8" width="41.4" height="57.5"/>
    <rect class="st24" x="348.5" y="183" width="33.4" height="49.3"/>
    <rect class="st33" x="351.4" y="196.8" width="27.7" height="32.4"/>
    <rect class="st33" x="351.4" y="185.9" width="27.7" height="9.1"/>
    <path class="st24" d="M365.2,230.1s-.1-7.3-.1-16.4,0-16.4.1-16.4.1,7.3.1,16.4,0,16.4-.1,16.4Z"/>
    <path class="st24" d="M362.4,215.4c-1.2,1.2-2.4,2.4-3.7,3.5-1.2,1.2-2.5,2.3-3.9,3.3,1.2-1.2,2.4-2.4,3.7-3.5,1.2-1.2,2.5-2.3,3.9-3.3Z"/>
    <path class="st24" d="M362.4,213.1c-.7.8-1.5,1.5-2.3,2.2s-1.6,1.4-2.5,2c.7-.8,1.5-1.5,2.3-2.2s1.6-1.4,2.5-2Z"/>
    <path class="st24" d="M376.9,205.3c-1.3,1.2-2.6,2.4-4,3.5-1.3,1.2-2.7,2.3-4.2,3.3,1.3-1.2,2.6-2.4,4-3.5,1.3-1.2,2.7-2.3,4.2-3.3Z"/>
    <path class="st24" d="M373.3,210.3s-.3.5-.8,1-.9.8-1,.8.3-.5.8-1,.9-.8,1-.8Z"/>
    <rect class="st24" x="58.2" y="140.2" width="103.2" height="4.4"/>
    <rect class="st24" x="338.8" y="140.2" width="100.3" height="4.4"/>
    <path class="st24" d="M338.8,247.6s-.1-26-.1-58.1,0-58.1.1-58.1.1,26,.1,58.1,0,58.1-.1,58.1Z"/>
  </g>
  <g id="freepik--freepik--high-school-building--inject-76--inject-901">
    <rect class="st34" x="62" y="248" width="375.1" height="105.3"/>
    <rect class="st34" x="161.3" y="236.8" width="177.5" height="117.6"/>
    <rect class="st33" x="62" y="322" width="126.9" height="10.5"/>
    <rect class="st33" x="311.2" y="322" width="125.9" height="10.5"/>
    <g class="st28">
      <rect class="st24" x="180.2" y="281.9" width="139.8" height="71.3"/>
    </g>
    <g class="st28">
      <path class="st24" d="M229.5,269.5c-.5-.1-1-.3-1.4-.6l.7-1.6c.8.5,1.6.8,2.5.8s1.3-.2,1.3-.6-.1-.4-.4-.5c-.4-.1-.8-.3-1.1-.3-.5-.1-1-.2-1.4-.4-.4-.1-.7-.4-1-.7-.3-.4-.4-.8-.4-1.3s.1-.9.4-1.3c.3-.4.7-.7,1.1-.9.6-.2,1.2-.4,1.9-.3.5,0,1,0,1.5.2.5.1.9.3,1.3.5l-.7,1.6c-.6-.4-1.4-.6-2.1-.6s-.7,0-.9.2c-.2,0-.3.3-.3.5s.1.4.4.5c.4.1.8.2,1.1.3.5.1,1,.2,1.5.4.4.1.7.4,1,.7.3.4.4.8.4,1.3s-.1.9-.4,1.2c-.3.4-.7.7-1.1.9-.6.2-1.2.3-1.9.3s-1.2-.1-1.8-.3h-.2Z"/>
      <path class="st24" d="M237.4,269.2c-.6-.3-1.1-.8-1.5-1.4-.7-1.3-.7-2.8,0-4.1.4-.6.9-1.1,1.5-1.4,1.3-.6,2.8-.7,4.1-.1.5.2,1,.6,1.4,1.1l-1.4,1.2c-.4-.6-1.1-.9-1.8-.9s-.8,0-1.1.3c-.3.2-.6.5-.8.8-.3.7-.3,1.6,0,2.3.2.3.4.6.8.8,1,.5,2.2.3,2.9-.6l1.4,1.2c-.4.5-.9.8-1.4,1.1-1.3.5-2.8.5-4.1-.1h0v-.2Z"/>
      <path class="st24" d="M251.1,261.9v7.7h-2.2v-3h-3v3h-2.2v-7.7h2.2v2.9h3v-2.9h2.2Z"/>
      <path class="st24" d="M254.3,269.2c-1.9-1-2.7-3.4-1.7-5.3.4-.7,1-1.3,1.7-1.7,1.4-.7,3-.7,4.4,0,1.9,1,2.7,3.4,1.7,5.3h0c-.4.7-.9,1.3-1.7,1.7-1.4.7-3,.7-4.4,0h0ZM257.6,267.6c.3-.2.6-.4.8-.8.4-.7.4-1.6,0-2.3-.2-.3-.4-.6-.7-.8-.7-.4-1.5-.4-2.1,0-.3.2-.6.5-.8.8-.4.7-.4,1.6,0,2.3.2.3.4.6.8.8.6.4,1.4.4,2.1,0h0Z"/>
      <path class="st24" d="M263.6,269.2c-1.9-1-2.7-3.4-1.6-5.3.4-.7.9-1.3,1.6-1.6,1.4-.7,3-.7,4.4,0,1.9,1,2.7,3.4,1.6,5.3-.4.7-.9,1.3-1.6,1.6-1.4.7-3,.7-4.4,0ZM266.9,267.6c.3-.2.6-.4.8-.8.4-.7.4-1.6,0-2.3-.2-.3-.4-.6-.8-.8-.7-.4-1.4-.4-2.1,0-.3.2-.6.5-.7.8-.4.7-.4,1.6,0,2.3.2.3.4.6.7.8.7.4,1.4.4,2.1,0Z"/>
      <path class="st24" d="M271.2,261.9h2.2v6h3.7v1.7h-5.8v-7.7h-.1Z"/>
    </g>
    <path class="st24" d="M228.9,268.9c-.5-.1-1-.3-1.4-.6l.7-1.6c.8.5,1.6.7,2.5.8.8,0,1.2-.2,1.2-.6s-.1-.4-.4-.5c-.4-.1-.7-.3-1.1-.3s-1-.2-1.4-.4c-.4-.1-.7-.4-1-.7-.3-.4-.4-.8-.4-1.3s.1-.9.4-1.3c.3-.4.7-.7,1.1-.9.6-.2,1.2-.3,1.9-.3s1,0,1.5.2c.5,0,.9.3,1.3.5l-.7,1.6c-.6-.4-1.4-.6-2.1-.6s-.7,0-.9.2c-.2.1-.3.3-.3.5s.1.4.3.5c.4.1.8.2,1.1.3.5.1,1,.2,1.4.4.4.1.7.4,1,.7.3.4.5.8.4,1.3,0,.4-.1.9-.4,1.3-.3.4-.7.7-1.1.9-.6.2-1.2.3-1.9.3s-1.2-.1-1.8-.3h0Z"/>
    <path class="st24" d="M236.8,268.6c-.6-.3-1.1-.8-1.5-1.4-.7-1.3-.7-2.8,0-4.1.4-.6.9-1.1,1.5-1.4,1.3-.6,2.7-.7,4.1-.1.6.2,1,.6,1.4,1.1l-1.4,1.3c-.7-.9-1.9-1.1-2.9-.6-.3.2-.6.4-.8.8-.4.7-.4,1.6,0,2.3.2.3.4.6.8.8,1,.6,2.2.3,2.9-.6l1.4,1.3c-.4.5-.9.8-1.4,1.1-.6.3-1.2.4-1.9.4s-1.5-.2-2.2-.6v-.3Z"/>
    <path class="st24" d="M250.5,261.3v7.7h-2.2v-3h-3v3h-2.2v-7.7h2.2v2.9h3v-2.9h2.2Z"/>
    <path class="st24" d="M253.8,268.6c-1.9-1-2.7-3.4-1.7-5.3h0c.4-.7,1-1.3,1.7-1.7,1.4-.7,3-.7,4.4,0,1.9,1,2.7,3.4,1.7,5.3-.4.7-1,1.3-1.7,1.7-1.4.7-3,.7-4.4,0h0ZM257,267c.3-.2.6-.4.8-.8.4-.7.4-1.6,0-2.3-.2-.3-.4-.6-.7-.8-.3-.2-.7-.3-1.1-.3s-.7,0-1.1.3c-.3.2-.6.5-.7.8-.2.3-.3.7-.3,1.1s0,.8.3,1.1c.2.3.4.6.7.8.7.4,1.5.4,2.1,0h0Z"/>
    <path class="st24" d="M263,268.6c-1.9-1-2.7-3.4-1.6-5.3.4-.7.9-1.3,1.6-1.6,1.4-.7,3-.7,4.4,0,1.9,1,2.7,3.4,1.6,5.3-.4.7-.9,1.3-1.6,1.6-1.4.7-3,.7-4.4,0ZM266.3,267c.3-.2.6-.4.7-.8.4-.7.4-1.6,0-2.3-.2-.3-.4-.6-.7-.8-.7-.4-1.5-.4-2.1,0-.3.2-.6.4-.7.8-.4.7-.4,1.6,0,2.3.2.3.4.6.7.8.7.4,1.5.4,2.1,0Z"/>
    <path class="st24" d="M270.6,261.3h2.2v6h3.7v1.7h-5.8v-7.7h-.1Z"/>
    <rect class="st24" x="155.3" y="230.9" width="187.2" height="5.9"/>
    <rect class="st24" x="188.9" y="288.6" width="124" height="64.6"/>
    <rect class="st33" x="272.7" y="307" width="38.2" height="44.7"/>
    <path class="st24" d="M291.8,352.7s-.1-10.4-.1-23.2,0-23.2.1-23.2.1,10.4.1,23.2,0,23.2-.1,23.2Z"/>
    <rect class="st33" x="191.1" y="307" width="38.2" height="44.7"/>
    <path class="st24" d="M210.2,352.7s-.1-10.4-.1-23.2,0-23.2.1-23.2.1,10.4.1,23.2,0,23.2-.1,23.2Z"/>
    <rect class="st24" x="206.9" y="325.1" width="2.3" height="8.4"/>
    <rect class="st24" x="211.5" y="325.1" width="2.3" height="8.4"/>
    <rect class="st33" x="191.4" y="291.5" width="38.2" height="12.7"/>
    <rect class="st33" x="231.9" y="291.5" width="38.2" height="12.7"/>
    <rect class="st33" x="272.4" y="291.5" width="38.2" height="12.7"/>
    <g class="st19">
      <polygon class="st3" points="310.9 318.8 272.7 336.1 272.7 340.3 310.9 322.1 310.9 318.8"/>
    </g>
    <g class="st19">
      <polygon class="st3" points="310.6 325.4 272.4 342.7 272.4 345.2 310.6 327.7 310.6 325.4"/>
    </g>
    <rect class="st33" x="231.9" y="307" width="38.2" height="44.7"/>
    <g class="st19">
      <polygon class="st3" points="270.1 307 231.9 324.3 231.9 332.5 270.1 313.9 270.1 307"/>
    </g>
    <g class="st19">
      <polygon class="st3" points="270.1 316.7 231.9 334 231.9 336.6 270.1 319 270.1 316.7"/>
    </g>
    <path class="st24" d="M251,352.7s-.1-10.4-.1-23.2,0-23.2.1-23.2.1,10.4.1,23.2,0,23.2-.1,23.2Z"/>
    <path class="st24" d="M257.7,326.8s1.6-2.4,3.8-5.3c2.2-2.9,4-5.2,4-5.1s-1.6,2.4-3.8,5.3-4,5.2-4,5.1Z"/>
    <path class="st24" d="M256.5,335s1.9-3,4.4-6.5,4.6-6.4,4.7-6.3-1.9,3-4.4,6.5-4.6,6.4-4.7,6.3Z"/>
    <path class="st24" d="M235.7,337.9s1.8-1.9,4.1-4.2c1.4-1.4,2.8-2.7,4.3-4,0,0-1.8,1.9-4.1,4.2-1.4,1.4-2.8,2.7-4.3,4Z"/>
    <path class="st24" d="M233.1,345.2c.1-.2.3-.3.4-.5l1.3-1.2,4.2-3.9,4.1-3.9,1.2-1.2c.1-.2.3-.3.5-.4-.1.2-.3.3-.4.5-.3.3-.7.7-1.2,1.3-1,1.1-2.4,2.5-4.1,4s-3.1,2.8-4.2,3.8c-.6.5-1,.9-1.3,1.1-.2.1-.3.3-.5.4h0Z"/>
    <rect class="st24" x="247.7" y="325.1" width="2.3" height="8.4"/>
    <rect class="st24" x="252.3" y="325.1" width="2.3" height="8.4"/>
    <path class="st24" d="M258,294.8c-.5.4-1.1.9-1.6,1.3l-4,3c-1.6,1.1-3,2.2-4.1,2.9-.5.4-1,.6-1.3.8-.2.1-.3.2-.5.3.5-.4,1.1-.9,1.6-1.3,1.1-.8,2.5-1.8,4-3s3-2.2,4.1-2.9c.5-.4,1-.6,1.3-.8.1-.1.3-.2.5-.3h0Z"/>
    <path class="st24" d="M251.1,297.1c-1.2,1-2.4,1.9-3.6,2.8-1.2.9-2.5,1.8-3.8,2.5,1.2-1,2.4-1.9,3.6-2.8,1.2-.9,2.5-1.8,3.8-2.5Z"/>
    <path class="st24" d="M217.6,292.8c-.5.5-1.1.9-1.6,1.2l-4,3c-1.6,1.1-3,2.2-4.1,2.9-.5.4-1,.6-1.3.8-.2.1-.3.2-.5.3.5-.4,1.1-.9,1.6-1.2l4-3c1.6-1.1,3-2.2,4.1-2.9.5-.4,1-.6,1.3-.8.2-.1.3-.2.5-.3Z"/>
    <path class="st24" d="M210.7,295.1c-1.2,1-2.4,1.9-3.6,2.8-1.2.9-2.5,1.8-3.8,2.5,2.4-1.9,4.9-3.7,7.5-5.3h0Z"/>
    <path class="st24" d="M303,293.8c-.5.5-1.1.9-1.7,1.3l-4,3c-1.6,1.1-3,2.2-4.1,2.9-.5.4-1,.6-1.3.8-.1.1-.3.2-.5.3.5-.4,1.1-.9,1.6-1.2l4-3c1.6-1.1,3-2.2,4.1-2.9.5-.4,1-.6,1.3-.8.2-.1.3-.2.5-.3h.1Z"/>
    <path class="st24" d="M296.1,296.1c-1.2,1-2.4,1.9-3.6,2.8s-2.5,1.8-3.8,2.5c1.1-1,2.4-1.9,3.6-2.8s2.5-1.8,3.8-2.5Z"/>
    <g class="st19">
      <polygon class="st3" points="224.3 307 209.1 307 191.4 314.8 191.4 322 224.3 307 224.3 307"/>
    </g>
    <g class="st19">
      <polygon class="st3" points="229.6 307.2 191.4 324.5 191.4 327.1 229.6 309.5 229.6 307.2"/>
    </g>
    <g class="st26">
      <rect class="st24" x="169.5" y="300.4" width="10.6" height="4.4"/>
    </g>
    <g class="st19">
      <rect class="st24" x="164.4" y="295.3" width="10.6" height="4.4"/>
    </g>
    <g class="st26">
      <rect class="st24" x="179.3" y="271.5" width="10.6" height="4.4"/>
    </g>
    <g class="st19">
      <rect class="st24" x="184.9" y="265.3" width="10.6" height="4.4"/>
    </g>
    <g class="st26">
      <rect class="st24" x="145.1" y="261.9" width="10.6" height="4.4"/>
    </g>
    <g class="st19">
      <rect class="st24" x="150.7" y="255.7" width="10.6" height="4.4"/>
    </g>
    <g class="st26">
      <rect class="st24" x="92.6" y="277.3" width="10.6" height="4.4"/>
    </g>
    <g class="st26">
      <rect class="st24" x="79.2" y="260.5" width="10.6" height="4.4"/>
    </g>
    <g class="st19">
      <rect class="st24" x="98.2" y="271.1" width="10.6" height="4.4"/>
    </g>
    <g class="st19">
      <rect class="st24" x="101.1" y="342.3" width="10.6" height="4.4"/>
    </g>
    <g class="st19">
      <rect class="st24" x="139.5" y="267.9" width="10.6" height="4.4"/>
    </g>
    <g class="st26">
      <rect class="st24" x="413.4" y="259.7" width="10.6" height="4.4"/>
    </g>
    <g class="st19">
      <rect class="st24" x="419.1" y="253.5" width="10.6" height="4.4"/>
    </g>
    <g class="st26">
      <rect class="st24" x="361" y="275.1" width="10.6" height="4.4"/>
    </g>
    <g class="st26">
      <rect class="st24" x="347.5" y="258.3" width="10.6" height="4.4"/>
    </g>
    <g class="st19">
      <rect class="st24" x="366.6" y="268.9" width="10.6" height="4.4"/>
    </g>
    <g class="st19">
      <rect class="st24" x="405.9" y="276.7" width="10.6" height="4.4"/>
    </g>
    <g class="st19">
      <rect class="st24" x="229.5" y="252.1" width="10.6" height="4.4"/>
    </g>
    <g class="st26">
      <rect class="st24" x="234.8" y="245.5" width="10.6" height="4.4"/>
    </g>
    <g class="st19">
      <rect class="st24" x="328.5" y="279.9" width="10.3" height="4.4"/>
    </g>
    <g class="st26">
      <rect class="st24" x="333.8" y="273.3" width="5" height="4.4"/>
    </g>
    <g class="st19">
      <rect class="st24" x="293.9" y="269.3" width="10.6" height="4.4"/>
    </g>
    <g class="st26">
      <rect class="st24" x="299.5" y="262.7" width="10.6" height="4.4"/>
    </g>
    <path class="st24" d="M161.3,353.1s-.1-26-.1-58.1,0-58.1.1-58.1.1,26,.1,58.1,0,58.1-.1,58.1Z"/>
    <rect class="st24" x="288.5" y="325.1" width="2.3" height="8.4"/>
    <rect class="st24" x="293.1" y="325.1" width="2.3" height="8.4"/>
    <rect class="st33" x="115" y="284.5" width="41.4" height="57.5"/>
    <rect class="st24" x="119" y="288.6" width="33.4" height="49.3"/>
    <rect class="st33" x="121.9" y="302.4" width="27.7" height="32.4"/>
    <rect class="st33" x="121.9" y="291.5" width="27.7" height="9.1"/>
    <path class="st24" d="M135.7,335.8s-.1-7.3-.1-16.4,0-16.4.1-16.4.1,7.3.1,16.4,0,16.4-.1,16.4Z"/>
    <path class="st24" d="M132.9,321.1c-1.2,1.2-2.4,2.4-3.7,3.5-1.2,1.2-2.5,2.2-3.9,3.2,1.2-1.2,2.4-2.4,3.7-3.5,1.2-1.2,2.5-2.2,3.9-3.3h0Z"/>
    <path class="st24" d="M132.9,318.8c-.7.8-1.5,1.5-2.3,2.2s-1.6,1.4-2.5,2c.7-.8,1.5-1.5,2.3-2.2s1.6-1.4,2.5-2Z"/>
    <path class="st24" d="M147.4,310.9c-1.3,1.2-2.6,2.4-4,3.5-1.3,1.2-2.7,2.3-4.2,3.3,1.3-1.2,2.6-2.4,4-3.5,1.3-1.2,2.7-2.3,4.2-3.3Z"/>
    <path class="st24" d="M143.8,315.9s-.3.5-.8,1-.9.8-1,.8.3-.5.8-1,1-.8,1-.8Z"/>
    <rect class="st33" x="69" y="284.5" width="41.4" height="57.5"/>
    <rect class="st24" x="73" y="288.6" width="33.4" height="49.3"/>
    <rect class="st33" x="75.9" y="302.4" width="27.7" height="32.4"/>
    <rect class="st33" x="75.9" y="291.5" width="27.7" height="9.1"/>
    <path class="st24" d="M89.7,335.8s0-7.3,0-16.4,0-16.4,0-16.4,0,7.3,0,16.4,0,16.4,0,16.4Z"/>
    <path class="st24" d="M86.9,321.1c-1.2,1.2-2.4,2.4-3.7,3.5-1.2,1.2-2.5,2.2-3.9,3.2,1.2-1.2,2.4-2.4,3.7-3.5,1.2-1.2,2.6-2.3,3.9-3.3h0Z"/>
    <path class="st24" d="M86.9,318.8c-.7.8-1.5,1.5-2.3,2.2s-1.6,1.4-2.5,2c.7-.8,1.5-1.5,2.3-2.2s1.6-1.4,2.5-2Z"/>
    <path class="st24" d="M101.4,310.9c-1.3,1.2-2.6,2.4-4,3.5-1.3,1.2-2.7,2.2-4.2,3.2,1.3-1.2,2.6-2.4,4-3.5,1.3-1.2,2.7-2.2,4.2-3.2Z"/>
    <path class="st24" d="M97.8,315.9s-.3.5-.8,1-.9.8-1,.8.3-.5.8-1,.9-.8,1-.8Z"/>
    <rect class="st33" x="390.5" y="284.5" width="41.4" height="57.5"/>
    <rect class="st24" x="394.5" y="288.6" width="33.4" height="49.3"/>
    <rect class="st33" x="397.4" y="302.4" width="27.7" height="32.4"/>
    <rect class="st33" x="397.4" y="291.5" width="27.7" height="9.1"/>
    <path class="st24" d="M411.2,335.8s-.1-7.3-.1-16.4,0-16.4.1-16.4.1,7.3.1,16.4,0,16.4-.1,16.4Z"/>
    <path class="st24" d="M408.4,321.1c-1.2,1.2-2.4,2.4-3.7,3.5-1.2,1.2-2.5,2.3-3.9,3.3,1.2-1.2,2.4-2.4,3.7-3.5,1.2-1.2,2.5-2.3,3.9-3.3Z"/>
    <path class="st24" d="M408.4,318.8c-.7.8-1.5,1.5-2.3,2.2s-1.6,1.4-2.5,2c.7-.8,1.5-1.5,2.3-2.2s1.6-1.4,2.5-2Z"/>
    <path class="st24" d="M422.9,310.9c-1.3,1.2-2.6,2.4-4,3.5-1.3,1.2-2.7,2.3-4.2,3.3,1.3-1.2,2.6-2.4,4-3.5,1.3-1.2,2.7-2.3,4.2-3.3Z"/>
    <path class="st24" d="M419.3,315.9s-.3.5-.8,1-.9.8-1,.8.3-.5.8-1,.9-.8,1-.8Z"/>
    <rect class="st33" x="344.5" y="284.5" width="41.4" height="57.5"/>
    <rect class="st24" x="348.5" y="288.6" width="33.4" height="49.3"/>
    <rect class="st33" x="351.4" y="302.4" width="27.7" height="32.4"/>
    <rect class="st33" x="351.4" y="291.5" width="27.7" height="9.1"/>
    <path class="st24" d="M365.2,335.8s-.1-7.3-.1-16.4,0-16.4.1-16.4.1,7.3.1,16.4,0,16.4-.1,16.4Z"/>
    <path class="st24" d="M362.4,321.1c-1.2,1.2-2.4,2.4-3.7,3.5-1.2,1.2-2.5,2.3-3.9,3.3,1.2-1.2,2.4-2.4,3.7-3.5,1.2-1.2,2.5-2.3,3.9-3.3Z"/>
    <path class="st24" d="M362.4,318.8c-.7.8-1.5,1.5-2.3,2.2s-1.6,1.4-2.5,2c.7-.8,1.5-1.5,2.3-2.2s1.6-1.4,2.5-2Z"/>
    <path class="st24" d="M376.9,310.9c-1.3,1.2-2.6,2.4-4,3.5-1.3,1.2-2.7,2.3-4.2,3.3,1.3-1.2,2.6-2.4,4-3.5,1.3-1.2,2.7-2.3,4.2-3.3Z"/>
    <path class="st24" d="M373.3,315.9s-.3.5-.8,1-.9.8-1,.8.3-.5.8-1,.9-.8,1-.8Z"/>
    <rect class="st24" x="58.2" y="245.8" width="103.2" height="4.4"/>
    <rect class="st24" x="338.8" y="245.8" width="100.3" height="4.4"/>
    <path class="st24" d="M338.8,353.2s-.1-26-.1-58.1,0-58.1.1-58.1.1,26,.1,58.1,0,58.1-.1,58.1Z"/>
  </g>
  <g id="freepik--freepik--high-school-building--inject-76--inject-902">
    <rect class="st34" x="99.9" y="83" width="304.2" height="201.5"/>
    <g class="st28">
      <rect class="st24" x="132.2" y="160.4" width="239.5" height="122.3"/>
    </g>
    <rect class="st24" x="89.6" y="72.9" width="320.8" height="10.1"/>
    <rect class="st24" x="147.2" y="171.8" width="212.6" height="110.8"/>
    <rect class="st33" x="290.8" y="203.3" width="65.5" height="76.7"/>
    <path class="st24" d="M323.5,281.6c-.1,0-.3-17.8-.3-39.8s.1-39.8.3-39.8.3,17.8.3,39.8-.2,39.8-.3,39.8Z"/>
    <rect class="st33" x="150.9" y="203.3" width="65.5" height="76.7"/>
    <path class="st24" d="M183.6,281.6c-.1,0-.2-17.8-.2-39.8s.1-39.8.2-39.8.3,17.8.3,39.8-.1,39.8-.3,39.8Z"/>
    <rect class="st24" x="178.1" y="234.4" width="3.9" height="14.4"/>
    <rect class="st24" x="185.9" y="234.4" width="3.9" height="14.4"/>
    <rect class="st33" x="151.4" y="176.8" width="65.5" height="21.8"/>
    <rect class="st33" x="220.9" y="176.8" width="65.5" height="21.8"/>
    <rect class="st33" x="290.3" y="176.8" width="65.5" height="21.8"/>
    <g class="st19">
      <polygon class="st3" points="356.3 223.6 290.8 253.3 290.8 260.4 356.3 229.3 356.3 223.6"/>
    </g>
    <g class="st19">
      <polygon class="st3" points="355.8 234.8 290.3 264.5 290.3 268.8 355.8 238.8 355.8 234.8"/>
    </g>
    <rect class="st33" x="220.9" y="203.3" width="65.5" height="76.7"/>
    <g class="st19">
      <polygon class="st3" points="286.3 203.3 220.9 233 220.9 247.1 286.3 215.2 286.3 203.3"/>
    </g>
    <g class="st19">
      <polygon class="st3" points="286.3 220 220.9 249.7 220.9 254 286.3 224 286.3 220"/>
    </g>
    <path class="st24" d="M253.5,281.6c-.1,0-.3-17.8-.3-39.8s.1-39.8.3-39.8.3,17.8.3,39.8-.1,39.8-.3,39.8Z"/>
    <path class="st24" d="M265.1,237.2c-.1,0,2.8-4.1,6.5-9.1,3.7-4.9,6.8-8.8,6.9-8.8s-2.8,4.1-6.5,9.1-6.8,8.9-6.9,8.8Z"/>
    <path class="st24" d="M263.1,251.3c-.1,0,3.3-5.1,7.6-11.1,4.3-6,7.9-10.9,8-10.9s-3.3,5.1-7.6,11.1c-4.3,6-7.9,10.9-8,10.9Z"/>
    <path class="st24" d="M227.4,256.3s3.1-3.3,7.1-7.2c2.4-2.4,4.8-4.7,7.4-6.8,0,0-3.1,3.3-7.1,7.2-2.3,2.4-4.8,4.7-7.4,6.9h0Z"/>
    <path class="st24" d="M222.8,268.8c.2-.3.5-.5.7-.8l2.2-2,7.2-6.6,7-6.7,2.1-2c.2-.3.5-.5.8-.7-.2.3-.4.6-.7.8-.5.5-1.2,1.3-2,2.2-1.7,1.8-4.2,4.2-7,6.9-2.8,2.6-5.4,4.9-7.3,6.5-1,.8-1.7,1.5-2.3,1.9-.3.2-.5.5-.8.7v-.2Z"/>
    <rect class="st24" x="248" y="234.4" width="3.9" height="14.4"/>
    <rect class="st24" x="255.8" y="234.4" width="3.9" height="14.4"/>
    <path class="st24" d="M265.6,182.5c-.9.8-1.8,1.5-2.8,2.1l-6.9,5.1c-2.7,1.9-5.1,3.7-7,5-.9.6-1.7,1.1-2.2,1.4-.3.2-.5.3-.8.4.9-.8,1.8-1.5,2.8-2.1,1.9-1.4,4.2-3.1,6.9-5.1,2.6-2,5.1-3.7,7-5,.9-.6,1.7-1.1,2.2-1.4.3-.2.5-.3.8-.4h0Z"/>
    <path class="st24" d="M253.8,186.4c-2,1.7-4.1,3.3-6.2,4.8-2.1,1.6-4.3,3.1-6.5,4.4,2-1.7,4.1-3.3,6.2-4.8,2.1-1.6,4.3-3.1,6.5-4.4Z"/>
    <path class="st24" d="M196.4,179c-.9.8-1.8,1.5-2.8,2.1l-6.9,5.1c-2.7,1.9-5.1,3.7-7,5-.9.6-1.7,1.1-2.2,1.4-.3.2-.5.3-.8.4.9-.8,1.8-1.5,2.8-2.1l6.9-5.1c2.7-2,5.1-3.7,7-5,.9-.6,1.7-1.1,2.2-1.4.3-.2.5-.3.8-.4Z"/>
    <path class="st24" d="M184.6,182.9c-2,1.7-4.1,3.3-6.2,4.8-2.1,1.6-4.3,3-6.5,4.4,4.1-3.3,8.3-6.4,12.8-9.1h-.1Z"/>
    <path class="st24" d="M342.7,180.7c-.9.8-1.8,1.5-2.8,2.1l-6.9,5.1c-2.7,2-5.1,3.7-7,5-.9.6-1.7,1.1-2.2,1.4-.3.2-.5.3-.8.4.9-.8,1.8-1.5,2.8-2.1l6.9-5.1c2.7-1.9,5.1-3.7,7-5,.9-.6,1.7-1.1,2.2-1.4.3-.2.6-.3.8-.4Z"/>
    <path class="st24" d="M330.9,184.6c-2,1.7-4.1,3.3-6.2,4.8-2.1,1.6-4.3,3.1-6.5,4.4,2-1.7,4.1-3.3,6.2-4.8,2.1-1.6,4.3-3,6.5-4.4Z"/>
    <g class="st19">
      <polygon class="st3" points="207.9 203.3 181.8 203.3 151.4 216.7 151.4 229.1 207.9 203.3 207.9 203.3"/>
    </g>
    <g class="st19">
      <polygon class="st3" points="216.9 203.7 151.4 233.4 151.4 237.7 216.9 207.7 216.9 203.7"/>
    </g>
    <g class="st26">
      <rect class="st24" x="114" y="192.1" width="18.2" height="7.5"/>
    </g>
    <g class="st19">
      <rect class="st24" x="105.2" y="183.3" width="18.2" height="7.5"/>
    </g>
    <g class="st26">
      <rect class="st24" x="130.6" y="142.4" width="18.2" height="7.5"/>
    </g>
    <g class="st19">
      <rect class="st24" x="140.3" y="131.9" width="18.2" height="7.5"/>
    </g>
    <g class="st26">
      <rect class="st24" x="225.8" y="98" width="18.2" height="7.5"/>
    </g>
    <g class="st19">
      <rect class="st24" x="386.4" y="156.8" width="17.7" height="7.5"/>
    </g>
    <g class="st26">
      <rect class="st24" x="395.5" y="145.6" width="8.6" height="7.5"/>
    </g>
    <g class="st19">
      <rect class="st24" x="327.1" y="138.6" width="18.2" height="7.5"/>
    </g>
    <g class="st26">
      <rect class="st24" x="336.8" y="127.4" width="18.2" height="7.5"/>
    </g>
    <path class="st24" d="M100,282.4c-.2,0-.3-44.6-.3-99.6s0-99.6.3-99.6.2,44.6.2,99.6,0,99.6-.2,99.6Z"/>
    <rect class="st24" x="317.9" y="234.4" width="3.9" height="14.4"/>
    <rect class="st24" x="325.7" y="234.4" width="3.9" height="14.4"/>
  </g>
  <g id="freepik--Floor--inject-2">
    <path id="freepik--floor--inject-2" class="st36" d="M110.9,290.1c-76.9,35.6-76.9,93.1,0,128.7,76.9,35.6,201.4,35.6,278.3,0s76.9-93.1,0-128.7-201.5-35.6-278.3,0h0Z"/>
  </g>
  <g id="freepik--Blackboard--inject-2">
    <g id="freepik--Board--inject-2">
      <polygon class="st1" points="245.9 166.3 363.9 234.4 363.9 233.2 245.9 165.1 245.9 166.3"/>
      <polygon class="st32" points="249.7 162.9 245.9 165.1 363.9 233.2 367.7 231.1 249.7 162.9"/>
      <polygon class="st15" points="367.7 231.1 363.9 233.2 363.9 234.4 367.7 232.3 367.7 231.1"/>
      <polygon class="st0" points="249.7 162.9 367.7 231.1 367.7 140.6 249.7 72.5 249.7 162.9"/>
      <g class="st19">
        <polygon points="249.7 162.9 367.7 231.1 367.7 140.6 249.7 72.5 249.7 162.9"/>
      </g>
      <polygon class="st1" points="364.3 224.7 364.3 143.2 253 78.9 253 160.4 364.3 224.7"/>
      <polygon class="st15" points="364.3 222.2 364.3 224.7 253 160.4 253 78.9 255.2 80.2 255.2 159.2 364.3 222.2"/>
      <g class="st28">
        <polygon points="364.3 224.7 367.7 231.1 249.7 162.9 253 160.4 364.3 224.7"/>
      </g>
      <g class="st19">
        <polygon points="253 78.9 249.7 72.5 367.7 140.6 364.3 143.2 253 78.9"/>
      </g>
      <polygon class="st0" points="370.6 139 367.7 140.6 367.7 231.1 370.6 229.4 370.6 139"/>
      <g class="st28">
        <polygon points="370.6 139 367.7 140.6 367.7 231.1 370.6 229.4 370.6 139"/>
      </g>
      <polygon class="st0" points="249.7 72.5 252.6 70.8 370.6 139 367.7 140.6 249.7 72.5"/>
      <g class="st26">
        <polygon points="249.7 72.5 252.6 70.8 370.6 139 367.7 140.6 249.7 72.5"/>
      </g>
      <path class="st36" d="M333.9,213.1c0-.8.5-1.5,1.1-1.9.2-.2.6-.2.8,0h0l12.4,7.2-1.5,2.7-12.4-7.2h0c-.2,0-.4-.4-.4-.6v-.2Z"/>
      <path class="st37" d="M347.5,218.3c-.6.4-1,1.1-1.1,1.9,0,.7.5,1,1.1.6s1-1.1,1.1-1.9c0-.7-.5-1-1.1-.6Z"/>
    </g>
  </g>
  <g id="freepik--character-3--inject-2">
    <g id="freepik--Character--inject-2">
      <g id="freepik--wheel-chair--inject-2">
        <path class="st32" d="M338,321.6v3.3c0,3.1.9,6.2,2.5,8.9,0,.2.2.4.4.6h0c0,.2.2.4.3.6,2.8,3.9,7.1,6.4,11.9,6.9h1.9c3.5-.2,6.9-1.2,9.9-3.1l1.5-.8c12.5-7.2,22.6-24.7,22.6-39.2v-3.3c0-2.8-.7-5.6-2-8.1h0l-.2-.3-.2-.2c0-.2-.2-.4-.4-.6s-.2-.2-.2-.3l-.2-.2s-.2-.2-.2-.4l-.2-.2c-2.8-3.6-7-6-11.6-6.5h-1.7c-3.5.2-6.9,1.2-9.9,3.1l-1.5.8c-12.6,7.2-22.7,24.8-22.7,39.2v-.2ZM346.5,322.4c0-12.2,8.6-27,19.1-33.1s19.1-1.1,19.1,11.1-8.6,27-19.1,33.1-19.1,1.2-19.1-11.1h0Z"/>
        <path class="st15" d="M342.3,324.1v1.7c0,7.1,2.5,12.2,6.5,14.5h.2v.2h0l.3.2c.2,0,.4.2.6.3l.3.2.3.2h.3c.2.2.5.2.8.3h.8l.5.2h1.4c3.6,0,7.1-1.1,10.1-3l1.5-.8c12.5-7.2,22.6-24.7,22.6-39.2v-6.6c-.2-.3-.2-.6-.2-.8s0-.5-.2-.7c0-.4-.2-.9-.4-1.3h0c0-.2-.2-.4-.2-.6-.2-.4-.3-.8-.5-1.2l-.2-.3-.2-.3-.2-.2c0-.2-.2-.4-.4-.6s-.2-.2-.2-.3l-.2-.2s-.2-.2-.2-.4-.2-.2-.3-.3l-.3-.3-.6-.6-.3-.3c-.2-.2-.5-.4-.7-.6,0,0-.2-.2-.3-.2l-.4-.2h0l-.3-.2c-4.1-2.3-9.7-1.9-15.8,1.6l-1.5.8c-12.3,7.3-22.4,24.9-22.4,39.3l-.2-.3ZM346.5,322.5c0-12.2,8.6-27,19.1-33.1s19.1-1.1,19.1,11.1-8.6,27-19.1,33.1-19.1,1.1-19.1-11.1Z"/>
        <path class="st0" d="M351.4,330.3c3,3.6,8.2,4.1,14.2.6,9.4-5.4,17-18.6,17-29.4s-1.5-8.4-4-10.3c1.8,2.1,2.7,5.2,2.7,9.1,0,10.8-7.6,24-17,29.4-5.2,3.1-9.9,3.1-12.9.6h0Z"/>
        <path class="st11" d="M351.4,330.3c3,3.6,8.2,4.1,14.2.6,9.4-5.4,17-18.6,17-29.4s-1.5-8.4-4-10.3c1.8,2.1,2.7,5.2,2.7,9.1,0,10.8-7.6,24-17,29.4-5.2,3.1-9.9,3.1-12.9.6h0Z"/>
        <path class="st0" d="M346.5,322.5c0,12.2,8.6,17.1,19.1,11s19.1-20.9,19.1-33.1-8.6-17.1-19.1-11.1-19.1,21-19.1,33.2ZM348.6,321.2c0-10.8,7.6-24,17-29.4s17-1,17,9.8-7.6,24-17,29.4-17,1.1-17-9.8Z"/>
        <path class="st33" d="M349.2,315.8v-.6l14.9-4,.3-.5-10.9-6.3.2-.5,10.9,6.3.2-.6-4-14.7.4-.4,3.9,14.4.5-.6,3.8-18.6.6-.2-3.7,18.3h.6l10.2-17.8.5.2-10.2,17.7.2.6,14.1-12.5c0,.2,0,.4.2.6l-14.3,12.7-.2.7,14.6-4v.6l-14.9,4-.3.5,11.1,6.4c0,.2-.2.3-.2.5l-11.1-6.4-.2.6,4,15-.4.4-4-14.8-.5.6-3.9,19.1-.6.2,3.9-18.8h-.6l-10.4,18.1c-.2,0-.3-.2-.5-.2l10.4-18-.2-.6-14.2,12.6c0-.2,0-.4-.2-.6l14.5-12.8.2-.7-14.7,4h0Z"/>
        <path class="st24" d="M358.3,314.5c0,2,.7,3.4,1.8,4,.3.2.6.3.9.5.6.4,1.4.6,2.1.5h1.1l.2-.2h.2s.2,0,.4-.2c.2,0,.4-.2.6-.3,3.6-2,6.4-6.9,6.4-11.1v-2.2c-.2-.2-.2-.3-.3-.6v-.2c-.2,0-.2-.2-.2-.3h0l-.2-.4h0l-.3-.3h0l-.2-.2c-.3-.2-.6-.3-.8-.5-1.1-.7-2.8-.6-4.6.4-3.9,2.6-6.3,6.6-6.5,11.1h-.6ZM366.3,315.8c-.5-1-.6-3.1,0-3.8s.6.3,2.3-.5c.4-.2.7-.4,1.1-.6-.6,1.5-2.1,4-3.2,4.8h-.2,0ZM362.4,308v-.2c1.1-1.4,2.5-2.5,4.2-3.2,0,1.7-.6,3.4-1.7,4.8,0-.2-.3-.4-.5-.5l-1-.6h-.2c-.3-.2-.6-.2-.9-.3h.1ZM368.9,304.4c.7.9,1.1,2,1.1,3.2-.2,1.2-2.2,2.4-3.4,2.7,0-.6.9-.9,1.4-2.8.4-1.7.4-2.9.9-3.1h0ZM361.4,317.8h0c-.6-.9,1.4-3.6,2.7-4.6-.2.6-.2,1.2,0,1.8.3,1.3,1,1.9.4,2.4-.5.5-1.9.7-3.1.4h0ZM360.1,315.2c0-1.6.4-3.2,1-4.8.4-.7,1.3-1,2-.6.4.3.6.8.4,1.3-.3,1-.9.3-2.3,2.2-.5.7-.9,1.4-1.2,1.9h.1Z"/>
        <path class="st11" d="M358.3,314.5c0,2,.7,3.4,1.8,4,.3.2.6.3.9.5.6.4,1.4.6,2.1.5h1.1l.2-.2h.2s.2,0,.4-.2c.2,0,.4-.2.6-.3,3.6-2,6.4-6.9,6.4-11.1v-2.2c-.2-.2-.2-.3-.3-.6v-.2c-.2,0-.2-.2-.2-.3h0l-.2-.4h0l-.3-.3h0l-.2-.2c-.3-.2-.6-.3-.8-.5-1.1-.7-2.8-.6-4.6.4-3.9,2.6-6.3,6.6-6.5,11.1h-.6ZM366.3,315.8c-.5-1-.6-3.1,0-3.8s.6.3,2.3-.5c.4-.2.7-.4,1.1-.6-.6,1.5-2.1,4-3.2,4.8h-.2,0ZM362.4,308v-.2c1.1-1.4,2.5-2.5,4.2-3.2,0,1.7-.6,3.4-1.7,4.8,0-.2-.3-.4-.5-.5l-1-.6h-.2c-.3-.2-.6-.2-.9-.3h.1ZM368.9,304.4c.7.9,1.1,2,1.1,3.2-.2,1.2-2.2,2.4-3.4,2.7,0-.6.9-.9,1.4-2.8.4-1.7.4-2.9.9-3.1h0ZM361.4,317.8h0c-.6-.9,1.4-3.6,2.7-4.6-.2.6-.2,1.2,0,1.8.3,1.3,1,1.9.4,2.4-.5.5-1.9.7-3.1.4h0ZM360.1,315.2c0-1.6.4-3.2,1-4.8.4-.7,1.3-1,2-.6.4.3.6.8.4,1.3-.3,1-.9.3-2.3,2.2-.5.7-.9,1.4-1.2,1.9h.1Z"/>
        <path class="st24" d="M359.3,315.1c0,4,2.8,5.7,6.4,3.7s6.4-6.9,6.4-11.1-2.8-5.7-6.4-3.6c-3.8,2.3-6.1,6.5-6.4,11ZM365.6,310.1c-.7.3-.2-1-1.5-1.4-1-.4-2.1,0-1.7-.9s3.5-3.3,4.7-3.3-.5,5.2-1.5,5.6h0ZM371,308.1c-.2,1.7-4.2,3.5-4.4,2.3-.2-.8.8-.9,1.4-3.1.5-1.7.4-2.9,1-3.1s2.1,2.2,1.9,3.9h.1ZM366.3,312c.6-.8.6.3,2.3-.5,1.3-.6,2.3-1.8,2.3-1s-2.1,4.7-3.5,5.7-2.1-3.1-1.1-4.3h0ZM365,312.8c.6.3-.4,1.1,0,2.7.3,1.3,1,1.9.4,2.4s-3.5.7-4.1-.3,2.9-5.2,3.7-4.8h0ZM360.2,316.3c-.4-.4,0-4.2.9-5.9s4-.2,3.4,1.2c-.3,1-.9.3-2.3,2.2-1,1.5-1.6,2.9-2,2.5h0Z"/>
        <path class="st32" d="M365.6,313.7c-1,.6-1.9,0-1.9-1.1s.8-2.6,1.9-3.4c1-.6,1.9,0,1.9,1.1s-.8,2.7-1.9,3.4Z"/>
        <path class="st36" d="M310.8,355.9l7.5-15.8h0l2.4-5.1c1.6-3.3,4.1-6.1,7.2-8.1v2.3c-2.3,1.7-4.3,4-5.6,6.6l-1.1,2.4,5.8-3.3v2.1l-7.2,4-7.3,15.6c-.2.3-.5.5-.8.6h-.4c-.4-.2-.6-.7-.5-1.2h0Z"/>
        <path class="st33" d="M331.9,333.7c2.6,4.9,1.8,11.3,1.7,13.4s1,1.7,1.6,0,2.3-8.8-.5-15l-2.8,1.6h0Z"/>
        <path class="st32" d="M326.9,349.1c.2-4.4,2.6-8.4,6.3-10.8,1.8-1,3.5-1.1,4.6-.3h0l2.7,1.5-9,15.3-2.7-1.5h0c-1.2-.6-1.9-2.1-1.9-4.1h0Z"/>
        <path class="st15" d="M335.9,339.9c-3.7,2.4-6,6.5-6.2,10.8,0,4,2.8,5.6,6.2,3.6,3.7-2.4,6.1-6.5,6.3-10.8,0-4-2.8-5.7-6.3-3.6Z"/>
        <path d="M335.9,344.6c-1.3.8-2.1,2.3-2.2,3.8,0,1.4,1,1.9,2.2,1.3,1.3-.8,2.1-2.3,2.2-3.8,0-1.5-1-2-2.2-1.3Z"/>
        <path class="st36" d="M333.7,333.4c2.6,4.9,1.8,11.3,1.7,13.4s1,1.7,1.6,0,2.3-8.8-.5-15l-2.8,1.6h0Z"/>
        <path class="st1" d="M327.1,335.9l26.2-15.5v2.7l-22.3,13.2h0l-2.8,1.7-.5.3c-.6.3-1.4.2-1.8-.5-.2-.2-.2-.5-.2-.7l.2-2.5,1.1,1.3h0Z"/>
        <polygon class="st0" points="344.9 382 357.5 374.7 317.3 351.5 304.8 358.8 344.9 382"/>
        <polygon class="st0" points="357.5 374.7 357.5 377.6 344.9 384.9 344.9 382 357.5 374.7"/>
        <polygon class="st10" points="357.5 374.7 357.5 377.6 344.9 384.9 344.9 382 357.5 374.7"/>
        <polygon class="st0" points="304.8 358.8 304.8 361.7 344.9 384.9 344.9 382 304.8 358.8"/>
        <polygon class="st11" points="304.8 358.8 304.8 361.7 344.9 384.9 344.9 382 304.8 358.8"/>
        <path class="st34" d="M374.1,347.7c-.2-.4-.8-.6-1.3-.3l-.8.5c-3.4,1.9-6.1,4.9-7.8,8.5l-2.4,5.1h0l-7.5,15.8c-.2.5,0,1,.4,1.2h.4c.3,0,.6-.2.8-.6l7.3-15.6,9.3-5.2c.5-.2.6-.8.4-1.2-.2-.5-.8-.6-1.2-.4h0l-6.9,4,1.1-2.4c1.5-3.2,4-5.9,7.1-7.7l.8-.5c.5-.3.6-.9.4-1.3h0Z"/>
        <path class="st24" d="M374.6,358.1c2.6,4.9,1.8,11.3,1.7,13.4s1,1.7,1.6,0,2.3-8.8-.5-15l-2.8,1.6h0Z"/>
        <path class="st32" d="M369.5,373.6c.2-4.4,2.6-8.4,6.2-10.8,1.8-1,3.5-1.1,4.6-.3h0l2.7,1.5-9,15.3-2.7-1.5h0c-1-.6-1.9-2-1.9-4.1h0Z"/>
        <path class="st1" d="M378.6,364.4c-3.7,2.4-6.1,6.5-6.3,10.8,0,4,2.8,5.6,6.3,3.6,3.7-2.4,6-6.5,6.2-10.8,0-4-2.7-5.6-6.2-3.6Z"/>
        <path class="st15" d="M378.6,369c-1.3.8-2.1,2.3-2.2,3.8,0,1.4,1,2,2.2,1.3,1.3-.9,2.1-2.3,2.2-3.8,0-1.4-1-1.9-2.2-1.3Z"/>
        <path class="st34" d="M376.4,358c2.6,4.9,1.8,11.3,1.7,13.4s1,1.7,1.6,0,2.3-8.8-.5-15l-2.8,1.6h0Z"/>
        <path class="st32" d="M416.6,267.7l-2.4-4.2,10.3-5.9h0c.4-.2.9-.2,1.2,0,1,.6,1.6,1.8,1.7,3,0,.4-.2.8-.5,1h0l-10.3,6h0Z"/>
        <path class="st1" d="M417.1,266.7c0,1-.8,1.5-1.7,1-1-.6-1.6-1.8-1.7-3,0-1.1.7-1.5,1.7-1,1,.6,1.6,1.8,1.7,3Z"/>
        <path class="st24" d="M415.3,264.6c-.2,0-.3-.2-.5,0h-.2l-7.2,4.2,2.3,1.3,5.9-3.4.2-.2c0-.2.2-.2.2-.4,0-.6-.3-1.1-.7-1.5h0Z"/>
        <path class="st32" d="M389,251.9l-2.4-4.2,10.3-5.9h0c.4-.2.9-.2,1.2,0,1,.6,1.6,1.8,1.7,3,0,.4-.2.8-.5,1h0l-10.3,6h0Z"/>
        <path class="st1" d="M389.5,250.8c0,1-.7,1.5-1.7,1-1-.6-1.6-1.8-1.7-3,0-1.1.7-1.5,1.7-1,1,.7,1.6,1.8,1.7,3Z"/>
        <path class="st24" d="M387.7,248.7c-.2,0-.3-.2-.5,0h-.2l-7.1,4.2,2.3,1.3,6-3.4.2-.2c0-.2.2-.2.2-.4,0-.6-.4-1.1-.9-1.5h0Z"/>
        <path class="st32" d="M378.9,263.9l4.8,2.8-45.3,21.4c-2.7,1.7-4.6,4.5-5.1,7.7l-6.2,40.1c0,.4-.4.6-.8.6h-.2c-.2-.2-.4-.4-.3-1.4l3.6-42.6c.4-2.8,1.9-5.5,4.2-7.2l45.4-21.3h-.1Z"/>
        <path class="st0" d="M375.5,337.6l37.6-21.7c1.4-.9,2.3-2.4,2.3-4.1v-2.2c0-1.7-1-3.2-2.3-4.1l-37.6-21.7c-1.5-.7-3.2-.7-4.8,0l-37.6,21.7c-1.4.9-2.3,2.4-2.3,4.1v2.3c0,1.7,1,3.2,2.3,4.1l37.6,21.7c1.5.7,3.3.7,4.8,0h0Z"/>
        <path class="st10" d="M374.8,338c.2,0,.5-.2.7-.3l37.6-21.7c1.4-.9,2.3-2.4,2.3-4.1v-2.2c0-1.5-.8-2.8-1.9-3.8.8.7.7,1.8-.4,2.4l-37.5,21.6-.9,8.1h0Z"/>
        <path class="st11" d="M330.8,309.6v2.3c0,1.7,1,3.2,2.3,4.1l37.6,21.7c1.3.6,2.7.7,4,.3l.9-8.1h-.2c-1.5.9-3.2.9-4.8,0l-37.6-21.7c-1.1-.6-1.3-1.7-.4-2.4-1.1.9-1.9,2.3-1.9,3.7h.1Z"/>
        <path class="st0" d="M362.1,291.5l37.6,21.7c.9.5,1.9.6,2.8.6h.6c.2,0,.2-.2.4-.2s.6-.2.8-.3l1.9-1.1c1.5-.9,2.4-2.3,2.8-4l5.7-31.9v-.8c0-.4,0-.8-.2-1.2-.2-.7-.7-1.3-1.3-1.8l-.2-.2-.2-.2-37.6-21.7c-1.5-.7-3.2-.7-4.8,0l-1.9,1.1c-.4.2-.8.6-1.1.9l-.2.2c-.2.3-.5.6-.7.9l-.2.2v.2c-.2,0-.2.2-.2.2,0,0,0,.2-.2.3v.2h0v.6l-5.7,32c-.2,1.7.6,3.2,1.9,4.1v.2Z"/>
        <path class="st0" d="M408.3,279.9l-5.7,32c0,1-.9,1.8-1.9,1.7-.3,0-.6-.2-1-.3l-37.6-21.7c-1.4-.9-2.1-2.4-1.9-4l5.7-32c0-1,1-1.8,1.9-1.7.3,0,.6.2,1,.3l37.6,21.7c1.3.9,2,2.5,1.8,4h.1Z"/>
        <path class="st11" d="M408.3,279.9l-5.7,32c0,1-.9,1.8-1.9,1.7-.3,0-.6-.2-1-.3l-37.6-21.7c-1.4-.9-2.1-2.4-1.9-4l5.7-32c0-1,1-1.8,1.9-1.7.3,0,.6.2,1,.3l37.6,21.7c1.3.9,2,2.5,1.8,4h.1Z"/>
        <path class="st10" d="M400.7,313.6c.6.2,1.2.2,1.8.2h.4l.3-.2h.4c.2,0,.6-.2.8-.3l1.9-1.1c1.5-.9,2.4-2.3,2.8-4l5.7-31.9v-.8c0-.4,0-.8-.2-1.2l-6.7,3.8c.2.6.3,1.4.2,2l-5.7,31.9c0,1-.9,1.8-1.9,1.8h0l.2-.2Z"/>
      </g>
      <g id="freepik--Bottom--inject-2">
        <path class="st21" d="M323.6,328.1s-4.4,20.2-6.5,25.9c-1.3,3.7-5.3,7.9-8.6,10.8-.7.6-2.3,1.9-2.9,2.3-1.4,1-.4,1.9.8,2.2,2.8.7,5.7.2,9-1.7,3.8-2.2,5.4-4,8.8-6.7,1-.8,2-1.8,2.8-2.8.3-.7.5-1.5.4-2.3s0-1.7.2-2.5c.6-2.7,10.1-18.5,10.1-18.5l-14-6.8h0Z"/>
        <path class="st15" d="M298,369.8c-.4,1-.2,2.1.5,2.9,1.2,1,4.7,2.7,9.3,2.2s7.2-1.9,9-3.3,4.5-3.6,6.6-4c1.9-.4,4.1-1.2,4.7-1.8s.6-3.1.6-3.1l-30.7,7.1h0Z"/>
        <path class="st1" d="M327.5,353.4c.7,0,.9.7.8,1.4-.6,3.3.9,6.1.3,8.7-.2,1.3-3.5,2.2-5.5,2.9-2.4,1-4.6,2.3-6.6,4-2.9,2-6.3,3.1-9.9,3.4-4.6,0-7.6-1.2-8.5-2.8-1.1-2-.3-4,5.2-6.1,2.1-.7,4-1.6,5.9-2.7,5.2-4,6.1-5.7,7.2-7.6.6-1,.8-1.4,2.1-1.4s3.2.6,4.4,1.7c.4.9.5,1.8.4,2.7,0,0,0,.3.2.3.7-.7.8-1.9,1.5-2.7.4-.6,2.3-1,2.3-1l.2-.8Z"/>
        <path class="st36" d="M303.3,364.8c6.7.5,10,4.7,10.3,7.1-3.6,1.5-5.6,1.7-6.9,1.7-4.6,0-7.8-1.2-8.7-2.8-1-1.8,0-4.5,5.4-6h0Z"/>
        <path class="st17" d="M313,366h.2c.2,0,.2-.3,0-.4h0c-1.6-1.6-3.8-2.4-6.1-2.3-.2,0-.3.2-.3.3h0c0,.2.2.3.3.3h0c2,0,4,.7,5.4,2.1h.5Z"/>
        <path class="st17" d="M315.9,363.8h.2c.2,0,.2-.3,0-.4h0c-1.6-1.6-3.8-2.4-6.1-2.3-.2,0-.3.2-.3.3s.2.3.3.3c2,0,4,.7,5.4,2.1h.5Z"/>
        <path class="st17" d="M318.6,361.7h.2c.2,0,.2-.3,0-.4h0c-1.6-1.6-3.8-2.4-6-2.3-.2,0-.3.2-.3.3s.2.3.3.3c2,0,4,.7,5.4,2.1h.4Z"/>
        <path class="st17" d="M321.1,359.5h.2c.2,0,.2-.3,0-.4h0c-1.3-1.6-4.1-2.7-6.5-2.4-.2,0-.3.2-.3.3s.2.3.3.3h0c2.2-.2,4.8.8,6,2.2h.3Z"/>
        <path class="st21" d="M343.7,339.7s-4.5,20.2-6.5,25.9c-1.3,3.7-5.3,7.9-8.6,10.8-.7.6-2.3,1.9-2.9,2.3-1.4,1-.4,1.9.8,2.2,2.8.7,5.7.2,9-1.7,3.8-2.2,5.4-4,8.8-6.7,1-.8,2-1.8,2.8-2.8.3-.7.5-1.5.4-2.3s0-1.7.2-2.5c.6-2.7,10.1-18.5,10.1-18.5l-14.1-6.8h0Z"/>
        <path class="st15" d="M318.1,381.3c-.4,1-.2,2.1.5,2.9,1.2,1,4.7,2.7,9.3,2.2s7.2-1.9,9-3.3,4.5-3.6,6.6-4c1.7-.2,3.3-.9,4.7-1.8.6-.6.6-3.1.6-3.1l-30.7,7.1h0Z"/>
        <path class="st1" d="M347.7,364.9c.7,0,.9.8.8,1.4-.6,3.3.9,6.1.3,8.7-.2,1.3-3.5,2.2-5.5,2.9-2.4,1-4.6,2.3-6.6,3.9-2.9,2-6.3,3.1-9.9,3.4-4.6,0-7.6-1.2-8.5-2.8-1.1-2-.3-4,5.2-6.1,2.1-.7,4-1.6,5.9-2.7,5.2-4,6.1-5.7,7.2-7.6.6-1,.8-1.4,2.1-1.4s3.2.6,4.4,1.7c.4.9.5,1.8.4,2.7v.3c.7-.7.8-2,1.5-2.7.5-.6,2.3-1,2.3-1l.2-.7h.2Z"/>
        <path class="st36" d="M323.5,376.3c6.7.6,10,4.7,10.3,7.2-3.6,1.5-5.6,1.7-6.9,1.7-4.6,0-7.8-1.2-8.7-2.8-1-1.9,0-4.6,5.4-6.1h0Z"/>
        <path class="st17" d="M333.2,377.5h.2c.2,0,.2-.3,0-.4h0c-1.6-1.6-3.8-2.4-6-2.3-.2,0-.3.2-.3.3h0c0,.2.2.3.3.3,2,0,4,.7,5.4,2.1h.4Z"/>
        <path class="st17" d="M336.1,375.3h.2c.2,0,.2-.3,0-.4h0c-1.6-1.6-3.8-2.5-6-2.3-.2,0-.3.2-.3.3h0c0,.2.2.3.3.3,2,0,4,.7,5.4,2.1h.4Z"/>
        <path class="st17" d="M338.8,373.2h.2c.2,0,.2-.3,0-.4h0c-1.6-1.6-3.8-2.4-6.1-2.3-.2,0-.3.2-.3.3h0c0,.2.2.3.3.3,2,0,4,.7,5.4,2.1h.5Z"/>
        <path class="st17" d="M341.2,371.1h.2c.2,0,.2-.3,0-.4h0c-1.3-1.6-4.1-2.7-6.5-2.4-.2,0-.3.2-.3.3h0c0,.2.2.3.4.3,2.2-.2,4.8.8,6,2.2h.2,0Z"/>
        <path class="st32" d="M324.1,317.3c1.1-5.5,2.4-6.1,6.2-9.4,4.8-4.1,8.5-6.5,13.8-9.9,4.2-2.7,10.3-6.9,10.3-6.9l40.7,4.8c0,4.1.5,9.4-1.2,13.8-2.3,5.9-5.8,8.2-10.6,10.9-9.7,5.6-21.5,12.9-21.5,12.9,0,0-.9,3.7-2.2,7.8-1.7,5.3-2.8,6.9-5.8,12.8-3.6,7-5.1,9.4-5.1,9.4,0,0-7.3,1.6-10.3-3.6,0,0,5.2-26.6,6.1-31.2,1.9-9.9,4.1-11,6-12.7l-9.7,6.9c-.9,4-2.2,7.9-3.8,11.7-2.4,5.7-8.1,16.8-8.1,16.8-2.7.8-9.6-1.9-11.1-3.5,0,.2,4.1-20.8,6.2-30.8v.2Z"/>
        <path class="st15" d="M340.8,323.3l9.7-6.9,16.1-10.9c-2.7-1.4-6.8-3.9-8.2-6.9.4,3.2,3,6.5,3,6.5l-20.6,18.2h0Z"/>
      </g>
      <path class="st21" d="M371,247.4c-7.3-.4-11.1,4.4-11.2,10.3v14.9l-18.3,6.8,2.7,8.1s14.5-2,19.7-2.9,7.3-2.4,7.5-8.1-.5-29.1-.5-29.1h0Z"/>
      <g id="freepik--Chest--inject-2">
        <path class="st0" d="M353.8,291.6l5.5-7,.4-9.6c-2.7-2.3-4-5.8-3.6-9.4.6-3.6,2.2-5.9,3.9-8.3,3.1-4.5,9.7-9.2,11-10,4.4.2,8.6.8,12.9,1.6,2.5.5,7.6,2.9,7.6,2.9-1,2.6-3.4,8.9-1.9,13.3,1.7,5.3,3.3,4.1,3.3,4.1,1,4.4,1.5,8.7,1.7,13.2.4,7,.7,11.4.8,16.9-7,3.5-17.8,3.9-26.6.8-7.2-2.5-14.9-8.5-14.9-8.5h0Z"/>
        <path class="st11" d="M368.9,277.5c4.3,3.1,10.2,2.2,13.5-1.9-1.1,2.6-3.5,4.4-6.2,4.8-5.7.8-7.3-3-7.3-3h0Z"/>
      </g>
      <g id="freepik--Tablet--inject-2">
        <path class="st32" d="M337.1,270.8h0l.9-.8h0c.2-.2.5-.2,1,0l27.9,16.2c1.1.8,2,1.9,2.4,3.3l6.3,21.5c.2.6.2,1.1,0,1.4h0l-.9.8h0c-.2.2-.5.2-1,0l-28-16.2c-1.1-.8-2-1.9-2.4-3.3-1.6-5.7-4.6-15.7-6.3-21.5-.2-.7-.2-1.2.2-1.4h-.1Z"/>
        <path class="st15" d="M367.2,288.1c.6.6,1,1.5,1.3,2.3l6.3,21.5c.2.6.2,1.1,0,1.4l.9-.8h0c.2-.2.2-.6,0-1.4l-6.3-21.5c-.2-.8-.6-1.5-1.2-2.2l-1,.7h0Z"/>
        <path class="st1" d="M374.7,311.9l-6.3-21.5c-.4-1.4-1.3-2.5-2.4-3.3l-27.9-16.2c-1-.6-1.5,0-1,1.3,1.7,5.7,4.6,15.7,6.3,21.5.4,1.3,1.3,2.5,2.4,3.3l28,16.2c.9.6,1.4,0,1-1.3h-.1Z"/>
        <path class="st32" d="M368.1,295l-1.6-5.4c0-.2-.2-.5-.4-.6l-1.9-1.1q-.2,0-.2.2c.3,1,1.3,4.4,1.6,5.4,0,.2.2.5.5.6l1.9,1.1s.2,0,0-.2h.1Z"/>
        <path class="st15" d="M366.4,290.7c-.2-.6-.6-1.1-1.1-1.5-.5-.2-.7,0-.6.6.2.6.6,1.1,1.1,1.5.5.2.7,0,.6-.6Z"/>
        <path class="st15" d="M367.2,293.5c-.2-.6-.6-1.1-1.1-1.5-.5-.2-.7,0-.5.6s.6,1.1,1.1,1.5c.4.2.6,0,.5-.6Z"/>
        <path class="st21" d="M383.8,301.3c3.6-1.5,13.8-5.2,16.6-6.3s6.9-4.2,3.6-7.3-6.6-4.6-11-1.9c-3.2,1.9-9.5,5.7-13.2,7.4-1.6.8-4.3.5-4.8.5-1.5-.2-3-.3-4.4-.2l.5,1.8.3,1.2c-1.7.2-3.3.4-5,.4s-2.6-1.2-4.3-1.8-2.9.3-2,1.1c.4.4.9.8,1.5,1.2-.8.6-1.4,1.3,0,2.7-.3.7-.2,1.6.5,2.2,1.4,1.4,2.9,2.6,4.6,3.5.9.5,6.2.8,6.6.6,1.9-.8,4.1-2,4.8-2.4s2.5-1.3,5.7-2.7h0Z"/>
        <path class="st21" d="M391.5,251.9c6.6,2.3,8.3,5.6,9.4,9.3,1.8,6.1,4.4,23.7,4.3,29,0,2.6-12,3.1-12,3.1v-6.4s-3.2-16.1-3.9-19.3c-.8-4.7-1.4-12.5,2.3-15.7h0Z"/>
        <path class="st22" d="M393,285.8c2.3-1.3,4.1-2.3,8.1-1.9-2.7-.9-5.8-.6-8.3.8l.2,1.1h0Z"/>
        <path class="st22" d="M361.4,297.3c.6.5,1.3,1,1.9,1.5s.6.5,1,.7c0,.2.2.2.4.2h.6c1.6.3,3.2.5,4.8.7h-2.4c-.8,0-1.6,0-2.4-.2-.2,0-.4,0-.6-.2,0,0-.2,0-.3-.2s-.2-.2-.2-.2c-.3-.2-.6-.5-.9-.8-.6-.5-1.2-1-1.8-1.5h-.1Z"/>
        <path class="st22" d="M361.4,300c.6.5,1.3,1,1.9,1.5.3.2.6.5,1,.7.2,0,.3.2.5.3s.3.2.5.2c.8.2,1.6.2,2.4.3s1.6.2,2.4.3c-1.6,0-3.2,0-4.8-.4-.2,0-.4,0-.6-.2-.2,0-.3-.2-.5-.3-.3-.2-.6-.5-1-.7-.6-.5-1.2-1-1.8-1.7h0Z"/>
        <path class="st22" d="M363,303.3c.5.2,1,.6,1.6.8.5.2,1,.4,1.6.6.6,0,1.1.2,1.7.2s1.2,0,1.8.2h-3.6c-1.2-.3-2.3-.9-3.1-1.7h0Z"/>
      </g>
      <path class="st25" d="M387.7,216.2c-.5-.6-1-1-1.6-1.4-1.6-1-3.2-.6-5-1.1-1.2-.3-2.3-1-3.5-1.4-2.7-.6-5.7.2-7.7,2.2-.8.7-1.5,1.8-2.6,2-2.4.4-4.7,1.8-6.1,3.9-.9,1.1-1.1,2.6-.7,4,.3,1,1.1,1.9,1.1,2.8,0,1.5-1.4,2.7-1.9,4-.6,1.6,0,3.4,1.5,4.2-.3-1.5.4-3.1,1.8-3.9-.6,1.1-.5,2.5,0,3.6.6,1.1,1.4,2.1,2.3,2.8.8.7,1.7,1.4,2.7,1.8,2.4.8,5.1-.2,7.5.6,1,.4,1.9,1,2.6,1.7.8.6,2.1.6,3.1.7,2.5,0,5.3,0,7.1-1.9,1.3-1.3,1.8-3.3,1.9-5.2,0-.5,0-1,.2-1.5.4-1,1.3-1.6,1.9-2.4.6-1,.8-2.1.7-3.2,0-1.5-.2-3.1-.6-4.6-.5-1.5-1.5-2.8-2.7-3.7-.2,0-.3-.2-.5-.4s-.2-.4-.2-.6c-.2-1-.7-2.1-1.5-3h.2Z"/>
      <path class="st25" d="M402.4,219.5c.2-2.3-.9-4.4-2.8-5.5-1-.6-2.3-.7-3.2-1.6-.4-.5-.7-1-1-1.5-.7-1-1.8-1.8-3.1-2.1-1.2-.2-2.5,0-3.6.9-.5.5-1,1-1.6,1.3-.9.4-1.9.2-2.9.3-.8.2-1.5.6-2.2,1.1-.3.2-.6.6-.8.9-.2.3-.2.8,0,1.1l6.9,12.6c.4.9,1,1.6,1.8,2.3.8.6,1.8.8,2.7.5.6-.4,1.3-.7,2-1,.6,0,1.3.2,1.9,0,.8-.2,1.5-.6,1.8-1.5.3-.7.5-1.5.5-2.3s0-1,.3-1.5c.4-.6,1-.7,1.6-1.1.6-.6,1-1.5.9-2.4s-.4-1.8-.9-2.5c.7.5,1.4,1.1,1.5,2h.2Z"/>
      <g id="freepik--Head--inject-2">
        <g id="freepik--head--inject-2">
          <g id="freepik--head--inject-21">
            <path class="st21" d="M387.2,239.1c1.4,0,2.7-.5,3.6-1.6,1.8-2.3,1.9-4.4.9-5.8-.8-1.1-2.7-1.8-3.9-.9s-1.3,1.6-1.8,2.7-1.9.3-1.6-3.6c-2.7-1-2.6-5.6-4.1-7.3-2.4-2.7-6.1-1.7-7.2-1-1.5-1-3.5-1-5,0-1.7,1-2.7,3.1-3,10.1-.2,7.1,1.3,11.7,3,13.1,1.2,1,3.1,1.4,5.7,1.2l.2,3.1s-6.7,7.5,2.4,6.3c4-.5,7.6-2.3,10.3-5.2l-1-11.9c0-.2.2.7,1.5.9h0Z"/>
            <path class="st14" d="M372.9,238.8c.2.7,1,1,1.7.8.6-.2,1-.9.9-1.5l-2.6.7Z"/>
            <path class="st22" d="M375.5,238.6c0,.6-.4,1-1,1.2-.7.2-1.5-.2-1.6-1s.2-1.5,1-1.6c.7-.2,1.5.2,1.6,1v.4h0Z"/>
            <path class="st15" d="M375.1,232.3c.2.6.7.7,1.4.6s1-.4.9-1c-.2-.6-.8-1-1.4-.9-.6,0-1,.7-.9,1.4h0Z"/>
            <path class="st15" d="M366.4,231.9c0,.6.4.9,1,1s1.1,0,1.2-.6-.3-1.2-1-1.4h0c-.6,0-1.2.4-1.3,1h0Z"/>
            <path class="st15" d="M366.3,228.6l2.3-1.5c-.3-.6-1.1-.9-1.8-.5h0c-.6.4-.8,1.2-.5,1.9h0Z"/>
            <path class="st15" d="M375.5,227.5l2.9.7c.2-.7-.2-1.5-1-1.8h0c-.8-.2-1.7.3-1.9,1h0Z"/>
            <path class="st1" d="M362.6,229.4c0,.4.2.7.5,1,0,0,.2.2.2.4.2,1,.3,1.9.6,2.8.5,1.3,1.9,2.1,3.2,1.9.4,0,.7,0,1.1-.2h0c.3,0,.6-.2.9-.4h.2v-.2h0v-.2h0l.2-.2c.3-.3.6-.7.7-1.1.5-1,.4-2.4,1.2-2.6h.2c1,0,.9,1.5,1.5,2.6s1.5,2.1,3.8,2.1h1.4l.2-.2h0c.2,0,.4-.2.6-.3l.2-.2c.2,0,.2-.2.4-.3.3-.3.6-.6.7-1,.3-1,.6-1.9.7-2.9,0-.2,0-.3.2-.4.2-.3.5-.6.6-1s-.2-.8-.6-.9h-.6c-1.9-.2-3.7-.2-5.6.2-1.8.5-2.4,1-3.4,1.1s-1.5-.5-3.1-1c-1.7-.3-3.5-.3-5.2,0h-.5c-.4.4-.6.7-.6,1h.3ZM374.2,230c.2-.2.3-.3.5-.4h.2l.2-.2c.2,0,.5-.2.7-.2h.3c.2-.2.5-.2.8-.2h.2c1.7-.2,2.7.2,3.1.5s.2,1.9,0,2.6h0v.7h0v.3h0v.2h0v.2h0v.2h0c-.6.8-1.5,1.3-2.4,1.2-.9,0-1.8-.2-2.5-.8h0c-.4-.4-.6-1-.8-1.5-.2-.8-.2-1.8,0-2.3l-.3-.3ZM364.3,229.6c.2,0,.2-.2.4-.2h.2v-.2h2.3c1,0,2,.4,2.7,1,.2.7.3,1.5,0,2.3,0,.2,0,.4-.2.6h0v.2h0v.3s0,0-.2,0h0v.2h0c-.6.9-1.5,1.4-2.5,1.3-.4,0-.9,0-1.3-.2-.9-.5-1.5-1.4-1.6-2.4-.2-1-.4-2.4,0-2.7h0l.2-.2Z"/>
            <path class="st22" d="M368.9,235.4l4,1.5.3-4.7c-.2-.7-.3-1.4-1-1.4l-3.3,4.6h0Z"/>
            <path class="st1" d="M381.6,228.2l6.1,2.5c-.3.2-.6.5-.9.8l-5.3-2v-1.3h0Z"/>
          </g>
        </g>
        <path class="st22" d="M373.8,245.9c3.6-.3,8.2-1.9,9.4-4.3-.6,2.5-3,4-4.9,4.7-1.4.5-2.9.8-4.4,1v-1.5h-.1Z"/>
      </g>
      <path class="st21" d="M338,281.5c-.9-1.3-.8-1.5-.3-2.1.8-1,2-1.6,3.3-1.6s1.9,0,2.8.3c.6.3,0,1.5-1.4,1.9-2.3.5-2.3,1.1-2.3,1.1,0,0,2.1-.4,3-.5,1.1,0,2.3.3,3.4.6,1,.2,1.1,1.5-.5,1.9l1.8.3c1.2.2,1.7.9.6,1.6-.3.2-.7.4-1.1.4,0,0,1.3,0,1.4.5,0,1.3-.7,1.6-3.5,2.3-2.3.6-3,1.7-2.7,2.7v.4s-1-.6-1.9-1.3c-.6-.5-1.2-1-.9-2,0,0-1.5,0-1.5-.9s0-1.3.4-1.9c-.6-.3-.9-.9-.8-1.5,0-.6.2-1.1.6-1.6l-.3-.5h-.1Z"/>
      <path class="st22" d="M346,283.1c-.6,0-1-.2-1.6-.2s-1,.2-1.6.5c-1,.4-1.9.9-2.8,1.5,1-.2,2-.6,3-1,.5-.2,1-.4,1.5-.6.5,0,1,0,1.6-.2h-.1Z"/>
      <path class="st22" d="M347.3,285.4c-.6-.2-1.2-.2-1.8,0s-1.1.3-1.7.5c-1,.4-2.1,1-3.1,1.6,1.1-.3,2.2-.7,3.2-1.1,1-.5,2.2-.8,3.3-.9h.1Z"/>
      <g id="freepik--Wheel--inject-2">
        <path class="st1" d="M412.7,288.9l-.6,3-32.9,19.6c-2.4,1.9-4,4.8-4.2,7.9l-4,42.2c0,.4.2.7.6.7h.4l13.2-7.7v-2.7l-10.9,6.4,4.8-36.1c.6-3.1,2.4-6,5.1-7.7l29.3-18.6c3.2-2,1.9-5.2-.8-7h0Z"/>
        <path class="st32" d="M382.9,347.6v3.3c0,3.1.9,6.2,2.5,8.9,0,.2.2.4.4.6h0l.3.6c2.8,3.9,7.1,6.4,11.9,6.9h1.9c3.5-.2,6.9-1.2,9.9-3.1l1.5-.8c12.5-7.2,22.6-24.7,22.6-39.2v-3.3c0-2.8-.7-5.6-2-8.1h0l-.2-.3-.2-.2c0-.2-.2-.4-.4-.6s-.2-.2-.2-.3l-.2-.2s-.2-.2-.2-.4l-.2-.2c-2.8-3.6-7-6-11.6-6.5h-1.7c-3.5.2-6.9,1.2-9.9,3.1l-1.5.8c-12.5,7.3-22.6,24.8-22.6,39.2v-.2ZM391.4,348.5c0-12.2,8.6-27,19.1-33.1s19.1-1.1,19.1,11.1-8.6,27-19.1,33.1-19.1,1.1-19.1-11.1Z"/>
        <path class="st1" d="M387.1,350.1v1.7c0,7.1,2.5,12.2,6.5,14.5h.2v.2h0l.3.2c.2,0,.4.2.6.3l.3.2.3.2h.3c.2.2.5.2.8.3h.4l.4.2h1.9c3.6-.2,7-1.2,10.1-3.1l1.5-.8c12.5-7.2,22.6-24.7,22.6-39.2v-6.6c-.2-.3-.2-.6-.2-.8s0-.5-.2-.7c0-.4-.2-.9-.4-1.3h0c0-.2-.2-.4-.2-.6-.2-.4-.3-.8-.5-1.2l-.2-.3-.2-.3-.2-.2c0-.2-.2-.4-.4-.6s-.2-.2-.2-.3l-.2-.2s-.2-.2-.2-.4-.2-.2-.3-.3l-.3-.3-.6-.6-.3-.3c-.2-.2-.5-.4-.7-.6,0,0-.2-.2-.3-.2,0,0-.2-.2-.4-.2h0c0-.2-.2-.2-.3-.2-4.1-2.3-9.7-1.9-15.8,1.6l-1.5.8c-12.2,7.5-22.4,25.1-22.4,39.5l-.2-.4ZM391.4,348.5c0-12.2,8.6-27,19.1-33.1s19.1-1.1,19.1,11.1-8.6,27-19.1,33.1-19.1,1.1-19.1-11.1Z"/>
        <path class="st0" d="M396.2,356.4c3,3.6,8.2,4.1,14.2.6,9.4-5.4,17-18.6,17-29.4s-1.5-8.4-4-10.3c1.8,2.1,2.7,5.2,2.7,9.1,0,10.8-7.6,24-17,29.4-5.1,3-9.8,3-12.9.6h0Z"/>
        <path class="st11" d="M396.2,356.4c3,3.6,8.2,4.1,14.2.6,9.4-5.4,17-18.6,17-29.4s-1.5-8.4-4-10.3c1.8,2.1,2.7,5.2,2.7,9.1,0,10.8-7.6,24-17,29.4-5.1,3-9.8,3-12.9.6h0Z"/>
        <path class="st0" d="M391.4,348.5c0,12.2,8.6,17.1,19.1,11s19.1-20.9,19.1-33.1-8.6-17.1-19.1-11.1c-10.5,6.1-19.1,21-19.1,33.2ZM393.5,347.2c0-10.8,7.6-24,17-29.4s17-1,17,9.8-7.6,24-17,29.4-17,1-17-9.8h0Z"/>
        <path class="st33" d="M394.1,341.8v-.6l14.9-4,.3-.5-10.9-6.3.2-.5,10.9,6.3.2-.6-4-14.6.4-.4,3.9,14.4.5-.6,3.8-18.6.6-.2-3.7,18.3h.6l10.2-17.8c.2,0,.3.2.5.2l-10.2,17.7.2.6,14.1-12.5c0,.2,0,.4.2.6l-14.3,12.7-.2.7,14.6-4v.6l-14.9,4-.3.5,11.1,6.4c0,.2-.2.3-.2.5l-11.1-6.4-.2.6,4,15-.4.4-4-14.8-.5.6-3.9,19.1-.6.2,3.9-18.8h-.6l-10.5,18.2c-.2,0-.3-.2-.5-.2l10.4-18-.2-.6-14.2,12.6c0-.2,0-.4-.2-.6l14.5-12.8.2-.7-14.5,3.8h0Z"/>
        <path class="st24" d="M403.1,340.5c0,2,.7,3.4,1.8,4,.3.2.6.3.9.5.6.4,1.4.6,2.1.5h1.1l.2-.2h.2c0-.2.2-.2.4-.2s.4-.2.6-.3c3.8-2.4,6.1-6.5,6.4-11.1v-2.4s0-.2-.2-.3v-.2s-.2-.2-.2-.3h0c0-.2-.2-.2-.2-.4h0l-.3-.3h0s-.2,0-.2-.2c-.3-.2-.6-.3-.8-.5-1.1-.7-2.8-.6-4.6.4-3.9,2.6-6.2,6.7-6.5,11.1h-.7ZM411.1,341.9c-.6-1-.6-3.1,0-3.8s.6.3,2.3-.5c.4-.2.7-.4,1.1-.6-.6,1.5-2.1,4-3.2,4.8h-.2,0ZM407.3,334.1v-.2c1.1-1.4,2.5-2.5,4.2-3.2,0,1.7-.6,3.4-1.7,4.8,0-.2-.2-.4-.5-.5l-1-.6h-.2c-.3-.2-.6-.2-.9-.2h.1ZM413.8,330.4c.7.9,1.1,2,1.1,3.2-.2,1.2-2.2,2.4-3.4,2.6,0-.6.9-.9,1.4-2.8.4-1.5.4-2.7.9-3h0ZM406.2,343.9h0c-.5-.8,1.5-3.5,2.7-4.5-.2.6-.2,1.2,0,1.9.3,1.3,1,1.9.4,2.4-.9.5-2,.6-3.1.3h0ZM405,341.2c0-1.6.4-3.2,1-4.8.4-.7,1.3-1,2-.6.4.3.6.8.4,1.3-.3,1-.9.3-2.3,2.2-.5.7-.9,1.5-1.2,1.9h.1Z"/>
        <path class="st11" d="M403.1,340.5c0,2,.7,3.4,1.8,4,.3.2.6.3.9.5.6.4,1.4.6,2.1.5h1.1l.2-.2h.2c0-.2.2-.2.4-.2s.4-.2.6-.3c3.8-2.4,6.1-6.5,6.4-11.1v-2.4s0-.2-.2-.3v-.2s-.2-.2-.2-.3h0c0-.2-.2-.2-.2-.4h0l-.3-.3h0s-.2,0-.2-.2c-.3-.2-.6-.3-.8-.5-1.1-.7-2.8-.6-4.6.4-3.9,2.6-6.2,6.7-6.5,11.1h-.7ZM411.1,341.9c-.6-1-.6-3.1,0-3.8s.6.3,2.3-.5c.4-.2.7-.4,1.1-.6-.6,1.5-2.1,4-3.2,4.8h-.2,0ZM407.3,334.1v-.2c1.1-1.4,2.5-2.5,4.2-3.2,0,1.7-.6,3.4-1.7,4.8,0-.2-.2-.4-.5-.5l-1-.6h-.2c-.3-.2-.6-.2-.9-.2h.1ZM413.8,330.4c.7.9,1.1,2,1.1,3.2-.2,1.2-2.2,2.4-3.4,2.6,0-.6.9-.9,1.4-2.8.4-1.5.4-2.7.9-3h0ZM406.2,343.9h0c-.5-.8,1.5-3.5,2.7-4.5-.2.6-.2,1.2,0,1.9.3,1.3,1,1.9.4,2.4-.9.5-2,.6-3.1.3h0ZM405,341.2c0-1.6.4-3.2,1-4.8.4-.7,1.3-1,2-.6.4.3.6.8.4,1.3-.3,1-.9.3-2.3,2.2-.5.7-.9,1.5-1.2,1.9h.1Z"/>
        <path class="st24" d="M404.1,341.1c0,4,2.8,5.7,6.4,3.7,3.8-2.4,6.1-6.5,6.4-11.1,0-4-2.8-5.7-6.4-3.6-3.8,2.4-6.1,6.5-6.4,11ZM410.5,336.2c-.7.3-.2-1-1.5-1.4-1-.4-2.1,0-1.7-.9s3.5-3.3,4.7-3.3-.5,5.1-1.5,5.6h0ZM415.9,334.2c-.2,1.7-4.2,3.5-4.4,2.3-.2-.8.8-.9,1.4-3.1.5-1.7.4-2.9,1-3.1s2.1,2.2,1.9,3.9h.1ZM411.2,338.1c.6-.8.6.3,2.3-.5,1.3-.6,2.3-1.8,2.3-1s-2.1,4.6-3.5,5.7-2.2-3.1-1.1-4.3h0ZM409.9,338.8c.6.3-.4,1.1,0,2.7.3,1.3,1,1.9.4,2.4s-3.5.7-4.1-.3,2.9-5.3,3.7-4.8h0ZM405.1,342.3c-.4-.4,0-4.2.9-5.9s4-.2,3.4,1.2c-.3,1-.9.3-2.3,2.2-1,1.5-1.6,3-2,2.5h0Z"/>
        <path class="st32" d="M410.4,339.7c-1,.6-1.9,0-1.9-1.1s.8-2.6,1.9-3.4c1-.6,1.9,0,1.9,1.1s-.7,2.6-1.9,3.4Z"/>
      </g>
    </g>
  </g>
  <g id="freepik--character-2--inject-2">
    <g id="freepik--character--inject-2">
      <g id="freepik--bottom--inject-2">
        <path class="st35" d="M184.9,312.6c.6-8.4-.3-14.9.3-27.9h0c0-3.4.2-6.9.4-10.2.7-10.7,2.4-14.5,2.6-16.5,0,0,.3-16.7,1-40.3.3-11.1,3.6-14.5,6.1-20.3h30.5c3.4,14.5,4.4,46.1,4.3,61,0,7.6-2.5,47.7-2.6,48.7-.2,3.3,0,4.6,1.4,6.1,2.7,2.9,6.7,5.7,10.1,8.2-.5,1.3-5.2,1.9-7.3.9-2.7-1.4-5.2-3-7.6-4.8-2.8-2.1-6.4-3.7-6.5-6.9v-.6c0-1.9-4.4-29.1-4.8-35.4-.3-5.4.3-14.7.3-14.7l-3.6-23s-2.2,13.6-4.4,22.9c-1.8,7.6-4.8,20.5-6.7,29.8h0c-1.9,10.7-4.8,18.4-5.2,23.7-.2,1.3-1.6,13.9-2.2,16.8s-6.9,3-7.3-2c-.2-3.3,1-14,1-15.5h.2Z"/>
        <path class="st16" d="M209.7,236.9l2.6-16.6s9.9-1.2,13.6-4.7c0,0-4.5,6.5-11.3,7.4l-2.8,13.8,1.5,22.8-3.6-22.8h0Z"/>
        <path class="st15" d="M244.3,325.4c.3,1,.2,2-.5,2.7-1,1-4.3,2.5-8.5,2s-6.5-1.8-8.2-3.1-4.1-3.4-6.1-3.8c-1.5-.2-3-.9-4.3-1.7-.6-.6-.5-3-.5-3l28,6.9h.1Z"/>
        <path class="st1" d="M217.6,309.1s-.3,0-.4.6-.2,2.7-.5,3.7c-.4,1.9-.6,4-.3,6,.2,1.2,3.1,2.1,5,2.7,2.2,1,4.2,2.2,6.1,3.7,2.7,1.9,5.7,3,9,3.2,4.2,0,6.9-1.1,7.8-2.7,1-1.9.8-3.6-4.1-5.7-.9-.4-4.1-2.3-5.2-3-1.2-.7-2.3-1.5-3.3-2.4-.6-.5-1-1-1.5-1.5s-.9-1-1.2-1.5q0-.2-.2-.4c-.2-.4-.2-.7-.3-1.1,0-.4-.2-1-.5-1.2-.6-.2-1.1-.3-1.7-.2-.9.2-1.8.3-2.6.6-.7,0-1.5.6-1.8,1.3-.2.6-.4,1.1-.4,1.8v1.1s-.3-.5-.4-.6c-.2-.3-.2-.6-.4-1-.2-.3-.4-.7-.6-1s-.5-.6-.8-.8c-.2-.2-.6-.3-.8-.6-.4-.2-.5-.6-.6-1h-.3Z"/>
        <path class="st36" d="M240.7,321.1c-6.1.5-8.6,4.9-8.8,7.3,1.4.5,2.8.8,4.4.9,4.2,0,7.1-1.1,7.9-2.7,1-1.9.9-4-3.5-5.5h0Z"/>
        <path class="st17" d="M231,321.8h-.2c-.2,0-.2-.3,0-.4h0c.8-1,3.9-3.1,6.1-2.8.2,0,.3.2.2.3s-.2.3-.3.2c-2.1-.2-4.9,1.8-5.6,2.7h-.2Z"/>
        <path class="st17" d="M228.4,320.4h-.2c-.2,0-.2-.3,0-.4h0c.8-1,3.9-3.1,6.1-2.8.2,0,.3.2.2.3h0c0,.2-.2.2-.3.2h0c-2.1-.2-4.8,1.8-5.6,2.7h-.2Z"/>
        <path class="st17" d="M225.9,318.6h-.2c-.2,0-.2-.3,0-.4.8-1,3.9-3.1,6.1-2.8.2,0,.3.2.2.3,0,.2-.2.3-.3.2-2.1-.2-4.9,1.8-5.6,2.7h-.2Z"/>
        <path class="st17" d="M223.5,316.9h-.2c-.2,0-.2-.3,0-.4h0c1.1-1.5,4.4-3.1,6.5-2.9.2,0,.2.2.2.3s-.2.3-.3.2c-2-.2-5,1.4-6.1,2.7q0,.2-.2.2h.1Z"/>
        <path class="st15" d="M193.2,332.4c-.2,2.9-.6,4.8-1.6,6.5-1,1.6-3.1,2.3-4.9,1.7-1.9-.5-4.4-1.8-5-4.3-.6-2.3-.8-4.5-.5-6.9l12,3h0Z"/>
        <path class="st1" d="M185,311.6c-.8,0-1,4-1.5,7.8-.5,4.1-1.7,5.9-2.2,9.3-.5,3.9.2,5.7,1.5,8s6.1,4.7,8.6,1.3c1.9-2.7,2-5.8,1.9-9.7,0-3.3,0-6.5.2-9.9.2-2.9.8-5.8,0-6.1,0,.4,0,1-.2,1.4,0,.6,0,1-.2,1.5,0,.2-.2.4-.3,0v-.7c0-1-.4-1.1-.7-1.2-1.2-.2-2.5-.4-3.7-.5-.6,0-2.7-.2-3,.2-.2.3-.2.7-.2,1.1,0,.6-.2,1-.2.8v-3.4h0Z"/>
        <path class="st36" d="M181.1,330.9c-.2,2.1.4,4.1,1.5,5.9,1.4,2.3,6.5,4.7,9,1.3,1-1.7,1.6-3.6,1.7-5.7-1.5-2.6-10-3.7-12.2-1.5h0Z"/>
        <path class="st17" d="M191.5,328.1h0c-2.3-.9-4.9-1.1-7.3-.7-.2,0-.3,0-.3-.2h0c0-.2,0-.3.2-.4,2.6-.5,5.3-.2,7.8.7.2,0,.2.2.2.4-.2.2-.3.3-.4.2h-.2Z"/>
        <path class="st17" d="M184.1,324.5c-.2,0-.2-.2-.2-.3s0-.2.2-.2c3.6-1.2,7.6.6,7.8.7.2,0,.2.2,0,.4,0,0-.2.2-.3,0,0,0-4-1.8-7.3-.6h-.2Z"/>
        <path class="st17" d="M184.3,321.8s-.2,0-.2-.2,0-.3.2-.4c2.6-.8,5.4-.6,7.9.6.2,0,.2.2,0,.4h0c0,.2-.2.2-.4,0,0,0-3.7-1.9-7.3-.6h-.2v.2Z"/>
        <path class="st33" d="M184.5,319.1s-.2,0-.2-.2,0-.3.2-.4c3.7-1.4,7.8.6,7.9.7s.2.2,0,.4c0,.2-.2.2-.4,0h0s-4-2-7.4-.7h0v.2Z"/>
        <path class="st1" d="M193.2,197.4c-3.6,6.5-5.6,11.9-5.9,31.6s.2,25.2.2,27.5-1.5,6.5-2.7,18.2c-1.2,11.6.2,25.5.2,25.5,0,0,.8,1.9,5.2,2.3,4.1.4,6.1-1.2,6.1-1.2,0,0,5.7-22.6,7.2-29.6s6.1-30,6.1-30l2.7,18.7s-1.3,6.5,0,16.6,3.5,20.7,3.5,20.7c2,.7,4.1,1,6.3,1s4.3-.6,6.1-1.6c0,0,2.9-30.2,2.9-41.7s-.9-41-3.5-58.1l-34.5.3v-.2Z"/>
        <path class="st15" d="M213.4,219.3l-3.6,22.2,2.7,18.7-1.1-18.9,3.2-18.2c2.7-.6,9.1-4,10.9-8.8-4.4,4.5-12,5.1-12,5.1h0ZM200.4,206.4c.5-1.9,1-3.7,1.6-5.6-1,1.7-1.9,3.5-2.5,5.3s-1.2,3.7-1.7,5.7-.8,3.8-1,5.7-.4,3.9-.4,5.8c.5-1.9.9-3.8,1.3-5.7s.9-3.8,1.3-5.7,1-3.8,1.5-5.7v.2ZM197.6,205c.6-1.1,1.3-2.3,1.9-3.5-1,.9-1.9,1.9-2.7,3-.8,1-1.5,2.2-2.2,3.3-.6,1.1-1.2,2.3-1.6,3.6-.5,1.2-.7,2.6-.9,3.9l1.8-3.5c.6-1.1,1.2-2.3,1.9-3.4s1.2-2.3,1.9-3.5h0ZM195.3,279.2c-1,6.1-2.1,12-3,18.1,1.4-6,2.7-11.9,4-17.9s2.4-11.9,3.6-18,1.9-12.1,2.4-18.2,1-12.2,1.4-18.3c-.8,6.1-1.6,12.1-2.3,18.2s-1.6,12.1-2.7,18.1c-1,6-2.3,12.1-3.4,18.2h0v-.2ZM226.8,248.7c0,2.7.2,5.3.2,7.9s-.2,5.3-.3,8l-.4,8c-.2,5.3-.5,10.7-.6,16,.6-5.3,1.1-10.6,1.6-15.9.4-5.3.9-10.6,1-16,0-5.4-.5-10.7-1-16s-1.1-10.6-1.9-15.9l1,16c.2,2.6.3,5.2.4,7.9h0Z"/>
      </g>
      <g id="freepik--Top--inject-2">
        <path class="st35" d="M219.9,161.2c6.2,1.4,8.1,3.6,11.8,8.7,2.2,3,8.7,13.2,8.7,13.2,1-.6,9.9-5.4,12.1-7.5,2.4-2.2,1.9-3.6,2.3-5.3.3-1.8,1.2-3,1.4-5.8,0-1.4,1.5-.8,1.9,0,.9,1.8.2,4.5,1,4.5,1-.4,1.8-1,2.4-1.8,1.8-1.9,2.4-3.8,4-5.9.6-.8,1.4-1.6,2.5-1.4h.3c.2,0,.2.2.2.4,0,.3,0,.6-.2.9,0,.2-.3.8-.3.8,0,0,1,.3,1,.8s0,1.4-.4,2c.4.4.9,1.2,0,2.7.3.2,1,1.5,0,3.5-1,1.9-2.2,3.6-3.6,5.2-2.1,2.3-3.9,3-6.6,5.3s-7.9,7.6-12.4,11.1c-5.2,4-7.1,5-10.8,1.9-1.9-1.5-13.7-15.7-13.7-15.7l-1.5-17.8v.2Z"/>
        <path class="st31" d="M259.9,170.3c.8,1.6.2,4.5-2.3,6.2,2.7-.6,4.4-4.3,2.3-6.2Z"/>
        <path id="freepik--chest--inject-2" class="st32" d="M189.5,206.5c1.4-6.1,2.5-10.7,2.5-12.1,0-5.8-1.6-13.6-2.1-17-1.1-7.4-.6-13.2,1-14.6l10-3.5s9.9,0,11.5.2c.8,0,7.3,1.6,7.3,1.6,2.1,1.9,3.8,4.1,5.1,6.5,1.9,3.3,2.2,6.2,2.5,13.4.4,9.1,1.5,19.4,1.5,25.8-7.5,4.7-29.6,5.4-39.4-.3h.1Z"/>
        <g id="freepik--Book--inject-2">
          <path class="st0" d="M246,180.2c-.2-.9.2-1.8.8-2.3,1-.8,2.2-1.1,2.7-3.1l2,1.2-2.5,4.3h-3Z"/>
          <path class="st7" d="M246,180.2c-.2-.9.2-1.8.8-2.3,1-.8,2.2-1.1,2.7-3.1l2,1.2-2.5,4.3h-3Z"/>
          <path class="st0" d="M246,180.2c-1.5-1.4-3.6-1.9-5.6-1.5-3.6.7-5,1.7-11.9,1.5l.6,2.5,17.9-1.1-1.1-1.5h.1Z"/>
          <path class="st7" d="M246,180.2c-1.5-1.4-3.6-1.9-5.6-1.5-3.6.7-5,1.7-11.9,1.5l.6,2.5,17.9-1.1-1.1-1.5h.1Z"/>
          <polygon class="st0" points="228.5 180.4 209.8 190.8 209.8 193.4 229.1 182.8 228.5 180.4"/>
          <polygon class="st7" points="228.5 180.4 209.8 190.8 209.8 193.4 229.1 182.8 228.5 180.4"/>
          <polygon class="st8" points="228.5 180.4 209.8 190.8 209.8 193.4 229.1 182.8 228.5 180.4"/>
          <g class="st26">
            <path d="M249.9,176.2c-.2.4-.4.8-.7,1.1s-.6.6-1,.9-.7.6-1,.9c-.2.2-.2.3-.3.6,0,.2-.2.4-.2.6h-.2c0-.2,0-.5.2-.7,0-.2.2-.4.4-.6.3-.3.6-.6,1-.9s.7-.6,1-.9c.4-.2.6-.6.8-1h0Z"/>
            <path d="M249.7,177.4c-.2.2-.3.5-.6.7l-.6.6c-.2.2-.4.5-.6.7-.2.2-.2.5-.3.8h-.2c0-.3.2-.6.3-.9.2-.2.4-.5.6-.7l.6-.6c.4-.2.6-.4.8-.6Z"/>
            <path d="M234.3,181.9c1,0,1.9-.2,2.9-.5,1-.2,1.9-.5,2.9-.6,1-.2,1.9-.4,2.9-.4h1.5c.2,0,.5,0,.7.2.2,0,.5.2.7.3l-.2.2c-.2-.2-.4-.2-.6-.3-.2,0-.5,0-.7-.2h-1.5c-1,0-1.9.2-2.9.3-1,.2-1.9.4-2.9.6-1,.2-1.9.3-2.9.4h.1Z"/>
            <path d="M238.9,181.7c.6,0,1.1-.2,1.6-.3s1.1-.2,1.7-.3c.6,0,1.1-.2,1.7-.2s1.1,0,1.7.3v.2c-.6-.2-1.1-.3-1.7-.3h-1.7c-.6,0-1.1.2-1.7.2s-1,.3-1.6.3h0Z"/>
          </g>
          <polyline class="st0" points="248.6 179.9 251.5 174.9 252.4 175.4 249.4 180.4"/>
          <path class="st0" d="M247.7,180.9s-19.1,10.5-19.6,10.8h0c-.6.3-1.3.6-2,.6l.9.5c.6,0,1-.2,1.5-.4h.2v-.2l19.6-10.7-.6-.6h0Z"/>
          <path class="st10" d="M247.7,180.9l-19.7,10.8c-.6.3-1.3.6-2,.6l.9.5c.6,0,1-.2,1.5-.4h.2v-.2l19.6-10.7-.6-.6h.1Z"/>
          <polygon class="st0" points="245.6 181.6 228 182.9 209.3 193.3 209.3 194.2 226.9 192.9 246.5 182.2 245.6 181.6"/>
          <path class="st11" d="M228.9,183.4l-19.5,10.7,17.7-1.3,19.5-10.7-17.7,1.3Z"/>
          <polygon class="st10" points="228 182.9 228.9 183.4 209.3 194.2 209.3 193.3 228 182.9"/>
          <path class="st32" d="M248.4,179.9c-.8-.2-1.7-.2-2.4.3-.8.5-1,1.1-.5,1.5l1,.6,2.9-1.7-.9-.5v-.2h-.1Z"/>
          <path class="st0" d="M248.6,179.9c-.2.8-1.2,1.4-2.9,1.7l.9.5c1.2,0,2.3-.7,2.9-1.7l-.9-.5Z"/>
        </g>
        <path class="st35" d="M216,193.7c1.5,0,4.4,0,5.7-1.5,2.1-1.8,2.7-1.7,4.7-2.3,2.3-.7,2.3-1.1,3.7-1.9s2.3-1,2.8-.6.9.7,0,1.5l-1.7,1.5,3.8-1.7c1.6-.7,4.2-2,4.9-2.4s2.5-1.4,2.5-1.4c0,0,.4.6-.4,1.5s-3,2.7-3.6,3.2-1.4,1.2-1.9,1.7-1,1-2,1.9c-.8.7-1.7,1.4-2.6,1.9-.6.4-2.6,1.5-4.9,2.6-2.3,1.1-4.5,2.2-6.9,3-5.3,1.7-10.8,2.9-16.3,3.7-7.8,1-9,.6-10.3.2-.8-.2-1.6-1-2.8-4.3s-3-11.1-4-15.6c-1.2-5.2-2.7-10.3-2.3-13.6s1.8-6.9,6.7-8.2c3.6,1.5,4.7,4.8,6.2,13.1,1.5,7.8,3.3,18.2,3.3,18.2,0,0,5.4.2,8.9,0,2.7-.2,5.2-.5,6.7-.6h-.2Z"/>
        <path class="st31" d="M242.5,184.8c.2.2.2.6,0,.9,0,.2-.3.5-.6.7l-1.3,1.2-2.6,2.3-1.3,1.2c-.5.4-.8.8-1.3,1.2-.8.8-1.8,1.6-2.7,2.3-1,.6-2,1.3-3.1,1.8-1,.6-2.1,1-3.1,1.5s-2.1,1-3.2,1.5-2.2.8-3.3,1.2c2.2-.8,4.4-1.8,6.5-2.9,2.1-1,4.2-2.1,6.1-3.4,1-.6,1.9-1.5,2.7-2.3s.8-.8,1.3-1.2l1.3-1.1,2.7-2.3,1.4-1.1.6-.6v-1h0Z"/>
        <path class="st31" d="M231.3,190.4c-.8.7-1.5,1.6-2.1,2.5l4-3.4-1.9.9Z"/>
        <path class="st30" d="M196.2,132.4c0,.2-1,.7-1.2,1-.3.3-.6.7-.9,1.1-.5.9-.9,1.9-1,3-.2,1.8-.2,3.5-.2,5.2-.2,1.7-.4,3.4-.8,5.1-.4,1.5-.6,3-.5,4.4,0,1.5.6,3,1.8,4-.4-1.5-.4-3,0-4.5,0,1,.2,1.9.6,2.7.6,1.4,1.8,2.4,3.1,3,1.4.6,2.7,1,4.2,1.3,2.3.5,4.8.6,7.2.6s3-.2,4.4-.4c1.9-.2,3.8-.8,5.4-1.8,1.6-1,2.6-2.9,2.5-4.8.6.9.8,2,.8,3.1,1-1.2,1.5-2.7,1.4-4.3s-.6-3.1-1.4-4.4c-.5-.8-1-1.7-1.4-2.6-.4-.8-.4-1.8-.2-2.6.2-.6.6-1,.9-1.6.7-1.5,1.1-3.2,1-4.9-.3-3.5-2.5-8.1-9-9.4-5.3-1.5-15.6-.3-16.9,6.7h.2Z"/>
        <g id="freepik--head--inject-22">
          <g id="freepik--head--inject-23">
            <g id="freepik--head--inject-24">
              <path class="st35" d="M199.4,150.4c-1.4.2-2.7-.3-3.6-1.4-1.9-2-2.1-4.1-1.2-5.6.7-1.1,2.5-1.9,3.8-1.1s1.4,1.5,1.9,2.4,1.8.2,1.4-3.6c2.6-1.2,2.2-5.5,3.6-7.3,2.2-2.7,5.8-2,7-1.4,1.5-1,3.4-1.1,4.9-.3,1.8.9,2.9,2.9,3.6,9.5.6,6.8-.6,11.4-2.2,12.8-1.6,1.2-3.6,1.8-5.6,1.5v3.7s7,6.1-1.9,5.4c-4-.3-7.8-2.4-10.2-5.7v-10.3s-.2.9-1.5,1.1v.3Z"/>
              <path class="st14" d="M214.2,149.2c-.2,1-1.3,1.8-2.3,1.5h0c-1-.2-1.8-1.2-1.6-2.3h0l4,.7h0Z"/>
              <path class="st22" d="M210.2,149.1c0,.9.8,1.5,1.6,1.7h.7c-.2-1.1-1.2-1.9-2.3-1.7Z"/>
              <path class="st15" d="M218.8,137.6l-2.6-.8c.2-.7,1-1.1,1.6-.9h0c.7.2,1.1,1,.9,1.7h.1Z"/>
              <path class="st15" d="M209.3,136.8l-2.6,1.4c-.4-.6-.2-1.5.5-1.9h0c.6-.3,1.5,0,2,.6h.1Z"/>
              <path class="st1" d="M222.2,138.3h-.5c-1.7-.2-3.4,0-5.1.4-1.6.6-2.1,1.1-3.1,1.1s-1.6-.5-3.4-.9c-1.8-.2-3.6-.2-5.5,0h-.6c-.4.2-.6.6-.6,1s.3.7.6,1c0,0,.2.2.2.4.2,1,.5,1.9.9,2.7.2.3.5.7.7,1,0,0,.2.2.4.2l.2.2c.2,0,.4.2.6.2h1.5c2.3,0,3.1-1.1,3.6-2.3s.2-2.6,1.3-2.6h.2c.8.2.8,1.5,1.3,2.4.2.4.5.7.8,1l.2.2h0v.2h0v.2h.2c.3.2.6.2.9.3h1.1c1.3,0,2.6-.7,3.1-1.9.2-.9.4-1.9.5-2.8q0-.2.2-.4c.2-.3.4-.6.4-1,.2-.4,0-.7-.4-.9l.3.3ZM211.7,142.7c0,.6-.3,1-.6,1.5h0c-.6.6-1.5,1-2.4,1s-1.8-.2-2.4-1h0v-.2h0v-.2h0v-.2h0l-.2-.4h0v-.5h0v-.2c-.2-.7-.6-2.2-.2-2.5s1.4-.7,3.1-.6h1.3c.2.2.5.2.7.2h.2l.2.2h.2c.2,0,.4.2.6.3.3.7.4,1.5.2,2.3h0l-.7.3ZM221.3,142c0,1-.6,1.9-1.5,2.4-.4.2-.8.3-1.2.3-1,.2-1.9-.2-2.6-1h0v-.2h0v-.2h0v-.2h0c0-.2-.2-.4-.2-.6-.3-.7-.3-1.5,0-2.3.7-.6,1.7-1.1,2.7-1.2h2.5c.2.2.3.2.4.3.5.3.4,1.8.2,2.6h-.3Z"/>
              <path class="st31" d="M217.2,145.8l-3.8,1.6-.8-4.8c.2-.7.2-1.5.9-1.5l3.7,4.7h0Z"/>
              <path class="st1" d="M204.2,139.7l-5.9,2.7c.3.2.6.5.9.7l5.1-2.3v-1.2h-.1Z"/>
            </g>
            <path class="st15" d="M218.8,141.4c.2.6-.2.8-.8,1s-1.1.3-1.3-.2c-.2-.6,0-1.2.6-1.5h0c.6-.2,1.3,0,1.5.7h0Z"/>
            <path class="st15" d="M216.9,141c.2-.2.5-.2.8-.3h.9c.3,0,.6,0,.9.2h-1.7c-.4,0-.7.2-1,.4l-.3.2h0c0-.2.3-.3.6-.5h-.2Z"/>
            <path class="st15" d="M207.8,141.8c-.2.6.3.7.9.9s1.1.2,1.3-.4c.2-.6-.2-1.2-.8-1.4s-1.3.2-1.4.9h0Z"/>
            <path class="st15" d="M209.6,141.1c-.2,0-.6-.2-.9-.2h-.9c-.3,0-.6.2-.8.3h1.7c.4,0,.8.2,1.1.2l.4.2h0c-.2-.2-.4-.4-.6-.5Z"/>
          </g>
          <path class="st31" d="M213,156.2c-3.6-.2-8.2-1.4-9.5-3.6.7,2.4,3.1,3.6,5.2,4.2s2.8.6,4.3.7v-1.4h0Z"/>
        </g>
      </g>
    </g>
  </g>
  <g id="freepik--character-1--inject-2">
    <g id="freepik--Books--inject-2">
      <g id="freepik--book--inject-2">
        <polygon class="st0" points="79.6 363.5 133.1 393.7 215.4 346.6 161.8 316.3 79.6 363.5"/>
        <polygon class="st13" points="79.6 363.5 133.1 393.7 215.4 346.6 161.8 316.3 79.6 363.5"/>
        <path class="st34" d="M133.7,391.6l-51.8-29.4c1.3-3.6,1.2-4.8-.2-9.6l51.4,29.1s.9,0,.6,9.9h0Z"/>
        <path class="st0" d="M130.6,377.7c2.8,1.8,4.5,4.8,4.8,8.2v6.4c0,3-2.1,4.2-4.8,2.7l-51-29v-2.3l50.4,28.4c1.5.9,2.8.2,2.8-1.6v-5.7c0-2-1.2-3.8-2.8-4.8l-50.4-28.5v-2.7l51,28.9Z"/>
        <path class="st12" d="M130.6,377.7c2.8,1.8,4.5,4.8,4.8,8.2v6.4c0,3-2.1,4.2-4.8,2.7l-51-29v-2.3l50.4,28.4c1.5.9,2.8.2,2.8-1.6v-5.7c0-2-1.2-3.8-2.8-4.8l-50.4-28.5v-2.7l51,28.9Z"/>
        <path class="st0" d="M79.6,348.7l82.2-47.2,51,29c2.8,1.8,4.5,4.8,4.8,8.2v6.4c0,1.5-.5,2.6-1.4,3.1l-82.2,47.2c.9-.5,1.4-1.5,1.4-3.1v-6.4c-.2-3.3-1.9-6.3-4.7-8.2l-51.1-28.9h0Z"/>
        <path class="st10" d="M79.6,348.7l82.2-47.2,51,29c2.8,1.8,4.5,4.8,4.8,8.2v6.4c0,1.5-.5,2.6-1.4,3.1l-82.2,47.2c.9-.5,1.4-1.5,1.4-3.1v-6.4c-.2-3.3-1.9-6.3-4.7-8.2l-51.1-28.9h0Z"/>
        <path class="st0" d="M134,381.2c.8,1.4,1.3,3,1.4,4.6v6.4c0,1.5-.6,2.5-1.4,3.1l82.2-47.2c.9-.5,1.4-1.5,1.4-3.1v-6.4c0-1.6-.6-3.2-1.4-4.6l-82.2,47.2Z"/>
        <path class="st9" d="M134,381.2c.8,1.4,1.3,3,1.4,4.6v6.4c0,1.5-.6,2.5-1.4,3.1l82.2-47.2c.9-.5,1.4-1.5,1.4-3.1v-6.4c0-1.6-.6-3.2-1.4-4.6l-82.2,47.2Z"/>
        <path class="st0" d="M205.1,340.3c1.5,6.6,1.5,9.3,0,14.1l-4,2.3c1.5-4.8,1.5-7.5,0-14.1l4-2.3Z"/>
        <path class="st0" d="M151.1,371.3c1.5,6.6,1.5,9.2,0,14l-3.9,2.3c1.5-4.8,1.5-7.4,0-14l3.9-2.3Z"/>
      </g>
      <g id="freepik--book--inject-21">
        <polygon class="st0" points="73.8 348 127.4 378.1 209.6 330.9 155.9 300.7 73.8 348"/>
        <polygon class="st9" points="73.8 348 127.4 378.1 209.6 330.9 155.9 300.7 73.8 348"/>
        <path class="st34" d="M127.9,375.9l-51.8-29.3c1.3-3.6,1.2-5.2-.2-10.1l51.5,29.1s.8.3.5,10.3Z"/>
        <path class="st0" d="M124.9,361.5c2.8,1.8,4.5,4.8,4.8,8.2v6.9c0,3-2.1,4.2-4.7,2.7l-51.1-28.9v-2.3l50.5,28.3c1.5.9,2.8.2,2.8-1.6v-6.2c-.2-1.9-1.3-3.8-2.9-4.8l-50.4-28.4v-2.7l51,28.9h0Z"/>
        <path class="st11" d="M124.9,361.5c2.8,1.8,4.5,4.8,4.8,8.2v6.9c0,3-2.1,4.2-4.7,2.7l-51.1-28.9v-2.3l50.5,28.3c1.5.9,2.8.2,2.8-1.6v-6.2c-.2-1.9-1.3-3.8-2.9-4.8l-50.4-28.4v-2.7l51,28.9h0Z"/>
        <path class="st0" d="M73.8,332.5l82.2-47.3,51,28.9c2.8,1.8,4.5,4.8,4.8,8.2v6.9c0,1.5-.5,2.5-1.4,3.1l-82.2,47.3c.9-.5,1.4-1.5,1.4-3.1v-6.9c-.2-3.3-1.9-6.3-4.7-8.2,0,0-51.1-28.9-51.1-28.9Z"/>
        <path class="st0" d="M128.2,365c.9,1.4,1.4,3,1.4,4.6v6.9c0,1.5-.6,2.6-1.4,3.1l82.2-47.3c.9-.5,1.4-1.5,1.4-3.1v-6.9c0-1.6-.6-3.2-1.4-4.6l-82.2,47.3Z"/>
        <path class="st11" d="M128.2,365c.9,1.4,1.4,3,1.4,4.6v6.9c0,1.5-.6,2.6-1.4,3.1l82.2-47.3c.9-.5,1.4-1.5,1.4-3.1v-6.9c0-1.6-.6-3.2-1.4-4.6l-82.2,47.3Z"/>
        <path class="st0" d="M199.2,324c1.5,6.6,1.5,9.8,0,14.7l-3.9,2.3c1.5-4.8,1.5-8,0-14.7l3.9-2.3Z"/>
        <path class="st0" d="M145.4,355.1c1.5,6.6,1.5,9.7,0,14.5l-3.9,2.3c1.5-4.8,1.5-7.9,0-14.5l3.9-2.3Z"/>
        <g class="st18">
          <path class="st3" d="M199.2,324c1.5,6.6,1.5,9.8,0,14.7l-3.9,2.3c1.5-4.8,1.5-8,0-14.7l3.9-2.3Z"/>
          <path class="st3" d="M145.4,355.1c1.5,6.6,1.5,9.7,0,14.5l-3.9,2.3c1.5-4.8,1.5-7.9,0-14.5l3.9-2.3Z"/>
        </g>
      </g>
      <g id="freepik--book--inject-22">
        <path class="st0" d="M75.7,329.2l2.2-1.1-1.9-.5c-.4.5-.5,1.1-.2,1.6h0Z"/>
        <path class="st12" d="M75.7,329.2l2.2-1.1-1.9-.5c-.4.5-.5,1.1-.2,1.6h0Z"/>
        <path class="st0" d="M132.6,357.9c-1.4.7-3,.7-4.4,0l-49-28.3,73.4-41.7,1.7-1,49,27.6c1.2.7,1.2,1.9,0,2.5l-70.7,40.9Z"/>
        <path class="st0" d="M114.2,305.1l-17.1,9.9-11.1-6.4-12.8,7.4v8.6c0,1.1,1.3,2.7,1.7,2.4.9.2,1.7.5,2.4.9,1.3.7,2.5,1.6,3.6,2.6l39.2-22s-5.9-3.4-5.9-3.4Z"/>
        <path class="st11" d="M114.2,305.1l-17.1,9.9-11.1-6.4-12.8,7.4v8.6c0,1.1,1.3,2.7,1.7,2.4.9.2,1.7.5,2.4.9,1.3.7,2.5,1.6,3.6,2.6l39.2-22s-5.9-3.4-5.9-3.4Z"/>
        <path class="st1" d="M80.2,317v9.3h-.2c-.6-.5-1.4-.7-2.1-.7s-1,0-1.4.3v-11l3.6,2.1h0Z"/>
        <path class="st24" d="M82.6,329.6c0-.6-.2-1.1-.6-1.6-.2-.2-.4-.5-.6-.7l-.2-.2-.2-.2-.2-.2c-.2,0-.3-.2-.5-.3v-9.3l2.4,1.4v11.1h-.1Z"/>
        <path class="st9" d="M73.2,324.6c0,1.1,1.3,2.7,1.7,2.4h0l1.7-1.1v-7.1l-1.7-3-1-.3-.8.4v8.7h.1Z"/>
        <path class="st33" d="M130.4,346v10.7c-.5,0-1,0-1.5-.3l-5.4-3.1-40.9-23.7v-11.1l47.8,27.5Z"/>
        <path class="st34" d="M202,306.1v8c0,1-.6,1.9-1.5,2.5l-63.4,36.6-5.4,3.1c-.5.2-1,.3-1.5.3v-9.4l71.7-41h0Z"/>
        <path class="st0" d="M152.6,274.1l-73.4,42.4v1c0,.6-.8.7-1.7.2s-1.7-1.2-1.7-2.2v-.9l74.7-43.2.3-.2c0,.2,0,.3.2.5v.5c0,.5.6,1.4,1.6,1.9h0Z"/>
        <path class="st8" d="M152.6,274.1l-73.4,42.4v1c0,.6-.8.7-1.7.2s-1.7-1.2-1.7-2.2v-.9l74.7-43.2.3-.2c0,.2,0,.3.2.5v.5c0,.5.6,1.4,1.6,1.9h0Z"/>
        <path class="st0" d="M128.2,344.7l-47.9-27.7c-.6-.3-1.1-.6-1.4-.5l.3-.2,73.4-42.4.9-.5c.8-.2,1.6,0,2.3.3l47.6,27.5c1.2.7,1.2,1.9,0,2.5l-70.7,40.9c-1.5.8-3.1.8-4.5,0h0Z"/>
        <path class="st0" d="M150.8,271.2l-.3.2-74.8,43.2s0-.2-.2-.2l-.2-.2-.6-.3-.6-.4c-.2-.2-.6-.2-.8,0h0c0,.2-.2.3-.2.4,0,.2-.2.2-.2.4s0,.3-.2.5,0,.4,0,.6v1.2-2.1c.2-1.4,1-2.7,2.2-3.4l70.7-40.9c1.2-.7,2.6-.8,3.9-.3l.9.5h0l.4.2h0c0,.2,0,.4.2.5h-.2Z"/>
        <path class="st0" d="M128.2,357.9l-3-1.7-44.3-25.6c0-.6-.2-1.1-.6-1.6-.6-.7-1.2-1.3-1.9-1.7-.6-.4-1.4-.6-2.1-.6s-1,.2-1.4.5c-.6-1.1-.9-2.4-.8-3.6h-1.6c0,2.3.7,4.7,1.7,5.2l.8.5c.5.2.9.3.9,0v-.5c0-.5.8-.5,1.7,0s1.7,1.4,1.7,1.9v.5c0,.2.6.8,1.5,1.3l42.9,24.8,4.7,2.7h0c.6.3,1.5.6,2.2.5v-1.9c-.7,0-1.5-.2-2.2-.6h-.2Z"/>
        <path class="st10" d="M128.2,357.9l-3-1.7-44.3-25.6c0-.6-.2-1.1-.6-1.6-.6-.7-1.2-1.3-1.9-1.7-.6-.4-1.4-.6-2.1-.6s-1,.2-1.4.5c-.6-1.1-.9-2.4-.8-3.6h-1.6c0,2.3.7,4.7,1.7,5.2l.8.5c.5.2.9.3.9,0v-.5c0-.5.8-.5,1.7,0s1.7,1.4,1.7,1.9v.5c0,.2.6.8,1.5,1.3l42.9,24.8,4.7,2.7h0c.6.3,1.5.6,2.2.5v-1.9c-.7,0-1.5-.2-2.2-.6h-.2Z"/>
        <path class="st0" d="M128.3,344.7h0l-3-1.7-34.1-19.7-10.9-6.3c-.8-.5-1.4-.6-1.5-.4h0v.5c0,.6-.8.6-1.7,0-.7-.3-1.2-1-1.4-1.7v-.6c0-.2,0-.5-.2-.6l-.2-.2c-.2,0-.3-.2-.6-.3l-.6-.4c-.2-.2-.6-.2-.8,0h0q0,.2-.2.2h0c0,.2-.2.3-.2.5s0,.3-.2.5,0,.4,0,.6v7.9h1.7v-7.6h0c.2,1.3,1.5,2.4,2.5,3.1.6.4,1.3.6,2,.6s1-.2,1.5-.6h.2l.3.2,43,24.7,4.7,2.7h0c.6.3,1.4.5,2.2.5v-1.5c-1,0-1.7-.2-2.3-.5h-.2Z"/>
        <path class="st10" d="M128.3,344.7h0l-3-1.7-34.1-19.7-10.9-6.3c-.8-.5-1.4-.6-1.5-.4h0v.5c0,.6-.8.6-1.7,0-.7-.3-1.2-1-1.4-1.7v-.6c0-.2,0-.5-.2-.6l-.2-.2c-.2,0-.3-.2-.6-.3l-.6-.4c-.2-.2-.6-.2-.8,0h0q0,.2-.2.2h0c0,.2-.2.3-.2.5s0,.3-.2.5,0,.4,0,.6v7.9h1.7v-7.6h0c.2,1.3,1.5,2.4,2.5,3.1.6.4,1.3.6,2,.6s1-.2,1.5-.6h.2l.3.2,43,24.7,4.7,2.7h0c.6.3,1.4.5,2.2.5v-1.5c-1,0-1.7-.2-2.3-.5h-.2Z"/>
        <path class="st0" d="M204.1,302.6v2c0,.6-.4,1-.9,1.2h0l-66.1,38.2-4.7,2.7h0c-.6.3-1.5.5-2.2.5v-1.9c.7,0,1.5-.2,2.2-.5l3-1.7h0l67.7-39.2c.6-.2,1-.7,1-1.3h0Z"/>
        <path class="st11" d="M204.1,302.6v2c0,.6-.4,1-.9,1.2h0l-66.1,38.2-4.7,2.7h0c-.6.3-1.5.5-2.2.5v-1.9c.7,0,1.5-.2,2.2-.5l3-1.7h0l67.7-39.2c.6-.2,1-.7,1-1.3h0Z"/>
        <path class="st0" d="M204.1,315.8v2c0,.6-.4,1-.9,1.2h0l-66.1,38.1-4.7,2.7h0c-.6.3-1.5.6-2.2.5v-1.9c.7,0,1.5-.2,2.2-.5l3-1.7h0l67.7-39.2c.6-.2,1-.6,1-1.2Z"/>
        <path class="st11" d="M204.1,315.8v2c0,.6-.4,1-.9,1.2h0l-66.1,38.1-4.7,2.7h0c-.6.3-1.5.6-2.2.5v-1.9c.7,0,1.5-.2,2.2-.5l3-1.7h0l67.7-39.2c.6-.2,1-.6,1-1.2Z"/>
      </g>
      <g id="freepik--book--inject-23">
        <polygon class="st0" points="80.8 309 136.3 340.6 210.3 298.2 154.7 266.5 80.8 309"/>
        <polygon class="st6" points="80.8 309 136.3 340.6 210.3 298.2 154.7 266.5 80.8 309"/>
        <path class="st34" d="M136.9,338.7l-54-30.9c1.1-3.2,1-6.9-.2-11.2l53.7,30.7s.9,2.7.6,11.5h-.1Z"/>
        <path class="st0" d="M134.1,323.7c2.4,1.6,4,4.2,4.1,7.1v8.3c0,2.7-1.9,3.7-4.1,2.4l-53.4-30.5v-2.1l52.8,30c1.4.8,2.5.2,2.5-1.5v-7.7c0-1.8-1-3.3-2.5-4.3l-52.8-30.1v-2.3l53.4,30.6h0Z"/>
        <path class="st5" d="M134.1,323.7c2.4,1.6,4,4.2,4.1,7.1v8.3c0,2.7-1.9,3.7-4.1,2.4l-53.4-30.5v-2.1l52.8,30c1.4.8,2.5.2,2.5-1.5v-7.7c0-1.8-1-3.3-2.5-4.3l-52.8-30.1v-2.3l53.4,30.6h0Z"/>
        <path class="st0" d="M80.8,293.1l74-42.4,53.3,30.5c2.4,1.6,4,4.2,4.1,7.1v8.4c0,1-.3,2.1-1.2,2.7l-73.9,42.4c.9-.6,1.3-1.6,1.2-2.7v-8.4c-.2-2.9-1.7-5.6-4.1-7.1,0,0-53.4-30.5-53.4-30.5Z"/>
        <path class="st2" d="M80.8,293.1l74-42.4,53.3,30.5c2.4,1.6,4,4.2,4.1,7.1v8.4c0,1-.3,2.1-1.2,2.7l-73.9,42.4c.9-.6,1.3-1.6,1.2-2.7v-8.4c-.2-2.9-1.7-5.6-4.1-7.1,0,0-53.4-30.5-53.4-30.5Z"/>
        <path class="st0" d="M137.1,326.7c.7,1.2,1.1,2.6,1.2,4v8.3c0,1-.3,2.1-1.2,2.7l73.9-42.4c.9-.6,1.3-1.6,1.2-2.7v-8.3c0-1.5-.5-2.8-1.2-4l-73.9,42.4Z"/>
        <path class="st4" d="M137.1,326.7c.7,1.2,1.1,2.6,1.2,4v8.3c0,1-.3,2.1-1.2,2.7l73.9-42.4c.9-.6,1.3-1.6,1.2-2.7v-8.3c0-1.5-.5-2.8-1.2-4l-73.9,42.4Z"/>
        <path class="st3" d="M201.2,289.9c1.4,5.8,1.3,10.9,0,15.2l-3.4,2c1.3-4.3,1.4-9.3,0-15.2l3.4-2Z"/>
        <path class="st3" d="M152.2,318.3c1.4,5.8,1.3,10.9,0,15.2l-3.4,2c1.3-4.3,1.4-9.3,0-15.2l3.4-2Z"/>
      </g>
    </g>
    <g id="freepik--character--inject-21">
      <g id="freepik--bottom--inject-21">
        <path class="st23" d="M167.7,328.6s-5.6,8.6-6.6,12.1c-1.1,3.7-2.3,4.8-2.7,9v3.6c0,.6-.5,1.1-1,1.1h-.2c-1.8,0-3.9-3.7-4.4-7.4-.5-4.2-.6-8.4-.6-12.6.2-1,.6-1.8,1.1-2.5.3-.4.7-.8,1.1-1.2,1-1.5,1.9-4.6,2.9-6.7l10.4,4.5h0Z"/>
        <path class="st15" d="M148,337.2c-.3.3-.6.7-.7,1.1-.2.7,1,3.6,1.5,4.7.6,1.5.8,3.1.2,4.6-.6,2.5-.2,5.1,1,7.3,1.6,3.1,4.1,5.7,7.2,7.3,3.8,2.2,5.7.5,5.7.5,0,0,1.7-1.6,1.1-2.6s-16.1-22.9-16.1-22.9h.1Z"/>
        <path class="st1" d="M154.4,330.8s-.3,0-.7.2c-.2,0-1.3,1.8-2.2,2.6s-2.9,2.3-3.5,3.7c.2,3.1,2.6,5.9,2.4,8.8s-1,6.1,2.7,10.6,8,5.7,9.9,5.2,2.1-2.3.6-6.1c-1.6-4-1.5-11.8-1.5-11.8,0-1,.2-2.2.3-3.2.2-1,.6-2.1,1-3.1s.2-1,.2-1.5c-.2-.5-.6-.8-1-1.1-.6-.5-1.4-.9-2.1-1.2-.7-.3-1.6-.4-2.4-.2-.6.2-1,.5-1.7.6-.8,0-1.6-.2-2.1-.9-.5-.6-.6-1.5-.2-2.1.2-.2.2-.3.3-.5Z"/>
        <path class="st36" d="M151.1,353.2c1.9-1.9,4.6-2.7,7.2-1.9,4.7,1,5.7,3.7,6.1,5.2.5,1.8.6,4.9-1.5,5.4-2.3.4-4.7-.4-8-3.1s-3.9-5.7-3.9-5.7h0Z"/>
        <path class="st36" d="M155.2,339.7c.2,0,.2.2.4,0,.8-.2,4.8,0,6.5,2.4.3-.2.4-.6.2-1.2-2.3-2.2-6-2.3-6.9-2-.2,0-.4.2-.3.5h0q0,.2.2.2h0Z"/>
        <path class="st36" d="M162,344.9c.2-.4.2-.9,0-1.3-1.9-1.5-4.3-2.1-6.7-1.8-.2,0-.4.3-.3.6h0s0,.2.2.2.2.2.4,0c.9-.2,4.7,0,6.5,2.2h0Z"/>
        <path class="st36" d="M162.5,351.5c.2-.6,0-1.2-.2-1.8-2.3-2.1-5.9-2.2-6.9-1.9-.2,0-.4.3-.3.6h0s0,.2.2.2.2.2.4,0c.9-.2,5.3-.2,6.9,2.8h0Z"/>
        <path class="st36" d="M155.2,345.6c.2,0,.2.2.4,0,.8-.2,4.7,0,6.5,2.3.2-.5.2-1,0-1.5-1.9-1.5-4.3-2.1-6.7-1.8-.2,0-.4.3-.3.6h0l.2.2v.2Z"/>
        <path class="st23" d="M169.8,342.4s-.2,8.9-.2,15.7,3.6,7.4,6.4,10.9c.6.7,2.1,2.2,2.6,2.7s.5,1.2,0,1.6c0,0-.2,0-.2.2-1.4,1.2-7,1.4-10.1-1s-5.8-7.4-7.6-9.4c-.7-.7-1.3-1.5-1.9-2.3s-.4-1.5-.4-2.3v-1.5c-.3-1.9-1.5-7.9-2-9.9l13.4-4.8h0Z"/>
        <path class="st15" d="M157,365.8v1.5c.3.7,3.1,2.5,4.1,3.1,1.5.8,2.6,2.1,3.1,3.7,1,2.4,3.1,4.3,5.5,5.6,3.3,1.6,7,2.3,10.7,1.8,4.5-.5,5.1-3.1,5.1-3.1,0,0,.4-2.4-.6-2.9s-27.9-9.6-27.9-9.6h0Z"/>
        <path class="st1" d="M158.2,356.5s-.3,0-.5.6c0,.2,0,2.3-.2,3.5s-1,3.6-.6,5.2c2.2,2.5,5.9,3.3,7.5,5.9s3.1,5.7,8.9,7.3,10.4,0,11.6-1.6.3-3.2-3.3-5.4c-3.9-2.3-8.7-9-8.7-9-.6-1-1.3-1.9-1.8-2.9-.4-1-.8-2.1-1-3.2-.2-.5-.4-1-.8-1.3-.5-.2-1-.3-1.5-.3-.9,0-1.7,0-2.6.2-.8.2-1.6.6-2.2,1.2-.4.5-.6,1-1,1.5-.6.6-1.5.8-2.3.6-.8-.2-1.4-.9-1.5-1.7v-.6h0Z"/>
        <path class="st36" d="M169.7,377.4s.2-4,4.8-6,7.2-.3,8.5.7c1.5,1.2,3.7,3.8,2.2,5.4-1.7,1.8-4.1,2.5-8.7,2.3s-6.8-2.4-6.8-2.4Z"/>
        <path class="st36" d="M164.6,363.5c.2,0,.3,0,.4-.2.6-.6,4-3.1,7-2,.2-.3,0-.7-.6-1.1-3.2-.5-6.5,1.8-7.2,2.5-.2.2-.2.5,0,.6h0c0,.2.2.2.3.2h.1Z"/>
        <path class="st36" d="M173.6,363.7c0-.5-.4-.9-.8-1.1-2.5,0-4.9.9-6.8,2.6-.2.2-.2.5,0,.6h.3c.1,0,.3,0,.4-.2.6-.6,3.8-2.8,6.8-2h.1Z"/>
        <path class="st36" d="M178.2,369c-.2-.6-.7-1-1.3-1.4-3.2-.4-6.4,1.8-7,2.6-.2.2-.2.5,0,.6h.3c.1,0,.3,0,.4-.2.5-.7,4.3-3.3,7.4-1.8l.2.2Z"/>
        <path class="st36" d="M168.3,368.5c.2,0,.3,0,.4-.2.6-.6,3.9-3,6.9-2-.2-.5-.5-1-1-1.2-2.5,0-4.9.9-6.8,2.6-.2.2-.2.5,0,.6h0c.2,0,.2.2.3.2h.2Z"/>
        <path class="st1" d="M150.9,273.8s20.1,11.3,28.1,20.8c2.8,3.4,4.6,6.3.8,14.3-2.9,6.1-7.7,12.9-12.1,20.8l-35-47.2,18.2-8.6h0Z"/>
        <path class="st15" d="M168.3,328.6c-5.5-5.7-22-37.5-22-37.5h.8c4.7-1.8,7-7.8,7-7.8.2,2.8-.6,5.7-2.5,7.8,2.4,2,8,6.8,16.6,14,1.5,1.3,4.5,3.7,4,8.1-.6,5.7-1.2,11.3-1.2,11.3l-2.7,4.1h0Z"/>
        <path class="st1" d="M150.9,273.8h0l-38.8,3.4c.4,4.6.3,11.5,3.4,16.8,4.2,7.3,7.3,7.6,17.5,13,8.9,4.8,16.6,9.4,18.6,10.6,1.5.9,1,4.4,1.1,8.4.2,4.3.5,6.7,2.3,15.9.8,4.4,1.8,8.4,1.8,8.4,0,0,7.3,1.3,13.1-1.3,0,0,.6-22.4.6-27.9s.6-9-2.7-12.8c-2.8-3.2-20.8-17.3-20.8-17.3,0,0,6.5-8.7,3.8-17.3h0Z"/>
        <path class="st15" d="M120.3,277h.6c-.2,6.1.3,10.8,4.4,15.7,3-1.7,2.5-3.6,1.6-6.8-.2-1-.6-2.1-.7-3.3-.4-2-.6-4-.6-6.1h.6c0,2,.2,4,.6,6,.2,1.2.5,2.3.7,3.2.8,3.2,1.4,5.4-1.8,7.3,1,1.1,2.2,2.3,3.4,3.2,6.3,5.2,15.3,11.3,20.6,14.9,1.9,1.3,3.4,2.3,4.1,2.8,3.1,2.3,3.1,3.5,2.7,8.9-.4,4.8,1.8,20.8,3,27.5h-.6c-1.2-6.7-3.4-22.7-3-27.5.5-5.5.3-6.4-2.4-8.5-.7-.6-2.3-1.5-4.1-2.8-5.4-3.7-14.4-9.9-20.7-15-7.8-6.1-8.6-11.7-8.4-19.5h0Z"/>
      </g>
      <g id="freepik--top--inject-2">
        <g id="freepik--Arm--inject-2">
          <path class="st23" d="M140.8,243c1.8,6.1,6.4,15.4,8.6,21.1,1.2,2.9,2.3,4,6.5,3.1s15.3-6.7,17.6-7.8,3.1-1.7,4.5-1.9c1.3,0,2.5-.6,3.4-1.6,1-1.2,1.8-2.5,2.3-3.9,1-.9,1.9-2,1.9-2.6s-.2-.7-.4-1c.4-.4.8-1,1-1.5,0-.5-.2-.9-.5-1.2,1.3-1.3,1.5-1.7,1.2-2.3s-.7-2.2-.7-2.2c1.5.2,3,.2,4.4,0,1-.2,1.9-1,2.1-2,0-.4-5.7-1.3-7.3-1.3s-1.9-.3-3,.7-4.3,2.8-4.8,3.4-.6,2.1-1.7,4.8c-.8,1.9-1.9,3.1-4.3,4-4.2,1.6-13.1,3.5-13.1,3.5,0,0-3.2-11.1-3.9-13.6-1.9-6.8-4.7-14.5-13.1-13.8l-.8,16.1h.1Z"/>
          <path class="st1" d="M141,226.5c3.6-.3,8-.5,10.9,5.7,2.9,6.1,6,18,6,18,0,0-1.4,2.3-5.9,4.4-4.4,2.1-6.4,1.4-6.4,1.4l-5.1-12.8.5-16.6h0Z"/>
          <path class="st27" d="M158.8,254.4c-2.3.6-4.3,1.7-5.8,3.4,1.2-2.2,3.1-3.9,5.5-4.8l.3,1.4h0Z"/>
          <path class="st27" d="M179.2,243.2c1.2-.2,2.3-1,3.1-1.9.7-1,1.5-2.1,1.9-1.9.6.2,1.3,1.9.2,3.5s-2.6,3.3-2.9,3.7c-.2,1-.4,1.9-.3,2.9-.2,2.1-1.6,4-3.6,4.6,1.2,0,2.3-.6,3.1-1.5,1.6-1.6,1.2-4,1.3-4.9s.2-1.2,1.4-2.6,2.5-2.8,1.9-4.8-1.5-1.5-1.9-1-2.1,3.6-4.1,4.1v-.2Z"/>
          <path class="st27" d="M186.3,241.1h-1.3l.2.5c.6,0,1.2.2,1.5.7l-.5-1.2h.1Z"/>
          <path class="st27" d="M185.8,245.5c-.4.5-1.7,1.7-1.9,2s-.8,0-1-.8c-.2-.6,0-1.2.3-1.8-.4.5-.6,1.1-.6,1.8,0,1,.6,1.3,1,1.3s1.4-1.5,2.2-2.5Z"/>
          <path class="st27" d="M185.4,248.3c-.3.3-.8.7-1.6,1.6-.5.5-.7.9-1.1.6-.5-.6-.6-1.4-.3-2s.5-.8.8-1.1l-.2-.2c-.6.6-.9,1.2-1.1,1.9-.2,1,.4,2,.9,1.9s.7-.4,1.5-1.1,1.3-1.6,1.3-1.6h-.2Z"/>
          <path class="st27" d="M182.9,250.8c-.2.2-.2.9.2,1h.8c-.2.2-.6.4-1,.2-.5-.2-.6-.9-.5-1.4h.5v.2Z"/>
        </g>
        <path class="st32" d="M151.3,242.6c-.4-10.9-4.8-15.3-10.4-16.1,0,0-6.8.6-11.1,1.1-4.2.6-8.2,1.8-12.2,3.2-2.2,1-5.2,6.3-5.7,14-.3,5.5-1.2,12.4-.6,22,.4,6.3.5,11.1,1.5,19.4,7.5,3,32.4,0,38.9-12.4-.6-1.9-.8-8.4-.7-12s.5-15.9.3-19.3h0Z"/>
        <g id="freepik--head--inject-25">
          <path class="st20" d="M128.4,222.5c-.2-3.1-2.7-6.6-3.8-9.4s-1.5-4.8-1.1-7.1c.2-1.4,1.4-3.2,2.5-3.5-.6-3.6,1.9-7,5.5-7.6h.3c1,0,2-.2,3-.5,1.2-.3,1.5-1.2,2.6-1.9,1.8-1.1,4.4-.9,5.2,1.3,1.2-1.2,2.7-1,4.2-.4,1.4.5,2.2,2,1.8,3.5,1.5-.7,3.2,0,4,1.4.2.2.2.5.2.8,0,1-.2,1.8.2,2.7.6,1,1.9,1.2,2.4.5,0,1.4-.6,2.3-2,2.1.4.8.4,1.8,0,2.7-.5,1-1.6,1.7-2.7,1.6-.2,1.5-1.4,2.8-2.8,3.3-2.3.8-4.8.8-7.3,1l-2.9.2h-1.1l-8.1,9.2h0Z"/>
          <path class="st23" d="M125.3,218.1c1,.9,2.4,1,3.6.3l-1.4,9.9c1.1,4.4,8.3,6.1,11.1,5.2s2.7-2.5,1.2-5.1l.4-1.6c1.2.2,2.4.2,3.6.2,2.4,0,4.4-1.8,5.4-4.2,1.1-3.2,1.7-6.6,1.5-10.1,0-.8,0-1.7.2-2.5.4-1.8.3-3.6,0-5.4-2.3-2.4-8.3-3.9-14.3-1.1.2,3.4-1.4,5.9-4,6.9,0,.9-.2,3.2-1.6,3-1-.2-1-1.5-1.9-2.8s-3.5-1.9-4.7-.3c-1.7,2.4-1.3,5.7.9,7.7h0Z"/>
          <path class="st15" d="M135.9,209.3l-7.3,1.1c.4.3.7.8.9,1.3l6.4-.7v-1.7h0Z"/>
          <path class="st1" d="M152.6,209.3c-1.7-.3-3.5-.2-5.2,0-1.5.5-2.1,1-2.9,1s-1.5-.6-3.1-1c-1.9-.3-3.7-.4-5.6,0-.4,0-.6.5-.6.9,0,.7.5.8.6,1.4.2,2.2.4,4.7,3.2,4.8,5.2.2,3.6-5,5.6-4.7.7.2.6,1.5,1,2.5.2.4.4.8.6,1.1.6.7,1.6,1.1,2.6,1,1.4,0,2.6-.7,3.1-1.9.3-.9.5-1.9.6-2.8.2-.5.6-.6.6-1.4s-.3-.8-.6-.9h0ZM142.5,213.2c-.2.6-.4,1-.8,1.5h0c-1.2,1.4-4.4,1.1-4.8-.9h0v-.3h0c-.2-.8-.4-2.6,0-3.1.8-.8,4.6-.7,5.7.6.2.7.2,1.5,0,2.3h0ZM151.7,212.9c0,1-.6,1.9-1.5,2.4-1.1.6-3.1,0-3.5-.9-.6-1-.7-2.3-.3-3.5.7-.6,1.6-1,2.6-1,1-.2,1.9,0,2.8.5.2.3,0,1.8,0,2.5h-.1Z"/>
          <path class="st27" d="M147.8,217l-3.8,1.5-.6-5.6c.2-.7.5-1.3,1.1-1.2l.2.2s.2.3.4.5c.2.3.5.6.6,1,.3.6.6,1.1,1,1.8l.5.9v.2l.5.7h.1Z"/>
          <path class="st27" d="M140.2,226.9c-3.7-.9-6.5-1.6-8.2-4.6-.7-1.5-1.3-3.1-1.7-4.7,0,1.9.3,3.9,1,5.7.7,1.9,2.7,3.6,8.6,4.8l.2-1.3h0Z"/>
          <path class="st15" d="M140.6,212.7c0,.6-.6,1-1.1,1h0c-.6,0-1-.6-1-1.1s.6-1,1.1-1,1,.5,1,1.1h0Z"/>
          <path class="st15" d="M140.5,207.8l-2.6.6c-.2-.7.3-1.5,1-1.6.7-.2,1.4.3,1.5,1h.1Z"/>
          <path class="st27" d="M139.4,218.9l3.4,1.5c-.4,1-1.5,1.4-2.5,1-.9-.4-1.3-1.5-.9-2.4h0Z"/>
          <path class="st21" d="M141.3,221.4c0-1.1-1-2-2-2.1-.2.8.3,1.6,1,1.9.3.2.6.2,1,.2h0Z"/>
          <path class="st15" d="M150.1,208.9l-2.6-.6c.2-.6.8-1.1,1.5-1h0c.7.2,1.1,1,1,1.7h.1Z"/>
          <path class="st15" d="M148.8,213c0,.6-.6,1-1.3.8s-1-.6-.8-1.3c0-.6.6-.9,1.2-.8.6,0,1,.6.9,1.3h0Z"/>
        </g>
        <g id="freepik--Laptop--inject-2">
          <path class="st24" d="M184.7,287.5v.5c0,.7-.4,1.4-1,1.8l-35.5,20.1c-.3.2-.6.2-1,.2s-.7,0-1-.2l-19.2-11.2c-.6-.4-1-1-1-1.8v-.7h0s0,.2.2.2l21.1,12.4,37.5-21.3h-.1Z"/>
          <path class="st8" d="M147.1,308.8v1.4c.3,0,.7,0,1-.2l35.5-20.1c.6-.3,1-1,1-1.8v-.5l-37.5,21.2Z"/>
          <path class="st17" d="M126.1,296.3v-.2h0l36.6-20.8c.2,0,.4-.2.6-.2s.4,0,.6.2l20.8,12.2-37.4,21.2-21.1-12.4h-.1Z"/>
          <path class="st24" d="M163.2,275.2c.2,0,.3,0,.5.2l20.7,12.1-37.2,21.1-21-12.4h0v-.2l36.6-20.8h.5M163.2,275.1c-.2,0-.5,0-.6.2l-36.5,20.8c-.2,0-.2.2,0,.3h0l21.1,12.4,37.5-21.3-20.9-12.3c-.2,0-.3,0-.6-.2h0Z"/>
          <polygon class="st33" points="146.9 307 135.7 300.4 168.9 281.6 180.2 288.1 146.9 307"/>
          <polygon class="st24" points="180.2 288.1 179.8 288.4 168.9 282.1 136.1 300.7 135.7 300.4 168.9 281.6 180.2 288.1"/>
          <polygon class="st24" points="141.5 288.8 141.7 288.9 147.2 292.2 157.2 286.6 157.4 286.4 151.7 283.1 141.5 288.8"/>
          <polygon class="st33" points="141.7 288.9 147.2 292.2 157.2 286.6 151.7 283.3 141.7 288.9"/>
          <g id="freepik--arm--inject-2">
            <path class="st23" d="M99.4,266.1c2.7-8.7,5.2-17.1,7.8-23.7,1.4-3.6,2.3-8.6,10.3-10.9,4.7,4,2.3,14.3,1.4,16.9l-6.2,20s1.3,1.8,5.7,6.6c3.8,4.1,5.7,5.7,10.2,6.5s4.9.6,7.3,1.9c1.2.6,4,2.2,4.9,2.8s2.6,2.5,4.1,3.9-.6,1.9-1.7,1.5c-1.2-.6-2.3-1.2-3.4-2-1-.6-1.9-1-3-1.5.2,1.2.3,2.4.3,3.6s0,1.5-.6,1.9c-.5.2-.9.4-1.5.4,0,.2-.2.5-.3.6-.3.2-.8.3-1.2.2-.2,0-.4,0-.6-.2,0,.4-.4.7-.8.9-1,.2-1.9.2-2.8-.2-.2,0-1.1-.7-1.5-.9-.4-.2-.8-.4-1-.7s.5-1.1,1-1.1,1.2,0,1.8.2c-.2-.5-.3-1-.4-1.6-.4-.8-4-.3-7-1.1-2.3-.6-3.9-2.9-4.8-3.6-4.7-3.1-9.2-6.5-13.5-10.2-5.7-5-5.9-5.8-4.4-10.5v.3Z"/>
            <path class="st27" d="M135.8,286c.3.6.6,1.4.8,2.1l.6.2c-.2-1-.7-2.1-1.4-2.3h0ZM133.7,286.6c.2.2.3.5.5.8,0,.3.2.6.2.9.2.6.2,1.2.2,1.9s0,1.3.2,1.9,0,1.3,0,1.9c.2-.6.2-1.3.2-1.9v-1.9c0-.6-.2-1.3-.3-1.9-.2-.6-.6-1.1-1-1.6h0ZM132.5,289c0-.6-.4-1.2-.8-1.7.2.2.3.6.3.9s.2.6.2.9c0,.6.2,1.2.2,1.9.2,1.2.2,2.5.3,3.8.2-.6.2-1.3.2-1.9v-1.9c0-.6-.2-1.2-.3-1.9h0ZM127.8,292.7c.2,0,.6,0,.8.2s.4.2.6.3v.2s0,.2.2.3c.2.2.3.3.5.4,0-.2-.2-.3-.2-.5v-.6h-.2c-.2-.2-.5-.2-.7-.3h-1Z"/>
            <path class="st1" d="M117.6,231c-4.2,1.4-7.5,2.3-9.7,8-2.6,6.9-5.9,17.4-5.9,17.4,0,0,1,2.8,6.1,4.4s7.3.3,7.3.3c0,0,3-8.7,4.2-12.4s3.3-14.2-2-17.7h0Z"/>
          </g>
          <path class="st15" d="M147.7,309.1c.6.2,1.5.2,2.1-.2l35.4-20c.6-.3,1-1,1.2-1.7l4-22.9v-.4c0-.6-.2-1.3-.7-1.7l-36.7,20.8c-.5.2-.8.7-.9,1.2l-4.4,24.9h0Z"/>
          <path class="st32" d="M147.1,308.8l.2.2s.2.2.3.2l4.4-24.9c0-.5.4-1,.9-1.2l36.7-20.8c-.2-.2-.3-.2-.5-.4l-36.8,20.9c-.5.2-.8.7-.9,1.2l-4.4,24.9h.1Z"/>
          <path class="st1" d="M152.4,283.5l-.6-.3c-.2.2-.3.5-.3.7l-4.4,24.9.2.2s.2.2.3.2l4.4-24.9c0-.2.2-.5.3-.7h.1Z"/>
          <path class="st0" d="M167.7,288.1c.2-1.5,1.9-3.6,3.6-4.5s2.9-.5,2.6,1-1.9,3.6-3.6,4.5-2.9.5-2.6-1Z"/>
        </g>
      </g>
    </g>
  </g>
  <g>
    <path class="st3" d="M350.2,178.9v-10.2c0-1.4,0-1.5,1.2-.7.3.2.7.5,1.1.6.9.3,1,.9,1,1.8v20.2c0,.2-.5.4-.6.3-1-.6-2.2-1-3-1.9-.6-.6-.8-1.7-1-2.6-1.5-4.7-2.8-9.4-4.3-14.1q0-.2-.2-.3v12.5c0,1-.2,1.2-1.1.7-1.5-.8-2.2-2-2.2-3.7v-18.8c0-.4.2-.6.7-.3,1.1.6,2.3,1.3,3.5,2,.4.3.8.8,1,1.4,1,3.1,1.9,6.2,2.8,9.3.3,1,.6,2.1.9,3.2,0,.2.2.5.2.7h0Z"/>
    <path class="st3" d="M313.9,154.4v12.8c0,.9-.2,1-1,.6-2.9-1.8-2.3-.9-2.4-4.3v-18.8c.3,0,.6.2.8.2,1.1.6,2.3,1.3,3.4,2,.3.2.6.6.8,1,1,3.2,1.9,6.5,2.8,9.6.4,1.3.8,2.7,1.2,4h.2v-10.3c0-.3,0-.6.2-1,.3,0,.7,0,1,.2,2.6,1.5,2.2.8,2.2,3.8v18c0,1.2-.2,1.3-1.2.7-.6-.3-1.2-.7-1.8-1-1-.5-1.3-1.4-1.5-2.3-1.4-4.8-2.8-9.6-4.3-14.4,0-.3-.2-.6-.3-.9h-.2,0Z"/>
    <path class="st3" d="M295,135.4c1.3.7,2.3,1.2,3.4,1.9,1.5,1,3.1,1.9,4.7,2.9,1.9,1.1,2.7,3.1,3.6,4.9.8,1.8.6,3.6.6,5.5s-.6,1.9-1.6,2.5c-.6.3-.6.6-.5,1.3.7,2.4,1.5,4.8,2.2,7.3.2.6.4,1.2.6,1.9,0,.3,0,.7.2,1h-.3c-1.3-.8-2.7-1.5-4-2.3-.3-.2-.5-.6-.6-1-.7-2.7-1.5-5.5-2.1-8.2-.2-.9-.9-1.2-1.8-1.5-.3,2.7,0,5.3-.2,8-.3,0-.5,0-.6-.2-.9-.6-1.8-1.1-2.7-1.6-.6-.3-.8-.8-.8-1.5v-20.8h-.1ZM299.2,141.8v3.1c0,2.3.2,2.7,2.3,3.4.8.3,1.3,0,1.5-.7.5-2.4-1-5-3.7-5.8h0Z"/>
    <path class="st3" d="M331.5,169.4c-.4,1.6-.6,3.1,0,4.5.3.6,1.3,1,2,1.5,1.5.9,3,1.7,4.4,2.7.2.2.6.6.6.8v2.8c0,.9-.2.8-.8.5-3.3-1.9-6.6-3.8-9.9-5.7-.6-.3-.9-.8-.8-1.5v-19.5c0-1.2.2-1.4,1.3-.7,2,1.1,4,2.3,5.9,3.4,1.2.7,2.4,1.4,3.6,2.2.2.2.6.4.6.6v3.9c-2.4-1.4-4.6-2.7-7.1-4v2.3c-.3,1.7.6,2.7,2,3.3,1,.5,1.9,1,2.8,1.7.3.2.6.7.6,1.1v2.2c0,.7-.2,1-1,.6-1.3-.7-2.6-1.5-3.9-2.2,0-.2-.2-.2-.6-.4h.3Z"/>
    <path class="st3" d="M281,127.3c1.5.9,3,1.7,4.4,2.5,2,1.2,4,2.4,6.1,3.6.6.3.8.8.7,1.5v2.1c0,.7-.2.9-.9.5-1.7-1-3.4-1.9-5.1-2.9-.3-.2-.6-.3-1.2-.6v2.5c-.2,1.4.3,2.3,1.6,2.8,1.1.6,2.3,1.2,3.3,1.9.3.2.6.6.6,1v2.4c0,.8-.2.9-1,.5-1.1-.6-2.3-1.3-3.4-1.9-.3-.2-.6-.3-1.1-.5v4.3c0,.4.6.7,1,1,1.7,1,3.5,2,5.2,3,.6.3.9.7.9,1.4v2.4c0,.7-.2.9-.9.5-2.7-1.5-5.3-3.1-8-4.6-.6-.4-1.3-.8-1.9-1.1-.5-.2-.7-.6-.7-1.2v-20c0-.2.2-.5.2-.9l.2-.2Z"/>
    <path class="st3" d="M268.7,120.1c1.3.8,2.6,1.5,3.8,2.3.2.2.2.6.2,1v14.6c0,1.3.3,2.2,1.5,2.7,1.3.6,2.5,1.5,3.7,2.2.6.3.7.7.7,1.4v2.5c0,.7-.2.9-.9.5-2.3-1.4-4.6-2.8-7-4s-2.7-2-2.3-4v-2.2c0-5.2,0-10.5-.2-15.7v-1q.2,0,.3-.2h.2Z"/>
  </g>
  <g>
    <g>
      <path class="st24" d="M136.2,115.7c-1.3-.9-1.9-2.3-2-4h5c0,.6.2,1,.5,1.3s.7.4,1.2.4.8-.1,1.1-.3c.3-.2.4-.5.4-.9s-.2-.9-.7-1.1c-.5-.3-1.2-.6-2.2-.9-1.1-.4-2-.7-2.7-1.1-.7-.3-1.3-.8-1.8-1.5-.5-.7-.8-1.5-.8-2.6s.3-2,.8-2.8c.5-.8,1.3-1.4,2.2-1.8,1-.4,2-.6,3.2-.6,2,0,3.5.5,4.7,1.4,1.2.9,1.8,2.2,1.9,3.9h-5.1c0-.5-.2-.9-.5-1.1-.3-.3-.7-.4-1.1-.4s-.6.1-.9.3c-.2.2-.3.5-.3.9s.1.6.4.8c.2.2.6.4.9.6.4.2.9.4,1.6.6,1.1.4,1.9.7,2.6,1.1.7.4,1.3.9,1.8,1.5s.8,1.5.8,2.4-.3,1.9-.8,2.7c-.5.8-1.2,1.4-2.2,1.9-.9.5-2.1.7-3.4.7-2,0-3.6-.5-4.8-1.4Z"/>
      <path class="st24" d="M150,104.1c.7-1.3,1.7-2.3,2.9-3,1.3-.7,2.7-1.1,4.4-1.1s3.9.6,5.3,1.7c1.4,1.1,2.4,2.6,2.8,4.6h-5c-.3-.6-.7-1.1-1.3-1.5-.5-.3-1.2-.5-1.9-.5-1.1,0-1.9.4-2.6,1.2-.6.8-1,1.8-1,3.1s.3,2.3,1,3.1c.6.8,1.5,1.2,2.6,1.2s1.3-.2,1.9-.5c.5-.3,1-.8,1.3-1.5h5c-.4,1.9-1.3,3.5-2.8,4.6-1.4,1.1-3.2,1.7-5.3,1.7s-3.1-.4-4.4-1.1c-1.3-.7-2.3-1.7-2.9-3-.7-1.3-1-2.8-1-4.5s.3-3.1,1-4.4Z"/>
      <path class="st24" d="M182.7,100.1v16.8h-4.7v-6.8h-5.7v6.8h-4.7v-16.8h4.7v6.3h5.7v-6.3h4.7Z"/>
      <path class="st24" d="M190,100.1v9.8c0,.9.2,1.6.6,2.1.4.5,1.1.7,1.9.7s1.5-.3,1.9-.8c.4-.5.7-1.2.7-2.1v-9.8h4.7v9.8c0,1.5-.3,2.9-1,4-.7,1.1-1.5,1.9-2.7,2.5-1.1.5-2.4.8-3.7.8s-2.6-.3-3.7-.8c-1.1-.5-1.9-1.4-2.5-2.4s-.9-2.4-.9-4v-9.8h4.7Z"/>
      <path class="st24" d="M207.1,113.4h5.2v3.6h-9.9v-16.8h4.7v13.3Z"/>
      <path class="st24" d="M218.8,103.9v2.7h5.4v3.6h-5.4v3h6.1v3.8h-10.8v-16.8h10.8v3.8h-6.1Z"/>
    </g>
    <g class="st29">
      <path class="st24" d="M137.1,116.5c-1.3-.9-1.9-2.3-2-4h5c0,.6.2,1,.5,1.3s.7.4,1.2.4.8-.1,1.1-.3c.3-.2.4-.5.4-.9s-.2-.9-.7-1.1c-.5-.3-1.2-.6-2.2-.9-1.1-.4-2-.7-2.7-1.1-.7-.3-1.3-.8-1.8-1.5-.5-.7-.8-1.5-.8-2.6s.3-2,.8-2.8c.5-.8,1.3-1.4,2.2-1.8,1-.4,2-.6,3.2-.6,2,0,3.5.5,4.7,1.4,1.2.9,1.8,2.2,1.9,3.9h-5.1c0-.5-.2-.9-.5-1.1-.3-.3-.7-.4-1.1-.4s-.6.1-.9.3c-.2.2-.3.5-.3.9s.1.6.4.8c.2.2.6.4.9.6.4.2.9.4,1.6.6,1.1.4,1.9.7,2.6,1.1.7.4,1.3.9,1.8,1.5s.8,1.5.8,2.4-.3,1.9-.8,2.7c-.5.8-1.2,1.4-2.2,1.9-.9.5-2.1.7-3.4.7-2,0-3.6-.5-4.8-1.4Z"/>
      <path class="st24" d="M150.8,104.9c.7-1.3,1.7-2.3,2.9-3,1.3-.7,2.7-1.1,4.4-1.1s3.9.6,5.3,1.7c1.4,1.1,2.4,2.6,2.8,4.6h-5c-.3-.6-.7-1.1-1.3-1.5-.5-.3-1.2-.5-1.9-.5-1.1,0-1.9.4-2.6,1.2-.6.8-1,1.8-1,3.1s.3,2.3,1,3.1c.6.8,1.5,1.2,2.6,1.2s1.3-.2,1.9-.5c.5-.3,1-.8,1.3-1.5h5c-.4,1.9-1.3,3.5-2.8,4.6-1.4,1.1-3.2,1.7-5.3,1.7s-3.1-.4-4.4-1.1c-1.3-.7-2.3-1.7-2.9-3-.7-1.3-1-2.8-1-4.5s.3-3.1,1-4.4Z"/>
      <path class="st24" d="M183.5,100.9v16.8h-4.7v-6.8h-5.7v6.8h-4.7v-16.8h4.7v6.3h5.7v-6.3h4.7Z"/>
      <path class="st24" d="M190.8,100.9v9.8c0,.9.2,1.6.6,2.1.4.5,1.1.7,1.9.7s1.5-.3,1.9-.8c.4-.5.7-1.2.7-2.1v-9.8h4.7v9.8c0,1.5-.3,2.9-1,4-.7,1.1-1.5,1.9-2.7,2.5-1.1.5-2.4.8-3.7.8s-2.6-.3-3.7-.8c-1.1-.5-1.9-1.4-2.5-2.4s-.9-2.4-.9-4v-9.8h4.7Z"/>
      <path class="st24" d="M207.9,114.2h5.2v3.6h-9.9v-16.8h4.7v13.3Z"/>
      <path class="st24" d="M219.6,104.7v2.7h5.4v3.6h-5.4v3h6.1v3.8h-10.8v-16.8h10.8v3.8h-6.1Z"/>
    </g>
  </g>
</svg>