<?xml version="1.0" encoding="UTF-8"?>
<svg id="Layer_1" xmlns="http://www.w3.org/2000/svg" version="1.1" viewBox="0 0 500 500">
  <!-- Generator: Adobe Illustrator 29.1.0, SVG Export Plug-In . SVG Version: 2.1.0 Build 142)  -->
  <defs>
    <style>
      .st0 {
        fill: #004a99;
      }

      .st1 {
        fill: #37474f;
      }

      .st2 {
        opacity: .9;
      }

      .st2, .st3, .st4, .st5, .st6, .st7 {
        fill: #fff;
      }

      .st2, .st4, .st5, .st8, .st9, .st10, .st11, .st12, .st6, .st13, .st7 {
        isolation: isolate;
      }

      .st14 {
        fill: #b16668;
      }

      .st15 {
        fill: #263238;
      }

      .st16 {
        fill: #9a4a4d;
      }

      .st17 {
        fill: #f0f0f0;
      }

      .st4, .st13 {
        opacity: .6;
      }

      .st18, .st5, .st9 {
        opacity: .4;
      }

      .st19, .st11, .st6 {
        opacity: .2;
      }

      .st20 {
        fill: #5a5e5f;
      }

      .st21 {
        fill: #ffa8a7;
      }

      .st22 {
        fill: #f28f8f;
      }

      .st23 {
        fill: #c8856a;
      }

      .st24 {
        fill: #e0e0e0;
      }

      .st25 {
        fill: #006491;
      }

      .st8, .st26 {
        opacity: .1;
      }

      .st27 {
        fill: #af6152;
      }

      .st28, .st10 {
        opacity: .3;
      }

      .st12, .st29 {
        opacity: .5;
      }

      .st30 {
        fill: #ab0712;
      }

      .st31 {
        fill: #f0997a;
      }

      .st32 {
        fill: #455a64;
      }

      .st33 {
        fill: #ebebeb;
      }

      .st34 {
        fill: #f5f5f5;
      }

      .st35 {
        fill: #ffbda7;
      }

      .st36 {
        fill: #fafafa;
      }

      .st7 {
        opacity: .8;
      }

      .st37 {
        fill: #e6e6e6;
      }
    </style>
  </defs>
  <g id="freepik--freepik--high-school-building--inject-76--inject-90">
    <rect class="st34" x="16.4" y="112.2" width="466" height="130.8"/>
    <rect class="st34" x="139.8" y="98.3" width="220.5" height="146.1"/>
    <rect class="st33" x="16.4" y="204.3" width="157.7" height="13"/>
    <rect class="st33" x="326" y="204.3" width="156.4" height="13"/>
    <g class="st28">
      <rect class="st24" x="163.3" y="154.5" width="173.7" height="88.6"/>
    </g>
    <g class="st28">
      <path class="st24" d="M224.5,138.9c-.6-.1-1.2-.4-1.7-.7l.9-2c1,.6,2,1,3.1,1s1.6-.2,1.6-.7-.1-.5-.5-.6c-.5-.1-1-.4-1.4-.4-.6-.1-1.2-.2-1.7-.5-.5-.1-.9-.5-1.2-.9-.4-.5-.5-1-.5-1.6s.1-1.1.5-1.6c.4-.5.9-.9,1.4-1.1.7-.2,1.5-.5,2.4-.4.6,0,1.2,0,1.9.2.6.1,1.1.4,1.6.6l-.9,2c-.7-.5-1.7-.7-2.6-.7s-.9,0-1.1.2c-.2,0-.4.4-.4.6s.1.5.5.6c.5.1,1,.2,1.4.4.6.1,1.2.2,1.9.5.5.1.9.5,1.2.9.4.5.5,1,.5,1.6s-.1,1.1-.5,1.5c-.4.5-.9.9-1.4,1.1-.7.2-1.5.4-2.4.4s-1.5-.1-2.2-.4h-.2Z"/>
      <path class="st24" d="M234.3,138.6c-.7-.4-1.4-1-1.9-1.7-.9-1.6-.9-3.5,0-5.1.5-.7,1.1-1.4,1.9-1.7,1.6-.7,3.5-.9,5.1-.1.6.2,1.2.7,1.7,1.4l-1.7,1.5c-.5-.7-1.4-1.1-2.2-1.1s-1,0-1.4.4c-.4.2-.7.6-1,1-.4.9-.4,2,0,2.9.2.4.5.7,1,1,1.2.6,2.7.4,3.6-.7l1.7,1.5c-.5.6-1.1,1-1.7,1.4-1.6.6-3.5.6-5.1-.1h0v-.2h0Z"/>
      <path class="st24" d="M251.4,129.5v9.6h-2.7v-3.7h-3.7v3.7h-2.7v-9.6h2.7v3.6h3.7v-3.6h2.7Z"/>
      <path class="st24" d="M255.3,138.6c-2.4-1.2-3.4-4.2-2.1-6.6.5-.9,1.2-1.6,2.1-2.1,1.7-.9,3.7-.9,5.5,0,2.4,1.2,3.4,4.2,2.1,6.6h0c-.5.9-1.1,1.6-2.1,2.1-1.7.9-3.7.9-5.5,0h0ZM259.4,136.7c.4-.2.7-.5,1-1,.5-.9.5-2,0-2.9-.2-.4-.5-.7-.9-1-.9-.5-1.9-.5-2.6,0s-.7.6-1,1c-.5.9-.5,2,0,2.9.2.4.5.7,1,1,.7.5,1.7.5,2.6,0h-.1Z"/>
      <path class="st24" d="M266.9,138.6c-2.4-1.2-3.4-4.2-2-6.6.5-.9,1.1-1.6,2-2,1.7-.9,3.7-.9,5.5,0,2.4,1.2,3.4,4.2,2,6.6-.5.9-1.1,1.6-2,2-1.7.9-3.7.9-5.5,0ZM271,136.7c.4-.2.7-.5,1-1,.5-.9.5-2,0-2.9-.2-.4-.5-.7-1-1-.9-.5-1.7-.5-2.6,0-.4.2-.7.6-.9,1-.5.9-.5,2,0,2.9.2.4.5.7.9,1,.9.5,1.7.5,2.6,0Z"/>
      <path class="st24" d="M276.3,129.5h2.7v7.5h4.6v2.1h-7.2v-9.6h-.1Z"/>
    </g>
    <path class="st24" d="M223.8,138.2c-.6-.1-1.2-.4-1.7-.7l.9-2c1,.6,2,.9,3.1,1,1,0,1.5-.2,1.5-.7s-.1-.5-.5-.6c-.5-.1-.9-.4-1.4-.4s-1.2-.2-1.7-.5c-.5-.1-.9-.5-1.2-.9-.4-.5-.5-1-.5-1.6s.1-1.1.5-1.6c.4-.5.9-.9,1.4-1.1.7-.2,1.5-.4,2.4-.4s1.2,0,1.9.2c.6,0,1.1.4,1.6.6l-.9,2c-.7-.5-1.7-.7-2.6-.7s-.9,0-1.1.2c-.2.1-.4.4-.4.6s.1.5.4.6c.5.1,1,.2,1.4.4.6.1,1.2.2,1.7.5.5.1.9.5,1.2.9.4.5.6,1,.5,1.6,0,.5-.1,1.1-.5,1.6-.4.5-.9.9-1.4,1.1-.7.2-1.5.4-2.4.4s-1.5-.1-2.2-.4h.1Z"/>
    <path class="st24" d="M233.6,137.8c-.7-.4-1.4-1-1.9-1.7-.9-1.6-.9-3.5,0-5.1.5-.7,1.1-1.4,1.9-1.7,1.6-.7,3.4-.9,5.1-.1.7.2,1.2.7,1.7,1.4l-1.7,1.6c-.9-1.1-2.4-1.4-3.6-.7-.4.2-.7.5-1,1-.5.9-.5,2,0,2.9.2.4.5.7,1,1,1.2.7,2.7.4,3.6-.7l1.7,1.6c-.5.6-1.1,1-1.7,1.4-.7.4-1.5.5-2.4.5s-1.9-.2-2.7-.7v-.4h0Z"/>
    <path class="st24" d="M250.6,128.7v9.6h-2.7v-3.7h-3.7v3.7h-2.7v-9.6h2.7v3.6h3.7v-3.6h2.7Z"/>
    <path class="st24" d="M254.7,137.8c-2.4-1.2-3.4-4.2-2.1-6.6h0c.5-.9,1.2-1.6,2.1-2.1,1.7-.9,3.7-.9,5.5,0,2.4,1.2,3.4,4.2,2.1,6.6-.5.9-1.2,1.6-2.1,2.1-1.7.9-3.7.9-5.5,0h0ZM258.7,136c.4-.2.7-.5,1-1,.5-.9.5-2,0-2.9-.2-.4-.5-.7-.9-1-.4-.2-.9-.4-1.4-.4s-.9,0-1.4.4c-.4.2-.7.6-.9,1-.2.4-.4.9-.4,1.4s0,1,.4,1.4c.2.4.5.7.9,1,.9.5,1.9.5,2.6,0h0Z"/>
    <path class="st24" d="M266.1,137.8c-2.4-1.2-3.4-4.2-2-6.6.5-.9,1.1-1.6,2-2,1.7-.9,3.7-.9,5.5,0,2.4,1.2,3.4,4.2,2,6.6-.5.9-1.1,1.6-2,2-1.7.9-3.7.9-5.5,0ZM270.2,136c.4-.2.7-.5.9-1,.5-.9.5-2,0-2.9-.2-.4-.5-.7-.9-1-.9-.5-1.9-.5-2.6,0-.4.2-.7.5-.9,1-.5.9-.5,2,0,2.9.2.4.5.7.9,1,.9.5,1.9.5,2.6,0Z"/>
    <path class="st24" d="M275.6,128.7h2.7v7.5h4.6v2.1h-7.2v-9.6h-.1Z"/>
    <rect class="st24" x="132.3" y="91" width="232.6" height="7.3"/>
    <rect class="st24" x="174.1" y="162.8" width="154.1" height="80.3"/>
    <rect class="st33" x="278.2" y="185.5" width="47.5" height="55.5"/>
    <path class="st24" d="M301.9,242.3s-.1-12.9-.1-28.8,0-28.8.1-28.8.1,12.9.1,28.8,0,28.8-.1,28.8Z"/>
    <rect class="st33" x="176.8" y="185.5" width="47.5" height="55.5"/>
    <path class="st24" d="M200.5,242.3s-.1-12.9-.1-28.8,0-28.8.1-28.8.1,12.9.1,28.8,0,28.8-.1,28.8Z"/>
    <rect class="st24" x="196.4" y="208.1" width="2.9" height="10.4"/>
    <rect class="st24" x="202.2" y="208.1" width="2.9" height="10.4"/>
    <rect class="st33" x="177.2" y="166.4" width="47.5" height="15.8"/>
    <rect class="st33" x="227.5" y="166.4" width="47.5" height="15.8"/>
    <rect class="st33" x="277.8" y="166.4" width="47.5" height="15.8"/>
    <g class="st19">
      <polygon class="st3" points="325.6 200.2 278.2 221.8 278.2 226.9 325.6 204.4 325.6 200.2"/>
    </g>
    <g class="st19">
      <polygon class="st3" points="325.3 208.4 277.8 229.9 277.8 233.1 325.3 211.2 325.3 208.4"/>
    </g>
    <rect class="st33" x="227.5" y="185.5" width="47.5" height="55.5"/>
    <g class="st19">
      <polygon class="st3" points="275 185.5 227.5 207 227.5 217.3 275 194.2 275 185.5"/>
    </g>
    <g class="st19">
      <polygon class="st3" points="275 197.6 227.5 219.2 227.5 222.3 275 200.6 275 197.6"/>
    </g>
    <path class="st24" d="M251.2,242.3s-.1-12.9-.1-28.8,0-28.8.1-28.8.1,12.9.1,28.8,0,28.8-.1,28.8Z"/>
    <path class="st24" d="M259.6,210.1s2-3,4.7-6.6,5-6.5,5-6.3-2,3-4.7,6.6-5,6.5-5,6.3Z"/>
    <path class="st24" d="M258.1,220.3s2.4-3.7,5.5-8.1,5.7-8,5.8-7.8-2.4,3.7-5.5,8.1-5.7,8-5.8,7.8Z"/>
    <path class="st24" d="M232.2,223.9s2.2-2.4,5.1-5.2,3.5-3.4,5.3-5c0,0-2.2,2.4-5.1,5.2s-3.5,3.4-5.3,5Z"/>
    <path class="st24" d="M229,233.1c.1-.2.4-.4.5-.6l1.6-1.5,5.2-4.8,5.1-4.8,1.5-1.5c.1-.2.4-.4.6-.5-.1.2-.4.4-.5.6-.4.4-.9.9-1.5,1.6-1.2,1.4-3,3.1-5.1,5s-3.9,3.5-5.2,4.7c-.7.6-1.2,1.1-1.6,1.4-.2.1-.4.4-.6.5h0Z"/>
    <rect class="st24" x="247.1" y="208.1" width="2.9" height="10.4"/>
    <rect class="st24" x="252.8" y="208.1" width="2.9" height="10.4"/>
    <path class="st24" d="M259.9,170.5c-.6.5-1.4,1.1-2,1.6l-5,3.7c-2,1.4-3.7,2.7-5.1,3.6-.6.5-1.2.7-1.6,1-.2.1-.4.2-.6.4.6-.5,1.4-1.1,2-1.6,1.4-1,3.1-2.2,5-3.7s3.7-2.7,5.1-3.6c.6-.5,1.2-.7,1.6-1,.1-.1.4-.2.6-.4h0Z"/>
    <path class="st24" d="M251.4,173.3c-1.5,1.2-3,2.4-4.5,3.5-1.5,1.1-3.1,2.2-4.7,3.1,1.5-1.2,3-2.4,4.5-3.5,1.5-1.1,3.1-2.2,4.7-3.1Z"/>
    <path class="st24" d="M209.7,168c-.6.6-1.4,1.1-2,1.5l-5,3.7c-2,1.4-3.7,2.7-5.1,3.6-.6.5-1.2.7-1.6,1-.2.1-.4.2-.6.4.6-.5,1.4-1.1,2-1.5l5-3.7c2-1.4,3.7-2.7,5.1-3.6.6-.5,1.2-.7,1.6-1,.2-.1.4-.2.6-.4Z"/>
    <path class="st24" d="M201.2,170.7c-1.5,1.2-3,2.4-4.5,3.5-1.5,1.1-3.1,2.2-4.7,3.1,3-2.4,6.1-4.6,9.3-6.6h-.1Z"/>
    <path class="st24" d="M315.8,169.2c-.6.6-1.4,1.1-2.1,1.6l-5,3.7c-2,1.4-3.7,2.7-5.1,3.6-.6.5-1.2.7-1.6,1-.1.1-.4.2-.6.4.6-.5,1.4-1.1,2-1.5l5-3.7c2-1.4,3.7-2.7,5.1-3.6.6-.5,1.2-.7,1.6-1,.2-.1.4-.2.6-.4h.1Z"/>
    <path class="st24" d="M307.3,172c-1.5,1.2-3,2.4-4.5,3.5-1.5,1.1-3.1,2.2-4.7,3.1,1.4-1.2,3-2.4,4.5-3.5,1.5-1.1,3.1-2.2,4.7-3.1Z"/>
    <g class="st19">
      <polygon class="st3" points="218.1 185.5 199.2 185.5 177.2 195.2 177.2 204.3 218.1 185.5 218.1 185.5"/>
    </g>
    <g class="st19">
      <polygon class="st3" points="224.6 185.8 177.2 207.4 177.2 210.5 224.6 188.8 224.6 185.8"/>
    </g>
    <g class="st26">
      <rect class="st24" x="150" y="177.4" width="13.2" height="5.5"/>
    </g>
    <g class="st19">
      <rect class="st24" x="143.6" y="171.1" width="13.2" height="5.5"/>
    </g>
    <g class="st26">
      <rect class="st24" x="162.2" y="141.4" width="13.2" height="5.5"/>
    </g>
    <g class="st19">
      <rect class="st24" x="169.1" y="133.7" width="13.2" height="5.5"/>
    </g>
    <g class="st26">
      <rect class="st24" x="119.7" y="129.5" width="13.2" height="5.5"/>
    </g>
    <g class="st19">
      <rect class="st24" x="126.6" y="121.8" width="13.2" height="5.5"/>
    </g>
    <g class="st26">
      <rect class="st24" x="54.4" y="148.6" width="13.2" height="5.5"/>
    </g>
    <g class="st26">
      <rect class="st24" x="37.8" y="127.9" width="13.2" height="5.5"/>
    </g>
    <g class="st19">
      <rect class="st24" x="61.4" y="140.9" width="13.2" height="5.5"/>
    </g>
    <g class="st19">
      <rect class="st24" x="65" y="229.4" width="13.2" height="5.5"/>
    </g>
    <g class="st19">
      <rect class="st24" x="112.7" y="137.1" width="13.2" height="5.5"/>
    </g>
    <g class="st26">
      <rect class="st24" x="453" y="126.8" width="13.2" height="5.5"/>
    </g>
    <g class="st19">
      <rect class="st24" x="460.1" y="119.1" width="13.2" height="5.5"/>
    </g>
    <g class="st26">
      <rect class="st24" x="387.9" y="145.9" width="13.2" height="5.5"/>
    </g>
    <g class="st26">
      <rect class="st24" x="371.1" y="125.1" width="13.2" height="5.5"/>
    </g>
    <g class="st19">
      <rect class="st24" x="394.8" y="138.3" width="13.2" height="5.5"/>
    </g>
    <g class="st19">
      <rect class="st24" x="443.7" y="147.9" width="13.2" height="5.5"/>
    </g>
    <g class="st19">
      <rect class="st24" x="224.5" y="117.3" width="13.2" height="5.5"/>
    </g>
    <g class="st26">
      <rect class="st24" x="231.1" y="109.2" width="13.2" height="5.5"/>
    </g>
    <g class="st19">
      <rect class="st24" x="347.5" y="151.9" width="12.8" height="5.5"/>
    </g>
    <g class="st26">
      <rect class="st24" x="354.1" y="143.7" width="6.2" height="5.5"/>
    </g>
    <g class="st19">
      <rect class="st24" x="304.5" y="138.7" width="13.2" height="5.5"/>
    </g>
    <g class="st26">
      <rect class="st24" x="311.5" y="130.5" width="13.2" height="5.5"/>
    </g>
    <path class="st24" d="M139.8,242.9s-.1-32.3-.1-72.2,0-72.2.1-72.2.1,32.3.1,72.2,0,72.2-.1,72.2Z"/>
    <rect class="st24" x="297.8" y="208.1" width="2.9" height="10.4"/>
    <rect class="st24" x="303.5" y="208.1" width="2.9" height="10.4"/>
    <rect class="st33" x="82.3" y="157.6" width="51.4" height="71.4"/>
    <rect class="st24" x="87.2" y="162.8" width="41.5" height="61.2"/>
    <rect class="st33" x="90.8" y="179.9" width="34.4" height="40.3"/>
    <rect class="st33" x="90.8" y="166.4" width="34.4" height="11.3"/>
    <path class="st24" d="M108,221.3s-.1-9.1-.1-20.4,0-20.4.1-20.4.1,9.1.1,20.4,0,20.4-.1,20.4Z"/>
    <path class="st24" d="M104.5,203c-1.5,1.5-3,3-4.6,4.3-1.5,1.5-3.1,2.7-4.8,4,1.5-1.5,3-3,4.6-4.3,1.5-1.5,3.1-2.7,4.8-4.1h0Z"/>
    <path class="st24" d="M104.5,200.2c-.9,1-1.9,1.9-2.9,2.7s-2,1.7-3.1,2.5c.9-1,1.9-1.9,2.9-2.7s2-1.7,3.1-2.5Z"/>
    <path class="st24" d="M122.5,190.5c-1.6,1.5-3.2,3-5,4.3-1.6,1.5-3.4,2.9-5.2,4.1,1.6-1.5,3.2-3,5-4.3,1.6-1.5,3.4-2.9,5.2-4.1Z"/>
    <path class="st24" d="M118,196.7s-.4.6-1,1.2-1.1,1-1.2,1,.4-.6,1-1.2,1.2-1,1.2-1Z"/>
    <rect class="st33" x="25.1" y="157.6" width="51.4" height="71.4"/>
    <rect class="st24" x="30.1" y="162.8" width="41.5" height="61.2"/>
    <rect class="st33" x="33.7" y="179.9" width="34.4" height="40.3"/>
    <rect class="st33" x="33.7" y="166.4" width="34.4" height="11.3"/>
    <path class="st24" d="M50.8,221.3v-40.7,40.7Z"/>
    <path class="st24" d="M47.4,203c-1.5,1.5-3,3-4.6,4.3-1.5,1.5-3.1,2.7-4.8,4,1.5-1.5,3-3,4.6-4.3,1.5-1.5,3.2-2.9,4.8-4.1h0Z"/>
    <path class="st24" d="M47.4,200.2c-.9,1-1.9,1.9-2.9,2.7s-2,1.7-3.1,2.5c.9-1,1.9-1.9,2.9-2.7s2-1.7,3.1-2.5Z"/>
    <path class="st24" d="M65.4,190.5c-1.6,1.5-3.2,3-5,4.3-1.6,1.5-3.4,2.7-5.2,4,1.6-1.5,3.2-3,5-4.3,1.6-1.5,3.4-2.7,5.2-4Z"/>
    <path class="st24" d="M60.9,196.7s-.4.6-1,1.2-1.1,1-1.2,1,.4-.6,1-1.2,1.1-1,1.2-1Z"/>
    <rect class="st33" x="424.5" y="157.6" width="51.4" height="71.4"/>
    <rect class="st24" x="429.5" y="162.8" width="41.5" height="61.2"/>
    <rect class="st33" x="433.1" y="179.9" width="34.4" height="40.3"/>
    <rect class="st33" x="433.1" y="166.4" width="34.4" height="11.3"/>
    <path class="st24" d="M450.3,221.3s-.1-9.1-.1-20.4,0-20.4.1-20.4.1,9.1.1,20.4,0,20.4-.1,20.4Z"/>
    <path class="st24" d="M446.8,203c-1.5,1.5-3,3-4.6,4.3-1.5,1.5-3.1,2.9-4.8,4.1,1.5-1.5,3-3,4.6-4.3,1.5-1.5,3.1-2.9,4.8-4.1Z"/>
    <path class="st24" d="M446.8,200.2c-.9,1-1.9,1.9-2.9,2.7s-2,1.7-3.1,2.5c.9-1,1.9-1.9,2.9-2.7s2-1.7,3.1-2.5Z"/>
    <path class="st24" d="M464.8,190.5c-1.6,1.5-3.2,3-5,4.3-1.6,1.5-3.4,2.9-5.2,4.1,1.6-1.5,3.2-3,5-4.3,1.6-1.5,3.4-2.9,5.2-4.1Z"/>
    <path class="st24" d="M460.3,196.7s-.4.6-1,1.2-1.1,1-1.2,1,.4-.6,1-1.2,1.1-1,1.2-1Z"/>
    <rect class="st33" x="367.4" y="157.6" width="51.4" height="71.4"/>
    <rect class="st24" x="372.4" y="162.8" width="41.5" height="61.2"/>
    <rect class="st33" x="376" y="179.9" width="34.4" height="40.3"/>
    <rect class="st33" x="376" y="166.4" width="34.4" height="11.3"/>
    <path class="st24" d="M393.1,221.3s-.1-9.1-.1-20.4,0-20.4.1-20.4.1,9.1.1,20.4,0,20.4-.1,20.4Z"/>
    <path class="st24" d="M389.6,203c-1.5,1.5-3,3-4.6,4.3-1.5,1.5-3.1,2.9-4.8,4.1,1.5-1.5,3-3,4.6-4.3,1.5-1.5,3.1-2.9,4.8-4.1Z"/>
    <path class="st24" d="M389.6,200.2c-.9,1-1.9,1.9-2.9,2.7s-2,1.7-3.1,2.5c.9-1,1.9-1.9,2.9-2.7s2-1.7,3.1-2.5Z"/>
    <path class="st24" d="M407.6,190.5c-1.6,1.5-3.2,3-5,4.3-1.6,1.5-3.4,2.9-5.2,4.1,1.6-1.5,3.2-3,5-4.3,1.6-1.5,3.4-2.9,5.2-4.1Z"/>
    <path class="st24" d="M403.2,196.7s-.4.6-1,1.2-1.1,1-1.2,1,.4-.6,1-1.2,1.1-1,1.2-1Z"/>
    <rect class="st24" x="11.7" y="109.6" width="128.2" height="5.5"/>
    <rect class="st24" x="360.3" y="109.6" width="124.6" height="5.5"/>
    <path class="st24" d="M360.3,243s-.1-32.3-.1-72.2,0-72.2.1-72.2.1,32.3.1,72.2,0,72.2-.1,72.2Z"/>
  </g>
  <g id="freepik--freepik--high-school-building--inject-76--inject-901">
    <rect class="st34" x="16.4" y="243.5" width="466" height="130.8"/>
    <rect class="st34" x="139.8" y="229.6" width="220.5" height="146.1"/>
    <rect class="st33" x="16.4" y="335.5" width="157.7" height="13"/>
    <rect class="st33" x="326" y="335.5" width="156.4" height="13"/>
    <g class="st28">
      <rect class="st24" x="163.3" y="285.7" width="173.7" height="88.6"/>
    </g>
    <g class="st28">
      <path class="st24" d="M224.5,270.3c-.6-.1-1.2-.4-1.7-.7l.9-2c1,.6,2,1,3.1,1s1.6-.2,1.6-.7-.1-.5-.5-.6c-.5-.1-1-.4-1.4-.4-.6-.1-1.2-.2-1.7-.5-.5-.1-.9-.5-1.2-.9-.4-.5-.5-1-.5-1.6s.1-1.1.5-1.6c.4-.5.9-.9,1.4-1.1.7-.2,1.5-.5,2.4-.4.6,0,1.2,0,1.9.2.6.1,1.1.4,1.6.6l-.9,2c-.7-.5-1.7-.7-2.6-.7s-.9,0-1.1.2c-.2,0-.4.4-.4.6s.1.5.5.6c.5.1,1,.2,1.4.4.6.1,1.2.2,1.9.5.5.1.9.5,1.2.9.4.5.5,1,.5,1.6s-.1,1.1-.5,1.5c-.4.5-.9.9-1.4,1.1-.7.2-1.5.4-2.4.4s-1.5-.1-2.2-.4h-.2Z"/>
      <path class="st24" d="M234.3,269.9c-.7-.4-1.4-1-1.9-1.7-.9-1.6-.9-3.5,0-5.1.5-.7,1.1-1.4,1.9-1.7,1.6-.7,3.5-.9,5.1-.1.6.2,1.2.7,1.7,1.4l-1.7,1.5c-.5-.7-1.4-1.1-2.2-1.1s-1,0-1.4.4c-.4.2-.7.6-1,1-.4.9-.4,2,0,2.9.2.4.5.7,1,1,1.2.6,2.7.4,3.6-.7l1.7,1.5c-.5.6-1.1,1-1.7,1.4-1.6.6-3.5.6-5.1-.1h0v-.2h0Z"/>
      <path class="st24" d="M251.4,260.8v9.6h-2.7v-3.7h-3.7v3.7h-2.7v-9.6h2.7v3.6h3.7v-3.6h2.7Z"/>
      <path class="st24" d="M255.3,269.9c-2.4-1.2-3.4-4.2-2.1-6.6.5-.9,1.2-1.6,2.1-2.1,1.7-.9,3.7-.9,5.5,0,2.4,1.2,3.4,4.2,2.1,6.6h0c-.5.9-1.1,1.6-2.1,2.1-1.7.9-3.7.9-5.5,0h0ZM259.4,267.9c.4-.2.7-.5,1-1,.5-.9.5-2,0-2.9-.2-.4-.5-.7-.9-1-.9-.5-1.9-.5-2.6,0-.4.2-.7.6-1,1-.5.9-.5,2,0,2.9.2.4.5.7,1,1,.7.5,1.7.5,2.6,0h-.1Z"/>
      <path class="st24" d="M266.9,269.9c-2.4-1.2-3.4-4.2-2-6.6.5-.9,1.1-1.6,2-2,1.7-.9,3.7-.9,5.5,0,2.4,1.2,3.4,4.2,2,6.6-.5.9-1.1,1.6-2,2-1.7.9-3.7.9-5.5,0ZM271,267.9c.4-.2.7-.5,1-1,.5-.9.5-2,0-2.9-.2-.4-.5-.7-1-1-.9-.5-1.7-.5-2.6,0-.4.2-.7.6-.9,1-.5.9-.5,2,0,2.9.2.4.5.7.9,1,.9.5,1.7.5,2.6,0Z"/>
      <path class="st24" d="M276.3,260.8h2.7v7.5h4.6v2.1h-7.2v-9.6h-.1Z"/>
    </g>
    <path class="st24" d="M223.8,269.5c-.6-.1-1.2-.4-1.7-.7l.9-2c1,.6,2,.9,3.1,1,1,0,1.5-.2,1.5-.7s-.1-.5-.5-.6c-.5-.1-.9-.4-1.4-.4s-1.2-.2-1.7-.5c-.5-.1-.9-.5-1.2-.9-.4-.5-.5-1-.5-1.6s.1-1.1.5-1.6c.4-.5.9-.9,1.4-1.1.7-.2,1.5-.4,2.4-.4s1.2,0,1.9.2c.6,0,1.1.4,1.6.6l-.9,2c-.7-.5-1.7-.7-2.6-.7s-.9,0-1.1.2c-.2.1-.4.4-.4.6s.1.5.4.6c.5.1,1,.2,1.4.4.6.1,1.2.2,1.7.5.5.1.9.5,1.2.9.4.5.6,1,.5,1.6,0,.5-.1,1.1-.5,1.6-.4.5-.9.9-1.4,1.1-.7.2-1.5.4-2.4.4s-1.5-.1-2.2-.4h.1Z"/>
    <path class="st24" d="M233.6,269.1c-.7-.4-1.4-1-1.9-1.7-.9-1.6-.9-3.5,0-5.1.5-.7,1.1-1.4,1.9-1.7,1.6-.7,3.4-.9,5.1-.1.7.2,1.2.7,1.7,1.4l-1.7,1.6c-.9-1.1-2.4-1.4-3.6-.7-.4.2-.7.5-1,1-.5.9-.5,2,0,2.9.2.4.5.7,1,1,1.2.7,2.7.4,3.6-.7l1.7,1.6c-.5.6-1.1,1-1.7,1.4-.7.4-1.5.5-2.4.5s-1.9-.2-2.7-.7v-.4h0Z"/>
    <path class="st24" d="M250.6,260.1v9.6h-2.7v-3.7h-3.7v3.7h-2.7v-9.6h2.7v3.6h3.7v-3.6h2.7Z"/>
    <path class="st24" d="M254.7,269.1c-2.4-1.2-3.4-4.2-2.1-6.6h0c.5-.9,1.2-1.6,2.1-2.1,1.7-.9,3.7-.9,5.5,0,2.4,1.2,3.4,4.2,2.1,6.6-.5.9-1.2,1.6-2.1,2.1-1.7.9-3.7.9-5.5,0h0ZM258.7,267.1c.4-.2.7-.5,1-1,.5-.9.5-2,0-2.9-.2-.4-.5-.7-.9-1-.4-.2-.9-.4-1.4-.4s-.9,0-1.4.4c-.4.2-.7.6-.9,1-.2.4-.4.9-.4,1.4s0,1,.4,1.4c.2.4.5.7.9,1,.9.5,1.9.5,2.6,0h0Z"/>
    <path class="st24" d="M266.1,269.1c-2.4-1.2-3.4-4.2-2-6.6.5-.9,1.1-1.6,2-2,1.7-.9,3.7-.9,5.5,0,2.4,1.2,3.4,4.2,2,6.6-.5.9-1.1,1.6-2,2-1.7.9-3.7.9-5.5,0ZM270.2,267.1c.4-.2.7-.5.9-1,.5-.9.5-2,0-2.9-.2-.4-.5-.7-.9-1-.9-.5-1.9-.5-2.6,0-.4.2-.7.5-.9,1-.5.9-.5,2,0,2.9.2.4.5.7.9,1,.9.5,1.9.5,2.6,0Z"/>
    <path class="st24" d="M275.6,260.1h2.7v7.5h4.6v2.1h-7.2v-9.6h-.1Z"/>
    <rect class="st24" x="132.3" y="222.3" width="232.6" height="7.3"/>
    <rect class="st24" x="174.1" y="294" width="154.1" height="80.3"/>
    <rect class="st33" x="278.2" y="316.8" width="47.5" height="55.5"/>
    <path class="st24" d="M301.9,373.6s-.1-12.9-.1-28.8,0-28.8.1-28.8.1,12.9.1,28.8,0,28.8-.1,28.8Z"/>
    <rect class="st33" x="176.8" y="316.8" width="47.5" height="55.5"/>
    <path class="st24" d="M200.5,373.6s-.1-12.9-.1-28.8,0-28.8.1-28.8.1,12.9.1,28.8,0,28.8-.1,28.8Z"/>
    <rect class="st24" x="196.4" y="339.3" width="2.9" height="10.4"/>
    <rect class="st24" x="202.2" y="339.3" width="2.9" height="10.4"/>
    <rect class="st33" x="177.2" y="297.6" width="47.5" height="15.8"/>
    <rect class="st33" x="227.5" y="297.6" width="47.5" height="15.8"/>
    <rect class="st33" x="277.8" y="297.6" width="47.5" height="15.8"/>
    <g class="st19">
      <polygon class="st3" points="325.6 331.5 278.2 353 278.2 358.2 325.6 335.6 325.6 331.5"/>
    </g>
    <g class="st19">
      <polygon class="st3" points="325.3 339.7 277.8 361.2 277.8 364.3 325.3 342.6 325.3 339.7"/>
    </g>
    <rect class="st33" x="227.5" y="316.8" width="47.5" height="55.5"/>
    <g class="st19">
      <polygon class="st3" points="275 316.8 227.5 338.3 227.5 348.5 275 325.4 275 316.8"/>
    </g>
    <g class="st19">
      <polygon class="st3" points="275 328.9 227.5 350.4 227.5 353.6 275 331.7 275 328.9"/>
    </g>
    <path class="st24" d="M251.2,373.6s-.1-12.9-.1-28.8,0-28.8.1-28.8.1,12.9.1,28.8,0,28.8-.1,28.8Z"/>
    <path class="st24" d="M259.6,341.4s2-3,4.7-6.6c2.7-3.6,5-6.5,5-6.3s-2,3-4.7,6.6-5,6.5-5,6.3Z"/>
    <path class="st24" d="M258.1,351.6s2.4-3.7,5.5-8.1,5.7-8,5.8-7.8-2.4,3.7-5.5,8.1-5.7,8-5.8,7.8Z"/>
    <path class="st24" d="M232.2,355.2s2.2-2.4,5.1-5.2c1.7-1.7,3.5-3.4,5.3-5,0,0-2.2,2.4-5.1,5.2-1.7,1.7-3.5,3.4-5.3,5Z"/>
    <path class="st24" d="M229,364.3c.1-.2.4-.4.5-.6l1.6-1.5,5.2-4.8,5.1-4.8,1.5-1.5c.1-.2.4-.4.6-.5-.1.2-.4.4-.5.6-.4.4-.9.9-1.5,1.6-1.2,1.4-3,3.1-5.1,5s-3.9,3.5-5.2,4.7c-.7.6-1.2,1.1-1.6,1.4-.2.1-.4.4-.6.5h0Z"/>
    <rect class="st24" x="247.1" y="339.3" width="2.9" height="10.4"/>
    <rect class="st24" x="252.8" y="339.3" width="2.9" height="10.4"/>
    <path class="st24" d="M259.9,301.7c-.6.5-1.4,1.1-2,1.6l-5,3.7c-2,1.4-3.7,2.7-5.1,3.6-.6.5-1.2.7-1.6,1-.2.1-.4.2-.6.4.6-.5,1.4-1.1,2-1.6,1.4-1,3.1-2.2,5-3.7s3.7-2.7,5.1-3.6c.6-.5,1.2-.7,1.6-1,.1-.1.4-.2.6-.4h0Z"/>
    <path class="st24" d="M251.4,304.5c-1.5,1.2-3,2.4-4.5,3.5-1.5,1.1-3.1,2.2-4.7,3.1,1.5-1.2,3-2.4,4.5-3.5,1.5-1.1,3.1-2.2,4.7-3.1Z"/>
    <path class="st24" d="M209.7,299.2c-.6.6-1.4,1.1-2,1.5l-5,3.7c-2,1.4-3.7,2.7-5.1,3.6-.6.5-1.2.7-1.6,1-.2.1-.4.2-.6.4.6-.5,1.4-1.1,2-1.5l5-3.7c2-1.4,3.7-2.7,5.1-3.6.6-.5,1.2-.7,1.6-1,.2-.1.4-.2.6-.4Z"/>
    <path class="st24" d="M201.2,302.1c-1.5,1.2-3,2.4-4.5,3.5-1.5,1.1-3.1,2.2-4.7,3.1,3-2.4,6.1-4.6,9.3-6.6h-.1Z"/>
    <path class="st24" d="M315.8,300.4c-.6.6-1.4,1.1-2.1,1.6l-5,3.7c-2,1.4-3.7,2.7-5.1,3.6-.6.5-1.2.7-1.6,1-.1.1-.4.2-.6.4.6-.5,1.4-1.1,2-1.5l5-3.7c2-1.4,3.7-2.7,5.1-3.6.6-.5,1.2-.7,1.6-1,.2-.1.4-.2.6-.4h.1Z"/>
    <path class="st24" d="M307.3,303.3c-1.5,1.2-3,2.4-4.5,3.5s-3.1,2.2-4.7,3.1c1.4-1.2,3-2.4,4.5-3.5s3.1-2.2,4.7-3.1Z"/>
    <g class="st19">
      <polygon class="st3" points="218.1 316.8 199.2 316.8 177.2 326.5 177.2 335.5 218.1 316.8 218.1 316.8"/>
    </g>
    <g class="st19">
      <polygon class="st3" points="224.6 317.1 177.2 338.6 177.2 341.8 224.6 319.9 224.6 317.1"/>
    </g>
    <g class="st26">
      <rect class="st24" x="150" y="308.6" width="13.2" height="5.5"/>
    </g>
    <g class="st19">
      <rect class="st24" x="143.6" y="302.3" width="13.2" height="5.5"/>
    </g>
    <g class="st26">
      <rect class="st24" x="162.2" y="272.7" width="13.2" height="5.5"/>
    </g>
    <g class="st19">
      <rect class="st24" x="169.1" y="265" width="13.2" height="5.5"/>
    </g>
    <g class="st26">
      <rect class="st24" x="119.7" y="260.8" width="13.2" height="5.5"/>
    </g>
    <g class="st19">
      <rect class="st24" x="126.6" y="253.1" width="13.2" height="5.5"/>
    </g>
    <g class="st26">
      <rect class="st24" x="54.4" y="279.9" width="13.2" height="5.5"/>
    </g>
    <g class="st26">
      <rect class="st24" x="37.8" y="259.1" width="13.2" height="5.5"/>
    </g>
    <g class="st19">
      <rect class="st24" x="61.4" y="272.2" width="13.2" height="5.5"/>
    </g>
    <g class="st19">
      <rect class="st24" x="65" y="360.7" width="13.2" height="5.5"/>
    </g>
    <g class="st19">
      <rect class="st24" x="112.7" y="268.3" width="13.2" height="5.5"/>
    </g>
    <g class="st26">
      <rect class="st24" x="453" y="258.1" width="13.2" height="5.5"/>
    </g>
    <g class="st19">
      <rect class="st24" x="460.1" y="250.4" width="13.2" height="5.5"/>
    </g>
    <g class="st26">
      <rect class="st24" x="387.9" y="277.2" width="13.2" height="5.5"/>
    </g>
    <g class="st26">
      <rect class="st24" x="371.1" y="256.3" width="13.2" height="5.5"/>
    </g>
    <g class="st19">
      <rect class="st24" x="394.8" y="269.5" width="13.2" height="5.5"/>
    </g>
    <g class="st19">
      <rect class="st24" x="443.7" y="279.2" width="13.2" height="5.5"/>
    </g>
    <g class="st19">
      <rect class="st24" x="224.5" y="248.6" width="13.2" height="5.5"/>
    </g>
    <g class="st26">
      <rect class="st24" x="231.1" y="240.4" width="13.2" height="5.5"/>
    </g>
    <g class="st19">
      <rect class="st24" x="347.5" y="283.2" width="12.8" height="5.5"/>
    </g>
    <g class="st26">
      <rect class="st24" x="354.1" y="275" width="6.2" height="5.5"/>
    </g>
    <g class="st19">
      <rect class="st24" x="304.5" y="270" width="13.2" height="5.5"/>
    </g>
    <g class="st26">
      <rect class="st24" x="311.5" y="261.8" width="13.2" height="5.5"/>
    </g>
    <path class="st24" d="M139.8,374.1s-.1-32.3-.1-72.2,0-72.2.1-72.2.1,32.3.1,72.2,0,72.2-.1,72.2Z"/>
    <rect class="st24" x="297.8" y="339.3" width="2.9" height="10.4"/>
    <rect class="st24" x="303.5" y="339.3" width="2.9" height="10.4"/>
    <rect class="st33" x="82.3" y="288.9" width="51.4" height="71.4"/>
    <rect class="st24" x="87.2" y="294" width="41.5" height="61.2"/>
    <rect class="st33" x="90.8" y="311.1" width="34.4" height="40.3"/>
    <rect class="st33" x="90.8" y="297.6" width="34.4" height="11.3"/>
    <path class="st24" d="M108,352.6s-.1-9.1-.1-20.4,0-20.4.1-20.4.1,9.1.1,20.4,0,20.4-.1,20.4Z"/>
    <path class="st24" d="M104.5,334.4c-1.5,1.5-3,3-4.6,4.3-1.5,1.5-3.1,2.7-4.8,4,1.5-1.5,3-3,4.6-4.3,1.5-1.5,3.1-2.7,4.8-4.1h0Z"/>
    <path class="st24" d="M104.5,331.5c-.9,1-1.9,1.9-2.9,2.7s-2,1.7-3.1,2.5c.9-1,1.9-1.9,2.9-2.7s2-1.7,3.1-2.5Z"/>
    <path class="st24" d="M122.5,321.7c-1.6,1.5-3.2,3-5,4.3-1.6,1.5-3.4,2.9-5.2,4.1,1.6-1.5,3.2-3,5-4.3,1.6-1.5,3.4-2.9,5.2-4.1Z"/>
    <path class="st24" d="M118,327.9s-.4.6-1,1.2-1.1,1-1.2,1,.4-.6,1-1.2,1.2-1,1.2-1Z"/>
    <rect class="st33" x="25.1" y="288.9" width="51.4" height="71.4"/>
    <rect class="st24" x="30.1" y="294" width="41.5" height="61.2"/>
    <rect class="st33" x="33.7" y="311.1" width="34.4" height="40.3"/>
    <rect class="st33" x="33.7" y="297.6" width="34.4" height="11.3"/>
    <path class="st24" d="M50.8,352.6v-40.7,40.7Z"/>
    <path class="st24" d="M47.4,334.4c-1.5,1.5-3,3-4.6,4.3-1.5,1.5-3.1,2.7-4.8,4,1.5-1.5,3-3,4.6-4.3,1.5-1.5,3.2-2.9,4.8-4.1h0Z"/>
    <path class="st24" d="M47.4,331.5c-.9,1-1.9,1.9-2.9,2.7s-2,1.7-3.1,2.5c.9-1,1.9-1.9,2.9-2.7s2-1.7,3.1-2.5Z"/>
    <path class="st24" d="M65.4,321.7c-1.6,1.5-3.2,3-5,4.3-1.6,1.5-3.4,2.7-5.2,4,1.6-1.5,3.2-3,5-4.3,1.6-1.5,3.4-2.7,5.2-4Z"/>
    <path class="st24" d="M60.9,327.9s-.4.6-1,1.2-1.1,1-1.2,1,.4-.6,1-1.2,1.1-1,1.2-1Z"/>
    <rect class="st33" x="424.5" y="288.9" width="51.4" height="71.4"/>
    <rect class="st24" x="429.5" y="294" width="41.5" height="61.2"/>
    <rect class="st33" x="433.1" y="311.1" width="34.4" height="40.3"/>
    <rect class="st33" x="433.1" y="297.6" width="34.4" height="11.3"/>
    <path class="st24" d="M450.3,352.6s-.1-9.1-.1-20.4,0-20.4.1-20.4.1,9.1.1,20.4,0,20.4-.1,20.4Z"/>
    <path class="st24" d="M446.8,334.4c-1.5,1.5-3,3-4.6,4.3-1.5,1.5-3.1,2.9-4.8,4.1,1.5-1.5,3-3,4.6-4.3,1.5-1.5,3.1-2.9,4.8-4.1Z"/>
    <path class="st24" d="M446.8,331.5c-.9,1-1.9,1.9-2.9,2.7s-2,1.7-3.1,2.5c.9-1,1.9-1.9,2.9-2.7s2-1.7,3.1-2.5Z"/>
    <path class="st24" d="M464.8,321.7c-1.6,1.5-3.2,3-5,4.3-1.6,1.5-3.4,2.9-5.2,4.1,1.6-1.5,3.2-3,5-4.3,1.6-1.5,3.4-2.9,5.2-4.1Z"/>
    <path class="st24" d="M460.3,327.9s-.4.6-1,1.2-1.1,1-1.2,1,.4-.6,1-1.2,1.1-1,1.2-1Z"/>
    <rect class="st33" x="367.4" y="288.9" width="51.4" height="71.4"/>
    <rect class="st24" x="372.4" y="294" width="41.5" height="61.2"/>
    <rect class="st33" x="376" y="311.1" width="34.4" height="40.3"/>
    <rect class="st33" x="376" y="297.6" width="34.4" height="11.3"/>
    <path class="st24" d="M393.1,352.6s-.1-9.1-.1-20.4,0-20.4.1-20.4.1,9.1.1,20.4,0,20.4-.1,20.4Z"/>
    <path class="st24" d="M389.6,334.4c-1.5,1.5-3,3-4.6,4.3-1.5,1.5-3.1,2.9-4.8,4.1,1.5-1.5,3-3,4.6-4.3,1.5-1.5,3.1-2.9,4.8-4.1Z"/>
    <path class="st24" d="M389.6,331.5c-.9,1-1.9,1.9-2.9,2.7s-2,1.7-3.1,2.5c.9-1,1.9-1.9,2.9-2.7s2-1.7,3.1-2.5Z"/>
    <path class="st24" d="M407.6,321.7c-1.6,1.5-3.2,3-5,4.3-1.6,1.5-3.4,2.9-5.2,4.1,1.6-1.5,3.2-3,5-4.3,1.6-1.5,3.4-2.9,5.2-4.1Z"/>
    <path class="st24" d="M403.2,327.9s-.4.6-1,1.2-1.1,1-1.2,1,.4-.6,1-1.2,1.1-1,1.2-1Z"/>
    <rect class="st24" x="11.7" y="240.8" width="128.2" height="5.5"/>
    <rect class="st24" x="360.3" y="240.8" width="124.6" height="5.5"/>
    <path class="st24" d="M360.3,374.2s-.1-32.3-.1-72.2,0-72.2.1-72.2.1,32.3.1,72.2,0,72.2-.1,72.2Z"/>
  </g>
  <g id="freepik--freepik--high-school-building--inject-76--inject-902">
    <rect class="st34" x="63.5" y="38.5" width="377.9" height="250.3"/>
    <g class="st28">
      <rect class="st24" x="103.6" y="134.7" width="297.5" height="151.9"/>
    </g>
    <rect class="st24" x="50.7" y="26" width="398.6" height="12.5"/>
    <rect class="st24" x="122.3" y="148.9" width="264.1" height="137.7"/>
    <rect class="st33" x="300.7" y="188" width="81.4" height="95.3"/>
    <path class="st24" d="M341.3,285.3c-.1,0-.4-22.1-.4-49.4s.1-49.4.4-49.4.4,22.1.4,49.4-.2,49.4-.4,49.4Z"/>
    <rect class="st33" x="126.9" y="188" width="81.4" height="95.3"/>
    <path class="st24" d="M167.5,285.3c-.1,0-.2-22.1-.2-49.4s.1-49.4.2-49.4.4,22.1.4,49.4-.1,49.4-.4,49.4Z"/>
    <rect class="st24" x="160.7" y="226.6" width="4.8" height="17.9"/>
    <rect class="st24" x="170.4" y="226.6" width="4.8" height="17.9"/>
    <rect class="st33" x="127.5" y="155.1" width="81.4" height="27.1"/>
    <rect class="st33" x="213.8" y="155.1" width="81.4" height="27.1"/>
    <rect class="st33" x="300.1" y="155.1" width="81.4" height="27.1"/>
    <g class="st19">
      <polygon class="st3" points="382.1 213.2 300.7 250.1 300.7 258.9 382.1 220.3 382.1 213.2"/>
    </g>
    <g class="st19">
      <polygon class="st3" points="381.4 227.1 300.1 264 300.1 269.4 381.4 232.1 381.4 227.1"/>
    </g>
    <rect class="st33" x="213.8" y="188" width="81.4" height="95.3"/>
    <g class="st19">
      <polygon class="st3" points="295.1 188 213.8 224.9 213.8 242.4 295.1 202.8 295.1 188"/>
    </g>
    <g class="st19">
      <polygon class="st3" points="295.1 208.8 213.8 245.7 213.8 251 295.1 213.7 295.1 208.8"/>
    </g>
    <path class="st24" d="M254.3,285.3c-.1,0-.4-22.1-.4-49.4s.1-49.4.4-49.4.4,22.1.4,49.4-.1,49.4-.4,49.4Z"/>
    <path class="st24" d="M268.7,230.1c-.1,0,3.5-5.1,8.1-11.3,4.6-6.1,8.4-10.9,8.6-10.9s-3.5,5.1-8.1,11.3-8.4,11.1-8.6,10.9Z"/>
    <path class="st24" d="M266.3,247.6c-.1,0,4.1-6.3,9.4-13.8,5.3-7.5,9.8-13.5,9.9-13.5s-4.1,6.3-9.4,13.8c-5.3,7.5-9.8,13.5-9.9,13.5Z"/>
    <path class="st24" d="M221.9,253.9s3.9-4.1,8.8-8.9c3-3,6-5.8,9.2-8.4,0,0-3.9,4.1-8.8,8.9-2.9,3-6,5.8-9.2,8.6h0Z"/>
    <path class="st24" d="M216.2,269.4c.2-.4.6-.6.9-1l2.7-2.5,8.9-8.2,8.7-8.3,2.6-2.5c.2-.4.6-.6,1-.9-.2.4-.5.7-.9,1-.6.6-1.5,1.6-2.5,2.7-2.1,2.2-5.2,5.2-8.7,8.6-3.5,3.2-6.7,6.1-9.1,8.1-1.2,1-2.1,1.9-2.9,2.4-.4.2-.6.6-1,.9v-.2h.1Z"/>
    <rect class="st24" x="247.5" y="226.6" width="4.8" height="17.9"/>
    <rect class="st24" x="257.2" y="226.6" width="4.8" height="17.9"/>
    <path class="st24" d="M269.4,162.2c-1.1,1-2.2,1.9-3.5,2.6l-8.6,6.3c-3.4,2.4-6.3,4.6-8.7,6.2-1.1.7-2.1,1.4-2.7,1.7-.4.2-.6.4-1,.5,1.1-1,2.2-1.9,3.5-2.6,2.4-1.7,5.2-3.9,8.6-6.3,3.2-2.5,6.3-4.6,8.7-6.2,1.1-.7,2.1-1.4,2.7-1.7.4-.2.6-.4,1-.5h0Z"/>
    <path class="st24" d="M254.7,167c-2.5,2.1-5.1,4.1-7.7,6-2.6,2-5.3,3.9-8.1,5.5,2.5-2.1,5.1-4.1,7.7-6,2.6-2,5.3-3.9,8.1-5.5Z"/>
    <path class="st24" d="M183.4,157.8c-1.1,1-2.2,1.9-3.5,2.6l-8.6,6.3c-3.4,2.4-6.3,4.6-8.7,6.2-1.1.7-2.1,1.4-2.7,1.7-.4.2-.6.4-1,.5,1.1-1,2.2-1.9,3.5-2.6l8.6-6.3c3.4-2.5,6.3-4.6,8.7-6.2,1.1-.7,2.1-1.4,2.7-1.7.4-.2.6-.4,1-.5Z"/>
    <path class="st24" d="M168.7,162.7c-2.5,2.1-5.1,4.1-7.7,6-2.6,2-5.3,3.7-8.1,5.5,5.1-4.1,10.3-8,15.9-11.3h-.1Z"/>
    <path class="st24" d="M365.2,159.9c-1.1,1-2.2,1.9-3.5,2.6l-8.6,6.3c-3.4,2.5-6.3,4.6-8.7,6.2-1.1.7-2.1,1.4-2.7,1.7-.4.2-.6.4-1,.5,1.1-1,2.2-1.9,3.5-2.6l8.6-6.3c3.4-2.4,6.3-4.6,8.7-6.2,1.1-.7,2.1-1.4,2.7-1.7.4-.2.7-.4,1-.5Z"/>
    <path class="st24" d="M350.5,164.8c-2.5,2.1-5.1,4.1-7.7,6-2.6,2-5.3,3.9-8.1,5.5,2.5-2.1,5.1-4.1,7.7-6,2.6-2,5.3-3.7,8.1-5.5Z"/>
    <g class="st19">
      <polygon class="st3" points="197.7 188 165.3 188 127.5 204.7 127.5 220.1 197.7 188 197.7 188"/>
    </g>
    <g class="st19">
      <polygon class="st3" points="208.9 188.5 127.5 225.4 127.5 230.7 208.9 193.5 208.9 188.5"/>
    </g>
    <g class="st26">
      <rect class="st24" x="81" y="174.1" width="22.6" height="9.3"/>
    </g>
    <g class="st19">
      <rect class="st24" x="70.1" y="163.2" width="22.6" height="9.3"/>
    </g>
    <g class="st26">
      <rect class="st24" x="101.6" y="112.3" width="22.6" height="9.3"/>
    </g>
    <g class="st19">
      <rect class="st24" x="113.7" y="99.3" width="22.6" height="9.3"/>
    </g>
    <g class="st26">
      <rect class="st24" x="219.9" y="57.2" width="22.6" height="9.3"/>
    </g>
    <g class="st19">
      <rect class="st24" x="419.4" y="130.2" width="22" height="9.3"/>
    </g>
    <g class="st26">
      <rect class="st24" x="430.8" y="116.3" width="10.7" height="9.3"/>
    </g>
    <g class="st19">
      <rect class="st24" x="345.8" y="107.6" width="22.6" height="9.3"/>
    </g>
    <g class="st26">
      <rect class="st24" x="357.8" y="93.7" width="22.6" height="9.3"/>
    </g>
    <path class="st24" d="M63.6,286.3c-.2,0-.4-55.4-.4-123.7s0-123.7.4-123.7.2,55.4.2,123.7,0,123.7-.2,123.7Z"/>
    <rect class="st24" x="334.3" y="226.6" width="4.8" height="17.9"/>
    <rect class="st24" x="344" y="226.6" width="4.8" height="17.9"/>
  </g>
  <g id="freepik--Floor--inject-2">
    <path id="freepik--floor--inject-2" class="st36" d="M77.2,295.8c-95.5,44.2-95.5,115.7,0,159.9,95.5,44.2,250.2,44.2,345.7,0,95.5-44.2,95.5-115.7,0-159.9-95.5-44.2-250.3-44.2-345.7,0h0Z"/>
  </g>
  <g id="freepik--Blackboard--inject-2">
    <g id="freepik--Board--inject-2">
      <polygon class="st1" points="244.9 142 391.5 226.6 391.5 225.2 244.9 140.5 244.9 142"/>
      <polygon class="st32" points="249.6 137.8 244.9 140.5 391.5 225.2 396.2 222.5 249.6 137.8"/>
      <polygon class="st15" points="396.2 222.5 391.5 225.2 391.5 226.6 396.2 224 396.2 222.5"/>
      <polygon class="st0" points="249.6 137.8 396.2 222.5 396.2 110.1 249.6 25.5 249.6 137.8"/>
      <g class="st19">
        <polygon points="249.6 137.8 396.2 222.5 396.2 110.1 249.6 25.5 249.6 137.8"/>
      </g>
      <polygon class="st1" points="392 214.6 392 113.3 253.7 33.5 253.7 134.7 392 214.6"/>
      <polygon class="st15" points="392 211.5 392 214.6 253.7 134.7 253.7 33.5 256.4 35.1 256.4 133.2 392 211.5"/>
      <g class="st28">
        <polygon points="392 214.6 396.2 222.5 249.6 137.8 253.7 134.7 392 214.6"/>
      </g>
      <g class="st19">
        <polygon points="253.7 33.5 249.6 25.5 396.2 110.1 392 113.3 253.7 33.5"/>
      </g>
      <polygon class="st0" points="399.8 108.1 396.2 110.1 396.2 222.5 399.8 220.4 399.8 108.1"/>
      <g class="st28">
        <polygon points="399.8 108.1 396.2 110.1 396.2 222.5 399.8 220.4 399.8 108.1"/>
      </g>
      <polygon class="st0" points="249.6 25.5 253.2 23.4 399.8 108.1 396.2 110.1 249.6 25.5"/>
      <g class="st26">
        <polygon points="249.6 25.5 253.2 23.4 399.8 108.1 396.2 110.1 249.6 25.5"/>
      </g>
      <path class="st36" d="M354.2,200.2c0-1,.6-1.9,1.4-2.4.2-.2.7-.2,1,0h0l15.4,8.9-1.9,3.4-15.4-8.9h0c-.2,0-.5-.5-.5-.7v-.2Z"/>
      <path class="st37" d="M371.1,206.6c-.7.5-1.2,1.4-1.4,2.4,0,.9.6,1.2,1.4.7s1.2-1.4,1.4-2.4c0-.9-.6-1.2-1.4-.7Z"/>
    </g>
  </g>
  <g id="freepik--character-3--inject-2">
    <g id="freepik--Character--inject-2">
      <g id="freepik--wheel-chair--inject-2">
        <path class="st32" d="M359.3,335v4.1c0,3.9,1.1,7.7,3.1,11.1,0,.2.2.5.5.7h0c0,.2.2.5.4.7,3.5,4.8,8.8,8,14.8,8.6h2.4c4.3-.2,8.6-1.5,12.3-3.9l1.9-1c15.5-8.9,28.1-30.7,28.1-48.7v-4.1c0-3.5-.9-7-2.5-10.1h0l-.2-.4-.2-.2c0-.2-.2-.5-.5-.7s-.2-.2-.2-.4l-.2-.2s-.2-.2-.2-.5l-.2-.2c-3.5-4.5-8.7-7.5-14.4-8.1h-2.1c-4.3.2-8.6,1.5-12.3,3.9l-1.9,1c-15.7,8.9-28.2,30.8-28.2,48.7v-.2h0ZM369.9,336c0-15.2,10.7-33.5,23.7-41.1,13-7.6,23.7-1.4,23.7,13.8s-10.7,33.5-23.7,41.1c-13,7.6-23.7,1.5-23.7-13.8h0Z"/>
        <path class="st15" d="M364.7,338.1v2.1c0,8.8,3.1,15.2,8.1,18h.2v.2h0l.4.2c.2,0,.5.2.7.4l.4.2.4.2h.4c.2.2.6.2,1,.4h1l.6.2h1.7c4.5,0,8.8-1.4,12.5-3.7l1.9-1c15.5-8.9,28.1-30.7,28.1-48.7v-8.2c-.2-.4-.2-.7-.2-1s0-.6-.2-.9c0-.5-.2-1.1-.5-1.6h0c0-.2-.2-.5-.2-.7-.2-.5-.4-1-.6-1.5l-.2-.4-.2-.4-.2-.2c0-.2-.2-.5-.5-.7s-.2-.2-.2-.4l-.2-.2s-.2-.2-.2-.5-.2-.2-.4-.4l-.4-.4-.7-.7-.4-.4c-.2-.2-.6-.5-.9-.7,0,0-.2-.2-.4-.2l-.5-.2h0l-.4-.2c-5.1-2.9-12.1-2.4-19.6,2l-1.9,1c-15.3,9.1-27.8,30.9-27.8,48.8l-.2-.4h0ZM369.9,336.1c0-15.2,10.7-33.5,23.7-41.1,13-7.6,23.7-1.4,23.7,13.8s-10.7,33.5-23.7,41.1c-13,7.6-23.7,1.4-23.7-13.8Z"/>
        <path class="st0" d="M376,345.8c3.7,4.5,10.2,5.1,17.6.7,11.7-6.7,21.1-23.1,21.1-36.5s-1.9-10.4-5-12.8c2.2,2.6,3.4,6.5,3.4,11.3,0,13.4-9.4,29.8-21.1,36.5-6.5,3.9-12.3,3.9-16,.7h0Z"/>
        <path class="st11" d="M376,345.8c3.7,4.5,10.2,5.1,17.6.7,11.7-6.7,21.1-23.1,21.1-36.5s-1.9-10.4-5-12.8c2.2,2.6,3.4,6.5,3.4,11.3,0,13.4-9.4,29.8-21.1,36.5-6.5,3.9-12.3,3.9-16,.7h0Z"/>
        <path class="st0" d="M369.9,336.1c0,15.2,10.7,21.2,23.7,13.7,13-7.6,23.7-26,23.7-41.1s-10.7-21.2-23.7-13.8c-13,7.5-23.7,26.1-23.7,41.2ZM372.5,334.5c0-13.4,9.4-29.8,21.1-36.5,11.7-6.7,21.1-1.2,21.1,12.2s-9.4,29.8-21.1,36.5c-11.7,6.7-21.1,1.4-21.1-12.2Z"/>
        <path class="st33" d="M373.2,327.8v-.7l18.5-5,.4-.6-13.5-7.8.2-.6,13.5,7.8.2-.7-5-18.3.5-.5,4.8,17.9.6-.7,4.7-23.1.7-.2-4.6,22.7h.7l12.7-22.1.6.2-12.7,22,.2.7,17.5-15.5c0,.2,0,.5.2.7l-17.8,15.8-.2.9,18.1-5v.7l-18.5,5-.4.6,13.8,8c0,.2-.2.4-.2.6l-13.8-8-.2.7,5,18.6-.5.5-5-18.4-.6.7-4.8,23.7-.7.2,4.8-23.4h-.7l-12.9,22.5c-.2,0-.4-.2-.6-.2l12.9-22.4-.2-.7-17.6,15.7c0-.2,0-.5-.2-.7l18-15.9.2-.9-18.3,5h0Z"/>
        <path class="st24" d="M384.5,326.2c0,2.5.9,4.2,2.2,5,.4.2.7.4,1.1.6.7.5,1.7.7,2.6.6h1.4l.2-.2h.2s.2,0,.5-.2c.2,0,.5-.2.7-.4,4.5-2.5,8-8.6,8-13.8v-2.7c-.2-.2-.2-.4-.4-.7v-.2c-.2,0-.2-.2-.2-.4h0l-.2-.5h0l-.4-.4h0l-.2-.2c-.4-.2-.7-.4-1-.6-1.4-.9-3.5-.7-5.7.5-4.8,3.2-7.8,8.2-8.1,13.8h-.7ZM394.5,327.8c-.6-1.2-.7-3.9,0-4.7s.7.4,2.9-.6c.5-.2.9-.5,1.4-.7-.7,1.9-2.6,5-4,6h-.2,0ZM389.6,318.1v-.2c1.4-1.7,3.1-3.1,5.2-4,0,2.1-.7,4.2-2.1,6,0-.2-.4-.5-.6-.6l-1.2-.7h-.2c-.4-.2-.7-.2-1.1-.4h.1ZM397.7,313.6c.9,1.1,1.4,2.5,1.4,4-.2,1.5-2.7,3-4.2,3.4,0-.7,1.1-1.1,1.7-3.5.5-2.1.5-3.6,1.1-3.9h0ZM388.4,330.3h0c-.7-1.1,1.7-4.5,3.4-5.7-.2.7-.2,1.5,0,2.2.4,1.6,1.2,2.4.5,3-.6.6-2.4.9-3.9.5h0ZM386.8,327c0-2,.5-4,1.2-6,.5-.9,1.6-1.2,2.5-.7.5.4.7,1,.5,1.6-.4,1.2-1.1.4-2.9,2.7-.6.9-1.1,1.7-1.5,2.4h.1Z"/>
        <path class="st11" d="M384.5,326.2c0,2.5.9,4.2,2.2,5,.4.2.7.4,1.1.6.7.5,1.7.7,2.6.6h1.4l.2-.2h.2s.2,0,.5-.2c.2,0,.5-.2.7-.4,4.5-2.5,8-8.6,8-13.8v-2.7c-.2-.2-.2-.4-.4-.7v-.2c-.2,0-.2-.2-.2-.4h0l-.2-.5h0l-.4-.4h0l-.2-.2c-.4-.2-.7-.4-1-.6-1.4-.9-3.5-.7-5.7.5-4.8,3.2-7.8,8.2-8.1,13.8h-.7ZM394.5,327.8c-.6-1.2-.7-3.9,0-4.7s.7.4,2.9-.6c.5-.2.9-.5,1.4-.7-.7,1.9-2.6,5-4,6h-.2,0ZM389.6,318.1v-.2c1.4-1.7,3.1-3.1,5.2-4,0,2.1-.7,4.2-2.1,6,0-.2-.4-.5-.6-.6l-1.2-.7h-.2c-.4-.2-.7-.2-1.1-.4h.1ZM397.7,313.6c.9,1.1,1.4,2.5,1.4,4-.2,1.5-2.7,3-4.2,3.4,0-.7,1.1-1.1,1.7-3.5.5-2.1.5-3.6,1.1-3.9h0ZM388.4,330.3h0c-.7-1.1,1.7-4.5,3.4-5.7-.2.7-.2,1.5,0,2.2.4,1.6,1.2,2.4.5,3-.6.6-2.4.9-3.9.5h0ZM386.8,327c0-2,.5-4,1.2-6,.5-.9,1.6-1.2,2.5-.7.5.4.7,1,.5,1.6-.4,1.2-1.1.4-2.9,2.7-.6.9-1.1,1.7-1.5,2.4h.1Z"/>
        <path class="st24" d="M385.8,326.9c0,5,3.5,7.1,8,4.6,4.5-2.5,8-8.6,8-13.8s-3.5-7.1-8-4.5c-4.7,2.9-7.6,8.1-8,13.7ZM393.6,320.7c-.9.4-.2-1.2-1.9-1.7-1.2-.5-2.6,0-2.1-1.1s4.3-4.1,5.8-4.1-.6,6.5-1.9,7h0ZM400.3,318.2c-.2,2.1-5.2,4.3-5.5,2.9-.2-1,1-1.1,1.7-3.9.6-2.1.5-3.6,1.2-3.9s2.6,2.7,2.4,4.8h.1ZM394.5,323.1c.7-1,.7.4,2.9-.6,1.6-.7,2.9-2.2,2.9-1.2s-2.6,5.8-4.3,7.1-2.6-3.9-1.4-5.3h0ZM392.9,324c.7.4-.5,1.4,0,3.4.4,1.6,1.2,2.4.5,3s-4.3.9-5.1-.4,3.6-6.5,4.6-6h0ZM386.9,328.4c-.5-.5,0-5.2,1.1-7.3s5-.2,4.2,1.5c-.4,1.2-1.1.4-2.9,2.7-1.2,1.9-2,3.6-2.5,3.1h0Z"/>
        <path class="st32" d="M393.6,325.2c-1.2.7-2.4,0-2.4-1.4s1-3.2,2.4-4.2c1.2-.7,2.4,0,2.4,1.4s-1,3.4-2.4,4.2Z"/>
        <path class="st36" d="M325.5,377.6l9.3-19.6h0l3-6.3c2-4.1,5.1-7.6,8.9-10.1v2.9c-2.9,2.1-5.3,5-7,8.2l-1.4,3,7.2-4.1v2.6l-8.9,5-9.1,19.4c-.2.4-.6.6-1,.7h-.5c-.5-.2-.7-.9-.6-1.5h0Z"/>
        <path class="st33" d="M351.7,350c3.2,6.1,2.2,14,2.1,16.6s1.2,2.1,2,0,2.9-10.9-.6-18.6l-3.5,2h0Z"/>
        <path class="st32" d="M345.5,369.1c.2-5.5,3.2-10.4,7.8-13.4,2.2-1.2,4.3-1.4,5.7-.4h0l3.4,1.9-11.2,19-3.4-1.9h0c-1.5-.7-2.4-2.6-2.4-5.1h0Z"/>
        <path class="st15" d="M356.7,357.7c-4.6,3-7.5,8.1-7.7,13.4,0,5,3.5,7,7.7,4.5,4.6-3,7.6-8.1,7.8-13.4,0-5-3.5-7.1-7.8-4.5Z"/>
        <path d="M356.7,363.6c-1.6,1-2.6,2.9-2.7,4.7,0,1.7,1.2,2.4,2.7,1.6,1.6-1,2.6-2.9,2.7-4.7,0-1.9-1.2-2.5-2.7-1.6Z"/>
        <path class="st36" d="M354,349.6c3.2,6.1,2.2,14,2.1,16.6s1.2,2.1,2,0,2.9-10.9-.6-18.6l-3.5,2h0Z"/>
        <path class="st1" d="M345.8,352.7l32.5-19.3v3.4l-27.7,16.4h0l-3.5,2.1-.6.4c-.7.4-1.7.2-2.2-.6-.2-.2-.2-.6-.2-.9l.2-3.1,1.4,1.6h.1Z"/>
        <polygon class="st0" points="367.9 410 383.5 400.9 333.6 372.1 318.1 381.2 367.9 410"/>
        <polygon class="st0" points="383.5 400.9 383.5 404.6 367.9 413.6 367.9 410 383.5 400.9"/>
        <polygon class="st10" points="383.5 400.9 383.5 404.6 367.9 413.6 367.9 410 383.5 400.9"/>
        <polygon class="st0" points="318.1 381.2 318.1 384.8 367.9 413.6 367.9 410 318.1 381.2"/>
        <polygon class="st11" points="318.1 381.2 318.1 384.8 367.9 413.6 367.9 410 318.1 381.2"/>
        <path class="st34" d="M404.2,367.4c-.2-.5-1-.7-1.6-.4l-1,.6c-4.2,2.4-7.6,6.1-9.7,10.6l-3,6.3h0l-9.3,19.6c-.2.6,0,1.2.5,1.5h.5c.4,0,.7-.2,1-.7l9.1-19.4,11.6-6.5c.6-.2.7-1,.5-1.5-.2-.6-1-.7-1.5-.5h0l-8.6,5,1.4-3c1.9-4,5-7.3,8.8-9.6l1-.6c.6-.4.7-1.1.5-1.6h-.1Z"/>
        <path class="st24" d="M404.8,380.3c3.2,6.1,2.2,14,2.1,16.6s1.2,2.1,2,0,2.9-10.9-.6-18.6l-3.5,2h0Z"/>
        <path class="st32" d="M398.5,399.6c.2-5.5,3.2-10.4,7.7-13.4,2.2-1.2,4.3-1.4,5.7-.4h0l3.4,1.9-11.2,19-3.4-1.9h0c-1.2-.7-2.4-2.5-2.4-5.1h.1Z"/>
        <path class="st1" d="M409.8,388.2c-4.6,3-7.6,8.1-7.8,13.4,0,5,3.5,7,7.8,4.5,4.6-3,7.5-8.1,7.7-13.4,0-5-3.4-7-7.7-4.5Z"/>
        <path class="st15" d="M409.8,393.9c-1.6,1-2.6,2.9-2.7,4.7,0,1.7,1.2,2.5,2.7,1.6,1.6-1.1,2.6-2.9,2.7-4.7,0-1.7-1.2-2.4-2.7-1.6Z"/>
        <path class="st34" d="M407,380.2c3.2,6.1,2.2,14,2.1,16.6s1.2,2.1,2,0,2.9-10.9-.6-18.6l-3.5,2h0Z"/>
        <path class="st32" d="M457,268l-3-5.2,12.8-7.3h0c.5-.2,1.1-.2,1.5,0,1.2.7,2,2.2,2.1,3.7,0,.5-.2,1-.6,1.2h0l-12.8,7.5h0Z"/>
        <path class="st1" d="M457.6,266.8c0,1.2-1,1.9-2.1,1.2-1.2-.7-2-2.2-2.1-3.7,0-1.4.9-1.9,2.1-1.2,1.2.7,2,2.2,2.1,3.7Z"/>
        <path class="st24" d="M455.4,264.2c-.2,0-.4-.2-.6,0h-.2l-8.9,5.2,2.9,1.6,7.3-4.2.2-.2c0-.2.2-.2.2-.5,0-.7-.4-1.4-.9-1.9h0Z"/>
        <path class="st32" d="M422.7,248.4l-3-5.2,12.8-7.3h0c.5-.2,1.1-.2,1.5,0,1.2.7,2,2.2,2.1,3.7,0,.5-.2,1-.6,1.2h0l-12.8,7.5h0Z"/>
        <path class="st1" d="M423.3,247c0,1.2-.9,1.9-2.1,1.2-1.2-.7-2-2.2-2.1-3.7,0-1.4.9-1.9,2.1-1.2,1.2.9,2,2.2,2.1,3.7Z"/>
        <path class="st24" d="M421.1,244.4c-.2,0-.4-.2-.6,0h-.2l-8.8,5.2,2.9,1.6,7.5-4.2.2-.2c0-.2.2-.2.2-.5,0-.7-.5-1.4-1.1-1.9h0Z"/>
        <path class="st32" d="M410.1,263.3l6,3.5-56.3,26.6c-3.4,2.1-5.7,5.6-6.3,9.6l-7.7,49.8c0,.5-.5.7-1,.7h-.2c-.2-.2-.5-.5-.4-1.7l4.5-52.9c.5-3.5,2.4-6.8,5.2-8.9l56.4-26.5h-.1Z"/>
        <path class="st0" d="M405.9,354.9l46.7-27c1.7-1.1,2.9-3,2.9-5.1v-2.7c0-2.1-1.2-4-2.9-5.1l-46.7-27c-1.9-.9-4-.9-6,0l-46.7,27c-1.7,1.1-2.9,3-2.9,5.1v2.9c0,2.1,1.2,4,2.9,5.1l46.7,27c1.9.9,4.1.9,6,0h0Z"/>
        <path class="st10" d="M405,355.4c.2,0,.6-.2.9-.4l46.7-27c1.7-1.1,2.9-3,2.9-5.1v-2.7c0-1.9-1-3.5-2.4-4.7,1,.9.9,2.2-.5,3l-46.6,26.8-1.1,10.1h.1Z"/>
        <path class="st11" d="M350.4,320.1v2.9c0,2.1,1.2,4,2.9,5.1l46.7,27c1.6.7,3.4.9,5,.4l1.1-10.1h-.2c-1.9,1.1-4,1.1-6,0l-46.7-27c-1.4-.7-1.6-2.1-.5-3-1.4,1.1-2.4,2.9-2.4,4.6h.1Z"/>
        <path class="st0" d="M389.3,297.6l46.7,27c1.1.6,2.4.7,3.5.7h.7c.2,0,.2-.2.5-.2s.7-.2,1-.4l2.4-1.4c1.9-1.1,3-2.9,3.5-5l7.1-39.6v-1c0-.5,0-1-.2-1.5-.2-.9-.9-1.6-1.6-2.2l-.2-.2-.2-.2-46.7-27c-1.9-.9-4-.9-6,0l-2.4,1.4c-.5.2-1,.7-1.4,1.1l-.2.2c-.2.4-.6.7-.9,1.1l-.2.2v.2c-.2,0-.2.2-.2.2,0,0,0,.2-.2.4v.2h0v.7l-7.1,39.8c-.2,2.1.7,4,2.4,5.1v.2h0Z"/>
        <path class="st0" d="M446.7,283.2l-7.1,39.8c0,1.2-1.1,2.2-2.4,2.1-.4,0-.7-.2-1.2-.4l-46.7-27c-1.7-1.1-2.6-3-2.4-5l7.1-39.8c0-1.2,1.2-2.2,2.4-2.1.4,0,.7.2,1.2.4l46.7,27c1.6,1.1,2.5,3.1,2.2,5h.1Z"/>
        <path class="st11" d="M446.7,283.2l-7.1,39.8c0,1.2-1.1,2.2-2.4,2.1-.4,0-.7-.2-1.2-.4l-46.7-27c-1.7-1.1-2.6-3-2.4-5l7.1-39.8c0-1.2,1.2-2.2,2.4-2.1.4,0,.7.2,1.2.4l46.7,27c1.6,1.1,2.5,3.1,2.2,5h.1Z"/>
        <path class="st10" d="M437.2,325c.7.2,1.5.2,2.2.2h.5l.4-.2h.5c.2,0,.7-.2,1-.4l2.4-1.4c1.9-1.1,3-2.9,3.5-5l7.1-39.6v-1c0-.5,0-1-.2-1.5l-8.3,4.7c.2.7.4,1.7.2,2.5l-7.1,39.6c0,1.2-1.1,2.2-2.4,2.2h0l.2-.2h0Z"/>
      </g>
      <g id="freepik--Bottom--inject-2">
        <path class="st21" d="M341.4,343.1s-5.5,25.1-8.1,32.2c-1.6,4.6-6.6,9.8-10.7,13.4-.9.7-2.9,2.4-3.6,2.9-1.7,1.2-.5,2.4,1,2.7,3.5.9,7.1.2,11.2-2.1,4.7-2.7,6.7-5,10.9-8.3,1.2-1,2.5-2.2,3.5-3.5.4-.9.6-1.9.5-2.9s0-2.1.2-3.1c.7-3.4,12.5-23,12.5-23l-17.4-8.4h-.1Z"/>
        <path class="st15" d="M309.6,394.9c-.5,1.2-.2,2.6.6,3.6,1.5,1.2,5.8,3.4,11.6,2.7,5.7-.6,8.9-2.4,11.2-4.1s5.6-4.5,8.2-5c2.4-.5,5.1-1.5,5.8-2.2s.7-3.9.7-3.9l-38.1,8.8h0Z"/>
        <path class="st1" d="M346.3,374.5c.9,0,1.1.9,1,1.7-.7,4.1,1.1,7.6.4,10.8-.2,1.6-4.3,2.7-6.8,3.6-3,1.2-5.7,2.9-8.2,5-3.6,2.5-7.8,3.9-12.3,4.2-5.7,0-9.4-1.5-10.6-3.5-1.4-2.5-.4-5,6.5-7.6,2.6-.9,5-2,7.3-3.4,6.5-5,7.6-7.1,8.9-9.4.7-1.2,1-1.7,2.6-1.7s4,.7,5.5,2.1c.5,1.1.6,2.2.5,3.4,0,0,0,.4.2.4.9-.9,1-2.4,1.9-3.4.5-.7,2.9-1.2,2.9-1.2l.2-1Z"/>
        <path class="st36" d="M316.2,388.6c8.3.6,12.4,5.8,12.8,8.8-4.5,1.9-7,2.1-8.6,2.1-5.7,0-9.7-1.5-10.8-3.5-1.2-2.2,0-5.6,6.7-7.5h-.1Z"/>
        <path class="st17" d="M328.3,390.1h.2c.2,0,.2-.4,0-.5h0c-2-2-4.7-3-7.6-2.9-.2,0-.4.2-.4.4h0c0,.2.2.4.4.4h0c2.5,0,5,.9,6.7,2.6h.6Z"/>
        <path class="st17" d="M331.9,387.4h.2c.2,0,.2-.4,0-.5h0c-2-2-4.7-3-7.6-2.9-.2,0-.4.2-.4.4s.2.4.4.4c2.5,0,5,.9,6.7,2.6h.6Z"/>
        <path class="st17" d="M335.2,384.8h.2c.2,0,.2-.4,0-.5h0c-2-2-4.7-3-7.5-2.9-.2,0-.4.2-.4.4s.2.4.4.4c2.5,0,5,.9,6.7,2.6h.5Z"/>
        <path class="st17" d="M338.3,382.1h.2c.2,0,.2-.4,0-.5h0c-1.6-2-5.1-3.4-8.1-3-.2,0-.4.2-.4.4s.2.4.4.4h0c2.7-.2,6,1,7.5,2.7h.4Z"/>
        <path class="st21" d="M366.4,357.5s-5.6,25.1-8.1,32.2c-1.6,4.6-6.6,9.8-10.7,13.4-.9.7-2.9,2.4-3.6,2.9-1.7,1.2-.5,2.4,1,2.7,3.5.9,7.1.2,11.2-2.1,4.7-2.7,6.7-5,10.9-8.3,1.2-1,2.5-2.2,3.5-3.5.4-.9.6-1.9.5-2.9s0-2.1.2-3.1c.7-3.4,12.5-23,12.5-23l-17.5-8.4h0Z"/>
        <path class="st15" d="M334.6,409.1c-.5,1.2-.2,2.6.6,3.6,1.5,1.2,5.8,3.4,11.6,2.7,5.7-.6,8.9-2.4,11.2-4.1s5.6-4.5,8.2-5c2.1-.2,4.1-1.1,5.8-2.2.7-.7.7-3.9.7-3.9l-38.1,8.8h0Z"/>
        <path class="st1" d="M371.4,388.8c.9,0,1.1,1,1,1.7-.7,4.1,1.1,7.6.4,10.8-.2,1.6-4.3,2.7-6.8,3.6-3,1.2-5.7,2.9-8.2,4.8-3.6,2.5-7.8,3.9-12.3,4.2-5.7,0-9.4-1.5-10.6-3.5-1.4-2.5-.4-5,6.5-7.6,2.6-.9,5-2,7.3-3.4,6.5-5,7.6-7.1,8.9-9.4.7-1.2,1-1.7,2.6-1.7s4,.7,5.5,2.1c.5,1.1.6,2.2.5,3.4v.4c.9-.9,1-2.5,1.9-3.4.6-.7,2.9-1.2,2.9-1.2l.2-.9h.2Z"/>
        <path class="st36" d="M341.3,402.9c8.3.7,12.4,5.8,12.8,8.9-4.5,1.9-7,2.1-8.6,2.1-5.7,0-9.7-1.5-10.8-3.5-1.2-2.4,0-5.7,6.7-7.6h-.1Z"/>
        <path class="st17" d="M353.4,404.4h.2c.2,0,.2-.4,0-.5h0c-2-2-4.7-3-7.5-2.9-.2,0-.4.2-.4.4h0c0,.2.2.4.4.4,2.5,0,5,.9,6.7,2.6h.5Z"/>
        <path class="st17" d="M357,401.7h.2c.2,0,.2-.4,0-.5h0c-2-2-4.7-3.1-7.5-2.9-.2,0-.4.2-.4.4h0c0,.2.2.4.4.4,2.5,0,5,.9,6.7,2.6h.5Z"/>
        <path class="st17" d="M360.3,399.1h.2c.2,0,.2-.4,0-.5h0c-2-2-4.7-3-7.6-2.9-.2,0-.4.2-.4.4h0c0,.2.2.4.4.4,2.5,0,5,.9,6.7,2.6h.6Z"/>
        <path class="st17" d="M363.3,396.5h.2c.2,0,.2-.4,0-.5h0c-1.6-2-5.1-3.4-8.1-3-.2,0-.4.2-.4.4h0c0,.2.2.4.5.4,2.7-.2,6,1,7.5,2.7h.2,0Z"/>
        <path class="st32" d="M342,329.6c1.4-6.8,3-7.6,7.7-11.7,6-5.1,10.6-8.1,17.1-12.3,5.2-3.4,12.8-8.6,12.8-8.6l50.6,6c0,5.1.6,11.7-1.5,17.1-2.9,7.3-7.2,10.2-13.2,13.5-12.1,7-26.7,16-26.7,16,0,0-1.1,4.6-2.7,9.7-2.1,6.6-3.5,8.6-7.2,15.9-4.5,8.7-6.3,11.7-6.3,11.7,0,0-9.1,2-12.8-4.5,0,0,6.5-33,7.6-38.8,2.4-12.3,5.1-13.7,7.5-15.8l-12.1,8.6c-1.1,5-2.7,9.8-4.7,14.5-3,7.1-10.1,20.9-10.1,20.9-3.4,1-11.9-2.4-13.8-4.3,0,.2,5.1-25.8,7.7-38.3v.2h.1Z"/>
        <path class="st15" d="M362.8,337.1l12.1-8.6,20-13.5c-3.4-1.7-8.4-4.8-10.2-8.6.5,4,3.7,8.1,3.7,8.1l-25.6,22.6h0Z"/>
      </g>
      <path class="st21" d="M400.3,242.8c-9.1-.5-13.8,5.5-13.9,12.8v18.5l-22.7,8.4,3.4,10.1s18-2.5,24.5-3.6,9.1-3,9.3-10.1-.6-36.2-.6-36.2h.1Z"/>
      <g id="freepik--Chest--inject-2">
        <path class="st0" d="M378.9,297.7l6.8-8.7.5-11.9c-3.4-2.9-5-7.2-4.5-11.7.7-4.5,2.7-7.3,4.8-10.3,3.9-5.6,12.1-11.4,13.7-12.4,5.5.2,10.7,1,16,2,3.1.6,9.4,3.6,9.4,3.6-1.2,3.2-4.2,11.1-2.4,16.5,2.1,6.6,4.1,5.1,4.1,5.1,1.2,5.5,1.9,10.8,2.1,16.4.5,8.7.9,14.2,1,21-8.7,4.3-22.1,4.8-33,1-8.9-3.1-18.5-10.6-18.5-10.6h-.1Z"/>
        <path class="st11" d="M397.7,280.2c5.3,3.9,12.7,2.7,16.8-2.4-1.4,3.2-4.3,5.5-7.7,6-7.1,1-9.1-3.7-9.1-3.7h0Z"/>
      </g>
      <g id="freepik--Tablet--inject-2">
        <path class="st32" d="M358.2,271.9h0l1.1-1h0c.2-.2.6-.2,1.2,0l34.7,20.1c1.4,1,2.5,2.4,3,4.1l7.8,26.7c.2.7.2,1.4,0,1.7h0l-1.1,1h0c-.2.2-.6.2-1.2,0l-34.8-20.1c-1.4-1-2.5-2.4-3-4.1-2-7.1-5.7-19.5-7.8-26.7-.2-.9-.2-1.5.2-1.7h-.1Z"/>
        <path class="st15" d="M395.6,293.4c.7.7,1.2,1.9,1.6,2.9l7.8,26.7c.2.7.2,1.4,0,1.7l1.1-1h0c.2-.2.2-.7,0-1.7l-7.8-26.7c-.2-1-.7-1.9-1.5-2.7l-1.2.9h0Z"/>
        <path class="st1" d="M404.9,322.9l-7.8-26.7c-.5-1.7-1.6-3.1-3-4.1l-34.7-20.1c-1.2-.7-1.9,0-1.2,1.6,2.1,7.1,5.7,19.5,7.8,26.7.5,1.6,1.6,3.1,3,4.1l34.8,20.1c1.1.7,1.7,0,1.2-1.6h-.1Z"/>
        <path class="st32" d="M396.7,301.9l-2-6.7c0-.2-.2-.6-.5-.7l-2.4-1.4c-.2,0-.2,0-.2.2.4,1.2,1.6,5.5,2,6.7,0,.2.2.6.6.7l2.4,1.4s.2,0,0-.2h.1Z"/>
        <path class="st15" d="M394.6,296.6c-.2-.7-.7-1.4-1.4-1.9-.6-.2-.9,0-.7.7.2.7.7,1.4,1.4,1.9.6.2.9,0,.7-.7Z"/>
        <path class="st15" d="M395.6,300.1c-.2-.7-.7-1.4-1.4-1.9-.6-.2-.9,0-.6.7s.7,1.4,1.4,1.9c.5.2.7,0,.6-.7Z"/>
        <path class="st21" d="M416.2,309.8c4.5-1.9,17.1-6.5,20.6-7.8s8.6-5.2,4.5-9.1-8.2-5.7-13.7-2.4c-4,2.4-11.8,7.1-16.4,9.2-2,1-5.3.6-6,.6-1.9-.2-3.7-.4-5.5-.2l.6,2.2.4,1.5c-2.1.2-4.1.5-6.2.5s-3.2-1.5-5.3-2.2-3.6.4-2.5,1.4c.5.5,1.1,1,1.9,1.5-1,.7-1.7,1.6,0,3.4-.4.9-.2,2,.6,2.7,1.7,1.7,3.6,3.2,5.7,4.3,1.1.6,7.7,1,8.2.7,2.4-1,5.1-2.5,6-3s3.1-1.6,7.1-3.4h0Z"/>
        <path class="st21" d="M425.8,248.4c8.2,2.9,10.3,7,11.7,11.6,2.2,7.6,5.5,29.4,5.3,36,0,3.2-14.9,3.9-14.9,3.9v-8s-4-20-4.8-24c-1-5.8-1.7-15.5,2.9-19.5h-.1Z"/>
        <path class="st22" d="M427.6,290.5c2.9-1.6,5.1-2.9,10.1-2.4-3.4-1.1-7.2-.7-10.3,1l.2,1.4h0Z"/>
        <path class="st22" d="M388.4,304.8c.7.6,1.6,1.2,2.4,1.9s.7.6,1.2.9c0,.2.2.2.5.2h.7c2,.4,4,.6,6,.9h-3c-1,0-2,0-3-.2-.2,0-.5,0-.7-.2,0,0-.2,0-.4-.2s-.2-.2-.2-.2c-.4-.2-.7-.6-1.1-1-.7-.6-1.5-1.2-2.2-1.9h-.1Z"/>
        <path class="st22" d="M388.4,308.1c.7.6,1.6,1.2,2.4,1.9.4.2.7.6,1.2.9.2,0,.4.2.6.4s.4.2.6.2c1,.2,2,.2,3,.4s2,.2,3,.4c-2,0-4,0-6-.5-.2,0-.5,0-.7-.2-.2,0-.4-.2-.6-.4-.4-.2-.7-.6-1.2-.9-.7-.6-1.5-1.2-2.2-2.1h0Z"/>
        <path class="st22" d="M390.4,312.2c.6.2,1.2.7,2,1,.6.2,1.2.5,2,.7.7,0,1.4.2,2.1.2s1.5,0,2.2.2h-4.5c-1.5-.4-2.9-1.1-3.9-2.1h0Z"/>
      </g>
      <path class="st25" d="M421.1,204c-.6-.7-1.2-1.2-2-1.7-2-1.2-4-.7-6.2-1.4-1.5-.4-2.9-1.2-4.3-1.7-3.4-.7-7.1.2-9.6,2.7-1,.9-1.9,2.2-3.2,2.5-3,.5-5.8,2.2-7.6,4.8-1.1,1.4-1.4,3.2-.9,5,.4,1.2,1.4,2.4,1.4,3.5,0,1.9-1.7,3.4-2.4,5-.7,2,0,4.2,1.9,5.2-.4-1.9.5-3.9,2.2-4.8-.7,1.4-.6,3.1,0,4.5.7,1.4,1.7,2.6,2.9,3.5,1,.9,2.1,1.7,3.4,2.2,3,1,6.3-.2,9.3.7,1.2.5,2.4,1.2,3.2,2.1,1,.7,2.6.7,3.9.9,3.1,0,6.6,0,8.8-2.4,1.6-1.6,2.2-4.1,2.4-6.5,0-.6,0-1.2.2-1.9.5-1.2,1.6-2,2.4-3,.7-1.2,1-2.6.9-4,0-1.9-.2-3.9-.7-5.7-.6-1.9-1.9-3.5-3.4-4.6-.2,0-.4-.2-.6-.5s-.2-.5-.2-.7c-.2-1.2-.9-2.6-1.9-3.7h.2Z"/>
      <path class="st25" d="M439.3,208.1c.2-2.9-1.1-5.5-3.5-6.8-1.2-.7-2.9-.9-4-2-.5-.6-.9-1.2-1.2-1.9-.9-1.2-2.2-2.2-3.9-2.6-1.5-.2-3.1,0-4.5,1.1-.6.6-1.2,1.2-2,1.6-1.1.5-2.4.2-3.6.4-1,.2-1.9.7-2.7,1.4-.4.2-.7.7-1,1.1-.2.4-.2,1,0,1.4l8.6,15.7c.5,1.1,1.2,2,2.2,2.9,1,.7,2.2,1,3.4.6.7-.5,1.6-.9,2.5-1.2.7,0,1.6.2,2.4,0,1-.2,1.9-.7,2.2-1.9.4-.9.6-1.9.6-2.9s0-1.2.4-1.9c.5-.7,1.2-.9,2-1.4.7-.7,1.2-1.9,1.1-3s-.5-2.2-1.1-3.1c.9.6,1.7,1.4,1.9,2.5h.2Z"/>
      <g id="freepik--Head--inject-2">
        <g id="freepik--head--inject-2">
          <g id="freepik--head--inject-21">
            <path class="st21" d="M420.4,232.5c1.7,0,3.4-.6,4.5-2,2.2-2.9,2.4-5.5,1.1-7.2-1-1.4-3.4-2.2-4.8-1.1s-1.6,2-2.2,3.4-2.4.4-2-4.5c-3.4-1.2-3.2-7-5.1-9.1-3-3.4-7.6-2.1-8.9-1.2-1.9-1.2-4.3-1.2-6.2,0-2.1,1.2-3.4,3.9-3.7,12.5-.2,8.8,1.6,14.5,3.7,16.3,1.5,1.2,3.9,1.7,7.1,1.5l.2,3.9s-8.3,9.3,3,7.8c5-.6,9.4-2.9,12.8-6.5l-1.2-14.8c0-.2.2.9,1.9,1.1h0Z"/>
            <path class="st14" d="M402.7,232.1c.2.9,1.2,1.2,2.1,1,.7-.2,1.2-1.1,1.1-1.9l-3.2.9Z"/>
            <path class="st22" d="M405.9,231.9c0,.7-.5,1.2-1.2,1.5-.9.2-1.9-.2-2-1.2s.2-1.9,1.2-2c.9-.2,1.9.2,2,1.2v.5h0Z"/>
            <path class="st15" d="M405.4,224c.2.7.9.9,1.7.7s1.2-.5,1.1-1.2c-.2-.7-1-1.2-1.7-1.1-.7,0-1.2.9-1.1,1.7h0Z"/>
            <path class="st15" d="M394.6,223.5c0,.7.5,1.1,1.2,1.2s1.4,0,1.5-.7-.4-1.5-1.2-1.7h0c-.7,0-1.5.5-1.6,1.2h.1Z"/>
            <path class="st15" d="M394.5,219.4l2.9-1.9c-.4-.7-1.4-1.1-2.2-.6h0c-.7.5-1,1.5-.6,2.4h0Z"/>
            <path class="st15" d="M405.9,218.1l3.6.9c.2-.9-.2-1.9-1.2-2.2h0c-1-.2-2.1.4-2.4,1.2h0Z"/>
            <path class="st1" d="M389.9,220.4c0,.5.2.9.6,1.2,0,0,.2.2.2.5.2,1.2.4,2.4.7,3.5.6,1.6,2.4,2.6,4,2.4.5,0,.9,0,1.4-.2h0c.4,0,.7-.2,1.1-.5h.2v-.2h0v-.2h0l.2-.2c.4-.4.7-.9.9-1.4.6-1.2.5-3,1.5-3.2h.2c1.2,0,1.1,1.9,1.9,3.2s1.9,2.6,4.7,2.6h1.7l.2-.2h0c.2,0,.5-.2.7-.4l.2-.2c.2,0,.2-.2.5-.4.4-.4.7-.7.9-1.2.4-1.2.7-2.4.9-3.6,0-.2,0-.4.2-.5.2-.4.6-.7.7-1.2s-.2-1-.7-1.1h-.7c-2.4-.2-4.6-.2-7,.2-2.2.6-3,1.2-4.2,1.4s-1.9-.6-3.9-1.2c-2.1-.4-4.3-.4-6.5,0h-.6c-.5.5-.7.9-.7,1.2h.4,0ZM404.3,221.2c.2-.2.4-.4.6-.5h.2l.2-.2c.2,0,.6-.2.9-.2h.4c.2-.2.6-.2,1-.2h.2c2.1-.2,3.4.2,3.9.6s.2,2.4,0,3.2h0v.9h0v.4h0v.2h0v.2h0v.2h0c-.7,1-1.9,1.6-3,1.5-1.1,0-2.2-.2-3.1-1h0c-.5-.5-.7-1.2-1-1.9-.2-1-.2-2.2,0-2.9l-.4-.4h0ZM392,220.7c.2,0,.2-.2.5-.2h.2v-.2h2.9c1.2,0,2.5.5,3.4,1.2.2.9.4,1.9,0,2.9,0,.2,0,.5-.2.7h0v.2h0v.4h-.2v.2h0c-.7,1.1-1.9,1.7-3.1,1.6-.5,0-1.1,0-1.6-.2-1.1-.6-1.9-1.7-2-3-.2-1.2-.5-3,0-3.4h0l.2-.2h0Z"/>
            <path class="st22" d="M397.7,227.9l5,1.9.4-5.8c-.2-.9-.4-1.7-1.2-1.7l-4.1,5.7h0Z"/>
            <path class="st1" d="M413.5,218.9l7.6,3.1c-.4.2-.7.6-1.1,1l-6.6-2.5v-1.6h.1Z"/>
          </g>
        </g>
        <path class="st22" d="M403.8,240.9c4.5-.4,10.2-2.4,11.7-5.3-.7,3.1-3.7,5-6.1,5.8-1.7.6-3.6,1-5.5,1.2v-1.9h-.1Z"/>
      </g>
      <path class="st21" d="M359.3,285.2c-1.1-1.6-1-1.9-.4-2.6,1-1.2,2.5-2,4.1-2s2.4,0,3.5.4c.7.4,0,1.9-1.7,2.4-2.9.6-2.9,1.4-2.9,1.4,0,0,2.6-.5,3.7-.6,1.4,0,2.9.4,4.2.7,1.2.2,1.4,1.9-.6,2.4l2.2.4c1.5.2,2.1,1.1.7,2-.4.2-.9.5-1.4.5,0,0,1.6,0,1.7.6,0,1.6-.9,2-4.3,2.9-2.9.7-3.7,2.1-3.4,3.4v.5s-1.2-.7-2.4-1.6c-.7-.6-1.5-1.2-1.1-2.5,0,0-1.9,0-1.9-1.1s0-1.6.5-2.4c-.7-.4-1.1-1.1-1-1.9,0-.7.2-1.4.7-2l-.4-.6h-.1Z"/>
      <path class="st22" d="M369.3,287.1c-.7,0-1.2-.2-2-.2s-1.2.2-2,.6c-1.2.5-2.4,1.1-3.5,1.9,1.2-.2,2.5-.7,3.7-1.2.6-.2,1.2-.5,1.9-.7.6,0,1.2,0,2-.2h-.1Z"/>
      <path class="st22" d="M370.9,290c-.7-.2-1.5-.2-2.2,0s-1.4.4-2.1.6c-1.2.5-2.6,1.2-3.9,2,1.4-.4,2.7-.9,4-1.4,1.2-.6,2.7-1,4.1-1.1h.1Z"/>
      <g id="freepik--Wheel--inject-2">
        <path class="st1" d="M452.1,294.4l-.7,3.7-40.9,24.4c-3,2.4-5,6-5.2,9.8l-5,52.4c0,.5.2.9.7.9h.5l16.4-9.6v-3.4l-13.5,8,6-44.8c.7-3.9,3-7.5,6.3-9.6l36.4-23.1c4-2.5,2.4-6.5-1-8.7h0Z"/>
        <path class="st32" d="M415.1,367.3v4.1c0,3.9,1.1,7.7,3.1,11.1,0,.2.2.5.5.7h0l.4.7c3.5,4.8,8.8,8,14.8,8.6h2.4c4.3-.2,8.6-1.5,12.3-3.9l1.9-1c15.5-8.9,28.1-30.7,28.1-48.7v-4.1c0-3.5-.9-7-2.5-10.1h0l-.2-.4-.2-.2c0-.2-.2-.5-.5-.7s-.2-.2-.2-.4l-.2-.2s-.2-.2-.2-.5l-.2-.2c-3.5-4.5-8.7-7.5-14.4-8.1h-2.1c-4.3.2-8.6,1.5-12.3,3.9l-1.9,1c-15.5,9.1-28.1,30.8-28.1,48.7v-.2h-.1ZM425.7,368.4c0-15.2,10.7-33.5,23.7-41.1s23.7-1.4,23.7,13.8-10.7,33.5-23.7,41.1c-13,7.6-23.7,1.4-23.7-13.8Z"/>
        <path class="st1" d="M420.3,370.4v2.1c0,8.8,3.1,15.2,8.1,18h.2v.2h0l.4.2c.2,0,.5.2.7.4l.4.2.4.2h.4c.2.2.6.2,1,.4h.5l.5.2h2.4c4.5-.2,8.7-1.5,12.5-3.9l1.9-1c15.5-8.9,28.1-30.7,28.1-48.7v-8.2c-.2-.4-.2-.7-.2-1s0-.6-.2-.9c0-.5-.2-1.1-.5-1.6h0c0-.2-.2-.5-.2-.7-.2-.5-.4-1-.6-1.5l-.2-.4-.2-.4-.2-.2c0-.2-.2-.5-.5-.7s-.2-.2-.2-.4l-.2-.2s-.2-.2-.2-.5-.2-.2-.4-.4l-.4-.4-.7-.7-.4-.4c-.2-.2-.6-.5-.9-.7,0,0-.2-.2-.4-.2,0,0-.2-.2-.5-.2h0c0-.2-.2-.2-.4-.2-5.1-2.9-12.1-2.4-19.6,2l-1.9,1c-15.2,9.3-27.8,31.2-27.8,49.1l-.2-.5h0ZM425.7,368.4c0-15.2,10.7-33.5,23.7-41.1s23.7-1.4,23.7,13.8-10.7,33.5-23.7,41.1c-13,7.6-23.7,1.4-23.7-13.8Z"/>
        <path class="st0" d="M431.6,378.2c3.7,4.5,10.2,5.1,17.6.7,11.7-6.7,21.1-23.1,21.1-36.5s-1.9-10.4-5-12.8c2.2,2.6,3.4,6.5,3.4,11.3,0,13.4-9.4,29.8-21.1,36.5-6.3,3.7-12.2,3.7-16,.7h0Z"/>
        <path class="st11" d="M431.6,378.2c3.7,4.5,10.2,5.1,17.6.7,11.7-6.7,21.1-23.1,21.1-36.5s-1.9-10.4-5-12.8c2.2,2.6,3.4,6.5,3.4,11.3,0,13.4-9.4,29.8-21.1,36.5-6.3,3.7-12.2,3.7-16,.7h0Z"/>
        <path class="st0" d="M425.7,368.4c0,15.2,10.7,21.2,23.7,13.7,13-7.6,23.7-26,23.7-41.1s-10.7-21.2-23.7-13.8c-13,7.6-23.7,26.1-23.7,41.2ZM428.3,366.8c0-13.4,9.4-29.8,21.1-36.5s21.1-1.2,21.1,12.2-9.4,29.8-21.1,36.5-21.1,1.2-21.1-12.2h0Z"/>
        <path class="st33" d="M429,360.1v-.7l18.5-5,.4-.6-13.5-7.8.2-.6,13.5,7.8.2-.7-5-18.1.5-.5,4.8,17.9.6-.7,4.7-23.1.7-.2-4.6,22.7h.7l12.7-22.1c.2,0,.4.2.6.2l-12.7,22,.2.7,17.5-15.5c0,.2,0,.5.2.7l-17.8,15.8-.2.9,18.1-5v.7l-18.5,5-.4.6,13.8,8c0,.2-.2.4-.2.6l-13.8-8-.2.7,5,18.6-.5.5-5-18.4-.6.7-4.8,23.7-.7.2,4.8-23.4h-.7l-13,22.6c-.2,0-.4-.2-.6-.2l12.9-22.4-.2-.7-17.6,15.7c0-.2,0-.5-.2-.7l18-15.9.2-.9-18,4.7h-.1Z"/>
        <path class="st24" d="M440.2,358.5c0,2.5.9,4.2,2.2,5,.4.2.7.4,1.1.6.7.5,1.7.7,2.6.6h1.4l.2-.2h.2c0-.2.2-.2.5-.2s.5-.2.7-.4c4.7-3,7.6-8.1,8-13.8v-3s0-.2-.2-.4v-.2s-.2-.2-.2-.4h0c0-.2-.2-.2-.2-.5h0l-.4-.4h0s-.2,0-.2-.2c-.4-.2-.7-.4-1-.6-1.4-.9-3.5-.7-5.7.5-4.8,3.2-7.7,8.3-8.1,13.8h-.9,0ZM450.1,360.2c-.7-1.2-.7-3.9,0-4.7s.7.4,2.9-.6c.5-.2.9-.5,1.4-.7-.7,1.9-2.6,5-4,6h-.2,0ZM445.4,350.5v-.2c1.4-1.7,3.1-3.1,5.2-4,0,2.1-.7,4.2-2.1,6,0-.2-.2-.5-.6-.6l-1.2-.7h-.2c-.4-.2-.7-.2-1.1-.2h.1ZM453.5,345.9c.9,1.1,1.4,2.5,1.4,4-.2,1.5-2.7,3-4.2,3.2,0-.7,1.1-1.1,1.7-3.5.5-1.9.5-3.4,1.1-3.7h0ZM444,362.7h0c-.6-1,1.9-4.3,3.4-5.6-.2.7-.2,1.5,0,2.4.4,1.6,1.2,2.4.5,3-1.1.6-2.5.7-3.9.4h0ZM442.6,359.3c0-2,.5-4,1.2-6,.5-.9,1.6-1.2,2.5-.7.5.4.7,1,.5,1.6-.4,1.2-1.1.4-2.9,2.7-.6.9-1.1,1.9-1.5,2.4h.1Z"/>
        <path class="st11" d="M440.2,358.5c0,2.5.9,4.2,2.2,5,.4.2.7.4,1.1.6.7.5,1.7.7,2.6.6h1.4l.2-.2h.2c0-.2.2-.2.5-.2s.5-.2.7-.4c4.7-3,7.6-8.1,8-13.8v-3s0-.2-.2-.4v-.2s-.2-.2-.2-.4h0c0-.2-.2-.2-.2-.5h0l-.4-.4h0s-.2,0-.2-.2c-.4-.2-.7-.4-1-.6-1.4-.9-3.5-.7-5.7.5-4.8,3.2-7.7,8.3-8.1,13.8h-.9,0ZM450.1,360.2c-.7-1.2-.7-3.9,0-4.7s.7.4,2.9-.6c.5-.2.9-.5,1.4-.7-.7,1.9-2.6,5-4,6h-.2,0ZM445.4,350.5v-.2c1.4-1.7,3.1-3.1,5.2-4,0,2.1-.7,4.2-2.1,6,0-.2-.2-.5-.6-.6l-1.2-.7h-.2c-.4-.2-.7-.2-1.1-.2h.1ZM453.5,345.9c.9,1.1,1.4,2.5,1.4,4-.2,1.5-2.7,3-4.2,3.2,0-.7,1.1-1.1,1.7-3.5.5-1.9.5-3.4,1.1-3.7h0ZM444,362.7h0c-.6-1,1.9-4.3,3.4-5.6-.2.7-.2,1.5,0,2.4.4,1.6,1.2,2.4.5,3-1.1.6-2.5.7-3.9.4h0ZM442.6,359.3c0-2,.5-4,1.2-6,.5-.9,1.6-1.2,2.5-.7.5.4.7,1,.5,1.6-.4,1.2-1.1.4-2.9,2.7-.6.9-1.1,1.9-1.5,2.4h.1Z"/>
        <path class="st24" d="M441.4,359.2c0,5,3.5,7.1,8,4.6,4.7-3,7.6-8.1,8-13.8,0-5-3.5-7.1-8-4.5-4.7,3-7.6,8.1-8,13.7ZM449.4,353.1c-.9.4-.2-1.2-1.9-1.7-1.2-.5-2.6,0-2.1-1.1s4.3-4.1,5.8-4.1-.6,6.3-1.9,7h0ZM456.1,350.6c-.2,2.1-5.2,4.3-5.5,2.9-.2-1,1-1.1,1.7-3.9.6-2.1.5-3.6,1.2-3.9s2.6,2.7,2.4,4.8h.1ZM450.3,355.5c.7-1,.7.4,2.9-.6,1.6-.7,2.9-2.2,2.9-1.2s-2.6,5.7-4.3,7.1-2.7-3.9-1.4-5.3h0ZM448.6,356.3c.7.4-.5,1.4,0,3.4.4,1.6,1.2,2.4.5,3s-4.3.9-5.1-.4,3.6-6.6,4.6-6h0ZM442.7,360.7c-.5-.5,0-5.2,1.1-7.3s5-.2,4.2,1.5c-.4,1.2-1.1.4-2.9,2.7-1.2,1.9-2,3.7-2.5,3.1h0Z"/>
        <path class="st32" d="M449.3,357.5c-1.2.7-2.4,0-2.4-1.4s1-3.2,2.4-4.2c1.2-.7,2.4,0,2.4,1.4s-.9,3.2-2.4,4.2Z"/>
      </g>
    </g>
  </g>
  <g id="freepik--character-2--inject-2">
    <g id="freepik--character--inject-2">
      <g id="freepik--bottom--inject-2">
        <path class="st35" d="M169.1,323.8c.7-10.4-.4-18.5.4-34.7h0c0-4.2.2-8.6.5-12.7.9-13.3,3-18,3.2-20.5,0,0,.4-20.7,1.2-50.1.4-13.8,4.5-18,7.6-25.2h37.9c4.2,18,5.5,57.3,5.3,75.8,0,9.4-3.1,59.3-3.2,60.5-.2,4.1,0,5.7,1.7,7.6,3.4,3.6,8.3,7.1,12.5,10.2-.6,1.6-6.5,2.4-9.1,1.1-3.4-1.7-6.5-3.7-9.4-6-3.5-2.6-8-4.6-8.1-8.6v-.7c0-2.4-5.5-36.2-6-44-.4-6.7.4-18.3.4-18.3l-4.5-28.6s-2.7,16.9-5.5,28.5c-2.2,9.4-6,25.5-8.3,37h0c-2.4,13.3-6,22.9-6.5,29.4-.2,1.6-2,17.3-2.7,20.9s-8.6,3.7-9.1-2.5c-.2-4.1,1.2-17.4,1.2-19.3h.2Z"/>
        <path class="st16" d="M199.9,229.7l3.2-20.6s12.3-1.5,16.9-5.8c0,0-5.6,8.1-14,9.2l-3.5,17.1,1.9,28.3-4.5-28.3h0Z"/>
        <path class="st15" d="M242.9,339.7c.4,1.2.2,2.5-.6,3.4-1.2,1.2-5.3,3.1-10.6,2.5-5.2-.6-8.1-2.2-10.2-3.9s-5.1-4.2-7.6-4.7c-1.9-.2-3.7-1.1-5.3-2.1-.7-.7-.6-3.7-.6-3.7l34.8,8.6h.1Z"/>
        <path class="st1" d="M209.7,319.4s-.4,0-.5.7-.2,3.4-.6,4.6c-.5,2.4-.7,5-.4,7.5.2,1.5,3.9,2.6,6.2,3.4,2.7,1.2,5.2,2.7,7.6,4.6,3.4,2.4,7.1,3.7,11.2,4,5.2,0,8.6-1.4,9.7-3.4,1.2-2.4,1-4.5-5.1-7.1-1.1-.5-5.1-2.9-6.5-3.7-1.5-.9-2.9-1.9-4.1-3-.7-.6-1.2-1.2-1.9-1.9s-1.1-1.2-1.5-1.9c0-.2,0-.3-.2-.5-.2-.5-.2-.9-.4-1.4,0-.5-.2-1.2-.6-1.5-.7-.2-1.4-.4-2.1-.2-1.1.2-2.2.4-3.2.7-.9,0-1.9.7-2.2,1.6-.2.7-.5,1.4-.5,2.2v1.4s-.4-.6-.5-.7c-.2-.4-.2-.7-.5-1.2-.2-.4-.5-.9-.7-1.2s-.6-.7-1-1c-.2-.2-.7-.4-1-.7-.5-.2-.6-.7-.7-1.2h-.4Z"/>
        <path class="st36" d="M238.4,334.4c-7.6.6-10.7,6.1-10.9,9.1,1.7.6,3.5,1,5.5,1.1,5.2,0,8.8-1.4,9.8-3.4,1.2-2.4,1.1-5-4.3-6.8h0Z"/>
        <path class="st17" d="M226.4,335.2h-.2c-.2,0-.2-.4,0-.5h0c1-1.2,4.8-3.9,7.6-3.5.2,0,.4.2.2.4s-.2.4-.4.2c-2.6-.2-6.1,2.2-7,3.4h-.2Z"/>
        <path class="st17" d="M223.2,333.5h-.2c-.2,0-.2-.4,0-.5h0c1-1.2,4.8-3.9,7.6-3.5.2,0,.4.2.2.4h0c0,.2-.2.2-.4.2h0c-2.6-.2-6,2.2-7,3.4h-.2Z"/>
        <path class="st17" d="M220,331.3h-.2c-.2,0-.2-.4,0-.5,1-1.2,4.8-3.9,7.6-3.5.2,0,.4.2.2.4,0,.2-.2.4-.4.2-2.6-.2-6.1,2.2-7,3.4h-.2Z"/>
        <path class="st17" d="M217.1,329.1h-.2c-.2,0-.2-.4,0-.5h0c1.4-1.9,5.5-3.9,8.1-3.6.2,0,.2.2.2.4s-.2.4-.4.2c-2.5-.2-6.2,1.7-7.6,3.4,0,.2,0,.2-.2.2h.1Z"/>
        <path class="st15" d="M179.4,348.4c-.2,3.6-.7,6-2,8.1-1.2,2-3.9,2.9-6.1,2.1-2.4-.6-5.5-2.2-6.2-5.3-.7-2.9-1-5.6-.6-8.6l14.9,3.7h0Z"/>
        <path class="st1" d="M169.2,322.6c-1,0-1.2,5-1.9,9.7-.6,5.1-2.1,7.3-2.7,11.6-.6,4.8.2,7.1,1.9,9.9s7.6,5.8,10.7,1.6c2.4-3.4,2.5-7.2,2.4-12.1,0-4.1,0-8.1.2-12.3.2-3.6,1-7.2,0-7.6,0,.5,0,1.2-.2,1.7,0,.7,0,1.2-.2,1.9,0,.2-.2.5-.4,0v-.9c0-1.2-.5-1.4-.9-1.5-1.5-.2-3.1-.5-4.6-.6-.7,0-3.4-.2-3.7.2-.2.4-.2.9-.2,1.4,0,.7-.2,1.2-.2,1v-4.2h0Z"/>
        <path class="st36" d="M164.4,346.5c-.2,2.6.5,5.1,1.9,7.3,1.7,2.9,8.1,5.8,11.2,1.6,1.2-2.1,2-4.5,2.1-7.1-1.9-3.2-12.4-4.6-15.2-1.9h0Z"/>
        <path class="st17" d="M177.3,343.1h0c-2.9-1.1-6.1-1.4-9.1-.9-.2,0-.4,0-.4-.2h0c0-.2,0-.4.2-.5,3.2-.6,6.6-.2,9.7.9.2,0,.2.2.2.5-.2.2-.4.4-.5.2h-.2Z"/>
        <path class="st17" d="M168.1,338.6c-.2,0-.2-.2-.2-.4s0-.2.2-.2c4.5-1.5,9.4.7,9.7.9.2,0,.2.2,0,.5,0,0-.2.2-.4,0,0,0-5-2.2-9.1-.7h-.2Z"/>
        <path class="st17" d="M168.4,335.2s-.2,0-.2-.2,0-.4.2-.5c3.2-1,6.7-.7,9.8.7.2,0,.2.2,0,.5h0c0,.2-.2.2-.5,0,0,0-4.6-2.4-9.1-.7h-.2v.2Z"/>
        <path class="st33" d="M168.6,331.9s-.2,0-.2-.2,0-.4.2-.5c4.6-1.7,9.7.7,9.8.9s.2.2,0,.5c0,.2-.2.2-.5,0h0s-5-2.5-9.2-.9h0v.2h-.1Z"/>
        <path class="st1" d="M179.4,180.7c-4.5,8.1-7,14.8-7.3,39.3s.2,31.3.2,34.2-1.9,8.1-3.4,22.6c-1.5,14.4.2,31.7.2,31.7,0,0,1,2.4,6.5,2.9,5.1.5,7.6-1.5,7.6-1.5,0,0,7.1-28.1,8.9-36.8s7.6-37.3,7.6-37.3l3.4,23.2s-1.6,8.1,0,20.6c1.6,12.5,4.3,25.7,4.3,25.7,2.5.9,5.1,1.2,7.8,1.2s5.3-.7,7.6-2c0,0,3.6-37.5,3.6-51.8s-1.1-50.9-4.3-72.2l-42.9.4v-.2h.1Z"/>
        <path class="st15" d="M204.5,207.9l-4.5,27.6,3.4,23.2-1.4-23.5,4-22.6c3.4-.7,11.3-5,13.5-10.9-5.5,5.6-14.9,6.3-14.9,6.3h-.1ZM188.4,191.9c.6-2.4,1.2-4.6,2-7-1.2,2.1-2.4,4.3-3.1,6.6s-1.5,4.6-2.1,7.1-1,4.7-1.2,7.1-.5,4.8-.5,7.2c.6-2.4,1.1-4.7,1.6-7.1s1.1-4.7,1.6-7.1,1.2-4.7,1.9-7.1v.2h-.1ZM184.9,190.1c.7-1.4,1.6-2.9,2.4-4.3-1.2,1.1-2.4,2.4-3.4,3.7-1,1.2-1.9,2.7-2.7,4.1-.7,1.4-1.5,2.9-2,4.5-.6,1.5-.9,3.2-1.1,4.8l2.2-4.3c.7-1.4,1.5-2.9,2.4-4.2s1.5-2.9,2.4-4.3h-.1ZM182,282.3c-1.2,7.6-2.6,14.9-3.7,22.5,1.7-7.5,3.4-14.8,5-22.2s3-14.8,4.5-22.4,2.4-15,3-22.6,1.2-15.2,1.7-22.7c-1,7.6-2,15-2.9,22.6s-2,15-3.4,22.5c-1.2,7.5-2.9,15-4.2,22.6h0v-.2ZM221.2,244.4c0,3.4.2,6.6.2,9.8s-.2,6.6-.4,9.9l-.5,9.9c-.2,6.6-.6,13.3-.7,19.9.7-6.6,1.4-13.2,2-19.8.5-6.6,1.1-13.2,1.2-19.9,0-6.7-.6-13.3-1.2-19.9s-1.4-13.2-2.4-19.8l1.2,19.9c.2,3.2.4,6.5.5,9.8h0Z"/>
      </g>
      <g id="freepik--Top--inject-2">
        <path class="st35" d="M212.6,135.7c7.7,1.7,10.1,4.5,14.7,10.8,2.7,3.7,10.8,16.4,10.8,16.4,1.2-.7,12.3-6.7,15-9.3,3-2.7,2.4-4.5,2.9-6.6.4-2.2,1.5-3.7,1.7-7.2,0-1.7,1.9-1,2.4,0,1.1,2.2.2,5.6,1.2,5.6,1.2-.5,2.2-1.2,3-2.2,2.2-2.4,3-4.7,5-7.3.7-1,1.7-2,3.1-1.7h.4c.2,0,.2.2.2.5,0,.4,0,.7-.2,1.1,0,.2-.4,1-.4,1,0,0,1.2.4,1.2,1s0,1.7-.5,2.5c.5.5,1.1,1.5,0,3.4.4.2,1.2,1.9,0,4.3-1.2,2.4-2.7,4.5-4.5,6.5-2.6,2.9-4.8,3.7-8.2,6.6s-9.8,9.4-15.4,13.8c-6.5,5-8.8,6.2-13.4,2.4-2.4-1.9-17-19.5-17-19.5l-1.9-22.1v.2h-.1Z"/>
        <path class="st31" d="M262.3,147c1,2,.2,5.6-2.9,7.7,3.4-.7,5.5-5.3,2.9-7.7Z"/>
        <path id="freepik--chest--inject-2" class="st32" d="M174.8,192c1.7-7.6,3.1-13.3,3.1-15,0-7.2-2-16.9-2.6-21.1-1.4-9.2-.7-16.4,1.2-18.1l12.4-4.3s12.3,0,14.3.2c1,0,9.1,2,9.1,2,2.6,2.4,4.7,5.1,6.3,8.1,2.4,4.1,2.7,7.7,3.1,16.6.5,11.3,1.9,24.1,1.9,32.1-9.3,5.8-36.8,6.7-48.9-.4h.1Z"/>
        <g id="freepik--Book--inject-2">
          <path class="st0" d="M245,159.3c-.2-1.1.2-2.2,1-2.9,1.2-1,2.7-1.4,3.4-3.9l2.5,1.5-3.1,5.3h-3.7Z"/>
          <path class="st7" d="M245,159.3c-.2-1.1.2-2.2,1-2.9,1.2-1,2.7-1.4,3.4-3.9l2.5,1.5-3.1,5.3h-3.7Z"/>
          <path class="st0" d="M245,159.3c-1.9-1.7-4.5-2.4-7-1.9-4.5.9-6.2,2.1-14.8,1.9l.7,3.1,22.2-1.4-1.4-1.9h.1Z"/>
          <path class="st7" d="M245,159.3c-1.9-1.7-4.5-2.4-7-1.9-4.5.9-6.2,2.1-14.8,1.9l.7,3.1,22.2-1.4-1.4-1.9h.1Z"/>
          <polygon class="st0" points="223.3 159.6 200 172.5 200 175.7 224 162.5 223.3 159.6"/>
          <polygon class="st7" points="223.3 159.6 200 172.5 200 175.7 224 162.5 223.3 159.6"/>
          <polygon class="st8" points="223.3 159.6 200 172.5 200 175.7 224 162.5 223.3 159.6"/>
          <g class="st26">
            <path d="M249.9,154.3c-.2.5-.5,1-.9,1.4s-.7.7-1.2,1.1-.9.7-1.2,1.1c-.2.2-.2.4-.4.7,0,.2-.2.5-.2.7h-.2c0-.2,0-.6.2-.9,0-.2.2-.5.5-.7.4-.4.7-.7,1.2-1.1s.9-.7,1.2-1.1c.5-.2.7-.7,1-1.2h0Z"/>
            <path d="M249.6,155.8c-.2.2-.4.6-.7.9l-.7.7c-.2.2-.5.6-.7.9-.2.2-.2.6-.4,1h-.2c0-.4.2-.7.4-1.1.2-.2.5-.6.7-.9l.7-.7c.5-.2.7-.5,1-.7Z"/>
            <path d="M230.5,161.4c1.2,0,2.4-.2,3.6-.6,1.2-.2,2.4-.6,3.6-.7,1.2-.2,2.4-.5,3.6-.5h1.9c.2,0,.6,0,.9.2.2,0,.6.2.9.4l-.2.2c-.2-.2-.5-.2-.7-.4-.2,0-.6,0-.9-.2h-1.9c-1.2,0-2.4.2-3.6.4-1.2.2-2.4.5-3.6.7-1.2.2-2.4.4-3.6.5h.1Z"/>
            <path d="M236.2,161.2c.7,0,1.4-.2,2-.4s1.4-.2,2.1-.4c.7,0,1.4-.2,2.1-.2s1.4,0,2.1.4v.2c-.7-.2-1.4-.4-2.1-.4h-2.1c-.7,0-1.4.2-2.1.2s-1.2.4-2,.4h0Z"/>
          </g>
          <polyline class="st0" points="248.2 158.9 251.9 152.7 253 153.3 249.2 159.6"/>
          <path class="st0" d="M247.1,160.2s-23.7,13-24.4,13.4h0c-.7.4-1.6.7-2.5.7l1.1.6c.7,0,1.2-.2,1.9-.5h.2v-.2l24.4-13.3-.7-.7h0Z"/>
          <path class="st10" d="M247.1,160.2l-24.5,13.4c-.7.4-1.6.7-2.5.7l1.1.6c.7,0,1.2-.2,1.9-.5h.2v-.2l24.4-13.3-.7-.7h.1Z"/>
          <polygon class="st0" points="244.5 161 222.7 162.7 199.4 175.6 199.4 176.7 221.3 175.1 245.6 161.8 244.5 161"/>
          <path class="st11" d="M223.8,163.3l-24.2,13.3,22-1.6,24.2-13.3-22,1.6Z"/>
          <polygon class="st10" points="222.7 162.7 223.8 163.3 199.4 176.7 199.4 175.6 222.7 162.7"/>
          <path class="st32" d="M248,158.9c-1-.2-2.1-.2-3,.4-1,.6-1.2,1.4-.6,1.9l1.2.7,3.6-2.1-1.1-.6v-.2h-.1Z"/>
          <path class="st0" d="M248.2,158.9c-.2,1-1.5,1.7-3.6,2.1l1.1.6c1.5,0,2.9-.9,3.6-2.1l-1.1-.6Z"/>
        </g>
        <path class="st35" d="M207.7,176.1c1.9,0,5.5,0,7.1-1.9,2.6-2.2,3.4-2.1,5.8-2.9,2.9-.9,2.9-1.4,4.6-2.4s2.9-1.2,3.5-.7,1.1.9,0,1.9l-2.1,1.9,4.7-2.1c2-.9,5.2-2.5,6.1-3s3.1-1.7,3.1-1.7c0,0,.5.7-.5,1.9s-3.7,3.4-4.5,4-1.7,1.5-2.4,2.1-1.2,1.2-2.5,2.4c-1,.9-2.1,1.7-3.2,2.4-.7.5-3.2,1.9-6.1,3.2-2.9,1.4-5.6,2.7-8.6,3.7-6.6,2.1-13.4,3.6-20.3,4.6-9.7,1.2-11.2.7-12.8.2-1-.2-2-1.2-3.5-5.3s-3.7-13.8-5-19.4c-1.5-6.5-3.4-12.8-2.9-16.9s2.2-8.6,8.3-10.2c4.5,1.9,5.8,6,7.7,16.3,1.9,9.7,4.1,22.6,4.1,22.6,0,0,6.7.2,11.1,0,3.4-.2,6.5-.6,8.3-.7h-.2,0Z"/>
        <path class="st31" d="M240.7,165c.2.2.2.7,0,1.1,0,.2-.4.6-.7.9l-1.6,1.5-3.2,2.9-1.6,1.5c-.6.5-1,1-1.6,1.5-1,1-2.2,2-3.4,2.9-1.2.7-2.5,1.6-3.9,2.2-1.2.7-2.6,1.2-3.9,1.9s-2.6,1.2-4,1.9-2.7,1-4.1,1.5c2.7-1,5.5-2.2,8.1-3.6,2.6-1.2,5.2-2.6,7.6-4.2,1.2-.7,2.4-1.9,3.4-2.9s1-1,1.6-1.5l1.6-1.4,3.4-2.9,1.7-1.4.7-.7v-1.2h-.1Z"/>
        <path class="st31" d="M226.8,172c-1,.9-1.9,2-2.6,3.1l5-4.2-2.4,1.1Z"/>
        <path class="st30" d="M183.1,99.9c0,.2-1.2.9-1.5,1.2-.4.4-.7.9-1.1,1.4-.6,1.1-1.1,2.4-1.2,3.7-.2,2.2-.2,4.3-.2,6.5-.2,2.1-.5,4.2-1,6.3-.5,1.9-.7,3.7-.6,5.5,0,1.9.7,3.7,2.2,5-.5-1.9-.5-3.7,0-5.6,0,1.2.2,2.4.7,3.4.7,1.7,2.2,3,3.9,3.7,1.7.7,3.4,1.2,5.2,1.6,2.9.6,6,.7,8.9.7s3.7-.2,5.5-.5c2.4-.2,4.7-1,6.7-2.2,2-1.2,3.2-3.6,3.1-6,.7,1.1,1,2.5,1,3.9,1.2-1.5,1.9-3.4,1.7-5.3s-.7-3.9-1.7-5.5c-.6-1-1.2-2.1-1.7-3.2-.5-1-.5-2.2-.2-3.2.2-.7.7-1.2,1.1-2,.9-1.9,1.4-4,1.2-6.1-.4-4.3-3.1-10.1-11.2-11.7-6.6-1.9-19.4-.4-21,8.3h.2,0Z"/>
        <g id="freepik--head--inject-22">
          <g id="freepik--head--inject-23">
            <g id="freepik--head--inject-24">
              <path class="st35" d="M187.1,122.3c-1.7.2-3.4-.4-4.5-1.7-2.4-2.5-2.6-5.1-1.5-7,.9-1.4,3.1-2.4,4.7-1.4s1.7,1.9,2.4,3,2.2.2,1.7-4.5c3.2-1.5,2.7-6.8,4.5-9.1,2.7-3.4,7.2-2.5,8.7-1.7,1.9-1.2,4.2-1.4,6.1-.4,2.2,1.1,3.6,3.6,4.5,11.8.7,8.4-.7,14.2-2.7,15.9-2,1.5-4.5,2.2-7,1.9v4.6s8.7,7.6-2.4,6.7c-5-.4-9.7-3-12.7-7.1v-12.8s-.2,1.1-1.9,1.4v.4h0Z"/>
              <path class="st14" d="M205.5,120.8c-.2,1.2-1.6,2.2-2.9,1.9h0c-1.2-.2-2.2-1.5-2-2.9h0l5,.9h-.1Z"/>
              <path class="st22" d="M200.5,120.7c0,1.1,1,1.9,2,2.1h.9c-.2-1.4-1.5-2.4-2.9-2.1Z"/>
              <path class="st15" d="M211.2,106.4l-3.2-1c.2-.9,1.2-1.4,2-1.1h0c.9.2,1.4,1.2,1.1,2.1h.1Z"/>
              <path class="st15" d="M199.4,105.4l-3.2,1.7c-.5-.7-.2-1.9.6-2.4h0c.7-.4,1.9,0,2.5.7h.1Z"/>
              <path class="st1" d="M215.5,107.3h-.6c-2.1-.2-4.2,0-6.3.5-2,.7-2.6,1.4-3.9,1.4s-2-.6-4.2-1.1c-2.2-.2-4.5-.2-6.8,0h-.7c-.5.2-.7.7-.7,1.2s.4.9.7,1.2c0,0,.2.2.2.5.2,1.2.6,2.4,1.1,3.4.2.4.6.9.9,1.2,0,0,.2.2.5.2l.2.2c.2,0,.5.2.7.2h1.9c2.9,0,3.9-1.4,4.5-2.9s.2-3.2,1.6-3.2h.2c1,.2,1,1.9,1.6,3,.2.5.6.9,1,1.2l.2.2h0v.2h0v.2h.2c.4.2.7.2,1.1.4h1.4c1.6,0,3.2-.9,3.9-2.4.2-1.1.5-2.4.6-3.5,0-.2,0-.3.2-.5.2-.4.5-.7.5-1.2.2-.5,0-.9-.5-1.1l.4.4h0ZM202.4,112.7c0,.7-.4,1.2-.7,1.9h0c-.7.7-1.9,1.2-3,1.2s-2.2-.2-3-1.2h0v-.2h0v-.2h0v-.2h0l-.2-.5h0v-.6h0v-.2c-.2-.9-.7-2.7-.2-3.1s1.7-.9,3.9-.7h1.6c.2.2.6.2.9.2h.2l.2.2h.2c.2,0,.5.2.7.4.4.9.5,1.9.2,2.9h0l-.9.4h0ZM214.3,111.8c0,1.2-.7,2.4-1.9,3-.5.2-1,.4-1.5.4-1.2.2-2.4-.2-3.2-1.2h0v-.2h0v-.2h0v-.2h0c0-.2-.2-.5-.2-.7-.4-.9-.4-1.9,0-2.9.9-.7,2.1-1.4,3.4-1.5h3.1c.2.2.4.2.5.4.6.4.5,2.2.2,3.2h-.4,0Z"/>
              <path class="st31" d="M209.2,116.6l-4.7,2-1-6c.2-.9.2-1.9,1.1-1.9l4.6,5.8h0Z"/>
              <path class="st1" d="M193.1,109l-7.3,3.4c.4.2.7.6,1.1.9l6.3-2.9v-1.5h-.1Z"/>
            </g>
            <path class="st15" d="M211.2,111.1c.2.7-.2,1-1,1.2s-1.4.4-1.6-.2c-.2-.7,0-1.5.7-1.9h0c.7-.2,1.6,0,1.9.9h0Z"/>
            <path class="st15" d="M208.9,110.6c.2-.2.6-.2,1-.4h1.1c.4,0,.7,0,1.1.2h-2.1c-.5,0-.9.2-1.2.5l-.4.2h0c0-.2.4-.4.7-.6h-.2Z"/>
            <path class="st15" d="M197.6,111.6c-.2.7.4.9,1.1,1.1s1.4.2,1.6-.5c.2-.7-.2-1.5-1-1.7s-1.6.2-1.7,1.1h0Z"/>
            <path class="st15" d="M199.8,110.7c-.2,0-.7-.2-1.1-.2h-1.1c-.4,0-.7.2-1,.4h2.1c.5,0,1,.2,1.4.2l.5.2h0c-.2-.2-.5-.5-.7-.6Z"/>
          </g>
          <path class="st31" d="M204,129.5c-4.5-.2-10.2-1.7-11.8-4.5.9,3,3.9,4.5,6.5,5.2s3.5.7,5.3.9v-1.7h0Z"/>
        </g>
      </g>
    </g>
  </g>
  <g id="freepik--character-1--inject-2">
    <g id="freepik--Books--inject-2">
      <g id="freepik--book--inject-2">
        <polygon class="st0" points="38.3 387 104.8 424.6 207 366 140.4 328.4 38.3 387"/>
        <polygon class="st13" points="38.3 387 104.8 424.6 207 366 140.4 328.4 38.3 387"/>
        <path class="st34" d="M105.5,421.9l-64.4-36.5c1.6-4.5,1.5-6-.2-11.9l63.9,36.2s1.1,0,.7,12.3h0Z"/>
        <path class="st0" d="M101.6,404.7c3.5,2.2,5.6,6,6,10.2v8c0,3.7-2.6,5.2-6,3.4l-63.4-36v-2.9l62.6,35.3c1.9,1.1,3.5.2,3.5-2v-7.1c0-2.5-1.5-4.7-3.5-6l-62.6-35.4v-3.4l63.4,35.9Z"/>
        <path class="st12" d="M101.6,404.7c3.5,2.2,5.6,6,6,10.2v8c0,3.7-2.6,5.2-6,3.4l-63.4-36v-2.9l62.6,35.3c1.9,1.1,3.5.2,3.5-2v-7.1c0-2.5-1.5-4.7-3.5-6l-62.6-35.4v-3.4l63.4,35.9Z"/>
        <path class="st0" d="M38.3,368.6l102.1-58.6,63.4,36c3.5,2.2,5.6,6,6,10.2v8c0,1.9-.6,3.2-1.7,3.9l-102.1,58.6c1.1-.6,1.7-1.9,1.7-3.9v-8c-.2-4.1-2.4-7.8-5.8-10.2l-63.5-35.9h0Z"/>
        <path class="st10" d="M38.3,368.6l102.1-58.6,63.4,36c3.5,2.2,5.6,6,6,10.2v8c0,1.9-.6,3.2-1.7,3.9l-102.1,58.6c1.1-.6,1.7-1.9,1.7-3.9v-8c-.2-4.1-2.4-7.8-5.8-10.2l-63.5-35.9h0Z"/>
        <path class="st0" d="M105.9,409c1,1.7,1.6,3.7,1.7,5.7v8c0,1.9-.7,3.1-1.7,3.9l102.1-58.6c1.1-.6,1.7-1.9,1.7-3.9v-8c0-2-.7-4-1.7-5.7l-102.1,58.6Z"/>
        <path class="st9" d="M105.9,409c1,1.7,1.6,3.7,1.7,5.7v8c0,1.9-.7,3.1-1.7,3.9l102.1-58.6c1.1-.6,1.7-1.9,1.7-3.9v-8c0-2-.7-4-1.7-5.7l-102.1,58.6Z"/>
        <path class="st0" d="M194.2,358.2c1.9,8.2,1.9,11.6,0,17.5l-5,2.9c1.9-6,1.9-9.3,0-17.5l5-2.9Z"/>
        <path class="st0" d="M127.1,396.7c1.9,8.2,1.9,11.4,0,17.4l-4.8,2.9c1.9-6,1.9-9.2,0-17.4l4.8-2.9Z"/>
      </g>
      <g id="freepik--book--inject-21">
        <polygon class="st0" points="31.1 367.8 97.7 405.2 199.8 346.5 133.1 309 31.1 367.8"/>
        <polygon class="st9" points="31.1 367.8 97.7 405.2 199.8 346.5 133.1 309 31.1 367.8"/>
        <path class="st34" d="M98.3,402.4l-64.4-36.4c1.6-4.5,1.5-6.5-.2-12.5l64,36.2s1,.4.6,12.8Z"/>
        <path class="st0" d="M94.6,384.5c3.5,2.2,5.6,6,6,10.2v8.6c0,3.7-2.6,5.2-5.8,3.4l-63.5-35.9v-2.9l62.7,35.2c1.9,1.1,3.5.2,3.5-2v-7.7c-.2-2.4-1.6-4.7-3.6-6l-62.6-35.3v-3.4l63.4,35.9h0Z"/>
        <path class="st11" d="M94.6,384.5c3.5,2.2,5.6,6,6,10.2v8.6c0,3.7-2.6,5.2-5.8,3.4l-63.5-35.9v-2.9l62.7,35.2c1.9,1.1,3.5.2,3.5-2v-7.7c-.2-2.4-1.6-4.7-3.6-6l-62.6-35.3v-3.4l63.4,35.9h0Z"/>
        <path class="st0" d="M31.1,348.5l102.1-58.8,63.4,35.9c3.5,2.2,5.6,6,6,10.2v8.6c0,1.9-.6,3.1-1.7,3.9l-102.1,58.8c1.1-.6,1.7-1.9,1.7-3.9v-8.6c-.2-4.1-2.4-7.8-5.8-10.2,0,0-63.5-35.9-63.5-35.9Z"/>
        <path class="st0" d="M98.7,388.9c1.1,1.7,1.7,3.7,1.7,5.7v8.6c0,1.9-.7,3.2-1.7,3.9l102.1-58.8c1.1-.6,1.7-1.9,1.7-3.9v-8.6c0-2-.7-4-1.7-5.7l-102.1,58.8Z"/>
        <path class="st11" d="M98.7,388.9c1.1,1.7,1.7,3.7,1.7,5.7v8.6c0,1.9-.7,3.2-1.7,3.9l102.1-58.8c1.1-.6,1.7-1.9,1.7-3.9v-8.6c0-2-.7-4-1.7-5.7l-102.1,58.8Z"/>
        <path class="st0" d="M186.9,338c1.9,8.2,1.9,12.2,0,18.3l-4.8,2.9c1.9-6,1.9-9.9,0-18.3l4.8-2.9Z"/>
        <path class="st0" d="M120,376.6c1.9,8.2,1.9,12.1,0,18l-4.8,2.9c1.9-6,1.9-9.8,0-18l4.8-2.9Z"/>
        <g class="st18">
          <path class="st3" d="M186.9,338c1.9,8.2,1.9,12.2,0,18.3l-4.8,2.9c1.9-6,1.9-9.9,0-18.3l4.8-2.9Z"/>
          <path class="st3" d="M120,376.6c1.9,8.2,1.9,12.1,0,18l-4.8,2.9c1.9-6,1.9-9.8,0-18l4.8-2.9Z"/>
        </g>
      </g>
      <g id="freepik--book--inject-22">
        <path class="st0" d="M33.4,344.4l2.7-1.4-2.4-.6c-.5.6-.6,1.4-.2,2h-.1Z"/>
        <path class="st12" d="M33.4,344.4l2.7-1.4-2.4-.6c-.5.6-.6,1.4-.2,2h-.1Z"/>
        <path class="st0" d="M104.1,380.1c-1.7.9-3.7.9-5.5,0l-60.9-35.2,91.2-51.8,2.1-1.2,60.9,34.3c1.5.9,1.5,2.4,0,3.1l-87.8,50.8Z"/>
        <path class="st0" d="M81.3,314.5l-21.2,12.3-13.8-8-15.9,9.2v10.7c0,1.4,1.6,3.4,2.1,3,1.1.2,2.1.6,3,1.1,1.6.9,3.1,2,4.5,3.2l48.7-27.3s-7.3-4.2-7.3-4.2Z"/>
        <path class="st11" d="M81.3,314.5l-21.2,12.3-13.8-8-15.9,9.2v10.7c0,1.4,1.6,3.4,2.1,3,1.1.2,2.1.6,3,1.1,1.6.9,3.1,2,4.5,3.2l48.7-27.3s-7.3-4.2-7.3-4.2Z"/>
        <path class="st1" d="M39,329.3v11.6h-.2c-.7-.6-1.7-.9-2.6-.9s-1.2,0-1.7.4v-13.7l4.5,2.6h.1Z"/>
        <path class="st24" d="M42,344.9c0-.7-.2-1.4-.7-2-.2-.2-.5-.6-.7-.9l-.2-.2-.2-.2-.2-.2c-.2,0-.4-.2-.6-.4v-11.6l3,1.7v13.8h-.1Z"/>
        <path class="st9" d="M30.3,338.7c0,1.4,1.6,3.4,2.1,3h0l2.1-1.4v-8.8l-2.1-3.7-1.2-.4-1,.5v10.8h.1Z"/>
        <path class="st33" d="M101.4,365.3v13.3c-.6,0-1.2,0-1.9-.4l-6.7-3.9-50.8-29.4v-13.8l59.4,34.2Z"/>
        <path class="st34" d="M190.4,315.7v9.9c0,1.2-.7,2.4-1.9,3.1l-78.8,45.5-6.7,3.9c-.6.2-1.2.4-1.9.4v-11.7l89.1-50.9h.1Z"/>
        <path class="st0" d="M129,276l-91.2,52.7v1.2c0,.7-1,.9-2.1.2s-2.1-1.5-2.1-2.7v-1.1l92.8-53.7.4-.2c0,.2,0,.4.2.6v.6c0,.6.7,1.7,2,2.4h0Z"/>
        <path class="st8" d="M129,276l-91.2,52.7v1.2c0,.7-1,.9-2.1.2s-2.1-1.5-2.1-2.7v-1.1l92.8-53.7.4-.2c0,.2,0,.4.2.6v.6c0,.6.7,1.7,2,2.4h0Z"/>
        <path class="st0" d="M98.7,363.7l-59.5-34.4c-.7-.4-1.4-.7-1.7-.6l.4-.2,91.2-52.7,1.1-.6c1-.2,2,0,2.9.4l59.1,34.2c1.5.9,1.5,2.4,0,3.1l-87.8,50.8c-1.9,1-3.9,1-5.6,0h0Z"/>
        <path class="st0" d="M126.7,272.4l-.4.2-92.9,53.7s0-.2-.2-.2l-.2-.2-.7-.4-.7-.5c-.2-.2-.7-.2-1,0h0c0,.2-.2.4-.2.5,0,.2-.2.2-.2.5s0,.4-.2.6,0,.5,0,.7v1.5-2.6c.2-1.7,1.2-3.4,2.7-4.2l87.8-50.8c1.5-.9,3.2-1,4.8-.4l1.1.6h0l.5.2h0c0,.2,0,.5.2.6h-.2,0Z"/>
        <path class="st0" d="M98.7,380.1l-3.7-2.1-55-31.8c0-.7-.2-1.4-.7-2-.7-.9-1.5-1.6-2.4-2.1-.7-.5-1.7-.7-2.6-.7s-1.2.2-1.7.6c-.7-1.4-1.1-3-1-4.5h-2c0,2.9.9,5.8,2.1,6.5l1,.6c.6.2,1.1.4,1.1,0v-.6c0-.6,1-.6,2.1,0s2.1,1.7,2.1,2.4v.6c0,.2.7,1,1.9,1.6l53.3,30.8,5.8,3.4h0c.7.4,1.9.7,2.7.6v-2.4c-.9,0-1.9-.2-2.7-.7h-.2Z"/>
        <path class="st10" d="M98.7,380.1l-3.7-2.1-55-31.8c0-.7-.2-1.4-.7-2-.7-.9-1.5-1.6-2.4-2.1-.7-.5-1.7-.7-2.6-.7s-1.2.2-1.7.6c-.7-1.4-1.1-3-1-4.5h-2c0,2.9.9,5.8,2.1,6.5l1,.6c.6.2,1.1.4,1.1,0v-.6c0-.6,1-.6,2.1,0s2.1,1.7,2.1,2.4v.6c0,.2.7,1,1.9,1.6l53.3,30.8,5.8,3.4h0c.7.4,1.9.7,2.7.6v-2.4c-.9,0-1.9-.2-2.7-.7h-.2Z"/>
        <path class="st0" d="M98.8,363.7h0l-3.7-2.1-42.4-24.5-13.5-7.8c-1-.6-1.7-.7-1.9-.5h0v.6c0,.7-1,.7-2.1,0-.9-.4-1.5-1.2-1.7-2.1v-.7c0-.2,0-.6-.2-.7l-.2-.2c-.2,0-.4-.2-.7-.4l-.7-.5c-.2-.2-.7-.2-1,0h0c0,.2,0,.2-.2.2h0c0,.2-.2.4-.2.6s0,.4-.2.6,0,.5,0,.7v9.8h2.1v-9.4h0c.2,1.6,1.9,3,3.1,3.9.7.5,1.6.7,2.5.7s1.2-.2,1.9-.7h.2l.4.2,53.4,30.7,5.8,3.4h0c.7.4,1.7.6,2.7.6v-1.9c-1.2,0-2.1-.2-2.9-.6h-.2Z"/>
        <path class="st10" d="M98.8,363.7h0l-3.7-2.1-42.4-24.5-13.5-7.8c-1-.6-1.7-.7-1.9-.5h0v.6c0,.7-1,.7-2.1,0-.9-.4-1.5-1.2-1.7-2.1v-.7c0-.2,0-.6-.2-.7l-.2-.2c-.2,0-.4-.2-.7-.4l-.7-.5c-.2-.2-.7-.2-1,0h0c0,.2,0,.2-.2.2h0c0,.2-.2.4-.2.6s0,.4-.2.6,0,.5,0,.7v9.8h2.1v-9.4h0c.2,1.6,1.9,3,3.1,3.9.7.5,1.6.7,2.5.7s1.2-.2,1.9-.7h.2l.4.2,53.4,30.7,5.8,3.4h0c.7.4,1.7.6,2.7.6v-1.9c-1.2,0-2.1-.2-2.9-.6h-.2Z"/>
        <path class="st0" d="M193,311.4v2.5c0,.7-.5,1.2-1.1,1.5h0l-82.1,47.5-5.8,3.4h0c-.7.4-1.9.6-2.7.6v-2.4c.9,0,1.9-.2,2.7-.6l3.7-2.1h0l84.1-48.7c.7-.2,1.2-.9,1.2-1.6h0Z"/>
        <path class="st11" d="M193,311.4v2.5c0,.7-.5,1.2-1.1,1.5h0l-82.1,47.5-5.8,3.4h0c-.7.4-1.9.6-2.7.6v-2.4c.9,0,1.9-.2,2.7-.6l3.7-2.1h0l84.1-48.7c.7-.2,1.2-.9,1.2-1.6h0Z"/>
        <path class="st0" d="M193,327.8v2.5c0,.7-.5,1.2-1.1,1.5h0l-82.1,47.3-5.8,3.4h0c-.7.4-1.9.7-2.7.6v-2.4c.9,0,1.9-.2,2.7-.6l3.7-2.1h0l84.1-48.7c.7-.2,1.2-.7,1.2-1.5Z"/>
        <path class="st11" d="M193,327.8v2.5c0,.7-.5,1.2-1.1,1.5h0l-82.1,47.3-5.8,3.4h0c-.7.4-1.9.7-2.7.6v-2.4c.9,0,1.9-.2,2.7-.6l3.7-2.1h0l84.1-48.7c.7-.2,1.2-.7,1.2-1.5Z"/>
      </g>
      <g id="freepik--book--inject-23">
        <polygon class="st0" points="39.8 319.3 108.7 358.6 200.7 305.9 131.6 266.5 39.8 319.3"/>
        <polygon class="st6" points="39.8 319.3 108.7 358.6 200.7 305.9 131.6 266.5 39.8 319.3"/>
        <path class="st34" d="M109.5,356.2l-67.1-38.4c1.4-4,1.2-8.6-.2-13.9l66.7,38.1s1.1,3.4.7,14.3h-.1Z"/>
        <path class="st0" d="M106,337.6c3,2,5,5.2,5.1,8.8v10.3c0,3.4-2.4,4.6-5.1,3l-66.3-37.9v-2.6l65.6,37.3c1.7,1,3.1.2,3.1-1.9v-9.6c0-2.2-1.2-4.1-3.1-5.3l-65.6-37.4v-2.9l66.3,38h0Z"/>
        <path class="st5" d="M106,337.6c3,2,5,5.2,5.1,8.8v10.3c0,3.4-2.4,4.6-5.1,3l-66.3-37.9v-2.6l65.6,37.3c1.7,1,3.1.2,3.1-1.9v-9.6c0-2.2-1.2-4.1-3.1-5.3l-65.6-37.4v-2.9l66.3,38h0Z"/>
        <path class="st0" d="M39.8,299.6l91.9-52.7,66.2,37.9c3,2,5,5.2,5.1,8.8v10.4c0,1.2-.4,2.6-1.5,3.4l-91.8,52.7c1.1-.7,1.6-2,1.5-3.4v-10.4c-.2-3.6-2.1-7-5.1-8.8,0,0-66.3-37.9-66.3-37.9Z"/>
        <path class="st2" d="M39.8,299.6l91.9-52.7,66.2,37.9c3,2,5,5.2,5.1,8.8v10.4c0,1.2-.4,2.6-1.5,3.4l-91.8,52.7c1.1-.7,1.6-2,1.5-3.4v-10.4c-.2-3.6-2.1-7-5.1-8.8,0,0-66.3-37.9-66.3-37.9Z"/>
        <path class="st0" d="M109.7,341.3c.9,1.5,1.4,3.2,1.5,5v10.3c0,1.2-.4,2.6-1.5,3.4l91.8-52.7c1.1-.7,1.6-2,1.5-3.4v-10.3c0-1.9-.6-3.5-1.5-5l-91.8,52.7Z"/>
        <path class="st4" d="M109.7,341.3c.9,1.5,1.4,3.2,1.5,5v10.3c0,1.2-.4,2.6-1.5,3.4l91.8-52.7c1.1-.7,1.6-2,1.5-3.4v-10.3c0-1.9-.6-3.5-1.5-5l-91.8,52.7Z"/>
        <path class="st3" d="M189.4,295.6c1.7,7.2,1.6,13.5,0,18.9l-4.2,2.5c1.6-5.3,1.7-11.6,0-18.9l4.2-2.5Z"/>
        <path class="st3" d="M128.5,330.9c1.7,7.2,1.6,13.5,0,18.9l-4.2,2.5c1.6-5.3,1.7-11.6,0-18.9l4.2-2.5Z"/>
      </g>
    </g>
    <g id="freepik--character--inject-21">
      <g id="freepik--bottom--inject-21">
        <path class="st23" d="M147.7,343.7s-7,10.7-8.2,15c-1.4,4.6-2.9,6-3.4,11.2v4.5c0,.7-.6,1.4-1.2,1.4h-.2c-2.2,0-4.8-4.6-5.5-9.2-.6-5.2-.7-10.4-.7-15.7.2-1.2.7-2.2,1.4-3.1.4-.5.9-1,1.4-1.5,1.2-1.9,2.4-5.7,3.6-8.3l12.9,5.6h0Z"/>
        <path class="st15" d="M123.3,354.4c-.4.4-.7.9-.9,1.4-.2.9,1.2,4.5,1.9,5.8.7,1.9,1,3.9.2,5.7-.7,3.1-.2,6.3,1.2,9.1,2,3.9,5.1,7.1,8.9,9.1,4.7,2.7,7.1.6,7.1.6,0,0,2.1-2,1.4-3.2s-20-28.5-20-28.5h.1Z"/>
        <path class="st1" d="M131.2,346.4s-.4,0-.9.2c-.2,0-1.6,2.2-2.7,3.2s-3.6,2.9-4.3,4.6c.2,3.9,3.2,7.3,3,10.9s-1.2,7.6,3.4,13.2,9.9,7.1,12.3,6.5,2.6-2.9.7-7.6c-2-5-1.9-14.7-1.9-14.7,0-1.2.2-2.7.4-4,.2-1.2.7-2.6,1.2-3.9s.2-1.2.2-1.9c-.2-.6-.7-1-1.2-1.4-.7-.6-1.7-1.1-2.6-1.5-.9-.4-2-.5-3-.2-.7.2-1.2.6-2.1.7-1,0-2-.2-2.6-1.1-.6-.7-.7-1.9-.2-2.6.2-.2.2-.4.4-.6Z"/>
        <path class="st36" d="M127.1,374.2c2.4-2.4,5.7-3.4,8.9-2.4,5.8,1.2,7.1,4.6,7.6,6.5.6,2.2.7,6.1-1.9,6.7-2.9.5-5.8-.5-9.9-3.9s-4.8-7.1-4.8-7.1h.1Z"/>
        <path class="st36" d="M132.2,357.5c.2,0,.2.2.5,0,1-.2,6,0,8.1,3,.4-.2.5-.7.2-1.5-2.9-2.7-7.5-2.9-8.6-2.5-.2,0-.5.2-.4.6h0c0,.2,0,.2.2.2h-.1Z"/>
        <path class="st36" d="M140.7,363.9c.2-.5.2-1.1,0-1.6-2.4-1.9-5.3-2.6-8.3-2.2-.2,0-.5.4-.4.7h0s0,.2.2.2.2.2.5,0c1.1-.2,5.8,0,8.1,2.7h-.1Z"/>
        <path class="st36" d="M141.3,372.1c.2-.7,0-1.5-.2-2.2-2.9-2.6-7.3-2.7-8.6-2.4-.2,0-.5.4-.4.7h0s0,.2.2.2.2.2.5,0c1.1-.2,6.6-.2,8.6,3.5h-.1Z"/>
        <path class="st36" d="M132.2,364.8c.2,0,.2.2.5,0,1-.2,5.8,0,8.1,2.9.2-.6.2-1.2,0-1.9-2.4-1.9-5.3-2.6-8.3-2.2-.2,0-.5.4-.4.7h0l.2.2v.2h-.1Z"/>
        <path class="st23" d="M150.4,360.8s-.2,11.1-.2,19.5,4.5,9.2,8,13.5c.7.9,2.6,2.7,3.2,3.4s.6,1.5,0,2c0,0-.2,0-.2.2-1.7,1.5-8.7,1.7-12.5-1.2s-7.2-9.2-9.4-11.7c-.9-.9-1.6-1.9-2.4-2.9s-.5-1.9-.5-2.9v-1.9c-.4-2.4-1.9-9.8-2.5-12.3l16.6-6h0Z"/>
        <path class="st15" d="M134.4,389.9v1.9c.4.9,3.9,3.1,5.1,3.9,1.9,1,3.2,2.6,3.9,4.6,1.2,3,3.9,5.3,6.8,7,4.1,2,8.7,2.9,13.3,2.2,5.6-.6,6.3-3.9,6.3-3.9,0,0,.5-3-.7-3.6s-34.7-11.9-34.7-11.9h0Z"/>
        <path class="st1" d="M135.9,378.3s-.4,0-.6.7c0,.2,0,2.9-.2,4.3s-1.2,4.5-.7,6.5c2.7,3.1,7.3,4.1,9.3,7.3s3.9,7.1,11.1,9.1c7.2,2,12.9,0,14.4-2s.4-4-4.1-6.7c-4.8-2.9-10.8-11.2-10.8-11.2-.7-1.2-1.6-2.4-2.2-3.6-.5-1.2-1-2.6-1.2-4-.2-.6-.5-1.2-1-1.6-.6-.2-1.2-.4-1.9-.4-1.1,0-2.1,0-3.2.2-1,.2-2,.7-2.7,1.5-.5.6-.7,1.2-1.2,1.9-.7.7-1.9,1-2.9.7-1-.2-1.7-1.1-1.9-2.1v-.7h0Z"/>
        <path class="st36" d="M150.2,404.3s.2-5,6-7.5c5.7-2.5,8.9-.4,10.6.9,1.9,1.5,4.6,4.7,2.7,6.7-2.1,2.2-5.1,3.1-10.8,2.9s-8.4-3-8.4-3Z"/>
        <path class="st36" d="M143.9,387c.2,0,.4,0,.5-.2.7-.7,5-3.9,8.7-2.5.2-.4,0-.9-.7-1.4-4-.6-8.1,2.2-8.9,3.1-.2.2-.2.6,0,.7h0c0,.2.2.2.4.2h.1Z"/>
        <path class="st36" d="M155.1,387.3c0-.6-.5-1.1-1-1.4-3.1,0-6.1,1.1-8.4,3.2-.2.2-.2.6,0,.7h.4c.1,0,.4,0,.5-.2.7-.7,4.7-3.5,8.4-2.5h.1Z"/>
        <path class="st36" d="M160.8,393.9c-.2-.7-.9-1.2-1.6-1.7-4-.5-8,2.2-8.7,3.2-.2.2-.2.6,0,.7h.4c.1,0,.4,0,.5-.2.6-.9,5.3-4.1,9.2-2.2l.2.2h0Z"/>
        <path class="st36" d="M148.5,393.2c.2,0,.4,0,.5-.2.7-.7,4.8-3.7,8.6-2.5-.2-.6-.6-1.2-1.2-1.5-3.1,0-6.1,1.1-8.4,3.2-.2.2-.2.6,0,.7h0c.2,0,.2.2.4.2h.2Z"/>
        <path class="st1" d="M126.9,275.6s25,14,34.9,25.8c3.5,4.2,5.7,7.8,1,17.8-3.6,7.6-9.6,16-15,25.8l-43.5-58.6,22.6-10.7h0Z"/>
        <path class="st15" d="M148.5,343.7c-6.8-7.1-27.3-46.6-27.3-46.6h1c5.8-2.2,8.7-9.7,8.7-9.7.2,3.5-.7,7.1-3.1,9.7,3,2.5,9.9,8.4,20.6,17.4,1.9,1.6,5.6,4.6,5,10.1-.7,7.1-1.5,14-1.5,14l-3.4,5.1h0Z"/>
        <path class="st1" d="M126.9,275.6h0l-48.2,4.2c.5,5.7.4,14.3,4.2,20.9,5.2,9.1,9.1,9.4,21.7,16.2,11.1,6,20.6,11.7,23.1,13.2,1.9,1.1,1.2,5.5,1.4,10.4.2,5.3.6,8.3,2.9,19.8,1,5.5,2.2,10.4,2.2,10.4,0,0,9.1,1.6,16.3-1.6,0,0,.7-27.8.7-34.7s.7-11.2-3.4-15.9c-3.5-4-25.8-21.5-25.8-21.5,0,0,8.1-10.8,4.7-21.5h.1Z"/>
        <path class="st15" d="M88.9,279.6h.7c-.2,7.6.4,13.4,5.5,19.5,3.7-2.1,3.1-4.5,2-8.4-.2-1.2-.7-2.6-.9-4.1-.5-2.5-.7-5-.7-7.6h.7c0,2.5.2,5,.7,7.5.2,1.5.6,2.9.9,4,1,4,1.7,6.7-2.2,9.1,1.2,1.4,2.7,2.9,4.2,4,7.8,6.5,19,14,25.6,18.5,2.4,1.6,4.2,2.9,5.1,3.5,3.9,2.9,3.9,4.3,3.4,11.1-.5,6,2.2,25.8,3.7,34.2h-.7c-1.5-8.3-4.2-28.2-3.7-34.2.6-6.8.4-8-3-10.6-.9-.7-2.9-1.9-5.1-3.5-6.7-4.6-17.9-12.3-25.7-18.6-9.7-7.6-10.7-14.5-10.4-24.2h0Z"/>
      </g>
      <g id="freepik--top--inject-2">
        <g id="freepik--Arm--inject-2">
          <path class="st23" d="M114.3,237.3c2.2,7.6,8,19.1,10.7,26.2,1.5,3.6,2.9,5,8.1,3.9s19-8.3,21.9-9.7,3.9-2.1,5.6-2.4c1.6,0,3.1-.7,4.2-2,1.2-1.5,2.2-3.1,2.9-4.8,1.2-1.1,2.4-2.5,2.4-3.2s-.2-.9-.5-1.2c.5-.5,1-1.2,1.2-1.9,0-.6-.2-1.1-.6-1.5,1.6-1.6,1.9-2.1,1.5-2.9s-.9-2.7-.9-2.7c1.9.2,3.7.2,5.5,0,1.2-.2,2.4-1.2,2.6-2.5,0-.5-7.1-1.6-9.1-1.6s-2.4-.4-3.7.9-5.3,3.5-6,4.2-.7,2.6-2.1,6c-1,2.4-2.4,3.9-5.3,5-5.2,2-16.3,4.3-16.3,4.3,0,0-4-13.8-4.8-16.9-2.4-8.4-5.8-18-16.3-17.1l-1,20h.1Z"/>
          <path class="st1" d="M114.6,216.8c4.5-.4,9.9-.6,13.5,7.1,3.6,7.6,7.5,22.4,7.5,22.4,0,0-1.7,2.9-7.3,5.5-5.5,2.6-8,1.7-8,1.7l-6.3-15.9.6-20.6h0Z"/>
          <path class="st27" d="M136.7,251.5c-2.9.7-5.3,2.1-7.2,4.2,1.5-2.7,3.9-4.8,6.8-6l.4,1.7h0Z"/>
          <path class="st27" d="M162,237.6c1.5-.2,2.9-1.2,3.9-2.4.9-1.2,1.9-2.6,2.4-2.4.7.2,1.6,2.4.2,4.3s-3.2,4.1-3.6,4.6c-.2,1.2-.5,2.4-.4,3.6-.2,2.6-2,5-4.5,5.7,1.5,0,2.9-.7,3.9-1.9,2-2,1.5-5,1.6-6.1s.2-1.5,1.7-3.2,3.1-3.5,2.4-6-1.9-1.9-2.4-1.2-2.6,4.5-5.1,5.1v-.2h-.1Z"/>
          <path class="st27" d="M170.8,235h-1.6l.2.6c.7,0,1.5.2,1.9.9l-.6-1.5h.1Z"/>
          <path class="st27" d="M170.2,240.4c-.5.6-2.1,2.1-2.4,2.5s-1,0-1.2-1c-.2-.7,0-1.5.4-2.2-.5.6-.7,1.4-.7,2.2,0,1.2.7,1.6,1.2,1.6s1.7-1.9,2.7-3.1Z"/>
          <path class="st27" d="M169.7,243.9c-.4.4-1,.9-2,2-.6.6-.9,1.1-1.4.7-.6-.7-.7-1.7-.4-2.5s.6-1,1-1.4l-.2-.2c-.7.7-1.1,1.5-1.4,2.4-.2,1.2.5,2.5,1.1,2.4s.9-.5,1.9-1.4,1.6-2,1.6-2h-.2,0Z"/>
          <path class="st27" d="M166.6,247c-.2.2-.2,1.1.2,1.2h1c-.2.2-.7.5-1.2.2-.6-.2-.7-1.1-.6-1.7h.6v.2Z"/>
        </g>
        <path class="st32" d="M127.4,236.8c-.5-13.5-6-19-12.9-20,0,0-8.4.7-13.8,1.4-5.2.7-10.2,2.2-15.2,4-2.7,1.2-6.5,7.8-7.1,17.4-.4,6.8-1.5,15.4-.7,27.3.5,7.8.6,13.8,1.9,24.1,9.3,3.7,40.3,0,48.3-15.4-.7-2.4-1-10.4-.9-14.9s.6-19.8.4-24h0Z"/>
        <g id="freepik--head--inject-25">
          <path class="st20" d="M98.9,211.9c-.2-3.9-3.4-8.2-4.7-11.7s-1.9-6-1.4-8.8c.2-1.7,1.7-4,3.1-4.3-.7-4.5,2.4-8.7,6.8-9.4h.4c1.2,0,2.5-.2,3.7-.6,1.5-.4,1.9-1.5,3.2-2.4,2.2-1.4,5.5-1.1,6.5,1.6,1.5-1.5,3.4-1.2,5.2-.5,1.7.6,2.7,2.5,2.2,4.3,1.9-.9,4,0,5,1.7.2.2.2.6.2,1,0,1.2-.2,2.2.2,3.4.7,1.2,2.4,1.5,3,.6,0,1.7-.7,2.9-2.5,2.6.5,1,.5,2.2,0,3.4-.6,1.2-2,2.1-3.4,2-.2,1.9-1.7,3.5-3.5,4.1-2.9,1-6,1-9.1,1.2l-3.6.2h-1.4l-10.1,11.4h-.1Z"/>
          <path class="st23" d="M95.1,206.4c1.2,1.1,3,1.2,4.5.4l-1.7,12.3c1.4,5.5,10.3,7.6,13.8,6.5s3.4-3.1,1.5-6.3l.5-2c1.5.2,3,.2,4.5.2,3,0,5.5-2.2,6.7-5.2,1.4-4,2.1-8.2,1.9-12.5,0-1,0-2.1.2-3.1.5-2.2.4-4.5,0-6.7-2.9-3-10.3-4.8-17.8-1.4.2,4.2-1.7,7.3-5,8.6,0,1.1-.2,4-2,3.7-1.2-.2-1.2-1.9-2.4-3.5s-4.3-2.4-5.8-.4c-2.1,3-1.6,7.1,1.1,9.6h0Z"/>
          <path class="st15" d="M108.2,195.5l-9.1,1.4c.5.4.9,1,1.1,1.6l8-.9v-2.1h0Z"/>
          <path class="st1" d="M129,195.5c-2.1-.4-4.3-.2-6.5,0-1.9.6-2.6,1.2-3.6,1.2s-1.9-.7-3.9-1.2c-2.4-.4-4.6-.5-7,0-.5,0-.7.6-.7,1.1,0,.9.6,1,.7,1.7.2,2.7.5,5.8,4,6,6.5.2,4.5-6.2,7-5.8.9.2.7,1.9,1.2,3.1.2.5.5,1,.7,1.4.7.9,2,1.4,3.2,1.2,1.7,0,3.2-.9,3.9-2.4.4-1.1.6-2.4.7-3.5.2-.6.7-.7.7-1.7s-.4-1-.7-1.1h.1ZM116.4,200.3c-.2.7-.5,1.2-1,1.9h0c-1.5,1.7-5.5,1.4-6-1.1h0v-.4h0c-.2-1-.5-3.2,0-3.9,1-1,5.7-.9,7.1.7.2.9.2,1.9,0,2.9h-.1ZM127.9,199.9c0,1.2-.7,2.4-1.9,3-1.4.7-3.9,0-4.3-1.1-.7-1.2-.9-2.9-.4-4.3.9-.7,2-1.2,3.2-1.2,1.2-.2,2.4,0,3.5.6.2.4,0,2.2,0,3.1h-.1Z"/>
          <path class="st27" d="M123,205l-4.7,1.9-.7-7c.2-.9.6-1.6,1.4-1.5l.2.2s.2.4.5.6c.2.4.6.7.7,1.2.4.7.7,1.4,1.2,2.2l.6,1.1v.2l.6.9h.1Z"/>
          <path class="st27" d="M113.6,217.3c-4.6-1.1-8.1-2-10.2-5.7-.9-1.9-1.6-3.9-2.1-5.8,0,2.4.4,4.8,1.2,7.1.9,2.4,3.4,4.5,10.7,6l.2-1.6h.1Z"/>
          <path class="st15" d="M114.1,199.7c0,.7-.7,1.2-1.4,1.2h0c-.7,0-1.2-.7-1.2-1.4s.7-1.2,1.4-1.2,1.2.6,1.2,1.4h0Z"/>
          <path class="st15" d="M113.9,193.6l-3.2.7c-.2-.9.4-1.9,1.2-2,.9-.2,1.7.4,1.9,1.2h.1Z"/>
          <path class="st27" d="M112.6,207.4l4.2,1.9c-.5,1.2-1.9,1.7-3.1,1.2-1.1-.5-1.6-1.9-1.1-3h0Z"/>
          <path class="st21" d="M114.9,210.5c0-1.4-1.2-2.5-2.5-2.6-.2,1,.4,2,1.2,2.4.4.2.7.2,1.2.2h0Z"/>
          <path class="st15" d="M125.9,195l-3.2-.7c.2-.7,1-1.4,1.9-1.2h0c.9.2,1.4,1.2,1.2,2.1h.1Z"/>
          <path class="st15" d="M124.3,200.1c0,.7-.7,1.2-1.6,1s-1.2-.7-1-1.6c0-.7.7-1.1,1.5-1,.7,0,1.2.7,1.1,1.6h0Z"/>
        </g>
        <g id="freepik--Laptop--inject-2">
          <path class="st24" d="M168.9,292.6v.6c0,.9-.5,1.7-1.2,2.2l-44.1,25c-.4.2-.7.2-1.2.2s-.9,0-1.2-.2l-23.9-13.9c-.7-.5-1.2-1.2-1.2-2.2v-.9h0s0,.2.2.2l26.2,15.4,46.6-26.5h-.1Z"/>
          <path class="st8" d="M122.1,319.1v1.7c.4,0,.9,0,1.2-.2l44.1-25c.7-.4,1.2-1.2,1.2-2.2v-.6l-46.6,26.3Z"/>
          <path class="st17" d="M96.1,303.5v-.2h0l45.5-25.8c.2,0,.5-.2.7-.2s.5,0,.7.2l25.8,15.2-46.5,26.3-26.2-15.4h-.1Z"/>
          <path class="st24" d="M142.2,277.3c.2,0,.4,0,.6.2l25.7,15-46.2,26.2-26.1-15.4h0v-.2l45.5-25.8h.6M142.2,277.2c-.2,0-.6,0-.7.2l-45.3,25.8c-.2,0-.2.2,0,.4h0l26.2,15.4,46.6-26.5-26-15.3c-.2,0-.4,0-.7-.2h0Z"/>
          <polygon class="st33" points="121.9 316.8 108 308.6 149.2 285.3 163.3 293.4 121.9 316.8"/>
          <polygon class="st24" points="163.3 293.4 162.8 293.7 149.2 285.9 108.5 309 108 308.6 149.2 285.3 163.3 293.4"/>
          <polygon class="st24" points="115.2 294.2 115.4 294.4 122.3 298.5 134.7 291.5 134.9 291.2 127.9 287.1 115.2 294.2"/>
          <polygon class="st33" points="115.4 294.4 122.3 298.5 134.7 291.5 127.9 287.4 115.4 294.4"/>
          <g id="freepik--arm--inject-2">
            <path class="st23" d="M62.9,266c3.4-10.8,6.5-21.2,9.7-29.4,1.7-4.5,2.9-10.7,12.8-13.5,5.8,5,2.9,17.8,1.7,21l-7.7,24.8s1.6,2.2,7.1,8.2c4.7,5.1,7.1,7.1,12.7,8.1s6.1.7,9.1,2.4c1.5.7,5,2.7,6.1,3.5s3.2,3.1,5.1,4.8-.7,2.4-2.1,1.9c-1.5-.7-2.9-1.5-4.2-2.5-1.2-.7-2.4-1.2-3.7-1.9.2,1.5.4,3,.4,4.5s0,1.9-.7,2.4c-.6.2-1.1.5-1.9.5,0,.2-.2.6-.4.7-.4.2-1,.4-1.5.2-.2,0-.5,0-.7-.2,0,.5-.5.9-1,1.1-1.2.2-2.4.2-3.5-.2-.2,0-1.4-.9-1.9-1.1-.5-.2-1-.5-1.2-.9s.6-1.4,1.2-1.4,1.5,0,2.2.2c-.2-.6-.4-1.2-.5-2-.5-1-5-.4-8.7-1.4-2.9-.7-4.8-3.6-6-4.5-5.8-3.9-11.4-8.1-16.8-12.7-7.1-6.2-7.3-7.2-5.5-13v.4h-.1Z"/>
            <path class="st27" d="M108.1,290.7c.4.7.7,1.7,1,2.6l.7.2c-.2-1.2-.9-2.6-1.7-2.9h0ZM105.5,291.5c.2.2.4.6.6,1,0,.4.2.7.2,1.1.2.7.2,1.5.2,2.4s0,1.6.2,2.4,0,1.6,0,2.4c.2-.7.2-1.6.2-2.4v-2.4c0-.7-.2-1.6-.4-2.4-.2-.7-.7-1.4-1.2-2h0ZM104,294.5c0-.7-.5-1.5-1-2.1.2.2.4.7.4,1.1s.2.7.2,1.1c0,.7.2,1.5.2,2.4.2,1.5.2,3.1.4,4.7.2-.7.2-1.6.2-2.4v-2.4c0-.7-.2-1.5-.4-2.4h-.1ZM98.2,299.1c.2,0,.7,0,1,.2s.5.2.7.4v.2s0,.2.2.4c.2.2.4.4.6.5,0-.2-.2-.4-.2-.6v-.7h-.2c-.2-.2-.6-.2-.9-.4h-1.2Z"/>
            <path class="st1" d="M85.5,222.4c-5.2,1.7-9.3,2.9-12.1,9.9-3.2,8.6-7.3,21.6-7.3,21.6,0,0,1.2,3.5,7.6,5.5s9.1.4,9.1.4c0,0,3.7-10.8,5.2-15.4s4.1-17.6-2.5-22h0Z"/>
          </g>
          <path class="st15" d="M122.9,319.4c.7.2,1.9.2,2.6-.2l44-24.8c.7-.4,1.2-1.2,1.5-2.1l5-28.5v-.5c0-.7-.2-1.6-.9-2.1l-45.6,25.8c-.6.2-1,.9-1.1,1.5l-5.5,30.9h0Z"/>
          <path class="st32" d="M122.1,319.1l.2.2s.2.2.4.2l5.5-30.9c0-.6.5-1.2,1.1-1.5l45.6-25.8c-.2-.2-.4-.2-.6-.5l-45.7,26c-.6.2-1,.9-1.1,1.5l-5.5,30.9h.1Z"/>
          <path class="st1" d="M128.7,287.6l-.7-.4c-.2.2-.4.6-.4.9l-5.5,30.9.2.2s.2.2.4.2l5.5-30.9c0-.2.2-.6.4-.9h.1Z"/>
          <path class="st0" d="M147.7,293.4c.2-1.9,2.4-4.5,4.5-5.6s3.6-.6,3.2,1.2-2.4,4.5-4.5,5.6-3.6.6-3.2-1.2Z"/>
        </g>
      </g>
    </g>
  </g>
  <g>
    <path class="st3" d="M374.5,157.7v-12.7c0-1.7,0-1.9,1.5-.9.4.2.9.6,1.4.7,1.1.4,1.2,1.1,1.2,2.2v25.1c0,.2-.6.5-.7.4-1.2-.7-2.7-1.2-3.7-2.4-.7-.7-1-2.1-1.2-3.2-1.9-5.8-3.5-11.7-5.3-17.5,0-.2,0-.3-.2-.4v15.5c0,1.2-.2,1.5-1.4.9-1.9-1-2.7-2.5-2.7-4.6v-23.4c0-.5.2-.7.9-.4,1.4.7,2.9,1.6,4.3,2.5.5.4,1,1,1.2,1.7,1.2,3.9,2.4,7.7,3.5,11.6.4,1.2.7,2.6,1.1,4,0,.2.2.6.2.9h0Z"/>
    <path class="st3" d="M329.4,127.3v15.9c0,1.1-.2,1.2-1.2.7-3.6-2.2-2.9-1.1-3-5.3v-23.4c.4,0,.7.2,1,.2,1.4.7,2.9,1.6,4.2,2.5.4.2.7.7,1,1.2,1.2,4,2.4,8.1,3.5,11.9.5,1.6,1,3.4,1.5,5h.2v-12.8c0-.4,0-.7.2-1.2.4,0,.9,0,1.2.2,3.2,1.9,2.7,1,2.7,4.7v22.4c0,1.5-.2,1.6-1.5.9-.7-.4-1.5-.9-2.2-1.2-1.2-.6-1.6-1.7-1.9-2.9-1.7-6-3.5-11.9-5.3-17.9,0-.4-.2-.7-.4-1.1h-.2.1Z"/>
    <path class="st3" d="M305.9,103.6c1.6.9,2.9,1.5,4.2,2.4,1.9,1.2,3.9,2.4,5.8,3.6,2.4,1.4,3.4,3.9,4.5,6.1,1,2.2.7,4.5.7,6.8s-.7,2.4-2,3.1c-.7.4-.7.7-.6,1.6.9,3,1.9,6,2.7,9.1.2.7.5,1.5.7,2.4,0,.4,0,.9.2,1.2h-.4c-1.6-1-3.4-1.9-5-2.9-.4-.2-.6-.7-.7-1.2-.9-3.4-1.9-6.8-2.6-10.2-.2-1.1-1.1-1.5-2.2-1.9-.4,3.4,0,6.6-.2,9.9-.4,0-.6,0-.7-.2-1.1-.7-2.2-1.4-3.4-2-.7-.4-1-1-1-1.9v-25.8h-.1ZM311.1,111.6v3.9c0,2.9.2,3.4,2.9,4.2,1,.4,1.6,0,1.9-.9.6-3-1.2-6.2-4.6-7.2h-.1Z"/>
    <path class="st3" d="M351.2,145.9c-.5,2-.7,3.9,0,5.6.4.7,1.6,1.2,2.5,1.9,1.9,1.1,3.7,2.1,5.5,3.4.2.2.7.7.7,1v3.5c0,1.1-.2,1-1,.6-4.1-2.4-8.2-4.7-12.3-7.1-.7-.4-1.1-1-1-1.9v-24.2c0-1.5.2-1.7,1.6-.9,2.5,1.4,5,2.9,7.3,4.2,1.5.9,3,1.7,4.5,2.7.2.2.7.5.7.7v4.8c-3-1.7-5.7-3.4-8.8-5v2.9c-.4,2.1.7,3.4,2.5,4.1,1.2.6,2.4,1.2,3.5,2.1.4.2.7.9.7,1.4v2.7c0,.9-.2,1.2-1.2.7-1.6-.9-3.2-1.9-4.8-2.7,0-.2-.2-.2-.7-.5h.4Z"/>
    <path class="st3" d="M288.5,93.6c1.9,1.1,3.7,2.1,5.5,3.1,2.5,1.5,5,3,7.6,4.5.7.4,1,1,.9,1.9v2.6c0,.9-.2,1.1-1.1.6-2.1-1.2-4.2-2.4-6.3-3.6-.4-.2-.7-.4-1.5-.7v3.1c-.2,1.7.4,2.9,2,3.5,1.4.7,2.9,1.5,4.1,2.4.4.2.7.7.7,1.2v3c0,1-.2,1.1-1.2.6-1.4-.7-2.9-1.6-4.2-2.4-.4-.2-.7-.4-1.4-.6v5.3c0,.5.7.9,1.2,1.2,2.1,1.2,4.3,2.5,6.5,3.7.7.4,1.1.9,1.1,1.7v3c0,.9-.2,1.1-1.1.6-3.4-1.9-6.6-3.9-9.9-5.7-.7-.5-1.6-1-2.4-1.4-.6-.2-.9-.7-.9-1.5v-24.8c0-.2.2-.6.2-1.1l.2-.2h0Z"/>
    <path class="st3" d="M273.2,84.6c1.6,1,3.2,1.9,4.7,2.9.2.2.2.7.2,1.2v18.1c0,1.6.4,2.7,1.9,3.4,1.6.7,3.1,1.9,4.6,2.7.7.4.9.9.9,1.7v3.1c0,.9-.2,1.1-1.1.6-2.9-1.7-5.7-3.5-8.7-5s-3.4-2.5-2.9-5v-2.7c0-6.5,0-13-.2-19.5v-1.2c.2,0,.3,0,.4-.2h.2,0Z"/>
  </g>
  <g>
    <g>
      <path class="st24" d="M108.6,79.2c-1.6-1.1-2.4-2.9-2.5-5h6.2c0,.7.2,1.2.6,1.6s.9.5,1.5.5,1-.1,1.4-.4c.4-.2.5-.6.5-1.1s-.2-1.1-.9-1.4c-.6-.4-1.5-.7-2.7-1.1-1.4-.5-2.5-.9-3.4-1.4-.9-.4-1.6-1-2.2-1.9s-1-1.9-1-3.2.4-2.5,1-3.5,1.6-1.7,2.7-2.2c1.2-.5,2.5-.7,4-.7,2.5,0,4.3.6,5.8,1.7s2.2,2.7,2.4,4.8h-6.3c0-.6-.2-1.1-.6-1.4-.4-.4-.9-.5-1.4-.5s-.7.1-1.1.4c-.2.2-.4.6-.4,1.1s.1.7.5,1c.2.2.7.5,1.1.7.5.2,1.1.5,2,.7,1.4.5,2.4.9,3.2,1.4.9.5,1.6,1.1,2.2,1.9s1,1.9,1,3-.4,2.4-1,3.4c-.6,1-1.5,1.7-2.7,2.4-1.1.6-2.6.9-4.2.9-2.5,0-4.5-.6-6-1.7h.2Z"/>
      <path class="st24" d="M125.8,64.8c.9-1.6,2.1-2.9,3.6-3.7,1.6-.9,3.4-1.4,5.5-1.4s4.8.7,6.6,2.1c1.7,1.4,3,3.2,3.5,5.7h-6.2c-.4-.7-.9-1.4-1.6-1.9-.6-.4-1.5-.6-2.4-.6-1.4,0-2.4.5-3.2,1.5-.7,1-1.2,2.2-1.2,3.9s.4,2.9,1.2,3.9c.7,1,1.9,1.5,3.2,1.5s1.6-.2,2.4-.6c.6-.4,1.2-1,1.6-1.9h6.2c-.5,2.4-1.6,4.3-3.5,5.7-1.7,1.4-4,2.1-6.6,2.1s-3.9-.5-5.5-1.4c-1.6-.9-2.9-2.1-3.6-3.7-.9-1.6-1.2-3.5-1.2-5.6s.4-3.9,1.2-5.5h0Z"/>
      <path class="st24" d="M166.4,59.8v20.9h-5.8v-8.4h-7.1v8.4h-5.8v-20.9h5.8v7.8h7.1v-7.8s5.8,0,5.8,0Z"/>
      <path class="st24" d="M175.4,59.8v12.2c0,1.1.2,2,.7,2.6.5.6,1.4.9,2.4.9s1.9-.4,2.4-1,.9-1.5.9-2.6v-12.2h5.8v12.2c0,1.9-.4,3.6-1.2,5s-1.9,2.4-3.4,3.1c-1.4.6-3,1-4.6,1s-3.2-.4-4.6-1c-1.4-.6-2.4-1.7-3.1-3s-1.1-3-1.1-5v-12.2s5.8,0,5.8,0Z"/>
      <path class="st24" d="M196.7,76.3h6.5v4.5h-12.3v-20.9h5.8v16.5h0Z"/>
      <path class="st24" d="M211.2,64.5v3.4h6.7v4.5h-6.7v3.7h7.6v4.7h-13.4v-20.9h13.4v4.7h-7.6Z"/>
    </g>
    <g class="st29">
      <path class="st24" d="M109.7,80.2c-1.6-1.1-2.4-2.9-2.5-5h6.2c0,.7.2,1.2.6,1.6s.9.5,1.5.5,1-.1,1.4-.4c.4-.2.5-.6.5-1.1s-.2-1.1-.9-1.4c-.6-.4-1.5-.7-2.7-1.1-1.4-.5-2.5-.9-3.4-1.4-.9-.4-1.6-1-2.2-1.9s-1-1.9-1-3.2.4-2.5,1-3.5,1.6-1.7,2.7-2.2c1.2-.5,2.5-.7,4-.7,2.5,0,4.3.6,5.8,1.7s2.2,2.7,2.4,4.8h-6.3c0-.6-.2-1.1-.6-1.4-.4-.4-.9-.5-1.4-.5s-.7.1-1.1.4c-.2.2-.4.6-.4,1.1s.1.7.5,1c.2.2.7.5,1.1.7.5.2,1.1.5,2,.7,1.4.5,2.4.9,3.2,1.4.9.5,1.6,1.1,2.2,1.9s1,1.9,1,3-.4,2.4-1,3.4c-.6,1-1.5,1.7-2.7,2.4-1.1.6-2.6.9-4.2.9-2.5,0-4.5-.6-6-1.7h.2Z"/>
      <path class="st24" d="M126.7,65.8c.9-1.6,2.1-2.9,3.6-3.7,1.6-.9,3.4-1.4,5.5-1.4s4.8.7,6.6,2.1c1.7,1.4,3,3.2,3.5,5.7h-6.2c-.4-.7-.9-1.4-1.6-1.9-.6-.4-1.5-.6-2.4-.6-1.4,0-2.4.5-3.2,1.5-.7,1-1.2,2.2-1.2,3.9s.4,2.9,1.2,3.9c.7,1,1.9,1.5,3.2,1.5s1.6-.2,2.4-.6c.6-.4,1.2-1,1.6-1.9h6.2c-.5,2.4-1.6,4.3-3.5,5.7-1.7,1.4-4,2.1-6.6,2.1s-3.9-.5-5.5-1.4c-1.6-.9-2.9-2.1-3.6-3.7-.9-1.6-1.2-3.5-1.2-5.6s.4-3.9,1.2-5.5h0Z"/>
      <path class="st24" d="M167.4,60.8v20.9h-5.8v-8.4h-7.1v8.4h-5.8v-20.9h5.8v7.8h7.1v-7.8s5.8,0,5.8,0Z"/>
      <path class="st24" d="M176.4,60.8v12.2c0,1.1.2,2,.7,2.6.5.6,1.4.9,2.4.9s1.9-.4,2.4-1,.9-1.5.9-2.6v-12.2h5.8v12.2c0,1.9-.4,3.6-1.2,5s-1.9,2.4-3.4,3.1c-1.4.6-3,1-4.6,1s-3.2-.4-4.6-1c-1.4-.6-2.4-1.7-3.1-3s-1.1-3-1.1-5v-12.2s5.8,0,5.8,0Z"/>
      <path class="st24" d="M197.7,77.3h6.5v4.5h-12.3v-20.9h5.8v16.5h0Z"/>
      <path class="st24" d="M212.2,65.5v3.4h6.7v4.5h-6.7v3.7h7.6v4.7h-13.4v-20.9h13.4v4.7h-7.6Z"/>
    </g>
  </g>
</svg>