<?xml version="1.0" encoding="UTF-8"?>
<svg id="Layer_1" xmlns="http://www.w3.org/2000/svg" version="1.1" viewBox="0 0 500 500">
  <!-- Generator: Adobe Illustrator 29.1.0, SVG Export Plug-In . SVG Version: 2.1.0 Build 142)  -->
  <defs>
    <style>
      .st0 {
        fill: #004a99;
      }

      .st1 {
        fill: #ba4d3c;
      }

      .st2 {
        fill: #d2dfff;
      }

      .st3 {
        fill: #5d84f0;
      }

      .st4 {
        fill: #eec1bb;
      }

      .st5, .st6 {
        fill: #263238;
      }

      .st7 {
        fill: #31c3ff;
      }

      .st8, .st9, .st10, .st11 {
        fill: #fff;
      }

      .st12 {
        fill: #ce7a63;
      }

      .st13 {
        fill: #f7fef1;
      }

      .st14, .st15 {
        fill: #f0f0f0;
      }

      .st16 {
        fill: #638cfe;
      }

      .st9 {
        opacity: .6;
      }

      .st9, .st15, .st17, .st10, .st6, .st18, .st11 {
        isolation: isolate;
      }

      .st15 {
        opacity: .1;
      }

      .st19 {
        opacity: .4;
      }

      .st20, .st6, .st18, .st11 {
        opacity: .2;
      }

      .st21 {
        fill: #ffbe9d;
      }

      .st17 {
        fill: #231f20;
      }

      .st17, .st10, .st22 {
        opacity: .3;
      }

      .st23 {
        fill: #ebefff;
      }

      .st24 {
        fill: #d5794a;
      }

      .st25 {
        fill: #e0e0e0;
      }

      .st26 {
        fill: #d4827d;
      }

      .st27 {
        fill: #996964;
      }

      .st28 {
        fill: #5591fe;
      }

      .st29 {
        fill: #5591ff;
      }

      .st30 {
        fill: #455a64;
      }

      .st31 {
        fill: #ebebeb;
      }

      .st32 {
        fill: #f5f5f5;
      }

      .st33 {
        fill: #784d48;
      }

      .st34 {
        opacity: .7;
      }

      .st35 {
        fill: #478bff;
      }

      .st36 {
        fill: #eb996e;
      }

      .st37 {
        fill: #f8fff2;
      }

      .st38 {
        fill: #e6e6e6;
      }
    </style>
  </defs>
  <g class="st34">
    <path class="st14" d="M334.3,268.2s28.3,9.8,16.9,22.8c-11.4,12.9-32.3,22.2-19.4,30.6,12.8,8.3,126.9,3.8,126.9,3.8l-14.6-57h-109.8,0Z"/>
    <path class="st14" d="M461.3,379.8c-14.6-18.8-244.3-24.1-257.8-37.2-13.5-13.1,35-46.3,34.8-60.9s-215.8-9.4-215.8-9.4v84.4c2.8,15.5,15.1,28.4,29.4,35.3,15.7,7.5,33.6,9.1,50.9,9.9,17.5.8,35.1,1,51.7,6.3,16.2,5.1,27.6,14.4,33.8,30.2l295.1.2c-.3-1.9-7.4-40.2-22-58.9h-.1Z"/>
    <g>
      <rect class="st25" x="173.4" y="120.2" width="142.2" height="138.5"/>
      <rect class="st10" x="181.5" y="206.5" width="127.7" height="49.5"/>
      <rect class="st8" x="182.7" y="206.5" width="125.6" height="2.9"/>
      <g>
        <rect class="st38" x="322.7" y="135.4" width="145.1" height="137"/>
        <polygon class="st25" points="324.8 135.4 470.6 135.4 463.6 122.7 324.8 122.7 324.8 135.4"/>
        <rect class="st8" x="324.8" y="219" width="143" height="1.7" rx=".7" ry=".7"/>
        <g>
          <g>
            <rect class="st32" x="436.2" y="148.1" width="11.4" height="23"/>
            <path class="st11" d="M436.2,151.8l11.4,9.6v5.7l-11.4-8.9v-6.4h0Z"/>
          </g>
          <g>
            <rect class="st32" x="413.3" y="148.1" width="11.4" height="23"/>
            <path class="st11" d="M413.3,151.8l11.4,9.6v5.7l-11.4-8.9v-6.4h0Z"/>
          </g>
          <g>
            <rect class="st32" x="390.5" y="148.1" width="11.4" height="23"/>
            <path class="st11" d="M390.5,151.8l11.4,9.6v5.7l-11.4-8.9v-6.4h0Z"/>
          </g>
          <g>
            <rect class="st32" x="367.6" y="148.1" width="11.4" height="23"/>
            <path class="st11" d="M367.6,151.8l11.4,9.6v5.7l-11.4-8.9v-6.4h0Z"/>
          </g>
          <rect class="st8" x="434.2" y="171" width="14.7" height="1.7"/>
          <rect class="st8" x="411.5" y="171" width="14.7" height="1.7"/>
          <rect class="st8" x="388.9" y="171" width="14.7" height="1.7"/>
          <rect class="st8" x="366.2" y="171" width="14.7" height="1.7"/>
          <g>
            <rect class="st32" x="345.2" y="148.1" width="11.4" height="23"/>
            <path class="st11" d="M345.2,151.8l11.4,9.6v5.7l-11.4-8.9v-6.4h0Z"/>
          </g>
          <rect class="st8" x="343.7" y="171" width="14.7" height="1.7"/>
        </g>
        <g>
          <g>
            <rect class="st32" x="436.2" y="185.8" width="11.4" height="23"/>
            <path class="st11" d="M436.2,189.7l11.4,9.6v5.7l-11.4-8.9v-6.4h0Z"/>
          </g>
          <g>
            <rect class="st32" x="413.3" y="185.8" width="11.4" height="23"/>
            <path class="st11" d="M413.3,189.7l11.4,9.6v5.7l-11.4-8.9v-6.4h0Z"/>
          </g>
          <g>
            <rect class="st32" x="390.5" y="185.8" width="11.4" height="23"/>
            <path class="st11" d="M390.5,189.7l11.4,9.6v5.7l-11.4-8.9v-6.4h0Z"/>
          </g>
          <g>
            <rect class="st32" x="367.6" y="185.8" width="11.4" height="23"/>
            <path class="st11" d="M367.6,189.7l11.4,9.6v5.7l-11.4-8.9v-6.4h0Z"/>
          </g>
          <rect class="st8" x="434.2" y="208.8" width="14.7" height="1.7"/>
          <rect class="st8" x="411.5" y="208.8" width="14.7" height="1.7"/>
          <rect class="st8" x="388.9" y="208.8" width="14.7" height="1.7"/>
          <rect class="st8" x="366.2" y="208.8" width="14.7" height="1.7"/>
          <g>
            <rect class="st32" x="345.2" y="185.8" width="11.4" height="23"/>
            <path class="st11" d="M345.2,189.7l11.4,9.6v5.7l-11.4-8.9v-6.4h0Z"/>
          </g>
          <rect class="st8" x="343.7" y="208.8" width="14.7" height="1.7"/>
        </g>
        <g>
          <g>
            <rect class="st32" x="436.2" y="232.2" width="11.4" height="23"/>
            <path class="st11" d="M436.2,236l11.4,9.6v5.7l-11.4-8.9v-6.4h0Z"/>
          </g>
          <g>
            <rect class="st32" x="413.3" y="232.2" width="11.4" height="23"/>
            <path class="st11" d="M413.3,236l11.4,9.6v5.7l-11.4-8.9v-6.4h0Z"/>
          </g>
          <g>
            <rect class="st32" x="390.5" y="232.2" width="11.4" height="23"/>
            <path class="st11" d="M390.5,236l11.4,9.6v5.7l-11.4-8.9v-6.4h0Z"/>
          </g>
          <g>
            <rect class="st32" x="367.6" y="232.2" width="11.4" height="23"/>
            <path class="st11" d="M367.6,236l11.4,9.6v5.7l-11.4-8.9v-6.4h0Z"/>
          </g>
          <rect class="st8" x="434.2" y="255.2" width="14.7" height="1.7"/>
          <rect class="st8" x="411.5" y="255.2" width="14.7" height="1.7"/>
          <rect class="st8" x="388.9" y="255.2" width="14.7" height="1.7"/>
          <rect class="st8" x="366.2" y="255.2" width="14.7" height="1.7"/>
          <g>
            <rect class="st32" x="345.2" y="232.2" width="11.4" height="23"/>
            <path class="st11" d="M345.2,236l11.4,9.6v5.7l-11.4-8.9v-6.4h0Z"/>
          </g>
          <rect class="st8" x="343.7" y="255.2" width="14.7" height="1.7"/>
        </g>
      </g>
      <g>
        <rect class="st38" x="22.2" y="135.4" width="145.1" height="137"/>
        <polygon class="st25" points="165.2 135.4 19.3 135.4 26.5 122.7 165.2 122.7 165.2 135.4"/>
        <rect class="st8" x="22.2" y="219" width="143" height="1.7" rx=".7" ry=".7"/>
        <g>
          <g>
            <rect class="st32" x="42.5" y="148.1" width="11.4" height="23"/>
            <path class="st11" d="M53.9,151.8l-11.4,9.6v5.7l11.4-8.9v-6.4h0Z"/>
          </g>
          <g>
            <rect class="st32" x="65.4" y="148.1" width="11.4" height="23"/>
            <path class="st11" d="M76.8,151.8l-11.4,9.6v5.7l11.4-8.9v-6.4h0Z"/>
          </g>
          <g>
            <rect class="st32" x="88.3" y="148.1" width="11.4" height="23"/>
            <path class="st11" d="M99.6,151.8l-11.4,9.6v5.7l11.4-8.9v-6.4h0Z"/>
          </g>
          <g>
            <rect class="st32" x="111.1" y="148.1" width="11.4" height="23"/>
            <path class="st11" d="M122.5,151.8l-11.4,9.6v5.7l11.4-8.9v-6.4h0Z"/>
          </g>
          <rect class="st8" x="41.2" y="171" width="14.7" height="1.7"/>
          <rect class="st8" x="63.8" y="171" width="14.7" height="1.7"/>
          <rect class="st8" x="86.5" y="171" width="14.7" height="1.7"/>
          <rect class="st8" x="109.1" y="171" width="14.7" height="1.7"/>
          <g>
            <rect class="st32" x="133.5" y="148.1" width="11.4" height="23"/>
            <path class="st11" d="M144.9,151.8l-11.4,9.6v5.7l11.4-8.9v-6.4h0Z"/>
          </g>
          <rect class="st8" x="131.7" y="171" width="14.7" height="1.7"/>
        </g>
        <g>
          <g>
            <rect class="st32" x="42.5" y="185.8" width="11.4" height="23"/>
            <path class="st11" d="M53.9,189.7l-11.4,9.6v5.7l11.4-8.9v-6.4h0Z"/>
          </g>
          <g>
            <rect class="st32" x="65.4" y="185.8" width="11.4" height="23"/>
            <path class="st11" d="M76.8,189.7l-11.4,9.6v5.7l11.4-8.9v-6.4h0Z"/>
          </g>
          <g>
            <rect class="st32" x="88.3" y="185.8" width="11.4" height="23"/>
            <path class="st11" d="M99.6,189.7l-11.4,9.6v5.7l11.4-8.9v-6.4h0Z"/>
          </g>
          <g>
            <rect class="st32" x="111.1" y="185.8" width="11.4" height="23"/>
            <path class="st11" d="M122.5,189.7l-11.4,9.6v5.7l11.4-8.9v-6.4h0Z"/>
          </g>
          <rect class="st8" x="41.2" y="208.8" width="14.7" height="1.7"/>
          <rect class="st8" x="63.8" y="208.8" width="14.7" height="1.7"/>
          <rect class="st8" x="86.5" y="208.8" width="14.7" height="1.7"/>
          <rect class="st8" x="109.1" y="208.8" width="14.7" height="1.7"/>
          <g>
            <rect class="st32" x="133.5" y="185.8" width="11.4" height="23"/>
            <path class="st11" d="M144.9,189.7l-11.4,9.6v5.7l11.4-8.9v-6.4h0Z"/>
          </g>
          <rect class="st8" x="131.7" y="208.8" width="14.7" height="1.7"/>
        </g>
        <g>
          <g>
            <rect class="st32" x="42.5" y="232.2" width="11.4" height="23"/>
            <path class="st11" d="M53.9,236l-11.4,9.6v5.7l11.4-8.9v-6.4h0Z"/>
          </g>
          <g>
            <rect class="st32" x="65.4" y="232.2" width="11.4" height="23"/>
            <path class="st11" d="M76.8,236l-11.4,9.6v5.7l11.4-8.9v-6.4h0Z"/>
          </g>
          <g>
            <rect class="st32" x="88.3" y="232.2" width="11.4" height="23"/>
            <path class="st11" d="M99.6,236l-11.4,9.6v5.7l11.4-8.9v-6.4h0Z"/>
          </g>
          <g>
            <rect class="st32" x="111.1" y="232.2" width="11.4" height="23"/>
            <path class="st11" d="M122.5,236l-11.4,9.6v5.7l11.4-8.9v-6.4h0Z"/>
          </g>
          <rect class="st8" x="41.2" y="255.2" width="14.7" height="1.7"/>
          <rect class="st8" x="63.8" y="255.2" width="14.7" height="1.7"/>
          <rect class="st8" x="86.5" y="255.2" width="14.7" height="1.7"/>
          <rect class="st8" x="109.1" y="255.2" width="14.7" height="1.7"/>
          <g>
            <rect class="st32" x="133.5" y="232.2" width="11.4" height="23"/>
            <path class="st11" d="M144.9,236l-11.4,9.6v5.7l11.4-8.9v-6.4h0Z"/>
          </g>
          <rect class="st8" x="131.7" y="255.2" width="14.7" height="1.7"/>
        </g>
      </g>
      <g>
        <g>
          <rect class="st32" x="202.4" y="147.1" width="12.4" height="32.5"/>
          <path class="st11" d="M214.7,152.5l-12.4,13.6s0,8.2,0,8.1,12.4-12.7,12.4-12.6,0-8.9,0-8.9h0Z"/>
        </g>
        <g>
          <rect class="st32" x="227.2" y="147.1" width="12.4" height="32.5"/>
          <path class="st11" d="M239.7,152.5l-12.4,13.6s0,8.2,0,8.1,12.4-12.7,12.4-12.6,0-8.9,0-8.9h0Z"/>
        </g>
        <g>
          <rect class="st32" x="252.2" y="147.1" width="12.4" height="32.5"/>
          <path class="st11" d="M264.5,152.5l-12.4,13.6s0,8.2,0,8.1,12.4-12.7,12.4-12.6,0-8.9,0-8.9h0Z"/>
        </g>
        <g>
          <rect class="st32" x="277" y="147.1" width="12.4" height="32.5"/>
          <path class="st11" d="M289.5,152.5l-12.4,13.6s0,8.2,0,8.1,12.4-12.7,12.4-12.6,0-8.9,0-8.9h0Z"/>
        </g>
        <rect class="st8" x="200.9" y="179.6" width="16" height="1.9"/>
        <rect class="st8" x="225.5" y="179.6" width="16" height="1.9"/>
        <rect class="st8" x="250.3" y="179.6" width="16" height="1.9"/>
        <rect class="st8" x="274.9" y="179.6" width="16" height="1.9"/>
      </g>
      <g>
        <g>
          <polygon class="st31" points="304 125.4 304 120.2 331.1 120.2 331.1 125.4 325.9 128.5 308.3 128.5 304 125.4"/>
          <rect class="st31" x="308.3" y="128.5" width="17.7" height="133.1"/>
        </g>
        <polygon class="st25" points="304 125.4 331.1 125.4 325.9 128.5 308.3 128.5 304 125.4"/>
        <g>
          <rect class="st25" x="311.7" y="131.9" width="1.5" height="126.4" rx=".6" ry=".6"/>
          <rect class="st25" x="316.8" y="131.9" width="1.5" height="126.4" rx=".6" ry=".6"/>
          <rect class="st25" x="321.8" y="131.9" width="1.5" height="126.4" rx=".6" ry=".6"/>
        </g>
      </g>
      <g>
        <g>
          <polygon class="st31" points="157.3 125.4 157.3 120.2 184.5 120.2 184.5 125.4 179.4 128.5 161.6 128.5 157.3 125.4"/>
          <rect class="st31" x="161.6" y="128.5" width="17.7" height="133.1"/>
        </g>
        <polygon class="st25" points="157.3 125.4 184.5 125.4 179.4 128.5 161.6 128.5 157.3 125.4"/>
        <g>
          <rect class="st25" x="165.1" y="131.9" width="1.5" height="126.4" rx=".6" ry=".6"/>
          <rect class="st25" x="170.1" y="131.9" width="1.5" height="126.4" rx=".6" ry=".6"/>
          <rect class="st25" x="175.2" y="131.9" width="1.5" height="126.4" rx=".6" ry=".6"/>
        </g>
      </g>
      <g>
        <rect class="st25" x="137.4" y="261.6" width="210.3" height="5.7"/>
        <rect class="st25" x="145.9" y="256" width="194" height="5.7"/>
        <rect class="st25" x="129.1" y="267.3" width="225.5" height="5.7"/>
      </g>
      <g>
        <path class="st25" d="M151.7,110c.9,0,94.9-45,94.9-45l94.3,45h-189.2,0Z"/>
        <polygon class="st38" points="340.7 120.2 153.5 120.2 151.3 120.2 151.3 110 340.7 110 340.7 120.2"/>
        <rect class="st31" x="151.3" y="110" width="189.4" height="1.2"/>
      </g>
      <g>
        <rect class="st25" x="202.8" y="217.3" width="89.4" height="38.7"/>
        <rect class="st32" x="205.3" y="219.6" width="18" height="36.3"/>
        <rect class="st32" x="271.5" y="219.6" width="18.7" height="36.3"/>
        <rect class="st32" x="225.7" y="219.6" width="20.4" height="36.3"/>
        <rect class="st32" x="248.7" y="219.6" width="20.4" height="36.3"/>
        <path class="st11" d="M223.2,223.1c0-.1-18,13.1-18,13.5v9.2l18-13.5v-9.2Z"/>
        <polyline class="st11" points="223.2 236.7 205.3 249.8 205.3 252.5 223.2 239.2 223.2 237.2"/>
        <path class="st11" d="M290.2,223.1c0-.1-18.7,13.1-18.7,13.5v9.2l18.7-13.5v-9.2Z"/>
        <polyline class="st11" points="290.2 236.7 271.5 249.8 271.5 252.5 290.2 239.2 290.2 237.2"/>
        <polygon class="st11" points="246.1 227.8 225.7 239.7 225.7 247.7 246.1 235 246.1 227.8"/>
        <polygon class="st11" points="269.2 233 248.7 246 248.7 254 269.2 241.2 269.2 233"/>
        <rect class="st25" x="242.9" y="236" width="3.2" height="9.8"/>
        <rect class="st25" x="248.9" y="236" width="3.2" height="9.8"/>
      </g>
    </g>
  </g>
  <g id="freepik--Shadow--inject-2">
    <path class="st14" d="M497.6,439.4c0,3.1-108.9,5.7-243.2,5.7s-142.2-.8-186.7-2c-24.2-.7-41.8-1.5-50.5-2.4-4-.4-6.1-.9-6.1-1.3s2.8-1,8-1.4c9.8-.9,28.6-1.7,53.7-2.3,44.5-1.2,109.3-1.9,181.6-1.9,134.3,0,243.2,2.7,243.2,5.7h0Z"/>
  </g>
  <g>
    <path class="st35" d="M39.9,414.8c-.7-.4-1.3-.9-2.1-1.3-1.1-.6-2.3-1.1-3.4-1.5.7,1.8,1.2,3.4,1.5,5.2,1.3-.8,2.7-1.7,4-2.4h0Z"/>
    <path class="st29" d="M37.8,413.6c.8.4,1.4.8,2.1,1.3,2.2-1.2,4.4-2.4,6.6-3.4-.3-.7-.7-1.2-1-1.8-.8,0-1.5-.1-2.3-.2-3.6-.3-7.5-.8-10.9-2.1.8,1.5,1.5,3.2,2.1,4.7,1.1.4,2.2,1,3.4,1.5h0Z"/>
    <path class="st3" d="M49.6,410c-1.4-.1-2.8-.2-4.2-.4.3.6.7,1.2,1,1.8,1-.4,2.1-1,3.1-1.4h.1Z"/>
    <path class="st2" d="M125.8,297c-6.7-8.4-12-16.8-16.1-26.7-1-2.4-2-5.1-3.5-7.2,0,2.8,0,5.4.2,8.2.3,4.6,1,9.5,3.4,13.4,1.3,2.1,3.2,3.9,5.1,5.6.8.8,1.7,1.5,2.4,2.3,2.7,2.7,3.4,5.4,4.7,8.4.2.4.3.8.6,1.2.6,1,1.1,2,1.7,3.1h.3c2.8.7,5.7,1.2,8.1,2.9-1.4-4-4-7.3-7-11.2h.1Z"/>
    <path class="st2" d="M132.2,239.1c-2.4-.3-10.3-4.3-18.1-8.9-.8.6-1.5,1.2-2.2,1.9-.2.2-.4.6-.7.8h.1c3.4,1.4,16.9,5.9,18.8,6.2,1,.2,2.4.4,3.5,0h-1.4Z"/>
    <path class="st2" d="M33.1,180c-.2-.6-.4-1-.6-1.5-1.3.6-2.5,1-3.9,1.4h4.4Z"/>
    <path class="st35" d="M67.4,248.1c5.5,1.5,11.3,4.4,13.5,9.8,1.3,3.1,1.1,6.6,1.9,9.9,1.1,4.4,3.9,8.1,7.5,10.9,2,1.5,4.1,3,6.3,4.1,5.9,3,12.3,4.6,18.2,7.2-1.9-1.8-3.8-3.5-5.1-5.6-2.5-4-3.2-8.7-3.4-13.4-.2-2.7-.2-5.4-.2-8.2h0c-7.1-5.4-13.3-11.9-18.3-19.2-2.8-4-6.7-6.8-11-8.9-4.9-2.3-9.8-2.1-14.9-3.5-2.9-.8-6.5-2.3-9.6-4.3,0,2.3-.1,4.6-.3,7-.2,2.8-.6,5.6-1,8.4,0,0,.2.1.3.2,4.7,3.2,10.7,4.1,16.2,5.6Z"/>
    <path class="st29" d="M76.8,234.9c4.3,2,8.3,5,11,8.9,5.1,7.3,11.3,13.8,18.3,19.2,0-6.8.7-13.7,1.9-20.4,0-.3.1-.8.2-1.1-4.2-4.7-9.1-8.9-14.1-12.6-2.7-1.9-5.9-5-8.9-6.1-3.9-1.3-8.8,0-12.9-.4-5.7-.6-11.5-1.8-16.5-4.7-1.3-.8-2.5-1.7-3.8-2.7.2,4.1.4,8.1.3,12.1,3.1,2,6.7,3.5,9.6,4.3,5.1,1.4,10.1,1.2,14.9,3.5h-.1Z"/>
    <path class="st29" d="M68.7,253.2s.2,0,.2.1c2.9,1.7,5.7,3.6,7.4,6.5,4.2,7.2,0,15.9,4.3,22.4,9.8,7.2,21.5,11.8,32.9,16.3,2.8,1.1,5.6,2.1,8.6,2.2-1.4-3-2.2-5.7-4.7-8.4-.8-.8-1.7-1.5-2.4-2.3-6.1-2.5-12.4-4.3-18.2-7.2-2.2-1.1-4.4-2.5-6.3-4.1-3.5-2.9-6.4-6.5-7.5-10.9-.8-3.3-.7-6.8-1.9-9.9-2.2-5.3-8-8.2-13.5-9.8-5.5-1.5-11.5-2.4-16.2-5.6,0,0-.2-.1-.3-.2-.1.9-.2,1.7-.4,2.4,6.1,1.2,13,5.4,17.9,8.2.1,0,.2.1.4.2h-.2Z"/>
    <path class="st3" d="M101.3,297.3c3.3,1.5,6.7,2.9,10.2,4.1,4.3,1.5,8.6,2.8,13,3.8-.6-1.1-1.2-2.1-1.7-3.1-.2-.4-.4-.8-.6-1.2-3,0-5.7-1.1-8.6-2.2-11.4-4.5-23.1-9.2-32.9-16.3.4.8,1.1,1.4,1.8,2.1,6.1,5.7,11.2,9.2,18.8,12.7v.2Z"/>
    <path class="st3" d="M72.1,222.3c4.1.4,9.1-.9,12.9.4,3.1,1.1,6.3,4.2,8.9,6.1,5.2,3.6,9.9,8,14.1,12.6.6-3.2,1-6.3,3.1-8.7.2-.2.4-.6.7-.8.8-.7,1.4-1.3,2.2-1.9-1.8-1.1-3.6-2.2-5.3-3.2-6.4-4.1-11.9-8.1-13-10.1-1.1-2.1-1.1-4.9-1.2-7.3-6.6,6.6-16.1,10.2-26.1,8.7-6.6-1-12.5-4-17-8.4.1,1.7.2,3.3.3,5,1.1,1,2.4,1.9,3.8,2.7,5,2.9,10.7,4.1,16.5,4.7h.1Z"/>
    <path class="st35" d="M64.9,116.7c-9.5,4.3-16.1,12.7-19.3,22.3,3.2,1.1,6.6,1.5,10.1,1.5.7-2.7,1.5-5.1,2.9-7.4,4.2-7.6,12-11.9,20.2-11.9.6-1.7,1.2-3.2,1.9-4.6.3-.9.8-1.7,1.1-2.4-5.7-.7-11.6.2-16.8,2.7h0Z"/>
    <path class="st35" d="M69.3,123.8c-7,3.3-11.2,9.6-12.9,16.8,6.1-.2,12.3-2,17.8-4.9,1.3-5,2.8-9.7,4.4-14-3.2,0-6.3.7-9.3,2.1Z"/>
    <path class="st29" d="M35.3,150c2.4.8,4.9,1.4,7.4,2,0-4.4.9-8.8,2.2-13-1.2-.4-2.4-1-3.5-1.7-1.2-.7-2.3-1.4-3.4-2.3-2.3,4.6-4.1,9.5-5.2,14.6.9,0,1.8.2,2.5.6h0Z"/>
    <path class="st29" d="M54.9,152.9c-.4-4.1-.2-8.4.8-12.4-3.4,0-6.8-.4-10.1-1.5-1.4,4.2-2.1,8.5-2.2,12.9,3.8.7,7.6,1,11.5.9h0Z"/>
    <path class="st29" d="M56.3,140.6c-1,3.8-1.2,7.8-.9,11.7v.7c5.1-.1,10.2-1,15-2.4,1-4.9,2.2-9.9,3.5-14.8-5.5,2.8-11.7,4.6-17.8,4.9h.1Z"/>
    <path class="st3" d="M55.7,152.9c.1,1.1.3,2.3.6,3.4,4.3-2.7,9.2-4.3,14.2-4.7,0-.3.1-.7.2-1-4.9,1.4-9.9,2.2-15,2.4h0Z"/>
    <path class="st3" d="M43.4,151.9v.7c0,4.7.8,9.6,2.2,14.2,2.5-4.1,6-7.5,9.9-10.2-.3-1.2-.6-2.5-.7-3.8-3.9,0-7.7-.2-11.5-.9h0Z"/>
    <path class="st3" d="M41,180v-.4c.7-4.4,2.1-8.4,4.2-12-1.7-5-2.5-10.4-2.4-15.7-2.5-.4-5-1.1-7.4-2-.8-.3-1.8-.6-2.5-.6-1.3,5.9-2,12-1.9,18,0,3.8.6,7.5,1.7,11,.1.6.3,1,.6,1.5h7.8Z"/>
    <path class="st7" d="M58.5,133.2c-1.3,2.3-2.2,4.9-2.9,7.4-1,4-1.2,8.3-.8,12.4.1,1.3.3,2.5.7,3.8.2-.1.4-.2.6-.3-.2-1.1-.4-2.3-.6-3.4v-.7c-.3-3.9,0-7.8.9-11.7,1.8-7.1,6-13.5,12.9-16.8,3-1.4,6.1-2.1,9.3-2.1,0-.2.1-.3.2-.6-8.2,0-16,4.3-20.2,11.9h-.1Z"/>
    <path class="st7" d="M43.4,151.9c0-4.4.8-8.8,2.2-12.9,3.2-9.6,9.8-17.9,19.3-22.3,5.2-2.4,11.2-3.3,16.8-2.7,0-.2.2-.3.3-.6-11.6-1.3-23.4,4-30.7,13.5-2.8,3.5-4.9,7.6-6.2,11.8-1.4,4.2-2.1,8.6-2.2,13-.1,5.3.7,10.6,2.4,15.7.1-.2.3-.4.4-.7-1.4-4.6-2.2-9.5-2.2-14.2v-.7h-.2Z"/>
    <path class="st37" d="M159.5,197.6c-.3-2.2-1.7-4.1-3.1-5.7-1.7-2-3.1-4.4-4.5-6.6-1.5-2.3-2.8-4.9-2.9-7.6v-1.9c-.2,0-.4.1-.7.2-.8.3-1.5.8-2.1,1.3s-1,1.7-1.7,2.2v.3c0,.4,0,.9.2,1.3,0,.3,0,.7-.2.9s-.4.1-.6,0c-.7,0-1.4-.3-2-.6-.7-.2-1.3-.4-2-.7-2.3-.8-4.6-1.5-7-2.4-2.2-.9-4.4-2-6.5-3.2h-.1c-1.2-.3-2.3-.8-3.4-1.4-.2,0,2.2-1.7,2.4-1.8.9-.3,1.8-.7,2.8-1,2.7-.8,5.5-1.1,8.3-1.2,1.3,0,2.7,0,3.9.1.2-2.9.4-5.7.4-8.6.2-4.6,0-9.4-1-13.9s-3-8.8-6-12.4-6.7-6.5-10.6-8.9c-3.9-2.5-8.1-4.6-12.3-6.6-4.3-1.9-8.6-3.6-13-5.1s-8.9-2.7-13.6-3.5c-.2,0-.6,0-.8-.1-.6.9-1.1,1.9-1.5,3,0,.2-.2.3-.3.6-.3.8-.8,1.5-1.1,2.4-1.8,9.2-.1,18.9,4.6,27,5.3,8.8,13.8,15.2,21.3,22.2,6.2,5.7,12.8,13,14.7,21.5,2,9.5-1.8,19.8,0,29.5,1.5,8.1,5.7,16.1,12.4,21.2.4.3.8.6,1.2.9,1.4-.6,2.8-1.7,3.5-3.2,1-1.8,1.3-4.1,1.8-6.1,0-.4.1-1,.2-1.4-.7-1.7-1-3.4-1.1-5.2.9.2,1.8.3,2.8.2.2,0,.4,0,.7-.1.4-.2.8-.4,1.2-.7,1.7-1,1.8-3.2,1.5-5,1.7-.3,3.1-1.7,3.3-3.3.1-1.3-.3-2.4-.3-3.8v-.4c-.2-1.3-.4-2.8.2-4,.8-1.7,2.7-2.3,4.3-2.8,1-.2,2.3-.7,3.5-.7s.4-.2.6-.3c1.5-1.1,3-2.7,2.7-4.7h-.2Z"/>
    <path class="st37" d="M83.7,110.3h.7c4.6.9,9.2,2,13.6,3.4,4.5,1.4,8.8,3.1,13.1,5s8.5,4,12.5,6.5c2,1.2,3.9,2.7,5.6,4.2,1.8,1.5,3.5,3.2,5,5,3.1,3.6,5,8.1,6,12.7s1.1,9.4.9,14c-.1,2.9-.4,5.7-.7,8.6,1.4.2,3,.7,4.2,1.3,1.5.9,3.6.8,5.4,0,.8-2.3,1.8-5.5,2.1-6.8,4.9-18.2-2.9-40.2-18.8-50.8-9.8-6.5-21.5-9.1-33-9.6-1.3,0-8.7-.4-10.8.2-.3,0-.6.2-.9.4-1.7.9-3.3,2.9-5,5.5v.3Z"/>
    <path class="st2" d="M101.3,214c-1.2-4.9-.7-9.8.1-14.8-1.5,4-3.9,7.5-6.7,10.5,0,2.4,0,5.2,1.2,7.3,1.1,2,6.5,6,13,10.1-3.3-3.9-6.3-8.1-7.5-12.9h-.1Z"/>
    <path class="st23" d="M148.6,206c-.6,1.2-.4,2.7-.2,4v.4c0-.3,0-.8.1-1.1.4-1.5,1.3-3,2.4-4.2,1.3-1.4,3.5-1.5,5.3-2.4-1.2,0-2.5.4-3.5.7-1.7.3-3.5,1.1-4.3,2.8h.2Z"/>
    <path class="st23" d="M144.7,171.3c-1.3-.8-2.8-1.1-4.2-1.3,0,.9-.1,1.8-.2,2.7.6,0,1.1,0,1.7.1,1.1,0,2.3.2,3.2.9.3.2.6.7.4,1.1,0,.2-.2.4-.3.7,0,.2-.2.6-.2.9-.2,1-.2,2.1-.2,3.2.7-.6,1.1-1.7,1.7-2.2s1.3-1,2.1-1.3c.2,0,.4-.1.7-.2,0-.7,0-1.3.2-1.9.1-.4.4-1.3.8-2.4-1.8.7-3.9.8-5.4,0h-.1Z"/>
    <path class="st23" d="M136.4,169.7c-2.7.1-5.6.4-8.3,1.2-.9.2-1.9.7-2.8,1-.2,0-2.7,1.7-2.4,1.8,1.1.7,2.2,1.1,3.4,1.4,0,0-.1-.1-.1-.2,0,0,.1-.2.2-.2,1.8-1,3.8-1.5,5.7-1.9,2.1-.3,4.3-.4,6.4-.3h1.5c0-.9.1-1.8.2-2.7-1.3-.2-2.7-.2-3.9-.1h-.1Z"/>
    <path class="st23" d="M139.4,223c0,1.8.4,3.5,1.1,5.2.2-1.7.3-3.2,1.5-4.5.2-.2.4-.3.7-.6-.2,0-.4.1-.7.1-.9,0-1.9,0-2.8-.2h.1Z"/>
    <path class="st23" d="M42.5,183.6c2.4-16.8,17.9-28.4,34.7-26s28.4,17.9,26,34.7c-.3,2.3-1,4.6-1.8,6.7-.8,5-1.4,10.1-.1,14.8,1.3,4.9,4.2,8.9,7.5,12.9,1.8,1.1,3.5,2.2,5.3,3.2,7.8,4.6,15.7,8.6,18.1,8.9h1.4c.4,0,.9-.1,1.2-.2-.4-.3-.8-.6-1.2-.9-6.7-5-10.8-13-12.4-21.2-1.9-9.7,2-20,0-29.5-1.8-8.5-8.5-15.8-14.7-21.5-7.5-7.1-16-13.4-21.3-22.2-4.7-8.1-6.3-17.8-4.6-27-.7,1.4-1.2,3-1.9,4.6,0,.2-.1.3-.2.6-1.5,4.3-3.1,9.1-4.4,14-1.3,4.9-2.5,9.9-3.5,14.8,0,.3-.1.7-.2,1-5.2.4-10.1,2.1-14.2,4.7-.2.1-.4.2-.6.3-4,2.7-7.4,6.1-9.9,10.2-.1.2-.3.4-.4.7-2.1,3.5-3.5,7.6-4.2,12v.4c-2.2.1-5.2.1-7.7,0h-4.4c-.7,5.3.3,21,.4,21.2l17.2,2.4c-3.4-5.7-5-12.7-4-19.9h0Z"/>
    <path class="st37" d="M77.2,157.7c-16.8-2.4-32.3,9.3-34.7,26-1,7.2.6,14.1,4,19.9,1.4,2.3,3.1,4.5,5.1,6.4,4.5,4.4,10.4,7.4,17,8.4,9.9,1.4,19.6-2.1,26.1-8.7,2.9-3,5.2-6.5,6.7-10.5.9-2.1,1.4-4.4,1.8-6.7,2.4-16.8-9.3-32.3-26-34.7h0Z"/>
    <path class="st35" d="M76.7,161.5c-9.2-1.3-18,2.2-23.7,8.6,1.3,3.8,3.2,7.3,5.6,10.5,1-2,2.4-3.8,4.1-5.1,3.3-2.8,7.8-4.2,12.5-3.5,1.7.2,3.3.8,4.7,1.4.4.1.8.2,1.2.4,5,2,8.4,6.8,9.6,12,.9,3.8.6,7.7-.4,11.5,2.5.2,5.2,0,7.6-.3.7-1.8,1.1-3.5,1.3-5.4,2.1-14.6-8.1-28.2-22.6-30.3h.1Z"/>
    <path class="st3" d="M90.2,197.6c1-3.8,1.3-7.7.4-11.5-1.1-5.2-4.6-10.1-9.6-12-.3-.1-.8-.3-1.2-.4,6.1,3,9.8,9.6,8.8,16.7-.1,1.1-.4,2.1-.8,3.1-2.5,7.1-9.7,11.6-17.3,10.5-8.7-1.2-14.9-9.4-13.6-18.1.2-1.8.8-3.4,1.5-5-2.4-3.2-4.3-6.7-5.6-10.5-3.4,3.8-5.7,8.6-6.5,14-2.1,14.6,8.1,28.2,22.6,30.3,12.7,1.8,24.6-5.6,28.8-17.2-2.5.4-5.1.6-7.6.3h0Z"/>
    <path class="st37" d="M80,173.6c-1.4-.8-3.1-1.2-4.7-1.4-4.6-.7-9.1.8-12.5,3.5.8,2.2,1.4,4.2,2.4,6.2,2.1-2.7,5.5-4.1,9.2-3.6,5.4.8,9.2,5.7,8.4,11.3,0,.8-.3,1.5-.6,2.2,1.9.7,3.9,1.3,5.9,1.8.3-1,.7-2,.8-3.1,1-7.1-2.8-13.7-8.8-16.7h0Z"/>
    <path class="st2" d="M142.9,216.6c-.1,0-3.2-.2-3.2-.2,0,0,1.9.4,2.8.7.4,0,.9.2,1.3.3.4,0,1.3.2,1.4.2-.2-.3-2.2-.9-2.4-.9h.1Z"/>
    <path class="st23" d="M82.1,191.6c.2-.7.4-1.4.6-2.2.8-5.4-3-10.4-8.4-11.3-3.6-.6-7,1-9.2,3.6-1-2-1.8-4-2.4-6.2-1.7,1.4-3.1,3.1-4.1,5.1-.8,1.5-1.3,3.2-1.5,5-1.2,8.7,4.9,16.9,13.6,18.1,7.7,1.1,14.9-3.4,17.3-10.5-2-.4-4-1.1-5.9-1.8h0Z"/>
    <path class="st37" d="M76.2,195.7c-4.9.7-10.4-1.5-11.9-6.4-.2-.6-.3-1.2-.4-1.9-.1-1-.2-2-.2-3-.2.7-.4,1.3-.6,2.1-.8,5.4,3,10.4,8.4,11.3,3.4.4,6.7-.9,8.8-3.3-1.3.6-2.7,1-4.1,1.2Z"/>
    <path class="st37" d="M154.1,367.4c-1.4-9.3-3.9-18.3-7.2-27.2-.8-2.2-1.8-4.3-2.7-6.5-.6-1.1-1.1-2.3-1.7-3.4-3-3.4-5.9-7-9.4-9.8-3.6-3.1-7.7-5.6-11.9-7.8-7.7-4.1-16.3-6.5-23.2-12-1-.4-2-.9-2.9-1.4-2.1-1.1-4.2-2.2-6.2-3.4-2-1.2-4-2.5-5.7-4.1-1.8-1.5-3.3-3.3-4.6-5.3s-2.2-4.2-3-6.4c-1.5-4.5-2.3-9.2-3.2-13.7-.9-4.4-1.7-9.1-3.6-13.1-.1,0-.2-.1-.4-.2-4.9-2.8-11.8-7-17.9-8.2-.9-.2-1.7-.3-2.4-.3-5.3-.3-9.5,6.5-12.5,10.9-.8,2.4-1.7,4.9-2.8,7.2-1.2,2.8-3.5,5.5-2.7,8.7,1.1,4.1,5.7,3.8,9.1,4.4,4.2.8,8.4,1.8,12.7,2,4.7.2,10.3,0,14.8,1.7,4,1.5,7.7,4.9,10.7,7.8,13.4,12.9,16.2,32.3,21.2,49.4,2.7,9.3,8.4,18.9,13.4,27.2,4,6.6,8.1,13.9,15.1,17.7,7.3,4,16.3,3.4,24.1.6,1.4-.6,2.9-1.2,4.3-1.9-.3-4.2-.8-8.4-1.4-12.6h0Z"/>
    <path class="st23" d="M162,387.9c0-3.8-.3-7.4-.7-11.2-1.8,1.1-3.6,2.2-5.5,3.1.2,2.5.3,5,.4,7.5,1.9.1,3.9.3,5.7.6h0Z"/>
    <path class="st23" d="M7.8,341.7c1.9-.9,4,0,5.7,1,6,3.3,11,7.7,15.9,12.5-1.2-2.7-2.5-5.3-3.8-8-1.5-3.4-3.1-7.3-3.1-10.8-.6-1-1-1.9-1.3-2.4-.3-.7-.7-1.3-.9-2-2.4-2.3-4.3-5.2-5.3-8.4-1.2-3.9-1.1-8.3.2-12.3.8,1.9,2.8,2.9,4.4,4.7.2,0,.4.2.4.2,1.3,1,2.4,2.3,3.1,3.9,1.2,2.8,0,5.3-.7,8-.7,3.3,1.8,6.2,3.2,9.1,1.7,3.2,16.9,29,22.4,38.4,1.3,2.2,3.3,3.9,5.7,4.7,4.7,1.7,12,2.2,12.9,2,1.1-.3,7.6-6.6,11.4-12,1.2-1.8,1.9-3.9,1.9-6,0-12.9.7-26,1.9-38.9.4-4.3.9-8.9-.9-12.9-1-2.2-1.9-3.4-2.4-5.1-.6-.6-1-1.2-1.3-1.9-4,3.9-6.7,8.9-7.8,14.4-.8,3.8-.8,7.7-1.5,11.5s-2.5,7.6-5.9,9.6c-2.8,1.7-6.3,1.7-9.3.7-3.1-1-5.6-3-8-5.3-4.1-4.1-7.2-9.1-10.4-13.9-3.3-4.7-7-9.5-11.9-12.5-2.1-1.3-4.6-2.2-7.1-2.7v-.3c2-5.3,5.3-10.4,9.7-14.6.7-.6,1.3-1.2,2.2-1.2s1.2.3,1.8.7c.9-.8,1.7-1.4,2.7-2.1,5.7-4.1,13.1-5.7,20.1-4.7,1.4.2,2.8.6,4.1,1,0-.3.2-.6.3-.9.2-.8.6-1.5,1.3-2s1.8-.2,2.5,0c6,1.4,11.3,4.2,15.7,7.8,1.8,1.5,2.4,2.9,2.5,4.2,2.7,2.9,4.4,6.6,5,10.5.2,2.2.1,4.3-.3,6.5.2.3.6.8.7,1.2.4,1,.7,2,.8,3h0c.7,1.3,1.2,2.7,1.8,4.1.4,1.1.9,2.2,1.3,3.4,8.6,22.3,16.5,45,23.6,67.8,11-3.2,22.5-4.6,34.6-4.2,3.4,0,6.7.1,10.1.3,0-2.4-.2-4.9-.4-7.3-1.4.7-2.9,1.3-4.3,1.9-7.7,2.9-16.8,3.4-24.1-.6-7-3.9-11.2-11-15.1-17.7-5-8.3-10.6-17.9-13.4-27.2-5-17.1-8-36.3-21.2-49.4-3-3-6.7-6.3-10.7-7.8-4.5-1.8-9.9-1.4-14.8-1.7-4.3-.2-8.5-1.1-12.7-2-3.4-.7-8.1-.4-9.1-4.4-.9-3.2,1.4-6,2.7-8.7,1.1-2.3,2-4.7,2.8-7.2-.2.3-.4.7-.7,1-13.8,19.1-22.5,40.2-26.4,63.4-1.2,7-1.2,14.4-.6,21.9h0v-.4Z"/>
    <path class="st23" d="M137.5,321.5c-1.3-1.9-2.8-3.8-4.3-5.5-1.7-1.7-3.3-3.2-5.3-4.5-2-1.2-4-2.3-6.3-3-2.2-.7-4.5-1.1-6.8-1.7s-4.5-1.3-6.7-2.1c-3.4-1.2-6.7-2.5-10.1-4.1,6.8,5.5,29.2,38.8,36.8,42.9,4.2,2.2-5.4-26.1-1.7-23,3.5,2.9,6.4,6.4,9.4,9.8-.4-1-1-2-1.4-2.9-1.1-2.1-2.3-4.1-3.5-6.1h0Z"/>
    <path class="st37" d="M154.5,345.6c-4.3-12.3-10.6-28.8-21.2-37.1-.1-.1-.3-.2-.4-.3-2.3-1.7-5.2-2.2-8.1-2.9h-.3c-4.4-1-8.7-2.2-13-3.8-3.4-1.2-6.8-2.7-10.2-4.1-7.6-3.5-12.7-7.1-18.8-12.7-.8-.7-1.3-1.4-1.8-2.1-4.3-6.5-.1-15.2-4.3-22.4-1.7-2.9-4.4-4.9-7.4-6.5,2,4.1,2.9,8.5,3.8,12.9.9,4.6,1.7,9.3,3.2,13.7,1.4,4.4,4,8.5,7.5,11.6,1.8,1.5,3.6,2.9,5.7,4,2,1.2,4.1,2.3,6.2,3.3,4.2,2.1,8.5,3.9,12.9,5.4,1.8.7,3.6,1.2,5.5,1.7.4,0,.8.2,1.2.3.8.2,1.4.3,2.2.6,1.5.3,3.1.7,4.6,1.1,2.3.7,4.4,1.8,6.4,3.1,2,1.3,3.8,2.9,5.4,4.6,3.2,3.5,5.7,7.5,8,11.7,1.1,2.1,2.1,4.2,3.1,6.4.9,2.2,1.9,4.3,2.7,6.5,3.3,8.8,5.6,18,7.1,27.3.7,4.1,1.1,8.3,1.4,12.4,1.9-1,3.8-2,5.5-3.1-1.1-10.6-3.4-21.1-7-31.1v-.4Z"/>
    <path class="st2" d="M27.1,404.1c1.5,1.4,3.3,2.4,5.2,3.1,3.4,1.3,7.3,1.8,10.9,2.1.8,0,1.5.1,2.3.2,1.4.1,2.8.2,4.2.4,2.3-1,4.7-2,7.3-2.9-2.3-4-4.6-8-7-11.9h0c-7.5-12.9-14-26.5-20.3-40-4.9-4.7-9.9-9.3-15.9-12.5-1.8-1-3.9-1.9-5.7-1h0c1.5,18,7.4,36.8,13.4,52.2,1.4,3.8,3,7.5,6,10.2h-.3Z"/>
    <path class="st35" d="M75.6,280.1c.8,2.2,1.8,4.4,3,6.4s2.9,3.8,4.6,5.3,3.8,2.9,5.7,4.1c2,1.2,4.1,2.3,6.2,3.4,1,.4,1.9,1,2.9,1.4,3.3,1.5,6.6,2.9,10.1,4.1,2.2.8,4.5,1.4,6.7,2.1,2.3.6,4.6,1,6.8,1.7s4.3,1.8,6.3,3c1.9,1.3,3.6,2.9,5.3,4.5,1.5,1.7,3,3.5,4.3,5.5s2.4,4,3.5,6.1c.6,1,1,1.9,1.4,2.9.6,1.1,1.1,2.3,1.7,3.4.9,2.2,1.9,4.3,2.7,6.5,3.3,8.7,5.7,17.9,7.2,27.2.7,4.2,1.1,8.4,1.4,12.6.2,2.4.3,4.9.4,7.3h.3c0-2.5-.2-5-.4-7.5-.3-4.2-.8-8.3-1.4-12.4-1.4-9.3-3.8-18.4-7.1-27.3-.8-2.2-1.8-4.3-2.7-6.5-1-2.1-2-4.3-3.1-6.4-2.2-4.2-4.7-8.2-8-11.7-1.7-1.7-3.4-3.3-5.4-4.6-2-1.2-4.2-2.3-6.4-3.1-1.5-.4-3.1-.8-4.6-1.1-.8-.1-1.4-.3-2.2-.6-.4,0-.8-.2-1.2-.3-1.9-.6-3.6-1.1-5.5-1.7-4.4-1.5-8.7-3.3-12.9-5.4-2.1-1-4.2-2.1-6.2-3.3-2-1.2-4-2.4-5.7-4-3.5-3-6.1-7.2-7.5-11.6-1.5-4.4-2.3-9.1-3.2-13.7-.9-4.4-1.8-8.8-3.8-12.9,0,0-.2,0-.2-.1,2,4.1,2.8,8.6,3.6,13.1.9,4.6,1.7,9.3,3.2,13.7h.1Z"/>
    <path class="st35" d="M46.2,299.6c7.3-2.2,8.2-8.3,10.1-14-1.3-.4-2.8-.8-4.1-1-7-1-14.4.8-20.1,4.7-.9.7-1.8,1.3-2.7,2.1.1.1.3.2.4.3,4.9,4.2,8.6,9.6,16.5,7.8h-.1Z"/>
    <path class="st3" d="M20,329.9c-.3-3.9,3.2-8.5,1.1-12.1-.4-.7-.9-1.2-1.3-1.8-1.7-1.8-3.6-2.9-4.4-4.7-1.3,4-1.4,8.3-.2,12.3,1,3.2,2.9,6.1,5.3,8.4-.2-.7-.3-1.3-.4-2h0Z"/>
    <path class="st35" d="M83.2,311.7c.4-2.1.7-4.3.3-6.5-.4-3.9-2.3-7.6-5-10.5,0,2.4-1.8,4.9-1.8,8.2s.2,1.7.7,2.4c.3.7.8,1.3,1.3,1.9,1.4,1.5,3.2,2.9,4.3,4.5h.1Z"/>
    <path class="st35" d="M101.8,394.4c3.1-1.2,6.3-2.3,9.5-3.3-7.2-22.9-15.1-45.4-23.6-67.8.3,2.7.6,5.3.8,8.1.6,6.2.4,12.4,1.1,18.7.8,6.8,1.7,13.7,2.4,20.5.9,7.3-3.3,11.3-5.2,18.1-.8,2.7-.9,5.3-.8,8,5.2-1.1,10.5-1.9,15.9-2.2h-.1Z"/>
    <path class="st29" d="M86,396.6c-.1-2.7,0-5.4.8-8,1.9-6.8,6.1-10.7,5.2-18.1-.8-6.8-1.5-13.7-2.4-20.5-.8-6.2-.6-12.4-1.1-18.7-.2-2.7-.6-5.3-.8-8.1-.4-1.1-.9-2.2-1.3-3.4-.6-1.3-1.1-2.8-1.8-4.1h0v1.1c0,7.2,2.7,52.6-1.3,60.2-.9,5.7-2.7,11.4-4.6,16.9-.7,1.8-1.4,3.8-2.5,5.2,3.2-1,6.5-1.9,9.8-2.7h.1Z"/>
    <path class="st29" d="M59.2,406.3c3.2-1.7,6.5-3.2,9.9-4.5-.4,0-1-.1-1.4-.2-6.2-1-12.3-3.2-17.8-6.3,2.3,4,4.6,8,7,11.9.8-.2,1.5-.6,2.3-.8h0Z"/>
    <path class="st3" d="M29.5,355.2c6.3,13.5,12.8,27.2,20.3,39.9h0c5.5,3.2,11.5,5.4,17.8,6.4.4,0,1,.1,1.4.2,2.3-.9,4.6-1.8,7.1-2.5,1.2-1.4,2-3.4,2.5-5.2,2-5.5,3.8-11.2,4.6-16.9-.1.2-.3.4-.4.7-2.4,2.7-4.9,6.3-8.3,8.9-2.9,2.2-6.6,3.2-10.2,2.8-4.3-.7-8.6-1.9-12-3-6.1-2-24-38.9-29.8-50,0,3.6,1.5,7.5,3.1,10.8,1.2,2.7,2.4,5.3,3.8,8h.1Z"/>
    <path class="st37" d="M78.5,294.6c0-1.3-.7-2.7-2.5-4.2-4.4-3.6-9.8-6.3-15.7-7.8-.9-.2-1.8-.3-2.5,0-.8.4-1.1,1.2-1.3,2,0,.3-.2.6-.3.9-1.9,5.7-2.8,11.8-10.1,14-7.8,1.9-11.6-3.6-16.5-7.8-.1-.1-.3-.2-.4-.3-.4-.3-1.1-.7-1.8-.7s-1.7.7-2.2,1.2c-4.4,4.2-7.7,9.3-9.7,14.6v.3c2.5.4,5,1.3,7.1,2.7,5,3,8.6,7.7,11.9,12.5,3.3,4.7,6.3,9.8,10.4,13.9,2.3,2.3,4.9,4.3,8,5.3,3.1,1,6.5,1,9.3-.7,3.3-2,5.1-5.7,5.9-9.6.8-3.8.8-7.7,1.5-11.5,1.1-5.4,4-10.5,7.8-14.4-.4-.8-.7-1.5-.7-2.4,0-3.4,1.9-5.7,1.8-8.2v.2Z"/>
    <path class="st2" d="M52.5,386.4c3.4,1.1,7.7,2.4,12,3,3.5.6,7.4-.6,10.2-2.8,3.4-2.7,5.9-6.3,8.3-8.9.1-.2.3-.3.4-.7,4.1-7.6,1.4-52.9,1.3-60.2v-1.1c0-1.1-.3-2.1-.8-3-.2-.4-.4-.8-.7-1.2-1.2-1.5-3-3-4.3-4.5.6,1.7,1.4,3,2.4,5.1,1.8,4,1.3,8.6.9,12.9-1.2,12.8-1.9,26-1.9,38.9s-.7,4.2-1.9,6c-3.8,5.5-10.3,11.8-11.4,12-.9.2-8.2-.3-12.9-2-2.4-.9-4.4-2.5-5.7-4.7-5.5-9.4-20.8-35.3-22.4-38.4-1.5-2.9-4-5.7-3.2-9.1.6-2.8,1.9-5.2.7-8-.7-1.5-1.8-2.9-3.1-3.9l-.4-.2c.4.6.9,1.1,1.3,1.8,2.1,3.6-1.4,8.3-1.1,12.1,0,.7.2,1.3.4,2,.2.7.6,1.3.9,2,.3.6.8,1.4,1.3,2.4,5.9,11.3,23.7,48.2,29.8,50l-.2.4Z"/>
    <path class="st35" d="M145,173.6c-.9-.7-2.1-.9-3.2-.9s-1.1,0-1.7-.1c0-.9.1-1.8.2-2.7.2-2.9.6-5.7.7-8.6.2-4.6.1-9.4-.9-14-1-4.6-2.9-9.1-6-12.7-1.5-1.9-3.2-3.4-5-5s-3.6-3-5.6-4.2c-4-2.5-8.2-4.6-12.5-6.5s-8.6-3.6-13.1-5c-4.4-1.4-9.1-2.5-13.6-3.4h-.7c1.7-2.7,3.3-4.6,5-5.5-5.1-.4-10.8.4-14.1,1.1-9.9,2.1-19.2,7.2-26.3,14.4-4.2,4.3-7.5,9.2-10.3,14.5,1.1.9,2.2,1.7,3.4,2.3,1.1.7,2.3,1.2,3.5,1.7,1.4-4.2,3.4-8.3,6.2-11.8,7.4-9.5,19.1-14.8,30.7-13.5.6-1.1,1-2,1.5-3,.2,0,.6,0,.8.1,4.6.9,9.2,2,13.6,3.5,4.4,1.4,8.7,3.2,13,5.1,4.2,2,8.4,4.1,12.3,6.6s7.6,5.4,10.6,8.9c3,3.5,5,7.8,6,12.4,1,4.5,1.1,9.3,1,13.9,0,2.9-.2,5.7-.4,8.6,0,.9-.1,1.8-.2,2.7h-1.5c-2.1,0-4.3,0-6.4.3-2,.3-4,.9-5.7,1.9,0,0-.2.1-.2.2,0,0,0,.1.1.2h.1c2.1,1.2,4.3,2.3,6.5,3.2,2.3.9,4.5,1.8,7,2.4.7.2,1.3.4,2,.7.7.2,1.3.4,2,.6h.6c.2-.2.2-.6.2-.9s-.1-.9-.2-1.3v-.3c0-1.1,0-2.1.2-3.2,0-.3.1-.6.2-.9,0-.2.2-.4.3-.7,0-.4,0-.9-.4-1.1h.4Z"/>
    <path class="st7" d="M141.6,179.4c0,.3.2.7.6.7s.4-.3.4-.6c.3-1.3.4-2.8.2-4.1,0-.2-.1-.8-.4-.9-.6-.2-.7.7-.7,1-.3,1.3-.3,2.7-.1,4h0Z"/>
  </g>
  <g id="freepik--Character--inject-257">
    <path class="st5" d="M202.4,196.8c-.4,2.2-.8,4-5.7,5.9s-5.4,3.5-4.2,7.7c.9,2.4-.3,5.1-2.8,5.9-1.1.4-2.3.3-3.4-.1-3.8-1.4-5.6,2.1-5.6,2.1,0,0,2.2,4.5,9.2,10.4s27.4,6.2,33-2.7c5.6-8.9-1.3-9.3-2.4-12.7s.4-1.4.8-6-1.8-7.4-1.4-10.8c0,0-2.7-7-10.3-6.6-5.4.2-7.2,6.8-7.2,6.8h.1Z"/>
    <path class="st5" d="M182.4,208.8c-2.3,0-4.3-1.8-4.4-1.9s0-.2,0-.3.2,0,.3,0h0s2.3,2.1,4.5,1.7c1.2-.2,2.2-1.1,3.1-2.8,2-4,4.3-3.9,7.2-3.6,1.7.2,3.2.1,4.9-.2,5.2-1.1,5.3-5.5,5.3-5.7s0-.2.2-.2.2,0,.2.2h0s0,5-5.6,6.2c-1.7.3-3.3.3-5,.2-2.9-.2-4.9-.3-6.7,3.4-.9,1.8-2,2.8-3.4,3h-.6,0Z"/>
    <path class="st4" d="M220.1,216.1c4.1.6,9.5,17.7,11.3,20.9,1.3,2.4,12.8,17.1,12.8,17.1,0,0,8.4.9,7.8,2.2s-2.3,3.8-3.5,4.2-5.6-2-6.2-2.8c-.3-.8-.7-1.5-.8-2.3,0,0-11.7-12.4-13.4-15.1-1.2-2.1-9.6-15.9-9.6-15.9,0,0-1.4-1.5-.8-4.4s2.2-3.8,2.2-3.8h.1Z"/>
    <path class="st18" d="M225.8,236.1c-2-3.3-4.6-7.7-6.1-10.1l2.2-2.8c.2.3,4.6,6.1,3.9,12.8Z"/>
    <path class="st4" d="M208.5,278.7c-.8,2.3-1.4,4.5-2.1,6.8-3.1,11.4-4.4,24.9-4.4,24.9-8.7,19.6-14.4,48.7-14.4,48.7l3.5,1,21.1-52.4,6.2-18-10.1-11.2h.1Z"/>
    <path class="st5" d="M187.4,356.5c.2-.4,5.3,2.2,5.3,2.2,0,0,1.8,4.7,4.6,6.8,2.9,2.1.2,3.2-3.3,1.7l-8.7-3.8c-2.5-1.1,0-2.5,2-7h.1Z"/>
    <path class="st0" d="M193.1,359.6h0s1-1.1,1.9-1.1.4.1.7.3c.2.2.2.4.1.6s-.7.3-1.2.4c.4,0,.8.3,1.1.7,0,.1.1.3.1.4,0,.3-.2.4-.3.6h-.6c-.8-.4-1.3-1-1.9-1.7v-.2ZM193.6,359.7c.7.7,1.4,1.3,1.8,1.3,0,0,.1,0,.1-.2v-.2c-.1-.2-.3-.3-.6-.4-.4-.2-.9-.3-1.3-.3h0ZM195,358.7c-.6,0-1,.3-1.4.8.9,0,1.9,0,2-.2,0,0,0-.2-.1-.2,0,0-.1-.1-.2-.2h-.2Z"/>
    <path class="st5" d="M223.9,278.1c-.8,6.7-2.3,13.3-4.7,19.6-2.7,6.7-5.6,11.8-7.6,17-3.8,9.2-13.4,30.8-13.4,30.8l-7.3-5.1s10.2-27.5,10.7-32.9c.3-3.4,0-22,0-34.6-.1-6.8-.2-12-.2-12l19.6-16.9c3.4,11,4.5,22.6,3.2,34.1h-.2Z"/>
    <path class="st18" d="M219.1,297.6c-2.7,6.7-5.6,11.8-7.6,17-3.8,9.2-13.4,30.8-13.4,30.8l-7.3-5.1s10.2-27.5,10.7-32.9c.3-3.4,0-22,0-34.6l5.5-12.7,7.8,2.8-2.1,9.8,6.6,25h-.3Z"/>
    <path class="st4" d="M212.6,318.4c6.1,20,17,43.5,17,43.5l3.4-1.4-11.8-42.4-8.6.3Z"/>
    <path class="st5" d="M227.6,360.1c-.1-.4,5.5-1.7,5.5-1.7,0,0,4.4,2.4,8,2.3s2.2,2.3-1.4,3.4l-9.1,2.7c-2.7.7-1.7-2-2.9-6.6h-.1Z"/>
    <path class="st0" d="M233.9,358.9h0s0-1.4.8-2c.2-.1.4-.2.8-.2s.4.2.4.3c0,.3-.2.7-.6,1.1.4-.2.9-.2,1.3-.2s.3.1.4.3.1.4,0,.7c-.1.1-.2.2-.4.2-.9.1-1.8,0-2.5-.1h-.2ZM234.5,358.7c.9.1,2,.1,2.2-.1v-.3s-.1-.1-.2-.1h-.7c-.4.1-.9.3-1.2.6h-.1ZM234.8,357c-.3.4-.6.9-.6,1.4.8-.6,1.4-1.2,1.3-1.4,0,0-.1-.1-.2-.1h-.2s-.1,0-.2.1h-.1Z"/>
    <path class="st5" d="M199.4,242.6s-7.2,16.8-3.8,32.1c3.3,15.5,12.5,35,14.9,39.8,2.4,4.7,11.9,33,11.9,33l7.2-2.7s-7.6-28.2-10.1-38c-1.1-4.6-10.7-37.7-10.7-37.7,0,0,13.7-11,12-27.4l-21.5.6v.2Z"/>
    <polygon points="207.2 246 218.5 245.7 218.5 242.4 207.2 243 207.2 246"/>
    <polygon points="219.5 242.3 219.5 245.7 220.6 245.7 220.8 242.3 219.5 242.3"/>
    <polygon points="206.2 243 200.3 243.3 200 246.2 206.2 246 206.2 243"/>
    <rect class="st8" x="211.3" y="243" width="4.4" height="3.3" transform="translate(-9.2 8.4) rotate(-2.2)"/>
    <path class="st4" d="M195.6,216.8s14-3.6,26,.4c.8,8.4.4,16.8-.8,25.1l-21.6,1s1-6-4.3-17.1l.8-9.4Z"/>
    <path class="st4" d="M211.5,219.4c-5.1-1-6.4-3.3-6.4-3.3,2.2-1.8,2.1-4.7,1.7-6.5-.1-.6-.3-1.1-.4-1.7l6.1,1.5c-.2.9-.3,1.7-.4,2.5v1.9c.3,1.9,1.3,2,1.3,2,.9,2.1-1.8,3.5-1.8,3.5Z"/>
    <path class="st18" d="M212,212v1.9c-2.4-.6-4.1-2.5-5.1-4.3-.1-.6-.3-1.1-.4-1.7l6.1,1.5c-.2.9-.3,1.7-.4,2.5h-.1Z"/>
    <path class="st4" d="M212.4,192.5c5.3.6,6.7,3.6,6.5,9.2-.3,6.8-2.3,11.6-8.8,9.4-8.8-3-6.5-19.4,2.3-18.4h0Z"/>
    <path class="st26" d="M215.5,200.9c.3.9.8,1.7,1.3,2.3-.3.4-.9.6-1.4.4l.2-2.8h-.1Z"/>
    <path class="st5" d="M212.3,200.1c0,.4-.3.8-.7.8s-.4-.4-.4-.9.3-.8.7-.8.4.4.4.9Z"/>
    <path class="st5" d="M211.7,199.3l1-.3s-.6.8-1,.3Z"/>
    <path class="st5" d="M217.7,200.5c0,.4-.3.8-.7.8s-.4-.4-.4-.9.3-.8.7-.8.4.4.4.9Z"/>
    <path class="st5" d="M217.2,199.7l1-.3s-.6.8-1,.3Z"/>
    <path class="st5" d="M210.2,197.2h-.2v-.3c.8-.6,1.7-.8,2.7-.6.1,0,.2.1.2.2s-.1.2-.2.2c-.8-.2-1.5,0-2.2.4h-.2Z"/>
    <path class="st5" d="M218.6,197.6h-.1c-.4-.4-1.2-.7-1.9-.7s-.2,0-.2-.2,0-.2.2-.2c.8-.1,1.7.1,2.3.8v.3h-.3Z"/>
    <path class="st5" d="M205.6,200.8s3-4.1,3-7.5c0,0,10.9-3.1,10.3,7.6,0,0,2.1-9.4-7-10.6s-10.5,12.1-6.3,16.6c0,0-1.9-3.6,0-6.2h0Z"/>
    <path class="st4" d="M206.3,202c0-1.3-1-2.3-2.3-2.4-1.7,0-2.9,3.3,1.2,4.5.6.2,1-.3,1.1-2.1h0Z"/>
    <path class="st5" d="M212.2,204.4s.2,0,.2.1c.4.7,1,1.2,1.7,1.4.1,0,.2.2.1.3,0,.1-.1.2-.3.1h0c-.8-.3-1.5-.9-2-1.7v-.3h.3Z"/>
    <path class="st0" d="M219.8,195.8s-.6-4.9-1.5-5.5c-3.8-2.7-8.9-3.4-12.5-2s-3.4,8.5-3.4,8.5l3.1-.6,14.4-.4Z"/>
    <path class="st9" d="M219.8,195.8s-.6-4.9-1.5-5.5c-3.8-2.7-8.9-3.4-12.5-2s-3.4,8.5-3.4,8.5l3.1-.6,14.4-.4Z"/>
    <path class="st8" d="M205.9,196.1c0-.2.4-5.1,1.8-6.2s5.7-1.9,5.7-1.9c0,0,4.3,1.7,5.2,2.9s1.2,5.5,1.2,5.5l-13.9-.3Z"/>
    <path class="st0" d="M205.9,196.1s13.1,2.8,18.3,2.3-5.2-3-5.2-3c0,0-8.2-2.4-13,.7h-.1Z"/>
    <path class="st18" d="M199.3,226.5c-.9,3.8-2.2,5-2.2,5-.6-1.5-1.4-4.9-1.5-5.6-.1-.7,2-2,1.8-2.7.6,0,1.3-1.1,1.9-1.1.3,1.4.4,2.9.2,4.4h-.1Z"/>
    <path class="st4" d="M196.3,216.8c-4-.7-14.4,14-17,16.7-2,1.9-19.7,1.7-19.7,1.7,0,0-8.4-4.2-8.3-2.8s-.9,3.6.2,4.5,7.4,2.9,8.1,2.3,1.4-1.3,1.4-1.3c0,0,17.8,1.8,20.2-.3,1.8-1.7,13.9-12.4,13.9-12.4,0,0,1.9-1.1,2.1-4.1s-1-4.3-1-4.3h0Z"/>
    <path class="st5" d="M200.9,215.4s2.1,3.3.8,9.3l2.9-.6s.6-6.1-2-8.8h-1.7Z"/>
    <path class="st0" d="M189.1,219.6s22.8,4.2,28.6-4.7c2.2.6,4.3,1.4,6.3,2.4,0,0,.4,10.8-.8,18.4l-26,4.7-3-10.8s-9.6,0-11.7-2.9l6.5-7.1h0Z"/>
    <path class="st0" d="M238.9,252.8l2.5-2.4c.2-.2.4-.1.7,0h0l1.8,2.2c.1.2.1.4,0,.6l-2.3,2.4c-.2.2-.4.2-.7,0l-2-2.1c-.1-.2-.1-.4,0-.7h0Z"/>
    <path class="st5" d="M236.6,250.4l2.7-2.8c.2-.2.4-.2.7,0h0l1.4,2c.1.2.1.4,0,.6l-2.4,2.4c-.2.2-.4.2-.7,0h0l-1.7-1.7c-.2-.2-.2-.4,0-.7h0Z"/>
  </g>
  <g id="freepik--characters-3-and-4--inject-99">
    <path class="st21" d="M255.9,251.7s-2.7,1.7-2.4,2.4,1.2,3.4,1.2,3.4l3.2.2,1.8-.2s1.3-1.8,1-2-1.4,0-1.4,0v-1.5s.3,0,1-.8c.4-.7.7-1.4.8-2.1l1.2-12.5.2-4.7,2-10.1-5.9-1.1s-.3,7-.6,8-1.9,6.2-1.7,7.5,1.1,13.1,1.1,13.1l-1.3.6-.2-.2Z"/>
    <path class="st0" d="M286.3,310.1l-.3,8.3s8.3,3.1,8.4,4.6h-16.1v-13h8.1Z"/>
    <path class="st25" d="M281,317.6c-.3,0-.6.4-.4.8,0,.3.4.6.8.4.3,0,.6-.4.4-.8-.1-.3-.4-.6-.8-.4"/>
    <path class="st5" d="M278.2,322.9v-1.3l15.5.6s.7.3.7.8h-16.1Z"/>
    <path class="st5" d="M286.2,318.3s-.4.1-.8.3-.6.6-.7.6,0-.4.6-.8,1-.2.9-.1h0Z"/>
    <path class="st5" d="M287.8,318.9s-.3.2-.6.6-.3.7-.4.7-.1-.4.2-.9.8-.4.8-.3h0Z"/>
    <path class="st5" d="M288.8,321s-.2-.3,0-.8.6-.6.6-.6c0,0-.2.3-.3.7s-.2.7-.2.7Z"/>
    <path class="st5" d="M276.1,182.2c0-.8-1-1.2-1.8-1.1-2.2.3-3.6,2.2-4.9,4.1-.7,1-1.2,2.1-1.7,3.3-.6,1.8-1,3.5-1.1,5.3-.8,6.7-.9,13.6-.4,20.3,0,.3,0,.8.3,1,.2.2.6.3.9.4,2.3.7,4.7.8,7.1.3.6,0,1.1-.3,1.5-.7.6-.6.7-1.3.8-2,.3-3.3.4-6.7.2-10.1-.2-6.8-.6-13.6-1.2-20.4,0-.4,0-.9.3-1"/>
    <path class="st5" d="M265,241.3l-.2,1.1c-.1-.2-2.5,7.1-3.5,15.9-.8,6.5-.2,16.9,0,19,.7,7.2,1,15.2,1,15.2l9.8.7c.1-.3,3.4-28.3,3.4-28.3l.7-3.3v-17.9l-11-2.4h-.1Z"/>
    <path class="st5" d="M274.9,258.4c.1.8,1.8,20.8,1.8,20.8l1.1,37.9h10.1s1.3-12.5,1.4-24v-16c0-5.1,1.8-8.4,1.8-16.7s-.8-20.1-.8-20.1l-14.1,3.3-1.2,14.8h0Z"/>
    <path class="st30" d="M275.1,263.3v-.6c0-.3-.1-.8-.1-1.4v-9.1c0-1.1-.2-1.9-.2-1.9,0,.1,0,.3.1.4,0,.3.1.8.2,1.3.1,1.5.2,3.1.1,4.5v4.5c0,1.1.1,1.9,0,1.9v.2Z"/>
    <path class="st30" d="M277.3,250.6h.2c.1.1.3.3.3.4,0,.3,0,.7-.2.9-.2.3-.7.4-1.1.3-.3-.1-.7-.4-.7-.9s.1-.7.4-.8c.2-.1.3-.2.6-.2h.2c-.2,0-.4.1-.7.2s-.3.4-.2.7c0,.3.2.6.4.7.3,0,.6,0,.8-.2s.2-.4.2-.7-.2-.4-.4-.6h.1Z"/>
    <path class="st30" d="M288.8,251.8c-.3,0-.7.1-1,.1-.8,0-1.5,0-2.3-.2s-1.5-.4-2.2-.9c-.3-.1-.6-.3-.8-.6,0,0,1.3.8,3.1,1.1s3.3.2,3.3.2v.2Z"/>
    <path class="st30" d="M269.7,250.5c-.2.2-.6.4-.9.7-1.5.9-3.3,1.1-5.1.9-.3,0-.7-.1-1-.3,1.2.2,2.4.2,3.5,0,1.2-.2,2.3-.7,3.4-1.2h0Z"/>
    <path class="st21" d="M295.1,226.4s2.4,4,4.1,4.6c.2,0,.3.1.6.2,2.5.6,5-1,5.7-3.4l6-18.7-4.3-2.1-6.6,14.5-5.4,4.7h0Z"/>
    <path class="st0" d="M291.6,208c1.7.9,3,2.2,4,3.8,1.5,2.5,5,9.8,5,9.8,0,0-4.4,5-6.2,5l-4-7.5,1.2-11Z"/>
    <path class="st0" d="M267.3,205.1s-3.6,13.3-3.2,16.6,1.9,4.3,1.9,4.3l.3,7-3.3,12.5s1.7,1.9,6.1,2.7c5.1.9,21.6-.8,21.6-.8l-1.1-5.5-.4-15,3.8-17.7s-.3-1.1-5.6-2.3c-5.3-1.2-20-1.5-20-1.5h0Z"/>
    <path class="st5" d="M278,227.5s-1.5-.2-3.3-.2h-3.4c.3,0,.7-.1,1-.2.8,0,1.5-.1,2.4,0,.8,0,1.5,0,2.4.2.3,0,.7.1,1,.2h-.1Z"/>
    <path class="st5" d="M285.6,226.6c-.2.2-.4.4-.7.6-1.2.8-2.7,1.1-4.1.9-.3,0-.6-.1-.9-.2,1,.1,2,.1,2.9,0,1-.2,1.9-.7,2.7-1.2h.1Z"/>
    <path class="st0" d="M267.4,205.2s-4.6.7-6.5,6.8c-1.9,6.2-2.8,10.4-2.8,10.4l6.5,2,2.7-19.2h.1Z"/>
    <g class="st22">
      <path d="M261.3,220.5c.2-.4.6-.9,1-1.1.2,0,.4-.2.6-.3,0-.1.1-.3.1-.4.3-2.1.2-4.3,1-6.3.4,2.8.7,5.6.7,8.5s0,1-.4,1.3c-.4.3-1.1,0-1.5-.4-.4-.3-.9-.8-1.2-1.1"/>
    </g>
    <path class="st5" d="M269,226.9h-.3c-.3,0-.6-.1-.9-.2-1.9-.8-3.3-2.4-3.6-4.5v-1.2s0,.4.1,1.2c.3,2,1.7,3.6,3.5,4.4.7.3,1.2.3,1.2.4h0Z"/>
    <path class="st5" d="M264,209.2c0,.4.1,1,.1,1.4,0,.9.1,2.1.1,3.4v4.9c0-.4-.1-1-.1-1.4,0-.9-.1-2.1-.1-3.4v-4.9Z"/>
    <path class="st5" d="M282.4,240.1h-.7c-.4,0-1-.2-1.7-.3-3.8-1-7.2-2.7-10.3-5-.6-.4-1-.8-1.3-1.1l-.4-.4c.2,0,.3.2.6.3.3.2.8.7,1.4,1,3.1,2.2,6.5,4,10.3,5,.7.2,1.3.3,1.7.4.2,0,.4,0,.6.2h-.1Z"/>
    <g class="st22">
      <path d="M271.7,237.7h0Z"/>
      <path d="M279.6,240.7c-1.1-.3-2.1-.7-3.1-1.1l-4.6-1.9c.6,1.2,1.5,2.2,2.7,2.9,1.2.7,2.4,1.2,3.8,1.5.7.2,1.3.3,2.1.4,1.3,0,2.7-.2,3.6-1-1.4-.1-3-.3-4.4-.8h0Z"/>
    </g>
    <g class="st22">
      <path d="M266.5,226.2c1.5,2.3,4.6,2.9,7,1.3.3-.2.6-.4.9-.8-1.2,0-2.4,0-3.5.1-.7,0-1.2.1-1.9,0-.6,0-1-.2-1.4-.6l-.9-.4"/>
    </g>
    <path class="st25" d="M260.2,222.7l-5.9,45.4s-.6,15.6-.6,16.5-2.7,21.5-2.7,21.5l-1.7,12.8,2.7-.6s5-36,5-36.3,2.3-9.2,2.5-10.3c.2-1,5.5-38.9,6.1-46.3,0-.2-.1-.4-.2-.7l-.6-1.2-1.1-.2-5.9,48-2.3,9.5.7-13.7,5.7-44.7h-1.8v.2Z"/>
    <path class="st5" d="M260.2,222.7h1.8c-.6,4.7-2.7,20.9-5.7,44.7h0c-.2,4.3-.4,8.9-.7,13.7h-.2c.8-3,1.5-6.2,2.3-9.5h0c1.8-14.5,3.8-30.7,5.9-48h0c0-.1.1-.1.1-.1l1.1.2h0l.6,1.3h0c.1.1.2.3.2.6v1.7c-.1,0-.3,2.2-.3,2.2-.1,1.4-.3,3-.6,4.4-.3,3-.8,6-1.1,8.9-.8,6.1-1.7,12.3-2.5,18.4-.3,2.5-.8,5.1-1.1,7.5,0,.7-.2,1.2-.2,1.9s-.2,1.2-.3,1.9c-.3,1.2-.6,2.4-.9,3.6-.3,1.2-.7,2.4-.9,3.6-.1.6-.3,1.2-.4,1.8v.4c-.1.1-.1.3-.1.4v.9c-.4,2.4-.8,4.9-1.1,7.3-1.3,9.6-2.5,18.9-3.8,27.8h0l-2.7.6h-.1c1.2-9.7,2.4-18.8,3.5-27.3.2-2.1.6-4.2.8-6.3.1-1,0-2,.1-3.1s0-2,0-3c.1-4,.2-7.7.3-11.4h0c1.9-14,3.3-25.4,4.3-33.2.6-3.9.9-7,1.2-9.1.1-1,.2-1.8.3-2.3s.1-.8.1-.8v.8c0,.4-.2,1.3-.3,2.3l-1.1,9.1c-1,8-2.4,19.2-4.2,33.2h0c-.1,3.6-.2,7.4-.3,11.4v6.1c-.2,2.1-.4,4.1-.8,6.3-1.1,8.5-2.2,17.6-3.4,27.2h-.1c0-.1,2.7-.7,2.7-.7h0c1.2-8.8,2.4-18.1,3.8-27.7.3-2.4.7-4.9,1-7.3v-.9c.1-.1.1-.3.2-.4v-.4c.2-.6.4-1.2.6-1.8.3-1.2.7-2.4.9-3.6s.7-2.4.9-3.6c.1-.7.2-1.2.3-1.9,0-.7.2-1.2.2-1.9.3-2.5.7-5.1,1.1-7.5.9-6.3,1.8-12.4,2.5-18.4.4-3,.8-6,1.1-8.9.2-1.4.3-3,.6-4.4,0-.8.1-1.4.2-2.2v-1.1c.1-.2.1-.3,0-.6,0-.1-.1-.3-.2-.4h0c-.2-.4-.4-.9-.6-1.2h-1.1.1c-2.1,17.2-4.1,33.5-5.9,47.9h0l-2.3,9.5h-.2c.2-4.9.4-9.4.7-13.7h0c3.1-23.9,5.2-40,5.9-44.7h-2Z"/>
    <path class="st30" d="M264.2,221.1s-3.5-1.1-4.2-.8-1.2,1.2-1.1,2.3,6.5,2.3,6.5,2.3c-.7-1.2-1.3-2.5-1.2-3.9Z"/>
    <path class="st5" d="M257.8,253.7l2.5.3s.8.8,0,1.4h-2.8l.2-1.8"/>
    <path class="st30" d="M249.4,317.3h2.9l.8,5.6h-4.7l1.1-5.6Z"/>
    <polygon class="st25" points="287.8 222.4 292.4 320.9 294.4 320.9 291 250.6 290.3 222.4 287.8 222.4"/>
    <path class="st5" d="M287.8,222.4h2.4c0,2.4.2,6.8.4,12.7,0,3,.2,6.3.3,9.9,0,1.9.1,3.8.2,5.7,0,2,.1,4.1.3,6.3.8,17.3,1.9,39.4,3,63.6v.2h0c0,.1-2.2.1-2.2.1h0c-1.2-27.5-2.3-52.1-3.1-69.9-.4-8.9-.7-16.1-.9-21.1,0-2.4-.2-4.4-.2-5.7v-2,2c0,1.3.1,3.2.2,5.7.2,5,.6,12.1,1,21.1.8,17.8,2,42.4,3.2,69.7h-.1,2-.1c-1.1-24.1-2.1-46.3-2.9-63.6,0-2.2-.2-4.2-.3-6.3,0-2-.1-4-.1-5.7,0-3.6-.2-7.1-.2-9.9-.1-5.9-.2-10.3-.3-12.7h-2.7Z"/>
    <path class="st30" d="M291.2,220.6c-1.1-.2-2.3-.3-3.4-.4-.3,0-.7,0-.9.2,0,.1-.1.2-.1.4v1.1c0,.2,0,.4.2.7s.3.2.6.2h1.9c1.1,0,2.2,0,3.3.2"/>
    <path class="st30" d="M292,318.2h2.9l.7,4.9h-4.2l.7-4.9h0Z"/>
    <path class="st5" d="M274.5,181.2c-1.9-.4-4.5,1.2-4.9,1.7-.4.7-.8,1.2-1.1,2-.4.9-1.3,1.4-1.4,2.4,0,.7.2,1.3,0,2-.2.8-1.2,1.1-1.4,1.9s.3,1.4.2,2.2c-.1,1.1-1.4,1.7-1.9,2.8s.3,2.4-.1,3.5c-.3.8-.6,2.8-1.2,3.3s-.8,5.2-.3,5.9c1.7-2,2.9-3,5.5-3.8-.2-5.5-.6-11.7.9-17,.4-1.7,5-5.2,5.6-6.8h.1Z"/>
    <path class="st5" d="M278.8,181.3c1.8.7,3.2,1.9,4.1,3.5.4.8.8,1.7,1.4,2.3.4.3.9.7,1.2,1.1.6.9,0,2.1.4,3.1.3.9,1.2,1.4,1.5,2.2s0,1.8,0,2.7-.2,1.9.4,2.5.3.3.4.4c.1.2.2.4.2.7,0,1.3-.7,2.8,0,3.9.2.3.4.6.7.9.4.9-.1,2,.3,2.8.2.4.8,1,.4,1.3l-5.6-2.4-5.6-25.2v.2Z"/>
    <path class="st5" d="M274.6,182.2c.6-.7,1.3-1.1,2.1-1.1s1.7.1,2.4.4c1.9.9,3.4,2.4,4.3,4.3s1.5,3.9,1.9,5.9c.6,2.5.9,5.2,1.1,7.8,0,.8.4,6.6.6,7.7"/>
    <path class="st21" d="M281.4,208.5c.7-.9,1-2.1,1-3.2v-18c0-.8-.7-1.4-1.4-1.4l-5.5-2.2h-1.4c-3.2.1-5.5,3.8-5.5,6.4s0,6.5.4,8.6c.9,4.3,4.3,4.7,4.3,4.7,0,0,0,.7.1,2.2,0,0,1.1,5.2,8.1,3"/>
    <path class="st5" d="M270.4,192.6c0,.3.2.6.6.6s.6-.2.6-.6h0c0-.3-.2-.6-.6-.6s-.6.2-.6.6h0Z"/>
    <path class="st5" d="M269.4,191.5s.4-.2,1.1-.3,1.1.2,1.1.2c0,0,0-.1-.2-.3-.2-.1-.6-.2-.9-.2s-.7.1-.9.3c-.2.1-.2.3-.2.3Z"/>
    <path class="st5" d="M276,192.4c0,.3.2.6.6.6s.6-.2.6-.6h0c0-.3-.2-.6-.6-.6s-.6.2-.6.6h0Z"/>
    <path class="st5" d="M275.4,191.1s.4-.2,1.1-.3,1.1.2,1.1.2c0,0,0-.1-.2-.3s-.6-.2-.9-.2-.7.1-.9.3c-.2.1-.2.3-.2.3Z"/>
    <path class="st5" d="M273.4,196.1c-.3,0-.7-.1-1-.1s-.3,0-.3-.1v-.4l.4-1.2c.3-1,.7-2.1.9-3.1-.4,1-.8,2-1.1,3.1l-.3,1.2v.7s.1.2.2.2h1.2v-.2Z"/>
    <path class="st36" d="M273.4,203.3c2.1,0,4.1-.7,5.7-1.9,0,0-1.3,3.1-5.7,2.9v-1.1h0Z"/>
    <path class="st36" d="M273.7,197.7c.2-.3.6-.4,1-.4s.6.1.7.3c.2.2.2.4,0,.7-.2.2-.4.3-.8.2-.3,0-.6-.2-.8-.4,0,0-.1,0-.2-.2v-.2"/>
    <path class="st5" d="M275.1,196.5s0,.7-.6,1.1-1.2.4-1.2.6.1.1.4.1.8-.1,1-.4c.3-.2.4-.6.4-1s0-.4-.1-.4h0Z"/>
    <path class="st5" d="M274.5,189.4c0,.1.7,0,1.3-.1s1.3,0,1.3-.2c0,0-.1-.2-.3-.3-.7-.2-1.4-.1-2.1.2-.2.2-.3.3-.3.4h.1Z"/>
    <path class="st5" d="M269.3,189.7c.1.1.6,0,1,0h1s0-.2-.2-.3c-.6-.3-1.2-.2-1.7.1-.2.1-.2.3-.2.3h.1Z"/>
    <path class="st21" d="M281.7,194.7c0-.3.3-1.1.7-1.2.9-.2,2.4-.2,2.5,2,.2,3-2.9,2.5-2.9,2.4s-.2-2.2-.3-3.3h0Z"/>
    <path class="st36" d="M282.8,196.8h.6c.3-.2.6-.8.6-1.2s0-.6-.2-.8c0-.2-.2-.3-.4-.3s-.2,0-.3.1h0q0,.1,0-.1v-.2h.3c.2,0,.4.2.6.4s.2.6.2.8c0,.6-.2,1.1-.7,1.3h-.4s-.1-.2,0-.2v.2Z"/>
    <path class="st5" d="M275.9,183.4c2.2,3,4.5,6.3,6.7,9.3.4-1.4.8-3.6.4-5.1-.2-1.5-1-2.9-2.2-3.8-1.2-.9-3.3-1.1-4.7-.6"/>
    <path class="st5" d="M285.5,206.8s.1,0,.1-.1c.2-.9-2.4-5.7-2.3-6.7.1-1.1.2-2.1.2-3.2s-.2-2.3-.4-3.5c-.1-.6-.3-1.1-.4-1.7-.2-.6-.4-1-.8-1.5-.6-.9-1.1-1.7-1.8-2.4-.6-.7-1.2-1.2-1.7-1.8l-.2-.2v-.2c-.1,0-.4-.4-.4-.4-.2-.2-.4-.6-.7-.8-.1,0-.2-.2-.3-.3,0,0-.1,0-.2-.1h-.2c-.2-.2-.4-.3-.7-.4-.3-.1-.8-.2-1.1-.1-.2,0-.3.1-.3.2s.1.1.3.2c.2,0,.6.2.8.4.1.1.3.2.6.4h.1c0,.1,0,.2.1.2,0,0,.1.2.2.2.1.2.3.4.4.8,0,.1.2.3.3.4,0,0,0,.1.1.2v.2c.7.7,1.1,1.3,1.7,2s1,1.4,1.4,2.2c.2.4.4.9.6,1.2.1.4.2,1,.3,1.4.2,1,.3,2.1.3,3.1s0,1.9-.1,2.9c0,.9-.2,1.9-.4,2.8-.1.9-.2,1.9-.2,2.8s0,.9.2,1.7l6.1.8c0-.2-.8-.6-1.5-.8v.2Z"/>
    <path class="st5" d="M274,183.3c2.3,1.3,5.7,1.5,7.6-.1,0,.7-.4,1.2-.9,1.8s-1,1-1.5,1.3c-.8.2-1.4.2-2.2,0-.3,0-.8-.1-1.1-.2-.3-.2-.7-.4-1-.8-.6-.6-1.1-1.2-1.1-1.9"/>
    <path class="st30" d="M279.4,184.9s0,.1-.2.2c-.4.4-1,.8-1.5,1-.2,0-.4.1-.7.1h-.7c-.4,0-.9-.3-1.2-.6-.3-.2-.6-.4-.8-.8-.1-.2-.2-.4-.3-.7v-.2c.1.3.2.7.4.9.2.3.4.6.8.7.3.2.8.4,1.2.4h.7c.2,0,.4,0,.7-.1.3-.1.7-.3,1-.6.6-.3.8-.7.8-.7v.2Z"/>
    <path class="st30" d="M281.2,184.1s0,.2-.1.6c0,.2-.1.3-.2.6s-.3.4-.6.6c-.4.2-.9.3-1.3.2-.1,0-.2,0-.4-.1h0c.1,0,.3.1.4.1.4,0,.9,0,1.2-.2.2-.1.3-.3.6-.4,0-.2.2-.3.2-.6s.1-.3.2-.6h0Z"/>
    <path class="st30" d="M282.2,183.9v.3c0,.2-.2.4-.4.6-.2.1-.4.2-.7.2h-.3.3c.2,0,.4-.1.6-.2.2-.1.3-.3.4-.6v-.2h.1Z"/>
    <path class="st30" d="M279.3,184.3h-.8c-.7-.1-1.2-.3-1.8-.6s-1.2-.3-1.9-.3-.6,0-.8.1h.2c.2,0,.3-.1.6-.1.7,0,1.3,0,1.9.3.6.2,1.2.4,1.8.6h.8Z"/>
    <path class="st30" d="M280.6,184s-.1,0-.3-.1c-.2-.1-.6-.2-.9-.2s-.6,0-.9.1c-.2,0-.3.2-.3.1s0-.1.3-.2c.2-.1.6-.2.9-.2s.7.1.9.3c.2.1.3.2.3.2h0Z"/>
    <path class="st30" d="M281.8,183.2h-1c-.3,0-.7.2-.9.3l.2-.2c.4-.3.9-.3,1.3-.2.2,0,.3,0,.2,0h.1Z"/>
    <path class="st30" d="M269.3,185h0c0-.2,0-.3.1-.3l.2-.2.3-.3c.1,0,.2-.2.3-.3.3-.2.7-.4,1-.7.2,0,.3-.1.6-.2h.6c.3,0,.7,0,.9.1.2,0,.3.2.4.4v.2h0c0-.3-.2-.4-.4-.4-.3,0-.6-.1-.9,0h-.6c-.2,0-.3.1-.6.2-.3.1-.7.3-1,.6-.1,0-.2.2-.3.3l-.3.3s-.2.1-.2.2-.1.1-.2.2h-.1c0,.1.2-.1.2-.1Z"/>
    <path class="st30" d="M268.8,186.1s.1.1.3.3.4.2.4.2c0,0-.2,0-.4-.1s-.3-.3-.3-.3h0Z"/>
    <path class="st30" d="M267.2,186.2s0,.1.2.3.6.3.8.4c.3,0,.7,0,.9-.2.2-.1.3-.2.3-.2,0,.1-.1.2-.3.3-.6.4-1.3.3-1.9-.2,0,0-.1-.2-.2-.3h.2Z"/>
    <path class="st30" d="M268.6,184.9v-.2c.1-.1.2-.2.4-.2h.7-.7c-.1,0-.2,0-.3.1h-.1v.3Z"/>
    <path class="st25" d="M267.4,191h0v2.1c0,.3-.2.7-.4,1-.1.1-.2.3-.3.4,0,.1-.1.3,0,.6,0,.2.1.4.2.6,0,.2.1.4.1.7s0,.4-.2.7c-.1.2-.3.4-.4.6-.2.1-.3.3-.4.6s-.2.4-.1.7c0,.4.2.9.3,1.3v.7c0,.2-.1.4-.2.6s-.3.2-.6.2-.3.1-.4.2c-.2.2-.3.4-.4.8v1.2h0v-1.2c0-.3.2-.6.4-.8.1-.1.3-.2.4-.2.2,0,.3-.1.4-.2.2-.3.3-.8.2-1.1-.1-.4-.2-.9-.3-1.3,0-.2,0-.6.1-.7.1-.2.3-.4.6-.6s.3-.3.4-.6c0-.2.1-.4.1-.7s0-.4-.1-.7c0-.2-.2-.4-.2-.7s0-.4.1-.7c.1-.1.2-.3.3-.4.2-.2.4-.6.4-.9v-2.2h0Z"/>
    <path class="st30" d="M279.2,183.6c-.2-.2-.4-.4-.7-.7-.6-.4-1.3-.8-2-.9-.3-.1-.8-.1-1.2,0-.3,0-.7.2-.9.4-.4.3-.7.7-.7.7,0,0,0-.1.1-.2.1-.2.3-.3.4-.6.2-.2.6-.4.9-.6h1.2c.8.2,1.4.6,2,1,.2.1.3.3.4.4,0,0,0,.1.1.2h.2Z"/>
    <path class="st30" d="M281.1,183.1c-.2-.3-.6-.7-.8-.9-.3-.3-.7-.6-1.1-.7-.4-.2-1-.3-1.5-.3-1,0-1.9.2-2.7.8-.3.2-.6.6-.8.9h0s0-.1.1-.2c.2-.2.3-.4.7-.7.8-.6,1.8-.8,2.8-.8s1.1.1,1.5.3.8.4,1.1.8c.2.2.4.4.6.7,0,0,.1.2.1.3v-.2Z"/>
    <path class="st30" d="M270.9,182.2c.1-.1.3-.2.4-.3.4-.3.9-.4,1.3-.4s.6,0,.8.2c.2,0,.3.2.6.3.1.1.2.3.2.6,0-.2-.2-.3-.3-.4-.1-.1-.3-.2-.6-.3s-.4-.2-.7-.2c-.4,0-.9.1-1.3.4-.1,0-.3.2-.4.2h0Z"/>
    <path class="st5" d="M289.2,220c.7-.8,1.1-2,.4-2.9-.2-.2-.6-.4-.8-.8-.6-1,1.1-2.2.8-3.4-.1-.6-.7-.9-.7-1.3,0-.8.7-1.3.9-2,.4-1.2,0-1.8-.6-2.3l-8.7-2.9c-.6,3,1.1,3.6.6,5.5-.1.4-.4.9-.6,1.3-.3,1-.3,2,0,3,.2.7.7,1.2.9,1.8.3,1.2,0,2.5-.4,3.8s-.7,2.7.1,3.6l8.7.2-1-2.7v-.4c0-.2.1-.3.2-.4h.1Z"/>
    <path class="st25" d="M285.4,219.3h0v-.3c-.1-.3-.2-.7-.1-1.1,0-.2.1-.6.3-.8l.3-.3c.1,0,.2-.2.2-.3v-.4c0-.1-.2-.3-.3-.4-.1-.1-.2-.3-.3-.4,0-.2-.1-.4-.2-.6,0-.4,0-.9.2-1.3s.2-.4.4-.6c.2-.1.3-.3.6-.4.2-.2.2-.4.2-.7s-.1-.6-.2-.7c-.1-.2-.3-.4-.4-.7s-.2-.6-.1-.9c0-.6.4-1.1.7-1.7.1-.2.1-.6,0-.9,0-.3-.2-.6-.3-.8,0-.1-.2-.2-.2-.4s-.1-.3-.1-.4v-1c0-.7.3-1.2.4-1.9v-1.4c0-.1,0-.3-.2-.4-.1-.3-.3-.6-.4-.8,0-.1-.1-.3-.2-.4v-1.3c0-.3.1-.6.2-.9.2-.6.2-1.1.2-1.7s0-.2-.1-.4c0-.1,0-.2-.2-.3-.1-.2-.3-.4-.4-.7-.1-.2-.2-.4-.3-.8v-.8c0-.4,0-1-.2-1.4-.2-.3-.6-.7-.9-1-.6-.6-1.1-1-1.7-1.7-.3-.4-.7-.9-1-1.4-.2-.3-.3-.7-.4-1v-.2h0v.2c.1.3.2.7.4,1,.3.6.6,1,1,1.4.4.6,1,1.1,1.7,1.7.3.2.7.6.9,1,.1.2.2.4.2.7v1.5c0,.2.1.4.3.7.1.2.3.4.4.7.1.2.2.6.3.8.2,1.2-.6,2.3-.4,3.4,0,.6.4,1.1.7,1.7,0,.1.1.3.2.4v1.4c-.1.7-.3,1.2-.4,1.9,0,.4,0,.9.2,1.3,0,.1.1.2.2.4.2.2.3.6.4.9v.9c-.2.6-.4,1-.7,1.5,0,.2,0,.6.1.8s.2.4.4.7c.1.2.2.4.2.8s0,.6-.3.8c-.2.2-.3.3-.6.4s-.3.3-.4.6c-.2.3-.3.8-.2,1.2,0,.2,0,.4.2.6,0,.2.2.3.3.4.1.1.2.3.3.4v.6c0,.1-.1.3-.3.4-.1,0-.2.2-.3.3-.2.2-.3.4-.3.7,0,.3,0,.8.1,1.1v.2h0c0,.1,0,.2,0,.2Z"/>
    <path class="st30" d="M284.4,209.7s0-.1-.1-.2c0-.2-.1-.4-.2-.8v-1.2c0-.4.2-1,.3-1.5,0-.7,0-1.2-.1-1.9-.2-.7-.4-1.3-.7-2-.3-.7-.6-1.4-.8-2.2s-.3-1.7-.3-2.5.2-1.8.2-2.5v-2.3c-.1-.7-.4-1.3-1-1.9-.4-.6-1-.9-1.3-1.3-.6-.7-1.1-1.4-1.4-2.3-.1-.3-.2-.6-.3-.7v-.2h0v.2l.4.7c.4.8.9,1.5,1.5,2.2.3.4.9.8,1.3,1.3.4.6.9,1.2,1,1.9.1.8.2,1.5.1,2.4,0,.8-.2,1.7-.2,2.5v1.3c0,.4.1.8.2,1.2.2.8.6,1.5.8,2.2.3.7.6,1.3.7,2.1.1.7.2,1.2.1,1.9,0,.6-.2,1.1-.3,1.5,0,.3-.1.8,0,1.2,0,.3.1.7.2,1h-.1Z"/>
    <path class="st36" d="M277.9,190.5h-.2c-.2-.1-.6-.2-.8-.2h-1.1c.3-.1.8-.2,1.1-.2s.6,0,.8.2c.2,0,.2.2.2.2h0Z"/>
    <path class="st36" d="M271.2,190.9s-.2-.1-.3-.1c-.6-.1-1.1,0-1.5.2,0,0-.2.1-.2.2,0,0,0-.1.2-.3.2-.1.6-.2.8-.3h.9c.2,0,.3.2.3.2h-.1Z"/>
    <path class="st36" d="M276.1,196.7s-.2-.2-.6-.3h-.7c-.1,0,0,0,.1-.1h.4c.2,0,.4.2.6.4h.1Z"/>
    <path class="st36" d="M276.6,196.2s-.1-.2-.3-.3c-.1,0-.3-.1-.6-.1h.6c.2,0,.3.2.3.4h0Z"/>
    <path class="st36" d="M273.5,187.6c-.2.2-.6.3-.9.4h-1,1c.3,0,.6-.2.9-.3h0Z"/>
    <path class="st36" d="M272.9,187.4l-.7.3h-.8s.3,0,.7-.1.7-.2.7-.2h.1Z"/>
    <path class="st25" d="M262,290.4s-1.2.3-1.5,2.7,1.2,22.2,1.2,22.2l-4.5,9.2s-.7.7-.1,2.4,6.7,3.2,8.4,2.4,5.6-7.4,6.3-8.7,1.1-11.9.9-12.9,1.1-15.5.3-16.5c-.4-.7-10.8-.7-10.8-.7h-.1Z"/>
    <path class="st5" d="M262,290.4h3.9c1.2,0,2.8,0,4.5.1.4,0,.9,0,1.3.1.2,0,.4,0,.8.1.1,0,.2,0,.3.2,0,.1.1.2.1.3.1,1.1.1,2.1.1,3.2,0,2.2-.2,4.6-.3,7.3,0,1.3-.1,2.7-.2,4.1v4.4c0,1.4,0,3-.2,4.5s-.2,3.1-.4,4.7c0,.2,0,.4-.1.6,0,.2-.1.4-.2.6-.2.3-.4.7-.6,1.1-.4.7-.9,1.4-1.3,2.1-.9,1.4-1.9,2.8-3,4.1-.3.4-.8.9-1.3,1.2-.2.2-.6.3-.9.3h-.9c-1.2,0-2.3-.2-3.4-.6-.6-.1-1.1-.3-1.7-.6s-1-.6-1.4-.9c-.2-.2-.3-.4-.4-.8,0-.2-.1-.6-.1-.9,0-.6,0-1.2.3-1.7h0c1.7-3.2,3.1-6.3,4.5-9.2h0c-.6-7.5-1-13.9-1.2-18.3v-3c0-.8.1-1.4.4-2.1.2-.4.4-.8.8-1.1.1,0,.2-.2.4-.2h0s-.2.2-.3.2c-.3.3-.7.7-.8,1.1-.3.7-.4,1.4-.4,2.1v3c.2,4.4.7,10.8,1.3,18.3h0c-1.4,2.9-3,6-4.5,9.3h0c-.1.2-.2.4-.2.7v.8c0,.2,0,.6.1.8,0,.2.2.4.3.7.4.3.9.7,1.3.9.6.2,1,.4,1.5.6,1.1.3,2.2.6,3.4.6h.9c.3,0,.6-.1.8-.3.4-.3.9-.8,1.2-1.2,1.1-1.3,2-2.7,3-4.1.4-.7.9-1.4,1.3-2.1.2-.3.4-.7.6-1.1,0-.2.1-.3.2-.6,0-.2,0-.4.1-.6.2-1.5.3-3.2.4-4.7s.1-3.1.2-4.5v-4.4c0-1.4.1-2.8.2-4.1.1-2.7.3-5.1.3-7.3v-3.5s-.2,0-.3-.1c-.2,0-.4,0-.7-.1-.4,0-.9,0-1.3-.1-1.8-.1-3.3-.1-4.5-.2h-3.9v.3Z"/>
    <path class="st5" d="M272.3,318.7c-.1,0-.3.1-.4.2-.4.1-.8.2-1.2.3-1.4.2-2.8.2-4.2-.1-1.3-.3-2.7-.8-4-1.4-.3-.2-.8-.4-1.1-.7-.1,0-.2-.2-.3-.3.4.3,1,.7,1.4.9,1.2.7,2.5,1.1,3.9,1.4s2.8.3,4.1.2c1.1-.1,1.7-.3,1.7-.3l.2-.2Z"/>
    <path class="st5" d="M272.4,310c0,.1-.1.2-.2.4-.2.3-.6.7-.9.9-1.1.9-2.3,1.7-3.6,2.2-.4.1-.8.3-1.1.4s-.8.3-1.1.3c-.7.1-1.3.2-1.9.3s-1,.1-1.3.1h-.4c.1,0,.3,0,.4-.1l1.3-.2c.6,0,1.2-.2,1.9-.3.3,0,.7-.2,1.1-.3.3-.2.8-.3,1.1-.4,1.3-.6,2.5-1.2,3.6-2.1.9-.7,1.2-1.2,1.3-1.2h-.2Z"/>
    <path class="st5" d="M272.5,307.5c-.1,0-.2.2-.4.2-.4.2-.8.3-1.2.3-1.3.2-2.8.2-4.1.2s-2.8,0-4.1-.2c-.6,0-1-.1-1.2-.1h-.4,1.7c1.1,0,2.5.1,4.1.1s3.1,0,4.1-.2c.6,0,1.1-.2,1.7-.4h0Z"/>
    <path class="st5" d="M272.8,300.4c-.1.1-.2.2-.4.3-.3.2-.8.4-1.2.6-1.4.6-2.8.9-4.2,1.2-1.7.4-3.2.7-4.3.9-.6,0-1,.1-1.3.2h-.4c.1,0,.3,0,.4-.1l1.3-.2c1.1-.2,2.7-.6,4.3-1s3.2-.8,4.2-1.2c.6-.2,1.1-.4,1.7-.8h0Z"/>
    <path class="st5" d="M273,295.4c-.1,0-.3,0-.4.1-.3,0-.8.1-1.3.2-1.5.2-3,.2-4.5.1-1.5,0-3-.3-4.4-.8-.6-.1-1-.3-1.3-.4-.1,0-.3-.1-.4-.2,0,0,.7.2,1.8.4,2.9.8,6,1,8.9.7,1.1-.1,1.9-.2,1.9-.2h-.1Z"/>
    <path class="st5" d="M269.9,323c-.6-.1-1-.3-1.4-.6-.9-.3-2.2-.9-3.6-1.3s-2.8-.9-3.6-1.1c-.6-.1-1-.3-1.5-.4h.4c.2,0,.7.1,1.1.2,1,.2,2.3.6,3.8,1.1s2.7,1,3.6,1.4c.4.2.8.3,1.1.6.1,0,.2.1.3.2h-.1Z"/>
    <path class="st5" d="M266.1,328.7s-.4-.4-1.1-1c-.9-.8-1.9-1.4-2.9-2.1-1.2-.8-2.3-1.2-3.1-1.8-.4-.2-.8-.6-1.1-1,0,0,.4.3,1.2.8s1.9,1,3.1,1.8c1,.6,2,1.3,2.9,2.1l.8.8c.2.2.2.3.2.3h0Z"/>
    <path class="st27" d="M331.4,279.4c0,.6,3.6,10.6,3.6,10.6l.2,10.5c0,1.4.2,2.8.7,4.1l3.5,13.6h6.5s-.4-24.2-.9-28.2-1.5-12.3-1.5-12.3l-11.9,1.5h-.2Z"/>
    <path class="st31" d="M338.9,318.1l-1.7-8,8.4-.3.3,8.7s-6.2,2.8-7-.4h-.1Z"/>
    <path class="st30" d="M346.6,318.2v-.8c-2.7,1-5.4,1-8.1.1v5.6c.1,0,17-.3,17-.3,0-1.7-8.8-4.6-8.8-4.6h-.1Z"/>
    <path class="st5" d="M338.6,323.1v-1.3l16.1.2s.8.3.7.9l-16.8.3h0Z"/>
    <path class="st5" d="M346.7,318.2s-.4.1-.8.4-.6.7-.7.6,0-.6.6-.8,1-.2,1-.1h-.1Z"/>
    <path class="st5" d="M341.1,320.3c0,.2-.2.4-.4.4s-.4-.2-.4-.4.2-.4.4-.4.4.2.4.4Z"/>
    <path class="st5" d="M346.6,318.2h-1.3s-.2,0-.3-.1c0,0-.2-.1-.2-.2v-.4c.1-.1.3-.2.4-.2.7,0,1.2.4,1.5,1h-.2v-.3c0-.7.4-1.3,1.1-1.5h.2s.2,0,.2.1.1.3,0,.4c0,.2-.1.4-.3.7-.2.2-.6.4-.9.6-.1,0-.2,0-.3.1l.3-.2c.3-.1.6-.3.8-.7.1-.2.2-.3.2-.7v-.3h-.2c-.6.2-.9.8-1,1.4v.3h0q0,.1-.1.1c-.2-.6-.8-.9-1.3-.9s-.4.2-.3.3c.1.1.2.3.4.3.3,0,.6.1.9.1h.4,0Z"/>
    <path class="st30" d="M345.6,311c-.4,0-.8.1-1.2.1-.8,0-1.8,0-2.9.1s-2.1,0-2.9,0h-1.2c.4,0,.8-.1,1.2-.1.8,0,1.8,0,2.9-.1s2.1,0,2.9,0h1.2Z"/>
    <path class="st30" d="M345.7,311.8c-.4,0-.8.1-1.2.1-.8,0-1.8,0-2.9.1s-2.1,0-2.9,0h-1.2c.4,0,.8-.1,1.2-.1.8,0,1.8,0,2.9-.1s2.1,0,2.9,0h1.2Z"/>
    <path class="st25" d="M310,319.9c-.3-.2.7-2.8.7-2.8h4v2.8h-4.6Z"/>
    <path class="st25" d="M311.5,281.4s-.7,5.5,0,6.3,3.1.6,4,0c.8-.4.7-6.4.7-6.4l-2.4-2.5-2.2,2.5h0Z"/>
    <polygon class="st25" points="311.5 317.4 312.3 288 314.8 288 314 317.4 311.5 317.4"/>
    <path class="st5" d="M315.7,287.8s-.2.2-.6.3c-.6.2-1,.3-1.5.3s-1.1,0-1.5-.3c-.3-.2-.6-.4-.6-.4,0,0,.2.1.6.3.4.2,1,.2,1.5.2s1,0,1.5-.2c.2,0,.4-.1.7-.2h-.1Z"/>
    <path class="st5" d="M314.9,317.2c-1.4.1-2.9.1-4.2,0,1.4-.1,2.9-.1,4.2,0Z"/>
    <path class="st30" d="M315.6,318.5s-4.4,2.4-6.1-.4l-.7,1.2-3.4,8.5c-.2.6,0,1.2.4,1.5.3.2.9.2,1.2,0,1.9-1.4,8.7-6.5,8.7-7.4l.2-2.2c0-.4-.1-.9-.6-1.1h.1Z"/>
    <path class="st5" d="M306.2,329.2l9.8-8.3v.4c0,.4-.3.8-.6,1-.8.9-3.1,2.8-8.2,6.6-.3.2-.7.3-1,.1h-.1Z"/>
    <path class="st5" d="M309.3,324.7c-.2-.3-.6-.8-.9-1-.3-.2-.8-.3-1.2-.4h.4c.3,0,.7.1,1,.3.3.2.6.4.7.8v.4h0Z"/>
    <path class="st5" d="M308.3,326.1s-.3-.3-.9-.7c-.3-.1-.7-.2-1-.3.3-.2.8-.1,1.1,0,.6.2.9.8.8.9h0Z"/>
    <path class="st5" d="M310.9,323c-.4-.3-.9-.8-1.3-1.1-.6-.2-1-.4-1.5-.7.6,0,1.2,0,1.7.4.6.2,1,.7,1.2,1.2h0Z"/>
    <path class="st5" d="M311.5,320.4s-.6-.3-1.3-.4-1.4,0-1.4-.1c.4-.2,1-.2,1.4-.1.6,0,1,.3,1.3.7Z"/>
    <path class="st5" d="M310.3,319.7c0-.1,0-.3.2-.4.2-.3.4-.7.8-.9.1,0,.2-.1.3-.2h.4c0,.1.1.3,0,.6,0,.1-.2.3-.3.4-.2.3-.6.6-.9.7-.2,0-.4.1-.7,0-.2,0-.3-.2-.6-.3-.6-.6-1-1.2-1.2-1.9v-.3s.1-.2.2-.2c.2,0,.3,0,.6.2s.4.4.6.7c.2.3.3.8.3,1.2v.3h0c0,.1,0-.3,0-.3,0-.4-.1-.8-.3-1.1-.1-.2-.3-.4-.6-.7,0,0-.2-.1-.3-.1s-.1.1-.1.3c.2.7.7,1.3,1.2,1.9s.2.2.4.3h.4c.3-.1.6-.3.9-.7l.3-.3v-.3s-.2-.1-.3,0c-.1,0-.2,0-.3.2-.3.2-.7.6-.9.9-.1.2-.2.3-.2.3v-.2Z"/>
    <path class="st5" d="M309,246s-1.5,7.6-2,10.9-1.2,21.2-1.2,21.2c.6,2,2.3,3.3,4.3,3.3,3.6,0,9.1.4,9.1.4l6-12.4,5.6,12.4s9.4-.4,11.5-1.3,2.5-1.3,2.5-1.3c0,0-2.3-12.1-2.8-15.1s-3-12.3-3-12.3l-30.2-5.7h.1Z"/>
    <path class="st30" d="M324.3,270.5s-.2-3.6-.3-8.2c-.1-4.5-.1-8.2,0-8.2s.2,3.6.3,8.2.1,8.2,0,8.2Z"/>
    <path class="st30" d="M320.4,259.9v-1.1c0-.7.1-1.5.1-2.7v-3.8c0,.3.1.7.1,1.1v2.7c0,.9,0,1.8-.2,2.7,0,.3,0,.8-.2,1.1h.2Z"/>
    <path class="st30" d="M327.8,259.3c-.6-.8-1-1.7-1.3-2.5-.4-.9-.8-1.8-1-2.7.4.9.9,1.8,1.2,2.7.4.9.8,1.8,1.1,2.7h0Z"/>
    <path class="st5" d="M335.4,187.3c0-.2-.1-.4-.2-.7-.4-.7-1.1-1.1-1.9-1.2.7-.3,1.2-.7,1.8-1.2.4-.6.7-1.3.4-2-.3-.7-.9-1.1-1.5-1.3-.9-.3-1.9-.4-2.9-.2s-1.7,1-2,1.9l.9,2.3c.1.9.4,1.8,1.1,2.5.2.3.7.6,1.1.6.3-.1.6-.4.7-.8,0-.3,0-.8-.2-1.1.4.7,1.1,1.2,1.8,1.5.2.1.6.2.8,0,.2-.1.3-.3.3-.7v.3Z"/>
    <path class="st30" d="M335.8,182.5s-.3-.1-.9-.3c-1.4-.3-3,0-4.1.9-.4.3-.7.7-.7.7,0,0,0-.1.1-.2.1-.2.3-.3.4-.4.6-.6,1.2-.9,2-1,.8-.1,1.5-.1,2.2,0,.2,0,.4.1.7.2.2,0,.2.1.2.1h0Z"/>
    <path class="st30" d="M330.3,184.7v-.6c0-.8-.3-1.4-.8-2.1,0,0-.2-.2-.3-.2-.2,0-.3.3-.2.6,0,.2,0,.4.1.7l.3,1.5c0,.1,0,.3.2.4.1.1.3.2.4.1.2,0,.3-.2.3-.4h-.1Z"/>
    <path class="st5" d="M328.8,195.2c.7-1.7,1.1-3.3,1.4-5,.3-1.8.2-3.5-.2-5.2,0-.2-.8-2-1.1-1.9-.2,0,.2,1.5.1,1.8-.9,1.5-1.3,3.4-1.2,5.2,0,1.8.4,3.5.9,5.2"/>
    <path class="st27" d="M328.6,203.9l.7-15.2c.2-4.4-2.1-8.2-6.4-8.3h-.4c-4.1,0-7.3,3.3-7.5,7.3-.2,3.9-.4,8.1-.3,10.1.1,4.2,4.4,4.7,4.4,4.7v2.2s.3,2.4,4.2,2.5,5.6-3.3,5.6-3.3h-.2Z"/>
    <path class="st33" d="M318.8,202.4c2,0,3.9-.7,5.4-1.8,0,0-1.2,3.1-5.5,2.8v-1.1h.1Z"/>
    <path class="st5" d="M317.2,191.3c0,.3.2.6.6.6s.6-.2.6-.6h0c0-.3-.2-.6-.6-.6s-.6.2-.7.6h.1Z"/>
    <path class="st5" d="M315.7,189.2s.6-.2,1.2-.3,1.1.3,1.2.2,0-.2-.2-.3c-.3-.2-.7-.3-1-.2-.3,0-.7.1-.9.3-.2.1-.2.3-.2.3h-.1Z"/>
    <path class="st5" d="M322.9,191.3c0,.3.2.6.6.6s.6-.2.6-.6h0c0-.3-.2-.6-.6-.6s-.6.2-.7.6h.1Z"/>
    <path class="st5" d="M322.1,189.4s.6-.2,1.2-.3,1.1.3,1.2.2,0-.2-.2-.3c-.3-.2-.7-.3-1-.2-.3,0-.7.1-.9.3-.2.1-.2.3-.2.3h-.1Z"/>
    <path class="st5" d="M319.9,194.6c-.3,0-.7-.1-1.1-.1s-.3,0-.3-.1v-.4l.4-1.2c.7-1.8,1.1-3.3,1-3.3s-.7,1.4-1.3,3.2l-.4,1.3c0,.2-.1.4,0,.7,0,.1.1.2.3.2h1.4v-.2Z"/>
    <path class="st5" d="M321.8,187.8c0,.1.7,0,1.4,0h1.4s0-.2-.3-.3c-.8-.3-1.5-.3-2.2,0s-.3.3-.3.4h0Z"/>
    <path class="st5" d="M315.6,187.8c.1.1.7,0,1.3,0h1.2s0-.2-.2-.3c-.3-.1-.7-.2-1-.2s-.7.1-1,.3c-.2.2-.3.3-.2.3h-.1Z"/>
    <path class="st27" d="M328.9,191.7s2.9-.9,2.9,2-2.9,2.2-2.9,2.2v-4.1h0Z"/>
    <path class="st33" d="M329.8,194.8h.4c.3-.2.6-.7.6-1.1s0-.4-.1-.7c0-.2-.2-.3-.3-.4-.1,0-.2,0-.3.1h0q0,.1,0-.1s0-.1.1-.2h.3c.2,0,.4.2.6.4s.2.6.1.8c0,.6-.2,1-.8,1.2h-.4s-.1-.1,0-.1h-.1Z"/>
    <path class="st5" d="M316.7,183c-.4-.2,1-1.8,2.1-2.2,1.8-.8,4.4-1.2,6-.7,1.9.6,3.5,1.5,4.4,3.3s1.3,3.8,1.2,5.7c0,.7-.1,1.2-.4,1.8-.4.7-1.2,1-1.2,1.9s0,.7-.3.9c-.6.6-1.2,0-1.4-.6-.7-1.1-.7-2.5-.7-3.8s0-1.9.2-2.8c.1-.4.3-.9.6-1.4.1-.4,0-1-.2-1.4,0,0-.1-.2-.2-.2-.8-.8-2-1-3-.7-1.7.6-4.4,1.3-5.1.8-.6-.3-1-.8-1.2-1.3l-.6.6h-.1Z"/>
    <path class="st5" d="M324.6,179.6c-1.5-.6-3.3-.6-4.9.2-.8.3-1.4,1-1.8,1.9-.3.9,0,1.8.9,2.2h0c1.2.4,2,.3,3.2,0,1-.3,2-1,3-1.3,1.1-.3,2.3-.3,3.4,0-1-1.3-2.4-2.3-4-2.9h.1Z"/>
    <path class="st30" d="M328.4,182.1s-.1,0-.3-.1c-.3-.1-.7-.2-1-.2-.6,0-1,0-1.5.3-.6.2-1.2.6-1.8.9s-1.1.7-1.8.9c-.4.2-1,.3-1.5.3s-.7,0-1-.1c0,0-.2,0-.2-.1h0c.4.2.9.2,1.4.2s1-.1,1.5-.3,1.1-.6,1.7-.9,1.1-.7,1.8-.9c.6-.2,1-.3,1.5-.2.3,0,.8,0,1.1.2,0,0,.2,0,.2.1h-.1Z"/>
    <path class="st30" d="M327.2,181.1c-.4-.1-.9-.2-1.3-.2s-1,.1-1.4.3c-.6.2-1.1.6-1.5.9-.6.3-1,.7-1.4,1l-1.3.7c-.3.1-.7.2-1,.2h-.2c.4,0,.9-.1,1.3-.3l1.3-.7c.4-.3,1-.7,1.4-1,.4-.3,1-.7,1.5-.9.4-.2,1-.2,1.4-.2s.7,0,1,.2c0,0,.1,0,.2.1h0Z"/>
    <path class="st30" d="M330,184.9v.2c0,.2-.1.4-.2.6-.2.7-.7,1.2-1.1,1.7-.4.6-1,.9-1.5,1.2-.2,0-.3.2-.6.2h-.2s.3-.1.8-.4c1.1-.7,2.1-1.7,2.7-2.9.2-.4.3-.8.3-.8v.2Z"/>
    <path class="st30" d="M330.4,186.8v.2c0,.2,0,.3-.2.6-.3.6-.8,1-1.3,1.3s-1.1.6-1.8.7c-.2,0-.6.1-.8.1.2,0,.4-.2.8-.2.6-.2,1.2-.4,1.7-.8.6-.3,1-.8,1.2-1.3,0-.2.2-.4.2-.7h.2Z"/>
    <path class="st30" d="M320.4,180.1c-.1.2-.2.3-.4.4-.3.3-.7.8-.9,1.2-.2.4-.3,1-.3,1.4s0,.4.1.7h0c0-.2-.1-.4-.1-.6,0-.6,0-1.1.2-1.5s.6-.9.9-1.2c.1-.1.3-.3.6-.4h0Z"/>
    <path class="st30" d="M318.4,181.4c-.2.9,0,1.9.6,2.5,0,0-.1,0-.3-.3-.2-.2-.3-.6-.4-.9v-1c0-.1,0-.2.2-.4h0Z"/>
    <path class="st5" d="M330.6,195.8s0,.2-.1.4c0,.1-.1.3-.3.3h-.6c-.2,0-.3-.2-.3-.4v-.4c0-.2.2-.4.2-.4,0,0-.2,0-.3.3,0,.2-.1.3,0,.6,0,.2.2.4.4.6.2.1.6,0,.7,0,.1-.1.3-.3.3-.4v-.4h0Z"/>
    <path class="st5" d="M331.6,195v.3s0,.2-.1.2h-.3c-.2,0-.3-.3-.3-.6v-.3s-.1,0-.2.3v.4c0,.1.2.3.3.3h.6s.2-.2.2-.3c0-.2-.2-.3-.2-.3h.1Z"/>
    <path class="st5" d="M331.7,193.1s.1,0,.2.2c.2.1.2.4,0,.7s-.3.2-.6,0c-.1,0-.2-.1-.2-.1,0,0,0,.1.2.2h.3c.1,0,.3-.1.4-.2.2-.2.1-.6-.1-.8-.2-.1-.3,0-.3,0Z"/>
    <path class="st5" d="M321.1,195.1s0,.7-.7,1.1-1.2.4-1.2.6.1.1.4.1.8-.1,1-.4c.2-.2.4-.6.4-.9v-.4h0Z"/>
    <path class="st5" d="M318,201v-.6c0-.2.2-.6.3-.6s0,.3,0,.6-.1.6-.2.6h-.1Z"/>
    <path class="st5" d="M318.8,201.1v-.4c0-.2,0-.4.1-.4s.1.2.1.4,0,.4-.2.4Z"/>
    <path class="st5" d="M319.5,201.1v-.6c0-.3,0-.4.1-.4s0,.2,0,.6,0,.4-.1.4Z"/>
    <path class="st5" d="M320.4,200.9l-.2-.4c-.1-.2,0-.4,0-.4l.2.4c.1.2,0,.4,0,.4Z"/>
    <path class="st5" d="M348.3,318.8s-.3.2-.6.6-.3.8-.4.7-.1-.4.2-.9.9-.4.9-.4h-.1Z"/>
    <path class="st5" d="M349.5,320.8s-.2-.4,0-.9.6-.7.7-.6-.2.3-.3.7-.2.7-.2.8h-.1Z"/>
    <polygon class="st27" points="316.7 205 319.1 203.7 328.6 204 330.3 205 328.6 208.9 323.5 209.8 319.7 209.8 317.4 206.8 316.7 205"/>
    <path class="st0" d="M310,206s-3,.4-4.2,2.5-2,6.1-2,6.1c-.9,1.4-1.3,3-1.4,4.5,1-1,2.4-1.5,3.9-1.5,2.8,0,6.1,3,6.1,3l-2.2-14.7h-.1Z"/>
    <path class="st0" d="M310,206l5.6-1.2,2.8-.8s-1.2,4.9,5,4.7c6.2-.1,5.7-4.7,5.7-4.7,0,0,5,1.4,5.2,1.4.4,0,4.3,1,4.3,1l-1.3,10.1v16.2s1.1,11.3,1.4,13.6l.6,5.4s-13,2.3-18.7,0c-4.1-1.7-8.3-3-12.5-4.1,0,0,.6-3.8.9-7.6.2-2.2.8-4.4,1.5-6.5,0,0-1-24.4-.9-24.6s.6-3,.6-3h-.2Z"/>
    <rect class="st8" x="318.1" y="216.9" width="10.8" height="10.8"/>
    <path class="st0" d="M338.6,206.4s1.2-.1,2.9,2.7,2.3,6.6,2.3,6.6l.4,3.9s-4.1-4.1-8.5-.8l1.2-4.2s-1-3.2-.2-5.4,2-2.8,2-2.8h-.1Z"/>
    <g class="st22">
      <path d="M311.7,233.2c-.7,0-1.5.3-1.5,1l-.3.9c.2.8.8.7,1.4.9s1.5,0,2.2.2c1.1.1,2.1.7,3.2,1,1.8.6,3.5.7,5.4.8,2.7.1,5.3.3,8,0s5.2-1.3,7.2-3.1c-8.5-1-17-2-25.6-1.5h.1Z"/>
    </g>
    <path class="st27" d="M302.4,219.2c0,.4-.3,6.5,0,9.1s.7,4,1.5,4.4,2.5.4,3.4.7,3,1.9,7.2,1.1,9.8-4.7,11.6-5.1c1.1-.2,2.3-.3,3.4-.4l4.6-1,.6-3.8s-9.8.1-11.4.3-3.8.8-8.2.6-3.3-.3-3.3-.3l.3-4s-2.7-2.7-5.5-3c-1.7-.2-3.3.3-4.4,1.5h.1Z"/>
    <path class="st27" d="M309.4,224.6c-.2-.3-.2-.9,0-1.2-.3-.3-.7-.9-.8-1.3-.1-.3,0-.7,0-.9-.1-.2-.2-.4-.3-.8,0-.2,0-.6.3-.7.3-.2.8,0,1.1.2s.7.6.9.9c-.2-.2-.1-.6,0-.8h0c.2-.1.6-.1.9,0,.6.3,1,.8,1.3,1.3.8,1.2,1.7,2.4,2.7,3.5"/>
    <path class="st33" d="M315.5,224.9l-.4-.4c-.2-.3-.7-.8-1.1-1.3-.2-.3-.4-.6-.7-1s-.4-.8-.8-1.1c-.3-.3-.7-.7-1.1-.9h-.7c-.2.1-.2.3-.2.6h-.2c-.2-.1-.4-.3-.8-.7s-.6-.3-.9-.4c-.3,0-.4.3-.4.6h0c0,.3.1.6.3.8h0c-.1.3-.2.6-.1.7,0,.2.1.4.2.6.1.3.3.7.6.9h0c-.1.1-.2.3-.2.4v.7-.3c-.1-.1-.1-.2-.1-.4s0-.4.2-.6h0c-.2-.2-.4-.4-.7-.8,0-.2-.2-.4-.2-.7s0-.6.1-.8h0c-.2-.1-.3-.4-.3-.8s0-.3.1-.6.3-.3.6-.3c.3,0,.8.2,1,.4.3.2.6.6.8.8h-.2c0,.1,0,0,0,0-.1-.3,0-.7.2-.9.2-.1.6-.1.9,0,.4.2.9.6,1.1,1,.3.4.4.8.8,1.1s.4.7.7,1l1,1.3c.1.1.2.3.3.6l.3.7Z"/>
    <path class="st33" d="M313.6,224.6c-.7-.6-1.2-1.2-1.7-1.9-.6-.7-1.1-1.3-1.5-2.1.7.6,1.2,1.2,1.7,1.9.6.7,1.1,1.3,1.5,2.1Z"/>
    <path class="st33" d="M311.5,224.1c-.6-.3-1-.8-1.4-1.3-.4-.4-.9-1-1.2-1.5.6.4,1,.9,1.4,1.3.4.4.9.9,1.3,1.4h-.1Z"/>
    <path class="st33" d="M310.6,224.7s-.3-.2-.7-.6-.6-.7-.4-.7.3.2.7.6.6.7.4.7Z"/>
    <path class="st33" d="M315.9,224.9h-3.1c-.6,0-1.3,0-2-.2h-2c-.6,0-1,.2-1.5.3-.3.1-.7.3-.9.6,0,0-.2.2-.3.2,0,0,0-.1.2-.3.2-.2.6-.4.9-.7.4-.2,1-.3,1.5-.4h2c.7,0,1.3.1,2,.1h1.5c.6.1,1,.2,1.4.3h.2Z"/>
    <path class="st27" d="M335.7,218.9c-.8,3-1.2,6-1.4,9.1l-13.6.9-5.5,5.3s3.6,2.5,10.3,2.7,9.5-1.1,12.7-1.3c3.2-.1,4.4-.8,5-2.9s1.1-8.7,1.1-10.1-.1-2.1-.3-3.1c0,0-4-3.6-8.2-.4h0Z"/>
    <path class="st33" d="M334.3,227.9c-.2-1.5,0-3.1.3-4.5,0,.8,0,1.5-.1,2.3,0,.8,0,1.5-.2,2.3h0Z"/>
    <path class="st33" d="M334.5,227.7h-.2c-.1.1-.3.3-.6.4-.7.3-1.3.6-2,.8-1.1.3-2.1.4-3.2.6-.7,0-1.2.1-1.9.3-.7.2-1.2.6-1.9.8l-6.6,3c-.7.3-1.3.6-2.1.7-.2,0-.3,0-.6.1h-.2s.2,0,.8-.2c.7-.2,1.3-.4,2-.8.9-.3,1.8-.9,3-1.3l3.6-1.7c.7-.3,1.2-.6,1.9-.8s1.2-.3,1.9-.3c1.1,0,2.1-.2,3.2-.4.7-.2,1.4-.4,2.1-.7.2-.1.4-.2.8-.3h0Z"/>
    <path class="st33" d="M338.1,229.3s-.8-.4-1.9-.9-2-.4-2-.6c.7,0,1.4,0,2.1.3.7.2,1.3.6,1.8,1.1Z"/>
    <path class="st5" d="M311.9,220c-.1-.3-.2-.8-.2-1.1-.1-.7-.2-1.7-.4-2.7s-.2-2-.2-2.8v-1.1c0,.3.1.8.2,1.1,0,.8.2,1.7.3,2.7s.2,1.9.3,2.7v1.1h0Z"/>
    <path class="st5" d="M335.7,218.9c0-.4,0-.9.1-1.2,0-.8.2-1.9.2-3s.1-2.2.2-3c0-.4.1-.9.2-1.2v1.2c0,.8-.1,1.9-.2,3s-.2,2.2-.3,3c0,.4-.1.8-.3,1.2h.1Z"/>
    <path class="st5" d="M311,210.7s-.2-.9-.8-1.9-1.1-1.7-1.1-1.7c1.1.9,1.8,2.2,1.9,3.5h0Z"/>
    <path class="st5" d="M329.9,204.5v.8c-.2.7-.4,1.3-.9,1.8-.7.8-1.4,1.4-2.3,1.9s-2.3.9-3.5,1c-.7.1-1.2.1-1.9,0-.6,0-1.1-.3-1.7-.7-.9-.6-1.5-1.3-1.9-2.3s-.3-1.3-.2-2v-.8.8c0,.7,0,1.3.3,1.9.3.9,1,1.7,1.9,2.2.4.3,1,.4,1.5.6h1.9c1.2-.1,2.3-.4,3.4-1s1.7-1,2.3-1.8c.4-.6.8-1.1.9-1.8.1-.4.1-.7.2-.7h-.1Z"/>
    <g class="st22">
      <path d="M318.9,208.7c0,1.8,3.2,2.4,5.4,2,1-.2,1.9-.7,2.7-1.1.7-.4,1.3-1.1,1.5-1.9-1.3,1.3-3.3,1.8-5.1,2.1-.8.1-1.5.2-2.4.1-.8,0-1.5-.4-2-1.1"/>
    </g>
    <path class="st21" d="M309.9,206s1.3-1.9,2.1-2c.6,0,1.1.1,1.5.3.1-.3.4-.6.9-.6s1,.3,1.4.6l1.5,1.9-1.3,3s-.7,0-.7-.9.1-1.2.4-1.7l-.8-.7v.9l-.7,2.8s-.8,0-.9-.4,0-2.1,0-2.1l-.8-1.2.3,1.3-.3,2.4c-.4,0-.8-.3-.9-.7v-1.8l-.9-1.5-1.2.2h.1Z"/>
    <path class="st21" d="M308.8,206.3c.2-.3.4-.9.8-1,.3,0,.8,0,1,.3.2.2.4.6.4,1v.4c-.1.2-.4.1-.7,0-.6-.1-1.1-.4-1.7-.8"/>
    <path class="st36" d="M311,206.7s-.1-.3-.3-.7c0,0,0-.2-.1-.2,0,0,0-.1-.1-.2v-.2q-.1,0,.1,0s.1,0,.2.1c0,0,.1.2.2.3,0,.2.1.3.2.6v.2h-.2Z"/>
    <path class="st36" d="M312.8,205.6s-.2-.4-.4-.9-.8-.4-.7-.6.1,0,.3,0,.2,0,.3.1c.1,0,.2.2.2.3.2.3.2.7.2,1Z"/>
    <path class="st36" d="M315,206s-.3-.3-.8-.8-.8-.8-.8-.8c0,0,.6.2.9.7.2.2.4.6.6,1h.1Z"/>
  </g>
  <g id="freepik--Arrow--inject-2">
    <path class="st0" d="M489.3,250.8l-2.2,31.5-2.2,31.5-9.7-13.6-51.9,49-80-.2-99.6,62.8H86.7l-13.9,22.8-5.2,8.4c-24.2-.8-41.8-1.7-50.5-2.7l1.9-3.1,45.9-75.9h178.6l99.7-65.1,64.5.4,38.7-36.6-10.2-14.2,26.5,2.2,26.4,2.5h.1Z"/>
  </g>
  <g id="freepik--character-3--inject-214">
    <path class="st12" d="M417,210.3s.4-3.9,0-4.7-1.7,2.9-1.7,2.9l1.7,2h0Z"/>
    <path class="st5" d="M373.1,184.4s-4.9-3.9-.4-7.1,14.6,1.7,17.7,4.7c3.1,3.1.4,5.7.4,5.7l-17.7-3.4Z"/>
    <polygon class="st24" points="361.6 325.2 361.1 334.3 364.8 334.6 367.5 325.7 361.6 325.2"/>
    <path class="st5" d="M363.9,333.6c.3-.4.9-.6,1.3-.4.8.2,1.7,1.4,1.7,1.4,0,0,4.1,1.3,5.2,1.3s1.8.8,1.9,2.8h-13.7s0-4.7.4-5.6c.4-.7,1.2.2,1.2.2l2,.2h0Z"/>
    <path class="st8" d="M373.8,338.2h-12.8v-.2h.7c.4-1.1,0-2.3-1.1-2.8h0q0-.1.1-.1c1.1.6,1.7,1.9,1.2,3h11.9v.2h0Z"/>
    <path class="st8" d="M366.5,335.5c.3-.6,1.1-.8,1.8-.4h.1s.2,0,0-.2c-.7-.6-1.5-.3-2.1.3h0c0,.1,0,.3.2.1v.2Z"/>
    <path class="st8" d="M367.7,335.8c.3-.6,1.2-.8,1.8-.4h.1s.2,0,0-.2c-.7-.4-1.5-.3-2.1.3h0c0,.1,0,.3.2.1h0v.2Z"/>
    <path class="st8" d="M368.9,336.2c.3-.6,1.1-.8,1.8-.4h.1s.2,0,0-.2c-.7-.6-1.5-.3-2.1.3h0c0,.1,0,.3.2.1v.2Z"/>
    <polygon class="st24" points="391 325.2 391.6 334.3 395.4 334.6 396.9 325.7 391 325.2"/>
    <path class="st5" d="M394.5,333.6c.3-.4.9-.6,1.3-.4.8.2,1.7,1.4,1.7,1.4,0,0,4.1,1.3,5.2,1.3s2.1.7,2.4,2.8h-13.3s-.6-4.7-.6-5.6,1.2.2,1.2.2l2,.2h0Z"/>
    <path class="st8" d="M404.8,338.2h-12.8v-.2h.7c.4-1.1,0-2.3-1.1-2.8h0q0-.1.1-.1c1.1.6,1.7,1.9,1.2,3h11.9v.2h0Z"/>
    <path class="st8" d="M397.1,335.5c.3-.6,1.2-.8,1.8-.4h.1s.2,0,0-.2c-.7-.6-1.5-.3-2.1.3h0c0,.1,0,.3.2.1v.2Z"/>
    <path class="st8" d="M398.2,335.8c.3-.6,1.2-.8,1.8-.4h.1s.2,0,0-.2c-.7-.4-1.5-.3-2.1.3h0c0,.1,0,.3.2.1h0v.2Z"/>
    <path class="st8" d="M399.4,336.2c.3-.7,1.2-.8,1.8-.4h.1s.2,0,0-.2c-.7-.4-1.5-.3-2.1.3h0c0,.1,0,.3.2.1v.2Z"/>
    <path class="st0" d="M400.1,228s2.2,32.8,2.1,46.2c-.1,13.9-4.6,54.2-4.6,54.2h-7.4s-1.3-39.7-2-53.3c-.8-14.8-5.2-47.1-5.2-47.1h17.2-.1Z"/>
    <path class="st10" d="M402.2,274.2c-.1,13.9-4.6,54.2-4.6,54.2h-7.4s-1.3-39.7-2-53.3c-.2-4.4-.8-10.4-1.4-16.6-.6-5.4-1.2-11-1.9-16-1-8.3-1.9-14.6-1.9-14.6h17.2s2.2,32.8,2.1,46.2h-.1Z"/>
    <path class="st6" d="M386.6,258.6c-.6-5.4-1.2-11-1.9-16l.9-5.2s2.9,8.1,1,21.2h0Z"/>
    <path class="st5" d="M389.5,326.2v2.4h8.5l.2-2.4h-8.8.1Z"/>
    <path class="st0" d="M387.4,228s-2.3,33.5-4.6,45.9c-2.7,13.7-14.7,54.5-14.7,54.5h-8.1s5.2-39.4,6.5-53c1.4-14.7,3.9-44.7,3.9-44.7l17-2.5h0Z"/>
    <path class="st10" d="M387.4,228s-2.3,33.5-4.6,45.9c-2.7,13.7-14.7,54.5-14.7,54.5h-8.1s5.2-39.4,6.5-53c1.4-14.7,3.9-44.7,3.9-44.7l17-2.5h0Z"/>
    <path class="st5" d="M362,326.5h0c0-.4,5.7-35.7,7-47.9,1.3-13.3,4.1-42.6,4.1-42.9h0c0,.3-2.8,29.6-4.1,42.9-1.2,12.1-7,47.5-7,47.9h0Z"/>
    <path class="st5" d="M359.6,326.1c0,.8-.2,2.4-.2,2.4h9.4l.6-2.4h-9.7Z"/>
    <path class="st5" d="M416.3,212.2c-.1,2.2-.3,4.3-.8,6.5s-.4,2.2-.8,3.3c-.2.7-.4,1.3-.7,1.9-.1.4-.3.8-.6,1.1-.3.6-.8,1.1-1.2,1.5-1.2,1.1-3,1.5-4.5,1.3-.2,0-.6-.1-.8-.2-.2,0-.4-.2-.7-.3-.2,0-.3-.2-.6-.3-.2-.1-.3-.3-.4-.3l-.2-.2h-.1v-.2l-.3-.3c-.6-.7-.9-1.1-1.2-1.5v-.2c-.9-1-1.4-1.9-2.1-2.8l-.3-.6c-1.1-1.7-2.1-3.2-3.1-4.9-1.1-1.8-2.1-3.6-3.1-5.4s-2-3.6-3-5.4c-2-3.6-3.8-7.3-5.4-11.2l10.3-7.1c1.9,3.6,4.4,9.2,6.1,12.8.9,1.9,1.7,3.8,2.5,5.5l2.4,5.5c.4,1.1,1,2.3,1.5,3.4.4-1.1.9-2.3,1.4-3.4l5.9,1.2-.3.2Z"/>
    <path class="st18" d="M403,224.4v-.2c-.9-1-1.4-1.9-2.1-2.8l-.3-.6-1.1-21.2s2.8,16.9,3.5,24.6h0Z"/>
    <path class="st0" d="M406,214v-4.3c0-.9.6-1.5,1.3-1.9l8.4-2.5c.3-.1.7,0,.8.3v4.5c0,.9-.6,1.5-1.3,1.9l-8.5,2.5c-.3.1-.7,0-.8-.3v-.2h.1Z"/>
    <g class="st19">
      <path class="st5" d="M406,214v-4.3c0-.9.6-1.5,1.3-1.9l8.4-2.5c.3-.1.7,0,.8.3v4.5c0,.9-.6,1.5-1.3,1.9l-8.5,2.5c-.3.1-.7,0-.8-.3v-.2h.1Z"/>
    </g>
    <path class="st0" d="M406.1,214.5v-4.3c0-.9.6-1.5,1.3-1.9l8.4-2.5c.3-.1.7,0,.8.3v4.5c0,.9-.6,1.5-1.3,1.9l-8.5,2.5c-.3.1-.7,0-.8-.3v-.2h.1Z"/>
    <g class="st19">
      <path class="st5" d="M411.8,211.1c-.6.2-1,0-1-.4s.4-1,1-1.2,1,0,1,.4-.4,1-1,1.2Z"/>
    </g>
    <path class="st0" d="M415.4,207.6c-.2,0-.4,0-.6-.2,0-.2.2-.6.4-.6s.4,0,.6.2c0,.2-.2.6-.4.6Z"/>
    <g class="st22">
      <path class="st5" d="M415.4,207.6c-.2,0-.4,0-.6-.2,0-.2.2-.6.4-.6s.4,0,.6.2c0,.2-.2.6-.4.6Z"/>
    </g>
    <path class="st5" d="M400.2,236.2c-9.8,2.2-20.1,2.2-30.7.3-1.3-.2-2.2-1.4-2.1-2.8,0-1.1.2-2.3.3-3.9l.2-2.8c.3-4.5.8-10.4,1-16.8v-8c0-4.3-.4-8.6-1-12.8-.4-2.8,1.4-5.4,4.2-5.9h0c1.3-.2,2.8-.3,4.2-.4,4-.2,7.8-.2,11.8,0,1.2.1,2.5.3,3.8.6,2,.4,4.1,2,5,3.9,4.1,9.4,4,30.7,4.3,45.1,0,1.2.2,3-.9,3.3h-.1Z"/>
    <path class="st18" d="M374.2,197.3c-1.4,4.3-3.1,8.4-5.3,11.7v-6.6l5.3-5.1h0Z"/>
    <ellipse class="st5" cx="393.3" cy="174.5" rx="4.3" ry="4" transform="translate(180.6 548.5) rotate(-84.3)"/>
    <g class="st20">
      <ellipse class="st8" cx="393.3" cy="174.5" rx="4.3" ry="4" transform="translate(180.6 548.5) rotate(-84.3)"/>
    </g>
    <path class="st5" d="M383.8,165.4s1.2-3.5,2.3-3.2.4,1.5.4,1.5c0,0,1.8-2.4,2.9-2.3s.8,1.5.8,1.5c0,0,2.4-1.1,3.2-.4s-.4,1.4-.4,1.4c0,0,3.3-.6,3.9.2s-1.3,1.1-1.3,1.1c0,0,2.8.3,2.8,1.9s-.4,1.2-1.1,1.2h-.3s1.9,1.7,1.4,2.7-1.7.3-1.7.3c0,0,.1,2.2-1.2,1.8-.9-.3-1.5-.9-2.1-1.5l-9.5-6.2Z"/>
    <path class="st5" d="M390.9,164.9c-2-.9-4.3-.8-6.2,0-1.3.6-2.4,1.5-2.4,3.1,0,3.1.2,6.3.6,9.4l12-4.7s1-3.2-.2-5.2c-.7-1.1-2.3-2-3.8-2.5h0Z"/>
    <path class="st12" d="M387.8,182h0l-.8,2c0,.4-.2.8-.2,1.2v1c.3,1,.3,2.1-1.2,1.8-2-.3-5.1-3.8-5.1-4.5,1.3-2.5,2.5-5.5,2.9-8.1l1.9,2.8,2.7,4h-.1Z"/>
    <g class="st20">
      <path d="M387.7,182.1l-.8,1.9c-1.1-.8-2.2-2.1-2.3-3.5,0-1,.6-1.8.9-1.8l2.2,3.3h0Z"/>
    </g>
    <path class="st12" d="M393.3,178.7c-.2.4-.3.8-.6,1.2-1.8,3.5-6.4,3.1-8.8,0h0c-.2-.3-.4-.6-.6-.9-1.4-2.7-.7-4.4.2-8.5.7-3.1,3.6-5.1,6.7-4.4.9.2,1.7.6,2.4,1.1,3.1,2.5,2.4,7.4.6,11.5h0Z"/>
    <path class="st5" d="M390.6,178.9h.2s0-.1-.1-.1h0c-1,0-1.8-.9-1.7-1.9h0c0-.1-.1-.1-.1,0h0c-.1,1.1.7,2.1,1.9,2.2l-.2-.2Z"/>
    <path class="st5" d="M383.5,170.8s1.2.2,1.1,1.3-.2,1.2-.2,1.2l1.4.6s.2-4.1,1.3-3.9.2-1.8.9-2c1.7-.4,5.7.2,7,3,0-1.5-.7-3.1-1.8-4.2-1.8-1.7-5.6-2.5-7.6-.8s-2.1,4.9-2.1,4.9h0Z"/>
    <path class="st12" d="M381.1,172.6c0,1.1.4,2.1,1.2,2.8,1,1,2.2.2,2.4-1,.2-1.2,0-3.1-1.2-3.5-.9-.3-2,.1-2.3,1.1,0,.2-.1.4,0,.8"/>
    <path class="st5" d="M389.3,173.7c0,.3,0,.7.2.7s.4-.1.6-.4,0-.7-.2-.7-.4.1-.6.4"/>
    <path class="st5" d="M393,174.7c0,.3,0,.7.2.7s.4-.1.6-.4,0-.7-.2-.7-.4.1-.6.4"/>
    <path class="st5" d="M394.3,174h-.1c0-.3-.2-.6-.3-.7-.2,0-.4-.1-.7,0h-.2v-.2h0c.3,0,.7,0,.9.1.3.2.4.4.6.8,0,0,0,.2-.1.2h0v-.2Z"/>
    <path class="st5" d="M388.7,172.6h0v-.2c.2-.2.6-.3.9-.4.3,0,.7.1.9.3v.2h-.2c-.1-.2-.3-.2-.7-.3-.2,0-.4.1-.7.3h-.2,0Z"/>
    <path class="st1" d="M391.4,174.3c.1,1,.4,2,.9,3,0,.1-1.4.1-1.4.1l.7-3.1h-.1Z"/>
    <path class="st8" d="M382.2,187.6c.6,7.1.9,14.1.9,21.3s0,3.5-.1,5.4c0,.2.3.2.3,0,.4-7.1,0-14.2-.4-21.3,0-1.8-.2-3.5-.3-5.4,0-.2-.3-.2-.3,0h0Z"/>
    <path class="st8" d="M388.5,187.6c.8,7.1,1.4,14.1,1.7,21.2v5.4c0,.2.3.2.3,0,.1-7.1-.6-14.2-1.2-21.2-.2-1.8-.3-3.5-.6-5.4,0-.2-.3-.2-.3,0h.1Z"/>
    <path class="st0" d="M385.1,169.8s8.9,1.9,10.3,3.3c.9.9,0,3.1-.6,4-.3.6-2.3.6-2.8-.4s-.3-.9-.9-1.1-1,.3-1.8.4-2.7-.6-3.1-1.7,0-1.5-.9-1.8l-1.4-.3c-.6-.1-.9-.7-.8-1.2h0c.1-.6.4-1.1,1-1.2h.9Z"/>
    <g class="st19">
      <path d="M387.7,172.5h0c.1-.3.5-.5.8-.4l5.9,1.9c.3.1.5.5.4.8h0c-.1.3-.5.5-.8.4l-5.9-1.9c-.3-.1-.5-.5-.4-.8Z"/>
    </g>
    <path class="st5" d="M378.9,171.2c0,2.2,1.8,4,3.9,4s4-1.8,4-3.9-1.5-3.8-3.5-4c-2.3-.1-4.2,1.7-4.4,3.9h.1Z"/>
    <g class="st20">
      <path class="st8" d="M378.9,171.2c0,2.2,1.8,4,3.9,4s4-1.8,4-3.9-1.5-3.8-3.5-4c-2.3-.1-4.2,1.7-4.4,3.9h.1Z"/>
    </g>
    <g class="st20">
      <path class="st8" d="M379.2,171c0,1.4,1.1,2.8,2.7,2.8s2.8-1.1,2.8-2.7-1-2.5-2.4-2.8c-1.5,0-2.9,1.1-3,2.7h0Z"/>
    </g>
    <path class="st8" d="M383.9,167.8h-.4c0-.1,1.1-4.2,6.6-5.1v.4c-5.2.9-6.3,4.6-6.3,4.6h.1Z"/>
    <path class="st12" d="M416.8,213.6c-.2.2-.6.3-.9.3-1.2.2-4.9.8-5.2,0-.3-.8,1.1-1.2,1.1-1.2-1.1-.3-1.8-1.4-1.7-2.7.2-1.9,5.1-2.9,6.6-2.5.4,0,1.2,4.1,0,5.9v.2Z"/>
    <path class="st5" d="M366.2,217.8c3.1,2.1,7,4,10.6,5.6l-1.3,5.2c-2.2-.3-4.5-.7-6.6-1.3-2.3-.6-4.5-1.3-6.6-2.3-1.2-.6-2.3-1.2-3.4-1.9-.7-.4-1.2-.9-1.8-1.4s-1.3-1.4-1.8-2.3c-.1-.2-.2-.6-.3-.8v-.2h-.1c0-.3-.1-.6-.2-.8-.1-.7-.2-1.3-.2-2s.1-1.8.3-2.5c.3-1.3.7-2.5,1.1-3.8.8-2.2,1.8-4.3,2.8-6.4,1-2,2.1-4,3.2-5.9,2.2-3.9,4.5-7.5,7.1-11.2l8.9,6.1c-2.2,3.4-4.5,7.1-6.7,10.6s-2.2,3.5-3.2,5.3c-1,1.8-2,3.5-2.8,5.2-.3.8-.7,1.5-1,2.3,0,.2,0,.3-.1.4.1.1.2.3.4.4.7.6,1.3,1.1,2,1.5h-.2Z"/>
    <path class="st12" d="M375.5,223l-1.4,5.6,3.8,1.5s2.4-3.4,2.4-4.6-4.9-2.4-4.9-2.4h.1Z"/>
    <path class="st5" d="M376.3,220s.7,7-1.8,9.7c0,0,12.8,4.2,22.3,0,0,0,1.7-5.4,0-9.7-6.8,1.1-13.8,1.1-20.7,0h.1Z"/>
    <path class="st15" d="M376.3,220s.7,7-1.8,9.7c0,0,12.8,4.2,22.3,0,0,0,1.7-5.4,0-9.7-6.8,1.1-13.8,1.1-20.7,0h.1Z"/>
  </g>
  <g>
    <path class="st35" d="M123.7,406.5c4.5-2.7,9.1-5.3,13.6-7.8,12.4-7.2,27.6-13.6,38.3-23.5-.6-1-1.1-2.1-1.7-3.1-3.5-6.6-6.5-14.5-6.1-20.7-21.5,11.7-43.3,24-63.4,37.7-2,1.4-4.1,2.8-6.1,4.2,4,.4,14.5,6.6,25.3,13.4h0Z"/>
    <path class="st28" d="M150.3,423.2c12.3-10.6,24.9-20.8,37.8-30.5-3-3.3-5.7-6.8-8.2-10.5-1.2-1.9-2.8-4.3-4.2-7-10.7,9.9-26,16.3-38.3,23.5-4.5,2.7-9.1,5.3-13.6,7.8,10.4,6.5,21.1,13.5,26.6,16.7h-.1Z"/>
    <path class="st16" d="M195.5,400c-2.7-2.3-5.1-4.7-7.4-7.3-12.9,9.7-25.5,19.9-37.8,30.5,1,.6,1.9,1.1,2.5,1.3,8.2,3.8,17.7,2.5,26.4,2.7h.4c5.6-5.9,11-11.7,16.3-17.9,1.2-1.4,2.4-2.9,3.6-4.3.2-.3.6-.6.8-.9-1.7-1.3-3.3-2.8-4.9-4,0,0-.1-.1-.2-.2h.1Z"/>
    <path class="st16" d="M341.2,332.2c9.9-1.9,20.2-2.4,29.5-6.3,5-2.1,8.2-6.3,10.9-10.8-.6-.6-1.1-1.1-1-1.7,0-1.1,2.1-2.9,2.8-3.6,2-2.5,7.8-10.5,10.2-12.8,3.3-3.1,7-6.2,10.9-8.8-6.8,2.2-13.8,5.5-19.1,10.1-4,3.3-7.1,7.2-10.3,11-2,2.4-4.1,4.7-6.3,7.1-4.2,4.3-9.8,7.1-15.4,9.6-7,3.1-14,6-21.2,8.5h.6c2.8-.9,5.7-1.7,8.5-2.1h-.1Z"/>
    <path class="st28" d="M392.9,323.9c0-.2.3-.4.7-.7-2-1.2-3.9-2.4-5.7-3.6-1.4-1-3-2-4.4-3.1-.4-.3-1.2-.9-1.9-1.4-2.9,4.6-6,8.8-10.9,10.8-9.3,3.9-19.6,4.4-29.5,6.3-2.9.6-5.7,1.2-8.5,2.1h.7c2.7.3,5.2,1.8,7.5,3.2,2.5-.6,5.2-.9,7.8-1.2,10.1-1,20.3-.8,29.9-3.9,5.2-1.7,9.8-4.4,14.5-7.2,0-.8-.1-1.3,0-1.4h-.1Z"/>
    <path class="st23" d="M383.3,309.8c-.7.8-2.7,2.7-2.8,3.6,0,.6.4,1.1,1,1.7.7.6,1.4,1.1,1.9,1.4,1.4,1,2.9,2.1,4.4,3.1,1.9,1.3,3.9,2.4,5.7,3.6,3.1-2.2,15.1-7,19.2-8.5.2,0,.6-.2.8-.3,3.5-4.4,7.1-9.1,8.1-10.3,2.3-3,4.5-6.2,6.5-9.5,1-1.8,2.4-4,2.7-6.3,0-.6,0-1.1-.1-1.5v-.4c-.4-1.3-1.7-2.2-2.9-3-2.4-1.4-5.2-2-8-1.8-1.1,0-2.2.3-3.3.7-4.2,1.2-8.2,3.2-11.9,5.7-4,2.7-7.7,5.7-10.9,8.8-2.3,2.2-8.2,10.3-10.2,12.8h-.2Z"/>
    <path class="st16" d="M398.4,348.2c-.8-.8-2-5.2-3.1-10.2-.3-1.4-.7-2.9-.9-4.3-.9,7.4-9.1,11.3-15.7,13.3-4,1.2-8.8,2.9-12.9,2.3-5.9-.9-11.9-3-17.7-5,.8,1.2,1.5,2.3,2.3,3.5,1,1.5,1.8,3.1,2.5,4.7.2.1.4.2.7.3,1.4.8,2.5,2.1,2.9,3.6.9,4.4-.4,8.9-3.2,12.8,1.9-.6,3.8-1.2,5.5-1.9-.4-1.4,0-3.1.8-4.3,1-1.7,2.7-2.8,4.3-3.9,3.3-2.2,6.5-4.4,9.8-6.6,4-2.7,8.2-5.5,12.9-6.2,2.4-.3,5.2,0,7.4,1.1s3.8,2.3,4.5,3.8c1-.6,2-1,2.9-1.5-1-.1-2-.7-3.1-1.8h0Z"/>
    <path class="st35" d="M277.7,342.1c1.4.1,2.9,0,4.6-.9,2.8-1.3,5.1-3.5,8-4.6,3.9-1.5,8.3-1,12.5-.4,4.7.7,9.5,1.3,14.4,1.9,4.2.6,8.6.7,12.5,2.5,4.6,2.1,9.3,4.3,13.9,6.4,2.7,1.2,5.3,2.4,7.6,4.3l.8.8c.4.2.8.3,1.2.6-.8-1.7-1.5-3.2-2.5-4.7-.7-1.2-1.4-2.4-2.3-3.5,5.7,2,11.8,4.1,17.7,5,4.1.7,8.9-1.1,12.9-2.3,6.7-2,14.9-5.9,15.7-13.3-.7-3.4-1.2-6.6-1.4-8.4-4.6,2.8-9.3,5.5-14.5,7.2-9.6,3.1-19.9,2.8-29.9,3.9-2.5.2-5.2.7-7.8,1.2-2.3-1.4-5-2.9-7.5-3.2h-1.2c-2.2-.1-4.5,0-6.8.2-6,.4-11.9.2-17.9-.4-2.9-.3-5.9-1.3-8.7-1.4-2.4,0-5,.6-7.5.3-4.2-.2-8.3-.7-12.5-1.3-.2,3.5-.6,7-1.2,10.4h.2Z"/>
    <path class="st16" d="M329.8,343.7c7.6,2.1,15,5,22,8.4-.2-.2-.4-.6-.8-.8-2.2-1.9-5-3.1-7.6-4.3-4.6-2.1-9.3-4.3-13.9-6.4-3.9-1.8-8.3-1.9-12.5-2.5-4.7-.7-9.5-1.3-14.4-1.9-4.2-.6-8.6-1.1-12.5.4-2.9,1.1-5.2,3.3-8,4.6-1.7.9-3.1,1-4.6.9-1.1,5.4-3.1,10.5-7.1,15.2-2.2,2.5-4.9,4.7-7.7,6.6,3.6-2,7.1-4.4,10.2-7.1,4.3-3.5,7.8-8.3,12.4-11.4,1.3-.9,2.8-1.7,4.3-2.3,4.5-1.9,9.7-2.5,14.7-2.8,7.2-.3,14.5.6,21.8,2.2,1.2.3,2.5.6,3.8.9h0Z"/>
    <path class="st13" d="M174,372.1c4.2,1.4,9.3-.3,12.3-3.8,1.2-1.4,2.4-3.3,3.3-5,1-2.1,0-4.2-.3-6.4-.4-2.7-.7-5.2-.8-7.8-.2-3.4,0-7,.2-10.4-.1-2.2-.1-4.4,0-6.6-4.5,3.3-9.1,6.7-13.8,9.7-2.5,1.7-5.3,3.4-6.3,6.3-.3,1-.6,2.2-.7,3.3-.4,6.2,2.7,14,6.1,20.7h0Z"/>
    <path class="st13" d="M393.7,323.3c-.3.2-.7.4-.7.7v1.4c.2,1.8.8,5,1.4,8.4.3,1.4.6,2.9.9,4.3.9-.7,1.9-1.2,2.9-1.7,10.3-5,20.9-9.4,31.6-13.4,7.1-2.7,14.1-5.4,21.3-7.6-.2-.8-.7-1.7-1.2-2.3-.2-.3-.6-.6-.9-.9-5.9-4.9-14.6-3.9-21.4-2.3-4.7,1.1-9.4,2.7-14,4.4-.2,0-.6.2-.8.3-4.1,1.5-16.1,6.3-19.2,8.5h.1Z"/>
    <path class="st23" d="M394.1,347.7c-2.2-1.1-5-1.4-7.4-1.1-4.7.7-8.9,3.4-12.9,6.2-3.3,2.2-6.5,4.4-9.8,6.6s-3.2,2.2-4.3,3.9c-.8,1.2-1.1,2.9-.8,4.3.1.4.3.8.6,1.1,7.7-2.7,15.5-5.5,23.1-8.6,5.2-2.1,10.3-4.3,15.2-6.8.4-.2.9-.4,1-.9,0-.2,0-.6-.2-1-.8-1.4-3.6-3.3-4.5-3.8h.1Z"/>
    <path class="st13" d="M180.5,426.6c-5-.3-9.1-.3-11.7-.3-6.8,0-11.4.4-16.6-2.1-.8-.3-1.3-.8-1.8-1-5.5-3.2-16.2-10.2-26.6-16.7-10.8-6.7-21.3-12.8-25.3-13.4h-.7c-1.2,0-3.2.8-5.7,2-.4.2-.8.3-.8.4-2.3,1.2-14,20.5-29,47.5,5.6.1,13.4.3,22.5.4,11.7.2,25.6.6,43.7.8,14.4.2,25.7.3,33.2.4h8.8c0-.2,0-.4.1-.8.4-1.2,5.9-8.8,7.1-11,1.3-2.4,2.1-4.6,2.5-6.4h.1Z"/>
    <path class="st23" d="M249.2,392.9c5.7-.4,11.6-1,17.3-1.3,4.4-.2,7.2.3,11.3-1.7,6.6-3.3,13.4-6.2,20.2-8.7,6.2-2.3,13-3.5,19.7-4.3,5.4-.7,10.5.1,15.8-.2,4.4-.2,8.9-1.2,12.8-3.4,4.1-2.3,5.2-5.1,6.4-9.5.7-2.3.7-5-.8-7-1-1.2-2.4-2-3.9-2.7-4-1.9-7.5-3.2-11.2-5.7-2.3-1.7-4.6-3.3-6.8-5-1.2-.3-2.5-.7-3.8-.9-.6,4-.1,8.5-2.5,12-4.3,6.1-11.5,9.3-18.6,11.3-7.2,2-14.6,2.9-21.4,5.6-7.6,3-14.2,8-21.6,11.4-7.4,3.4-16.3,5.2-23.6,1.4-7.2-3.8-10.7-9.6-14.7-16.2-2.5-4.2-6.5-8.2-11.5-8-1.9,0-3.8.9-5.6,1.2-3.9.7-8.8-.8-11.8-3.6,1.2,3,2.7,6,4.3,8.7,4.2,7.3,9.7,13.8,15.9,19.4,2.1,2,4.4,3.8,6.6,5.5.7.4,1.1.7,1.3.8,7.5,3.8,18.6,1.1,26.5.6l-.3.2Z"/>
    <path class="st23" d="M188.1,392.7c2.3,2.5,4.7,5.1,7.4,7.3.3.1.7.3,1,.4,4,1.1,8.2-.3,11.5-2.8,3.2-2.4,5.6-5.6,8-8.8-.7-.6-1.4-1.1-2.1-1.8-6.5-5.6-12.1-12.1-16.5-19.6s-7.3-15.7-8.4-24.2c-.2-1.5-.3-3.1-.4-4.6-.3,3.4-.3,7-.2,10.4.1,2.7.4,5.2.8,7.8.3,2.1,1.3,4.3.3,6.4-.8,1.8-2,3.5-3.3,5-3,3.4-8.1,5.2-12.3,3.8.6,1.1,1.1,2.1,1.7,3.1,1.5,2.7,3,5.1,4.2,7,2.4,3.8,5.2,7.3,8.2,10.5h.2Z"/>
    <path class="st2" d="M216,388.7c-2.3,3.2-4.7,6.5-8,8.8-3.3,2.4-7.5,3.9-11.5,2.8-.3,0-.7-.2-1-.4,0,0,.1.1.2.2,1.5,1.3,3.2,2.8,4.9,4,1.7,1.3,3.4,2.5,5.3,3.3,4.6,2.3,6.1.6,10.3-2.3,4.4-3,9.2-5.6,14.2-6.7-5.1-2.8-9.9-6.1-14.5-9.7h0Z"/>
    <path class="st2" d="M356.5,356.6c-.3-1.5-1.4-2.9-2.9-3.6-.2-.1-.4-.2-.7-.3-.4-.2-.8-.4-1.2-.6-6.8-3.4-14.4-6.3-22-8.4,2.2,1.8,4.5,3.4,6.8,5,3.6,2.5,7.2,3.9,11.2,5.7,1.4.7,2.9,1.3,3.9,2.7,1.4,1.9,1.4,4.6.8,7-1.2,4.5-2.2,7.2-6.4,9.5-3.9,2.2-8.4,3.1-12.8,3.4-5.3.3-10.3-.4-15.8.2-6.6.8-13.4,2-19.7,4.3-6.8,2.5-13.6,5.5-20.2,8.7-4.1,2-6.8,1.4-11.3,1.7-5.7.2-11.6.9-17.3,1.3-8,.6-19,3.3-26.5-.6-.2,0-.7-.4-1.3-.8,3.1,2.4,6.3,4.6,9.6,6.7,1.5-.3,3.1-.4,4.6-.4,8.2.1,16.1,2.4,24.4,1.7,19-1.7,36.1-12.1,54.9-15.8,9.6-1.9,19.8-1.9,28.6-6.1,3.8-1.8,7.3-4.7,9.7-8.3,2.7-3.9,4.1-8.4,3.2-12.8l.3-.2Z"/>
    <path class="st35" d="M188.7,338.6c0,1.5.2,3.1.4,4.6,1.1,8.5,4.1,16.8,8.4,24.2,4.4,7.4,10.1,14,16.5,19.6.7.6,1.4,1.1,2.1,1.8,4.5,3.6,9.4,7,14.5,9.7h.6c-3.3-2.1-6.5-4.3-9.6-6.7-2.3-1.8-4.5-3.6-6.6-5.5-6.2-5.7-11.7-12.1-15.9-19.4-1.7-2.8-3-5.7-4.3-8.7-2-4.7-3.4-9.7-4.3-14.9-.7-3.9-.9-7.7-.8-11.7-.3.2-.6.4-.9.6-.1,2.2-.1,4.4,0,6.6h0Z"/>
    <path class="st2" d="M285.4,345.6c-4.6,3.1-8.2,7.8-12.4,11.4-3.2,2.7-6.5,5.2-10.2,7.1-1.5.8-3.2,1.5-4.9,2.1-11.2,3.8-24.3.4-32.3-8.2-4.3-4.6-6.8-10.6-7.7-16.8,0-.8-.2-1.5-.2-2.3-.1,1.7-.1,3.3,0,5.1.2,6.6,2.1,13.5,6.2,18.7,4.5,5.6,11.4,9.1,18.6,10.3,4.2.7,8.6.8,12.9,0,4.6-.8,7.3-2.7,10.8-5.3,5.9-4.4,11-9.8,15.2-15.8,2.3-3.2,5.2-6.1,8.4-8.6-1.5.7-3,1.3-4.3,2.3h-.2Z"/>
    <path class="st13" d="M304.3,340.5c-5,.2-10.1.9-14.7,2.8-3.2,2.5-6.1,5.3-8.4,8.6-4.3,6-9.4,11.3-15.2,15.8-3.5,2.8-6.2,4.5-10.8,5.3-4.2.8-8.6.7-12.9,0-7.1-1.2-14-4.6-18.6-10.3-4.2-5.2-6-12-6.2-18.7v-5.1c0-1.8,0-3.3.2-5,.3-1.9.8-3.8,1.3-5.6,0-.2.1-.4.2-.7.2-.8.4-1.4.8-2.2.2-.6.3-1,.6-1.5.1-.4.3-.9.3-1.3s0-.6-.1-.9c-.3-.8-1.2-1.1-2.1-1.3-5.5-1.3-10.2,0-14.7,2.1-2,1-4,2.1-6,3.2-3,1.8-5.9,3.6-8.7,5.6-.1,3.9.1,7.8.8,11.7.9,5.1,2.3,10.1,4.3,14.9,3,2.9,8,4.3,11.8,3.6,1.9-.3,3.6-1.1,5.6-1.2,4.9-.2,8.8,3.8,11.5,8,4.1,6.6,7.6,12.5,14.7,16.2,7.3,3.8,16.2,2,23.6-1.4,7.4-3.4,14-8.4,21.6-11.4,6.8-2.7,14.4-3.6,21.4-5.6,7.2-2,14.4-5.3,18.6-11.3,2.4-3.5,2-8.1,2.5-12-7.3-1.7-14.6-2.5-21.8-2.2h.2Z"/>
    <path class="st23" d="M102.4,405.1c-2.3-1.3-9.3-4.9-9.3-4.9,0,0,20,17,32.4,21.6,2.4.9,7.4,2.5,7.4,2.5,0,0-20.2-13.3-30.5-19.3Z"/>
    <path class="st17" d="M352.8,325.1c-.2-.4-.4-.8-.7-1.1-2.2-3.3-5.4-5.9-9.2-7.2-4.7-1.5-9.9-2.3-15-1.8-4.5.6-10.7,2.5-14.7,4.9-1.4.9-2.5,2.2-3.4,3.8-.1.2-.3.6-.4.8-1.7-1-3.4-1.9-5.3-2.7-2.3-1-4.5-1.7-6.7-2.1-.4-.7-.9-1.2-1.4-1.8-4.6-3.9-13.7-3-19.4-3.9-3.9-.7-8.3-.7-11.3,1.9-.3.2-.6.6-.8.9-4.4-.1-8.9-.2-12.9-1.2-1-.2-2.1-.6-3.2-.8-.2-.3-.3-.7-.6-.9-.8-1.2-1.7-2.4-2.7-3.8-.3.2-.8.3-1.2.4-.6.1-1.1.3-1.7.4-.8.2-1.5.4-2.2.7-.2,0-.4.1-.7.2-1.9.7-3.6,1.3-5.4,2.2-1.4.8-2.9,1.5-4.2,2.7-.6.4-1.2,1-1.8,1.5-4.6,4.2-8,9.8-9.3,16-2.4,11.5,2.4,24.2,11.9,31.1,1.4,1,3,2,4.5,2.8,3.2,1.3,6.5,2.2,9.8,2.5,6.2.6,11.6-.7,16.6-3,3.1-1.3,6.1-3.1,9.2-5,1.2-.8,2.4-1.4,3.6-2.2,7.2-4.4,15.1-8.6,23.6-8.4,4.4,0,8.1,2.2,11.5,4.6,0,0,.2,0,.2.2-1.3-2.2-2.2-5-2.9-7.3-.9-3.3-1.3-6.8-1.1-10.4h0v2c0,1,.1,2.1.2,3.1,0,.4.6,2.9,1.2,5.4s1.5,5.2,2.2,6.3c.2.3.4.6.7.4,6.2-1.9,10.9-5.4,16.5-8.5,6.2-3.4,12.4-6.6,18.6-9.9.8-.4,1.7-.9,2.4-1.3,2.3-1.2,4.7-2.7,5.7-5.1.9-2.1.4-4.6-.7-6.6h.2Z"/>
    <g>
      <path class="st13" d="M260.1,322.8h.3c4.9,1.3,8.8,3.8,13.9,4.4,5.2.7,10.5.6,15.7,1.1,2.2.2,4.4.7,6.4,1.7v-.2c.9-3.3,1-8.7-1.1-12-.4-.7-.9-1.2-1.4-1.8-4.6-3.9-13.7-3-19.4-3.9-3.9-.7-8.3-.7-11.3,1.9-.3.2-.6.6-.8.9-1.8,2.1-2.4,5-2.4,7.8h.1Z"/>
      <path class="st13" d="M304.1,342.4c-.1-1-.2-2.1-.2-3.1,1,.6,2.3.8,4,.3,4.5-1.2,9.2-5.6,13.4-7.7,4.9-2.4,9.8-4.5,15-6.3,4.5-1.5,9.2-2.8,13.9-3.6.2.3.4.8.7,1.1,1.1,2,1.5,4.5.7,6.6-1,2.4-3.4,3.8-5.7,5.1-.8.4-1.7.9-2.4,1.3-6.2,3.3-12.4,6.6-18.6,9.9-5.5,3-10.3,6.6-16.5,8.5-.2,0-.4-.1-.7-.4-.7-1.1-1.5-3.8-2.2-6.3-.7-2.5-1.2-5-1.2-5.4h-.1Z"/>
      <path class="st35" d="M305.4,328.9c.7-2.5,1.5-5.2,2.2-6.3-1.8-1-3.5-2-5.4-2.8-2.3-1-4.5-1.7-6.7-2.1,2.1,3.4,2.1,8.7,1.1,12v.2c-1.8,6.1-5.1,11.4-11.6,12.3-3.4.4-7,.2-10.4,0-3.6-.3-7.6-.8-10.3-3.2-3-2.8-3.5-7.2-3.9-11.3-.1-1.5-.2-3.3-.2-5,0-3,.7-5.7,2.4-7.8-4.4-.1-8.9-.2-12.9-1.2-1-.2-2.1-.6-3.2-.8-.2-.3-.3-.7-.6-.9-.8-1.2-1.7-2.4-2.7-3.8-.3.2-.8.3-1.2.4-.6.1-1.1.3-1.7.4l-2.4,2.7c-1.8,2.4-3.4,4.9-4.9,7.5-4.2,8.4-3.4,19.1,1.9,26.8,5.3,7.7,15,12.4,24.4,11.5,9.1-.8,17-6.2,25.8-8.1,4.2-1,8.9-1.2,12.1-4.2,3.5-3.3,4-12.8,8.1-16.6h-.1Z"/>
      <path class="st28" d="M285.2,349.6c-8.8,2-16.8,7.3-25.8,8.1-9.4.9-19.1-3.8-24.4-11.5-5.3-7.7-6.1-18.4-1.9-26.8,1.3-2.7,3.1-5.1,4.9-7.5l2.4-2.7c-.8.2-1.5.4-2.2.7-.2,0-.4.1-.7.2-1.9.7-3.6,1.3-5.4,2.2-1.4.8-2.9,1.5-4.2,2.7-.6.4-1.2,1-1.8,1.5-4.6,4.2-8,9.8-9.3,16-2.4,11.5,2.4,24.2,11.9,31.1,1.4,1,3,2,4.5,2.8,3.2,1.3,6.5,2.2,9.8,2.5,6.2.6,11.6-.7,16.6-3,3.1-1.3,6.1-3.1,9.2-5,1.2-.8,2.4-1.4,3.6-2.2,7.2-4.4,15.1-8.6,23.6-8.4,4.4,0,8.1,2.2,11.5,4.6,0,0,.2,0,.2.2-1.3-2.2-2.2-5-2.9-7.3-.9-3.3-1.3-6.8-1.1-10.4,0-1,.1-2.1.2-3.1,0-.4.6-2.9,1.2-5.4-4.1,3.6-4.5,13.3-8.1,16.6-3.2,3-7.8,3.3-12.1,4.2v-.2Z"/>
      <path class="st23" d="M336.2,325.7c-5.2,1.7-10.2,3.8-15,6.3-4.2,2.1-8.9,6.5-13.4,7.7-1.7.4-3,.2-4-.3-.1-3.5.2-7,1.1-10.4.7-2.3,1.5-5,2.9-7.3.9-1.5,2-2.9,3.4-3.8,4-2.3,10.2-4.3,14.7-4.9,5-.6,10.3.1,15,1.8,3.8,1.3,7,3.8,9.2,7.2-4.6.9-9.3,2.1-13.9,3.6h0Z"/>
      <path class="st23" d="M296.5,330c-2-1.1-4.2-1.4-6.4-1.7-5.2-.6-10.5-.3-15.7-1.1-5.1-.7-9.2-3-13.9-4.4h-.3c0,1.7,0,3.3.2,5,.3,4.1.9,8.5,3.9,11.3,2.7,2.4,6.6,2.9,10.3,3.2,3.4.3,7,.6,10.4,0,6.6-1,9.8-6.2,11.6-12.3h0Z"/>
    </g>
    <path class="st23" d="M429.8,323c-10.7,4-21.3,8.4-31.6,13.4-1,.4-2,1-2.9,1.7,1.1,4.9,2.3,9.4,3.1,10.2,1.1,1.1,2.1,1.5,3.1,1.8,2,.3,3.9-.8,6.1-2.1,3.4-2,29.8-17.9,39.7-23.7,3-1.8,4.7-5.4,3.9-8.6-7.2,2.2-14.4,5.1-21.3,7.6h0Z"/>
  </g>
</svg>