<?xml version="1.0" encoding="UTF-8"?>
<svg id="Layer_1" xmlns="http://www.w3.org/2000/svg" version="1.1" viewBox="0 0 500 500">
  <!-- Generator: Adobe Illustrator 29.1.0, SVG Export Plug-In . SVG Version: 2.1.0 Build 142)  -->
  <defs>
    <style>
      .st0 {
        fill: #004a99;
      }

      .st1 {
        fill: #ba4d3c;
      }

      .st2 {
        fill: #d2dfff;
      }

      .st3 {
        fill: #5d84f0;
      }

      .st4 {
        fill: #eec1bb;
      }

      .st5, .st6 {
        fill: #263238;
      }

      .st7 {
        fill: #31c3ff;
      }

      .st8, .st9, .st10, .st11 {
        fill: #fff;
      }

      .st12 {
        fill: #ce7a63;
      }

      .st13 {
        fill: #f7fef1;
      }

      .st14, .st15 {
        fill: #f0f0f0;
      }

      .st16 {
        fill: #638cfe;
      }

      .st9 {
        opacity: .6;
      }

      .st9, .st15, .st10, .st6, .st17, .st11 {
        isolation: isolate;
      }

      .st15 {
        opacity: .1;
      }

      .st18 {
        opacity: .4;
      }

      .st19, .st6, .st17, .st11 {
        opacity: .2;
      }

      .st20 {
        fill: #ffbe9d;
      }

      .st21 {
        fill: #ebefff;
      }

      .st22 {
        fill: #d5794a;
      }

      .st10, .st23 {
        opacity: .3;
      }

      .st24 {
        fill: #e0e0e0;
      }

      .st25 {
        fill: #d4827d;
      }

      .st26 {
        fill: #996964;
      }

      .st27 {
        fill: #5591fe;
      }

      .st28 {
        fill: #5591ff;
      }

      .st29 {
        fill: #231f20;
        opacity: .3;
      }

      .st30 {
        fill: #455a64;
      }

      .st31 {
        fill: #ebebeb;
      }

      .st32 {
        fill: #f5f5f5;
      }

      .st33 {
        fill: #784d48;
      }

      .st34 {
        fill: #478bff;
      }

      .st35 {
        fill: #eb996e;
      }

      .st36 {
        fill: #f8fff2;
      }

      .st37 {
        opacity: .7;
      }

      .st38 {
        fill: #e6e6e6;
      }
    </style>
  </defs>
  <g class="st37">
    <path class="st14" d="M322.9,309.9s25.6,8.9,15.3,20.6c-10.3,11.7-29.2,20.1-17.6,27.7,11.6,7.5,114.9,3.4,114.9,3.4l-13.2-51.6h-99.4,0Z"/>
    <path class="st14" d="M437.8,410.9c-13.2-17-221.2-21.8-233.4-33.7-12.2-11.9,31.7-41.9,31.5-55.1s-195.4-8.5-195.4-8.5v76.4c2.5,14,13.7,25.7,26.6,32,14.2,6.8,30.4,8.2,46.1,9,15.8.7,31.8.9,46.8,5.7,14.7,4.6,25,13,30.6,27.3l267.2.2c-.3-1.7-6.7-36.4-19.9-53.3h-.1Z"/>
    <g>
      <rect class="st24" x="177.2" y="175.9" width="128.7" height="125.4"/>
      <rect class="st10" x="184.5" y="254" width="115.6" height="44.8"/>
      <rect class="st8" x="185.6" y="254" width="113.7" height="2.6"/>
      <g>
        <rect class="st38" x="312.4" y="189.6" width="131.4" height="124"/>
        <polygon class="st24" points="314.3 189.6 446.3 189.6 439.9 178.1 314.3 178.1 314.3 189.6"/>
        <rect class="st8" x="314.3" y="265.3" width="129.5" height="1.5" rx=".7" ry=".7"/>
        <g>
          <g>
            <rect class="st32" x="415.1" y="201.1" width="10.3" height="20.8"/>
            <path class="st11" d="M415.1,204.5l10.3,8.7v5.2l-10.3-8.1v-5.8h0Z"/>
          </g>
          <g>
            <rect class="st32" x="394.4" y="201.1" width="10.3" height="20.8"/>
            <path class="st11" d="M394.4,204.5l10.3,8.7v5.2l-10.3-8.1v-5.8h0Z"/>
          </g>
          <g>
            <rect class="st32" x="373.7" y="201.1" width="10.3" height="20.8"/>
            <path class="st11" d="M373.7,204.5l10.3,8.7v5.2l-10.3-8.1v-5.8h0Z"/>
          </g>
          <g>
            <rect class="st32" x="353" y="201.1" width="10.3" height="20.8"/>
            <path class="st11" d="M353,204.5l10.3,8.7v5.2l-10.3-8.1v-5.8h0Z"/>
          </g>
          <rect class="st8" x="413.3" y="221.9" width="13.3" height="1.5"/>
          <rect class="st8" x="392.8" y="221.9" width="13.3" height="1.5"/>
          <rect class="st8" x="372.3" y="221.9" width="13.3" height="1.5"/>
          <rect class="st8" x="351.7" y="221.9" width="13.3" height="1.5"/>
          <g>
            <rect class="st32" x="332.7" y="201.1" width="10.3" height="20.8"/>
            <path class="st11" d="M332.7,204.5l10.3,8.7v5.2l-10.3-8.1v-5.8h0Z"/>
          </g>
          <rect class="st8" x="331.4" y="221.9" width="13.3" height="1.5"/>
        </g>
        <g>
          <g>
            <rect class="st32" x="415.1" y="235.3" width="10.3" height="20.8"/>
            <path class="st11" d="M415.1,238.8l10.3,8.7v5.2l-10.3-8.1v-5.8h0Z"/>
          </g>
          <g>
            <rect class="st32" x="394.4" y="235.3" width="10.3" height="20.8"/>
            <path class="st11" d="M394.4,238.8l10.3,8.7v5.2l-10.3-8.1v-5.8h0Z"/>
          </g>
          <g>
            <rect class="st32" x="373.7" y="235.3" width="10.3" height="20.8"/>
            <path class="st11" d="M373.7,238.8l10.3,8.7v5.2l-10.3-8.1v-5.8h0Z"/>
          </g>
          <g>
            <rect class="st32" x="353" y="235.3" width="10.3" height="20.8"/>
            <path class="st11" d="M353,238.8l10.3,8.7v5.2l-10.3-8.1v-5.8h0Z"/>
          </g>
          <rect class="st8" x="413.3" y="256.1" width="13.3" height="1.5"/>
          <rect class="st8" x="392.8" y="256.1" width="13.3" height="1.5"/>
          <rect class="st8" x="372.3" y="256.1" width="13.3" height="1.5"/>
          <rect class="st8" x="351.7" y="256.1" width="13.3" height="1.5"/>
          <g>
            <rect class="st32" x="332.7" y="235.3" width="10.3" height="20.8"/>
            <path class="st11" d="M332.7,238.8l10.3,8.7v5.2l-10.3-8.1v-5.8h0Z"/>
          </g>
          <rect class="st8" x="331.4" y="256.1" width="13.3" height="1.5"/>
        </g>
        <g>
          <g>
            <rect class="st32" x="415.1" y="277.3" width="10.3" height="20.8"/>
            <path class="st11" d="M415.1,280.7l10.3,8.7v5.2l-10.3-8.1v-5.8h0Z"/>
          </g>
          <g>
            <rect class="st32" x="394.4" y="277.3" width="10.3" height="20.8"/>
            <path class="st11" d="M394.4,280.7l10.3,8.7v5.2l-10.3-8.1v-5.8h0Z"/>
          </g>
          <g>
            <rect class="st32" x="373.7" y="277.3" width="10.3" height="20.8"/>
            <path class="st11" d="M373.7,280.7l10.3,8.7v5.2l-10.3-8.1v-5.8h0Z"/>
          </g>
          <g>
            <rect class="st32" x="353" y="277.3" width="10.3" height="20.8"/>
            <path class="st11" d="M353,280.7l10.3,8.7v5.2l-10.3-8.1v-5.8h0Z"/>
          </g>
          <rect class="st8" x="413.3" y="298.1" width="13.3" height="1.5"/>
          <rect class="st8" x="392.8" y="298.1" width="13.3" height="1.5"/>
          <rect class="st8" x="372.3" y="298.1" width="13.3" height="1.5"/>
          <rect class="st8" x="351.7" y="298.1" width="13.3" height="1.5"/>
          <g>
            <rect class="st32" x="332.7" y="277.3" width="10.3" height="20.8"/>
            <path class="st11" d="M332.7,280.7l10.3,8.7v5.2l-10.3-8.1v-5.8h0Z"/>
          </g>
          <rect class="st8" x="331.4" y="298.1" width="13.3" height="1.5"/>
        </g>
      </g>
      <g>
        <rect class="st38" x="40.3" y="189.6" width="131.4" height="124"/>
        <polygon class="st24" points="169.8 189.6 37.7 189.6 44.2 178.1 169.8 178.1 169.8 189.6"/>
        <rect class="st8" x="40.3" y="265.3" width="129.5" height="1.5" rx=".7" ry=".7"/>
        <g>
          <g>
            <rect class="st32" x="58.7" y="201.1" width="10.3" height="20.8"/>
            <path class="st11" d="M69,204.5l-10.3,8.7v5.2l10.3-8.1v-5.8h0Z"/>
          </g>
          <g>
            <rect class="st32" x="79.4" y="201.1" width="10.3" height="20.8"/>
            <path class="st11" d="M89.7,204.5l-10.3,8.7v5.2l10.3-8.1v-5.8h0Z"/>
          </g>
          <g>
            <rect class="st32" x="100.1" y="201.1" width="10.3" height="20.8"/>
            <path class="st11" d="M110.4,204.5l-10.3,8.7v5.2l10.3-8.1v-5.8h0Z"/>
          </g>
          <g>
            <rect class="st32" x="120.8" y="201.1" width="10.3" height="20.8"/>
            <path class="st11" d="M131.1,204.5l-10.3,8.7v5.2l10.3-8.1v-5.8h0Z"/>
          </g>
          <rect class="st8" x="57.5" y="221.9" width="13.3" height="1.5"/>
          <rect class="st8" x="78" y="221.9" width="13.3" height="1.5"/>
          <rect class="st8" x="98.5" y="221.9" width="13.3" height="1.5"/>
          <rect class="st8" x="119" y="221.9" width="13.3" height="1.5"/>
          <g>
            <rect class="st32" x="141.1" y="201.1" width="10.3" height="20.8"/>
            <path class="st11" d="M151.4,204.5l-10.3,8.7v5.2l10.3-8.1v-5.8h0Z"/>
          </g>
          <rect class="st8" x="139.4" y="221.9" width="13.3" height="1.5"/>
        </g>
        <g>
          <g>
            <rect class="st32" x="58.7" y="235.3" width="10.3" height="20.8"/>
            <path class="st11" d="M69,238.8l-10.3,8.7v5.2l10.3-8.1v-5.8h0Z"/>
          </g>
          <g>
            <rect class="st32" x="79.4" y="235.3" width="10.3" height="20.8"/>
            <path class="st11" d="M89.7,238.8l-10.3,8.7v5.2l10.3-8.1v-5.8h0Z"/>
          </g>
          <g>
            <rect class="st32" x="100.1" y="235.3" width="10.3" height="20.8"/>
            <path class="st11" d="M110.4,238.8l-10.3,8.7v5.2l10.3-8.1v-5.8h0Z"/>
          </g>
          <g>
            <rect class="st32" x="120.8" y="235.3" width="10.3" height="20.8"/>
            <path class="st11" d="M131.1,238.8l-10.3,8.7v5.2l10.3-8.1v-5.8h0Z"/>
          </g>
          <rect class="st8" x="57.5" y="256.1" width="13.3" height="1.5"/>
          <rect class="st8" x="78" y="256.1" width="13.3" height="1.5"/>
          <rect class="st8" x="98.5" y="256.1" width="13.3" height="1.5"/>
          <rect class="st8" x="119" y="256.1" width="13.3" height="1.5"/>
          <g>
            <rect class="st32" x="141.1" y="235.3" width="10.3" height="20.8"/>
            <path class="st11" d="M151.4,238.8l-10.3,8.7v5.2l10.3-8.1v-5.8h0Z"/>
          </g>
          <rect class="st8" x="139.4" y="256.1" width="13.3" height="1.5"/>
        </g>
        <g>
          <g>
            <rect class="st32" x="58.7" y="277.3" width="10.3" height="20.8"/>
            <path class="st11" d="M69,280.7l-10.3,8.7v5.2l10.3-8.1v-5.8h0Z"/>
          </g>
          <g>
            <rect class="st32" x="79.4" y="277.3" width="10.3" height="20.8"/>
            <path class="st11" d="M89.7,280.7l-10.3,8.7v5.2l10.3-8.1v-5.8h0Z"/>
          </g>
          <g>
            <rect class="st32" x="100.1" y="277.3" width="10.3" height="20.8"/>
            <path class="st11" d="M110.4,280.7l-10.3,8.7v5.2l10.3-8.1v-5.8h0Z"/>
          </g>
          <g>
            <rect class="st32" x="120.8" y="277.3" width="10.3" height="20.8"/>
            <path class="st11" d="M131.1,280.7l-10.3,8.7v5.2l10.3-8.1v-5.8h0Z"/>
          </g>
          <rect class="st8" x="57.5" y="298.1" width="13.3" height="1.5"/>
          <rect class="st8" x="78" y="298.1" width="13.3" height="1.5"/>
          <rect class="st8" x="98.5" y="298.1" width="13.3" height="1.5"/>
          <rect class="st8" x="119" y="298.1" width="13.3" height="1.5"/>
          <g>
            <rect class="st32" x="141.1" y="277.3" width="10.3" height="20.8"/>
            <path class="st11" d="M151.4,280.7l-10.3,8.7v5.2l10.3-8.1v-5.8h0Z"/>
          </g>
          <rect class="st8" x="139.4" y="298.1" width="13.3" height="1.5"/>
        </g>
      </g>
      <g>
        <g>
          <rect class="st32" x="203.4" y="200.2" width="11.2" height="29.4"/>
          <path class="st11" d="M214.6,205.1l-11.2,12.3s0,7.4,0,7.3,11.2-11.5,11.2-11.4,0-8.1,0-8.1h0Z"/>
        </g>
        <g>
          <rect class="st32" x="225.9" y="200.2" width="11.2" height="29.4"/>
          <path class="st11" d="M237.2,205.1l-11.2,12.3s0,7.4,0,7.3,11.2-11.5,11.2-11.4,0-8.1,0-8.1h0Z"/>
        </g>
        <g>
          <rect class="st32" x="248.5" y="200.2" width="11.2" height="29.4"/>
          <path class="st11" d="M259.7,205.1l-11.2,12.3s0,7.4,0,7.3,11.2-11.5,11.2-11.4,0-8.1,0-8.1h0Z"/>
        </g>
        <g>
          <rect class="st32" x="271" y="200.2" width="11.2" height="29.4"/>
          <path class="st11" d="M282.3,205.1l-11.2,12.3s0,7.4,0,7.3,11.2-11.5,11.2-11.4,0-8.1,0-8.1h0Z"/>
        </g>
        <rect class="st8" x="202.1" y="229.6" width="14.5" height="1.7"/>
        <rect class="st8" x="224.4" y="229.6" width="14.5" height="1.7"/>
        <rect class="st8" x="246.8" y="229.6" width="14.5" height="1.7"/>
        <rect class="st8" x="269.1" y="229.6" width="14.5" height="1.7"/>
      </g>
      <g>
        <g>
          <polygon class="st31" points="295.4 180.6 295.4 175.9 320 175.9 320 180.6 315.3 183.4 299.3 183.4 295.4 180.6"/>
          <rect class="st31" x="299.3" y="183.4" width="16" height="120.5"/>
        </g>
        <polygon class="st24" points="295.4 180.6 320 180.6 315.3 183.4 299.3 183.4 295.4 180.6"/>
        <g>
          <rect class="st24" x="302.4" y="186.5" width="1.4" height="114.4" rx=".6" ry=".6"/>
          <rect class="st24" x="307" y="186.5" width="1.4" height="114.4" rx=".6" ry=".6"/>
          <rect class="st24" x="311.5" y="186.5" width="1.4" height="114.4" rx=".6" ry=".6"/>
        </g>
      </g>
      <g>
        <g>
          <polygon class="st31" points="162.6 180.6 162.6 175.9 187.2 175.9 187.2 180.6 182.6 183.4 166.5 183.4 162.6 180.6"/>
          <rect class="st31" x="166.5" y="183.4" width="16" height="120.5"/>
        </g>
        <polygon class="st24" points="162.6 180.6 187.2 180.6 182.6 183.4 166.5 183.4 162.6 180.6"/>
        <g>
          <rect class="st24" x="169.7" y="186.5" width="1.4" height="114.4" rx=".6" ry=".6"/>
          <rect class="st24" x="174.2" y="186.5" width="1.4" height="114.4" rx=".6" ry=".6"/>
          <rect class="st24" x="178.8" y="186.5" width="1.4" height="114.4" rx=".6" ry=".6"/>
        </g>
      </g>
      <g>
        <rect class="st24" x="144.6" y="303.9" width="190.4" height="5.2"/>
        <rect class="st24" x="152.3" y="298.8" width="175.6" height="5.2"/>
        <rect class="st24" x="137.1" y="309" width="204.2" height="5.2"/>
      </g>
      <g>
        <path class="st24" d="M157.5,166.6c.8,0,85.9-40.7,85.9-40.7l85.4,40.7h-171.3,0Z"/>
        <polygon class="st38" points="328.7 175.9 159.2 175.9 157.2 175.9 157.2 166.6 328.7 166.6 328.7 175.9"/>
        <rect class="st31" x="157.2" y="166.6" width="171.5" height="1.1"/>
      </g>
      <g>
        <rect class="st24" x="203.8" y="263.8" width="80.9" height="35"/>
        <rect class="st32" x="206.1" y="265.9" width="16.3" height="32.9"/>
        <rect class="st32" x="266" y="265.9" width="16.9" height="32.9"/>
        <rect class="st32" x="224.5" y="265.9" width="18.5" height="32.9"/>
        <rect class="st32" x="245.4" y="265.9" width="18.5" height="32.9"/>
        <path class="st11" d="M222.3,269c0-.1-16.3,11.9-16.3,12.2v8.3l16.3-12.2v-8.3Z"/>
        <polyline class="st11" points="222.3 281.3 206.1 293.2 206.1 295.6 222.3 283.6 222.3 281.8"/>
        <path class="st11" d="M282.9,269c0-.1-16.9,11.9-16.9,12.2v8.3l16.9-12.2v-8.3Z"/>
        <polyline class="st11" points="282.9 281.3 266 293.2 266 295.6 282.9 283.6 282.9 281.8"/>
        <polygon class="st11" points="243 273.3 224.5 284.1 224.5 291.3 243 279.8 243 273.3"/>
        <polygon class="st11" points="263.9 278 245.4 289.8 245.4 297 263.9 285.4 263.9 278"/>
        <rect class="st24" x="240.1" y="280.7" width="2.9" height="8.9"/>
        <rect class="st24" x="245.5" y="280.7" width="2.9" height="8.9"/>
      </g>
    </g>
  </g>
  <g id="freepik--Shadow--inject-2">
    <path class="st14" d="M470.7,464.9c0,2.8-98.6,5.2-220.2,5.2s-128.7-.7-169-1.8c-21.9-.6-37.8-1.4-45.7-2.2-3.6-.4-5.5-.8-5.5-1.2s2.5-.9,7.2-1.3c8.9-.8,25.9-1.5,48.6-2.1,40.3-1.1,99-1.7,164.4-1.7,121.6,0,220.2,2.4,220.2,5.2Z"/>
  </g>
  <g>
    <path class="st34" d="M56.3,442.6c-.6-.4-1.2-.8-1.9-1.2-1-.5-2.1-1-3.1-1.4.6,1.6,1.1,3.1,1.4,4.7,1.2-.7,2.4-1.5,3.6-2.2Z"/>
    <path class="st28" d="M54.4,441.5c.7.4,1.3.7,1.9,1.2,2-1.1,4-2.2,6-3.1-.3-.6-.6-1.1-.9-1.6-.7,0-1.4-.1-2.1-.2-3.3-.3-6.8-.7-9.9-1.9.7,1.4,1.4,2.9,1.9,4.3,1,.4,2,.9,3.1,1.4Z"/>
    <path class="st3" d="M65.1,438.2c-1.3-.1-2.5-.2-3.8-.4.3.5.6,1.1.9,1.6.9-.4,1.9-.9,2.8-1.3Z"/>
    <path class="st2" d="M134.1,335.9c-6.1-7.6-10.9-15.2-14.6-24.2-.9-2.2-1.8-4.6-3.2-6.5,0,2.5,0,4.9.2,7.4.3,4.2.9,8.6,3.1,12.1,1.2,1.9,2.9,3.5,4.6,5.1.7.7,1.5,1.4,2.2,2.1,2.4,2.4,3.1,4.9,4.3,7.6.2.4.3.7.5,1.1.5.9,1,1.8,1.5,2.8.1,0,.2,0,.3,0,2.5.6,5.2,1.1,7.3,2.6-1.3-3.6-3.6-6.6-6.3-10.1Z"/>
    <path class="st2" d="M139.9,283.5c-2.2-.3-9.3-3.9-16.4-8.1-.7.5-1.4,1.1-2,1.7-.2.2-.4.5-.6.7,0,0,0,0,.1,0,3.1,1.3,15.3,5.3,17,5.6.9.2,2.2.4,3.2,0-.4,0-.8,0-1.3,0Z"/>
    <path class="st2" d="M50.2,230c-.2-.5-.4-.9-.5-1.4-1.2.5-2.3.9-3.5,1.3,1,0,2.4,0,4,0Z"/>
    <path class="st34" d="M81.2,291.7c5,1.4,10.2,4,12.2,8.9,1.2,2.8,1,6,1.7,9,1,4,3.5,7.3,6.8,9.9,1.8,1.4,3.7,2.7,5.7,3.7,5.3,2.7,11.1,4.2,16.5,6.5-1.7-1.6-3.4-3.2-4.6-5.1-2.3-3.6-2.9-7.9-3.1-12.1-.2-2.4-.2-4.9-.2-7.4,0,0,0,0,0,0-6.4-4.9-12-10.8-16.6-17.4-2.5-3.6-6.1-6.2-10-8.1-4.4-2.1-8.9-1.9-13.5-3.2-2.6-.7-5.9-2.1-8.7-3.9,0,2.1-.1,4.2-.3,6.3-.2,2.5-.5,5.1-.9,7.6,0,0,.2.1.3.2,4.3,2.9,9.7,3.7,14.7,5.1Z"/>
    <path class="st28" d="M89.7,279.7c3.9,1.8,7.5,4.5,10,8.1,4.6,6.6,10.2,12.5,16.6,17.4,0-6.2.6-12.4,1.7-18.5,0-.3.1-.7.2-1-3.8-4.3-8.2-8.1-12.8-11.4-2.4-1.7-5.3-4.5-8.1-5.5-3.5-1.2-8,0-11.7-.4-5.2-.5-10.4-1.6-14.9-4.3-1.2-.7-2.3-1.5-3.4-2.4.2,3.7.4,7.3.3,11,2.8,1.8,6.1,3.2,8.7,3.9,4.6,1.3,9.1,1.1,13.5,3.2Z"/>
    <path class="st28" d="M82.4,296.3c0,0,.2,0,.2.1,2.6,1.5,5.2,3.3,6.7,5.9,3.8,6.5,0,14.4,3.9,20.3,8.9,6.5,19.5,10.7,29.8,14.8,2.5,1,5.1,1.9,7.8,2-1.3-2.7-2-5.2-4.3-7.6-.7-.7-1.5-1.4-2.2-2.1-5.5-2.3-11.2-3.9-16.5-6.5-2-1-4-2.3-5.7-3.7-3.2-2.6-5.8-5.9-6.8-9.9-.7-3-.6-6.2-1.7-9-2-4.8-7.2-7.4-12.2-8.9-5-1.4-10.4-2.2-14.7-5.1,0,0-.2-.1-.3-.2-.1.8-.2,1.5-.4,2.2,5.5,1.1,11.8,4.9,16.2,7.4.1,0,.2.1.4.2Z"/>
    <path class="st3" d="M111.9,336.2c3,1.4,6.1,2.6,9.2,3.7,3.9,1.4,7.8,2.5,11.8,3.4-.5-1-1.1-1.9-1.5-2.8-.2-.4-.4-.7-.5-1.1-2.7,0-5.2-1-7.8-2-10.3-4.1-20.9-8.3-29.8-14.8.4.7,1,1.3,1.6,1.9,5.5,5.2,10.1,8.3,17,11.5Z"/>
    <path class="st3" d="M85.5,268.3c3.7.4,8.2-.8,11.7.4,2.8,1,5.7,3.8,8.1,5.5,4.7,3.3,9,7.2,12.8,11.4.5-2.9.9-5.7,2.8-7.9.2-.2.4-.5.6-.7.7-.6,1.3-1.2,2-1.7-1.6-1-3.3-2-4.8-2.9-5.8-3.7-10.8-7.3-11.8-9.1-1-1.9-1-4.4-1.1-6.6-6,6-14.6,9.2-23.6,7.9-6-.9-11.3-3.6-15.4-7.6.1,1.5.2,3,.3,4.5,1,.9,2.2,1.7,3.4,2.4,4.5,2.6,9.7,3.7,14.9,4.3Z"/>
    <path class="st34" d="M79,172.7c-8.6,3.9-14.6,11.5-17.5,20.2,2.9,1,6,1.4,9.1,1.4.6-2.4,1.4-4.6,2.6-6.7,3.8-6.9,10.9-10.8,18.3-10.8.5-1.5,1.1-2.9,1.7-4.2.3-.8.7-1.5,1-2.2-5.2-.6-10.5.2-15.2,2.4Z"/>
    <path class="st34" d="M82.9,179.1c-6.3,3-10.1,8.7-11.7,15.2,5.5-.2,11.1-1.8,16.1-4.4,1.2-4.5,2.5-8.8,4-12.7-2.9,0-5.7.6-8.4,1.9Z"/>
    <path class="st28" d="M52.2,202.8c2.2.7,4.4,1.3,6.7,1.8,0-4,.8-8,2-11.8-1.1-.4-2.2-.9-3.2-1.5-1.1-.6-2.1-1.3-3.1-2.1-2.1,4.2-3.7,8.6-4.7,13.2.8,0,1.6.2,2.3.5Z"/>
    <path class="st28" d="M69.9,205.5c-.4-3.7-.2-7.6.7-11.2-3.1,0-6.2-.4-9.1-1.4-1.3,3.8-1.9,7.7-2,11.7,3.4.6,6.9.9,10.4.8Z"/>
    <path class="st28" d="M71.2,194.3c-.9,3.4-1.1,7.1-.8,10.6,0,.2,0,.4,0,.6,4.6-.1,9.2-.9,13.6-2.2.9-4.4,2-9,3.2-13.4-5,2.5-10.6,4.2-16.1,4.4Z"/>
    <path class="st3" d="M70.6,205.5c.1,1,.3,2.1.5,3.1,3.9-2.4,8.3-3.9,12.9-4.3,0-.3.1-.6.2-.9-4.4,1.3-9,2-13.6,2.2Z"/>
    <path class="st3" d="M59.5,204.6c0,.2,0,.4,0,.6,0,4.3.7,8.7,2,12.9,2.3-3.7,5.4-6.8,9-9.2-.3-1.1-.5-2.3-.6-3.4-3.5,0-7-.2-10.4-.8Z"/>
    <path class="st3" d="M57.3,230c0-.1,0-.3,0-.4.6-4,1.9-7.6,3.8-10.9-1.5-4.5-2.3-9.4-2.2-14.2-2.3-.4-4.5-1-6.7-1.8-.7-.3-1.6-.5-2.3-.5-1.2,5.3-1.8,10.9-1.7,16.3,0,3.4.5,6.8,1.5,10,.1.5.3.9.5,1.4,2.3,0,5,0,7,0Z"/>
    <path class="st7" d="M73.2,187.6c-1.2,2.1-2,4.4-2.6,6.7-.9,3.6-1.1,7.5-.7,11.2.1,1.2.3,2.3.6,3.4.2-.1.4-.2.5-.3-.2-1-.4-2.1-.5-3.1,0-.2,0-.4,0-.6-.3-3.5,0-7.1.8-10.6,1.6-6.4,5.4-12.2,11.7-15.2,2.7-1.3,5.5-1.9,8.4-1.9,0-.2.1-.3.2-.5-7.4,0-14.5,3.9-18.3,10.8Z"/>
    <path class="st7" d="M59.5,204.6c0-4,.7-8,2-11.7,2.9-8.7,8.9-16.2,17.5-20.2,4.7-2.2,10.1-3,15.2-2.4,0-.2.2-.3.3-.5-10.5-1.2-21.2,3.6-27.8,12.2-2.5,3.2-4.4,6.9-5.6,10.7-1.3,3.8-1.9,7.8-2,11.8-.1,4.8.6,9.6,2.2,14.2.1-.2.3-.4.4-.6-1.3-4.2-2-8.6-2-12.9,0-.2,0-.4,0-.6Z"/>
    <path class="st36" d="M164.6,245.9c-.3-2-1.5-3.7-2.8-5.2-1.5-1.8-2.8-4-4.1-6-1.4-2.1-2.5-4.4-2.6-6.9,0-.5,0-1.1,0-1.7-.2,0-.4.1-.6.2-.7.3-1.4.7-1.9,1.2-.5.5-.9,1.5-1.5,2,0,0,0,.2,0,.3,0,.4,0,.8.2,1.2,0,.3,0,.6-.2.8-.1.1-.4.1-.5,0-.6,0-1.3-.3-1.8-.5-.6-.2-1.2-.4-1.8-.6-2.1-.7-4.2-1.4-6.3-2.2-2-.8-4-1.8-5.9-2.9,0,0,0,0-.1,0-1.1-.3-2.1-.7-3.1-1.3-.2,0,2-1.5,2.2-1.6.8-.3,1.6-.6,2.5-.9,2.4-.7,5-1,7.5-1.1,1.2,0,2.4,0,3.5.1.2-2.6.4-5.2.4-7.8.2-4.2,0-8.5-.9-12.6-.9-4.1-2.7-8-5.4-11.2-2.7-3.2-6.1-5.9-9.6-8.1-3.5-2.3-7.3-4.2-11.1-6-3.9-1.7-7.8-3.3-11.8-4.6-4-1.3-8.1-2.4-12.3-3.2-.2,0-.5,0-.7-.1-.5.8-1,1.7-1.4,2.7,0,.2-.2.3-.3.5-.3.7-.7,1.4-1,2.2-1.6,8.3-.1,17.1,4.2,24.4,4.8,8,12.5,13.8,19.3,20.1,5.6,5.2,11.6,11.8,13.3,19.5,1.8,8.6-1.6,17.9,0,26.7,1.4,7.3,5.2,14.6,11.2,19.2.4.3.7.5,1.1.8,1.3-.5,2.5-1.5,3.2-2.9.9-1.6,1.2-3.7,1.6-5.5,0-.4.1-.9.2-1.3-.6-1.5-.9-3.1-1-4.7.8.2,1.6.3,2.5.2.2,0,.4,0,.6-.1.4-.2.7-.4,1.1-.6,1.5-.9,1.6-2.9,1.4-4.5,1.5-.3,2.8-1.5,3-3,.1-1.2-.3-2.2-.3-3.4,0-.1,0-.2,0-.4-.2-1.2-.4-2.5.2-3.6.7-1.5,2.4-2.1,3.9-2.5.9-.2,2.1-.6,3.2-.6.2,0,.4-.2.5-.3,1.4-1,2.7-2.4,2.4-4.3Z"/>
    <path class="st36" d="M96,166.9c.2,0,.4,0,.6,0,4.2.8,8.3,1.8,12.3,3.1,4.1,1.3,8,2.8,11.9,4.5,3.9,1.7,7.7,3.6,11.3,5.9,1.8,1.1,3.5,2.4,5.1,3.8,1.6,1.4,3.2,2.9,4.5,4.5,2.8,3.3,4.5,7.3,5.4,11.5.9,4.2,1,8.5.8,12.7-.1,2.6-.4,5.2-.6,7.8,1.3.2,2.7.6,3.8,1.2,1.4.8,3.3.7,4.9,0,.7-2.1,1.6-5,1.9-6.2,4.4-16.5-2.6-36.4-17-46-8.9-5.9-19.5-8.2-29.9-8.7-1.2,0-7.9-.4-9.8.2-.3,0-.5.2-.8.4-1.5.8-3,2.6-4.5,5Z"/>
    <path class="st2" d="M111.9,260.8c-1.1-4.4-.6-8.9.1-13.4-1.4,3.6-3.5,6.8-6.1,9.5,0,2.2,0,4.7,1.1,6.6,1,1.8,5.9,5.4,11.8,9.1-3-3.5-5.7-7.3-6.8-11.7Z"/>
    <path class="st21" d="M154.7,253.5c-.5,1.1-.4,2.4-.2,3.6,0,.1,0,.2,0,.4,0-.3,0-.7.1-1,.4-1.4,1.2-2.7,2.2-3.8,1.2-1.3,3.2-1.4,4.8-2.2-1.1,0-2.3.4-3.2.6-1.5.3-3.2,1-3.9,2.5Z"/>
    <path class="st21" d="M151.2,222.1c-1.2-.7-2.5-1-3.8-1.2,0,.8-.1,1.6-.2,2.4.5,0,1,0,1.5.1,1,0,2.1.2,2.9.8.3.2.5.6.4,1,0,.2-.2.4-.3.6,0,.2-.2.5-.2.8-.2.9-.2,1.9-.2,2.9.6-.5,1-1.5,1.5-2,.5-.5,1.2-.9,1.9-1.2.2,0,.4-.1.6-.2,0-.6,0-1.2.2-1.7.1-.4.4-1.2.7-2.2-1.6.6-3.5.7-4.9,0Z"/>
    <path class="st21" d="M143.7,220.7c-2.4.1-5.1.4-7.5,1.1-.8.2-1.7.6-2.5.9-.2,0-2.4,1.5-2.2,1.6,1,.6,2,1,3.1,1.3,0,0-.1-.1-.1-.2,0,0,.1-.2.2-.2,1.6-.9,3.4-1.4,5.2-1.7,1.9-.3,3.9-.4,5.8-.3.5,0,.9,0,1.4,0,0-.8.1-1.6.2-2.4-1.2-.2-2.4-.2-3.5-.1Z"/>
    <path class="st21" d="M146.4,268.9c0,1.6.4,3.2,1,4.7.2-1.5.3-2.9,1.4-4.1.2-.2.4-.3.6-.5-.2,0-.4.1-.6.1-.8,0-1.7,0-2.5-.2Z"/>
    <path class="st21" d="M58.7,233.3c2.2-15.2,16.2-25.7,31.4-23.5,15.2,2.2,25.7,16.2,23.5,31.4-.3,2.1-.9,4.2-1.6,6.1-.7,4.5-1.3,9.1-.1,13.4,1.2,4.4,3.8,8.1,6.8,11.7,1.6,1,3.2,2,4.8,2.9,7.1,4.2,14.2,7.8,16.4,8.1.4,0,.9,0,1.3,0,.4,0,.8-.1,1.1-.2-.4-.3-.7-.5-1.1-.8-6.1-4.5-9.8-11.8-11.2-19.2-1.7-8.8,1.8-18.1,0-26.7-1.6-7.7-7.7-14.3-13.3-19.5-6.8-6.4-14.5-12.1-19.3-20.1-4.3-7.3-5.7-16.1-4.2-24.4-.6,1.3-1.1,2.7-1.7,4.2,0,.2-.1.3-.2.5-1.4,3.9-2.8,8.2-4,12.7-1.2,4.4-2.3,9-3.2,13.4,0,.3-.1.6-.2.9-4.7.4-9.1,1.9-12.9,4.3-.2.1-.4.2-.5.3-3.6,2.4-6.7,5.5-9,9.2-.1.2-.3.4-.4.6-1.9,3.2-3.2,6.9-3.8,10.9,0,.1,0,.3,0,.4-2,.1-4.7.1-7,0-1.6,0-3,0-4,0-.6,4.8.3,19,.4,19.2l15.6,2.2c-3.1-5.2-4.5-11.5-3.6-18Z"/>
    <path class="st36" d="M90.1,209.8c-15.2-2.2-29.2,8.4-31.4,23.5-.9,6.5.5,12.8,3.6,18,1.3,2.1,2.8,4.1,4.6,5.8,4.1,4,9.4,6.7,15.4,7.6,9,1.3,17.7-1.9,23.6-7.9,2.6-2.7,4.7-5.9,6.1-9.5.8-1.9,1.3-4,1.6-6.1,2.2-15.2-8.4-29.2-23.5-31.4Z"/>
    <path class="st34" d="M89.6,213.3c-8.3-1.2-16.3,2-21.5,7.8,1.2,3.4,2.9,6.6,5.1,9.5.9-1.8,2.2-3.4,3.7-4.6,3-2.5,7.1-3.8,11.3-3.2,1.5.2,3,.7,4.3,1.3.4.1.7.2,1.1.4,4.5,1.8,7.6,6.2,8.7,10.9.8,3.4.5,7-.4,10.4,2.3.2,4.7,0,6.9-.3.6-1.6,1-3.2,1.2-4.9,1.9-13.2-7.3-25.5-20.5-27.4Z"/>
    <path class="st3" d="M101.9,245.9c.9-3.4,1.2-7,.4-10.4-1-4.7-4.2-9.1-8.7-10.9-.3-.1-.7-.3-1.1-.4,5.5,2.7,8.9,8.7,8,15.1-.1,1-.4,1.9-.7,2.8-2.3,6.4-8.8,10.5-15.7,9.5-7.9-1.1-13.5-8.5-12.3-16.4.2-1.6.7-3.1,1.4-4.5-2.2-2.9-3.9-6.1-5.1-9.5-3.1,3.4-5.2,7.8-5.9,12.7-1.9,13.2,7.3,25.5,20.5,27.4,11.5,1.6,22.3-5.1,26.1-15.6-2.3.4-4.6.5-6.9.3Z"/>
    <path class="st36" d="M92.6,224.2c-1.3-.7-2.8-1.1-4.3-1.3-4.2-.6-8.2.7-11.3,3.2.7,2,1.3,3.8,2.2,5.6,1.9-2.4,5-3.7,8.3-3.3,4.9.7,8.3,5.2,7.6,10.2,0,.7-.3,1.4-.5,2,1.7.6,3.5,1.2,5.3,1.6.3-.9.6-1.8.7-2.8.9-6.4-2.5-12.4-8-15.1Z"/>
    <path class="st2" d="M149.6,263.1c-.1,0-2.9-.2-2.9-.2,0,0,1.7.4,2.5.6.4,0,.8.2,1.2.3.4,0,1.2.2,1.3.2-.2-.3-2-.8-2.2-.8Z"/>
    <path class="st21" d="M94.5,240.5c.2-.6.4-1.3.5-2,.7-4.9-2.7-9.4-7.6-10.2-3.3-.5-6.3.9-8.3,3.3-.9-1.8-1.6-3.6-2.2-5.6-1.5,1.3-2.8,2.8-3.7,4.6-.7,1.4-1.2,2.9-1.4,4.5-1.1,7.9,4.4,15.3,12.3,16.4,7,1,13.5-3.1,15.7-9.5-1.8-.4-3.6-1-5.3-1.6Z"/>
    <path class="st36" d="M89.2,244.2c-4.4.6-9.4-1.4-10.8-5.8-.2-.5-.3-1.1-.4-1.7-.1-.9-.2-1.8-.2-2.7-.2.6-.4,1.2-.5,1.9-.7,4.9,2.7,9.4,7.6,10.2,3.1.4,6.1-.8,8-3-1.2.5-2.4.9-3.7,1.1Z"/>
    <path class="st36" d="M159.7,399.7c-1.3-8.4-3.5-16.6-6.5-24.6-.7-2-1.6-3.9-2.4-5.9-.5-1-1-2.1-1.5-3.1-2.7-3.1-5.3-6.3-8.5-8.9-3.3-2.8-7-5.1-10.8-7.1-7-3.7-14.8-5.9-21-10.9-.9-.4-1.8-.8-2.6-1.3-1.9-1-3.8-2-5.6-3.1-1.8-1.1-3.6-2.3-5.2-3.7-1.6-1.4-3-3-4.2-4.8-1.2-1.8-2-3.8-2.7-5.8-1.4-4.1-2.1-8.3-2.9-12.4-.8-4-1.5-8.2-3.3-11.9-.1,0-.2-.1-.4-.2-4.4-2.5-10.7-6.3-16.2-7.4-.8-.2-1.5-.3-2.2-.3-4.8-.3-8.6,5.9-11.3,9.9-.7,2.2-1.5,4.4-2.5,6.5-1.1,2.5-3.2,5-2.4,7.9,1,3.7,5.2,3.4,8.2,4,3.8.7,7.6,1.6,11.5,1.8,4.3.2,9.3,0,13.4,1.5,3.6,1.4,7,4.4,9.7,7.1,12.1,11.7,14.7,29.2,19.2,44.7,2.4,8.4,7.6,17.1,12.1,24.6,3.6,6,7.3,12.6,13.7,16,6.6,3.6,14.8,3.1,21.8.5,1.3-.5,2.6-1.1,3.9-1.7-.3-3.8-.7-7.6-1.3-11.4Z"/>
    <path class="st21" d="M166.9,418.2c0-3.4-.3-6.7-.6-10.1-1.6,1-3.3,2-5,2.8.2,2.3.3,4.5.4,6.8,1.7.1,3.5.3,5.2.5Z"/>
    <path class="st21" d="M27.3,376.4c1.7-.8,3.6,0,5.2.9,5.4,3,10,7,14.4,11.3-1.1-2.4-2.3-4.8-3.4-7.2-1.4-3.1-2.8-6.6-2.8-9.8-.5-.9-.9-1.7-1.2-2.2-.3-.6-.6-1.2-.8-1.8-2.2-2.1-3.9-4.7-4.8-7.6-1.1-3.5-1-7.5.2-11.1.7,1.7,2.5,2.6,4,4.3.2,0,.4.2.4.2,1.2.9,2.2,2.1,2.8,3.5,1.1,2.5,0,4.8-.6,7.2-.6,3,1.6,5.6,2.9,8.2,1.5,2.9,15.3,26.3,20.3,34.8,1.2,2,3,3.5,5.2,4.3,4.3,1.5,10.9,2,11.7,1.8,1-.3,6.9-6,10.3-10.9,1.1-1.6,1.7-3.5,1.7-5.4,0-11.7.6-23.5,1.7-35.2.4-3.9.8-8.1-.8-11.7-.9-2-1.7-3.1-2.2-4.6-.5-.5-.9-1.1-1.2-1.7-3.6,3.5-6.1,8.1-7.1,13-.7,3.4-.7,7-1.4,10.4s-2.3,6.9-5.3,8.7c-2.5,1.5-5.7,1.5-8.4.6-2.8-.9-5.1-2.7-7.2-4.8-3.7-3.7-6.5-8.2-9.4-12.6-3-4.3-6.3-8.6-10.8-11.3-1.9-1.2-4.2-2-6.4-2.4,0,0,0-.2,0-.3,1.8-4.8,4.8-9.4,8.8-13.2.6-.5,1.2-1.1,2-1.1.6,0,1.1.3,1.6.6.8-.7,1.5-1.3,2.4-1.9,5.2-3.7,11.9-5.2,18.2-4.3,1.3.2,2.5.5,3.7.9,0-.3.2-.5.3-.8.2-.7.5-1.4,1.2-1.8.7-.4,1.6-.2,2.3,0,5.4,1.3,10.2,3.8,14.2,7.1,1.6,1.4,2.2,2.6,2.3,3.8,2.4,2.6,4,6,4.5,9.5.2,2,.1,3.9-.3,5.9.2.3.5.7.6,1.1.4.9.6,1.8.7,2.7,0,0,0,0,0,0,.6,1.2,1.1,2.4,1.6,3.7.4,1,.8,2,1.2,3.1,7.8,20.2,14.9,40.7,21.4,61.4,10-2.9,20.4-4.2,31.3-3.8,3.1,0,6.1.1,9.1.3,0-2.2-.2-4.4-.4-6.6-1.3.6-2.6,1.2-3.9,1.7-7,2.6-15.2,3.1-21.8-.5-6.3-3.5-10.1-10-13.7-16-4.5-7.5-9.6-16.2-12.1-24.6-4.5-15.5-7.2-32.9-19.2-44.7-2.7-2.7-6.1-5.7-9.7-7.1-4.1-1.6-9-1.3-13.4-1.5-3.9-.2-7.7-1-11.5-1.8-3.1-.6-7.3-.4-8.2-4-.8-2.9,1.3-5.4,2.4-7.9,1-2.1,1.8-4.3,2.5-6.5-.2.3-.4.6-.6.9-12.5,17.3-20.4,36.4-23.9,57.4-1.1,6.3-1.1,13-.5,19.8,0,0,0,0,0,0Z"/>
    <path class="st21" d="M144.7,358.1c-1.2-1.7-2.5-3.4-3.9-5-1.5-1.5-3-2.9-4.8-4.1-1.8-1.1-3.6-2.1-5.7-2.7-2-.6-4.1-1-6.2-1.5-2.1-.5-4.1-1.2-6.1-1.9-3.1-1.1-6.1-2.3-9.1-3.7,6.2,5,26.4,35.1,33.3,38.8,3.8,2-4.9-23.6-1.5-20.8,3.2,2.6,5.8,5.8,8.5,8.9-.4-.9-.9-1.8-1.3-2.6-1-1.9-2.1-3.7-3.2-5.5Z"/>
    <path class="st36" d="M160.1,379.9c-3.9-11.1-9.6-26.1-19.2-33.6-.1-.1-.3-.2-.4-.3-2.1-1.5-4.7-2-7.3-2.6-.1,0-.2,0-.3,0-4-.9-7.9-2-11.8-3.4-3.1-1.1-6.2-2.4-9.2-3.7-6.9-3.2-11.5-6.4-17-11.5-.7-.6-1.2-1.3-1.6-1.9-3.9-5.9-.1-13.8-3.9-20.3-1.5-2.6-4-4.4-6.7-5.9,1.8,3.7,2.6,7.7,3.4,11.7.8,4.2,1.5,8.4,2.9,12.4,1.3,4,3.6,7.7,6.8,10.5,1.6,1.4,3.3,2.6,5.2,3.6,1.8,1.1,3.7,2.1,5.6,3,3.8,1.9,7.7,3.5,11.7,4.9,1.6.6,3.3,1.1,5,1.5.4,0,.7.2,1.1.3.7.2,1.3.3,2,.5,1.4.3,2.8.6,4.2,1,2.1.6,4,1.6,5.8,2.8,1.8,1.2,3.4,2.6,4.9,4.2,2.9,3.2,5.2,6.8,7.2,10.6,1,1.9,1.9,3.8,2.8,5.8.8,2,1.7,3.9,2.4,5.9,3,8,5.1,16.3,6.4,24.7.6,3.7,1,7.5,1.3,11.2,1.7-.9,3.4-1.8,5-2.8-1-9.6-3.1-19.1-6.3-28.2Z"/>
    <path class="st2" d="M44.7,432.9c1.4,1.3,3,2.2,4.7,2.8,3.1,1.2,6.6,1.6,9.9,1.9.7,0,1.4.1,2.1.2,1.3.1,2.5.2,3.8.4,2.1-.9,4.3-1.8,6.6-2.6-2.1-3.6-4.2-7.2-6.3-10.8,0,0,0,0,0-.1-6.8-11.6-12.7-23.9-18.4-36.1-4.4-4.3-9-8.4-14.4-11.3-1.6-.9-3.5-1.7-5.2-.9,0,0,0,0,0,0,1.4,16.3,6.7,33.3,12.1,47.3,1.3,3.4,2.7,6.8,5.4,9.2Z"/>
    <path class="st34" d="M88.6,320.6c.7,2,1.6,4,2.7,5.8,1.1,1.8,2.6,3.4,4.2,4.8,1.6,1.4,3.4,2.6,5.2,3.7,1.8,1.1,3.7,2.1,5.6,3.1.9.4,1.7.9,2.6,1.3,3,1.4,6,2.6,9.1,3.7,2,.7,4.1,1.3,6.1,1.9,2.1.5,4.2.9,6.2,1.5,2,.6,3.9,1.6,5.7,2.7,1.7,1.2,3.3,2.6,4.8,4.1,1.4,1.5,2.7,3.2,3.9,5,1.2,1.8,2.2,3.6,3.2,5.5.5.9.9,1.7,1.3,2.6.5,1,1,2.1,1.5,3.1.8,2,1.7,3.9,2.4,5.9,3,7.9,5.2,16.2,6.5,24.6.6,3.8,1,7.6,1.3,11.4.2,2.2.3,4.4.4,6.6.1,0,.2,0,.3,0,0-2.3-.2-4.5-.4-6.8-.3-3.8-.7-7.5-1.3-11.2-1.3-8.4-3.4-16.7-6.4-24.7-.7-2-1.6-3.9-2.4-5.9-.9-1.9-1.8-3.9-2.8-5.8-2-3.8-4.3-7.4-7.2-10.6-1.5-1.5-3.1-3-4.9-4.2-1.8-1.1-3.8-2.1-5.8-2.8-1.4-.4-2.8-.7-4.2-1-.7-.1-1.3-.3-2-.5-.4,0-.7-.2-1.1-.3-1.7-.5-3.3-1-5-1.5-4-1.4-7.9-3-11.7-4.9-1.9-.9-3.8-1.9-5.6-3-1.8-1.1-3.6-2.2-5.2-3.6-3.2-2.7-5.5-6.5-6.8-10.5-1.4-4-2.1-8.2-2.9-12.4-.8-4-1.6-8-3.4-11.7,0,0-.2,0-.2-.1,1.8,3.7,2.5,7.8,3.3,11.9.8,4.2,1.5,8.4,2.9,12.4Z"/>
    <path class="st34" d="M62,338.3c6.6-2,7.4-7.5,9.1-12.7-1.2-.4-2.5-.7-3.7-.9-6.3-.9-13,.7-18.2,4.3-.8.6-1.6,1.2-2.4,1.9.1.1.3.2.4.3,4.4,3.8,7.8,8.7,14.9,7.1Z"/>
    <path class="st3" d="M38.3,365.7c-.3-3.5,2.9-7.7,1-11-.4-.6-.8-1.1-1.2-1.6-1.5-1.6-3.3-2.6-4-4.3-1.2,3.6-1.3,7.5-.2,11.1.9,2.9,2.6,5.5,4.8,7.6-.2-.6-.3-1.2-.4-1.8Z"/>
    <path class="st34" d="M95.5,349.2c.4-1.9.6-3.9.3-5.9-.4-3.5-2.1-6.9-4.5-9.5,0,2.2-1.6,4.4-1.6,7.4,0,.8.2,1.5.6,2.2.3.6.7,1.2,1.2,1.7,1.3,1.4,2.9,2.6,3.9,4.1Z"/>
    <path class="st34" d="M112.4,424.1c2.8-1.1,5.7-2.1,8.6-3-6.5-20.7-13.7-41.1-21.4-61.4.3,2.4.5,4.8.7,7.3.5,5.6.4,11.2,1,16.9.7,6.2,1.5,12.4,2.2,18.6.8,6.6-3,10.2-4.7,16.4-.7,2.4-.8,4.8-.7,7.2,4.7-1,9.5-1.7,14.4-2Z"/>
    <path class="st28" d="M98.1,426.1c-.1-2.4,0-4.9.7-7.2,1.7-6.2,5.5-9.7,4.7-16.4-.7-6.2-1.4-12.4-2.2-18.6-.7-5.6-.5-11.2-1-16.9-.2-2.4-.5-4.8-.7-7.3-.4-1-.8-2-1.2-3.1-.5-1.2-1-2.5-1.6-3.7,0,0,0,0,0,0,0,.3,0,.6,0,1,0,6.5,2.4,47.6-1.2,54.5-.8,5.2-2.4,10.3-4.2,15.3-.6,1.6-1.3,3.4-2.3,4.7,2.9-.9,5.9-1.7,8.9-2.4Z"/>
    <path class="st28" d="M73.8,434.9c2.9-1.5,5.9-2.9,9-4.1-.4,0-.9-.1-1.3-.2-5.6-.9-11.1-2.9-16.1-5.7,2.1,3.6,4.2,7.2,6.3,10.8.7-.2,1.4-.5,2.1-.7Z"/>
    <path class="st3" d="M46.9,388.6c5.7,12.2,11.6,24.6,18.4,36.1,0,0,0,0,0,.1,5,2.8,10.4,4.8,16.1,5.7.4,0,.9.1,1.3.2,2.1-.8,4.2-1.6,6.4-2.3,1.1-1.3,1.8-3.1,2.3-4.7,1.8-5,3.4-10.1,4.2-15.3-.1.2-.3.4-.4.6-2.2,2.4-4.4,5.7-7.5,8.1-2.6,2-6,2.9-9.2,2.5-3.9-.6-7.8-1.7-10.9-2.7-5.5-1.8-21.7-35.2-27-45.3,0,3.3,1.4,6.8,2.8,9.8,1.1,2.4,2.2,4.8,3.4,7.2Z"/>
    <path class="st36" d="M91.3,333.8c0-1.2-.6-2.4-2.3-3.8-4-3.3-8.9-5.7-14.2-7.1-.8-.2-1.6-.3-2.3,0-.7.4-1,1.1-1.2,1.8,0,.3-.2.5-.3.8-1.7,5.2-2.5,10.7-9.1,12.7-7.1,1.7-10.5-3.3-14.9-7.1-.1-.1-.3-.2-.4-.3-.4-.3-1-.6-1.6-.6-.8,0-1.5.6-2,1.1-4,3.8-7,8.4-8.8,13.2,0,.1,0,.2,0,.3,2.3.4,4.5,1.2,6.4,2.4,4.5,2.7,7.8,7,10.8,11.3,3,4.3,5.7,8.9,9.4,12.6,2.1,2.1,4.4,3.9,7.2,4.8,2.8.9,5.9.9,8.4-.6,3-1.8,4.6-5.2,5.3-8.7.7-3.4.7-7,1.4-10.4,1-4.9,3.6-9.5,7.1-13-.4-.7-.6-1.4-.6-2.2,0-3.1,1.7-5.2,1.6-7.4Z"/>
    <path class="st2" d="M67.7,416.9c3.1,1,7,2.2,10.9,2.7,3.2.5,6.7-.5,9.2-2.5,3.1-2.4,5.3-5.7,7.5-8.1.1-.2.3-.3.4-.6,3.7-6.9,1.3-47.9,1.2-54.5,0-.3,0-.7,0-1,0-1-.3-1.9-.7-2.7-.2-.4-.4-.7-.6-1.1-1.1-1.4-2.7-2.7-3.9-4.1.5,1.5,1.3,2.7,2.2,4.6,1.6,3.6,1.2,7.8.8,11.7-1.1,11.6-1.7,23.5-1.7,35.2,0,1.9-.6,3.8-1.7,5.4-3.4,5-9.3,10.7-10.3,10.9-.8.2-7.4-.3-11.7-1.8-2.2-.8-4-2.3-5.2-4.3-5-8.5-18.8-32-20.3-34.8-1.4-2.6-3.6-5.2-2.9-8.2.5-2.5,1.7-4.7.6-7.2-.6-1.4-1.6-2.6-2.8-3.5,0,0-.2-.1-.4-.2.4.5.8,1,1.2,1.6,1.9,3.3-1.3,7.5-1,11,0,.6.2,1.2.4,1.8.2.6.5,1.2.8,1.8.3.5.7,1.3,1.2,2.2,5.3,10.2,21.5,43.6,27,45.3Z"/>
    <path class="st34" d="M151.5,224.2c-.8-.6-1.9-.8-2.9-.8-.5,0-1,0-1.5-.1,0-.8.1-1.6.2-2.4.2-2.6.5-5.2.6-7.8.2-4.2.1-8.5-.8-12.7-.9-4.2-2.6-8.2-5.4-11.5-1.4-1.7-2.9-3.1-4.5-4.5-1.6-1.4-3.3-2.7-5.1-3.8-3.6-2.3-7.4-4.2-11.3-5.9-3.9-1.7-7.8-3.3-11.9-4.5-4-1.3-8.2-2.3-12.3-3.1-.2,0-.4,0-.6,0,1.5-2.4,3-4.2,4.5-5-4.6-.4-9.8.4-12.8,1-9,1.9-17.4,6.5-23.8,13-3.8,3.9-6.8,8.3-9.3,13.1,1,.8,2,1.5,3.1,2.1,1,.6,2.1,1.1,3.2,1.5,1.3-3.8,3.1-7.5,5.6-10.7,6.7-8.6,17.3-13.4,27.8-12.2.5-1,.9-1.8,1.4-2.7.2,0,.5,0,.7.1,4.2.8,8.3,1.8,12.3,3.2,4,1.3,7.9,2.9,11.8,4.6,3.8,1.8,7.6,3.7,11.1,6,3.5,2.3,6.9,4.9,9.6,8.1,2.7,3.2,4.5,7.1,5.4,11.2.9,4.1,1,8.4.9,12.6,0,2.6-.2,5.2-.4,7.8,0,.8-.1,1.6-.2,2.4-.5,0-.9,0-1.4,0-1.9,0-3.9,0-5.8.3-1.8.3-3.6.8-5.2,1.7,0,0-.2.1-.2.2,0,0,0,.1.1.2,0,0,0,0,.1,0,1.9,1.1,3.9,2.1,5.9,2.9,2.1.8,4.1,1.6,6.3,2.2.6.2,1.2.4,1.8.6.6.2,1.2.4,1.8.5.2,0,.4,0,.5,0,.2-.2.2-.5.2-.8,0-.4-.1-.8-.2-1.2,0,0,0-.2,0-.3,0-1,0-1.9.2-2.9,0-.3.1-.5.2-.8,0-.2.2-.4.3-.6,0-.4,0-.8-.4-1Z"/>
    <path class="st7" d="M148.4,229.5c0,.3.2.6.5.6.3,0,.4-.3.4-.5.3-1.2.4-2.5.2-3.7,0-.2-.1-.7-.4-.8-.5-.2-.6.6-.6.9-.3,1.2-.3,2.4-.1,3.6h0Z"/>
  </g>
  <g id="freepik--Character--inject-257">
    <path class="st5" d="M203.4,245.2c-.4,2-.7,3.6-5.2,5.3s-4.9,3.2-3.8,7c.8,2.2-.3,4.6-2.5,5.3-1,.4-2.1.3-3.1-.1-3.4-1.3-5.1,1.9-5.1,1.9,0,0,2,4.1,8.3,9.4s24.8,5.6,29.9-2.4c5.1-8.1-1.2-8.4-2.2-11.5s.4-1.3.7-5.4-1.6-6.7-1.3-9.8c0,0-2.4-6.3-9.3-6-4.9.2-6.5,6.2-6.5,6.2Z"/>
    <path class="st5" d="M185.3,256.1c-2.1,0-3.9-1.6-4-1.7s0-.2,0-.3.2,0,.3,0h0s2.1,1.9,4.1,1.5c1.1-.2,2-1,2.8-2.5,1.8-3.6,3.9-3.5,6.5-3.3,1.5.2,2.9.1,4.4-.2,4.7-1,4.8-5,4.8-5.2,0-.1,0-.2.2-.2.1,0,.2,0,.2.2,0,0,0,0,0,0,0,0,0,4.5-5.1,5.6-1.5.3-3,.3-4.5.2-2.6-.2-4.4-.3-6.1,3.1-.8,1.6-1.8,2.5-3.1,2.7-.2,0-.3,0-.5,0Z"/>
    <path class="st4" d="M219.5,262.7c3.7.5,8.6,16,10.2,18.9,1.2,2.2,11.6,15.5,11.6,15.5,0,0,7.6.8,7.1,2s-2.1,3.4-3.2,3.8-5.1-1.8-5.6-2.5c-.3-.7-.6-1.4-.7-2.1,0,0-10.6-11.2-12.1-13.7-1.1-1.9-8.7-14.4-8.7-14.4,0,0-1.3-1.4-.7-4s2-3.4,2-3.4Z"/>
    <path class="st17" d="M224.6,280.8c-1.8-3-4.2-7-5.5-9.1l2-2.5c.2.3,4.2,5.5,3.5,11.6Z"/>
    <path class="st4" d="M209,319.4c-.7,2.1-1.3,4.1-1.9,6.2-2.8,10.3-4,22.5-4,22.5-7.9,17.7-13,44.1-13,44.1l3.2.9,19.1-47.4,5.6-16.3-9.1-10.1Z"/>
    <path class="st5" d="M189.9,389.8c.2-.4,4.8,2,4.8,2,0,0,1.6,4.3,4.2,6.2,2.6,1.9.2,2.9-3,1.5l-7.9-3.4c-2.3-1,0-2.3,1.8-6.3Z"/>
    <path class="st0" d="M195,392.6h0c0,0,0,0,0,0h0s0,0,0,0h0s0,0,0,0c0,0,.9-1,1.7-1,.2,0,.4.1.6.3.2.2.2.4.1.5s-.6.3-1.1.4c.4,0,.7.3,1,.6,0,.1.1.3.1.4,0,.3-.2.4-.3.5-.2,0-.3,0-.5,0-.7-.4-1.2-.9-1.7-1.5ZM195.5,392.7c.6.6,1.3,1.2,1.6,1.2,0,0,.1,0,.1-.2,0,0,0-.2,0-.2-.1-.2-.3-.3-.5-.4-.4-.2-.8-.3-1.2-.3ZM196.7,391.8c-.5,0-.9.3-1.3.7.8,0,1.7,0,1.8-.2,0,0,0-.2-.1-.2,0,0-.1-.1-.2-.2,0,0-.1,0-.2,0h0Z"/>
    <path class="st5" d="M222.9,318.8c-.7,6.1-2.1,12-4.3,17.7-2.4,6.1-5.1,10.7-6.9,15.4-3.4,8.3-12.1,27.9-12.1,27.9l-6.6-4.6s9.2-24.9,9.7-29.8c.3-3.1,0-19.9,0-31.3-.1-6.2-.2-10.9-.2-10.9l17.7-15.3c3.1,10,4.1,20.5,2.9,30.9Z"/>
    <path class="st17" d="M218.6,336.5c-2.4,6.1-5.1,10.7-6.9,15.4-3.4,8.3-12.1,27.9-12.1,27.9l-6.6-4.6s9.2-24.9,9.7-29.8c.3-3.1,0-19.9,0-31.3l5-11.5,7.1,2.5-1.9,8.9,6,22.6Z"/>
    <path class="st4" d="M212.7,355.3c5.5,18.1,15.4,39.4,15.4,39.4l3.1-1.3-10.7-38.4-7.8.3Z"/>
    <path class="st5" d="M226.3,393.1c-.1-.4,5-1.5,5-1.5,0,0,4,2.2,7.2,2.1s2,2.1-1.3,3.1l-8.2,2.4c-2.4.6-1.5-1.8-2.6-6Z"/>
    <path class="st0" d="M232,392h0s0,0,0,0h0s0,0,0,0c0,0,0-1.3.7-1.8.2-.1.4-.2.7-.2.3,0,.4.2.4.3,0,.3-.2.6-.5,1,.4-.2.8-.2,1.2-.2.2,0,.3.1.4.3.1.2.1.4,0,.6-.1.1-.2.2-.4.2-.8.1-1.6,0-2.3-.1ZM232.5,391.8c.8.1,1.8.1,2-.1,0,0,0,0,0-.3,0,0-.1-.1-.2-.1-.2,0-.4,0-.6,0-.4.1-.8.3-1.1.5ZM232.8,390.3c-.3.4-.5.8-.5,1.3.7-.5,1.3-1.1,1.2-1.3,0,0-.1-.1-.2-.1,0,0-.2,0-.2,0,0,0-.1,0-.2.1Z"/>
    <path class="st5" d="M200.7,286.7s-6.5,15.2-3.4,29.1c3,14,11.3,31.7,13.5,36s10.8,29.9,10.8,29.9l6.5-2.4s-6.9-25.5-9.1-34.4c-1-4.2-9.7-34.1-9.7-34.1,0,0,12.4-10,10.9-24.8l-19.5.5Z"/>
    <polygon points="207.8 289.8 218 289.5 218 286.5 207.8 287 207.8 289.8"/>
    <polygon points="218.9 286.4 218.9 289.5 219.9 289.5 220.1 286.4 218.9 286.4"/>
    <polygon points="206.9 287 201.5 287.3 201.3 289.9 206.9 289.8 206.9 287"/>
    <rect class="st8" x="211.7" y="286.9" width="4" height="3" transform="translate(-11.1 8.6) rotate(-2.2)"/>
    <path class="st4" d="M197.3,263.3s12.7-3.3,23.5.4c.7,7.6.4,15.2-.7,22.7l-19.6.9s.9-5.4-3.9-15.5l.7-8.5Z"/>
    <path class="st4" d="M211.7,265.7c-4.6-.9-5.8-3-5.8-3,2-1.6,1.9-4.3,1.5-5.9-.1-.5-.3-1-.4-1.5l5.5,1.4c-.2.8-.3,1.5-.4,2.3,0,.6,0,1.2,0,1.7.3,1.7,1.2,1.8,1.2,1.8.8,1.9-1.6,3.2-1.6,3.2Z"/>
    <path class="st17" d="M212.1,259c0,.6,0,1.2,0,1.7-2.2-.5-3.7-2.3-4.6-3.9-.1-.5-.3-1-.4-1.5l5.5,1.4c-.2.8-.3,1.5-.4,2.3Z"/>
    <path class="st4" d="M212.5,241.3c4.8.5,6.1,3.3,5.9,8.3-.3,6.2-2.1,10.5-8,8.5-8-2.7-5.9-17.6,2.1-16.7Z"/>
    <path class="st25" d="M215.3,248.9c.3.8.7,1.5,1.2,2.1-.3.4-.8.5-1.3.4l.2-2.5Z"/>
    <path class="st5" d="M212.4,248.2c0,.4-.3.7-.6.7s-.4-.4-.4-.8.3-.7.6-.7.4.4.4.8Z"/>
    <path class="st5" d="M211.9,247.5l.9-.3s-.5.7-.9.3Z"/>
    <path class="st5" d="M217.3,248.6c0,.4-.3.7-.6.7s-.4-.4-.4-.8.3-.7.6-.7.4.4.4.8Z"/>
    <path class="st5" d="M216.8,247.8l.9-.3s-.5.7-.9.3Z"/>
    <path class="st5" d="M210.5,245.6c0,0-.1,0-.2,0,0,0,0-.2,0-.3.7-.5,1.5-.7,2.4-.5.1,0,.2.1.2.2s-.1.2-.2.2c-.7-.2-1.4,0-2,.4,0,0,0,0-.1,0Z"/>
    <path class="st5" d="M218.1,245.9c0,0-.1,0-.1,0-.4-.4-1.1-.6-1.7-.6-.1,0-.2,0-.2-.2,0-.1,0-.2.2-.2.7-.1,1.5.1,2.1.7,0,0,0,.2,0,.3,0,0,0,0-.1,0Z"/>
    <path class="st5" d="M206.3,248.8s2.7-3.7,2.7-6.8c0,0,9.9-2.8,9.3,6.9,0,0,1.9-8.5-6.3-9.6s-9.5,11-5.7,15c0,0-1.7-3.3,0-5.6Z"/>
    <path class="st4" d="M207,249.9c0-1.2-.9-2.1-2.1-2.2-1.5,0-2.6,3,1.1,4.1.5.2.9-.3,1-1.9Z"/>
    <path class="st5" d="M212.3,252.1c0,0,.2,0,.2.1.4.6.9,1.1,1.5,1.3.1,0,.2.2.1.3,0,.1-.1.2-.3.1,0,0,0,0,0,0-.7-.3-1.4-.8-1.8-1.5,0,0,0-.2,0-.3,0,0,0,0,0,0,0,0,0,0,0,0Z"/>
    <path class="st0" d="M219.2,244.3s-.5-4.4-1.4-5c-3.4-2.4-8.1-3.1-11.3-1.8s-3.1,7.7-3.1,7.7l2.8-.5,13-.4Z"/>
    <path class="st9" d="M219.2,244.3s-.5-4.4-1.4-5c-3.4-2.4-8.1-3.1-11.3-1.8s-3.1,7.7-3.1,7.7l2.8-.5,13-.4Z"/>
    <path class="st8" d="M206.6,244.6c0-.2.4-4.6,1.6-5.6s5.2-1.7,5.2-1.7c0,0,3.9,1.5,4.7,2.6s1.1,5,1.1,5l-12.6-.3Z"/>
    <path class="st0" d="M206.6,244.6s11.9,2.5,16.6,2.1-4.7-2.7-4.7-2.7c0,0-7.4-2.2-11.8.6Z"/>
    <path class="st17" d="M200.6,272.1c-.8,3.4-2,4.5-2,4.5-.5-1.4-1.3-4.4-1.4-5.1-.1-.6,1.8-1.8,1.6-2.4.5,0,1.2-1,1.7-1,.3,1.3.4,2.6.2,4Z"/>
    <path class="st4" d="M197.9,263.3c-3.6-.6-13,12.7-15.4,15.1-1.8,1.7-17.8,1.5-17.8,1.5,0,0-7.6-3.8-7.5-2.5s-.8,3.3.2,4.1,6.7,2.6,7.3,2.1,1.3-1.2,1.3-1.2c0,0,16.1,1.6,18.3-.3,1.6-1.5,12.6-11.2,12.6-11.2,0,0,1.7-1,1.9-3.7s-.9-3.9-.9-3.9Z"/>
    <path class="st5" d="M202.1,262.1s1.9,3,.7,8.4l2.6-.5s.5-5.5-1.8-8h-1.5Z"/>
    <path class="st0" d="M191.4,265.9s20.6,3.8,25.9-4.3c2,.5,3.9,1.3,5.7,2.2,0,0,.4,9.8-.7,16.7l-23.5,4.3-2.7-9.8s-8.7,0-10.6-2.6l5.9-6.4Z"/>
    <path class="st0" d="M236.5,295.9l2.3-2.2c.2-.2.4-.1.6,0,0,0,0,0,0,0l1.6,2c.1.2.1.4,0,.5l-2.1,2.2c-.2.2-.4.2-.6,0l-1.8-1.9c-.1-.2-.1-.4,0-.6,0,0,0,0,0,0Z"/>
    <path class="st5" d="M234.4,293.7l2.4-2.5c.2-.2.4-.2.6,0,0,0,0,0,0,0l1.3,1.8c.1.2.1.4,0,.5l-2.2,2.2c-.2.2-.4.2-.6,0,0,0,0,0,0,0l-1.5-1.5c-.2-.2-.2-.4,0-.6h0Z"/>
  </g>
  <g id="freepik--characters-3-and-4--inject-99">
    <path class="st20" d="M251.9,294.9s-2.4,1.5-2.2,2.2,1.1,3.1,1.1,3.1l2.9.2,1.6-.2s1.2-1.6.9-1.8-1.3,0-1.3,0v-1.4s.3,0,.9-.7c.4-.6.6-1.3.7-1.9l1.1-11.3.2-4.3,1.8-9.1-5.3-1s-.3,6.3-.5,7.2-1.7,5.6-1.5,6.8,1,11.9,1,11.9l-1.2.5Z"/>
    <path class="st0" d="M279.4,347.8l-.3,7.5s7.5,2.8,7.6,4.2h-14.6s0-11.8,0-11.8h7.3Z"/>
    <path class="st24" d="M274.6,354.6c-.3,0-.5.4-.4.7,0,.3.4.5.7.4.3,0,.5-.4.4-.7-.1-.3-.4-.5-.7-.4"/>
    <path class="st5" d="M272.1,359.4v-1.2s14,.5,14,.5c0,0,.6.3.6.7h-14.6Z"/>
    <path class="st5" d="M279.3,355.2c0,0-.4.1-.7.3s-.5.5-.6.5,0-.4.5-.7.9-.2.8-.1Z"/>
    <path class="st5" d="M280.8,355.8c0,0-.3.2-.5.5s-.3.6-.4.6-.1-.4.2-.8.7-.4.7-.3Z"/>
    <path class="st5" d="M281.7,357.7c0,0-.2-.3,0-.7s.5-.5.5-.5-.2.3-.3.6-.2.6-.2.6Z"/>
    <path class="st5" d="M270.2,232c0-.7-.9-1.1-1.6-1-2,.3-3.3,2-4.4,3.7-.6.9-1.1,1.9-1.5,3-.5,1.6-.9,3.2-1,4.8-.7,6.1-.8,12.3-.4,18.4,0,.3,0,.7.3.9.2.2.5.3.8.4,2.1.6,4.3.7,6.4.3.5,0,1-.3,1.4-.6.5-.5.6-1.2.7-1.8.3-3,.4-6.1.2-9.1-.2-6.2-.5-12.3-1.1-18.5,0-.4,0-.8.3-.9"/>
    <path class="st5" d="M260.1,285.5l-.2,1c-.1-.2-2.3,6.4-3.2,14.4-.7,5.9-.2,15.3,0,17.2.6,6.5.9,13.8.9,13.8l8.9.6c.1-.3,3.1-25.6,3.1-25.6l.6-3v-16.2l-10-2.2Z"/>
    <path class="st5" d="M269.1,301c.1.7,1.6,18.8,1.6,18.8l1,34.3h9.1c0,0,1.2-11.3,1.3-21.7,0-7,0-9.9,0-14.5s1.6-7.6,1.6-15.1c0-7.6-.7-18.2-.7-18.2l-12.8,3-1.1,13.4Z"/>
    <path class="st30" d="M269.3,305.4c0-.1,0-.3,0-.5,0-.3-.1-.7-.1-1.3,0-1.1,0-2.5,0-4.1s0-3.1,0-4.1-.2-1.7-.2-1.7c0,.1,0,.3.1.4,0,.3.1.7.2,1.2.1,1.4.2,2.8.1,4.1,0,1.6,0,3.1,0,4.1s.1,1.7,0,1.7Z"/>
    <path class="st30" d="M271.3,293.9s0,0,.2,0c.1.1.3.3.3.4,0,.3,0,.6-.2.8-.2.3-.6.4-1,.3-.3-.1-.6-.4-.6-.8,0-.3.1-.6.4-.7.2-.1.3-.2.5-.2.1,0,.2,0,.2,0-.2,0-.4.1-.6.2-.2.1-.3.4-.2.6,0,.3.2.5.4.6.3,0,.5,0,.7-.2.2-.2.2-.4.2-.6,0-.2-.2-.4-.4-.5Z"/>
    <path class="st30" d="M281.7,295c-.3,0-.6.1-.9.1-.7,0-1.4,0-2.1-.2-.7-.2-1.4-.4-2-.8-.3-.1-.5-.3-.7-.5,0,0,1.2.7,2.8,1s3,.2,3,.2Z"/>
    <path class="st30" d="M264.4,293.8c-.2.2-.5.4-.8.6-1.4.8-3,1-4.6.8-.3,0-.6-.1-.9-.3,1.1.2,2.2.2,3.2,0,1.1-.2,2.1-.6,3.1-1.1Z"/>
    <path class="st20" d="M287.4,272s2.2,3.6,3.7,4.2c.2,0,.3.1.5.2,2.3.5,4.5-.9,5.2-3.1l5.4-16.9-3.9-1.9-6,13.1-4.9,4.3Z"/>
    <path class="st0" d="M284.2,255.4c1.5.8,2.7,2,3.6,3.4,1.4,2.3,4.5,8.9,4.5,8.9,0,0-4,4.5-5.6,4.5l-3.6-6.8,1.1-10Z"/>
    <path class="st0" d="M262.2,252.7s-3.3,12-2.9,15c.4,3,1.7,3.9,1.7,3.9l.3,6.3-3,11.3s1.5,1.7,5.5,2.4c4.6.8,19.6-.7,19.6-.7l-1-5-.4-13.6,3.4-16s-.3-1-5.1-2.1-18.1-1.4-18.1-1.4Z"/>
    <path class="st5" d="M271.9,273c0,0-1.4-.2-3-.2s-3,0-3.1,0c.3,0,.6-.1.9-.2.7,0,1.4-.1,2.2,0,.7,0,1.4,0,2.2.2.3,0,.6.1.9.2Z"/>
    <path class="st5" d="M278.8,272.2c-.2.2-.4.4-.6.5-1.1.7-2.4,1-3.7.8-.3,0-.5-.1-.8-.2.9.1,1.8.1,2.6,0,.9-.2,1.7-.6,2.4-1.1Z"/>
    <path class="st0" d="M262.3,252.8s-4.2.6-5.9,6.2-2.5,9.4-2.5,9.4l5.9,1.8,2.4-17.4Z"/>
    <g class="st23">
      <path d="M256.8,266.7c.2-.4.5-.8.9-1,.2,0,.4-.2.5-.3,0-.1.1-.3.1-.4.3-1.9.2-3.9.9-5.7.4,2.5.6,5.1.6,7.7,0,.4,0,.9-.4,1.2-.4.3-1,0-1.4-.4-.4-.3-.8-.7-1.1-1"/>
    </g>
    <path class="st5" d="M263.7,272.5s-.1,0-.3,0c-.3,0-.5-.1-.8-.2-1.7-.7-3-2.2-3.3-4.1,0-.3,0-.5,0-.8,0-.2,0-.3,0-.3s0,.4.1,1.1c.3,1.8,1.5,3.3,3.2,4,.6.3,1.1.3,1.1.4Z"/>
    <path class="st5" d="M259.2,256.4c0,.4.1.9.1,1.3,0,.8.1,1.9.1,3.1s0,2.3,0,3.1c0,.4,0,.9,0,1.3,0-.4-.1-.9-.1-1.3,0-.8-.1-1.9-.1-3.1s0-2.3,0-3.1c0-.4,0-.9,0-1.3Z"/>
    <path class="st5" d="M275.9,284.4c-.2,0-.4,0-.6,0-.4,0-.9-.2-1.5-.3-3.4-.9-6.5-2.4-9.3-4.5-.5-.4-.9-.7-1.2-1-.1-.1-.3-.3-.4-.4.2,0,.3.2.5.3.3.2.7.6,1.3.9,2.8,2,5.9,3.6,9.3,4.5.6.2,1.2.3,1.5.4.2,0,.4,0,.5.2Z"/>
    <g class="st23">
      <path d="M266.2,282.2h0s0,0,0,0h0Z"/>
      <path d="M273.3,285c-1-.3-1.9-.6-2.8-1l-4.2-1.7c.5,1.1,1.4,2,2.4,2.6,1.1.6,2.2,1.1,3.4,1.4.6.2,1.2.3,1.9.4,1.2,0,2.4-.2,3.3-.9-1.3-.1-2.7-.3-4-.7Z"/>
    </g>
    <g class="st23">
      <path d="M261.5,271.8c1.4,2.1,4.2,2.6,6.3,1.2.3-.2.5-.4.8-.7-1.1,0-2.2,0-3.2.1-.6,0-1.1.1-1.7,0-.5,0-.9-.2-1.3-.5l-.8-.4"/>
    </g>
    <path class="st24" d="M255.8,268.7l-5.3,41.1s-.5,14.1-.5,14.9-2.4,19.5-2.4,19.5l-1.5,11.6,2.4-.5s4.5-32.6,4.5-32.9,2.1-8.3,2.3-9.3c.2-.9,5-35.2,5.5-41.9,0-.2-.1-.4-.2-.6l-.5-1.1-1-.2-5.3,43.5-2.1,8.6.6-12.4,5.2-40.5h-1.6Z"/>
    <path class="st5" d="M255.8,268.7h1.6c-.5,4.3-2.4,18.9-5.2,40.5h0c-.2,3.9-.4,8.1-.6,12.4h-.2c.7-2.7,1.4-5.6,2.1-8.6h0c1.6-13.1,3.4-27.8,5.3-43.5h0c0-.1.1-.1.1-.1l1,.2h0s.5,1.2.5,1.2h0c.1.1.2.3.2.5,0,0,0,.2,0,.3v.2s-.1,1-.1,1l-.2,2c-.1,1.3-.3,2.7-.5,4-.3,2.7-.7,5.4-1,8.1-.7,5.5-1.5,11.1-2.3,16.7-.3,2.3-.7,4.6-1,6.8,0,.6-.2,1.1-.2,1.7,0,.6-.2,1.1-.3,1.7-.3,1.1-.5,2.2-.8,3.3-.3,1.1-.6,2.2-.8,3.3-.1.5-.3,1.1-.4,1.6v.4c-.1.1-.1.3-.1.4v.8c-.4,2.2-.7,4.4-1,6.6-1.2,8.7-2.3,17.1-3.4,25.2h0c0,0,0,0,0,0l-2.4.5h-.1s0-.1,0-.1c1.1-8.7,2.2-16.9,3.2-24.6.2-1.9.5-3.8.7-5.7.1-.9,0-1.8.1-2.8s0-1.8,0-2.7c.1-3.6.2-7,.3-10.3h0c1.7-12.7,3-23,3.9-30.1.5-3.5.8-6.3,1.1-8.2.1-.9.2-1.6.3-2.1s.1-.7.1-.7c0,0,0,.3,0,.7s-.2,1.2-.3,2.1l-1,8.2c-.9,7.2-2.2,17.4-3.8,30.1h0c-.1,3.3-.2,6.7-.3,10.3,0,.9,0,1.8,0,2.7,0,.5,0,.9,0,1.4,0,.5,0,.9,0,1.4-.2,1.9-.4,3.7-.7,5.7-1,7.7-2,15.9-3.1,24.6h-.1c0-.1,2.4-.6,2.4-.6h0c1.1-8,2.2-16.4,3.4-25.1.3-2.2.6-4.4.9-6.6v-.8c.1-.1.1-.3.2-.4v-.4c.2-.5.4-1.1.5-1.6.3-1.1.6-2.2.8-3.3s.6-2.2.8-3.3c.1-.6.2-1.1.3-1.7,0-.6.2-1.1.2-1.7.3-2.3.6-4.6,1-6.8.8-5.7,1.6-11.2,2.3-16.7.4-2.7.7-5.4,1-8.1.2-1.3.3-2.7.5-4,0-.7.1-1.3.2-2v-1c.1-.2.1-.3,0-.5,0-.1-.1-.3-.2-.4h0c-.2-.4-.4-.8-.5-1.1h0c0,0-1,0-1,0h.1c-1.9,15.6-3.7,30.3-5.3,43.4h0l-2.1,8.6h-.2c.2-4.4.4-8.5.6-12.4h0c2.8-21.6,4.7-36.2,5.3-40.5h-1.6Z"/>
    <path class="st30" d="M259.4,267.2s-3.2-1-3.8-.7-1.1,1.1-1,2.1,5.9,2.1,5.9,2.1c-.6-1.1-1.2-2.3-1.1-3.5Z"/>
    <path class="st5" d="M253.6,296.7l2.3.3s.7.7,0,1.3h-2.5l.2-1.6"/>
    <path class="st30" d="M246,354.3h2.6l.7,5.1s-4.3,0-4.3,0,1-5.1,1-5.1Z"/>
    <polygon class="st24" points="280.8 268.4 284.9 357.6 286.7 357.6 283.7 293.9 283 268.4 280.8 268.4"/>
    <path class="st5" d="M280.8,268.4h2.2c0,2.2.2,6.2.4,11.5,0,2.7.2,5.7.3,9,0,1.7.1,3.4.2,5.2,0,1.8.1,3.7.3,5.7.7,15.7,1.7,35.7,2.7,57.6v.2h0c0,.1-2,.1-2,.1h0c-1.1-24.9-2.1-47.2-2.8-63.3-.4-8.1-.6-14.6-.8-19.1,0-2.2-.2-4-.2-5.2,0-.6,0-1,0-1.3s0-.5,0-.5c0,0,0,.2,0,.5s0,.8,0,1.3c0,1.2.1,2.9.2,5.2.2,4.5.5,11,.9,19.1.7,16.1,1.8,38.4,2.9,63.1h-.1c0,0,1.8,0,1.8,0h-.1s0,0,0,0c-1-21.8-1.9-41.9-2.6-57.6,0-2-.2-3.8-.3-5.7,0-1.8-.1-3.6-.1-5.2,0-3.3-.2-6.4-.2-9-.1-5.3-.2-9.3-.3-11.5h0s-1.6,0-1.6,0h-.5Z"/>
    <path class="st30" d="M283.8,266.8c-1-.2-2.1-.3-3.1-.4-.3,0-.6,0-.8.2,0,.1-.1.2-.1.4,0,.3,0,.7,0,1,0,.2,0,.4.2.6.1.1.3.2.5.2.6,0,1.1,0,1.7,0,1,0,2,0,3,.2"/>
    <path class="st30" d="M284.6,355.1h2.6l.6,4.4s-3.8,0-3.8,0,.6-4.4.6-4.4Z"/>
    <path class="st5" d="M268.7,231.1c-1.7-.4-4.1,1.1-4.4,1.5-.4.6-.7,1.1-1,1.8-.4.8-1.2,1.3-1.3,2.2,0,.6.2,1.2,0,1.8-.2.7-1.1,1-1.3,1.7s.3,1.3.2,2c-.1,1-1.3,1.5-1.7,2.5s.3,2.2-.1,3.2c-.3.7-.5,2.5-1.1,3s-.7,4.7-.3,5.3c1.5-1.8,2.6-2.7,5-3.4-.2-5-.5-10.6.8-15.4.4-1.5,4.5-4.7,5.1-6.2Z"/>
    <path class="st5" d="M272.6,231.2c1.6.6,2.9,1.7,3.7,3.2.4.7.7,1.5,1.3,2.1.4.3.8.6,1.1,1,.5.8,0,1.9.4,2.8.3.8,1.1,1.3,1.4,2s0,1.6,0,2.4-.2,1.7.4,2.3c.1.1.3.3.4.4.1.2.2.4.2.6,0,1.2-.6,2.5,0,3.5.2.3.4.5.6.8.4.8-.1,1.8.3,2.5.2.4.7.9.4,1.2l-5.1-2.2-5.1-22.8Z"/>
    <path class="st5" d="M268.8,232c.5-.6,1.2-1,1.9-1,.8,0,1.5.1,2.2.4,1.7.8,3.1,2.2,3.9,3.9.8,1.7,1.4,3.5,1.7,5.3.5,2.3.8,4.7,1,7.1,0,.7.4,6,.5,7"/>
    <path class="st20" d="M275,255.8c.6-.8.9-1.9.9-2.9v-16.3c0-.7-.6-1.3-1.3-1.3l-5-2h-1.3c-2.9.1-5,3.4-5,5.8,0,2.6,0,5.9.4,7.8.8,3.9,3.9,4.3,3.9,4.3,0,0,0,.6.1,2,0,0,1,4.7,7.3,2.7"/>
    <path class="st5" d="M265,241.4c0,.3.2.5.5.5.3,0,.5-.2.5-.5,0,0,0,0,0,0,0-.3-.2-.5-.5-.5-.3,0-.5.2-.5.5,0,0,0,0,0,0Z"/>
    <path class="st5" d="M264.1,240.4c0,0,.4-.2,1-.3s1,.2,1,.2,0-.1-.2-.3c-.2-.1-.5-.2-.8-.2-.3,0-.6.1-.8.3-.2.1-.2.3-.2.3Z"/>
    <path class="st5" d="M270.1,241.2c0,.3.2.5.5.5.3,0,.5-.2.5-.5,0,0,0,0,0,0,0-.3-.2-.5-.5-.5-.3,0-.5.2-.5.5,0,0,0,0,0,0Z"/>
    <path class="st5" d="M269.5,240.1c0,0,.4-.2,1-.3s1,.2,1,.2,0-.1-.2-.3c-.2-.2-.5-.2-.8-.2-.3,0-.6.1-.8.3-.2.1-.2.3-.2.3Z"/>
    <path class="st5" d="M267.7,244.6c-.3,0-.6-.1-.9-.1-.1,0-.3,0-.3-.1,0-.1,0-.3,0-.4l.4-1.1c.3-.9.6-1.9.8-2.8-.4.9-.7,1.8-1,2.8l-.3,1.1c0,.2,0,.4,0,.6,0,0,.1.2.2.2,0,0,.2,0,.2,0,.3,0,.6,0,.9,0Z"/>
    <path class="st35" d="M267.7,251.1c1.9,0,3.7-.6,5.2-1.7,0,0-1.2,2.8-5.2,2.6v-1Z"/>
    <path class="st35" d="M268,246c.2-.3.5-.4.9-.4.2,0,.5.1.6.3.2.2.2.4,0,.6-.2.2-.4.3-.7.2-.3,0-.5-.2-.7-.4,0,0-.1,0-.2-.2,0,0,0-.1,0-.2"/>
    <path class="st5" d="M269.3,244.9c0,0,0,.6-.5,1s-1.1.4-1.1.5.1.1.4.1c.3,0,.7-.1.9-.4.3-.2.4-.5.4-.9,0-.3,0-.4-.1-.4Z"/>
    <path class="st5" d="M268.7,238.5c0,.1.6,0,1.2-.1s1.2,0,1.2-.2c0,0-.1-.2-.3-.3-.6-.2-1.3-.1-1.9.2-.2.2-.3.3-.3.4Z"/>
    <path class="st5" d="M264,238.8c.1.1.5,0,.9,0s.8,0,.9,0c0,0,0-.2-.2-.3-.5-.3-1.1-.2-1.5.1-.2.1-.2.3-.2.3Z"/>
    <path class="st20" d="M275.2,243.3c0-.3.3-1,.6-1.1.8-.2,2.2-.2,2.3,1.8.2,2.7-2.6,2.3-2.6,2.2s-.2-2-.3-3Z"/>
    <path class="st35" d="M276.2,245.2s0,0,.1,0c.1,0,.2,0,.4,0,.3-.2.5-.7.5-1.1,0-.2,0-.5-.2-.7,0-.2-.2-.3-.4-.3-.1,0-.2,0-.3.1,0,0,0,.1,0,.1s0,0,0-.2c0,0,0-.1,0-.2,0,0,.2,0,.3,0,.2,0,.4.2.5.4.1.2.2.5.2.7,0,.5-.2,1-.6,1.2-.1,0-.3,0-.4,0,0,0-.1-.2,0-.2Z"/>
    <path class="st5" d="M270,233.1c2,2.7,4.1,5.7,6.1,8.4.4-1.3.7-3.3.4-4.6-.2-1.4-.9-2.6-2-3.4-1.1-.8-3-1-4.3-.5"/>
    <path class="st5" d="M278.7,254.3c0,0,.1,0,.1-.1.2-.8-2.2-5.2-2.1-6.1.1-1,.2-1.9.2-2.9,0-1.1-.2-2.1-.4-3.2-.1-.5-.3-1-.4-1.5-.2-.5-.4-.9-.7-1.4-.5-.8-1-1.5-1.6-2.2-.5-.6-1.1-1.1-1.5-1.6l-.2-.2v-.2c-.1,0-.4-.4-.4-.4-.2-.2-.4-.5-.6-.7-.1,0-.2-.2-.3-.3,0,0-.1,0-.2-.1h-.2c-.2-.2-.4-.3-.6-.4-.3-.1-.7-.2-1-.1-.2,0-.3.1-.3.2s.1.1.3.2c.2,0,.5.2.7.4.1.1.3.2.5.4h.1c0,.1,0,.2.1.2,0,0,.1.2.2.2.1.2.3.4.4.7,0,.1.2.3.3.4,0,0,0,.1.1.2v.2c.6.6,1,1.2,1.5,1.8.5.6.9,1.3,1.3,2,.2.4.4.8.5,1.1.1.4.2.9.3,1.3.2.9.3,1.9.3,2.8,0,.9,0,1.7-.1,2.6,0,.8-.2,1.7-.4,2.5-.1.8-.2,1.7-.2,2.5,0,.8,0,.8.2,1.5l5.5.7c0-.2-.7-.5-1.4-.7Z"/>
    <path class="st5" d="M268.3,233c2.1,1.2,5.2,1.4,6.9-.1,0,.6-.4,1.1-.8,1.6-.4.5-.9.9-1.4,1.2-.7.2-1.3.2-2,0-.3,0-.7-.1-1-.2-.3-.2-.6-.4-.9-.7-.5-.5-1-1.1-1-1.7"/>
    <path class="st30" d="M273.2,234.4c0,0,0,.1-.2.2-.4.4-.9.7-1.4.9-.2,0-.4.1-.6.1-.2,0-.4,0-.6,0-.4,0-.8-.3-1.1-.5-.3-.2-.5-.4-.7-.7-.1-.2-.2-.4-.3-.6,0,0,0-.2,0-.2.1.3.2.6.4.8.2.3.4.5.7.6.3.2.7.4,1.1.4.2,0,.4,0,.6,0,.2,0,.4,0,.6-.1.3-.1.6-.3.9-.5.5-.3.7-.6.7-.6Z"/>
    <path class="st30" d="M274.8,233.7s0,.2-.1.5c0,.2-.1.3-.2.5-.1.2-.3.4-.5.5-.4.2-.8.3-1.2.2-.1,0-.2,0-.4-.1,0,0,0-.1,0-.1.1.1.3.2.4.2.4,0,.8,0,1.1-.2.2-.1.3-.3.5-.4,0-.2.2-.3.2-.5,0-.2.1-.3.2-.5Z"/>
    <path class="st30" d="M275.7,233.5s0,.1,0,.3c0,.2-.2.4-.4.5-.2.1-.4.2-.6.2-.2,0-.3,0-.3,0,0,0,.2,0,.3,0,.2,0,.4-.1.5-.2.2-.1.3-.3.4-.5,0,0,0-.2,0-.2Z"/>
    <path class="st30" d="M273.1,233.9c0,0-.1,0-.2,0-.2,0-.4,0-.5,0-.6-.1-1.1-.3-1.6-.5-.5-.2-1.1-.3-1.7-.3-.2,0-.5,0-.7.1,0,0,.1,0,.2,0,.2,0,.3-.1.5-.1.6,0,1.2,0,1.7.3.5.2,1.1.4,1.6.5.2,0,.5,0,.7,0Z"/>
    <path class="st30" d="M274.2,233.6s-.1,0-.3-.1c-.2-.1-.5-.2-.8-.2-.3,0-.5,0-.8.1-.2,0-.3.2-.3.1s0-.1.3-.2c.2-.1.5-.2.8-.2.3,0,.6.1.8.3.2.1.3.2.3.2Z"/>
    <path class="st30" d="M275.3,232.9c-.3,0-.6,0-.9,0-.3,0-.6.2-.8.3,0,0,0,0,.2-.2.4-.3.8-.3,1.2-.2.2,0,.3,0,.2,0Z"/>
    <path class="st30" d="M264,234.5h0c0-.2,0-.3.1-.3l.2-.2.3-.3c.1,0,.2-.2.3-.3.3-.2.6-.4.9-.6.2,0,.3-.1.5-.2.2,0,.3,0,.5,0,.3,0,.6,0,.8.1.2,0,.3.2.4.4,0,0,0,.1,0,.2h0q0,0,0,0s0,0,0-.1c0-.2-.2-.3-.4-.3-.3,0-.5-.1-.8,0-.2,0-.3,0-.5,0-.2,0-.3.1-.5.2-.3.1-.6.3-.9.5-.1,0-.2.2-.3.3l-.3.3c0,0-.2.1-.2.2s-.1.1-.2.2c0,0,0,0-.1.1h0s0,0,0,0h0Z"/>
    <path class="st30" d="M263.6,235.5s.1.1.3.3.4.2.4.2-.2,0-.4-.1-.3-.3-.3-.3Z"/>
    <path class="st30" d="M262.1,235.6s0,.1.2.3c.2.2.5.3.7.4.3,0,.6,0,.8-.2.2-.1.3-.2.3-.2,0,.1-.1.2-.3.3-.5.4-1.2.3-1.7-.2,0,0-.1-.2-.2-.3Z"/>
    <path class="st30" d="M263.4,234.4s0,0,0-.2c.1-.1.2-.2.4-.2.1,0,.3,0,.4,0,.1,0,.2,0,.2,0s0,0-.2,0c-.1,0-.3,0-.4,0-.1,0-.2,0-.3.1,0,0-.1.1-.1.1Z"/>
    <path class="st24" d="M262.3,240s0,0,0,.1c0,0,0,.2,0,.4,0,.2,0,.4,0,.6,0,.3,0,.5,0,.8,0,.3-.2.6-.4.9-.1.1-.2.3-.3.4,0,.1-.1.3,0,.5,0,.2.1.4.2.5,0,.2.1.4.1.6,0,.2,0,.4-.2.6-.1.2-.3.4-.4.5-.2.1-.3.3-.4.5-.1.2-.2.4-.1.6,0,.4.2.8.3,1.2,0,.2,0,.4,0,.6,0,.2-.1.4-.2.5-.1.1-.3.2-.5.2-.1,0-.3.1-.4.2-.2.2-.3.4-.4.7,0,.2,0,.4,0,.6,0,.3,0,.5,0,.5,0,0,0,0,0-.1,0-.1,0-.2,0-.4,0-.2,0-.4,0-.6,0-.3.2-.5.4-.7.1-.1.3-.2.4-.2.2,0,.3-.1.4-.2.2-.3.3-.7.2-1-.1-.4-.2-.8-.3-1.2,0-.2,0-.5.1-.6.1-.2.3-.4.5-.5.2-.1.3-.3.4-.5,0-.2.1-.4.1-.6,0-.2,0-.4-.1-.6,0-.2-.2-.4-.2-.6,0-.2,0-.4.1-.6.1-.1.2-.3.3-.4.2-.2.4-.5.4-.8,0-.3,0-.5,0-.8,0-.2,0-.4,0-.6v-.4c0,0,0-.1,0-.2Z"/>
    <path class="st30" d="M273,233.3c-.2-.2-.4-.4-.6-.6-.5-.4-1.2-.7-1.8-.8-.3-.1-.7-.1-1.1,0-.3,0-.6.2-.8.4-.4.3-.6.6-.6.6,0,0,0-.1.1-.2.1-.2.3-.3.4-.5.2-.2.5-.4.8-.5.4,0,.8,0,1.1,0,.7.2,1.3.5,1.8.9.2.1.3.3.4.4,0,0,0,.1.1.2Z"/>
    <path class="st30" d="M274.7,232.8c-.2-.3-.5-.6-.7-.8-.3-.3-.6-.5-1-.6-.4-.2-.9-.3-1.4-.3-.9,0-1.7.2-2.4.7-.3.2-.5.5-.7.8,0,0,0,0,0,0,0,0,0-.1.1-.2.2-.2.3-.4.6-.6.7-.5,1.6-.7,2.5-.7.5,0,1,.1,1.4.3.4.2.7.4,1,.7.2.2.4.4.5.6,0,0,.1.2.1.3Z"/>
    <path class="st30" d="M265.5,232c.1-.1.3-.2.4-.3.4-.3.8-.4,1.2-.4.2,0,.5,0,.7.2.2,0,.3.2.5.3.1.1.2.3.2.5,0-.2-.2-.3-.3-.4-.1-.1-.3-.2-.5-.3-.2-.1-.4-.2-.6-.2-.4,0-.8.1-1.2.4-.1,0-.3.2-.4.2Z"/>
    <path class="st5" d="M282,266.2c.6-.7,1-1.8.4-2.6-.2-.2-.5-.4-.7-.7-.5-.9,1-2,.7-3.1-.1-.5-.6-.8-.6-1.2,0-.7.6-1.2.8-1.8.4-1.1,0-1.6-.5-2.1l-7.9-2.6c-.5,2.7,1,3.3.5,5-.1.4-.4.8-.5,1.2-.3.9-.3,1.8,0,2.7.2.6.6,1.1.8,1.6.3,1.1,0,2.3-.4,3.4s-.6,2.4.1,3.3l7.9.2-.9-2.4c0-.1,0-.3,0-.4,0-.2.1-.3.2-.4Z"/>
    <path class="st24" d="M278.6,265.6h0c0-.1,0-.2,0-.3-.1-.3-.2-.6-.1-1,0-.2.1-.5.3-.7,0,0,.2-.2.3-.3.1,0,.2-.2.2-.3,0-.1,0-.3,0-.4,0-.1-.2-.3-.3-.4-.1-.1-.2-.3-.3-.4,0-.2-.1-.4-.2-.5,0-.4,0-.8.2-1.2.1-.2.2-.4.4-.5.2-.1.3-.3.5-.4.2-.2.2-.4.2-.6,0-.2-.1-.5-.2-.6-.1-.2-.3-.4-.4-.6-.1-.2-.2-.5-.1-.8,0-.5.4-1,.6-1.5.1-.2.1-.5,0-.8,0-.3-.2-.5-.3-.7,0-.1-.2-.2-.2-.4,0-.1-.1-.3-.1-.4,0-.3,0-.6,0-.9,0-.6.3-1.1.4-1.7,0-.3,0-.6,0-.9,0-.1,0-.3,0-.4,0-.1,0-.3-.2-.4-.1-.3-.3-.5-.4-.7,0-.1-.1-.3-.2-.4,0,0,0-.1,0-.2,0,0,0-.1,0-.2,0-.3,0-.6,0-.8,0-.3.1-.5.2-.8.2-.5.2-1,.2-1.5,0-.1,0-.2-.1-.4,0-.1,0-.2-.2-.3-.1-.2-.3-.4-.4-.6-.1-.2-.2-.4-.3-.7,0-.2,0-.5,0-.7,0-.4,0-.9-.2-1.3-.2-.3-.5-.6-.8-.9-.5-.5-1-.9-1.5-1.5-.3-.4-.6-.8-.9-1.3-.2-.3-.3-.6-.4-.9,0-.1,0-.2,0-.2,0,0,0,0,0,0,0,0,0,0,0,0s0,.1,0,.2c.1.3.2.6.4.9.3.5.5.9.9,1.3.4.5.9,1,1.5,1.5.3.2.6.5.8.9.1.2.2.4.2.6,0,.2,0,.4,0,.7,0,.2,0,.5,0,.7,0,.2.1.4.3.6.1.2.3.4.4.6.1.2.2.5.3.7.2,1.1-.5,2.1-.4,3.1,0,.5.4,1,.6,1.5,0,.1.1.3.2.4,0,.1,0,.3,0,.4,0,.3,0,.6,0,.9-.1.6-.3,1.1-.4,1.7,0,.4,0,.8.2,1.2,0,.1.1.2.2.4.2.2.3.5.4.8,0,.3,0,.6,0,.8-.2.5-.4.9-.6,1.4,0,.2,0,.5.1.7.1.2.2.4.4.6.1.2.2.4.2.7,0,.2,0,.5-.3.7-.2.2-.3.3-.5.4-.2.1-.3.3-.4.5-.2.3-.3.7-.2,1.1,0,.2,0,.4.2.5,0,.2.2.3.3.4.1.1.2.3.3.4,0,.1,0,.3,0,.5,0,.1-.1.3-.3.4-.1,0-.2.2-.3.3-.2.2-.3.4-.3.6,0,.3,0,.7.1,1,0,.1,0,.2,0,.2s0,.1,0,.1Z"/>
    <path class="st30" d="M277.7,256.9c0,0,0-.1-.1-.2,0-.2-.1-.4-.2-.7,0-.4,0-.7,0-1.1,0-.4.2-.9.3-1.4,0-.6,0-1.1-.1-1.7-.2-.6-.4-1.2-.6-1.8-.3-.6-.5-1.3-.7-2-.2-.7-.3-1.5-.3-2.3,0-.8.2-1.6.2-2.3,0-.7,0-1.4,0-2.1-.1-.6-.4-1.2-.9-1.7-.4-.5-.9-.8-1.2-1.2-.5-.6-1-1.3-1.3-2.1-.1-.3-.2-.5-.3-.6v-.2c0,0,0,0,0,0,0,0,0,0,0,0v.2c0,0,.4.6.4.6.4.7.8,1.4,1.4,2,.3.4.8.7,1.2,1.2.4.5.8,1.1.9,1.7.1.7.2,1.4.1,2.2,0,.7-.2,1.5-.2,2.3,0,.4,0,.8,0,1.2,0,.4.1.7.2,1.1.2.7.5,1.4.7,2,.3.6.5,1.2.6,1.9.1.6.2,1.1.1,1.7,0,.5-.2,1-.3,1.4,0,.3-.1.7,0,1.1,0,.3.1.6.2.9Z"/>
    <path class="st35" d="M271.8,239.5c0,0-.2-.1-.2-.1-.2,0-.5-.1-.7-.1-.3,0-.7,0-1,0,.3-.1.7-.2,1-.2.2,0,.5,0,.7.2.2,0,.2.2.2.2Z"/>
    <path class="st35" d="M265.7,239.9c0,0-.2-.1-.3-.1-.5-.1-1,0-1.4.2,0,0-.2.1-.2.2,0,0,0-.1.2-.3.2-.1.5-.2.7-.3.3,0,.5,0,.8,0,.2,0,.3.2.3.2Z"/>
    <path class="st35" d="M270.2,245.1s-.2-.2-.5-.3c-.1,0-.3,0-.4,0,0,0-.1,0-.2,0s0,0,.1-.1c.1,0,.3,0,.4,0,.2,0,.4.2.5.4Z"/>
    <path class="st35" d="M270.6,244.7s-.1-.2-.3-.3c-.1,0-.3-.1-.5-.1.2,0,.4,0,.5,0,.2,0,.3.2.3.4Z"/>
    <path class="st35" d="M267.8,236.9c-.2.2-.5.3-.8.4-.3,0-.6,0-.9,0,.3,0,.6,0,.9,0,.3,0,.5-.2.8-.3Z"/>
    <path class="st35" d="M267.3,236.7c-.2.1-.4.2-.6.3-.2,0-.4,0-.7,0,0,0,.3,0,.6-.1s.6-.2.6-.2Z"/>
    <path class="st24" d="M257.4,330s-1.1.3-1.4,2.4,1.1,20.1,1.1,20.1l-4.1,8.3s-.6.6-.1,2.2,6.1,2.9,7.6,2.2,5.1-6.7,5.7-7.9,1-10.8.8-11.7,1-14,.3-14.9c-.4-.6-9.8-.6-9.8-.6Z"/>
    <path class="st5" d="M257.4,330h3.5c1.1,0,2.5,0,4.1.1.4,0,.8,0,1.2.1.2,0,.4,0,.7.1.1,0,.2,0,.3.2,0,.1.1.2.1.3.1,1,.1,1.9.1,2.9,0,2-.2,4.2-.3,6.6,0,1.2-.1,2.4-.2,3.7,0,.3,0,.6,0,1,0,.2,0,.3,0,.5,0,.2,0,.3,0,.5,0,.7,0,1.3,0,2,0,1.3,0,2.7-.2,4.1s-.2,2.8-.4,4.3c0,.2,0,.4-.1.5,0,.2-.1.4-.2.5-.2.3-.4.6-.5,1-.4.6-.8,1.3-1.2,1.9-.8,1.3-1.7,2.5-2.7,3.7-.3.4-.7.8-1.2,1.1-.2.2-.5.3-.8.3-.3,0-.5,0-.8,0-1.1,0-2.1-.2-3.1-.5-.5-.1-1-.3-1.5-.5-.5-.2-.9-.5-1.3-.8-.2-.2-.3-.4-.4-.7,0-.2-.1-.5-.1-.8,0-.5,0-1.1.3-1.5h0c1.5-2.9,2.8-5.7,4.1-8.3h0c-.5-6.8-.9-12.6-1.1-16.6,0-1,0-1.9,0-2.7,0-.7.1-1.3.4-1.9.2-.4.4-.7.7-1,.1,0,.2-.2.4-.2h0c0,0-.2.2-.3.2-.3.3-.6.6-.7,1-.3.6-.4,1.3-.4,1.9,0,.8,0,1.7,0,2.7.2,4,.6,9.8,1.2,16.6h0c-1.3,2.6-2.7,5.4-4.1,8.4h0c-.1.2-.2.4-.2.6,0,.2,0,.5,0,.7,0,.2,0,.5.1.7,0,.2.2.4.3.6.4.3.8.6,1.2.8.5.2.9.4,1.4.5,1,.3,2,.5,3.1.5.3,0,.5,0,.8,0,.3,0,.5-.1.7-.3.4-.3.8-.7,1.1-1.1,1-1.2,1.8-2.4,2.7-3.7.4-.6.8-1.3,1.2-1.9.2-.3.4-.6.5-1,0-.2.1-.3.2-.5,0-.2,0-.4.1-.5.2-1.4.3-2.9.4-4.3s.1-2.8.2-4.1c0-.7,0-1.3,0-2,0-.2,0-.3,0-.5,0-.2,0-.3,0-.5,0-.3,0-.6,0-1,0-1.3.1-2.5.2-3.7.1-2.4.3-4.6.3-6.6,0-1,0-1.9,0-2.9,0-.1,0-.2,0-.3,0,0-.2,0-.3-.1-.2,0-.4,0-.6-.1-.4,0-.8,0-1.2-.1-1.6-.1-3-.1-4.1-.2h-2.6c0,0-.7,0-.7,0-.2,0-.2,0-.2,0Z"/>
    <path class="st5" d="M266.7,355.6c-.1,0-.3.1-.4.2-.4.1-.7.2-1.1.3-1.3.2-2.5.2-3.8-.1-1.2-.3-2.4-.7-3.6-1.3-.3-.2-.7-.4-1-.6-.1,0-.2-.2-.3-.3.4.3.9.6,1.3.8,1.1.6,2.3,1,3.5,1.3,1.2.3,2.5.3,3.7.2,1-.1,1.5-.3,1.5-.3Z"/>
    <path class="st5" d="M266.8,347.7c0,.1-.1.2-.2.4-.2.3-.5.6-.8.8-1,.8-2.1,1.5-3.3,2-.4.1-.7.3-1,.4-.3.1-.7.3-1,.3-.6.1-1.2.2-1.7.3s-.9.1-1.2.1c-.1,0-.3,0-.4,0,.1,0,.3,0,.4-.1l1.2-.2c.5,0,1.1-.2,1.7-.3.3,0,.6-.2,1-.3.3-.2.7-.3,1-.4,1.2-.5,2.3-1.1,3.3-1.9.8-.6,1.1-1.1,1.2-1.1Z"/>
    <path class="st5" d="M266.9,345.4c-.1,0-.2.2-.4.2-.4.2-.7.3-1.1.3-1.2.2-2.5.2-3.7.2-1.2,0-2.5,0-3.7-.2-.5,0-.9-.1-1.1-.1-.1,0-.3,0-.4,0,.5,0,1,0,1.5,0,1,0,2.3.1,3.7.1s2.8,0,3.7-.2c.5,0,1-.2,1.5-.4Z"/>
    <path class="st5" d="M267.2,339c-.1.1-.2.2-.4.3-.3.2-.7.4-1.1.5-1.3.5-2.5.8-3.8,1.1-1.5.4-2.9.6-3.9.8-.5,0-.9.1-1.2.2-.1,0-.3,0-.4,0,.1,0,.3,0,.4-.1l1.2-.2c1-.2,2.4-.5,3.9-.9s2.9-.7,3.8-1.1c.5-.2,1-.4,1.5-.7Z"/>
    <path class="st5" d="M267.4,334.5c-.1,0-.3,0-.4.1-.3,0-.7.1-1.2.2-1.4.2-2.7.2-4.1.1-1.4,0-2.7-.3-4-.7-.5-.1-.9-.3-1.2-.4-.1,0-.3-.1-.4-.2,0,0,.6.2,1.6.4,2.6.7,5.4.9,8.1.6,1-.1,1.7-.2,1.7-.2Z"/>
    <path class="st5" d="M264.6,359.5c-.5-.1-.9-.3-1.3-.5-.8-.3-2-.8-3.3-1.2s-2.5-.8-3.3-1c-.5-.1-.9-.3-1.4-.4.1,0,.3,0,.4,0,.2,0,.6.1,1,.2.9.2,2.1.5,3.4,1s2.4.9,3.3,1.3c.4.2.7.3,1,.5.1,0,.2.1.3.2Z"/>
    <path class="st5" d="M261.1,364.6s-.4-.4-1-.9c-.8-.7-1.7-1.3-2.6-1.9-1.1-.7-2.1-1.1-2.8-1.6-.4-.2-.7-.5-1-.9,0,0,.4.3,1.1.7s1.7.9,2.8,1.6c.9.5,1.8,1.2,2.6,1.9.3.3.5.5.7.7s.2.3.2.3Z"/>
    <path class="st26" d="M320.2,320c0,.5,3.3,9.6,3.3,9.6l.2,9.5c0,1.3.2,2.5.6,3.7l3.2,12.3h5.9c0,0-.4-21.9-.8-25.5s-1.4-11.1-1.4-11.1l-10.8,1.4Z"/>
    <path class="st31" d="M327,355l-1.5-7.2,7.6-.3.3,7.9s-5.6,2.5-6.3-.4Z"/>
    <path class="st30" d="M334,355.1v-.7c-2.4.9-4.9.9-7.3.1v5.1c.1,0,15.4-.3,15.4-.3,0-1.5-8-4.2-8-4.2Z"/>
    <path class="st5" d="M326.8,359.6v-1.2s14.6.2,14.6.2c0,0,.7.3.6.8l-15.2.3Z"/>
    <path class="st5" d="M334.1,355.1c0,0-.4.1-.7.4s-.5.6-.6.5,0-.5.5-.7.9-.2.9-.1Z"/>
    <path class="st5" d="M329,357c0,.2-.2.4-.4.4s-.4-.2-.4-.4.2-.4.4-.4.4.2.4.4Z"/>
    <path class="st5" d="M334,355.1c0,0-.2,0-.3,0-.3,0-.6,0-.9,0,0,0-.2,0-.3-.1,0,0-.2-.1-.2-.2,0-.1,0-.3,0-.4.1-.1.3-.2.4-.2.6,0,1.1.4,1.4.9h-.2c0,0,0-.2,0-.3,0-.6.4-1.2,1-1.4,0,0,.1,0,.2,0,0,0,.2,0,.2.1,0,.1.1.3,0,.4,0,.2-.1.4-.3.6-.2.2-.5.4-.8.5-.1,0-.2,0-.3.1,0,0,0,0,.3-.2.3-.1.5-.3.7-.6.1-.2.2-.3.2-.6,0,0,0-.2,0-.3,0,0-.1,0-.2,0-.5.2-.8.7-.9,1.3,0,.1,0,.2,0,.3,0,0,0,.1,0,.1,0,0,0,0-.1,0-.2-.5-.7-.8-1.2-.8-.2,0-.4.2-.3.3.1.1.2.3.4.3.3,0,.5.1.8.1.1,0,.2,0,.4,0Z"/>
    <path class="st30" d="M333.1,348.6c-.4,0-.7.1-1.1.1-.7,0-1.6,0-2.6.1s-1.9,0-2.6,0c-.4,0-.7,0-1.1,0,.4,0,.7-.1,1.1-.1.7,0,1.6,0,2.6-.1s1.9,0,2.6,0c.4,0,.7,0,1.1,0Z"/>
    <path class="st30" d="M333.2,349.3c-.4,0-.7.1-1.1.1-.7,0-1.6,0-2.6.1s-1.9,0-2.6,0c-.4,0-.7,0-1.1,0,.4,0,.7-.1,1.1-.1.7,0,1.6,0,2.6-.1s1.9,0,2.6,0c.4,0,.7,0,1.1,0Z"/>
    <path class="st24" d="M300.9,356.7c-.3-.2.6-2.5.6-2.5h3.6v2.5h-4.2Z"/>
    <path class="st24" d="M302.2,321.8s-.6,5,0,5.7,2.8.5,3.6,0c.7-.4.6-5.8.6-5.8l-2.2-2.3-2,2.3Z"/>
    <polygon class="st24" points="302.2 354.4 302.9 327.8 305.2 327.8 304.5 354.4 302.2 354.4"/>
    <path class="st5" d="M306,327.6s-.2.2-.5.3c-.5.2-.9.3-1.4.3-.5,0-1,0-1.4-.3-.3-.2-.5-.4-.5-.4s.2.1.5.3c.4.2.9.2,1.4.2.5,0,.9,0,1.4-.2.2,0,.4-.1.6-.2Z"/>
    <path class="st5" d="M305.3,354.2c-1.3.1-2.6.1-3.8,0,1.3-.1,2.6-.1,3.8,0Z"/>
    <path class="st30" d="M305.9,355.4s-4,2.2-5.5-.4l-.6,1.1-3.1,7.7c-.2.5,0,1.1.4,1.4.3.2.8.2,1.1,0,1.7-1.3,7.9-5.9,7.9-6.7l.2-2c0-.4-.1-.8-.5-1h0Z"/>
    <path class="st5" d="M297.4,365.1l8.9-7.5v.4c0,.4-.3.7-.5.9-.7.8-2.8,2.5-7.4,6-.3.2-.6.3-.9.1h0Z"/>
    <path class="st5" d="M300.2,361c-.2-.3-.5-.7-.8-.9-.3-.2-.7-.3-1.1-.4,0,0,.1,0,.4,0,.3,0,.6.1.9.3.3.2.5.4.6.7,0,.2,0,.4,0,.4Z"/>
    <path class="st5" d="M299.3,362.3c0,0-.3-.3-.8-.6-.3-.1-.6-.2-.9-.3.3-.2.7-.1,1,0,.5.2.8.7.7.8Z"/>
    <path class="st5" d="M301.7,359.5c-.4-.3-.8-.7-1.2-1-.5-.2-.9-.4-1.4-.6.5,0,1.1,0,1.5.4.5.2.9.6,1.1,1.1Z"/>
    <path class="st5" d="M302.2,357.1c0,0-.5-.3-1.2-.4s-1.3,0-1.3-.1c.4-.2.9-.2,1.3-.1.5,0,.9.3,1.2.6Z"/>
    <path class="st5" d="M301.1,356.5c0-.1,0-.3.2-.4.2-.3.4-.6.7-.8.1,0,.2-.1.3-.2.2,0,.3,0,.4,0,0,.1.1.3,0,.5,0,.1-.2.3-.3.4-.2.3-.5.5-.8.6-.2,0-.4.1-.6,0-.2,0-.3-.2-.5-.3-.5-.5-.9-1.1-1.1-1.7,0,0,0-.2,0-.3,0,0,.1-.2.2-.2.2,0,.3,0,.5.2.2.2.4.4.5.6.2.3.3.7.3,1.1,0,.1,0,.2,0,.3,0,0,0,0,0,.1v-.4c0-.4-.1-.7-.3-1-.1-.2-.3-.4-.5-.6,0,0-.2-.1-.3-.1-.1,0-.1.1-.1.3.2.6.6,1.2,1.1,1.7.1.1.2.2.4.3.2,0,.3,0,.4,0,.3-.1.5-.3.8-.6.1-.1.2-.2.3-.3,0-.1,0-.2,0-.3,0,0-.2-.1-.3,0-.1,0-.2,0-.3.2-.3.2-.6.5-.8.8-.1.2-.2.3-.2.3Z"/>
    <path class="st5" d="M300,289.8c0,0-1.4,6.9-1.8,9.9s-1.1,19.2-1.1,19.2c.5,1.8,2.1,3,3.9,3,3.3,0,8.2.4,8.2.4l5.4-11.2,5.1,11.2s8.5-.4,10.4-1.2,2.3-1.2,2.3-1.2c0,0-2.1-11-2.5-13.7s-2.7-11.1-2.7-11.1l-27.3-5.2Z"/>
    <path class="st30" d="M313.8,311.9c0,0-.2-3.3-.3-7.4s-.1-7.4,0-7.4.2,3.3.3,7.4.1,7.4,0,7.4Z"/>
    <path class="st30" d="M310.3,302.3c0-.3,0-.7,0-1,0-.6.1-1.4.1-2.4s0-1.8,0-2.4c0-.3,0-.7,0-1,0,.3.1.6.1,1,0,.8,0,1.6,0,2.4,0,.8,0,1.6-.2,2.4,0,.3,0,.7-.2,1Z"/>
    <path class="st30" d="M317,301.8c-.5-.7-.9-1.5-1.2-2.3-.4-.8-.7-1.6-.9-2.4.4.8.8,1.6,1.1,2.4.4.8.7,1.6,1,2.4Z"/>
    <path class="st5" d="M323.9,236.6c0-.2-.1-.4-.2-.6-.4-.6-1-1-1.7-1.1.6-.3,1.1-.6,1.6-1.1.4-.5.6-1.2.4-1.8-.3-.6-.8-1-1.4-1.2-.8-.3-1.7-.4-2.6-.2-.9.2-1.5.9-1.8,1.7l.8,2.1c.1.8.4,1.6,1,2.3.2.3.6.5,1,.5.3-.1.5-.4.6-.7,0-.3,0-.7-.2-1,.4.6,1,1.1,1.6,1.4.2.1.5.2.7,0,.2-.1.3-.3.3-.6Z"/>
    <path class="st30" d="M324.2,232.3s-.3-.1-.8-.3c-1.3-.3-2.7,0-3.7.8-.4.3-.6.6-.6.6,0,0,0-.1.1-.2.1-.2.3-.3.4-.4.5-.5,1.1-.8,1.8-.9.7-.1,1.4-.1,2,0,.2,0,.4.1.6.2.2,0,.2.1.2.1Z"/>
    <path class="st30" d="M319.2,234.3c0-.2,0-.3,0-.5,0-.7-.3-1.3-.7-1.9,0,0-.2-.2-.3-.2-.2,0-.3.3-.2.5,0,.2,0,.4.1.6l.3,1.4c0,.1,0,.3.2.4.1.1.3.2.4.1.2,0,.3-.2.3-.4Z"/>
    <path class="st5" d="M317.9,243.8c.6-1.5,1-3,1.3-4.5.3-1.6.2-3.2-.2-4.7,0-.2-.7-1.8-1-1.7-.2,0,.2,1.4.1,1.6-.8,1.4-1.2,3.1-1.1,4.7,0,1.6.4,3.2.8,4.7"/>
    <path class="st26" d="M317.7,251.6l.6-13.8c.2-4-1.9-7.4-5.8-7.5h-.4c-3.7,0-6.6,3-6.8,6.6-.2,3.5-.4,7.3-.3,9.1.1,3.8,4,4.3,4,4.3,0,0,0,.9,0,2,0,0,.3,2.2,3.8,2.3s5.1-3,5.1-3Z"/>
    <path class="st33" d="M308.8,250.3c1.8,0,3.5-.6,4.9-1.6,0,0-1.1,2.8-5,2.5v-1Z"/>
    <path class="st5" d="M307.4,240.2c0,.3.2.5.5.5.3,0,.5-.2.5-.5,0,0,0,0,0,0,0-.3-.2-.5-.5-.5-.3,0-.5.2-.6.5,0,0,0,0,0,0Z"/>
    <path class="st5" d="M306,238.3c0,0,.5-.2,1.1-.3s1,.3,1.1.2,0-.2-.2-.3c-.3-.2-.6-.3-.9-.2-.3,0-.6.1-.8.3-.2.1-.2.3-.2.3Z"/>
    <path class="st5" d="M312.5,240.2c0,.3.2.5.5.5.3,0,.5-.2.5-.5,0,0,0,0,0,0,0-.3-.2-.5-.5-.5-.3,0-.5.2-.6.5,0,0,0,0,0,0Z"/>
    <path class="st5" d="M311.8,238.5c0,0,.5-.2,1.1-.3s1,.3,1.1.2,0-.2-.2-.3c-.3-.2-.6-.3-.9-.2-.3,0-.6.1-.8.3-.2.1-.2.3-.2.3Z"/>
    <path class="st5" d="M309.8,243.2c-.3,0-.6-.1-1-.1-.1,0-.3,0-.3-.1,0-.2,0-.3,0-.4l.4-1.1c.6-1.6,1-3,.9-3s-.6,1.3-1.2,2.9l-.4,1.2c0,.2-.1.4,0,.6,0,.1.1.2.3.2,0,0,.2,0,.3,0,.3,0,.7,0,1,0Z"/>
    <path class="st5" d="M311.5,237.1c0,.1.6,0,1.3,0s1.3,0,1.3,0c0,0,0-.2-.3-.3-.7-.3-1.4-.3-2,0-.2.1-.3.3-.3.4Z"/>
    <path class="st5" d="M305.9,237.1c.1.1.6,0,1.2,0s1,0,1.1,0c0,0,0-.2-.2-.3-.3-.1-.6-.2-.9-.2-.3,0-.6.1-.9.3-.2.2-.3.3-.2.3Z"/>
    <path class="st26" d="M318,240.6c0,0,2.6-.8,2.6,1.8s-2.6,2-2.6,2,0-3.7,0-3.7Z"/>
    <path class="st33" d="M318.8,243.4s0,0,.1,0c.1,0,.2,0,.3,0,.3-.2.5-.6.5-1,0-.2,0-.4-.1-.6,0-.2-.2-.3-.3-.4-.1,0-.2,0-.3.1,0,0,0,.1,0,.1s0,0,0-.2c0,0,0-.1.1-.2,0,0,.2,0,.3,0,.2,0,.4.2.5.4.1.2.2.5.1.7,0,.5-.2.9-.7,1.1-.1,0-.3,0-.4,0,0,0-.1-.1,0-.1Z"/>
    <path class="st5" d="M306.9,232.7c-.4-.2.9-1.6,1.9-2,1.6-.7,4-1.1,5.4-.6,1.7.5,3.2,1.4,4,3,.8,1.6,1.2,3.4,1.1,5.2,0,.6-.1,1.1-.4,1.6-.4.6-1.1.9-1.1,1.7,0,.3,0,.6-.3.8-.5.5-1.1,0-1.3-.5-.6-1-.6-2.3-.6-3.4,0-.8,0-1.7.2-2.5.1-.4.3-.8.5-1.3.1-.4,0-.9-.2-1.3,0,0-.1-.2-.2-.2-.7-.7-1.8-.9-2.7-.6-1.5.5-4,1.2-4.6.7-.5-.3-.9-.7-1.1-1.2l-.5.5Z"/>
    <path class="st5" d="M314.1,229.6c-1.4-.5-3-.5-4.4.2-.7.3-1.3.9-1.6,1.7-.3.8,0,1.6.8,2h0c1.1.4,1.8.3,2.9,0,.9-.3,1.8-.9,2.7-1.2,1-.3,2.1-.3,3.1,0-.9-1.2-2.2-2.1-3.6-2.6Z"/>
    <path class="st30" d="M317.5,231.9s-.1,0-.3-.1c-.3-.1-.6-.2-.9-.2-.5,0-.9,0-1.4.3-.5.2-1.1.5-1.6.8-.5.3-1,.6-1.6.8-.4.2-.9.3-1.4.3-.3,0-.6,0-.9-.1,0,0-.2,0-.2-.1,0,0,0,0,0,0,.4.2.8.2,1.3.2.5,0,.9-.1,1.4-.3.5-.2,1-.5,1.5-.8.5-.3,1-.6,1.6-.8.5-.2.9-.3,1.4-.2.3,0,.7,0,1,.2,0,0,.2,0,.2.1,0,0,0,0,0,0Z"/>
    <path class="st30" d="M316.4,231c-.4-.1-.8-.2-1.2-.2-.4,0-.9.1-1.3.3-.5.2-1,.5-1.4.8-.5.3-.9.6-1.3.9-.4.2-.8.4-1.2.6-.3.1-.6.2-.9.2,0,0-.2,0-.2,0,0,0,0,0,0,0,.4,0,.8-.1,1.2-.3.4-.2.8-.4,1.2-.6.4-.3.9-.6,1.3-.9.4-.3.9-.6,1.4-.8.4-.2.9-.2,1.3-.2.3,0,.6,0,.9.2,0,0,.1,0,.2.1h0Z"/>
    <path class="st30" d="M319,234.4c0,0,0,.1,0,.2,0,.2-.1.4-.2.5-.2.6-.6,1.1-1,1.5-.4.5-.9.8-1.4,1.1-.2,0-.3.2-.5.2,0,0-.1,0-.2,0,0,0,.3-.1.7-.4,1-.6,1.9-1.5,2.4-2.6.2-.4.3-.7.3-.7Z"/>
    <path class="st30" d="M319.3,236.2c0,0,0,.1,0,.2,0,.2,0,.3-.2.5-.3.5-.7.9-1.2,1.2-.5.3-1,.5-1.6.6-.2,0-.5.1-.7.1.2,0,.4-.2.7-.2.5-.2,1.1-.4,1.5-.7.5-.3.9-.7,1.1-1.2,0-.2.2-.4.2-.6Z"/>
    <path class="st30" d="M310.3,230.1c-.1.2-.2.3-.4.4-.3.3-.6.7-.8,1.1-.2.4-.3.9-.3,1.3,0,.2,0,.4.1.6,0,0,0,0,0-.1,0-.1-.1-.3-.1-.4,0-.5,0-1,.2-1.4.2-.4.5-.8.8-1.1.1-.1.3-.3.5-.4Z"/>
    <path class="st30" d="M308.5,231.3c-.2.8,0,1.7.5,2.3,0,0-.1,0-.3-.3-.2-.2-.3-.5-.4-.8,0-.3,0-.6,0-.9,0-.1,0-.2.2-.4Z"/>
    <path class="st5" d="M319.5,244.3s0,.2-.1.4c0,.1-.1.3-.3.3-.1,0-.3,0-.5,0-.2,0-.3-.2-.3-.4,0-.1,0-.3,0-.4,0-.2.2-.4.2-.4s-.2,0-.3.3c0,.2-.1.3,0,.5,0,.2.2.4.4.5.2.1.5,0,.6,0,.1-.1.3-.3.3-.4,0-.3,0-.4,0-.4Z"/>
    <path class="st5" d="M320.4,243.6s0,.1,0,.3c0,0,0,.2-.1.2,0,0-.2,0-.3,0-.2,0-.3-.3-.3-.5,0-.2,0-.3,0-.3s-.1,0-.2.3c0,.1,0,.2,0,.4,0,.1.2.3.3.3.2,0,.3,0,.5,0,0,0,.2-.2.2-.3,0-.2-.2-.3-.2-.3Z"/>
    <path class="st5" d="M320.5,241.9s.1,0,.2.2c.2.1.2.4,0,.6-.1.1-.3.2-.5,0-.1,0-.2-.1-.2-.1s0,.1.2.2c.1,0,.2,0,.3,0,.1,0,.3-.1.4-.2.2-.2.1-.5-.1-.7-.2-.1-.3,0-.3,0Z"/>
    <path class="st5" d="M310.9,243.7c0,0,0,.6-.6,1s-1.1.4-1.1.5.1.1.4.1c.3,0,.7-.1.9-.4.2-.2.4-.5.4-.8,0-.2,0-.4,0-.4Z"/>
    <path class="st5" d="M308.1,249c0,0,0-.3,0-.5s.2-.5.3-.5,0,.3,0,.5-.1.5-.2.5Z"/>
    <path class="st5" d="M308.8,249.1c0,0,0-.2,0-.4s0-.4.1-.4.1.2.1.4,0,.4-.2.4Z"/>
    <path class="st5" d="M309.5,249.1c0,0,0-.2,0-.5s0-.4.1-.4,0,.2,0,.5,0,.4-.1.4Z"/>
    <path class="st5" d="M310.3,248.9c0,0-.1-.2-.2-.4s0-.4,0-.4.1.2.2.4,0,.4,0,.4Z"/>
    <path class="st5" d="M335.5,355.7c0,0-.3.2-.5.5s-.3.7-.4.6-.1-.4.2-.8.8-.4.8-.4Z"/>
    <path class="st5" d="M336.6,357.5c0,0-.2-.4,0-.8s.5-.6.6-.5-.2.3-.3.6-.2.6-.2.7Z"/>
    <polygon class="st26" points="306.9 252.6 309.1 251.5 317.7 251.7 319.2 252.6 317.7 256.2 313.1 257 309.6 257 307.6 254.3 306.9 252.6"/>
    <path class="st0" d="M300.9,253.5s-2.7.4-3.8,2.3-1.8,5.5-1.8,5.5c-.8,1.3-1.2,2.7-1.3,4.1.9-.9,2.2-1.4,3.5-1.4,2.5,0,5.5,2.7,5.5,2.7l-2-13.3Z"/>
    <path class="st0" d="M300.9,253.5l5.1-1.1,2.5-.7s-1.1,4.4,4.5,4.3c5.6-.1,5.2-4.3,5.2-4.3,0,0,4.5,1.3,4.7,1.3.4,0,3.9.9,3.9.9l-1.2,9.1v14.7c0,0,1,10.2,1.3,12.3l.5,4.9s-11.8,2.1-16.9,0c-3.7-1.5-7.5-2.7-11.3-3.7,0,0,.5-3.4.8-6.9.2-2,.7-4,1.4-5.9,0,0-.9-22.1-.8-22.3s.5-2.7.5-2.7Z"/>
    <rect class="st8" x="308.2" y="263.4" width="9.8" height="9.8"/>
    <path class="st0" d="M326.8,253.9s1.1-.1,2.6,2.4,2.1,6,2.1,6l.4,3.5s-3.7-3.7-7.7-.7l1.1-3.8s-.9-2.9-.2-4.9,1.8-2.5,1.8-2.5Z"/>
    <g class="st23">
      <path d="M302.4,278.2c-.6,0-1.4.3-1.4.9l-.3.8c.2.7.7.6,1.3.8s1.4,0,2,.2c1,.1,1.9.6,2.9.9,1.6.5,3.2.6,4.9.7,2.4.1,4.8.3,7.2,0s4.7-1.2,6.5-2.8c-7.7-.9-15.4-1.8-23.2-1.4Z"/>
    </g>
    <path class="st26" d="M294,265.5c0,.4-.3,5.9,0,8.2s.6,3.6,1.4,4,2.3.4,3.1.6,2.7,1.7,6.5,1,8.9-4.3,10.5-4.6c1-.2,2.1-.3,3.1-.4l4.2-.9.5-3.4s-8.9.1-10.3.3-3.4.7-7.4.5c-4-.2-3-.3-3-.3l.3-3.6s-2.4-2.4-5-2.7c-1.5-.2-3,.3-4,1.4Z"/>
    <path class="st26" d="M300.3,270.4c-.2-.3-.2-.8,0-1.1-.3-.3-.6-.8-.7-1.2-.1-.3,0-.6,0-.8-.1-.2-.2-.4-.3-.7,0-.2,0-.5.3-.6.3-.2.7,0,1,.2.3.2.6.5.8.8-.2-.2-.1-.5,0-.7,0,0,0,0,0,0,.2-.1.5-.1.8,0,.5.3.9.7,1.2,1.2.7,1.1,1.5,2.2,2.4,3.2"/>
    <path class="st33" d="M305.8,270.7c-.1-.1-.3-.3-.4-.4-.2-.3-.6-.7-1-1.2-.2-.3-.4-.5-.6-.9s-.4-.7-.7-1c-.3-.3-.6-.6-1-.8-.2,0-.4,0-.6,0-.2.1-.2.3-.2.5,0,0,0,0,0,0h-.2c-.2-.1-.4-.3-.7-.6-.2-.2-.5-.3-.8-.4-.3,0-.4.3-.4.5,0,0,0,0,0,0,0,.3.1.5.3.7h0c0,0,0,.1,0,.1-.1.2-.2.4-.1.5,0,.2.1.4.2.5.1.3.3.6.5.8h0s0,0,0,0c-.1.1-.2.3-.2.4,0,.1,0,.2,0,.3,0,0,0,.2,0,.3,0,0,0,0-.1-.3,0-.1,0-.2,0-.4,0-.2,0-.4.2-.5h0c-.2-.2-.4-.4-.6-.7,0-.2-.2-.4-.2-.6,0-.2,0-.5.1-.7h0c-.2-.1-.3-.4-.3-.7,0-.2,0-.3.1-.5.1-.2.3-.3.5-.3.3,0,.7.2.9.4.3.2.5.5.7.7h-.2c0,.1,0,0,0,0-.1-.3,0-.6.2-.8.2-.1.5-.1.8,0,.4.2.8.5,1,.9.3.4.4.7.7,1s.4.6.6.9l.9,1.2c.1.1.2.3.3.5Z"/>
    <path class="st33" d="M304.1,270.4c-.6-.5-1.1-1.1-1.5-1.7-.5-.6-1-1.2-1.4-1.9.6.5,1.1,1.1,1.5,1.7.5.6,1,1.2,1.4,1.9Z"/>
    <path class="st33" d="M302.2,269.9c-.5-.3-.9-.7-1.3-1.2-.4-.4-.8-.9-1.1-1.4.5.4.9.8,1.3,1.2.4.4.8.8,1.2,1.3Z"/>
    <path class="st33" d="M301.4,270.5s-.3-.2-.6-.5-.5-.6-.4-.6.3.2.6.5.5.6.4.6Z"/>
    <path class="st33" d="M306.2,270.7c-.4,0-.9,0-1.3,0h-1.5c-.5,0-1.2,0-1.8-.2-.6,0-1.2,0-1.8,0-.5,0-.9.2-1.4.3-.3.1-.6.3-.8.5,0,0-.2.2-.3.2,0,0,0-.1.2-.3.2-.2.5-.4.8-.6.4-.2.9-.3,1.4-.4.6,0,1.2,0,1.8,0,.6,0,1.2.1,1.8.1h1.4c.5.1.9.2,1.3.3Z"/>
    <path class="st26" d="M324.1,265.2c-.7,2.7-1.1,5.4-1.3,8.2l-12.3.8-5,4.8s3.3,2.3,9.3,2.4c6,.1,8.6-1,11.5-1.2,2.9-.1,4-.7,4.5-2.6s1-7.9,1-9.1c0-.9-.1-1.9-.3-2.8,0,0-3.6-3.3-7.4-.4Z"/>
    <path class="st33" d="M322.9,273.4c-.2-1.4,0-2.8.3-4.1,0,.7,0,1.4-.1,2.1,0,.7,0,1.4-.2,2.1Z"/>
    <path class="st33" d="M323,273.2s0,0-.2.1c-.1,0-.3.2-.5.3-.6.3-1.2.5-1.8.7-1,.3-1.9.4-2.9.5-.6,0-1.1.1-1.7.3-.6.2-1.1.5-1.7.7l-6,2.7c-.6.3-1.2.5-1.9.6-.2,0-.3,0-.5.1,0,0-.1,0-.2,0,0,0,.2,0,.7-.2.6-.2,1.2-.4,1.8-.7.8-.3,1.6-.8,2.7-1.2l3.3-1.5c.6-.3,1.1-.5,1.7-.7.6-.2,1.1-.3,1.7-.3,1,0,1.9-.2,2.9-.4.6-.2,1.3-.4,1.9-.6.2-.1.4-.2.7-.3Z"/>
    <path class="st33" d="M326.3,274.6c0,0-.7-.4-1.7-.8s-1.8-.4-1.8-.5c.6,0,1.3,0,1.9.3.6.2,1.2.5,1.6,1Z"/>
    <path class="st5" d="M302.6,266.2c-.1-.3-.2-.7-.2-1-.1-.6-.2-1.5-.4-2.4s-.2-1.8-.2-2.5c0-.3,0-.7,0-1,0,.3.1.7.2,1,0,.7.2,1.5.3,2.4s.2,1.7.3,2.4c0,.3,0,.7,0,1Z"/>
    <path class="st5" d="M324.1,265.2c0-.4,0-.8.1-1.1,0-.7.2-1.7.2-2.7s.1-2,.2-2.7c0-.4.1-.8.2-1.1,0,.4,0,.8,0,1.1,0,.7-.1,1.7-.2,2.7s-.2,2-.3,2.7c0,.4-.1.7-.3,1.1Z"/>
    <path class="st5" d="M301.8,257.8c0,0-.2-.8-.7-1.7s-1-1.5-1-1.5c1,.8,1.6,2,1.7,3.2h0Z"/>
    <path class="st5" d="M318.9,252.2c0,0,0,.1,0,.2,0,.2,0,.3,0,.5-.2.6-.4,1.2-.8,1.6-.6.7-1.3,1.3-2.1,1.7-1,.5-2.1.8-3.2.9-.6.1-1.1.1-1.7,0-.5,0-1-.3-1.5-.6-.8-.5-1.4-1.2-1.7-2.1-.2-.6-.3-1.2-.2-1.8,0-.2,0-.3,0-.5,0,0,0-.1,0-.2,0,0,0,.2,0,.7,0,.6,0,1.2.3,1.7.3.8.9,1.5,1.7,2,.4.3.9.4,1.4.5.6,0,1.1,0,1.7,0,1.1-.1,2.1-.4,3.1-.9.8-.4,1.5-.9,2.1-1.6.4-.5.7-1,.8-1.6.1-.4.1-.6.2-.6Z"/>
    <g class="st23">
      <path d="M308.9,256c0,1.6,2.9,2.2,4.9,1.8.9-.2,1.7-.6,2.4-1,.6-.4,1.2-1,1.4-1.7-1.2,1.2-3,1.6-4.6,1.9-.7.1-1.4.2-2.2.1-.7,0-1.4-.4-1.8-1"/>
    </g>
    <path class="st20" d="M300.8,253.5s1.2-1.7,1.9-1.8c.5,0,1,.1,1.4.3.1-.3.4-.5.8-.5.5,0,.9.3,1.3.5l1.4,1.7-1.2,2.7s-.6,0-.6-.8c0-.5.1-1.1.4-1.5l-.7-.6v.8l-.6,2.5s-.7,0-.8-.4,0-1.9,0-1.9l-.7-1.1.3,1.2-.3,2.2c-.4,0-.7-.3-.8-.6,0-.5,0-1.1,0-1.6l-.8-1.4-1.1.2Z"/>
    <path class="st20" d="M299.8,253.8c.2-.3.4-.8.7-.9.3,0,.7,0,.9.3.2.2.4.5.4.9,0,.1,0,.3,0,.4-.1.2-.4.1-.6,0-.5-.1-1-.4-1.5-.7"/>
    <path class="st35" d="M301.8,254.2s-.1-.3-.3-.6c0,0,0-.2-.1-.2,0,0,0-.1-.1-.2,0,0-.1-.2-.1-.2s0,0,.2,0c0,0,.1,0,.2.1,0,0,.1.2.2.3,0,.2.1.3.2.5,0,.1,0,.2,0,.2Z"/>
    <path class="st35" d="M303.4,253.2c0,0-.2-.4-.4-.8s-.7-.4-.6-.5.1,0,.3,0c.1,0,.2,0,.3.1.1,0,.2.2.2.3.2.3.2.6.2.9Z"/>
    <path class="st35" d="M305.4,253.5c0,0-.3-.3-.7-.7s-.7-.7-.7-.7.5.2.8.6c.2.2.4.5.5.9Z"/>
  </g>
  <g id="freepik--Arrow--inject-2">
    <path class="st0" d="M463.2,294.1l-2,28.5-2,28.5-8.8-12.3-47,44.4-72.4-.2-90.2,56.9H98.7l-12.6,20.6-4.7,7.6c-21.9-.7-37.8-1.5-45.7-2.4l1.7-2.8,41.6-68.7h161.7l90.3-58.9,58.4.4,35-33.1-9.2-12.9,24,2,23.9,2.3Z"/>
  </g>
  <g id="freepik--character-3--inject-214">
    <path class="st12" d="M397.7,257.4s.4-3.5,0-4.3-1.5,2.6-1.5,2.6l1.5,1.8Z"/>
    <path class="st5" d="M358,234s-4.4-3.5-.4-6.4,13.2,1.5,16,4.3.4,5.2.4,5.2l-16-3.1Z"/>
    <polygon class="st22" points="347.6 361.5 347.1 369.7 350.5 370 352.9 361.9 347.6 361.5"/>
    <path class="st5" d="M349.7,369.1c.3-.4.8-.5,1.2-.4.7.2,1.5,1.3,1.5,1.3,0,0,3.7,1.2,4.7,1.2s1.6.7,1.7,2.5h-12.4s0-4.3.4-5.1c.4-.6,1.1.2,1.1.2l1.8.2Z"/>
    <path class="st8" d="M358.6,373.2h-2.2s-9.4-.1-9.4-.1c0,0,0,0,0-.1,0,0,0,0,0,0h.6c.4-1,0-2.1-1-2.5,0,0,0,0,0-.1,0,0,0,0,.1,0,1,.5,1.5,1.7,1.1,2.7h10.8c0,.1,0,.2,0,.2,0,0,0,0,0,0Z"/>
    <path class="st8" d="M352,370.8c.3-.5,1-.7,1.6-.4,0,0,0,0,.1,0,0,0,.2,0,0-.2-.6-.5-1.4-.3-1.9.3,0,0,0,0,0,.1,0,0,0,.2.2,0Z"/>
    <path class="st8" d="M353.1,371.1c.3-.5,1.1-.7,1.6-.4,0,0,0,0,.1,0,0,0,.2,0,0-.2-.6-.4-1.4-.3-1.9.3,0,0,0,0,0,.1,0,0,0,.2.2,0h0Z"/>
    <path class="st8" d="M354.2,371.4c.3-.5,1-.7,1.6-.4,0,0,0,0,.1,0,0,0,.2,0,0-.2-.6-.5-1.4-.3-1.9.3,0,0,0,0,0,.1,0,0,0,.2.2,0Z"/>
    <polygon class="st22" points="374.2 361.5 374.7 369.7 378.2 370 379.5 361.9 374.2 361.5"/>
    <path class="st5" d="M377.4,369.1c.3-.4.8-.5,1.2-.4.7.2,1.5,1.3,1.5,1.3,0,0,3.7,1.2,4.7,1.2s1.9.6,2.2,2.5h-12s-.5-4.3-.5-5.1,1.1.2,1.1.2l1.8.2Z"/>
    <path class="st8" d="M386.7,373.2h-2.2s-9.4-.1-9.4-.1c0,0,0,0,0-.1,0,0,0,0,0,0h.6c.4-1,0-2.1-1-2.5,0,0,0,0,0-.1,0,0,0,0,.1,0,1,.5,1.5,1.7,1.1,2.7h10.8c0,.1,0,.2,0,.2,0,0,0,0,0,0Z"/>
    <path class="st8" d="M379.7,370.8c.3-.5,1.1-.7,1.6-.4,0,0,0,0,.1,0,0,0,.2,0,0-.2-.6-.5-1.4-.3-1.9.3,0,0,0,0,0,.1,0,0,0,.2.2,0Z"/>
    <path class="st8" d="M380.7,371.1c.3-.5,1.1-.7,1.6-.4,0,0,0,0,.1,0,0,0,.2,0,0-.2-.6-.4-1.4-.3-1.9.3,0,0,0,0,0,.1,0,0,0,.2.2,0h0Z"/>
    <path class="st8" d="M381.8,371.4c.3-.6,1.1-.7,1.6-.4,0,0,0,0,.1,0,0,0,.2,0,0-.2-.6-.4-1.4-.3-1.9.3,0,0,0,0,0,.1,0,0,0,.2.2,0Z"/>
    <path class="st0" d="M382.4,273.5s2,29.7,1.9,41.8c-.1,12.6-4.2,49.1-4.2,49.1h-6.7s-1.2-35.9-1.8-48.3c-.7-13.4-4.7-42.6-4.7-42.6h15.6Z"/>
    <path class="st10" d="M384.3,315.3c-.1,12.6-4.2,49.1-4.2,49.1h-6.7s-1.2-35.9-1.8-48.3c-.2-4-.7-9.4-1.3-15-.5-4.9-1.1-10-1.7-14.5-.9-7.5-1.7-13.2-1.7-13.2h15.6s2,29.7,1.9,41.8Z"/>
    <path class="st6" d="M370.2,301.2c-.5-4.9-1.1-10-1.7-14.5l.8-4.7s2.6,7.3.9,19.2Z"/>
    <path class="st5" d="M372.8,362.4c0,.7,0,2.2,0,2.2h7.7l.2-2.2h-8Z"/>
    <path class="st0" d="M370.9,273.5s-2.1,30.3-4.2,41.6c-2.4,12.4-13.3,49.3-13.3,49.3h-7.3s4.7-35.7,5.9-48c1.3-13.3,3.5-40.5,3.5-40.5l15.4-2.3Z"/>
    <path class="st10" d="M370.9,273.5s-2.1,30.3-4.2,41.6c-2.4,12.4-13.3,49.3-13.3,49.3h-7.3s4.7-35.7,5.9-48c1.3-13.3,3.5-40.5,3.5-40.5l15.4-2.3Z"/>
    <path class="st5" d="M347.9,362.6s0,0,0,0c0-.4,5.2-32.3,6.3-43.4,1.2-12,3.7-38.6,3.7-38.8,0,0,0,0,0,0,0,0,0,0,0,0,0,0,0,0,0,0,0,.3-2.5,26.8-3.7,38.8-1.1,11-6.3,43-6.3,43.4,0,0,0,0,0,0h0s0,0,0,0Z"/>
    <path class="st5" d="M345.8,362.3c0,.7-.2,2.2-.2,2.2h8.5l.5-2.2h-8.8Z"/>
    <path class="st5" d="M397.1,259.2c-.1,2-.3,3.9-.7,5.9-.2,1-.4,2-.7,3-.2.6-.4,1.2-.6,1.7-.1.4-.3.7-.5,1-.3.5-.7,1-1.1,1.4-1.1,1-2.7,1.4-4.1,1.2-.2,0-.5-.1-.7-.2-.2,0-.4-.2-.6-.3-.2,0-.3-.2-.5-.3-.2-.1-.3-.3-.4-.3l-.2-.2h-.1c0-.1,0-.2,0-.2l-.3-.3c-.5-.6-.8-1-1.1-1.4v-.2c-.8-.9-1.3-1.7-1.9-2.5l-.3-.5c-1-1.5-1.9-2.9-2.8-4.4-1-1.6-1.9-3.3-2.8-4.9s-1.8-3.3-2.7-4.9c-1.8-3.3-3.4-6.6-4.9-10.1l9.3-6.4c1.7,3.3,4,8.3,5.5,11.6.8,1.7,1.5,3.4,2.3,5l2.2,5c.4,1,.9,2.1,1.4,3.1.4-1,.8-2.1,1.3-3.1l5.3,1.1Z"/>
    <path class="st17" d="M385.1,270.2v-.2c-.8-.9-1.3-1.7-1.9-2.5l-.3-.5-1-19.2s2.5,15.3,3.2,22.3Z"/>
    <path class="st0" d="M387.8,260.8v-3.9c0-.8.5-1.4,1.2-1.7l7.6-2.3c.3-.1.6,0,.7.3,0,0,0,.2,0,.2v3.9c0,.8-.5,1.4-1.2,1.7l-7.7,2.3c-.3.1-.6,0-.7-.3,0,0,0-.1,0-.2Z"/>
    <g class="st18">
      <path class="st5" d="M387.8,260.8v-3.9c0-.8.5-1.4,1.2-1.7l7.6-2.3c.3-.1.6,0,.7.3,0,0,0,.2,0,.2v3.9c0,.8-.5,1.4-1.2,1.7l-7.7,2.3c-.3.1-.6,0-.7-.3,0,0,0-.1,0-.2Z"/>
    </g>
    <path class="st0" d="M387.9,261.2v-3.9c0-.8.5-1.4,1.2-1.7l7.6-2.3c.3-.1.6,0,.7.3,0,0,0,.2,0,.2v3.9c0,.8-.5,1.4-1.2,1.7l-7.7,2.3c-.3.1-.6,0-.7-.3,0,0,0-.1,0-.2Z"/>
    <g class="st18">
      <path class="st5" d="M393,258.2c-.5.2-.9,0-.9-.4,0-.5.4-.9.9-1.1.5-.2.9,0,.9.4,0,.5-.4.9-.9,1.1Z"/>
    </g>
    <path class="st0" d="M396.3,255c-.2,0-.4,0-.5-.2,0-.2.2-.5.4-.5.2,0,.4,0,.5.2,0,.2-.2.5-.4.5Z"/>
    <g class="st23">
      <path class="st5" d="M396.3,255c-.2,0-.4,0-.5-.2,0-.2.2-.5.4-.5.2,0,.4,0,.5.2,0,.2-.2.5-.4.5Z"/>
    </g>
    <path class="st5" d="M382.5,280.9c-8.9,2-18.2,2-27.8.3-1.2-.2-2-1.3-1.9-2.5,0-1,.2-2.1.3-3.5l.2-2.5c.3-4.1.7-9.4.9-15.2,0-1,0-2.1,0-3.1v-1.6c0-.8,0-1.6,0-2.5,0-3.9-.4-7.8-.9-11.6-.4-2.5,1.3-4.9,3.8-5.3,0,0,0,0,0,0,1.2-.2,2.5-.3,3.8-.4,3.6-.2,7.1-.2,10.7,0,1.1.1,2.3.3,3.4.5,1.8.4,3.7,1.8,4.5,3.5,3.7,8.5,3.6,27.8,3.9,40.8,0,1.1.2,2.7-.8,3Z"/>
    <path class="st17" d="M359,245.7c-1.3,3.9-2.8,7.6-4.8,10.6v-3.5c0-.8,0-1.6,0-2.5l4.8-4.6Z"/>
    <ellipse class="st5" cx="376.6" cy="225.2" rx="3.9" ry="3.6" transform="translate(114.8 577.4) rotate(-84.3)"/>
    <g class="st19">
      <ellipse class="st8" cx="376.6" cy="225.2" rx="3.9" ry="3.6" transform="translate(114.8 577.4) rotate(-84.3)"/>
    </g>
    <path class="st5" d="M367.7,216.8s1.1-3.2,2.1-2.9.4,1.4.4,1.4c0,0,1.6-2.2,2.6-2.1s.7,1.4.7,1.4c0,0,2.2-1,2.9-.4s-.4,1.3-.4,1.3c0,0,3-.5,3.5.2s-1.2,1-1.2,1c0,0,2.5.3,2.5,1.7,0,.6-.4,1.1-1,1.1,0,0-.2,0-.3,0,0,0,1.7,1.5,1.3,2.4s-1.5.3-1.5.3c0,0,.1,2-1.1,1.6-.8-.3-1.4-.8-1.9-1.4l-8.6-5.6Z"/>
    <path class="st5" d="M374.1,216.3c-1.8-.8-3.9-.7-5.6,0-1.2.5-2.2,1.4-2.2,2.8,0,2.8.2,5.7.5,8.5l10.9-4.3s.9-2.9-.2-4.7c-.6-1-2.1-1.8-3.4-2.3Z"/>
    <path class="st12" d="M371.3,231.8h0s-.7,1.8-.7,1.8c0,.4-.2.7-.2,1.1,0,.3,0,.6,0,.9.3.9.3,1.9-1.1,1.6-1.8-.3-4.6-3.4-4.6-4.1,1.2-2.3,2.3-5,2.6-7.3l1.7,2.5,2.4,3.6Z"/>
    <g class="st19">
      <path d="M371.2,231.9l-.7,1.7c-1-.7-2-1.9-2.1-3.2,0-.9.5-1.6.8-1.6l2,3Z"/>
    </g>
    <path class="st12" d="M376.3,228.8c-.2.4-.3.7-.5,1.1-1.6,3.2-5.8,2.8-8,0h0c-.2-.3-.4-.5-.5-.8-1.3-2.4-.6-4,.2-7.7.6-2.8,3.3-4.6,6.1-4,.8.2,1.5.5,2.2,1,2.8,2.3,2.2,6.7.5,10.4Z"/>
    <path class="st5" d="M373.8,229h.1c0,0,.1,0,.1,0,0,0,0,0,0,0,0,0,0-.1-.1-.1,0,0,0,0,0,0-.9,0-1.6-.8-1.5-1.7,0,0,0,0,0,0,0,0,0-.1,0-.1,0,0,0,0,0,0,0,0-.1,0-.1.1,0,0,0,0,0,0-.1,1,.6,1.9,1.7,2Z"/>
    <path class="st5" d="M367.4,221.7s1.1.2,1,1.2-.2,1.1-.2,1.1l1.3.5s.2-3.7,1.2-3.5.2-1.6.8-1.8c1.5-.4,5.2.2,6.3,2.7,0-1.4-.6-2.8-1.6-3.8-1.6-1.5-5.1-2.3-6.9-.7s-1.9,4.4-1.9,4.4Z"/>
    <path class="st12" d="M365.2,223.3c0,1,.4,1.9,1.1,2.5.9.9,2,.2,2.2-.9.2-1.1,0-2.8-1.1-3.2-.8-.3-1.8.1-2.1,1,0,.2-.1.4,0,.7"/>
    <path class="st5" d="M372.7,224.3c0,.3,0,.6.2.6s.4-.1.5-.4,0-.6-.2-.6-.4.1-.5.4"/>
    <path class="st5" d="M376,225.2c0,.3,0,.6.2.6s.4-.1.5-.4,0-.6-.2-.6-.4.1-.5.4"/>
    <path class="st5" d="M377.2,224.6c0,0,0,0-.1-.1,0-.2-.2-.4-.3-.5-.2,0-.4-.1-.6,0,0,0-.2,0-.2,0,0,0,0-.2,0-.2,0,0,0,0,0,0,.3,0,.6,0,.8.1.3.2.4.4.5.7,0,0,0,.2-.1.2h0Z"/>
    <path class="st5" d="M372.1,223.3s0,0,0,0c0,0,0-.2,0-.2.2-.2.5-.3.8-.4.3,0,.6.1.8.3,0,0,0,.2,0,.2,0,0-.2,0-.2,0-.1-.2-.3-.2-.6-.3-.2,0-.4.1-.6.3,0,0-.1,0-.2,0Z"/>
    <path class="st1" d="M374.6,224.8c.1.9.4,1.8.8,2.7,0,.1-1.3.1-1.3.1l.6-2.8Z"/>
    <path class="st8" d="M366.2,236.9c.5,6.4.8,12.8.8,19.3s0,3.2-.1,4.9c0,.2.3.2.3,0,.4-6.4,0-12.9-.4-19.3,0-1.6-.2-3.2-.3-4.9,0-.2-.3-.2-.3,0h0Z"/>
    <path class="st8" d="M371.9,236.9c.7,6.4,1.3,12.8,1.5,19.2,0,1.6,0,3.2,0,4.9,0,.2.3.2.3,0,.1-6.4-.5-12.9-1.1-19.2-.2-1.6-.3-3.2-.5-4.9,0-.2-.3-.2-.3,0h0Z"/>
    <path class="st0" d="M368.9,220.8s8.1,1.7,9.3,3c.8.8,0,2.8-.5,3.6-.3.5-2.1.5-2.5-.4s-.3-.8-.8-1-.9.3-1.6.4-2.4-.5-2.8-1.5,0-1.4-.8-1.6l-1.3-.3c-.5-.1-.8-.6-.7-1.1,0,0,0,0,0,0,.1-.5.4-1,.9-1.1h.8Z"/>
    <g class="st18">
      <rect x="374" y="220.9" width="1.2" height="6.8" rx=".6" ry=".6" transform="translate(47.4 513.5) rotate(-72.4)"/>
    </g>
    <path class="st5" d="M363.2,222c0,2,1.6,3.6,3.5,3.6,2,0,3.6-1.6,3.6-3.5,0-1.9-1.4-3.4-3.2-3.6-2.1-.1-3.8,1.5-4,3.5Z"/>
    <g class="st19">
      <path class="st8" d="M363.2,222c0,2,1.6,3.6,3.5,3.6,2,0,3.6-1.6,3.6-3.5,0-1.9-1.4-3.4-3.2-3.6-2.1-.1-3.8,1.5-4,3.5Z"/>
    </g>
    <g class="st19">
      <path class="st8" d="M363.5,221.9c0,1.3,1,2.5,2.4,2.5,1.3,0,2.5-1,2.5-2.4,0-1.3-.9-2.3-2.2-2.5-1.4,0-2.6,1-2.7,2.4Z"/>
    </g>
    <path class="st8" d="M367.8,219h-.4c0-.1,1-3.8,6-4.6v.4c-4.7.8-5.7,4.2-5.7,4.2Z"/>
    <path class="st12" d="M397.6,260.4c-.2.2-.5.3-.8.3-1.1.2-4.4.7-4.7,0-.3-.7,1-1.1,1-1.1-1-.3-1.6-1.3-1.5-2.4.2-1.7,4.6-2.6,6-2.3.4,0,1.1,3.7,0,5.3Z"/>
    <path class="st5" d="M351.7,264.2c2.8,1.9,6.3,3.6,9.6,5.1l-1.2,4.7c-2-.3-4.1-.6-6-1.2-2.1-.5-4.1-1.2-6-2.1-1.1-.5-2.1-1.1-3.1-1.7-.6-.4-1.1-.8-1.6-1.3-.6-.6-1.2-1.3-1.6-2.1-.1-.2-.2-.5-.3-.7v-.2c0,0-.1,0-.1,0h0c0-.3-.1-.5-.2-.7-.1-.6-.2-1.2-.2-1.8,0-.8.1-1.6.3-2.3.3-1.2.6-2.3,1-3.4.7-2,1.6-3.9,2.5-5.8.9-1.8,1.9-3.6,2.9-5.3,2-3.5,4.1-6.8,6.4-10.1l8.1,5.5c-2,3.1-4.1,6.4-6.1,9.6-1,1.6-2,3.2-2.9,4.8s-1.8,3.2-2.5,4.7c-.3.7-.6,1.4-.9,2.1,0,.2,0,.3-.1.4.1.1.2.3.4.4.6.5,1.2,1,1.8,1.4Z"/>
    <path class="st12" d="M360.2,268.9l-1.3,5.1,3.4,1.4s2.2-3.1,2.2-4.2-4.4-2.2-4.4-2.2Z"/>
    <path class="st5" d="M360.9,266.2s.6,6.3-1.6,8.8c0,0,11.6,3.8,20.2,0,0,0,1.5-4.9,0-8.8-6.2,1-12.5,1-18.7,0Z"/>
    <path class="st15" d="M360.9,266.2s.6,6.3-1.6,8.8c0,0,11.6,3.8,20.2,0,0,0,1.5-4.9,0-8.8-6.2,1-12.5,1-18.7,0Z"/>
  </g>
  <g>
    <path class="st34" d="M132.2,435.1c4.1-2.4,8.2-4.8,12.3-7.1,11.2-6.5,25-12.3,34.7-21.3-.5-.9-1-1.9-1.5-2.8-3.2-6-5.9-13.1-5.5-18.7-19.5,10.6-39.2,21.7-57.4,34.1-1.8,1.3-3.7,2.5-5.5,3.8,3.6.4,13.1,6,22.9,12.1Z"/>
    <path class="st27" d="M156.3,450.2c11.1-9.6,22.5-18.8,34.2-27.6-2.7-3-5.2-6.2-7.4-9.5-1.1-1.7-2.5-3.9-3.8-6.3-9.7,9-23.5,14.8-34.7,21.3-4.1,2.4-8.2,4.8-12.3,7.1,9.4,5.9,19.1,12.2,24.1,15.1Z"/>
    <path class="st16" d="M197.2,429.2c-2.4-2.1-4.6-4.3-6.7-6.6-11.7,8.8-23.1,18-34.2,27.6.9.5,1.7,1,2.3,1.2,7.4,3.4,16,2.3,23.9,2.4.1,0,.3,0,.4,0,5.1-5.3,10-10.6,14.8-16.2,1.1-1.3,2.2-2.6,3.3-3.9.2-.3.5-.5.7-.8-1.5-1.2-3-2.5-4.4-3.6,0,0-.1-.1-.2-.2Z"/>
    <path class="st16" d="M329.1,367.8c9-1.7,18.3-2.2,26.7-5.7,4.5-1.9,7.4-5.7,9.9-9.8-.5-.5-1-1-.9-1.5,0-1,1.9-2.6,2.5-3.3,1.8-2.3,7.1-9.5,9.2-11.6,3-2.8,6.3-5.6,9.9-8-6.2,2-12.5,5-17.3,9.1-3.6,3-6.4,6.5-9.3,10-1.8,2.2-3.7,4.3-5.7,6.4-3.8,3.9-8.9,6.4-13.9,8.7-6.3,2.8-12.7,5.4-19.2,7.7.2,0,.3,0,.5,0,2.5-.8,5.2-1.5,7.7-1.9Z"/>
    <path class="st27" d="M375.9,360.3c0-.2.3-.4.6-.6-1.8-1.1-3.5-2.2-5.2-3.3-1.3-.9-2.7-1.8-4-2.8-.4-.3-1.1-.8-1.7-1.3-2.6,4.2-5.4,8-9.9,9.8-8.4,3.5-17.7,4-26.7,5.7-2.6.5-5.2,1.1-7.7,1.9.2,0,.4,0,.6,0,2.4.3,4.7,1.6,6.8,2.9,2.3-.5,4.7-.8,7.1-1.1,9.1-.9,18.4-.7,27.1-3.5,4.7-1.5,8.9-4,13.1-6.5,0-.7-.1-1.2,0-1.3Z"/>
    <path class="st21" d="M367.2,347.5c-.6.7-2.4,2.4-2.5,3.3,0,.5.4,1,.9,1.5.6.5,1.3,1,1.7,1.3,1.3.9,2.6,1.9,4,2.8,1.7,1.2,3.5,2.2,5.2,3.3,2.8-2,13.7-6.3,17.4-7.7.2,0,.5-.2.7-.3,3.2-4,6.4-8.2,7.3-9.3,2.1-2.7,4.1-5.6,5.9-8.6.9-1.6,2.2-3.6,2.4-5.7,0-.5,0-1-.1-1.4,0-.1,0-.3,0-.4-.4-1.2-1.5-2-2.6-2.7-2.2-1.3-4.7-1.8-7.2-1.6-1,0-2,.3-3,.6-3.8,1.1-7.4,2.9-10.8,5.2-3.6,2.4-7,5.2-9.9,8-2.1,2-7.4,9.3-9.2,11.6Z"/>
    <path class="st16" d="M380.9,382.3c-.7-.7-1.8-4.7-2.8-9.2-.3-1.3-.6-2.6-.8-3.9-.8,6.7-8.2,10.2-14.2,12-3.6,1.1-8,2.6-11.7,2.1-5.3-.8-10.8-2.7-16-4.5.7,1.1,1.4,2.1,2.1,3.2.9,1.4,1.6,2.8,2.3,4.3.2.1.4.2.6.3,1.3.7,2.3,1.9,2.6,3.3.8,4-.4,8.1-2.9,11.6,1.7-.5,3.4-1.1,5-1.7-.4-1.3,0-2.8.7-3.9.9-1.5,2.4-2.5,3.9-3.5,3-2,5.9-4,8.9-6,3.6-2.4,7.4-5,11.7-5.6,2.2-.3,4.7,0,6.7,1,.8.4,3.4,2.1,4.1,3.4.9-.5,1.8-.9,2.6-1.4-.9-.1-1.8-.6-2.8-1.6Z"/>
    <path class="st34" d="M271.6,376.8c1.3.1,2.6,0,4.2-.8,2.5-1.2,4.6-3.2,7.2-4.2,3.5-1.4,7.5-.9,11.3-.4,4.3.6,8.6,1.2,13,1.7,3.8.5,7.8.6,11.3,2.3,4.2,1.9,8.4,3.9,12.6,5.8,2.4,1.1,4.8,2.2,6.9,3.9.2.2.5.5.7.7.4.2.7.3,1.1.5-.7-1.5-1.4-2.9-2.3-4.3-.6-1.1-1.3-2.2-2.1-3.2,5.2,1.8,10.7,3.7,16,4.5,3.7.6,8.1-1,11.7-2.1,6.1-1.8,13.5-5.3,14.2-12-.6-3.1-1.1-6-1.3-7.6-4.2,2.5-8.4,5-13.1,6.5-8.7,2.8-18,2.5-27.1,3.5-2.3.2-4.7.6-7.1,1.1-2.1-1.3-4.5-2.6-6.8-2.9-.2,0-.4,0-.6,0-.2,0-.3,0-.5,0-2-.1-4.1,0-6.2.2-5.4.4-10.8.2-16.2-.4-2.6-.3-5.3-1.2-7.9-1.3-2.2,0-4.5.5-6.8.3-3.8-.2-7.5-.6-11.3-1.2-.2,3.2-.5,6.3-1.1,9.4Z"/>
    <path class="st16" d="M318.8,378.2c6.9,1.9,13.6,4.5,19.9,7.6-.2-.2-.4-.5-.7-.7-2-1.7-4.5-2.8-6.9-3.9-4.2-1.9-8.4-3.9-12.6-5.8-3.5-1.6-7.5-1.7-11.3-2.3-4.3-.6-8.6-1.2-13-1.7-3.8-.5-7.8-1-11.3.4-2.6,1-4.7,3-7.2,4.2-1.5.8-2.8.9-4.2.8-1,4.9-2.8,9.5-6.4,13.8-2,2.3-4.4,4.3-7,6,3.3-1.8,6.4-4,9.2-6.4,3.9-3.2,7.1-7.5,11.2-10.3,1.2-.8,2.5-1.5,3.9-2.1,4.1-1.7,8.8-2.3,13.3-2.5,6.5-.3,13.1.5,19.7,2,1.1.3,2.3.5,3.4.8Z"/>
    <path class="st13" d="M177.7,403.9c3.8,1.3,8.4-.3,11.1-3.4,1.1-1.3,2.2-3,3-4.5.9-1.9,0-3.8-.3-5.8-.4-2.4-.6-4.7-.7-7.1-.2-3.1,0-6.3.2-9.4-.1-2-.1-4,0-6-4.1,3-8.2,6.1-12.5,8.8-2.3,1.5-4.8,3.1-5.7,5.7-.3.9-.5,2-.6,3-.4,5.6,2.4,12.7,5.5,18.7Z"/>
    <path class="st13" d="M376.6,359.7c-.3.2-.6.4-.6.6,0,.1,0,.6,0,1.3.2,1.6.7,4.5,1.3,7.6.3,1.3.5,2.6.8,3.9.8-.6,1.7-1.1,2.6-1.5,9.3-4.5,18.9-8.5,28.6-12.1,6.4-2.4,12.8-4.9,19.3-6.9-.2-.7-.6-1.5-1.1-2.1-.2-.3-.5-.5-.8-.8-5.3-4.4-13.2-3.5-19.4-2.1-4.3,1-8.5,2.4-12.7,4-.2,0-.5.2-.7.3-3.7,1.4-14.6,5.7-17.4,7.7Z"/>
    <path class="st21" d="M377,381.8c-2-1-4.5-1.3-6.7-1-4.3.6-8.1,3.1-11.7,5.6-3,2-5.9,4-8.9,6-1.5,1-2.9,2-3.9,3.5-.7,1.1-1,2.6-.7,3.9.1.4.3.7.5,1,7-2.4,14-5,20.9-7.8,4.7-1.9,9.3-3.9,13.8-6.2.4-.2.8-.4.9-.8,0-.2,0-.5-.2-.9-.7-1.3-3.3-3-4.1-3.4Z"/>
    <path class="st13" d="M183.6,453.3c-4.5-.3-8.2-.3-10.6-.3-6.2,0-10.3.4-15-1.9-.7-.3-1.2-.7-1.6-.9-5-2.9-14.7-9.2-24.1-15.1-9.8-6.1-19.3-11.6-22.9-12.1-.2,0-.4,0-.6,0-1.1,0-2.9.7-5.2,1.8-.4.2-.7.3-.7.4-2.1,1.1-12.7,18.6-26.3,43,5.1.1,12.1.3,20.4.4,10.6.2,23.2.5,39.6.7,13,.2,23.3.3,30.1.4,2.8,0,5.5,0,8,0,0-.2,0-.4.1-.7.4-1.1,5.3-8,6.4-10,1.2-2.2,1.9-4.2,2.3-5.8Z"/>
    <path class="st21" d="M245.8,422.8c5.2-.4,10.5-.9,15.7-1.2,4-.2,6.5.3,10.2-1.5,6-3,12.1-5.6,18.3-7.9,5.6-2.1,11.8-3.2,17.8-3.9,4.9-.6,9.5.1,14.3-.2,4-.2,8.1-1.1,11.6-3.1,3.7-2.1,4.7-4.6,5.8-8.6.6-2.1.6-4.5-.7-6.3-.9-1.1-2.2-1.8-3.5-2.4-3.6-1.7-6.8-2.9-10.1-5.2-2.1-1.5-4.2-3-6.2-4.5-1.1-.3-2.3-.6-3.4-.8-.5,3.6-.1,7.7-2.3,10.9-3.9,5.5-10.4,8.4-16.8,10.2-6.5,1.8-13.2,2.6-19.4,5.1-6.9,2.7-12.9,7.2-19.6,10.3-6.7,3.1-14.8,4.7-21.4,1.3-6.5-3.4-9.7-8.7-13.3-14.7-2.3-3.8-5.9-7.4-10.4-7.2-1.7,0-3.4.8-5.1,1.1-3.5.6-8-.7-10.7-3.3,1.1,2.7,2.4,5.4,3.9,7.9,3.8,6.6,8.8,12.5,14.4,17.6,1.9,1.8,4,3.4,6,5,.6.4,1,.6,1.2.7,6.8,3.4,16.8,1,24,.5Z"/>
    <path class="st21" d="M190.5,422.6c2.1,2.3,4.3,4.6,6.7,6.6.3.1.6.3.9.4,3.6,1,7.4-.3,10.4-2.5,2.9-2.2,5.1-5.1,7.2-8-.6-.5-1.3-1-1.9-1.6-5.9-5.1-11-11-14.9-17.7-3.9-6.7-6.6-14.2-7.6-21.9-.2-1.4-.3-2.8-.4-4.2-.3,3.1-.3,6.3-.2,9.4.1,2.4.4,4.7.7,7.1.3,1.9,1.2,3.9.3,5.8-.7,1.6-1.8,3.2-3,4.5-2.7,3.1-7.3,4.7-11.1,3.4.5,1,1,1.9,1.5,2.8,1.4,2.4,2.7,4.6,3.8,6.3,2.2,3.4,4.7,6.6,7.4,9.5Z"/>
    <path class="st2" d="M215.8,419c-2.1,2.9-4.3,5.9-7.2,8-3,2.2-6.8,3.5-10.4,2.5-.3,0-.6-.2-.9-.4,0,0,.1.1.2.2,1.4,1.2,2.9,2.5,4.4,3.6,1.5,1.2,3.1,2.3,4.8,3,4.2,2.1,5.5.5,9.3-2.1,4-2.7,8.3-5.1,12.9-6.1-4.6-2.5-9-5.5-13.1-8.8Z"/>
    <path class="st2" d="M343,389.9c-.3-1.4-1.3-2.6-2.6-3.3-.2-.1-.4-.2-.6-.3-.4-.2-.7-.4-1.1-.5-6.2-3.1-13-5.7-19.9-7.6,2,1.6,4.1,3.1,6.2,4.5,3.3,2.3,6.5,3.5,10.1,5.2,1.3.6,2.6,1.2,3.5,2.4,1.3,1.7,1.3,4.2.7,6.3-1.1,4.1-2,6.5-5.8,8.6-3.5,2-7.6,2.8-11.6,3.1-4.8.3-9.3-.4-14.3.2-6,.7-12.1,1.8-17.8,3.9-6.2,2.3-12.3,5-18.3,7.9-3.7,1.8-6.2,1.3-10.2,1.5-5.2.2-10.5.8-15.7,1.2-7.2.5-17.2,3-24-.5-.2,0-.6-.4-1.2-.7,2.8,2.2,5.7,4.2,8.7,6.1,1.4-.3,2.8-.4,4.2-.4,7.4.1,14.6,2.2,22.1,1.5,17.2-1.5,32.7-11,49.7-14.3,8.7-1.7,17.9-1.7,25.9-5.5,3.4-1.6,6.6-4.3,8.8-7.5,2.4-3.5,3.7-7.6,2.9-11.6Z"/>
    <path class="st34" d="M191,373.6c0,1.4.2,2.8.4,4.2,1,7.7,3.7,15.2,7.6,21.9,4,6.7,9.1,12.7,14.9,17.7.6.5,1.3,1,1.9,1.6,4.1,3.3,8.5,6.3,13.1,8.8.2,0,.3,0,.5,0-3-1.9-5.9-3.9-8.7-6.1-2.1-1.6-4.1-3.3-6-5-5.6-5.2-10.6-11-14.4-17.6-1.5-2.5-2.7-5.2-3.9-7.9-1.8-4.3-3.1-8.8-3.9-13.5-.6-3.5-.8-7-.7-10.6-.3.2-.5.4-.8.5-.1,2-.1,4,0,6Z"/>
    <path class="st2" d="M278.6,379.9c-4.2,2.8-7.4,7.1-11.2,10.3-2.9,2.4-5.9,4.7-9.2,6.4-1.4.7-2.9,1.4-4.4,1.9-10.1,3.4-22,.4-29.2-7.4-3.9-4.2-6.2-9.6-7-15.2,0-.7-.2-1.4-.2-2.1-.1,1.5-.1,3,0,4.6.2,6,1.9,12.2,5.6,16.9,4.1,5.1,10.3,8.2,16.8,9.3,3.8.6,7.8.7,11.7,0,4.2-.7,6.6-2.4,9.8-4.8,5.3-4,10-8.9,13.8-14.3,2.1-2.9,4.7-5.5,7.6-7.8-1.4.6-2.7,1.2-3.9,2.1Z"/>
    <path class="st13" d="M295.7,375.3c-4.5.2-9.1.8-13.3,2.5-2.9,2.3-5.5,4.8-7.6,7.8-3.9,5.4-8.5,10.2-13.8,14.3-3.2,2.5-5.6,4.1-9.8,4.8-3.8.7-7.8.6-11.7,0-6.4-1.1-12.7-4.2-16.8-9.3-3.8-4.7-5.4-10.9-5.6-16.9,0-1.5,0-3,0-4.6,0-1.6,0-3,.2-4.5.3-1.7.7-3.4,1.2-5.1,0-.2.1-.4.2-.6.2-.7.4-1.3.7-2,.2-.5.3-.9.5-1.4.1-.4.3-.8.3-1.2,0-.3,0-.5-.1-.8-.3-.7-1.1-1-1.9-1.2-5-1.2-9.2,0-13.3,1.9-1.8.9-3.6,1.9-5.4,2.9-2.7,1.6-5.3,3.3-7.9,5.1-.1,3.5.1,7.1.7,10.6.8,4.6,2.1,9.1,3.9,13.5,2.7,2.6,7.2,3.9,10.7,3.3,1.7-.3,3.3-1,5.1-1.1,4.4-.2,8,3.4,10.4,7.2,3.7,6,6.9,11.3,13.3,14.7,6.6,3.4,14.7,1.8,21.4-1.3,6.7-3.1,12.7-7.6,19.6-10.3,6.2-2.4,13-3.3,19.4-5.1,6.5-1.8,13-4.8,16.8-10.2,2.2-3.2,1.8-7.3,2.3-10.9-6.6-1.5-13.2-2.3-19.7-2Z"/>
    <path class="st21" d="M112.9,433.8c-2.1-1.2-8.4-4.4-8.4-4.4,0,0,18.1,15.4,29.3,19.6,2.2.8,6.7,2.3,6.7,2.3,0,0-18.3-12-27.6-17.5Z"/>
    <path class="st29" d="M339.6,361.4c-.2-.4-.4-.7-.6-1-2-3-4.9-5.3-8.3-6.5-4.3-1.4-9-2.1-13.6-1.6-4.1.5-9.7,2.3-13.3,4.4-1.3.8-2.3,2-3.1,3.4-.1.2-.3.5-.4.7-1.5-.9-3.1-1.7-4.8-2.4-2.1-.9-4.1-1.5-6.1-1.9-.4-.6-.8-1.1-1.3-1.6-4.2-3.5-12.4-2.7-17.6-3.5-3.5-.6-7.5-.6-10.2,1.7-.3.2-.5.5-.7.8-4-.1-8.1-.2-11.7-1.1-.9-.2-1.9-.5-2.9-.7-.2-.3-.3-.6-.5-.8-.7-1.1-1.5-2.2-2.4-3.4-.3.2-.7.3-1.1.4-.5.1-1,.3-1.5.4-.7.2-1.4.4-2,.6-.2,0-.4.1-.6.2-1.7.6-3.3,1.2-4.9,2-1.3.7-2.6,1.4-3.8,2.4-.5.4-1.1.9-1.6,1.4-4.2,3.8-7.2,8.9-8.4,14.5-2.2,10.4,2.2,21.9,10.8,28.2,1.3.9,2.7,1.8,4.1,2.5,2.9,1.2,5.9,2,8.9,2.3,5.6.5,10.5-.6,15-2.7,2.8-1.2,5.5-2.8,8.3-4.5,1.1-.7,2.2-1.3,3.3-2,6.5-4,13.7-7.8,21.4-7.6,4,0,7.3,2,10.4,4.2,0,0,.2,0,.2.2-1.2-2-2-4.5-2.6-6.6-.8-3-1.2-6.2-1-9.4,0,0,0,0,0-.1,0,.6,0,1.2,0,1.9,0,.9.1,1.9.2,2.8,0,.4.5,2.6,1.1,4.9.6,2.3,1.4,4.7,2,5.7.2.3.4.5.6.4,5.6-1.7,9.9-4.9,14.9-7.7,5.6-3.1,11.2-6,16.8-9,.7-.4,1.5-.8,2.2-1.2,2.1-1.1,4.3-2.4,5.2-4.6.8-1.9.4-4.2-.6-6Z"/>
    <g>
      <path class="st13" d="M255.7,359.3c.1,0,.2,0,.3,0,4.4,1.2,8,3.4,12.6,4,4.7.6,9.5.5,14.2,1,2,.2,4,.6,5.8,1.5,0,0,0-.1,0-.2.8-3,.9-7.9-1-10.9-.4-.6-.8-1.1-1.3-1.6-4.2-3.5-12.4-2.7-17.6-3.5-3.5-.6-7.5-.6-10.2,1.7-.3.2-.5.5-.7.8-1.6,1.9-2.2,4.5-2.2,7.1Z"/>
      <path class="st13" d="M295.5,377c-.1-.9-.2-1.9-.2-2.8.9.5,2.1.7,3.6.3,4.1-1.1,8.3-5.1,12.1-7,4.4-2.2,8.9-4.1,13.6-5.7,4.1-1.4,8.3-2.5,12.6-3.3.2.3.4.7.6,1,1,1.8,1.4,4.1.6,6-.9,2.2-3.1,3.4-5.2,4.6-.7.4-1.5.8-2.2,1.2-5.6,3-11.2,6-16.8,9-5,2.7-9.3,6-14.9,7.7-.2,0-.4-.1-.6-.4-.6-1-1.4-3.4-2-5.7-.6-2.3-1.1-4.5-1.1-4.9Z"/>
      <path class="st34" d="M296.7,364.8c.6-2.3,1.4-4.7,2-5.7-1.6-.9-3.2-1.8-4.9-2.5-2.1-.9-4.1-1.5-6.1-1.9,1.9,3.1,1.9,7.9,1,10.9,0,0,0,.1,0,.2-1.6,5.5-4.6,10.3-10.5,11.1-3.1.4-6.3.2-9.4,0-3.3-.3-6.9-.7-9.3-2.9-2.7-2.5-3.2-6.5-3.5-10.2-.1-1.4-.2-3-.2-4.5,0-2.7.6-5.2,2.2-7.1-4-.1-8.1-.2-11.7-1.1-.9-.2-1.9-.5-2.9-.7-.2-.3-.3-.6-.5-.8-.7-1.1-1.5-2.2-2.4-3.4-.3.2-.7.3-1.1.4-.5.1-1,.3-1.5.4l-2.2,2.4c-1.6,2.2-3.1,4.4-4.4,6.8-3.8,7.6-3.1,17.3,1.7,24.3,4.8,7,13.6,11.2,22.1,10.4,8.2-.7,15.4-5.6,23.4-7.3,3.8-.9,8.1-1.1,11-3.8,3.2-3,3.6-11.6,7.3-15Z"/>
      <path class="st27" d="M278.4,383.6c-8,1.8-15.2,6.6-23.4,7.3-8.5.8-17.3-3.4-22.1-10.4-4.8-7-5.5-16.7-1.7-24.3,1.2-2.4,2.8-4.6,4.4-6.8l2.2-2.4c-.7.2-1.4.4-2,.6-.2,0-.4.1-.6.2-1.7.6-3.3,1.2-4.9,2-1.3.7-2.6,1.4-3.8,2.4-.5.4-1.1.9-1.6,1.4-4.2,3.8-7.2,8.9-8.4,14.5-2.2,10.4,2.2,21.9,10.8,28.2,1.3.9,2.7,1.8,4.1,2.5,2.9,1.2,5.9,2,8.9,2.3,5.6.5,10.5-.6,15-2.7,2.8-1.2,5.5-2.8,8.3-4.5,1.1-.7,2.2-1.3,3.3-2,6.5-4,13.7-7.8,21.4-7.6,4,0,7.3,2,10.4,4.2,0,0,.2,0,.2.2-1.2-2-2-4.5-2.6-6.6-.8-3-1.2-6.2-1-9.4,0-.9.1-1.9.2-2.8,0-.4.5-2.6,1.1-4.9-3.7,3.3-4.1,12-7.3,15-2.9,2.7-7.1,3-11,3.8Z"/>
      <path class="st21" d="M324.6,361.9c-4.7,1.5-9.2,3.4-13.6,5.7-3.8,1.9-8.1,5.9-12.1,7-1.5.4-2.7.2-3.6-.3-.1-3.2.2-6.3,1-9.4.6-2.1,1.4-4.5,2.6-6.6.8-1.4,1.8-2.6,3.1-3.4,3.6-2.1,9.2-3.9,13.3-4.4,4.5-.5,9.3.1,13.6,1.6,3.4,1.2,6.3,3.4,8.3,6.5-4.2.8-8.4,1.9-12.6,3.3Z"/>
      <path class="st21" d="M288.6,365.8c-1.8-1-3.8-1.3-5.8-1.5-4.7-.5-9.5-.3-14.2-1-4.6-.6-8.3-2.7-12.6-4-.1,0-.2,0-.3,0,0,1.5,0,3,.2,4.5.3,3.7.8,7.7,3.5,10.2,2.4,2.2,6,2.6,9.3,2.9,3.1.3,6.3.5,9.4,0,6-.9,8.9-5.6,10.5-11.1Z"/>
    </g>
    <path class="st21" d="M409.3,359.5c-9.7,3.6-19.3,7.6-28.6,12.1-.9.4-1.8.9-2.6,1.5,1,4.4,2.1,8.5,2.8,9.2,1,1,1.9,1.4,2.8,1.6,1.8.3,3.5-.7,5.5-1.9,3.1-1.8,27-16.2,35.9-21.5,2.7-1.6,4.3-4.9,3.5-7.8-6.5,2-13,4.6-19.3,6.9Z"/>
  </g>
</svg>