<?xml version="1.0" encoding="UTF-8"?>
<svg id="Layer_1" xmlns="http://www.w3.org/2000/svg" version="1.1" xmlns:xlink="http://www.w3.org/1999/xlink" viewBox="0 0 500 500">
  <!-- Generator: Adobe Illustrator 29.1.0, SVG Export Plug-In . SVG Version: 2.1.0 Build 142)  -->
  <defs>
    <style>
      .st0 {
        fill: #004a99;
      }

      .st1 {
        fill: #3e2216;
      }

      .st2, .st3 {
        opacity: .6;
      }

      .st4 {
        fill: #2e353a;
      }

      .st5 {
        fill: #263238;
      }

      .st6, .st7, .st8 {
        fill: #fff;
      }

      .st9 {
        fill: none;
      }

      .st10 {
        fill: #ff725e;
      }

      .st7 {
        opacity: .3;
      }

      .st7, .st8, .st11, .st12, .st13, .st3 {
        isolation: isolate;
      }

      .st8, .st11 {
        opacity: .4;
      }

      .st14 {
        fill: #a24e3f;
      }

      .st12 {
        opacity: .2;
      }

      .st13, .st15 {
        opacity: .5;
      }

      .st16 {
        fill: #f5f5f5;
      }

      .st17 {
        clip-path: url(#clippath);
      }

      .st18 {
        fill: #9f5b53;
      }
    </style>
    <clipPath id="clippath">
      <polygon class="st9" points="143.8 360.9 143.8 118 318.9 103.2 318.9 346.1 143.8 360.9"/>
    </clipPath>
  </defs>
  <g id="freepik--Shadow--inject-46">
    <ellipse id="freepik--path--inject-46" class="st16" cx="262.5" cy="419.5" rx="181.4" ry="11.3"/>
  </g>
  <g id="freepik--Device--inject-447">
    <path class="st5" d="M322.3,175.7v-26.6l2.7-.2c.3,0,.7.2.7.6h0v25.4c0,.4-.3.7-.7.8h-2.7Z"/>
    <path class="st5" d="M322.3,145.7v-26.6l2.7-.2c.3,0,.7.2.7.6h0v25.4c0,.4-.3.7-.7.8h-2.7Z"/>
    <path class="st5" d="M318.4,88.8h-.6l-172.8,14.6c-3.7.4-6.5,3.5-6.5,7.2v262.8c-.1,3.3,2.6,6,5.9,6.1h.6l172.8-14.6c3.6-.4,6.4-3.5,6.5-7.2V94.9c.1-3.3-2.6-6-5.9-6.1ZM249.2,234.8c1.8,7.4-2.2,16.6-12.1,16.6s-5.4-.8-7.3-2.2c-5.2,8.9-21.1,3.9-17.4-6.9,1.2-3.4,3.1-7.4,2.7-11-.5-4.2-3.2-8.5-4.7-12.3-1.2-2.9-.1-6.2,1.9-8.5.8-3.9,3.8-7.2,8.9-7.2s3.5.5,4.9,1.3h.6c1.3,0,2.5.2,3.7.5,1.9-1.2,4.2-2,7.1-2,12.4,0,15.6,14.2,9.6,21.6,2,2.9,2.8,6.7,2.2,10.3v-.2Z"/>
    <path class="st6" d="M143.8,118v242.9l175.1-14.8V103.2l-175.1,14.8h0Z"/>
    <g class="st15">
      <path class="st3" d="M234.8,106.6c1,0,1.7-.9,1.8-1.9,0-.9-.7-1.6-1.6-1.6h-.2c-1,0-1.7.9-1.8,1.9,0,.9.7,1.6,1.6,1.6h.2Z"/>
      <path class="st3" d="M227.9,105.4c0-.4-.3-.8-.8-.8h-.1c-.5,0-.9.5-.9,1s.3.8.8.8h.1c.5,0,.9-.5.9-1Z"/>
    </g>
    <path class="st13" d="M231.3,367.9c-2.7.3-5.1-1.7-5.4-4.4v-.6c0-3.1,2.3-5.6,5.4-5.9,2.7-.3,5.1,1.7,5.3,4.4v.6c0,3-2.2,5.6-5.3,5.9Z"/>
    <path class="st5" d="M295.3,92.8v-1.7c0-.4.3-.7.7-.8l14.4-1.2c.3,0,.7.2.7.6h0v1.8c0,.4-.3.7-.7.8l-14.4,1.1c-.3,0-.6-.2-.7-.6h0Z"/>
  </g>
  <g id="freepik--Character--inject-447">
    <g id="freepik--group--inject-447">
      <path class="st18" d="M409.5,236.8l-5.8,5.8c-.9.9-.3,6.3,0,8.1s7.5,5.1,8,4.8,1.8-6.5,1.8-6.5l-6-3.1,4.2-4.9-2.2-4.2h0Z"/>
      <path class="st0" d="M408.9,194.7c3.4,1.4,16.8,27.8,16.8,32.6s-16.8,17.4-16.8,17.4l-3.7-3.6s12.3-14.5,12.7-16.3-13.5-20-13.5-20l4.5-10.1h0Z"/>
      <path class="st8" d="M425.8,227.4c.1,4.8-16.8,17.4-16.8,17.4l-3.7-3.6s12.3-14.5,12.7-16.3c.2-1-3.5-6.5-7.1-11.4-3.2-4.5-6.3-8.5-6.3-8.5l1.3-3,3.2-7.2c3.3,1.3,16.6,27.8,16.7,32.6h0Z"/>
      <polygon class="st0" points="405.9 239 411.1 244.8 408.9 246.4 404.5 241.4 405.9 239"/>
      <path class="st12" d="M410.8,213.4c-3.2-4.5-6.3-8.5-6.3-8.5l1.3-3c.2-.1.5-.3.7-.4,0,0,4.6,5.3,4.3,11.9Z"/>
      <path class="st14" d="M380.3,172.8c-.8,1.2-1.6,2.4-2.7,3.4.5.7,1.3,1.2,2.2,1.1l.5-4.5Z"/>
      <path class="st4" d="M379.5,171.4c-.1.7.3,1.3.7,1.3s.9-.5.9-1.2-.3-1.3-.7-1.3-.9.5-.9,1.2Z"/>
      <path class="st18" d="M380.2,179.9c.1.3.2.7.3,1,.7,1.9,1.9,3.6,3.6,4.8.4.3.9.6,1.3.8,2.4,1.3,5.3,1.4,7.9.3,1.1-.5,2.2-1.2,3-2.1,3.6-3.7,3.5-7.9,4-15.1.4-5.4-3.7-10.1-9.1-10.5-1.5-.1-3,.1-4.5.7-7,2.9-8,13.6-6.5,20.1h0Z"/>
      <path class="st12" d="M384.1,185.7c.4.3.9.6,1.3.8,2.4,1.3,5.3,1.4,7.9.3-.3-.9-.7-1.7-1.3-2.4-2.7-.4-5.4,0-7.9,1.3h0Z"/>
      <path class="st18" d="M398.6,195c-3.5,3.2-12.2,2-12.2,2,0,0-5.4-1.5-4.3-3.2,3.2-.5,4.7-2,5.4-3.9.3-1.2.5-2.4.3-3.6-.1-.7-.1-1.3-.3-2l10.7-7.9c-1.4,5.2-3.1,14.8.4,18.6h0Z"/>
      <path class="st1" d="M388.7,156.8s-1.9-1.2-5.1,1.9c-2.7,2.6,0,4.6-1.6,7.9s.6,6.6.6,6.6c0,0,1.6,3.4,4.3,3.2,0,0,2.2,2.7,1.9,5.5s3.7,5,9.1,4.9,3.3-3.5,3.3-3.5c1.6-1.8,2.9-3.9,3.8-6.1,1.1-2.7,1.6-5.6,1.5-8.6.1-3.1-1-6.1-3.2-8.3-3.6-4.1-12.3-6.2-14.6-3.5h0Z"/>
      <path class="st1" d="M382.5,164.4s-5.4-5-2.9-10.4,2.9,0,2.9,0c0,0,4-3.2,6.2-2.4s-1.4,2.7-1.4,2.7c0,0,15.3-2.7,16.6,6.7s-21.4,3.4-21.4,3.4h0Z"/>
      <path class="st4" d="M381.2,169.7c-.1,0-.2,0-.3-.1-.2-.3-.4-.4-.7-.5-.2,0-.4-.1-.4-.3s.1-.4.3-.4c.5,0,1,.3,1.4.8.1.2.1.4-.1.5h-.2,0Z"/>
      <path class="st0" d="M399.5,194.3l-1.6-4.1s-10.7-2-14.3,3.3,15.9.8,15.9.8Z"/>
      <polygon class="st18" points="371 411.7 363.5 412.5 363.1 408.1 362.1 396.4 369.6 395.6 370.7 408.6 371 411.7"/>
      <polygon class="st18" points="408.3 410.8 401.1 410.8 401 409.1 401 408.9 400.6 398.4 400.6 398.2 400.5 394.2 407.7 394.2 408.3 410.8"/>
      <polygon class="st12" points="369.6 395.6 370.7 408.6 363.1 408.1 362.1 396.4 369.6 395.6"/>
      <polygon class="st12" points="408.3 409.8 408.3 409.8 401 408.9 401 408.9 400.6 398.8 400.6 398.8 407.9 399.4 408.3 409.5 408.3 409.8"/>
      <path class="st5" d="M400.1,410.3h8.8c.3,0,.6.2.6.5l1.4,6.5c.1.6-.3,1.1-.8,1.3h-.2c-2.9,0-4.9-.2-8.5-.2s-8.9.2-11.9.2-3.4-3-2.2-3.3c5.6-1.2,9.8-2.9,11.6-4.5.3-.3.7-.5,1.2-.5Z"/>
      <path class="st5" d="M362.7,410.1h8.8c.3,0,.5.2.6.5l1.4,6.5c.1.6-.2,1.1-.8,1.3h-.2c-2.9,0-4.9-.2-8.5-.2s-8.9.2-11.9.2-3.4-3-2.2-3.3c5.6-1.2,9.8-2.9,11.6-4.5.4-.4.8-.5,1.2-.5Z"/>
      <path class="st5" d="M361.5,407.1h10.6s-.9-91.5,10.6-122.4c.8,10.2,1.7,20.8,2.6,29.6.6,5.5,1.1,10.2,1.6,13.7,3.4,23,11.8,79.9,11.8,79.9h10.5s-1.2-54.5-2.5-77.2c-1.4-24.6-2-78.6-2-83.2h-38.5c-3.6,19.4-13,96.9-4.7,159.6h0Z"/>
      <path class="st12" d="M382.7,284.6c.8,10.2,1.7,20.8,2.6,29.7,1.3-12.8,2.9-21.8,2.9-21.8,0,0,1.5-1.2,5.6-7.8s0-18.9,0-18.9c.2,11.3-11.1,18.8-11.1,18.8h0Z"/>
      <polygon class="st0" points="360.2 404.1 360.8 407.1 373.3 407.1 373.3 404.3 360.2 404.1"/>
      <polygon class="st0" points="397.5 405.2 398.8 408 409.3 408 410 405.2 397.5 405.2"/>
      <path class="st0" d="M405.7,250.1s-1.5-8.7.7-34.1c.6-6.6,1.4-13.7,2.5-21.2,0,0-20.9-4.6-35.5,0,0,0-.6,3.1-1.4,8.4-.5,3.2-1.1,7.1-1.7,11.7h0v.5c-1.6,11.1-4.3,19.3-4.6,34.2l40,.5h0Z"/>
      <path class="st8" d="M406.4,216c-2.2,25.4-.7,34.1-.7,34.1l-39.9-.6c.2-13.2,2.4-21.1,4-30.5.2-1.2.4-2.4.5-3.7v-.5h.1c.5-3.8,1-7.1,1.4-10,.1-.6.2-1.2.3-1.7.8-5.3,1.4-8.4,1.4-8.4,14.6-4.6,35.5,0,35.5,0-1.2,7.6-2,14.7-2.6,21.3h0Z"/>
      <path class="st12" d="M374.1,205.3s-.4,8.8-4.4,13.7c.2-1.2.4-2.4.5-3.7v-.5h.1c.5-3.8,1-7.1,1.4-10,.9,0,1.7.2,2.4.5Z"/>
      <path class="st18" d="M366.2,188.2l3-3.7c.3-.8.7-1.6,1.2-2.4.4-.4,5.8-3,6.1-2.8,1,1.7,1.9,3.4,2.7,5.1.3.6-4,2.6-5.1,2.9-.7.2-1.5.1-2.2-.1l-2.3,3.8"/>
      <path class="st0" d="M373.6,194.8c-3,1.2-6.3,4.6-11,9.3l8.2-14.8-4.2-2.5s-16.9,23.6-16.9,26.9,4.4,5.9,21.4-3c0,0,4.5-6.4,4.5-10.2s-.7-4.1-2-5.7Z"/>
      <path class="st8" d="M373.6,194.8c-3,1.2-6.3,4.6-11,9.3l8.2-14.8-4.2-2.5s-16.9,23.6-16.9,26.9,4.4,5.9,21.4-3c0,0,4.5-6.4,4.5-10.2s-.7-4.1-2-5.7Z"/>
      <polygon class="st0" points="367 186 371.9 188.8 370.9 191.7 364.4 188.1 367 186"/>
    </g>
  </g>
  <g class="st17">
    <g id="freepik--Labirynth--inject-46">
      <polygon class="st0" points="158.3 341.1 305 326 304.7 221 297.1 221.7 297.4 316.1 204.3 325.6 204.3 318.1 253.8 313 253.8 302.3 178.7 310 178.5 218.6 183.8 218 184 302 259.1 294.3 259.2 312.5 292 309.1 291.5 138.7 197.7 148.3 197.7 140.8 296.8 130.6 297.1 214.2 304.7 213.5 304.6 166.1 309.9 165.6 310.3 333 153 349.1 153 338.2 158.3 337.7 158.3 341.1"/>
      <polygon class="st0" points="309.7 111.1 309.8 148.2 304.5 148.7 304.4 119.1 188 131.1 188 149.3 170.7 151.1 170.8 198.2 178.4 197.5 178.3 161 249.9 153.7 249.9 161.2 212.4 165 212.4 175.7 271.1 169.7 271.4 278.5 271.4 282.3 271.4 293 279 292.2 278.8 211.6 284.1 211.1 284.4 299.2 266.1 301.1 266.1 282.8 219.5 287.6 219.5 280.1 244.5 277.5 244.5 266.8 231.5 268.2 231.4 260.6 253.1 258.4 253.1 252.6 258.4 252.1 258.4 265.4 249.8 266.3 249.9 277 266.1 275.3 265.8 177.8 196.6 184.9 196.8 242.9 191.5 243.5 191.3 177.9 207.1 176.3 207.1 165.6 183.7 168 183.8 204.4 170.8 205.7 171 250.3 165.6 250.9 165.4 144.1 182.7 142.3 182.6 131.6 157.7 134.2 158.1 265.3 171 264 171.2 321.5 192 319.4 192 326.9 165.9 329.6 165.7 272 158.1 272.8 158.2 320.3 152.9 320.8 152.4 127.2 309.7 111.1"/>
      <polygon class="st0" points="278.8 194.2 278.7 158.2 262.3 159.9 262.2 152.4 284 150.2 284.1 193.7 278.8 194.2"/>
      <polygon class="st0" points="209.8 288.6 191.6 290.5 191.5 260.9 196.8 260.3 196.9 282.4 204.5 281.6 204.5 270.9 204.5 267.2 204.3 194.8 258.2 189.3 258.4 234.7 253 235.3 252.9 197.3 209.6 201.8 209.8 262.9 219.1 261.9 219.1 269.4 209.8 270.4 209.8 288.6"/>
      <g class="st2">
        <polygon class="st6" points="158.3 341.1 305 326 304.7 221 297.1 221.7 297.4 316.1 204.3 325.6 204.3 318.1 253.8 313 253.8 302.3 178.7 310 178.5 218.6 183.8 218 184 302 259.1 294.3 259.2 312.5 292 309.1 291.5 138.7 197.7 148.3 197.7 140.8 296.8 130.6 297.1 214.2 304.7 213.5 304.6 166.1 309.9 165.6 310.3 333 153 349.1 153 338.2 158.3 337.7 158.3 341.1"/>
        <polygon class="st6" points="309.7 111.1 309.8 148.2 304.5 148.7 304.4 119.1 188 131.1 188 149.3 170.7 151.1 170.8 198.2 178.4 197.5 178.3 161 249.9 153.7 249.9 161.2 212.4 165 212.4 175.7 271.1 169.7 271.4 278.5 271.4 282.3 271.4 293 279 292.2 278.8 211.6 284.1 211.1 284.4 299.2 266.1 301.1 266.1 282.8 219.5 287.6 219.5 280.1 244.5 277.5 244.5 266.8 231.5 268.2 231.4 260.6 253.1 258.4 253.1 252.6 258.4 252.1 258.4 265.4 249.8 266.3 249.9 277 266.1 275.3 265.8 177.8 196.6 184.9 196.8 242.9 191.5 243.5 191.3 177.9 207.1 176.3 207.1 165.6 183.7 168 183.8 204.4 170.8 205.7 171 250.3 165.6 250.9 165.4 144.1 182.7 142.3 182.6 131.6 157.7 134.2 158.1 265.3 171 264 171.2 321.5 192 319.4 192 326.9 165.9 329.6 165.7 272 158.1 272.8 158.2 320.3 152.9 320.8 152.4 127.2 309.7 111.1"/>
        <polygon class="st6" points="278.8 194.2 278.7 158.2 262.3 159.9 262.2 152.4 284 150.2 284.1 193.7 278.8 194.2"/>
        <polygon class="st6" points="209.8 288.6 191.6 290.5 191.5 260.9 196.8 260.3 196.9 282.4 204.5 281.6 204.5 270.9 204.5 267.2 204.3 194.8 258.2 189.3 258.4 234.7 253 235.3 252.9 197.3 209.6 201.8 209.8 262.9 219.1 261.9 219.1 269.4 209.8 270.4 209.8 288.6"/>
      </g>
      <polygon class="st0" points="161.2 336.3 198.8 332.4 198.7 312.5 175.6 314.9 175.3 211.1 187 209.9 187.1 253.5 201.2 252 201.1 191.9 261.1 185.7 261.3 242.3 249 243.5 249 252.6 224.7 255.1 224.7 273.4 212.1 274.7 212.1 295.5 262 290.4 262.1 307.7 288.8 305 288.5 201.1 275.6 202.4 275.5 163 256.1 165 256.1 146.8 192.1 153.4 192.1 136.8 300 125.8 300.1 158.7 314.8 157.2 314.8 155.5 301.3 156.9 301.2 123.9 190.9 135.3 190.9 155.2 254.9 148.6 254.9 166.9 274.3 164.9 274.4 204.2 287.3 202.9 287.6 303.4 263.3 305.9 263.2 288.5 213.3 293.6 213.3 276.2 225.9 274.9 225.9 256.7 250.2 254.2 250.2 245.1 262.5 243.8 262.3 183.9 199.8 190.3 200 250.5 188.3 251.7 188.2 208 174.1 209.5 174.4 316.7 197.5 314.3 197.6 330.8 162.4 334.4 162.4 327.7 148 329.2 148 330.9 161.2 329.5 161.2 336.3"/>
    </g>
  </g>
  <g id="freepik--Sign--inject-375">
    <g>
      <path class="st10" d="M231.3,208.2l-13.5,27.4c-1.1,2.3.1,5.1,2.2,4.9l25.1-2.2c1.5-.1,2.4-2.7,1.6-4.5l-11.7-25.3c-.9-1.9-2.8-2-3.7-.3h0Z"/>
      <path class="st11" d="M231.3,208.2l-13.5,27.4c-1.1,2.3.1,5.1,2.2,4.9l25.1-2.2c1.5-.1,2.4-2.7,1.6-4.5l-11.7-25.3c-.9-1.9-2.8-2-3.7-.3h0Z"/>
      <path class="st10" d="M232.5,210.2l-12.3,25.4c-.4.8,0,1.8.8,1.8l23.4-1.7c.6,0,.9-1,.6-1.6l-11.1-23.7c-.3-.7-1-.7-1.3,0h0v-.2Z"/>
      <polygon class="st7" points="237.2 217.4 224.8 226.1 221 233.9 239.1 221.4 237.2 217.4"/>
      <path class="st6" d="M232.2,232.9c-.3-.3-.4-.8-.4-1.3s.1-.9.4-1.3.6-.5,1-.5.7.1.9.5c.2.3.4.7.4,1.2s-.1.9-.4,1.3-.6.5-.9.6-.7-.1-1-.5ZM232.1,217.2h2.5c0,.1-.5,10.7-.5,10.7h-1.7l-.3-10.7h0Z"/>
    </g>
  </g>
  <path class="st1" d="M410.8,180.1c-.4-1.3-1.7-1.5-2.5-3.2-.7-1.4-.3-2.8-.2-3.8.9-5.7-3.1-12.3-4.3-12.1-.6.1-.5,2-1.1,2.1-.7,0-1.4-2.1-2-4.1-3.9-.8-8.3.6-10.9,4.7l-2,4.4c-1.2,2.6-1.7,5.4-1.7,8.2,0,1.7.2,3.3.8,4.8.6,1.6,1.3,2.6,2.4,4.2,2,2.8,4.4,5.3,7.6,6.5.7.3,1.4.4,2.1.4.7,0,1.4-.3,1.9-.9,1.1.7,2.4,1.5,3.7,1.4,1,0,1.9-.6,2.4-1.4.2-.3,1-1.9.4-3,1.2.3,2.4-.6,2.8-1.7.4-1.1,0-2.4-1-3.1,1.3-.7,2-2.2,1.5-3.6Z"/>
  <path class="st18" d="M388.2,174.8c-.3,1.4-1.1,2.5-2.4,3.2-1.5.6-2.4-1.4-2.2-3.6.2-1.9,1.2-4.6,2.8-4.2s2.3,2.6,1.8,4.6h0Z"/>
</svg>