<?xml version="1.0" encoding="UTF-8"?>
<svg id="Layer_1" xmlns="http://www.w3.org/2000/svg" version="1.1" xmlns:xlink="http://www.w3.org/1999/xlink" viewBox="0 0 500 500">
  <!-- Generator: Adobe Illustrator 29.1.0, SVG Export Plug-In . SVG Version: 2.1.0 Build 142)  -->
  <defs>
    <style>
      .st0 {
        fill: #004a99;
      }

      .st1 {
        fill: #3e2216;
      }

      .st2, .st3 {
        opacity: .6;
      }

      .st4 {
        fill: #2e353a;
      }

      .st5 {
        fill: #263238;
      }

      .st6, .st7, .st8 {
        fill: #fff;
      }

      .st9 {
        fill: none;
      }

      .st10 {
        fill: #ff725e;
      }

      .st7 {
        opacity: .3;
      }

      .st7, .st8, .st11, .st12, .st13, .st3 {
        isolation: isolate;
      }

      .st8, .st11 {
        opacity: .4;
      }

      .st14 {
        fill: #a24e3f;
      }

      .st12 {
        opacity: .2;
      }

      .st13, .st15 {
        opacity: .5;
      }

      .st16 {
        fill: #f5f5f5;
      }

      .st17 {
        clip-path: url(#clippath);
      }

      .st18 {
        fill: #9f5b53;
      }
    </style>
    <clipPath id="clippath">
      <polygon class="st9" points="93.5 388.4 93.5 65.8 326.1 46.1 326.1 368.8 93.5 388.4"/>
    </clipPath>
  </defs>
  <g id="freepik--Shadow--inject-46">
    <ellipse id="freepik--path--inject-46" class="st16" cx="251.2" cy="466.3" rx="241" ry="15"/>
  </g>
  <g id="freepik--Device--inject-447">
    <path class="st5" d="M330.6,142.4v-35.3l3.6-.3c.4,0,.9.3.9.8h0v33.7c0,.5-.4.9-.9,1.1h-3.6Z"/>
    <path class="st5" d="M330.6,102.5v-35.3l3.6-.3c.4,0,.9.3.9.8h0v33.7c0,.5-.4.9-.9,1.1h-3.6Z"/>
    <path class="st5" d="M325.5,27h-.8l-229.5,19.4c-4.9.5-8.6,4.6-8.6,9.6v349.1c-.1,4.4,3.5,8,7.8,8.1h.8l229.5-19.4c4.8-.5,8.5-4.6,8.6-9.6V35.1c.1-4.4-3.5-8-7.8-8.1ZM233.5,220.9c2.4,9.8-2.9,22.1-16.1,22.1s-7.2-1.1-9.7-2.9c-6.9,11.8-28,5.2-23.1-9.2,1.6-4.5,4.1-9.8,3.6-14.6-.7-5.6-4.3-11.3-6.2-16.3-1.6-3.9-.1-8.2,2.5-11.3,1.1-5.2,5-9.6,11.8-9.6s4.6.7,6.5,1.7h.8c1.7,0,3.3.3,4.9.7,2.5-1.6,5.6-2.7,9.4-2.7,16.5,0,20.7,18.9,12.8,28.7,2.7,3.9,3.7,8.9,2.9,13.7v-.3h-.1Z"/>
    <path class="st6" d="M93.5,65.8v322.7l232.6-19.7V46.1l-232.6,19.7h0Z"/>
    <g class="st15">
      <path class="st3" d="M214.4,50.6c1.3,0,2.3-1.2,2.4-2.5,0-1.2-.9-2.1-2.1-2.1h-.3c-1.3,0-2.3,1.2-2.4,2.5,0,1.2.9,2.1,2.1,2.1h.3Z"/>
      <path class="st3" d="M205.2,49c0-.5-.4-1.1-1.1-1.1h-.1c-.7,0-1.2.7-1.2,1.3s.4,1.1,1.1,1.1h.1c.7,0,1.2-.7,1.2-1.3Z"/>
    </g>
    <path class="st13" d="M209.8,397.7c-3.6.4-6.8-2.3-7.2-5.8v-.8c0-4.1,3.1-7.4,7.2-7.8,3.6-.4,6.8,2.3,7,5.8v.8c0,4-2.9,7.4-7,7.8Z"/>
    <path class="st5" d="M294.8,32.3v-2.3c0-.5.4-.9.9-1.1l19.1-1.6c.4,0,.9.3.9.8h0v2.4c0,.5-.4.9-.9,1.1l-19.1,1.5c-.4,0-.8-.3-.9-.8h0Z"/>
  </g>
  <g id="freepik--Character--inject-447">
    <g id="freepik--group--inject-447">
      <path class="st18" d="M446.5,223.6l-7.7,7.7c-1.2,1.2-.4,8.4,0,10.8s10,6.8,10.6,6.4,2.4-8.6,2.4-8.6l-8-4.1,5.6-6.5-2.9-5.6h0Z"/>
      <path class="st0" d="M445.7,167.6c4.5,1.9,22.3,36.9,22.3,43.3s-22.3,23.1-22.3,23.1l-4.9-4.8s16.3-19.3,16.9-21.7-17.9-26.6-17.9-26.6l6-13.4h0Z"/>
      <path class="st8" d="M468.1,211.1c.1,6.4-22.3,23.1-22.3,23.1l-4.9-4.8s16.3-19.3,16.9-21.7c.3-1.3-4.6-8.6-9.4-15.1-4.3-6-8.4-11.3-8.4-11.3l1.7-4,4.3-9.6c4.4,1.7,22.1,36.9,22.2,43.3h0Z"/>
      <polygon class="st0" points="441.7 226.5 448.6 234.2 445.7 236.3 439.8 229.7 441.7 226.5"/>
      <path class="st12" d="M448.2,192.5c-4.3-6-8.4-11.3-8.4-11.3l1.7-4c.3-.1.7-.4.9-.5,0,0,6.1,7,5.7,15.8Z"/>
      <path class="st14" d="M407.7,138.5c-1.1,1.6-2.1,3.2-3.6,4.5.7.9,1.7,1.6,2.9,1.5l.7-6Z"/>
      <path class="st4" d="M406.6,136.7c-.1.9.4,1.7.9,1.7s1.2-.7,1.2-1.6-.4-1.7-.9-1.7-1.2.7-1.2,1.6Z"/>
      <path class="st18" d="M407.6,148c.1.4.3.9.4,1.3.9,2.5,2.5,4.8,4.8,6.4.5.4,1.2.8,1.7,1.1,3.2,1.7,7,1.9,10.5.4,1.5-.7,2.9-1.6,4-2.8,4.8-4.9,4.6-10.5,5.3-20.1.5-7.2-4.9-13.4-12.1-13.9-2-.1-4,.1-6,.9-9.3,3.9-10.6,18.1-8.6,26.7h0Z"/>
      <path class="st12" d="M412.7,155.7c.5.4,1.2.8,1.7,1.1,3.2,1.7,7,1.9,10.5.4-.4-1.2-.9-2.3-1.7-3.2-3.6-.5-7.2,0-10.5,1.7h0Z"/>
      <path class="st18" d="M432,168c-4.6,4.3-16.2,2.7-16.2,2.7,0,0-7.2-2-5.7-4.3,4.3-.7,6.2-2.7,7.2-5.2.4-1.6.7-3.2.4-4.8-.1-.9-.1-1.7-.4-2.7l14.2-10.5c-1.9,6.9-4.1,19.7.5,24.7h0Z"/>
      <path class="st1" d="M418.8,117.3s-2.5-1.6-6.8,2.5c-3.6,3.5,0,6.1-2.1,10.5-2.1,4.4.8,8.8.8,8.8,0,0,2.1,4.5,5.7,4.3,0,0,2.9,3.6,2.5,7.3s4.9,6.6,12.1,6.5c7.2-.1,4.4-4.6,4.4-4.6,2.1-2.4,3.9-5.2,5-8.1,1.5-3.6,2.1-7.4,2-11.4.1-4.1-1.3-8.1-4.3-11-4.8-5.4-16.3-8.2-19.4-4.6h0Z"/>
      <path class="st1" d="M410.6,127.4s-7.2-6.6-3.9-13.8c3.3-7.2,3.9,0,3.9,0,0,0,5.3-4.3,8.2-3.2s-1.9,3.6-1.9,3.6c0,0,20.3-3.6,22.1,8.9s-28.4,4.5-28.4,4.5h0Z"/>
      <path class="st4" d="M408.9,134.4c-.1,0-.3,0-.4-.1-.3-.4-.5-.5-.9-.7-.3,0-.5-.1-.5-.4s.1-.5.4-.5c.7,0,1.3.4,1.9,1.1.1.3.1.5-.1.7h-.3,0Z"/>
      <path class="st0" d="M433.2,167.1l-2.1-5.4s-14.2-2.7-19,4.4,21.1,1.1,21.1,1.1Z"/>
      <polygon class="st18" points="395.3 455.9 385.4 457 384.8 451.1 383.5 435.6 393.5 434.5 394.9 451.8 395.3 455.9"/>
      <polygon class="st18" points="444.9 454.7 435.3 454.7 435.2 452.4 435.2 452.2 434.7 438.2 434.7 438 434.5 432.6 444.1 432.6 444.9 454.7"/>
      <polygon class="st12" points="393.5 434.5 394.9 451.8 384.8 451.1 383.5 435.6 393.5 434.5"/>
      <polygon class="st12" points="444.9 453.4 444.9 453.4 435.2 452.2 435.2 452.2 434.7 438.8 434.7 438.8 444.3 439.6 444.9 453 444.9 453.4"/>
      <path class="st5" d="M434,454h11.7c.4,0,.8.3.8.7l1.9,8.6c.1.8-.4,1.5-1.1,1.7h-.3c-3.9,0-6.5-.3-11.3-.3s-11.8.3-15.8.3-4.5-4-2.9-4.4c7.4-1.6,13-3.9,15.4-6,.4-.4.9-.7,1.6-.7Z"/>
      <path class="st5" d="M384.3,453.8h11.7c.4,0,.7.3.8.7l1.9,8.6c.1.8-.3,1.5-1.1,1.7h-.3c-3.9,0-6.5-.3-11.3-.3s-11.8.3-15.8.3-4.5-4-2.9-4.4c7.4-1.6,13-3.9,15.4-6,.5-.5,1.1-.7,1.6-.7Z"/>
      <path class="st5" d="M382.7,449.8h14.1s-1.2-121.5,14.1-162.6c1.1,13.5,2.3,27.6,3.5,39.3.8,7.3,1.5,13.5,2.1,18.2,4.5,30.6,15.7,106.1,15.7,106.1h13.9s-1.6-72.4-3.3-102.5c-1.9-32.7-2.7-104.4-2.7-110.5h-51.1c-4.8,25.8-17.3,128.7-6.2,212h0Z"/>
      <path class="st12" d="M410.9,287.1c1.1,13.5,2.3,27.6,3.5,39.5,1.7-17,3.9-29,3.9-29,0,0,2-1.6,7.4-10.4s0-25.1,0-25.1c.3,15-14.7,25-14.7,25h0Z"/>
      <polygon class="st0" points="381 445.8 381.8 449.8 398.4 449.8 398.4 446.1 381 445.8"/>
      <polygon class="st0" points="430.5 447.3 432.3 451 446.2 451 447.1 447.3 430.5 447.3"/>
      <path class="st0" d="M441.4,241.2s-2-11.6.9-45.3c.8-8.8,1.9-18.2,3.3-28.2,0,0-27.8-6.1-47.2,0,0,0-.8,4.1-1.9,11.2-.7,4.3-1.5,9.4-2.3,15.5h0v.7c-2.1,14.7-5.7,25.6-6.1,45.4l53.1.7h0Z"/>
      <path class="st8" d="M442.4,195.9c-2.9,33.7-.9,45.3-.9,45.3l-53-.8c.3-17.5,3.2-28,5.3-40.5.3-1.6.5-3.2.7-4.9v-.7h.1c.7-5,1.3-9.4,1.9-13.3.1-.8.3-1.6.4-2.3,1.1-7,1.9-11.2,1.9-11.2,19.4-6.1,47.2,0,47.2,0-1.6,10.1-2.7,19.5-3.5,28.3h0Z"/>
      <path class="st12" d="M399.4,181.7s-.5,11.7-5.8,18.2c.3-1.6.5-3.2.7-4.9v-.7h.1c.7-5,1.3-9.4,1.9-13.3,1.2,0,2.3.3,3.2.7Z"/>
      <path class="st18" d="M389,159l4-4.9c.4-1.1.9-2.1,1.6-3.2.5-.5,7.7-4,8.1-3.7,1.3,2.3,2.5,4.5,3.6,6.8.4.8-5.3,3.5-6.8,3.9-.9.3-2,.1-2.9-.1l-3.1,5"/>
      <path class="st0" d="M398.8,167.8c-4,1.6-8.4,6.1-14.6,12.4l10.9-19.7-5.6-3.3s-22.4,31.3-22.4,35.7,5.8,7.8,28.4-4c0,0,6-8.5,6-13.5s-.9-5.4-2.7-7.6Z"/>
      <path class="st8" d="M398.8,167.8c-4,1.6-8.4,6.1-14.6,12.4l10.9-19.7-5.6-3.3s-22.4,31.3-22.4,35.7,5.8,7.8,28.4-4c0,0,6-8.5,6-13.5s-.9-5.4-2.7-7.6Z"/>
      <polygon class="st0" points="390 156.1 396.5 159.8 395.2 163.7 386.6 158.9 390 156.1"/>
    </g>
  </g>
  <g class="st17">
    <g id="freepik--Labirynth--inject-46">
      <polygon class="st0" points="112.8 362.1 307.7 342.1 307.3 202.6 297.2 203.5 297.6 328.9 173.9 341.5 173.9 331.6 239.6 324.8 239.6 310.6 139.9 320.8 139.6 199.4 146.7 198.6 146.9 310.2 246.7 299.9 246.8 324.1 290.4 319.6 289.7 93.2 165.1 106 165.1 96 296.8 82.5 297.2 193.5 307.3 192.6 307.1 129.6 314.2 129 314.7 351.3 105.7 372.7 105.7 358.3 112.8 357.6 112.8 362.1"/>
      <polygon class="st0" points="313.9 56.6 314 105.9 307 106.5 306.9 67.2 152.2 83.2 152.2 107.3 129.3 109.7 129.4 172.3 139.5 171.4 139.4 122.9 234.5 113.2 234.5 123.1 184.7 128.2 184.7 142.4 262.6 134.4 263 279 263 284 263 298.2 273.1 297.2 272.9 190.1 279.9 189.4 280.3 306.5 256 309 256 284.7 194.1 291 194.1 281.1 227.3 277.6 227.3 263.4 210 265.3 209.9 255.2 238.7 252.3 238.7 244.5 245.8 243.9 245.8 261.6 234.3 262.7 234.5 277 256 274.7 255.6 145.2 163.7 154.6 163.9 231.7 156.9 232.5 156.6 145.3 177.6 143.2 177.6 129 146.5 132.2 146.7 180.5 129.4 182.2 129.7 241.5 122.5 242.3 122.2 100.4 145.2 98 145.1 83.8 112 87.3 112.5 261.4 129.7 259.7 129.9 336.1 157.6 333.3 157.6 343.2 122.9 346.8 122.6 270.3 112.5 271.4 112.7 334.5 105.6 335.1 105 78 313.9 56.6"/>
      <polygon class="st0" points="272.9 167 272.7 119.2 250.9 121.4 250.8 111.4 279.8 108.5 279.9 166.3 272.9 167"/>
      <polygon class="st0" points="181.2 292.4 157 294.9 156.9 255.6 163.9 254.8 164.1 284.1 174.2 283.1 174.2 268.9 174.2 263.9 173.9 167.8 245.5 160.5 245.8 220.8 238.6 221.6 238.5 171.1 180.9 177.1 181.2 258.2 193.6 256.9 193.6 266.9 181.2 268.2 181.2 292.4"/>
      <g class="st2">
        <polygon class="st6" points="112.8 362.1 307.7 342.1 307.3 202.6 297.2 203.5 297.6 328.9 173.9 341.5 173.9 331.6 239.6 324.8 239.6 310.6 139.9 320.8 139.6 199.4 146.7 198.6 146.9 310.2 246.7 299.9 246.8 324.1 290.4 319.6 289.7 93.2 165.1 106 165.1 96 296.8 82.5 297.2 193.5 307.3 192.6 307.1 129.6 314.2 129 314.7 351.3 105.7 372.7 105.7 358.3 112.8 357.6 112.8 362.1"/>
        <polygon class="st6" points="313.9 56.6 314 105.9 307 106.5 306.9 67.2 152.2 83.2 152.2 107.3 129.3 109.7 129.4 172.3 139.5 171.4 139.4 122.9 234.5 113.2 234.5 123.1 184.7 128.2 184.7 142.4 262.6 134.4 263 279 263 284 263 298.2 273.1 297.2 272.9 190.1 279.9 189.4 280.3 306.5 256 309 256 284.7 194.1 291 194.1 281.1 227.3 277.6 227.3 263.4 210 265.3 209.9 255.2 238.7 252.3 238.7 244.5 245.8 243.9 245.8 261.6 234.3 262.7 234.5 277 256 274.7 255.6 145.2 163.7 154.6 163.9 231.7 156.9 232.5 156.6 145.3 177.6 143.2 177.6 129 146.5 132.2 146.7 180.5 129.4 182.2 129.7 241.5 122.5 242.3 122.2 100.4 145.2 98 145.1 83.8 112 87.3 112.5 261.4 129.7 259.7 129.9 336.1 157.6 333.3 157.6 343.2 122.9 346.8 122.6 270.3 112.5 271.4 112.7 334.5 105.6 335.1 105 78 313.9 56.6"/>
        <polygon class="st6" points="272.9 167 272.7 119.2 250.9 121.4 250.8 111.4 279.8 108.5 279.9 166.3 272.9 167"/>
        <polygon class="st6" points="181.2 292.4 157 294.9 156.9 255.6 163.9 254.8 164.1 284.1 174.2 283.1 174.2 268.9 174.2 263.9 173.9 167.8 245.5 160.5 245.8 220.8 238.6 221.6 238.5 171.1 180.9 177.1 181.2 258.2 193.6 256.9 193.6 266.9 181.2 268.2 181.2 292.4"/>
      </g>
      <polygon class="st0" points="116.6 355.7 166.6 350.6 166.5 324.1 135.8 327.3 135.4 189.4 150.9 187.8 151 245.7 169.8 243.8 169.6 163.9 249.3 155.7 249.6 230.9 233.3 232.5 233.3 244.5 201 247.9 201 272.2 184.3 273.9 184.3 301.5 250.5 294.8 250.7 317.7 286.1 314.2 285.7 176.1 268.6 177.9 268.5 125.5 242.7 128.2 242.7 104 157.7 112.8 157.7 90.7 301 76.1 301.2 119.8 320.7 117.8 320.7 115.6 302.7 117.4 302.6 73.6 156.1 88.7 156.1 115.2 241.1 106.4 241.1 130.7 266.9 128.1 267 180.3 284.1 178.5 284.5 312 252.3 315.4 252.1 292.2 185.8 299 185.8 275.9 202.6 274.2 202.6 250 234.9 246.7 234.9 234.6 251.2 232.9 250.9 153.3 167.9 161.8 168.2 241.8 152.6 243.4 152.5 185.3 133.8 187.3 134.2 329.7 164.9 326.5 165 348.4 118.2 353.2 118.2 344.3 99.1 346.3 99.1 348.6 116.6 346.7 116.6 355.7"/>
    </g>
  </g>
  <g id="freepik--Sign--inject-375">
    <g>
      <path class="st10" d="M209.8,185.6l-17.9,36.4c-1.5,3.1.1,6.8,2.9,6.5l33.3-2.9c2-.1,3.2-3.6,2.1-6l-15.5-33.6c-1.2-2.5-3.7-2.7-4.9-.4h0Z"/>
      <path class="st11" d="M209.8,185.6l-17.9,36.4c-1.5,3.1.1,6.8,2.9,6.5l33.3-2.9c2-.1,3.2-3.6,2.1-6l-15.5-33.6c-1.2-2.5-3.7-2.7-4.9-.4h0Z"/>
      <path class="st10" d="M211.4,188.2l-16.3,33.7c-.5,1.1,0,2.4,1.1,2.4l31.1-2.3c.8,0,1.2-1.3.8-2.1l-14.7-31.5c-.4-.9-1.3-.9-1.7,0h0v-.3h-.1Z"/>
      <polygon class="st7" points="217.6 197.8 201.1 209.3 196.1 219.7 220.1 203.1 217.6 197.8"/>
      <path class="st6" d="M211,218.4c-.4-.4-.5-1.1-.5-1.7s.1-1.2.5-1.7.8-.7,1.3-.7.9.1,1.2.7c.3.4.5.9.5,1.6s-.1,1.2-.5,1.7-.8.7-1.2.8-.9-.1-1.3-.7ZM210.8,197.5h3.3c0,.1-.7,14.2-.7,14.2h-2.3l-.4-14.2h0Z"/>
    </g>
  </g>
  <path class="st1" d="M448.2,148.2c-.5-1.7-2.3-2-3.3-4.3-.9-1.9-.4-3.7-.3-5,1.2-7.6-4.1-16.3-5.7-16.1-.8.1-.7,2.7-1.5,2.8-.9,0-1.9-2.8-2.7-5.4-5.2-1.1-11,.8-14.5,6.2l-2.7,5.8c-1.6,3.5-2.3,7.2-2.3,10.9s.3,4.4,1.1,6.4c.8,2.1,1.7,3.5,3.2,5.6,2.7,3.7,5.8,7,10.1,8.6.9.4,1.9.5,2.8.5s1.9-.4,2.5-1.2c1.5.9,3.2,2,4.9,1.9,1.3,0,2.5-.8,3.2-1.9.3-.4,1.3-2.5.5-4,1.6.4,3.2-.8,3.7-2.3.5-1.5,0-3.2-1.3-4.1,1.7-.9,2.7-2.9,2-4.8v.3Z"/>
  <path class="st18" d="M418.2,141.2c-.4,1.9-1.5,3.3-3.2,4.3-2,.8-3.2-1.9-2.9-4.8.3-2.5,1.6-6.1,3.7-5.6s3.1,3.5,2.4,6.1h0Z"/>
</svg>