<?xml version="1.0" encoding="UTF-8"?>
<svg id="Layer_1" xmlns="http://www.w3.org/2000/svg" version="1.1" viewBox="0 0 500 500">
  <!-- Generator: Adobe Illustrator 29.1.0, SVG Export Plug-In . SVG Version: 2.1.0 Build 142)  -->
  <defs>
    <style>
      .st0 {
        fill: #004a99;
      }

      .st1 {
        fill: #263238;
      }

      .st2, .st3, .st4 {
        fill: #fff;
      }

      .st5 {
        fill: #ff8b7b;
      }

      .st6 {
        opacity: .4;
      }

      .st6, .st7, .st3, .st4 {
        isolation: isolate;
      }

      .st7, .st3 {
        opacity: .2;
      }

      .st8 {
        fill: #f5f5f5;
      }

      .st9 {
        fill: #ff5652;
      }

      .st4 {
        opacity: .8;
      }
    </style>
  </defs>
  <g id="freepik--Shadow--inject-9">
    <ellipse id="freepik--path--inject-9" class="st8" cx="250" cy="416.2" rx="193.9" ry="11.3"/>
  </g>
  <g id="freepik--Device--inject-9">
    <path class="st0" d="M403.6,359.7h-114.5c-5.9,0-10.6-4.7-10.7-10.6v-.5l8.4-217.4c.3-6.2,5.3-11,11.5-11.1h114.5c5.9,0,10.6,4.7,10.7,10.6v.5l-8.4,217.4c-.3,6.2-5.3,11-11.5,11.1Z"/>
    <rect class="st0" x="414.5" y="212.9" width="18" height="1.1" transform="translate(193.9 628.4) rotate(-87.8)"/>
    <rect class="st0" x="420.5" y="193.6" width="7.4" height="1.1" transform="translate(213.9 610.6) rotate(-87.8)"/>
    <path class="st4" d="M403.6,359.7h-114.5c-5.9,0-10.6-4.7-10.7-10.6v-.5l8.4-217.4c.3-6.2,5.3-11,11.5-11.1h114.5c5.9,0,10.6,4.7,10.7,10.6v.5l-8.4,217.4c-.3,6.2-5.3,11-11.5,11.1Z"/>
    <path class="st0" d="M392.7,355.2h-101c-5.1,0-9.3-4.1-9.4-9.3v-.4l7.9-203.6c.3-5.4,4.7-9.7,10.1-9.7h101c5.1,0,9.3,4.1,9.4,9.3v.5l-7.9,203.6c-.3,5.4-4.7,9.7-10.1,9.7h0Z"/>
    <ellipse class="st4" cx="342.8" cy="338.7" rx="6.8" ry="6.5" transform="translate(-139.1 337.4) rotate(-44.5)"/>
    <path class="st2" d="M344.6,292.8h0c-21.7.1-39.4-17.3-39.5-39v-2.1l1.4-35.1h0c-.4,0-.8,0-1.2-.1l-1.4,35.2c-1,22.3,16.2,41.3,38.6,42.3h2.1c11.6,0,22.8-4.7,31-13-.3-.3-.6-.6-.8-1-8,8.1-18.8,12.7-30.2,12.8h0Z"/>
    <path class="st2" d="M349.4,167.4c-21.4,0-39.8,16-43.4,36.7h1.3c3.5-20,21.3-35.4,42.1-35.4,21.7-.2,39.4,17.3,39.6,39v2.1l-1.6,41.9c-.3,6.5-2,12.9-5.2,18.7.4.1.8.3,1.1.5,3.2-5.9,5.1-12.4,5.3-19.1l1.6-41.9c1-22.3-16.2-41.3-38.5-42.3h-2.2v-.2Z"/>
    <path class="st2" d="M349.1,176c6.7,0,13.3,1.9,19,5.6.2-.4.4-.8.6-1.1-5.9-3.8-12.7-5.7-19.6-5.7s-15.6,2.5-22,7c.2.4.4.7.5,1.1,6.3-4.5,13.8-6.9,21.4-6.9h.1Z"/>
    <path class="st2" d="M310.4,255.7c-.3-2.1-.4-4.3-.3-6.5l1.4-37c.3-7.6,3-15,7.6-21.1-.4-.2-.7-.4-1-.7-4.8,6.3-7.5,13.8-7.8,21.7l-1.4,37c0,2.3,0,4.5.4,6.8.4-.1.8-.2,1.2-.3h-.1Z"/>
    <path class="st2" d="M377.8,188.8c-.3.3-.6.6-1,.8,5,6.5,7.5,14.5,7.1,22.6l-1.4,37c-.9,20.1-17.5,36-37.6,36.2h0c-7.7,0-15.2-2.5-21.3-7.2-.4.3-.7.5-1.2.7,6.4,5,14.3,7.8,22.4,7.7,20.9-.2,37.9-16.6,38.9-37.5l1.4-37c.4-8.4-2.2-16.8-7.4-23.5v.2Z"/>
    <path class="st2" d="M315.8,226.9l.5-12.2c.8-17.4,15.1-31.2,32.5-31.3,14.6-.1,27.1,10.3,29.7,24.7.4,0,.8-.1,1.2-.1h0c-2.6-15-15.6-26-30.9-25.9-18.1.2-33,14.5-33.8,32.6l-.5,12.3h1.3,0Z"/>
    <path class="st2" d="M358.2,275.3c-4.1,1.8-8.5,2.8-13,2.8-16.5.2-30.1-13.1-30.2-29.7v-1.7l.3-7.4h-1.3l-.3,7.4c-.8,17.2,12.5,31.7,29.7,32.5h1.7c4.7,0,9.4-1,13.8-3-.2-.3-.5-.7-.6-1h-.1Z"/>
    <path class="st2" d="M379.2,220.5h-.5l-1,26.3c-.3,8-3.6,15.6-9.2,21.3.3.3.5.7.6,1.1,6-6,9.5-14,9.8-22.4l1-26.3h-.7,0Z"/>
    <path class="st2" d="M359.7,191.9c-3.5-1.6-7.3-2.4-11.2-2.4-15.4.1-28,12.3-28.8,27.7l-1,27.1c0,1.6,0,3.2.2,4.8.4-.3.8-.6,1.2-.9-.2-1.3-.2-2.6-.2-3.9l1-27.1c.7-14.7,12.7-26.3,27.5-26.4,3.6,0,7.2.8,10.6,2.3.2-.4.4-.8.7-1.1h0Z"/>
    <path class="st2" d="M369.4,199.3c-.2.4-.5.7-.8,1,3.8,4.8,5.7,10.7,5.4,16.8l-1,27.1c-.7,14.2-12,25.7-26.3,26.4-.1.4-.3.9-.5,1.3,15.1-.5,27.4-12.5,28.1-27.7l1-27.1c.3-6.5-1.8-12.8-5.8-17.8h-.1Z"/>
    <path class="st2" d="M343.3,198.6c0-.4,0-.9.2-1.3-3.2.7-6.2,2-8.9,3.9.4.2.7.4,1.1.7,2.3-1.6,4.9-2.7,7.6-3.4h0Z"/>
    <path class="st2" d="M367.1,247.4c-2.9,9.4-11.5,15.9-21.4,16-11.4,0-20.7-9.1-20.7-20.5v-1.1l.9-22.2c.1-2.6.7-5.2,1.7-7.6-.4-.3-.7-.6-.9-1-1.2,2.7-1.9,5.6-2,8.6l-.9,22.2c-.6,12,8.7,22.2,20.8,22.8h1.1c10.4-.1,19.6-7,22.7-16.9-.4,0-.8-.1-1.3-.2h0Z"/>
    <path class="st2" d="M369,219.6l-.2,4.6c.3,0,.7,0,1-.1h.3l.2-4.6c.4-9.7-5.7-18.5-14.9-21.6v1.3c8.5,3,14,11.2,13.6,20.2v.2Z"/>
    <path class="st2" d="M348,204.1c-10,0-18.1,8-18.6,17.9l-.2,4.9c.4,0,.8,0,1.2.2l.2-5.1c.4-9.3,8.1-16.6,17.4-16.7,8.8,0,16,7,16,15.8v.8l-.7,17.3c-.4,8-6.2,14.8-14.1,16.3v1.3c8.6-1.6,14.9-8.9,15.3-17.6l.7-17.3c.4-9.5-6.9-17.5-16.3-17.9h-.9Z"/>
    <path class="st2" d="M336.3,218.8h.8c2.2-3.8,6.2-6.1,10.6-6.1s2.6.2,3.8.7c.1-.4.3-.8.5-1.1-1.4-.5-2.8-.8-4.3-.8-5.1,0-9.7,2.9-12,7.4h.6Z"/>
    <path class="st2" d="M358.5,236.9c0,1.4-.4,2.8-.9,4.2.4.1.8.3,1.1.6.7-1.5,1-3.1,1.1-4.8l.5-12.4c0-1.2,0-2.3-.4-3.4-.4.2-.8.4-1.2.5.2,1,.3,2,.3,3l-.5,12.4h0Z"/>
    <path class="st2" d="M349,248.4c-.9.2-1.8.3-2.7.3-6.2,0-11.3-5-11.3-11.2v-.5l.2-5.6c-.4,0-.8-.1-1.2-.2l-.2,5.9c-.3,6.9,5,12.7,11.9,13h.6c1,0,2.1-.1,3.1-.4-.2-.4-.3-.8-.4-1.2h0Z"/>
    <path class="st2" d="M347.4,218.8c-4.5,0-8.2,3.7-8.4,8.2l-.3,7.5c0,.7,0,1.4.2,2.1.3-.4.7-.7,1.1-1v-1.1l.3-7.5c.2-3.8,3.3-6.8,7.2-6.9,3.6,0,6.6,2.9,6.6,6.6v.3l-.3,7.5c-.1,2.7-1.8,5.1-4.3,6.3,0,.5,0,.9-.2,1.4,3.3-1.1,5.6-4.2,5.7-7.7l.3-7.5c.2-4.3-3.1-8-7.4-8.2h-.5Z"/>
    <path class="st0" d="M368.5,128.9h-35.1c-1.1,0-1.9-.9-1.9-1.9h0c0-1.1,1-2,2.1-2h35.1c1.1,0,1.9.9,2,1.9h0c0,1.1-1,2-2.1,2h-.1Z"/>
  </g>
  <g id="freepik--Shield--inject-9">
    <path class="st7" d="M313.6,164c-2.1.2-4.2.2-6.2.1-.7-.2-1.5-.2-2.2-.1h-.2c-5.9-.4-11.7-1.5-17.3-3.1-.6-.2-1.2-.4-1.8-.6l-4.9,125.9,32.5-21.7c3-2,4.8-5.2,5-8.8l3.3-84.1c.2-4-2.9-7.4-7-7.6h-1.2Z"/>
    <path class="st0" d="M305.7,154.6c-2.1.2-4.2.2-6.2.1-.7-.2-1.5-.2-2.2-.1h-.2c-5.9-.4-11.7-1.5-17.3-3.1-7.1-2.2-13.6-5.9-19.1-10.8-1.3-1.3-3.1-2-5-2h-8.5c-1.9,0-3.7.7-5.1,2-5.9,4.9-12.7,8.6-20,10.8-5.7,1.6-11.6,2.7-17.6,3.1h-.2c-.8,0-1.5,0-2.2.1-2.1,0-4.2,0-6.2-.1-4.4-.3-8.2,3-8.6,7.4v.2l-3.3,84.2c-.2,3.5,1.5,6.8,4.3,8.8l47.2,33.2c1.7,1.2,3.8,1.9,5.9,1.9h8.5c2.2,0,4.3-.7,6.1-1.9l49.7-33.2c3-2,4.8-5.2,5-8.8l3.2-84.2c.2-4-3-7.4-7-7.6h-1.2Z"/>
    <path class="st4" d="M305.7,154.6c-2.1.2-4.2.2-6.2.1-.7-.2-1.5-.2-2.2-.1h-.2c-5.9-.4-11.7-1.5-17.3-3.1-7.1-2.2-13.6-5.9-19.1-10.8-1.3-1.3-3.1-2-5-2h-8.5c-1.9,0-3.7.7-5.1,2-5.9,4.9-12.7,8.6-20,10.8-5.7,1.6-11.6,2.7-17.6,3.1h-.2c-.8,0-1.5,0-2.2.1-2.1,0-4.2,0-6.2-.1-4.4-.3-8.2,3-8.6,7.4v.2l-3.3,84.2c-.2,3.5,1.5,6.8,4.3,8.8l47.2,33.2c1.7,1.2,3.8,1.9,5.9,1.9h8.5c2.2,0,4.3-.7,6.1-1.9l49.7-33.2c3-2,4.8-5.2,5-8.8l3.2-84.2c.2-4-3-7.4-7-7.6h-1.2Z"/>
    <path class="st0" d="M189.3,246.2l3.1-80.5c.1-3.1,2.7-5.5,5.7-5.5h1.8c7.9,0,15.8-1.3,23.4-3.5,7.2-2.2,14-5.7,20-10.2,2-1.7,5-1.7,7,0,5.7,4.6,12.2,8.1,19.2,10.2,7.5,2.2,15.3,3.4,23.1,3.5h1.7c3,0,5.4,2.3,5.4,5.3v.3l-3.1,80.4c0,1.8-1,3.5-2.6,4.5l-49.4,33c-1.9,1.3-4.3,1.3-6.2,0l-46.9-33c-1.5-1-2.3-2.7-2.3-4.5h.1Z"/>
    <path class="st3" d="M203.1,241.9l2.6-68.4c7.1-.6,14.1-1.8,20.9-3.8,7-2.1,13.6-5.1,19.7-9.1,5.9,3.9,12.3,7,19,9.1,6.7,2,13.6,3.2,20.6,3.8l-2.6,68.4-41.1,27.4-39-27.4h0Z"/>
    <path class="st3" d="M216.9,234.8l1.9-49.4c3.7-.7,7.4-1.6,11-2.6,5.5-1.6,10.8-3.7,15.8-6.4,4.9,2.6,10,4.8,15.4,6.4,3.6,1,7.2,1.9,10.8,2.6l-1.9,49.4-27.2,18.2-25.8-18.2h0Z"/>
  </g>
  <g id="freepik--Character--inject-9">
    <path class="st5" d="M126.1,157.6c-1.9,3.9-3.8,7.9-5.6,11.8-.9,2-1.8,4-2.6,5.9-.8,1.8-1.5,3.7-2.1,5.6-.4,1.8-.6,3.7-.6,5.6v6.4l.3,13.2-4.6.7c-1.2-4.4-2.1-8.8-2.8-13.2-.3-2.2-.7-4.5-.9-6.8,0-1.2-.2-2.3-.2-3.6v-2c0-.3,0-.7,0-1.1s0-.7.2-1c.5-2.4,1.2-4.7,2-7,.8-2.2,1.6-4.3,2.5-6.4,1.8-4.2,3.6-8.2,5.7-12.3l8.5,4.2h0Z"/>
    <path class="st5" d="M119,207.9l-3.8-4.4-4.3.2c-2,4.8,2.3,7.8,2.3,7.8l.8,2.6c.3,1,1.3,1.5,2.3,1.2,0,0,.2,0,.3-.1l2.4-1.2c.7-.3,1.1-1,1.1-1.8v-1.5c0-1-.4-2-1.1-2.8Z"/>
    <path class="st0" d="M106.8,405.5c-.7-.3-1.4-.7-2.1-1.2,0,0,0-.1,0-.2,0,0,0-.2.2-.2.4,0,3.6-.7,4.4.2.2.2.2.5,0,.7,0,.4-.4.8-.8.9-.6.1-1.2,0-1.8-.2h0ZM105.4,404.2c1.3.9,2.4,1.3,3,1.1.3-.1.5-.4.5-.6v-.3c-.4-.5-2.2-.3-3.5-.1h0Z"/>
    <path class="st0" d="M104.8,404.3h0v-.3c0-.1,1.1-2.6,2.4-3,.3-.1.7-.1,1,0s.5.5.4.8c-.2,1-2.6,2.2-3.6,2.4h-.2ZM107.8,401.4h-.5c-.8.3-1.6,1.6-2,2.4,1.1-.3,2.6-1.3,2.8-1.9,0-.1,0-.2-.2-.4h-.1Z"/>
    <path class="st5" d="M141.3,121.6c.8,5.5,2.7,17.4-1.3,21,0,0,1.2,5.6,11.4,5.8,11.2.2,5.6-5.4,5.6-5.4-6-1.6-5.7-6.1-4.4-10.3l-11.3-11h0Z"/>
    <path class="st1" d="M164.2,112.5h-.2c-.2-.3-.2-.5,0-.7.9-1.1,2.2-1.7,3.6-1.7s.4.2.4.5h0c0,.2-.2.4-.5.4h0c-1.1,0-2.2.5-2.9,1.4-.1,0-.3.2-.5,0h0Z"/>
    <path class="st9" d="M166.2,117.9c.4,1.8,1.1,3.4,2,5-.8.5-1.8.6-2.7.2l.7-5.2Z"/>
    <path class="st1" d="M165.7,116.6c0,.7.2,1.4.7,1.4s.9-.5,1-1.3-.2-1.4-.7-1.4-.9.5-1,1.3Z"/>
    <path class="st1" d="M166.6,115.3l1.8-.3s-1.1,1.3-1.8.3Z"/>
    <polygon class="st5" points="174.6 409.1 184.4 406 183.4 386.2 173.7 389.3 174.6 409.1"/>
    <polygon class="st5" points="94.7 402 103.5 404.5 110.8 384.2 102 381.7 94.7 402"/>
    <path class="st1" d="M104.6,402.8l-9.4-4c-.3-.1-.7,0-.9.3l-4.4,7.1c-.4.7-.2,1.6.5,2h.2c3.3,1.3,5,1.8,9.1,3.5,2.5,1.1,4.5,4.3,10.1,4.3s4.5-3.4,3-3.9c-7-2.2-5.6-5.6-7-8.4-.2-.5-.7-.9-1.2-1.1v.2Z"/>
    <path class="st0" d="M187.9,407.4c-.8,0-1.6-.1-2.4-.3,0,0-.2,0-.2-.2v-.2c.3-.2,3-2,4.1-1.5.2.1.4.3.5.6.1.4,0,.9-.3,1.2-.5.4-1.1.5-1.7.5h0ZM186,406.8c1.6.3,2.8.3,3.3-.2.2-.2.3-.5.2-.8,0-.1,0-.2-.2-.3-.6-.3-2.2.5-3.3,1.2h0Z"/>
    <path class="st0" d="M185.5,407.1h-.1s-.1-.1-.1-.2,0-2.8.9-3.6c.2-.2.6-.3.9-.3s.7.3.8.6c.2,1-1.4,3-2.2,3.5h-.2ZM186.9,403.4c-.2,0-.3,0-.5.2-.6.5-.7,2-.8,2.9.9-.7,1.9-2.2,1.7-2.8,0-.1,0-.2-.4-.3h-.1.1Z"/>
    <path class="st1" d="M184.6,405.8h-10.3c-.4,0-.7.3-.7.6l-.9,8.2c0,.8.6,1.6,1.4,1.6h0c3.6,0,5.3-.3,9.9-.3s6.9.3,10.8.3,3.9-3.8,2.3-4.2c-7.3-1.5-8.5-3.7-11-5.7-.4-.4-1-.6-1.5-.6h0Z"/>
    <polygon class="st7" points="183.4 386.2 183.9 396.8 174.2 399.5 173.7 389.3 183.4 386.2"/>
    <polygon class="st7" points="102 381.7 110.8 384.2 107 394.7 98.2 392.2 102 381.7"/>
    <path class="st0" d="M122,143.8c-3.8.9-8.1,14.7-8.1,14.7l10.7,11.3s9.1-13.1,7.3-17.8c-1.9-4.9-5.5-9.3-10-8.3h.1Z"/>
    <path class="st7" d="M122,143.8c-3.8.9-8.1,14.7-8.1,14.7l10.7,11.3s9.1-13.1,7.3-17.8c-1.9-4.9-5.5-9.3-10-8.3h.1Z"/>
    <path class="st6" d="M127.9,152.4c2-1.8,3.3-1.3,4.1.1.8,4.1-4.8,13.3-7,16.6-.9-3.8-1.6-12.6,2.9-16.7h0Z"/>
    <path class="st0" d="M171,147c.5,4,.2,16.3-7.6,53.5l-37.4-.7c1.3-15.2,1.8-24.6-4.1-55.9,5.3-1,10.6-1.6,16-1.8,5.7-.3,11.3-.2,17,.3,5.4.6,11.3,1.8,14,2.4,1.1.2,1.9,1.2,2.1,2.3h0Z"/>
    <path class="st7" d="M171,147c.5,4,.2,16.3-7.6,53.5l-37.4-.7c1.3-15.2,1.8-24.6-4.1-55.9,5.3-1,10.6-1.6,16-1.8,5.7-.3,11.3-.2,17,.3,5.4.6,11.3,1.8,14,2.4,1.1.2,1.9,1.2,2.1,2.3h0Z"/>
    <path class="st5" d="M141.3,111.7c-.5,9.2-1,13,3.1,18.1,6,7.7,17.3,6,20.6-2.8,2.9-8,3.3-21.6-5.1-26.1s-18,1.6-18.5,10.8h-.1Z"/>
    <path class="st1" d="M153.6,200.2s-5.4,66.8-12.6,102.2c-5.8,28.6-32,90.6-32,90.6l-11.4-4.8s13.2-70.1,22.1-87.2c10-58.8-6.2-78.9,6.3-101.3l27.5.5h.1Z"/>
    <path class="st6" d="M143.4,236.8c-4.1,17.4-1.4,33.2,1.3,43.6,1.6-11.2,3.1-23.2,4.4-34.5-1.7-3.2-3.9-6.3-5.7-9.1h0Z"/>
    <path class="st1" d="M163.5,200.4s14.2,65.2,16,93.1c1.9,29,5.7,97.7,5.7,97.7l-12.5,3.4s-14.1-70.8-13-92.1c-7-30.2-31.4-102.6-31.4-102.6l35.2.6h0Z"/>
    <polygon class="st0" points="187.1 394.4 170.8 397.1 169.2 391.3 186.6 388.4 187.1 394.4"/>
    <polygon class="st0" points="111.1 393.6 95.8 389.2 96.7 383.6 112.9 387.6 111.1 393.6"/>
    <path class="st2" d="M125.6,197.5l-1.8,3.3c0,.2.2.5.6.5l39.2.8c.3,0,.6-.1.7-.4l.5-3.3c0-.2-.2-.4-.6-.4l-37.9-.7c-.2,0-.5,0-.6.3h0Z"/>
    <path class="st1" d="M130.5,201.8h-1c-.2,0-.4-.1-.3-.2l.7-4.3c0-.1.2-.2.4-.2h1c.2,0,.4.1.3.2l-.7,4.3c0,.1-.2.2-.4.2Z"/>
    <path class="st1" d="M155.1,202.3h-1c-.2,0-.4-.1-.3-.2l.7-4.3c0-.1.2-.2.4-.2h1c.2,0,.4.1.3.2l-.7,4.3c0,.1-.2.2-.4.2Z"/>
    <path class="st5" d="M173.1,151.7c1.8,3.9,3.9,7.9,6,11.8,2,3.8,4.3,7.4,6.9,10.9.3.4.6.8.9,1.1s.6.7.9,1c.7.7,1.4,1.3,2.2,1.9,1.7,1.3,3.4,2.4,5.3,3.4,3.8,2.2,7.8,4.1,11.9,5.8l-1.2,4.5c-4.7-.8-9.3-2.1-13.8-3.9-2.3-.9-4.5-2-6.7-3.3-1.1-.7-2.2-1.4-3.2-2.2-.5-.4-1-.9-1.6-1.4s-1-1-1.4-1.4c-.9-.9-1.6-1.9-2.4-2.8s-1.5-1.9-2.2-2.9c-1.4-2-2.7-4-3.9-6-2.4-4.1-4.6-8.3-6.5-12.6l8.6-3.8h.2Z"/>
    <path class="st0" d="M168.4,144.6c8.8,1.9,10.9,15.7,10.9,15.7l-8.6,10.1s-13.7-13-13-20.1c.5-5.2,6-6.7,10.8-5.7h0Z"/>
    <path class="st7" d="M168.4,144.6c8.8,1.9,10.9,15.7,10.9,15.7l-8.6,10.1s-13.7-13-13-20.1c.5-5.2,6-6.7,10.8-5.7h0Z"/>
    <path class="st5" d="M217.3,191.2l-2.4-2.9s-7.8-1.8-11.3-.1l-1.1,3.2,8.8,4.5,1.8.9c.9.4,2,.1,2.5-.7l1.8-2.5c.5-.7.5-1.7,0-2.4h-.1Z"/>
    <path class="st1" d="M166.9,162.2c1.5-4.1,2.4-9,2-11.4-.5,4.2-3.7,9.9-6.9,14.1-11.6,4.6-24.7,3.7-35.6-2.5-2.6-5.3-4.8-13.6-3.4-18.6-1.7,2.5-2.9,9.4-2.1,14.3-2.7-2.8-4.3-5.8-4.3-8.9,0-14.6,17.6-13.7,17.9-24.4s-4.1-32.5,17.6-27.8c14.2-.7,11.3,11.9,8.9,19.5-2.1,7.1,19.4,34.1,5.8,45.6h0Z"/>
    <path class="st1" d="M152.1,97.2c8.9-4.8,18,2.7,13.3,10.6-4.1-.2-7.4,2.4-4.2,7.7-9.6-6-15.4-17.7-9.1-18.2h0Z"/>
    <path class="st5" d="M161.5,114c1,1.7,1.4,3.6,1.2,5.5-.3,2.5-2.2,2.5-3.6,1s-2.5-4.5-1.7-6.4c.4-1.1,1.7-1.7,2.9-1.3.5.2,1,.6,1.2,1.1h0Z"/>
  </g>
</svg>