<?xml version="1.0" encoding="UTF-8"?>
<svg id="Layer_1" xmlns="http://www.w3.org/2000/svg" version="1.1" viewBox="0 0 500 500">
  <!-- Generator: Adobe Illustrator 29.1.0, SVG Export Plug-In . SVG Version: 2.1.0 Build 142)  -->
  <defs>
    <style>
      .st0 {
        fill: #004a99;
      }

      .st1 {
        fill: #263238;
      }

      .st2, .st3, .st4 {
        fill: #fff;
      }

      .st5 {
        fill: #ff8b7b;
      }

      .st6 {
        opacity: .4;
      }

      .st6, .st7, .st3, .st4 {
        isolation: isolate;
      }

      .st7, .st3 {
        opacity: .2;
      }

      .st8 {
        fill: #f5f5f5;
      }

      .st9 {
        fill: #ff5652;
      }

      .st4 {
        opacity: .8;
      }
    </style>
  </defs>
  <g id="freepik--Shadow--inject-9">
    <ellipse id="freepik--path--inject-9" class="st8" cx="250" cy="456.6" rx="244.6" ry="14.3"/>
  </g>
  <g id="freepik--Device--inject-9">
    <path class="st0" d="M443.7,385.3h-144.4c-7.4,0-13.4-5.9-13.5-13.4v-.6l10.6-274.2c.4-7.8,6.7-13.9,14.5-14h144.4c7.4,0,13.4,5.9,13.5,13.4v.6l-10.6,274.2c-.4,7.8-6.7,13.9-14.5,14Z"/>
    <rect class="st0" x="457.4" y="200.1" width="22.7" height="1.4" transform="translate(250.1 661.5) rotate(-87.8)"/>
    <rect class="st0" x="465.1" y="175.8" width="9.3" height="1.4" transform="translate(275.3 639.1) rotate(-87.8)"/>
    <path class="st4" d="M443.7,385.3h-144.4c-7.4,0-13.4-5.9-13.5-13.4v-.6l10.6-274.2c.4-7.8,6.7-13.9,14.5-14h144.4c7.4,0,13.4,5.9,13.5,13.4v.6l-10.6,274.2c-.4,7.8-6.7,13.9-14.5,14Z"/>
    <path class="st0" d="M430,379.7h-127.4c-6.4,0-11.7-5.2-11.9-11.7v-.5l10-256.8c.4-6.8,5.9-12.2,12.7-12.2h127.4c6.4,0,11.7,5.2,11.9,11.7v.6l-10,256.8c-.4,6.8-5.9,12.2-12.7,12.2h0Z"/>
    <ellipse class="st4" cx="367.1" cy="358.9" rx="8.6" ry="8.2" transform="translate(-146.3 360.2) rotate(-44.5)"/>
    <path class="st2" d="M369.3,301h0c-27.4.1-49.7-21.8-49.8-49.2v-2.6l1.8-44.3h0c-.5,0-1,0-1.5-.1l-1.8,44.4c-1.3,28.1,20.4,52.1,48.7,53.4h2.6c14.6,0,28.8-5.9,39.1-16.4-.4-.4-.8-.8-1-1.3-10.1,10.2-23.7,16-38.1,16.1h0Z"/>
    <path class="st2" d="M375.4,142.8c-27,0-50.2,20.2-54.7,46.3h1.6c4.4-25.2,26.9-44.7,53.1-44.7,27.4-.3,49.7,21.8,49.9,49.2v2.6l-2,52.9c-.4,8.2-2.5,16.3-6.6,23.6.5.1,1,.4,1.4.6,4-7.4,6.4-15.6,6.7-24.1l2-52.9c1.3-28.1-20.4-52.1-48.6-53.4h-2.8v-.3h-.1Z"/>
    <path class="st2" d="M375,153.6c8.5,0,16.8,2.4,24,7.1.3-.5.5-1,.8-1.4-7.4-4.8-16-7.2-24.7-7.2s-19.7,3.2-27.7,8.8c.3.5.5.9.6,1.4,7.9-5.7,17.4-8.7,27-8.7h.1Z"/>
    <path class="st2" d="M326.2,254.2c-.4-2.6-.5-5.4-.4-8.2l1.8-46.7c.4-9.6,3.8-18.9,9.6-26.6-.5-.3-.9-.5-1.3-.9-6.1,7.9-9.5,17.4-9.8,27.4l-1.8,46.7c0,2.9,0,5.7.5,8.6.5-.1,1-.3,1.5-.4h-.1Z"/>
    <path class="st2" d="M411.2,169.8c-.4.4-.8.8-1.3,1,6.3,8.2,9.5,18.3,9,28.5l-1.8,46.7c-1.1,25.4-22.1,45.4-47.4,45.7h0c-9.7,0-19.2-3.2-26.9-9.1-.5.4-.9.6-1.5.9,8.1,6.3,18,9.8,28.3,9.7,26.4-.3,47.8-20.9,49.1-47.3l1.8-46.7c.5-10.6-2.8-21.2-9.3-29.6v.3h.1Z"/>
    <path class="st2" d="M333,217.8l.6-15.4c1-21.9,19-39.4,41-39.5,18.4-.1,34.2,13,37.5,31.2.5,0,1-.1,1.5-.1h0c-3.3-18.9-19.7-32.8-39-32.7-22.8.3-41.6,18.3-42.6,41.1l-.6,15.5h1.6,0Z"/>
    <path class="st2" d="M386.5,278.9c-5.2,2.3-10.7,3.5-16.4,3.5-20.8.3-38-16.5-38.1-37.5v-2.1l.4-9.3h-1.6l-.4,9.3c-1,21.7,15.8,40,37.5,41h2.1c5.9,0,11.9-1.3,17.4-3.8-.3-.4-.6-.9-.8-1.3h-.1Z"/>
    <path class="st2" d="M413,209.8h-.6l-1.3,33.2c-.4,10.1-4.5,19.7-11.6,26.9.4.4.6.9.8,1.4,7.6-7.6,12-17.7,12.4-28.3l1.3-33.2h-.9,0Z"/>
    <path class="st2" d="M388.4,173.7c-4.4-2-9.2-3-14.1-3-19.4.1-35.3,15.5-36.3,34.9l-1.3,34.2c0,2,0,4,.3,6.1.5-.4,1-.8,1.5-1.1-.3-1.6-.3-3.3-.3-4.9l1.3-34.2c.9-18.5,16-33.2,34.7-33.3,4.5,0,9.1,1,13.4,2.9.3-.5.5-1,.9-1.4h0Z"/>
    <path class="st2" d="M400.6,183c-.3.5-.6.9-1,1.3,4.8,6.1,7.2,13.5,6.8,21.2l-1.3,34.2c-.9,17.9-15.1,32.4-33.2,33.3-.1.5-.4,1.1-.6,1.6,19-.6,34.6-15.8,35.4-34.9l1.3-34.2c.4-8.2-2.3-16.1-7.3-22.5h-.1Z"/>
    <path class="st2" d="M367.7,182.1c0-.5,0-1.1.3-1.6-4,.9-7.8,2.5-11.2,4.9.5.3.9.5,1.4.9,2.9-2,6.2-3.4,9.6-4.3h0Z"/>
    <path class="st2" d="M397.7,243.7c-3.7,11.9-14.5,20.1-27,20.2-14.4,0-26.1-11.5-26.1-25.9v-1.4l1.1-28c.1-3.3.9-6.6,2.1-9.6-.5-.4-.9-.8-1.1-1.3-1.5,3.4-2.4,7.1-2.5,10.8l-1.1,28c-.8,15.1,11,28,26.2,28.8h1.4c13.1-.1,24.7-8.8,28.6-21.3-.5,0-1-.1-1.6-.3h0Z"/>
    <path class="st2" d="M400.1,208.6l-.3,5.8c.4,0,.9,0,1.3-.1h.4l.3-5.8c.5-12.2-7.2-23.3-18.8-27.2v1.6c10.7,3.8,17.7,14.1,17.2,25.5v.3h0Z"/>
    <path class="st2" d="M373.6,189.1c-12.6,0-22.8,10.1-23.5,22.6l-.3,6.2c.5,0,1,0,1.5.3l.3-6.4c.5-11.7,10.2-20.9,21.9-21.1,11.1,0,20.2,8.8,20.2,19.9v1l-.9,21.8c-.5,10.1-7.8,18.7-17.8,20.6v1.6c10.8-2,18.8-11.2,19.3-22.2l.9-21.8c.5-12-8.7-22.1-20.6-22.6h-1.1Z"/>
    <path class="st2" d="M358.9,207.6h1c2.8-4.8,7.8-7.7,13.4-7.7s3.3.3,4.8.9c.1-.5.4-1,.6-1.4-1.8-.6-3.5-1-5.4-1-6.4,0-12.2,3.7-15.1,9.3h.8Z"/>
    <path class="st2" d="M386.9,230.4c0,1.8-.5,3.5-1.1,5.3.5.1,1,.4,1.4.8.9-1.9,1.3-3.9,1.4-6.1l.6-15.6c0-1.5,0-2.9-.5-4.3-.5.3-1,.5-1.5.6.3,1.3.4,2.5.4,3.8l-.6,15.6h0Z"/>
    <path class="st2" d="M374.9,245c-1.1.3-2.3.4-3.4.4-7.8,0-14.3-6.3-14.3-14.1v-.6l.3-7.1c-.5,0-1-.1-1.5-.3l-.3,7.4c-.4,8.7,6.3,16,15,16.4h.8c1.3,0,2.6-.1,3.9-.5-.3-.5-.4-1-.5-1.5h0Z"/>
    <path class="st2" d="M372.9,207.6c-5.7,0-10.3,4.7-10.6,10.3l-.4,9.5c0,.9,0,1.8.3,2.6.4-.5.9-.9,1.4-1.3v-1.4l.4-9.5c.3-4.8,4.2-8.6,9.1-8.7,4.5,0,8.3,3.7,8.3,8.3v.4l-.4,9.5c-.1,3.4-2.3,6.4-5.4,7.9,0,.6,0,1.1-.3,1.8,4.2-1.4,7.1-5.3,7.2-9.7l.4-9.5c.3-5.4-3.9-10.1-9.3-10.3h-.6Z"/>
    <path class="st0" d="M399.5,94.2h-44.3c-1.4,0-2.4-1.1-2.4-2.4h0c0-1.4,1.3-2.5,2.6-2.5h44.3c1.4,0,2.4,1.1,2.5,2.4h0c0,1.4-1.3,2.5-2.6,2.5h-.1Z"/>
  </g>
  <g id="freepik--Shield--inject-9">
    <path class="st7" d="M330.2,138.5c-2.6.3-5.3.3-7.8.1-.9-.3-1.9-.3-2.8-.1h-.3c-7.4-.5-14.8-1.9-21.8-3.9-.8-.3-1.5-.5-2.3-.8l-6.2,158.8,41-27.4c3.8-2.5,6.1-6.6,6.3-11.1l4.2-106.1c.3-5-3.7-9.3-8.8-9.6h-1.5,0Z"/>
    <path class="st0" d="M320.3,126.6c-2.6.3-5.3.3-7.8.1-.9-.3-1.9-.3-2.8-.1h-.3c-7.4-.5-14.8-1.9-21.8-3.9-9-2.8-17.2-7.4-24.1-13.6-1.6-1.6-3.9-2.5-6.3-2.5h-10.7c-2.4,0-4.7.9-6.4,2.5-7.4,6.2-16,10.8-25.2,13.6-7.2,2-14.6,3.4-22.2,3.9h-.3c-1,0-1.9,0-2.8.1-2.6,0-5.3,0-7.8-.1-5.5-.4-10.3,3.8-10.8,9.3v.3l-4.2,106.2c-.3,4.4,1.9,8.6,5.4,11.1l59.5,41.9c2.1,1.5,4.8,2.4,7.4,2.4h10.7c2.8,0,5.4-.9,7.7-2.4l62.7-41.9c3.8-2.5,6.1-6.6,6.3-11.1l4-106.2c.3-5-3.8-9.3-8.8-9.6h-1.5,0Z"/>
    <path class="st4" d="M320.3,126.6c-2.6.3-5.3.3-7.8.1-.9-.3-1.9-.3-2.8-.1h-.3c-7.4-.5-14.8-1.9-21.8-3.9-9-2.8-17.2-7.4-24.1-13.6-1.6-1.6-3.9-2.5-6.3-2.5h-10.7c-2.4,0-4.7.9-6.4,2.5-7.4,6.2-16,10.8-25.2,13.6-7.2,2-14.6,3.4-22.2,3.9h-.3c-1,0-1.9,0-2.8.1-2.6,0-5.3,0-7.8-.1-5.5-.4-10.3,3.8-10.8,9.3v.3l-4.2,106.2c-.3,4.4,1.9,8.6,5.4,11.1l59.5,41.9c2.1,1.5,4.8,2.4,7.4,2.4h10.7c2.8,0,5.4-.9,7.7-2.4l62.7-41.9c3.8-2.5,6.1-6.6,6.3-11.1l4-106.2c.3-5-3.8-9.3-8.8-9.6h-1.5,0Z"/>
    <path class="st0" d="M173.4,242.2l3.9-101.5c.1-3.9,3.4-6.9,7.2-6.9h2.3c10,0,19.9-1.6,29.5-4.4,9.1-2.8,17.7-7.2,25.2-12.9,2.5-2.1,6.3-2.1,8.8,0,7.2,5.8,15.4,10.2,24.2,12.9,9.5,2.8,19.3,4.3,29.1,4.4h2.1c3.8,0,6.8,2.9,6.8,6.7v.4l-3.9,101.4c0,2.3-1.3,4.4-3.3,5.7l-62.3,41.6c-2.4,1.6-5.4,1.6-7.8,0l-59.2-41.6c-1.9-1.3-2.9-3.4-2.9-5.7h.1Z"/>
    <path class="st3" d="M190.8,236.8l3.3-86.3c9-.8,17.8-2.3,26.4-4.8,8.8-2.6,17.2-6.4,24.8-11.5,7.4,4.9,15.5,8.8,24,11.5,8.5,2.5,17.2,4,26,4.8l-3.3,86.3-51.8,34.6-49.2-34.6h-.1Z"/>
    <path class="st3" d="M208.2,227.8l2.4-62.3c4.7-.9,9.3-2,13.9-3.3,6.9-2,13.6-4.7,19.9-8.1,6.2,3.3,12.6,6.1,19.4,8.1,4.5,1.3,9.1,2.4,13.6,3.3l-2.4,62.3-34.3,23-32.5-23h0Z"/>
  </g>
  <g id="freepik--Character--inject-9">
    <path class="st5" d="M93.7,130.4c-2.4,4.9-4.8,10-7.1,14.9-1.1,2.5-2.3,5-3.3,7.4-1,2.3-1.9,4.7-2.6,7.1-.5,2.3-.8,4.7-.8,7.1v8.1l.4,16.6-5.8.9c-1.5-5.5-2.6-11.1-3.5-16.6-.4-2.8-.9-5.7-1.1-8.6,0-1.5-.3-2.9-.3-4.5v-3.9c0-.5,0-.9.3-1.3.6-3,1.5-5.9,2.5-8.8,1-2.8,2-5.4,3.2-8.1,2.3-5.3,4.5-10.3,7.2-15.5l10.7,5.3h.3Z"/>
    <path class="st5" d="M84.8,193.9l-4.8-5.5-5.4.3c-2.5,6.1,2.9,9.8,2.9,9.8l1,3.3c.4,1.3,1.6,1.9,2.9,1.5,0,0,.3,0,.4-.1l3-1.5c.9-.4,1.4-1.3,1.4-2.3v-1.9c0-1.3-.5-2.5-1.4-3.5Z"/>
    <path class="st0" d="M69.4,443.1c-.9-.4-1.8-.9-2.6-1.5v-.3s0-.3.3-.3c.5,0,4.5-.9,5.5.3.3.3.3.6,0,.9,0,.5-.5,1-1,1.1-.8.1-1.5,0-2.3-.3h.1ZM67.6,441.5c1.6,1.1,3,1.6,3.8,1.4.4-.1.6-.5.6-.8v-.4c-.5-.6-2.8-.4-4.4-.1h0Z"/>
    <path class="st0" d="M66.9,441.6h0v-.4c0-.1,1.4-3.3,3-3.8.4-.1.9-.1,1.3,0s.6.6.5,1c-.3,1.3-3.3,2.8-4.5,3h-.3ZM70.6,437.9h-.6c-1,.4-2,2-2.5,3,1.4-.4,3.3-1.6,3.5-2.4,0-.1,0-.3-.3-.5h-.1Z"/>
    <path class="st5" d="M112.9,85c1,6.9,3.4,21.9-1.6,26.5,0,0,1.5,7.1,14.4,7.3,14.1.3,7.1-6.8,7.1-6.8-7.6-2-7.2-7.7-5.5-13l-14.3-13.9h0Z"/>
    <path class="st1" d="M141.8,73.5h-.3c-.3-.4-.3-.6,0-.9,1.1-1.4,2.8-2.1,4.5-2.1s.5.3.5.6h0c0,.3-.3.5-.6.5h0c-1.4,0-2.8.6-3.7,1.8-.1,0-.4.3-.6,0h.1Z"/>
    <path class="st9" d="M144.3,80.3c.5,2.3,1.4,4.3,2.5,6.3-1,.6-2.3.8-3.4.3l.9-6.6Z"/>
    <path class="st1" d="M143.7,78.7c0,.9.3,1.8.9,1.8s1.1-.6,1.3-1.6-.3-1.8-.9-1.8-1.1.6-1.3,1.6Z"/>
    <path class="st1" d="M144.8,77.1l2.3-.4s-1.4,1.6-2.3.4Z"/>
    <polygon class="st5" points="154.9 447.7 167.3 443.7 166 418.8 153.8 422.7 154.9 447.7"/>
    <polygon class="st5" points="54.1 438.7 65.2 441.8 74.4 416.2 63.3 413.1 54.1 438.7"/>
    <path class="st1" d="M66.6,439.7l-11.9-5c-.4-.1-.9,0-1.1.4l-5.5,9c-.5.9-.3,2,.6,2.5h.3c4.2,1.6,6.3,2.3,11.5,4.4,3.2,1.4,5.7,5.4,12.7,5.4s5.7-4.3,3.8-4.9c-8.8-2.8-7.1-7.1-8.8-10.6-.3-.6-.9-1.1-1.5-1.4,0,0,0,.3,0,.3Z"/>
    <path class="st0" d="M171.7,445.5c-1,0-2-.1-3-.4,0,0-.3,0-.3-.3v-.3c.4-.3,3.8-2.5,5.2-1.9.3.1.5.4.6.8.1.5,0,1.1-.4,1.5-.6.5-1.4.6-2.1.6h0ZM169.3,444.8c2,.4,3.5.4,4.2-.3.3-.3.4-.6.3-1,0-.1,0-.3-.3-.4-.8-.4-2.8.6-4.2,1.5h0Z"/>
    <path class="st0" d="M168.6,445.1h-.1s-.1-.1-.1-.3,0-3.5,1.1-4.5c.3-.3.8-.4,1.1-.4s.9.4,1,.8c.3,1.3-1.8,3.8-2.8,4.4h-.3,0ZM170.4,440.5c-.3,0-.4,0-.6.3-.8.6-.9,2.5-1,3.7,1.1-.9,2.4-2.8,2.1-3.5,0-.1,0-.3-.5-.4h-.1.1Z"/>
    <path class="st1" d="M167.5,443.5h-13c-.5,0-.9.4-.9.8l-1.1,10.3c0,1,.8,2,1.8,2h0c4.5,0,6.7-.4,12.5-.4s8.7.4,13.6.4,4.9-4.8,2.9-5.3c-9.2-1.9-10.7-4.7-13.9-7.2-.5-.5-1.3-.8-1.9-.8h0Z"/>
    <polygon class="st7" points="166 418.8 166.6 432.1 154.4 435.5 153.8 422.7 166 418.8"/>
    <polygon class="st7" points="63.3 413.1 74.4 416.2 69.6 429.5 58.5 426.3 63.3 413.1"/>
    <path class="st0" d="M88.5,113c-4.8,1.1-10.2,18.5-10.2,18.5l13.5,14.3s11.5-16.5,9.2-22.5c-2.4-6.2-6.9-11.7-12.6-10.5h.1Z"/>
    <path class="st7" d="M88.5,113c-4.8,1.1-10.2,18.5-10.2,18.5l13.5,14.3s11.5-16.5,9.2-22.5c-2.4-6.2-6.9-11.7-12.6-10.5h.1Z"/>
    <path class="st6" d="M96,123.9c2.5-2.3,4.2-1.6,5.2.1,1,5.2-6.1,16.8-8.8,20.9-1.1-4.8-2-15.9,3.7-21.1h0Z"/>
    <path class="st0" d="M150.4,117c.6,5,.3,20.6-9.6,67.5l-47.2-.9c1.6-19.2,2.3-31-5.2-70.5,6.7-1.3,13.4-2,20.2-2.3,7.2-.4,14.3-.3,21.4.4,6.8.8,14.3,2.3,17.7,3,1.4.3,2.4,1.5,2.6,2.9h0Z"/>
    <path class="st7" d="M150.4,117c.6,5,.3,20.6-9.6,67.5l-47.2-.9c1.6-19.2,2.3-31-5.2-70.5,6.7-1.3,13.4-2,20.2-2.3,7.2-.4,14.3-.3,21.4.4,6.8.8,14.3,2.3,17.7,3,1.4.3,2.4,1.5,2.6,2.9h0Z"/>
    <path class="st5" d="M112.9,72.5c-.6,11.6-1.3,16.4,3.9,22.8,7.6,9.7,21.8,7.6,26-3.5,3.7-10.1,4.2-27.2-6.4-32.9s-22.7,2-23.3,13.6c0,0-.1,0-.1,0Z"/>
    <path class="st1" d="M128.4,184.2s-6.8,84.3-15.9,128.9c-7.3,36.1-40.4,114.3-40.4,114.3l-14.4-6.1s16.6-88.4,27.9-110c12.6-74.2-7.8-99.5,7.9-127.8l34.7.6h.1Z"/>
    <path class="st6" d="M115.5,230.3c-5.2,21.9-1.8,41.9,1.6,55,2-14.1,3.9-29.3,5.5-43.5-2.1-4-4.9-7.9-7.2-11.5h0Z"/>
    <path class="st1" d="M140.9,184.4s17.9,82.2,20.2,117.4c2.4,36.6,7.2,123.2,7.2,123.2l-15.8,4.3s-17.8-89.3-16.4-116.2c-8.8-38.1-39.6-129.4-39.6-129.4l44.4.8h0Z"/>
    <polygon class="st0" points="170.7 429.1 150.1 432.5 148.1 425.2 170 421.5 170.7 429.1"/>
    <polygon class="st0" points="74.8 428.1 55.5 422.6 56.6 415.5 77.1 420.5 74.8 428.1"/>
    <path class="st2" d="M93.1,180.7l-2.3,4.2c0,.3.3.6.8.6l49.4,1c.4,0,.8-.1.9-.5l.6-4.2c0-.3-.3-.5-.8-.5l-47.8-.9c-.3,0-.6,0-.8.4h-.1Z"/>
    <path class="st1" d="M99.3,186.2h-1.3c-.3,0-.5-.1-.4-.3l.9-5.4c0-.1.3-.3.5-.3h1.3c.3,0,.5.1.4.3l-.9,5.4c0,.1-.3.3-.5.3Z"/>
    <path class="st1" d="M130.3,186.8h-1.3c-.3,0-.5-.1-.4-.3l.9-5.4c0-.1.3-.3.5-.3h1.3c.3,0,.5.1.4.3l-.9,5.4c0,.1-.3.3-.5.3Z"/>
    <path class="st5" d="M153,123c2.3,4.9,4.9,10,7.6,14.9,2.5,4.8,5.4,9.3,8.7,13.7.4.5.8,1,1.1,1.4s.8.9,1.1,1.3c.9.9,1.8,1.6,2.8,2.4,2.1,1.6,4.3,3,6.7,4.3,4.8,2.8,9.8,5.2,15,7.3l-1.5,5.7c-5.9-1-11.7-2.6-17.4-4.9-2.9-1.1-5.7-2.5-8.5-4.2-1.4-.9-2.8-1.8-4-2.8-.6-.5-1.3-1.1-2-1.8s-1.3-1.3-1.8-1.8c-1.1-1.1-2-2.4-3-3.5s-1.9-2.4-2.8-3.7c-1.8-2.5-3.4-5-4.9-7.6-3-5.2-5.8-10.5-8.2-15.9l10.8-4.8h.3Z"/>
    <path class="st0" d="M147.1,114c11.1,2.4,13.7,19.8,13.7,19.8l-10.8,12.7s-17.3-16.4-16.4-25.4c.6-6.6,7.6-8.5,13.6-7.2h-.1Z"/>
    <path class="st7" d="M147.1,114c11.1,2.4,13.7,19.8,13.7,19.8l-10.8,12.7s-17.3-16.4-16.4-25.4c.6-6.6,7.6-8.5,13.6-7.2h-.1Z"/>
    <path class="st5" d="M208.8,172.8l-3-3.7s-9.8-2.3-14.3-.1l-1.4,4,11.1,5.7,2.3,1.1c1.1.5,2.5.1,3.2-.9l2.3-3.2c.6-.9.6-2.1,0-3h-.1Z"/>
    <path class="st1" d="M145.2,136.2c1.9-5.2,3-11.4,2.5-14.4-.6,5.3-4.7,12.5-8.7,17.8-14.6,5.8-31.2,4.7-44.9-3.2-3.3-6.7-6.1-17.2-4.3-23.5-2.1,3.2-3.7,11.9-2.6,18-3.4-3.5-5.4-7.3-5.4-11.2,0-18.4,22.2-17.3,22.6-30.8s-5.2-41,22.2-35.1c17.9-.9,14.3,15,11.2,24.6-2.6,9,24.5,43,7.3,57.5h.1Z"/>
    <path class="st1" d="M126.5,54.2c11.2-6.1,22.7,3.4,16.8,13.4-5.2-.3-9.3,3-5.3,9.7-12.1-7.6-19.4-22.3-11.5-23h0Z"/>
    <path class="st5" d="M138.4,75.4c1.3,2.1,1.8,4.5,1.5,6.9-.4,3.2-2.8,3.2-4.5,1.3s-3.2-5.7-2.1-8.1c.5-1.4,2.1-2.1,3.7-1.6.6.3,1.3.8,1.5,1.4h0Z"/>
  </g>
</svg>