<?xml version="1.0" encoding="UTF-8"?>
<svg id="Layer_1" xmlns="http://www.w3.org/2000/svg" version="1.1" viewBox="0 0 750 500">
  <!-- Generator: Adobe Illustrator 29.1.0, SVG Export Plug-In . SVG Version: 2.1.0 Build 142)  -->
  <defs>
    <style>
      .st0 {
        fill: #004a99;
      }

      .st1 {
        opacity: .9;
      }

      .st1, .st2, .st3, .st4 {
        fill: #fff;
      }

      .st1, .st3, .st5, .st4 {
        isolation: isolate;
      }

      .st6 {
        opacity: .6;
      }

      .st7 {
        fill: #263238;
      }

      .st8 {
        fill: #ffbe9d;
      }

      .st3 {
        opacity: .3;
      }

      .st9 {
        fill: #e0e0e0;
      }

      .st5 {
        opacity: .4;
      }

      .st10 {
        fill: #455a64;
      }

      .st11 {
        fill: #fafafa;
      }

      .st4 {
        opacity: .8;
      }

      .st12 {
        fill: #eb996e;
      }
    </style>
  </defs>
  <g id="freepik--Device--inject-9">
    <rect class="st7" x="193.8" y="161.7" width="362.5" height="239.7" rx="14.6" ry="14.6"/>
    <path class="st7" d="M178.6,383.7h392.7v4.9c0,8.9-7.2,16-16,16H194.7c-8.9,0-16-7.2-16-16v-4.9h0Z"/>
    <rect class="st9" x="203.5" y="171.3" width="342" height="202.4"/>
    <polygon class="st10" points="339.3 383.7 344.2 391.5 412.8 391.5 417.3 383.7 339.3 383.7"/>
    <rect class="st10" x="210.6" y="178.1" width="328.6" height="194.9" rx="3.3" ry="3.3"/>
    <rect class="st11" x="210.6" y="192.4" width="328.6" height="180.6"/>
    <path class="st0" d="M237.5,185.6c0,1.4-1.2,2.6-2.6,2.6s-2.6-1.2-2.6-2.6,1.2-2.6,2.6-2.6,2.6,1.2,2.6,2.6h0Z"/>
    <path class="st0" d="M221.6,185.6c0,1.4-1.2,2.6-2.6,2.6s-2.6-1.2-2.6-2.6,1.2-2.6,2.6-2.6,2.6,1.2,2.6,2.6h0Z"/>
    <path class="st0" d="M229.3,185.6c0,1.4-1.2,2.6-2.6,2.6s-2.6-1.2-2.6-2.6,1.2-2.6,2.6-2.6,2.6,1.2,2.6,2.6h0Z"/>
    <path class="st7" d="M456.4,267.6h1c.3,0,.7-.2,1.2-.3.6-.1,1.1-.3,1.6-.5,1.5-.6,2.9-1.5,4-2.7.7-.7,1.3-1.6,1.8-2.5.5-1,.9-2.2,1.1-3.3,1-6-3-11.6-9-12.7-.3,0-.5,0-.8-.1h-164c-5.2,0-9.6,3.7-10.7,8.8-.3,1.6-.3,3.3.1,4.9,1.3,4.8,5.7,8.2,10.7,8.1h147.3c0,.1,15.5.1,15.5.1h-57.9c0,.1-62.9.1-62.9.1h-42c-1.7,0-3.3-.3-4.8-1-3.1-1.4-5.5-4.2-6.3-7.5-.9-3.4-.2-7,2-9.7,2.2-2.8,5.5-4.4,9-4.4h164.1c6.2.6,10.7,6.1,10,12.3-.1,1.4-.6,2.8-1.2,4.1-.5.9-1.1,1.8-1.8,2.5-1.2,1.2-2.5,2.1-4.1,2.7-.5.2-1.1.4-1.7.5-.5,0-.9.1-1.2.2-.6.2-1,.2-1,.2v.2Z"/>
    <path class="st0" d="M456.4,267.6h-21.3v-22.2h21.3c6.1,0,11.1,5,11.1,11.1h0c0,6.1-5,11.1-11.1,11.1Z"/>
    <path class="st2" d="M452.6,254.4s0-.4-.2-1c-.3-.9-.8-1.7-1.6-2.2-1.8-1.3-4.3-1-5.6.8-1.3,1.8-1,4.3.8,5.6.3.2.6.4,1,.5,1.3.5,2.7.3,3.8-.5.7-.6,1.3-1.3,1.5-2.2.2-.6.2-1,.2-1v1.1c-.2,1-.7,1.8-1.5,2.4-1.2.9-2.8,1.2-4.2.7-2.3-.8-3.5-3.4-2.7-5.7.4-1.3,1.4-2.2,2.7-2.7,1.4-.5,3-.3,4.2.7.8.6,1.3,1.5,1.5,2.4v1.1h.1Z"/>
    <path class="st2" d="M458.3,261.5c-1.2-.5-2.4-1.2-3.4-2-1.1-.7-2.2-1.5-3.2-2.4,2.4,1.2,4.6,2.7,6.6,4.4h0Z"/>
    <path class="st10" d="M296.1,262.8c-.2-2.1-.3-4.2-.2-6.3,0-2.1,0-4.2.2-6.3.2,2.1.3,4.2.2,6.3,0,2.1,0,4.2-.2,6.3Z"/>
    <rect class="st10" x="341.1" y="219.3" width="67.5" height="5.7"/>
    <path class="st10" d="M553.2,383.7c0,.1-80.5.2-179.7.2s-179.7,0-179.7-.2,80.4-.2,179.7-.2,179.7.1,179.7.2Z"/>
  </g>
  <g id="freepik--Floor--inject-9">
    <path class="st7" d="M629.4,404.7c0,.1-110.3.3-246.4.3s-246.4-.1-246.4-.3,110.3-.3,246.4-.3,246.4.1,246.4.3Z"/>
  </g>
  <g id="freepik--Character--inject-9">
    <path class="st8" d="M502,272.6s.8-8.8,1.7-8.7,1,1.6.9,2.4,0,3.7,0,3.7l-2.5,2.6h-.1Z"/>
    <path class="st7" d="M577.3,265.4l-4.2,29.6,19.4,84.8-53.6,4.3,23.1-136.6s15.3-1.7,15.3,17.9h0Z"/>
    <polygon class="st8" points="511.4 414.7 508.3 449.7 521.5 449.7 527.4 414.7 511.4 414.7"/>
    <path class="st8" d="M508.3,449.7s-8.9,1.2-10.5,2.3l23.4-.3.4-2h-13.3Z"/>
    <polygon class="st0" points="497.8 452 497.8 452.9 521.9 452.7 521.9 451.6 497.8 452"/>
    <path class="st0" d="M506.3,452.5c-.1,0-.5-.7-1.3-1.2s-1.6-.7-1.5-.9.9-.2,1.8.5,1.1,1.6,1,1.6Z"/>
    <path class="st0" d="M521.8,449c0,.1-1.6.5-3.4,1.3s-3.1,1.8-3.2,1.8c.8-1,1.8-1.7,3-2.2,1.1-.6,2.4-.9,3.6-.9h0Z"/>
    <path class="st0" d="M521.3,448.4c-4.3,0-8.7-.1-13-.7,2.2-.1,4.3,0,6.5.1,2.2,0,4.4.2,6.5.6Z"/>
    <path class="st0" d="M522.8,443.8c-2.4.7-4.7,1.2-7.2,1.5-2.4.5-4.8.9-7.2,1.1,2.4-.7,4.7-1.2,7.2-1.5,2.4-.5,4.8-.9,7.2-1.1Z"/>
    <path class="st0" d="M522.6,444c-.6,0-1.2-.1-1.7-.4-.6-.2-1.2-.6-1.7-.9-.3-.2-.6-.5-.9-.7-.2-.2-.3-.4-.4-.6v-.8c.2-.2.5-.4.7-.3.2,0,.4,0,.6.2.4.1.7.3,1,.6.5.4,1,.9,1.4,1.4s.6,1.1.6,1.7c0,0-.2-.6-.9-1.5-.4-.5-.8-.9-1.3-1.3-.3-.2-.6-.4-.9-.5-.3-.2-.7-.2-.8,0,0,.3,0,.6.3.8.3.2.5.5.8.7.5.4,1.1.7,1.6.9,1,.5,1.6.6,1.6.7h0Z"/>
    <path class="st0" d="M522.5,444.3c-.3-.5-.4-1.1-.3-1.7,0-.6.2-1.3.4-1.8,0-.4.3-.7.6-1,0-.2.2-.3.4-.5s.4-.3.7-.3.5.2.7.5c0,.2,0,.4,0,.7s0,.8-.2,1.1c-.2.6-.5,1.2-.9,1.7-.3.5-.8.9-1.4,1.1,0,0,.5-.4,1.1-1.3.3-.5.6-1.1.7-1.6,0-.3,0-.7,0-1s0-.7-.4-.7-.5.4-.7.6c-.2.3-.4.6-.5.9-.2.6-.4,1.1-.5,1.7,0,1,0,1.7,0,1.7h.1Z"/>
    <path class="st0" d="M524.3,449.7c-.6-.8-1-1.7-1.3-2.7-.4-.9-.6-2-.5-3,.4.9.7,1.9.9,2.8.4.9.7,1.9.9,2.8h0Z"/>
    <path class="st0" d="M525.8,448.5c-1.8-1.1-3.2-2.8-3.8-4.8,0,0,.8,1.2,1.8,2.5s2,2.2,1.9,2.4h0Z"/>
    <polygon class="st8" points="560.8 417.5 587.9 439 594.3 429.6 570.1 403.2 560.8 417.5"/>
    <path class="st8" d="M586,439.5s-4.2,8-4.1,9.9l13.2-19.3-1.5-1.5-7.6,10.8h0Z"/>
    <polygon class="st0" points="581.8 449.5 582.6 450 596.2 430.1 595.4 429.6 581.8 449.5"/>
    <path class="st0" d="M587.1,442.8c0,.1-.8,0-1.7.4s-1.5.9-1.6.8.4-.9,1.5-1.2,1.9,0,1.9,0h-.1Z"/>
    <path class="st0" d="M593.1,428.1c0,0-.5,1.6-.9,3.6s-.2,3.6-.4,3.7c-.5-2.5,0-5.1,1.3-7.2h0Z"/>
    <path class="st0" d="M592.4,427.5c-1,1.7-2.2,3.3-3.4,4.8-1.2,1.6-2.4,3.1-3.8,4.5,1-1.7,2.2-3.3,3.4-4.8,1.1-1.6,2.4-3.1,3.8-4.5Z"/>
    <path class="st0" d="M589.5,424.3c-.7,2-1.5,4-2.5,6-.8,2-1.8,3.9-2.9,5.8.7-2,1.5-4,2.5-6,.8-2,1.8-3.9,2.9-5.8Z"/>
    <path class="st0" d="M589.5,424.6s-.4.6-1.3,1.2c-.5.4-1.1.7-1.7.9-.4.1-.7.3-1.1.4h-.7c-.3,0-.5-.3-.6-.5,0-.3,0-.6.2-.8.2-.2.3-.3.5-.4.9-.6,1.9-.9,3-.8.6,0,1.2.1,1.7.5,0,0-.7-.2-1.7-.1-1,0-1.9.3-2.8.9-.3.2-.6.5-.5.7.2.3.5.4.8.2.4,0,.7-.2,1.1-.3.6-.2,1.2-.5,1.7-.8.9-.6,1.4-1,1.5-1h-.1Z"/>
    <path class="st0" d="M589.7,424.8c-.6,0-1.2-.3-1.6-.7-.5-.4-1-.9-1.3-1.4-.2-.3-.4-.7-.5-1,0-.2,0-.4-.2-.6,0-.3,0-.5,0-.8.2-.2.5-.3.8-.3s.4.1.6.3c.3.2.6.5.8.8.4.5.7,1.1.9,1.7s.2,1.2,0,1.8c0-.6-.2-1.1-.4-1.6-.2-.6-.5-1.1-.9-1.6-.2-.3-.5-.5-.8-.7s-.6-.3-.8,0,0,.6,0,.9.3.6.4.9c.3.5.7,1,1.2,1.4.8.7,1.4.9,1.4,1h.2Z"/>
    <path class="st0" d="M595.2,426.5c-1,0-2,0-3-.5-1-.2-2-.7-2.8-1.3,1.9.5,3.8,1.1,5.7,1.7h0Z"/>
    <path class="st0" d="M595.1,424.5c-.9.5-2,.7-3,.7-1.1.1-2.1,0-3.1-.4,0-.1,1.4,0,3.1,0s3-.4,3.1-.3h0Z"/>
    <path class="st0" d="M534.7,312s-10.4,68.8-8.8,72.1,35,37.7,35,37.7l12.6-21.5s-22.2-24.6-21.9-25.9,16-67.9,16-67.9l-32.9,5.5h0Z"/>
    <path class="st0" d="M537,397.1l8.8-19.4,10.2-21.8c-6.2,8.9-11.5,18.5-15.7,28.5-1.7,4.1-2.8,8.3-3.3,12.7h0Z"/>
    <path class="st5" d="M537,397.1l8.8-19.4,10.2-21.8c-6.2,8.9-11.5,18.5-15.7,28.5-1.7,4.1-2.8,8.3-3.3,12.7h0Z"/>
    <path class="st0" d="M531,337.3c0-.7,8.4-19.5,8.4-19.5l-4.1-5.7-.7-.2-3.7,25.4h0Z"/>
    <path class="st5" d="M531,337.3c0-.7,8.4-19.5,8.4-19.5l-4.1-5.7-.7-.2-3.7,25.4h0Z"/>
    <path class="st0" d="M573.4,305.5l.6,2.6c1.9,7.5.7,15.5-3.2,22.2l-28.1,48.7c-2,3.5-3.4,7.2-4.3,11.1l-7,31.4s-22.1.7-23,0,2.8-21.6,5.4-37.3c1.9-11.9,17.8-48.8,25.5-66.2l-4.8-5.9,8.3-1.4,30.5-5.1h0Z"/>
    <path class="st7" d="M531.5,421.4c-.3,0-.6.1-.9.1-.6,0-1.4.1-2.5.2-2.1.1-5,.2-8.2.2s-6.1-.1-8.2-.2c-1.1,0-1.9-.1-2.5-.1s-.6,0-.9-.1h22.3c.3-.1.6,0,.9,0h0Z"/>
    <path class="st7" d="M532.7,415.4c0,.1-5.3.2-11.8.2s-11.9-.1-11.9-.3,5.3-.2,11.9-.2,11.8.1,11.8.3Z"/>
    <path class="st7" d="M569.6,395.7c0,.3-.3.6-.5.9l-1.4,2.3-4.8,7.5-4.7,7.5-1.5,2.3c-.2.3-.4.6-.6.8,0-.3.3-.6.4-.9.3-.6.8-1.4,1.3-2.3,1.1-2,2.8-4.6,4.6-7.6s3.6-5.5,4.9-7.4c.6-.9,1.2-1.7,1.6-2.2.2-.3.4-.5.6-.7v-.2Z"/>
    <path class="st7" d="M559.5,419.8c-.5-.9-.9-1.9-1.1-2.9-.4-1-.6-2-.6-3,.5.9.9,1.9,1.1,2.9.4,1,.6,2,.6,3Z"/>
    <path class="st7" d="M561.5,419.8c-.5-1.6-.8-3.2-1-4.8-.3-1.6-.5-3.3-.6-4.9.8,3.2,1.4,6.5,1.6,9.8h0Z"/>
    <path class="st7" d="M564,416.1c-.5-1.4-.9-2.8-1.2-4.2-.4-1.4-.7-2.8-.9-4.3.6,1.3,1.1,2.7,1.4,4.2.4,1.4.7,2.9.7,4.3Z"/>
    <path class="st7" d="M566.2,411.1c-.5-1.3-.9-2.7-1-4.1-.4-1.4-.6-2.8-.6-4.2.5,1.3.8,2.7,1,4.1.3,1.4.5,2.8.6,4.2Z"/>
    <path class="st7" d="M569,406.9c-.4-1.3-.7-2.7-1-4-.4-1.3-.7-2.7-.9-4.1.6,1.2,1.1,2.6,1.3,4,.4,1.3.6,2.7.6,4.1h0Z"/>
    <path class="st7" d="M571.5,403.3c-.5-1-.9-2.1-1.1-3.3-.4-1.1-.6-2.2-.6-3.4.8,2.1,1.4,4.4,1.7,6.7h0Z"/>
    <path class="st7" d="M520,415.2c-1.8,1.1-3.6,2.1-5.5,3-1.8,1-3.7,2-5.5,2.9.5-.4,1-.8,1.5-1.1.9-.6,2.3-1.4,3.9-2.2s2.9-1.5,4-2c.5-.3,1.1-.5,1.7-.6h-.1Z"/>
    <path class="st7" d="M526.8,415.3c-.5.4-1.1.8-1.7,1.1-1.1.6-2.7,1.5-4.4,2.3s-3.4,1.6-4.5,2.1c-.6.3-1.3.5-2,.7.6-.4,1.2-.7,1.8-1l4.5-2.2,4.5-2.2c.6-.3,1.2-.6,1.9-.9h0Z"/>
    <path class="st7" d="M532,415.3c-1.3,1.3-2.8,2.5-4.3,3.6-1.5,1.2-3.1,2.2-4.7,3,1.4-1.2,2.9-2.4,4.4-3.4,1.5-1.2,3-2.2,4.6-3.2Z"/>
    <path class="st7" d="M532.6,418.6c0,.1-.8.9-1.9,1.8-.6.6-1.4,1.1-2.2,1.4.5-.7,1.2-1.3,1.9-1.8.6-.6,1.4-1.1,2.2-1.4Z"/>
    <path class="st7" d="M514,415.1c-.9.8-1.8,1.4-2.8,2-1,.7-2,1.2-3.1,1.6,1.8-1.4,3.8-2.6,5.9-3.5h0Z"/>
    <path class="st7" d="M538.8,317.7c-.3,1.1-.7,2.1-1.2,3.1-.8,1.8-1.8,4.5-2.9,7.4s-2.1,5.5-2.8,7.4c-.3,1-.7,2.1-1.2,3.1,0-.3,0-.6.2-.9.2-.5.4-1.3.7-2.3.6-1.9,1.6-4.6,2.7-7.5s2.2-5.5,3.1-7.3c.4-.9.8-1.7,1-2.2,0-.3.2-.5.4-.8h0Z"/>
    <path class="st7" d="M536.5,399.3v-.5c0-.4,0-.9.2-1.6s.2-1.5.4-2.4.4-2,.7-3.2c.2-.6.3-1.2.5-1.8s.4-1.3.6-2c.4-1.4,1-2.8,1.5-4.3,1.3-3.2,2.8-6.4,4.4-9.5,3-5.6,6.4-10.9,10-16.1,1.4-2,2.5-3.6,3.3-4.7l.9-1.3c0-.2.2-.3.4-.4,0,.2-.2.3-.3.5-.2.3-.5.8-.9,1.3l-3.2,4.8c-2.6,4-6.3,9.7-9.9,16.1-1.6,3.1-3.1,6.2-4.4,9.4-.6,1.5-1.1,2.9-1.6,4.3-.2.7-.5,1.3-.6,2s-.4,1.2-.5,1.8c-.4,1.2-.6,2.2-.8,3.2s-.4,1.8-.5,2.4-.2,1.1-.3,1.5c0,.2,0,.4,0,.6h.2Z"/>
    <path class="st2" d="M564,247.6l-21.7,1.8s-6.5.1-13.6,16.6l-5.1,16.4,9.2,2v.9l1.8,26.7,39.2-6.3c0-3.4-1.8-8.3-3.3-12.9,1.5-3.7,7.7-19.6,7.6-27.3,0-16.4-14.2-17.8-14.2-17.8"/>
    <path class="st7" d="M573.4,400.1c0,.3-.2.6-.4.9-.3.6-.7,1.4-1.3,2.4-1.1,2-2.7,4.7-4.4,7.6l-4.6,7.5-1.4,2.3c0,.3-.3.6-.6.8,0-.3.2-.6.4-.9.3-.6.7-1.4,1.3-2.4,1.1-2,2.7-4.7,4.4-7.6l4.5-7.5,1.4-2.3c.2-.3.4-.5.6-.8h0Z"/>
    <path class="st2" d="M568.3,286.8c-1,.5-2,.7-3.1.8-1,.2-2.1.2-3.2,0,1-.3,2.1-.4,3.1-.5,1-.2,2.1-.3,3.1-.3h.1Z"/>
    <path class="st10" d="M534.7,285.4l-.4,28.9,11.7-65.9c-3.9-.7-11.2,2.4-13.9,6.3-2,2.3-3,7.7-8.5,23.8l-3.3,11-13.6-14.9-9.1,8.3s15.8,25.8,22.4,27.2c9,1.9,14.8-24.7,14.8-24.7"/>
    <path class="st7" d="M536.6,258.7c0,.4,0,.8,0,1.1,0,.8-.3,1.8-.5,3-.4,2.6-.9,6.1-1.4,10.1s-.8,7.5-1.1,10.1c0,1.2-.2,2.2-.3,3.1,0,.4,0,.8-.2,1.1v-1.1c0-.7,0-1.8,0-3.1,0-2.6.5-6.2.9-10.2s1.1-7.5,1.6-10.1c.2-1.3.5-2.3.6-3,0-.4.2-.7.3-1.1h.1Z"/>
    <path class="st2" d="M533.6,257.4c0-.1,1.8-.9,3.8-2.2s3.6-2.6,3.7-2.4c-2,2.2-4.6,3.8-7.5,4.6h0Z"/>
    <path class="st2" d="M529.8,276.5c-.5-1.1-.8-2.2-1.1-3.3-.4-1.1-.8-2.2-1-3.3,1.2,2,2,4.3,2.2,6.6h-.1Z"/>
    <path class="st2" d="M539.3,266.1c0,1.3,0,2.6-.3,3.8-.2,1.3-.5,2.5-1.1,3.7.2-1.3.4-2.5.7-3.8.2-1.3.4-2.5.7-3.8h0Z"/>
    <path class="st2" d="M526.1,291.3c0,1.1,0,2.3-.3,3.4,0,1.1-.2,2.3-.4,3.4-.3-2.3,0-4.6.7-6.8h0Z"/>
    <path class="st2" d="M508.8,291.1c-1-1.1-1.8-2.3-2.5-3.7-.8-1.3-1.3-2.7-1.6-4.1.8,1.3,1.4,2.6,2.1,3.9.8,1.3,1.4,2.6,2.1,3.9h-.1Z"/>
    <path class="st2" d="M518.7,291.8c-.7.7-1.6,1.2-2.5,1.6-.9.5-1.9.8-2.9.9.8-.5,1.7-1,2.7-1.3.9-.5,1.8-.9,2.7-1.2Z"/>
    <polygon class="st10" points="565.7 300.9 572.5 381.7 593 379.7 573.6 294.9 575.9 272.2 565.7 300.9"/>
    <path class="st7" d="M572.5,381.7c0,0-1.6-17.9-3.4-40-1.7-22.1-3-40-2.9-40s1.6,17.9,3.4,40c1.7,22.1,3,40,2.9,40.1h0Z"/>
    <path class="st2" d="M570.6,302.8c0-.9.4-1.8.9-2.7.3-.9.7-1.7,1.3-2.5-.4,1.8-1.2,3.6-2.2,5.1h0Z"/>
    <path class="st2" d="M576.2,314.8c0,0-1.1-1.1-2.6-2.4-.9-.7-1.8-1.5-2.6-2.3,1.1.4,2.1,1.1,2.9,1.9.9.7,1.7,1.7,2.2,2.7h0Z"/>
    <path class="st2" d="M575,331c.4-1,.8-1.9,1.3-2.8.3-1,.7-1.9,1.2-2.8,0,1.1-.3,2.1-.8,3-.4,1-.9,1.9-1.7,2.6h0Z"/>
    <path class="st2" d="M579.4,344c-2-1.3-3.8-2.9-5.3-4.6,1,.6,1.9,1.3,2.8,2.1,1,.7,1.8,1.5,2.6,2.5h0Z"/>
    <path class="st2" d="M583.1,352.9c-.3-2.6-.3-5.2,0-7.8.2,1.3.3,2.6.2,3.9,0,1.3,0,2.6-.3,3.9h0Z"/>
    <path class="st2" d="M576.5,359c-.3-1-.4-2.1-.5-3.1-.2-1-.3-2.1-.3-3.1.5,1,.8,2,.8,3.1.2,1,.2,2.1,0,3.2h0Z"/>
    <path class="st2" d="M583.3,366.7c-2,0-3.9-.3-5.8-.9,1,0,2,0,2.9.2,1,0,1.9.3,2.9.7h0Z"/>
    <path class="st2" d="M582.1,377c1-2,2.2-3.9,3.7-5.5-.4,1-1,2-1.6,2.9-.6,1-1.3,1.9-2.1,2.6h0Z"/>
    <path class="st7" d="M535.6,310.7l-34.4-46.8c2-1.6,3.9-3.3,5.7-5.2,17.9-19.1,16.8-49.1-2.3-66.9-19.1-17.9-49.1-16.8-66.9,2.3-17.9,19.1-16.8,49.1,2.3,66.9,7.9,7.4,18.1,11.8,28.9,12.6,1.7.1,3.4.2,5.1,0,6.9-.2,13.6-1.9,19.8-5l34.7,47.3c1.5,2,4.2,2.4,6.2.9h0c2-1.5,2.4-4.2,1-6.2h-.1ZM473.6,264.8h-4.1c-21.2-1.5-37.1-19.9-35.6-41.1,1.4-19.6,17.4-35,37.1-35.7h4.2c21.2,1.6,37.1,20,35.5,41.2-1.5,19.6-17.4,34.9-37.1,35.6h0Z"/>
    <path class="st10" d="M521.9,285.2l-4.1,13.9s21.3,7.8,32.9,7.6c10.8-.1,13.9-1.4,17.7-10.1s8.1-18.8,9.1-24.6c0,0,6.1-26.6-17.2-24.2l-.6,20.8s-2.6,8.5-2.8,9c-1.7,4.6-4,11.3-6.2,12.2s-28.8-4.6-28.8-4.6h0Z"/>
    <path class="st7" d="M555.4,296.4c-1.7-2-3.1-4.3-4-6.8.8,1.1,1.5,2.2,2.1,3.3.7,1.1,1.4,2.3,1.9,3.5Z"/>
    <path class="st7" d="M557.6,294.2c-1.1-.6-2.2-1.3-3.1-2.1-1-.7-2-1.5-2.8-2.5,1.1.6,2.2,1.3,3.1,2.1,1,.7,2,1.5,2.8,2.5Z"/>
    <path class="st7" d="M564.8,256.3c-.7,2.2-1.5,4.4-2.5,6.5-.8,2.2-1.8,4.3-2.9,6.3.7-2.2,1.5-4.4,2.4-6.5.8-2.2,1.8-4.3,2.9-6.3h0Z"/>
    <path class="st7" d="M576.6,276.1c0,.4-.2.7-.3,1.1-.3.8-.6,1.7-.9,2.8-.9,2.4-2,5.7-3.4,9.2s-2.8,6.8-3.9,9.1c-.5,1.1-1,2.1-1.3,2.7-.2.3-.3.6-.6.9,0-.4.2-.7.4-1,.3-.7.7-1.7,1.2-2.8,1-2.3,2.4-5.5,3.8-9.1s2.6-6.8,3.6-9.2.9-2.1,1.1-2.8c0-.3.3-.6.4-.9h0Z"/>
    <path class="st7" d="M542.3,289.2c0,.1-4.6-.6-10.4-1.6-5.7-1-10.3-2-10.3-2.1s4.6.6,10.4,1.6,10.3,2,10.3,2.1Z"/>
    <path class="st2" d="M566.5,276.5c-.3-2.5-.2-5,0-7.5.2,1.2.3,2.5.2,3.8,0,1.3,0,2.5-.3,3.8h0Z"/>
    <path class="st2" d="M558.2,302.1c.3-1,.8-1.9,1.2-2.8.3-1,.7-1.9,1.2-2.8,0,1.1-.3,2.1-.8,3-.4,1-.9,1.9-1.7,2.6h0Z"/>
    <path class="st2" d="M546.9,301.4c-1.3-2.1-2.5-4.3-3.6-6.5.9.9,1.6,1.9,2.2,3.1.7,1.1,1.2,2.2,1.4,3.4h0Z"/>
    <path class="st2" d="M531.3,294.2c-.9.6-2,1.1-3,1.5-1,.5-2.1.8-3.2,1,.9-.6,2-1.1,3-1.5,1-.5,2.1-.8,3.2-1Z"/>
    <path class="st2" d="M575.1,261.6c0,0-1.1-.9-2.6-2s-2.8-1.6-2.8-1.7c1.1.2,2.1.7,3,1.3,1,.6,1.8,1.4,2.3,2.4h0Z"/>
    <path class="st2" d="M568.4,284.5c-2.4.9-4.9,1.2-7.4.9,1.2-.3,2.5-.4,3.7-.5,1.2-.2,2.5-.4,3.7-.4Z"/>
    <path class="st0" d="M566.2,213.3c1.3-2.3,4-3.5,6.6-2.7,2.5.8,4.4,2.8,5.2,5.3.7,2.5.8,5.1,0,7.7-.4,1.8-.9,4,.3,5.4s3.3,1.3,4.6,2.4c1.3,1.2,1.4,3.2.3,4.5-1.2,1.3-3.2,1.4-4.5.3,0,0-.2-.2-.3-.3,0,1.3.7,2.5,1.1,3.7s.5,2.8-.5,3.6c-.8.6-1.8.7-2.7.3s-1.7-1-2.3-1.7c.5,1.3.5,2.8,0,4.1s-1.7,2.3-3.1,2.6c-1.8.1-3.5-.8-4.3-2.4-.7-1.6-1-3.3-.8-5.1.2-2.7.9-5.3,1.2-8,.5-2.7,0-5.5-1-7.9"/>
    <path class="st0" d="M581.9,229h-.4c-.3,0-.7-.3-.8-.6-.3-.5,0-1.2.4-1.5.6-.5,1.5-.4,2.1.1.7.6.9,1.6.6,2.5,0,.5-.4.9-.7,1.3-.4.4-.9.6-1.5.6s-1.1,0-1.6-.4c-.5-.3-.9-.7-1.2-1.2-.6-1-.8-2.3-.6-3.4.3-2.4,1.5-4.4,1.5-6.4s-.5-3.5-1.4-5c-.6-1-1.4-1.9-2.4-2.6-.7-.5-1.1-.7-1.1-.7,0,0,0,0,.3.1.3.1.6.3.9.5,1,.7,1.9,1.5,2.6,2.6,1,1.5,1.5,3.3,1.5,5.2s-1.1,4.2-1.4,6.4c-.2,1.1,0,2.2.5,3.1.5.9,1.4,1.4,2.4,1.4s1.6-.7,1.8-1.6c.3-.7,0-1.6-.5-2.1s-1.2-.5-1.7-.2c-.4.3-.6.8-.4,1.2,0,.3.4.5.7.6h.4Z"/>
    <path class="st8" d="M560.5,248.4l1.2-28.2-11.2-8.5-10.2,5s-.3,12.8,0,18.3,5.9,6.1,5.9,6.1c0,0,0,3.2-.3,6.7,0,4,3,7.4,7,7.5h.3c3.8,0,7-3.1,7.1-6.9h.2Z"/>
    <path class="st7" d="M541.5,226c0,.4.3.7.7.7s.7-.3.7-.7-.3-.7-.7-.7-.7.3-.7.7Z"/>
    <path class="st7" d="M540.8,225.2s.6-.4,1.4-.4,1.3.3,1.4.2,0-.2-.3-.4c-.7-.5-1.6-.4-2.2.1-.2.2-.3.4-.3.4h0Z"/>
    <path class="st7" d="M549.7,226c0,.4.3.7.7.7s.7-.3.7-.7-.3-.7-.7-.7-.7.3-.7.7h0Z"/>
    <path class="st7" d="M549.2,225.2s.6-.4,1.4-.4,1.3.3,1.4.2,0-.2-.3-.4c-.7-.5-1.6-.4-2.2.1-.2.2-.3.4-.3.4h0Z"/>
    <path class="st2" d="M549,232.4c-1.2.6-2.4,1-3.7,1.3.6.8,1.6,1.1,2.5.7.8-.2,1.4-1,1.2-1.9h0Z"/>
    <path class="st12" d="M546.3,241.1c2.6-.1,5.2-1,7.3-2.5,0,0-1.7,4.1-7.2,3.8v-1.4h0Z"/>
    <path class="st0" d="M577.9,236.1c-.7,0-1.4-.1-2-.5-.9-.5-1.7-1.2-2.2-2.1-.6-1.1-1.2-2.3-1.6-3.5-1-2.6-1.8-5-2.3-6.7l-.2-.8c0-.3,0-.6,0-.8-3-11.6-13.2-13.7-15.2-13.7s-5.9-1.2-11.4,4.5c-.8.9-1.5,1.8-2.1,2.9-1.2,1.5-2.1,3.3-2.4,5.2-.3.9-.3,1.9,0,2.8,0,0,0-1,.5-2.7.3-.9.6-1.9,1.1-2.7-.5,2.1-.3,4.4.6,6.4l2-.5,7.1-2.4c-.6-2.2.3-4.9.8-6.2h0c.8,4.7,4.6,8.3,9.3,9l1.3,18.2c9.4-2,9.2-14.6,9.1-17.1.4,1.4,1,3.1,1.7,4.8.5,1.2,1,2.4,1.7,3.6.6,1,1.4,1.7,2.4,2.2.7.3,1.4.4,2.2.3.3,0,.5-.1.8-.3h-1Z"/>
    <path class="st7" d="M546.5,231.7c-.4,0-.8-.1-1.2-.2-.2,0-.4,0-.4-.2s0-.4,0-.6l.5-1.6c.4-1.1.7-2.2.9-2.9,0-.4.2-.8.3-1.2-.2.4-.4.7-.6,1.1-.3.7-.6,1.7-.9,2.9l-.5,1.6c0,.2,0,.5,0,.8,0,.1.2.2.3.3h1.5Z"/>
    <path class="st8" d="M562.3,231.4c0-.9,0-1.9.3-2.8.3-.9,1.1-1.6,2-1.7,1.1,0,2.1.7,2.3,1.8,0,1.1-.4,2.1-1.4,2.7-1,.5-2.1.5-3.1,0"/>
    <path class="st12" d="M563.9,230.6h.7c.5-.2.8-.6.8-1.2s0-.5-.2-.7c-.2-.1-.4-.2-.6-.2-.4,0-.7.1-.7,0s.2-.3.7-.4c.3,0,.7,0,.9.2.3.3.4.7.4,1.1s-.2.7-.4,1c-.2.2-.5.4-.8.4-.5,0-.8-.2-.7-.3h-.1Z"/>
    <path class="st7" d="M565.6,231.4s.4.3.4,1-.2.8-.5,1.1c-.4.4-.9.5-1.5.5-.5-.1-1-.4-1.3-.9-.2-.4-.3-.8,0-1.3.2-.7.7-.9.7-.9,0,0-.3.3-.4.9,0,.8.3,1.5,1.1,1.6.4,0,.9,0,1.2-.3.3-.2.4-.5.5-.9v-1,.2Z"/>
    <path class="st0" d="M562.4,227.6c-.2.2-.4.3-.7.4-.7.3-1.5.5-2.2.5-1.2,0-2.3-.3-3.3-.8-1.2-.7-2.3-1.6-3.1-2.8-1.4-2.1-2.2-4.6-2.5-7.1,0-.9-.2-1.7-.2-2.2v-.8c.2,1,.4,2,.6,3,.3,2.4,1.2,4.8,2.5,6.8.7,1.1,1.7,2,2.9,2.7,1,.5,2,.8,3.1.9,1,0,2-.2,3-.6h0Z"/>
    <path class="st7" d="M568.6,219.6c0,0-.6-1.6-1.6-3.3s-2.4-2.8-2.3-2.9c1.1.6,2,1.6,2.7,2.7.7,1.1,1.2,2.3,1.2,3.6h0Z"/>
    <path class="st8" d="M518.3,297.8h-3.3c-3-.3-4.6-.3-5.5-1.1-1.1-1.1.4-2.1.4-2.1,0,0-2.1-.7-1.9-2,.1-.9,1.1-1,1.1-1,0,0-1.8-.7-2.3-1.5-.5-1.1.8-1.6.8-1.6-2.6-1.6-2.3-3.2-1.7-3.3s2.6.8,2.6.8c1.7.5,6.3,1.9,4.6-.7s-2.1-5.2-1.7-5.9c.2-.5.7-.7,1.2-.5.4.2.6.5.6.9.3,1,.7,2,1.2,2.9.4.7.9,1.4,1.5,1.9.7.6,1.4,1.2,1.9,1.6l2.9,2.8-2.6,9,.2-.2Z"/>
    <path class="st8" d="M498,265.2c.2-.7.8-1.2,1.5-.9h0c.3.3.3.7.2,1.1l-2,6.6h0l1.9-4.6c.2-.7.9-1.1,1.3-.7.2.3.3.7.2,1.1l-1.7,5.4,1.4-3.4c.3-.8.6-1,1-.8s.4.7.3,1.1l-1.2,4c.3.8,1.1,3.2.3,4.6v.4l.4.5-2.6,2.4s-2.5-6.2-2.9-8.1c-.3-1.1-.2-2.2.1-3.3l1.8-5.2v-.2Z"/>
  </g>
  <path class="st0" d="M297.8,311.4l-1.2-2.2c-.4-.8-1.2-1.2-2.1-1.2h-18.7c-1.3,0-2.4,1.1-2.4,2.4h0v35.8c0,1.4,1.1,2.5,2.5,2.5,0,0,0,0,0,0h42.5c1.4,0,2.5-1.1,2.5-2.4,0,0,0,0,0,0v-31.2c0-1.3-1.1-2.4-2.4-2.4h-18.9c-.7,0-1.4-.4-1.8-1.1Z"/>
  <path class="st3" d="M297.8,311.4l-1.2-2.2c-.4-.8-1.2-1.2-2.1-1.2h-18.7c-1.3,0-2.4,1.1-2.4,2.4h0v35.8c0,1.4,1.1,2.5,2.5,2.5,0,0,0,0,0,0h42.5c1.4,0,2.5-1.1,2.5-2.4,0,0,0,0,0,0v-31.2c0-1.3-1.1-2.4-2.4-2.4h-18.9c-.7,0-1.4-.4-1.8-1.1Z"/>
  <rect class="st7" x="278.7" y="313.9" width="36.3" height="27.1"/>
  <rect class="st4" x="278.7" y="313.9" width="36.3" height="27.1"/>
  <rect class="st7" x="276.1" y="316.6" width="41.5" height="31"/>
  <rect class="st1" x="276.1" y="316.6" width="41.5" height="31"/>
  <path class="st0" d="M325,317.4h-24.9c-1,0-2,.3-2.8,1.1-.7.8-1,1.1-1.6,2-.6.6-1.4,1-2.3.9h-24.3c-1.7,0-2.8.9-2.5,2,2.4,9.2,3.6,13.8,5.9,23,.4,1.3,1.6,2.1,3,2.1h42.1c1.3,0,2.5-.8,3-2.1l6.9-27c.3-1.1-.9-2-2.6-2Z"/>
  <g class="st6">
    <path class="st2" d="M325,317.4h-24.9c-1,0-2,.3-2.8,1.1-.7.8-1,1.1-1.6,2-.6.6-1.4,1-2.3.9h-24.3c-1.7,0-2.8.9-2.5,2,2.4,9.2,3.6,13.8,5.9,23,.4,1.3,1.6,2.1,3,2.1h42.1c1.3,0,2.5-.8,3-2.1l6.9-27c.3-1.1-.9-2-2.6-2Z"/>
  </g>
  <path class="st0" d="M382.4,311.4l-1.2-2.2c-.4-.8-1.2-1.2-2.1-1.2h-18.7c-1.3,0-2.4,1.1-2.4,2.4h0v35.8c0,1.3,1.1,2.4,2.4,2.5,0,0,0,0,0,0h42.5c1.3,0,2.4-1.1,2.5-2.4,0,0,0,0,0,0v-31.2c0-1.3-1.1-2.4-2.4-2.4h-18.9c-.8,0-1.5-.4-1.8-1.1Z"/>
  <path class="st3" d="M382.4,311.4l-1.2-2.2c-.4-.8-1.2-1.2-2.1-1.2h-18.7c-1.3,0-2.4,1.1-2.4,2.4h0v35.8c0,1.3,1.1,2.4,2.4,2.5,0,0,0,0,0,0h42.5c1.3,0,2.4-1.1,2.5-2.4,0,0,0,0,0,0v-31.2c0-1.3-1.1-2.4-2.4-2.4h-18.9c-.8,0-1.5-.4-1.8-1.1Z"/>
  <rect class="st7" x="363.3" y="313.9" width="36.3" height="27.1"/>
  <rect class="st4" x="363.3" y="313.9" width="36.3" height="27.1"/>
  <rect class="st7" x="360.7" y="316.6" width="41.5" height="31"/>
  <rect class="st1" x="360.7" y="316.6" width="41.5" height="31"/>
  <path class="st0" d="M409.6,317.4h-24.9c-1,0-2,.3-2.8,1.1-.7.8-1,1.1-1.6,2-.6.6-1.4.9-2.2.9h-24.3c-1.7,0-2.8.9-2.5,2,2.4,9.2,3.6,13.8,5.9,23,.4,1.3,1.6,2.1,3,2.1h42.1c1.3,0,2.5-.8,3-2.1l6.9-27c.3-1.1-.9-2-2.6-2Z"/>
  <g class="st6">
    <path class="st2" d="M409.6,317.4h-24.9c-1,0-2,.3-2.8,1.1-.7.8-1,1.1-1.6,2-.6.6-1.4.9-2.2.9h-24.3c-1.7,0-2.8.9-2.5,2,2.4,9.2,3.6,13.8,5.9,23,.4,1.3,1.6,2.1,3,2.1h42.1c1.3,0,2.5-.8,3-2.1l6.9-27c.3-1.1-.9-2-2.6-2Z"/>
  </g>
  <path class="st0" d="M465.1,311.4l-1.2-2.2c-.4-.8-1.2-1.2-2.1-1.2h-18.7c-1.3,0-2.4,1.1-2.4,2.4h0v35.8c0,1.3,1.1,2.4,2.4,2.5,0,0,0,0,0,0h42.5c1.4,0,2.5-1.1,2.5-2.5v-31.2c0-1.3-1.1-2.4-2.4-2.4h-18.9c-.7,0-1.4-.4-1.8-1.1Z"/>
  <path class="st3" d="M465.1,311.4l-1.2-2.2c-.4-.8-1.2-1.2-2.1-1.2h-18.7c-1.3,0-2.4,1.1-2.4,2.4h0v35.8c0,1.3,1.1,2.4,2.4,2.5,0,0,0,0,0,0h42.5c1.4,0,2.5-1.1,2.5-2.5v-31.2c0-1.3-1.1-2.4-2.4-2.4h-18.9c-.7,0-1.4-.4-1.8-1.1Z"/>
  <rect class="st7" x="445.9" y="313.9" width="36.3" height="27.1"/>
  <rect class="st4" x="445.9" y="313.9" width="36.3" height="27.1"/>
  <rect class="st7" x="443.3" y="316.6" width="41.5" height="31"/>
  <rect class="st1" x="443.3" y="316.6" width="41.5" height="31"/>
  <path class="st0" d="M492.3,317.4h-24.9c-1,0-2,.3-2.8,1.1-.7.8-1,1.1-1.6,2-.6.6-1.4.9-2.2.9h-24.3c-1.7,0-2.8.9-2.5,2,2.4,9.2,3.6,13.8,5.9,23,.4,1.3,1.6,2.1,3,2.1h42.1c1.3,0,2.5-.8,3-2.1,2.3-9,4.6-18,6.9-27,.3-1.1-.9-2-2.6-2Z"/>
  <g class="st6">
    <path class="st2" d="M492.3,317.4h-24.9c-1,0-2,.3-2.8,1.1-.7.8-1,1.1-1.6,2-.6.6-1.4.9-2.2.9h-24.3c-1.7,0-2.8.9-2.5,2,2.4,9.2,3.6,13.8,5.9,23,.4,1.3,1.6,2.1,3,2.1h42.1c1.3,0,2.5-.8,3-2.1,2.3-9,4.6-18,6.9-27,.3-1.1-.9-2-2.6-2Z"/>
  </g>
</svg>