<?xml version="1.0" encoding="UTF-8"?>
<svg id="Layer_1" xmlns="http://www.w3.org/2000/svg" version="1.1" viewBox="0 0 750 500">
  <!-- Generator: Adobe Illustrator 29.1.0, SVG Export Plug-In . SVG Version: 2.1.0 Build 142)  -->
  <defs>
    <style>
      .st0 {
        fill: #004a99;
      }

      .st1 {
        opacity: .9;
      }

      .st1, .st2, .st3, .st4 {
        fill: #fff;
      }

      .st1, .st3, .st5, .st4 {
        isolation: isolate;
      }

      .st6 {
        opacity: .6;
      }

      .st7 {
        fill: #263238;
      }

      .st8 {
        fill: #ffbe9d;
      }

      .st3 {
        opacity: .3;
      }

      .st9 {
        fill: #e0e0e0;
      }

      .st5 {
        opacity: .4;
      }

      .st10 {
        fill: #455a64;
      }

      .st11 {
        fill: #fafafa;
      }

      .st4 {
        opacity: .8;
      }

      .st12 {
        fill: #eb996e;
      }
    </style>
  </defs>
  <g id="freepik--Device--inject-9">
    <rect class="st7" x="93.2" y="44" width="539.9" height="357" rx="14.6" ry="14.6"/>
    <path class="st7" d="M70.6,374.6h584.9v7.3c0,13.3-10.7,23.8-23.8,23.8H94.5c-13.3,0-23.8-10.7-23.8-23.8v-7.3h-.1Z"/>
    <rect class="st9" x="107.6" y="58.3" width="509.4" height="301.5"/>
    <polygon class="st10" points="309.9 374.6 317.2 386.2 419.4 386.2 426.1 374.6 309.9 374.6"/>
    <rect class="st10" x="118.2" y="68.4" width="489.4" height="290.3" rx="3.3" ry="3.3"/>
    <rect class="st11" x="118.2" y="89.7" width="489.4" height="269"/>
    <path class="st0" d="M158.3,79.6c0,2.1-1.8,3.9-3.9,3.9s-3.9-1.8-3.9-3.9,1.8-3.9,3.9-3.9,3.9,1.8,3.9,3.9h0Z"/>
    <path class="st0" d="M134.6,79.6c0,2.1-1.8,3.9-3.9,3.9s-3.9-1.8-3.9-3.9,1.8-3.9,3.9-3.9,3.9,1.8,3.9,3.9h0Z"/>
    <path class="st0" d="M146.1,79.6c0,2.1-1.8,3.9-3.9,3.9s-3.9-1.8-3.9-3.9,1.8-3.9,3.9-3.9,3.9,1.8,3.9,3.9h0Z"/>
    <path class="st7" d="M484.3,201.7h1.5c.4,0,1-.3,1.8-.4.9-.1,1.6-.4,2.4-.7,2.2-.9,4.3-2.2,6-4,1-1,1.9-2.4,2.7-3.7.7-1.5,1.3-3.3,1.6-4.9,1.5-8.9-4.5-17.3-13.4-18.9-.4,0-.7,0-1.2-.1h-244.3c-7.7,0-14.3,5.5-15.9,13.1-.4,2.4-.4,4.9.1,7.3,1.9,7.1,8.5,12.2,15.9,12.1h219.4c0,.1,23.1.1,23.1.1h-86.2c0,.1-93.7.1-93.7.1h-62.6c-2.5,0-4.9-.4-7.1-1.5-4.6-2.1-8.2-6.3-9.4-11.2-1.3-5.1-.3-10.4,3-14.4,3.3-4.2,8.2-6.6,13.4-6.6h244.4c9.2.9,15.9,9.1,14.9,18.3-.1,2.1-.9,4.2-1.8,6.1-.7,1.3-1.6,2.7-2.7,3.7-1.8,1.8-3.7,3.1-6.1,4-.7.3-1.6.6-2.5.7-.7,0-1.3.1-1.8.3-.9.3-1.5.3-1.5.3v.3h0Z"/>
    <path class="st0" d="M484.3,201.7h-31.7v-33.1h31.7c9.1,0,16.5,7.4,16.5,16.5h0c0,9.1-7.4,16.5-16.5,16.5Z"/>
    <path class="st2" d="M478.7,182s0-.6-.3-1.5c-.4-1.3-1.2-2.5-2.4-3.3-2.7-1.9-6.4-1.5-8.3,1.2-1.9,2.7-1.5,6.4,1.2,8.3.4.3.9.6,1.5.7,1.9.7,4,.4,5.7-.7,1-.9,1.9-1.9,2.2-3.3.3-.9.3-1.5.3-1.5v1.6c-.3,1.5-1,2.7-2.2,3.6-1.8,1.3-4.2,1.8-6.3,1-3.4-1.2-5.2-5.1-4-8.5.6-1.9,2.1-3.3,4-4,2.1-.7,4.5-.4,6.3,1,1.2.9,1.9,2.2,2.2,3.6v1.6h.1Z"/>
    <path class="st2" d="M487.2,192.6c-1.8-.7-3.6-1.8-5.1-3-1.6-1-3.3-2.2-4.8-3.6,3.6,1.8,6.9,4,9.8,6.6h0Z"/>
    <path class="st10" d="M245.6,194.5c-.3-3.1-.4-6.3-.3-9.4,0-3.1,0-6.3.3-9.4.3,3.1.4,6.3.3,9.4,0,3.1,0,6.3-.3,9.4Z"/>
    <rect class="st10" x="312.6" y="129.8" width="100.5" height="8.5"/>
    <path class="st10" d="M628.5,374.6c0,.1-119.9.3-267.7.3s-267.7,0-267.7-.3,119.8-.3,267.7-.3,267.7.1,267.7.3Z"/>
  </g>
  <g id="freepik--Floor--inject-9">
    <path class="st7" d="M742,405.9c0,.1-164.3.4-367,.4s-367-.1-367-.4,164.3-.4,367-.4,367,.1,367,.4Z"/>
  </g>
  <g id="freepik--Character--inject-9">
    <path class="st8" d="M552.2,209.1s1.2-13.1,2.5-13,1.5,2.4,1.3,3.6,0,5.5,0,5.5l-3.7,3.9h-.1Z"/>
    <path class="st7" d="M664.4,198.4l-6.3,44.1,28.9,126.3-79.8,6.4,34.4-203.5s22.8-2.5,22.8,26.7h0Z"/>
    <polygon class="st8" points="566.2 420.8 561.6 472.9 581.3 472.9 590.1 420.8 566.2 420.8"/>
    <path class="st8" d="M561.6,472.9s-13.3,1.8-15.6,3.4l34.9-.4.6-3h-19.8Z"/>
    <polygon class="st0" points="546 476.4 546 477.7 581.9 477.4 581.9 475.8 546 476.4"/>
    <path class="st0" d="M558.6,477.1c-.1,0-.7-1-1.9-1.8s-2.4-1-2.2-1.3,1.3-.3,2.7.7,1.6,2.4,1.5,2.4Z"/>
    <path class="st0" d="M581.7,471.9c0,.1-2.4.7-5.1,1.9s-4.6,2.7-4.8,2.7c1.2-1.5,2.7-2.5,4.5-3.3,1.6-.9,3.6-1.3,5.4-1.3h0Z"/>
    <path class="st0" d="M581,471c-6.4,0-13-.1-19.4-1,3.3-.1,6.4,0,9.7.1,3.3,0,6.6.3,9.7.9Z"/>
    <path class="st0" d="M583.2,464.1c-3.6,1-7,1.8-10.7,2.2-3.6.7-7.1,1.3-10.7,1.6,3.6-1,7-1.8,10.7-2.2,3.6-.7,7.1-1.3,10.7-1.6Z"/>
    <path class="st0" d="M582.9,464.4c-.9,0-1.8-.1-2.5-.6-.9-.3-1.8-.9-2.5-1.3-.4-.3-.9-.7-1.3-1-.3-.3-.4-.6-.6-.9v-1.2c.3-.3.7-.6,1-.4.3,0,.6,0,.9.3.6.1,1,.4,1.5.9.7.6,1.5,1.3,2.1,2.1s.9,1.6.9,2.5c0,0-.3-.9-1.3-2.2-.6-.7-1.2-1.3-1.9-1.9-.4-.3-.9-.6-1.3-.7-.4-.3-1-.3-1.2,0,0,.4,0,.9.4,1.2.4.3.7.7,1.2,1,.7.6,1.6,1,2.4,1.3,1.5.7,2.4.9,2.4,1h0Z"/>
    <path class="st0" d="M582.8,464.9c-.4-.7-.6-1.6-.4-2.5,0-.9.3-1.9.6-2.7,0-.6.4-1,.9-1.5,0-.3.3-.4.6-.7s.6-.4,1-.4.7.3,1,.7v1c0,.4,0,1.2-.3,1.6-.3.9-.7,1.8-1.3,2.5-.4.7-1.2,1.3-2.1,1.6,0,0,.7-.6,1.6-1.9.4-.7.9-1.6,1-2.4v-1.5c0-.4,0-1-.6-1s-.7.6-1,.9c-.3.4-.6.9-.7,1.3-.3.9-.6,1.6-.7,2.5v2.5h.4Z"/>
    <path class="st0" d="M585.5,472.9c-.9-1.2-1.5-2.5-1.9-4-.6-1.3-.9-3-.7-4.5.6,1.3,1,2.8,1.3,4.2.6,1.3,1,2.8,1.3,4.2h0Z"/>
    <path class="st0" d="M587.7,471.1c-2.7-1.6-4.8-4.2-5.7-7.1,0,0,1.2,1.8,2.7,3.7s3,3.3,2.8,3.6h.1Z"/>
    <polygon class="st8" points="639.8 425 680.2 457 689.7 443 653.7 403.7 639.8 425"/>
    <path class="st8" d="M677.4,457.7s-6.3,11.9-6.1,14.7l19.7-28.7-2.2-2.2-11.3,16.1h0Z"/>
    <polygon class="st0" points="671.1 472.6 672.3 473.4 692.6 443.7 691.4 443 671.1 472.6"/>
    <path class="st0" d="M679,462.6c0,.1-1.2,0-2.5.6s-2.2,1.3-2.4,1.2.6-1.3,2.2-1.8,2.8,0,2.8,0h-.1Z"/>
    <path class="st0" d="M687.9,440.8s-.7,2.4-1.3,5.4-.3,5.4-.6,5.5c-.7-3.7,0-7.6,1.9-10.7h0Z"/>
    <path class="st0" d="M686.9,439.9c-1.5,2.5-3.3,4.9-5.1,7.1-1.8,2.4-3.6,4.6-5.7,6.7,1.5-2.5,3.3-4.9,5.1-7.1,1.6-2.4,3.6-4.6,5.7-6.7Z"/>
    <path class="st0" d="M682.6,435.1c-1,3-2.2,6-3.7,8.9-1.2,3-2.7,5.8-4.3,8.6,1-3,2.2-6,3.7-8.9,1.2-3,2.7-5.8,4.3-8.6Z"/>
    <path class="st0" d="M682.6,435.5s-.6.9-1.9,1.8c-.7.6-1.6,1-2.5,1.3-.6.1-1,.4-1.6.6h-1c-.4,0-.7-.4-.9-.7,0-.4,0-.9.3-1.2.3-.3.4-.4.7-.6,1.3-.9,2.8-1.3,4.5-1.2.9,0,1.8.1,2.5.7,0,0-1-.3-2.5-.1-1.5,0-2.8.4-4.2,1.3-.4.3-.9.7-.7,1,.3.4.7.6,1.2.3.6,0,1-.3,1.6-.4.9-.3,1.8-.7,2.5-1.2,1.3-.9,2.1-1.5,2.2-1.5h-.1Z"/>
    <path class="st0" d="M682.9,435.8c-.9,0-1.8-.4-2.4-1-.7-.6-1.5-1.3-1.9-2.1-.3-.4-.6-1-.7-1.5,0-.3,0-.6-.3-.9v-1.2c.3-.3.7-.4,1.2-.4s.6.1.9.4c.4.3.9.7,1.2,1.2.6.7,1,1.6,1.3,2.5s.3,1.8,0,2.7c0-.9-.3-1.6-.6-2.4-.3-.9-.7-1.6-1.3-2.4-.3-.4-.7-.7-1.2-1s-.9-.4-1.2,0,0,.9,0,1.3.4.9.6,1.3c.4.7,1,1.5,1.8,2.1,1.2,1,2.1,1.3,2.1,1.5h.6Z"/>
    <path class="st0" d="M691.1,438.4c-1.5,0-3,0-4.5-.7-1.5-.3-3-1-4.2-1.9,2.8.7,5.7,1.6,8.5,2.5h.1Z"/>
    <path class="st0" d="M690.9,435.4c-1.3.7-3,1-4.5,1-1.6.1-3.1,0-4.6-.6,0-.1,2.1,0,4.6,0s4.5-.6,4.6-.4h-.1Z"/>
    <path class="st0" d="M600.9,267.8s-15.5,102.5-13.1,107.4,52.1,56.2,52.1,56.2l18.8-32s-33.1-36.6-32.6-38.6,23.8-101.1,23.8-101.1l-49,8.2h0Z"/>
    <path class="st0" d="M604.4,394.6l13.1-28.9,15.2-32.5c-9.2,13.3-17.1,27.6-23.4,42.4-2.5,6.1-4.2,12.4-4.9,18.9h0Z"/>
    <path class="st5" d="M604.4,394.6l13.1-28.9,15.2-32.5c-9.2,13.3-17.1,27.6-23.4,42.4-2.5,6.1-4.2,12.4-4.9,18.9h0Z"/>
    <path class="st0" d="M595.4,305.5c0-1,12.5-29,12.5-29l-6.1-8.5-1-.3-5.5,37.8h.1Z"/>
    <path class="st5" d="M595.4,305.5c0-1,12.5-29,12.5-29l-6.1-8.5-1-.3-5.5,37.8h.1Z"/>
    <path class="st0" d="M658.6,258.1l.9,3.9c2.8,11.2,1,23.1-4.8,33.1l-41.9,72.5c-3,5.2-5.1,10.7-6.4,16.5l-10.4,46.8s-32.9,1-34.3,0,4.2-32.2,8-55.6c2.8-17.7,26.5-72.7,38-98.6l-7.1-8.8,12.4-2.1,45.4-7.6h.1Z"/>
    <path class="st7" d="M596.2,430.8c-.4,0-.9.1-1.3.1-.9,0-2.1.1-3.7.3-3.1.1-7.4.3-12.2.3s-9.1-.1-12.2-.3c-1.6,0-2.8-.1-3.7-.1s-.9,0-1.3-.1h33.2c.4-.1.9,0,1.3,0h0Z"/>
    <path class="st7" d="M598,421.8c0,.1-7.9.3-17.6.3s-17.7-.1-17.7-.4,7.9-.3,17.7-.3,17.6.1,17.6.4Z"/>
    <path class="st7" d="M652.9,392.5c0,.4-.4.9-.7,1.3l-2.1,3.4-7.1,11.2-7,11.2-2.2,3.4c-.3.4-.6.9-.9,1.2,0-.4.4-.9.6-1.3.4-.9,1.2-2.1,1.9-3.4,1.6-3,4.2-6.9,6.9-11.3s5.4-8.2,7.3-11c.9-1.3,1.8-2.5,2.4-3.3.3-.4.6-.7.9-1v-.3h.1Z"/>
    <path class="st7" d="M637.9,428.4c-.7-1.3-1.3-2.8-1.6-4.3-.6-1.5-.9-3-.9-4.5.7,1.3,1.3,2.8,1.6,4.3.6,1.5.9,3,.9,4.5Z"/>
    <path class="st7" d="M640.9,428.4c-.7-2.4-1.2-4.8-1.5-7.1-.4-2.4-.7-4.9-.9-7.3,1.2,4.8,2.1,9.7,2.4,14.6h0Z"/>
    <path class="st7" d="M644.6,422.9c-.7-2.1-1.3-4.2-1.8-6.3-.6-2.1-1-4.2-1.3-6.4.9,1.9,1.6,4,2.1,6.3.6,2.1,1,4.3,1,6.4Z"/>
    <path class="st7" d="M647.9,415.4c-.7-1.9-1.3-4-1.5-6.1-.6-2.1-.9-4.2-.9-6.3.7,1.9,1.2,4,1.5,6.1.4,2.1.7,4.2.9,6.3Z"/>
    <path class="st7" d="M652,409.2c-.6-1.9-1-4-1.5-6-.6-1.9-1-4-1.3-6.1.9,1.8,1.6,3.9,1.9,6,.6,1.9.9,4,.9,6.1h0Z"/>
    <path class="st7" d="M655.8,403.8c-.7-1.5-1.3-3.1-1.6-4.9-.6-1.6-.9-3.3-.9-5.1,1.2,3.1,2.1,6.6,2.5,10h0Z"/>
    <path class="st7" d="M579.1,421.5c-2.7,1.6-5.4,3.1-8.2,4.5-2.7,1.5-5.5,3-8.2,4.3.7-.6,1.5-1.2,2.2-1.6,1.3-.9,3.4-2.1,5.8-3.3s4.3-2.2,6-3c.7-.4,1.6-.7,2.5-.9h-.1Z"/>
    <path class="st7" d="M589.2,421.7c-.7.6-1.6,1.2-2.5,1.6-1.6.9-4,2.2-6.6,3.4s-5.1,2.4-6.7,3.1c-.9.4-1.9.7-3,1,.9-.6,1.8-1,2.7-1.5l6.7-3.3,6.7-3.3c.9-.4,1.8-.9,2.8-1.3h-.1Z"/>
    <path class="st7" d="M596.9,421.7c-1.9,1.9-4.2,3.7-6.4,5.4-2.2,1.8-4.6,3.3-7,4.5,2.1-1.8,4.3-3.6,6.6-5.1,2.2-1.8,4.5-3.3,6.9-4.8Z"/>
    <path class="st7" d="M597.8,426.6c0,.1-1.2,1.3-2.8,2.7-.9.9-2.1,1.6-3.3,2.1.7-1,1.8-1.9,2.8-2.7.9-.9,2.1-1.6,3.3-2.1Z"/>
    <path class="st7" d="M570.1,421.4c-1.3,1.2-2.7,2.1-4.2,3-1.5,1-3,1.8-4.6,2.4,2.7-2.1,5.7-3.9,8.8-5.2h0Z"/>
    <path class="st7" d="M607.1,276.3c-.4,1.6-1,3.1-1.8,4.6-1.2,2.7-2.7,6.7-4.3,11s-3.1,8.2-4.2,11c-.4,1.5-1,3.1-1.8,4.6,0-.4,0-.9.3-1.3.3-.7.6-1.9,1-3.4.9-2.8,2.4-6.9,4-11.2,1.6-4.3,3.3-8.2,4.6-10.9.6-1.3,1.2-2.5,1.5-3.3,0-.4.3-.7.6-1.2h0Z"/>
    <path class="st7" d="M603.6,397.9v-.7c0-.6,0-1.3.3-2.4s.3-2.2.6-3.6.6-3,1-4.8c.3-.9.4-1.8.7-2.7s.6-1.9.9-3c.6-2.1,1.5-4.2,2.2-6.4,1.9-4.8,4.2-9.5,6.6-14.1,4.5-8.3,9.5-16.2,14.9-24,2.1-3,3.7-5.4,4.9-7l1.3-1.9c0-.3.3-.4.6-.6,0,.3-.3.4-.4.7-.3.4-.7,1.2-1.3,1.9l-4.8,7.1c-3.9,6-9.4,14.4-14.7,24-2.4,4.6-4.6,9.2-6.6,14-.9,2.2-1.6,4.3-2.4,6.4-.3,1-.7,1.9-.9,3s-.6,1.8-.7,2.7c-.6,1.8-.9,3.3-1.2,4.8s-.6,2.7-.7,3.6-.3,1.6-.4,2.2v.9h.3-.1Z"/>
    <path class="st2" d="M644.6,171.9l-32.3,2.7s-9.7.1-20.3,24.7l-7.6,24.4,13.7,3v1.3l2.7,39.8,58.4-9.4c0-5.1-2.7-12.4-4.9-19.2,2.2-5.5,11.5-29.2,11.3-40.7,0-24.4-21.2-26.5-21.2-26.5"/>
    <path class="st7" d="M658.6,399.1c0,.4-.3.9-.6,1.3-.4.9-1,2.1-1.9,3.6-1.6,3-4,7-6.6,11.3l-6.9,11.2-2.1,3.4c0,.4-.4.9-.9,1.2,0-.4.3-.9.6-1.3.4-.9,1-2.1,1.9-3.6,1.6-3,4-7,6.6-11.3l6.7-11.2,2.1-3.4c.3-.4.6-.7.9-1.2h.1Z"/>
    <path class="st2" d="M651,230.3c-1.5.7-3,1-4.6,1.2-1.5.3-3.1.3-4.8,0,1.5-.4,3.1-.6,4.6-.7,1.5-.3,3.1-.4,4.6-.4h.1Z"/>
    <path class="st10" d="M600.9,228.2l-.6,43,17.4-98.2c-5.8-1-16.7,3.6-20.7,9.4-3,3.4-4.5,11.5-12.7,35.4l-4.9,16.4-20.3-22.2-13.6,12.4s23.5,38.4,33.4,40.5c13.4,2.8,22-36.8,22-36.8"/>
    <path class="st7" d="M603.8,188.4v1.6c0,1.2-.4,2.7-.7,4.5-.6,3.9-1.3,9.1-2.1,15-.7,6-1.2,11.2-1.6,15,0,1.8-.3,3.3-.4,4.6,0,.6,0,1.2-.3,1.6v-6.3c0-3.9.7-9.2,1.3-15.2s1.6-11.2,2.4-15c.3-1.9.7-3.4.9-4.5,0-.6.3-1,.4-1.6h.1Z"/>
    <path class="st2" d="M599.3,186.5c0-.1,2.7-1.3,5.7-3.3s5.4-3.9,5.5-3.6c-3,3.3-6.9,5.7-11.2,6.9h0Z"/>
    <path class="st2" d="M593.7,215c-.7-1.6-1.2-3.3-1.6-4.9-.6-1.6-1.2-3.3-1.5-4.9,1.8,3,3,6.4,3.3,9.8h-.1Z"/>
    <path class="st2" d="M607.8,199.5c0,1.9,0,3.9-.4,5.7-.3,1.9-.7,3.7-1.6,5.5.3-1.9.6-3.7,1-5.7.3-1.9.6-3.7,1-5.7h0Z"/>
    <path class="st2" d="M588.1,237c0,1.6,0,3.4-.4,5.1,0,1.6-.3,3.4-.6,5.1-.4-3.4,0-6.9,1-10.1h0Z"/>
    <path class="st2" d="M562.4,236.7c-1.5-1.6-2.7-3.4-3.7-5.5-1.2-1.9-1.9-4-2.4-6.1,1.2,1.9,2.1,3.9,3.1,5.8,1.2,1.9,2.1,3.9,3.1,5.8h-.1Z"/>
    <path class="st2" d="M577.1,237.7c-1,1-2.4,1.8-3.7,2.4-1.3.7-2.8,1.2-4.3,1.3,1.2-.7,2.5-1.5,4-1.9,1.3-.7,2.7-1.3,4-1.8Z"/>
    <polygon class="st10" points="647.1 251.3 657.3 371.6 687.8 368.7 658.9 242.4 662.3 208.5 647.1 251.3"/>
    <path class="st7" d="M657.3,371.6s-2.4-26.7-5.1-59.6c-2.5-32.9-4.5-59.6-4.3-59.6s2.4,26.7,5.1,59.6c2.5,32.9,4.5,59.6,4.3,59.7h0Z"/>
    <path class="st2" d="M654.4,254.1c0-1.3.6-2.7,1.3-4,.4-1.3,1-2.5,1.9-3.7-.6,2.7-1.8,5.4-3.3,7.6h0Z"/>
    <path class="st2" d="M662.8,272s-1.6-1.6-3.9-3.6c-1.3-1-2.7-2.2-3.9-3.4,1.6.6,3.1,1.6,4.3,2.8,1.3,1,2.5,2.5,3.3,4h.1Z"/>
    <path class="st2" d="M661,296.1c.6-1.5,1.2-2.8,1.9-4.2.4-1.5,1-2.8,1.8-4.2,0,1.6-.4,3.1-1.2,4.5-.6,1.5-1.3,2.8-2.5,3.9h0Z"/>
    <path class="st2" d="M667.5,315.5c-3-1.9-5.7-4.3-7.9-6.9,1.5.9,2.8,1.9,4.2,3.1,1.5,1,2.7,2.2,3.9,3.7h-.1Z"/>
    <path class="st2" d="M673,328.7c-.4-3.9-.4-7.7,0-11.6.3,1.9.4,3.9.3,5.8,0,1.9,0,3.9-.4,5.8h.1Z"/>
    <path class="st2" d="M663.2,337.8c-.4-1.5-.6-3.1-.7-4.6-.3-1.5-.4-3.1-.4-4.6.7,1.5,1.2,3,1.2,4.6.3,1.5.3,3.1,0,4.8h0Z"/>
    <path class="st2" d="M673.3,349.3c-3,0-5.8-.4-8.6-1.3,1.5,0,3,0,4.3.3,1.5,0,2.8.4,4.3,1h0Z"/>
    <path class="st2" d="M671.5,364.6c1.5-3,3.3-5.8,5.5-8.2-.6,1.5-1.5,3-2.4,4.3-.9,1.5-1.9,2.8-3.1,3.9h0Z"/>
    <path class="st7" d="M602.3,265.9l-51.2-69.7c3-2.4,5.8-4.9,8.5-7.7,26.7-28.4,25-73.1-3.4-99.6-28.4-26.7-73.1-25-99.6,3.4-26.7,28.4-25,73.1,3.4,99.6,11.8,11,27,17.6,43,18.8,2.5.1,5.1.3,7.6,0,10.3-.3,20.3-2.8,29.5-7.4l51.7,70.5c2.2,3,6.3,3.6,9.2,1.3h0c3-2.2,3.6-6.3,1.5-9.2h-.1ZM509.9,197.5h-6.1c-31.6-2.2-55.3-29.6-53-61.2,2.1-29.2,25.9-52.1,55.3-53.2h6.3c31.6,2.4,55.3,29.8,52.9,61.4-2.2,29.2-25.9,52-55.3,53h0Z"/>
    <path class="st10" d="M581.9,227.9l-6.1,20.7s31.7,11.6,49,11.3c16.1-.1,20.7-2.1,26.4-15,5.7-13,12.1-28,13.6-36.6,0,0,9.1-39.6-25.6-36l-.9,31s-3.9,12.7-4.2,13.4c-2.5,6.9-6,16.8-9.2,18.2s-42.9-6.9-42.9-6.9h0Z"/>
    <path class="st7" d="M631.8,244.6c-2.5-3-4.6-6.4-6-10.1,1.2,1.6,2.2,3.3,3.1,4.9,1,1.6,2.1,3.4,2.8,5.2Z"/>
    <path class="st7" d="M635.1,241.3c-1.6-.9-3.3-1.9-4.6-3.1-1.5-1-3-2.2-4.2-3.7,1.6.9,3.3,1.9,4.6,3.1,1.5,1,3,2.2,4.2,3.7Z"/>
    <path class="st7" d="M645.8,184.9c-1,3.3-2.2,6.6-3.7,9.7-1.2,3.3-2.7,6.4-4.3,9.4,1-3.3,2.2-6.6,3.6-9.7,1.2-3.3,2.7-6.4,4.3-9.4h.1Z"/>
    <path class="st7" d="M663.4,214.4c0,.6-.3,1-.4,1.6-.4,1.2-.9,2.5-1.3,4.2-1.3,3.6-3,8.5-5.1,13.7s-4.2,10.1-5.8,13.6c-.7,1.6-1.5,3.1-1.9,4-.3.4-.4.9-.9,1.3,0-.6.3-1,.6-1.5.4-1,1-2.5,1.8-4.2,1.5-3.4,3.6-8.2,5.7-13.6,2.1-5.4,3.9-10.1,5.4-13.7s1.3-3.1,1.6-4.2c0-.4.4-.9.6-1.3h-.1Z"/>
    <path class="st7" d="M612.3,233.9c0,.1-6.9-.9-15.5-2.4-8.5-1.5-15.3-3-15.3-3.1s6.9.9,15.5,2.4c8.6,1.5,15.3,3,15.3,3.1Z"/>
    <path class="st2" d="M648.3,215c-.4-3.7-.3-7.4,0-11.2.3,1.8.4,3.7.3,5.7,0,1.9,0,3.7-.4,5.7h.1Z"/>
    <path class="st2" d="M636,253.1c.4-1.5,1.2-2.8,1.8-4.2.4-1.5,1-2.8,1.8-4.2,0,1.6-.4,3.1-1.2,4.5-.6,1.5-1.3,2.8-2.5,3.9h.1Z"/>
    <path class="st2" d="M619.1,252c-1.9-3.1-3.7-6.4-5.4-9.7,1.3,1.3,2.4,2.8,3.3,4.6,1,1.6,1.8,3.3,2.1,5.1h0Z"/>
    <path class="st2" d="M595.9,241.3c-1.3.9-3,1.6-4.5,2.2-1.5.7-3.1,1.2-4.8,1.5,1.3-.9,3-1.6,4.5-2.2,1.5-.7,3.1-1.2,4.8-1.5Z"/>
    <path class="st2" d="M661.1,192.8s-1.6-1.3-3.9-3-4.2-2.4-4.2-2.5c1.6.3,3.1,1,4.5,1.9,1.5.9,2.7,2.1,3.4,3.6h.1Z"/>
    <path class="st2" d="M651.1,226.9c-3.6,1.3-7.3,1.8-11,1.3,1.8-.4,3.7-.6,5.5-.7,1.8-.3,3.7-.6,5.5-.6Z"/>
    <path class="st0" d="M647.9,120.8c1.9-3.4,6-5.2,9.8-4,3.7,1.2,6.6,4.2,7.7,7.9,1,3.7,1.2,7.6,0,11.5-.6,2.7-1.3,6,.4,8s4.9,1.9,6.9,3.6c1.9,1.8,2.1,4.8.4,6.7-1.8,1.9-4.8,2.1-6.7.4,0,0-.3-.3-.4-.4,0,1.9,1,3.7,1.6,5.5s.7,4.2-.7,5.4c-1.2.9-2.7,1-4,.4s-2.5-1.5-3.4-2.5c.7,1.9.7,4.2,0,6.1s-2.5,3.4-4.6,3.9c-2.7.1-5.2-1.2-6.4-3.6-1-2.4-1.5-4.9-1.2-7.6.3-4,1.3-7.9,1.8-11.9.7-4,0-8.2-1.5-11.8"/>
    <path class="st0" d="M671.3,144.2h-.6c-.4,0-1-.4-1.2-.9-.4-.7,0-1.8.6-2.2.9-.7,2.2-.6,3.1.1,1,.9,1.3,2.4.9,3.7,0,.7-.6,1.3-1,1.9-.6.6-1.3.9-2.2.9s-1.6,0-2.4-.6c-.7-.4-1.3-1-1.8-1.8-.9-1.5-1.2-3.4-.9-5.1.4-3.6,2.2-6.6,2.2-9.5s-.7-5.2-2.1-7.4c-.9-1.5-2.1-2.8-3.6-3.9-1-.7-1.6-1-1.6-1h.4c.4.3.9.6,1.3.9,1.5,1,2.8,2.2,3.9,3.9,1.5,2.2,2.2,4.9,2.2,7.7s-1.6,6.3-2.1,9.5c-.3,1.6,0,3.3.7,4.6.7,1.3,2.1,2.1,3.6,2.1s2.4-1,2.7-2.4c.4-1,0-2.4-.7-3.1s-1.8-.7-2.5-.3c-.6.4-.9,1.2-.6,1.8,0,.4.6.7,1,.9h.6Z"/>
    <path class="st8" d="M639.4,173.1l1.8-42-16.7-12.7-15.2,7.4s-.4,19.1,0,27.3c.4,8.2,8.8,9.1,8.8,9.1,0,0,0,4.8-.4,10,0,6,4.5,11,10.4,11.2h.4c5.7,0,10.4-4.6,10.6-10.3h.3Z"/>
    <path class="st7" d="M611.1,139.7c0,.6.4,1,1,1s1-.4,1-1-.4-1-1-1-1,.4-1,1Z"/>
    <path class="st7" d="M610,138.5s.9-.6,2.1-.6,1.9.4,2.1.3,0-.3-.4-.6c-1-.7-2.4-.6-3.3.1-.3.3-.4.6-.4.6h0Z"/>
    <path class="st7" d="M623.3,139.7c0,.6.4,1,1,1s1-.4,1-1-.4-1-1-1-1,.4-1,1h0Z"/>
    <path class="st7" d="M622.5,138.5s.9-.6,2.1-.6,1.9.4,2.1.3,0-.3-.4-.6c-1-.7-2.4-.6-3.3.1-.3.3-.4.6-.4.6h0Z"/>
    <path class="st2" d="M622.2,149.3c-1.8.9-3.6,1.5-5.5,1.9.9,1.2,2.4,1.6,3.7,1,1.2-.3,2.1-1.5,1.8-2.8h0Z"/>
    <path class="st12" d="M618.2,162.2c3.9-.1,7.7-1.5,10.9-3.7,0,0-2.5,6.1-10.7,5.7v-2.1h-.1Z"/>
    <path class="st0" d="M665.3,154.8c-1,0-2.1-.1-3-.7-1.3-.7-2.5-1.8-3.3-3.1-.9-1.6-1.8-3.4-2.4-5.2-1.5-3.9-2.7-7.4-3.4-10l-.3-1.2v-1.2c-4.5-17.3-19.7-20.4-22.6-20.4s-8.8-1.8-17,6.7c-1.2,1.3-2.2,2.7-3.1,4.3-1.8,2.2-3.1,4.9-3.6,7.7-.4,1.3-.4,2.8,0,4.2,0,0,0-1.5.7-4,.4-1.3.9-2.8,1.6-4-.7,3.1-.4,6.6.9,9.5l3-.7,10.6-3.6c-.9-3.3.4-7.3,1.2-9.2h0c1.2,7,6.9,12.4,13.9,13.4l1.9,27.1c14-3,13.7-21.7,13.6-25.5.6,2.1,1.5,4.6,2.5,7.1.7,1.8,1.5,3.6,2.5,5.4.9,1.5,2.1,2.5,3.6,3.3,1,.4,2.1.6,3.3.4.4,0,.7-.1,1.2-.4h-1.8Z"/>
    <path class="st7" d="M618.5,148.2c-.6,0-1.2-.1-1.8-.3-.3,0-.6,0-.6-.3v-.9l.7-2.4c.6-1.6,1-3.3,1.3-4.3,0-.6.3-1.2.4-1.8-.3.6-.6,1-.9,1.6-.4,1-.9,2.5-1.3,4.3l-.7,2.4v1.2c0,.1.3.3.4.4h2.4Z"/>
    <path class="st8" d="M642.1,147.8c0-1.3,0-2.8.4-4.2.4-1.3,1.6-2.4,3-2.5,1.6,0,3.1,1,3.4,2.7,0,1.6-.6,3.1-2.1,4-1.5.7-3.1.7-4.6,0"/>
    <path class="st12" d="M644.4,146.6h1c.7-.3,1.2-.9,1.2-1.8s0-.7-.3-1c-.3-.1-.6-.3-.9-.3-.6,0-1,.1-1,0s.3-.4,1-.6c.4,0,1,0,1.3.3.4.4.6,1,.6,1.6s-.3,1-.6,1.5c-.3.3-.7.6-1.2.6-.7,0-1.2-.3-1-.4h-.1Z"/>
    <path class="st7" d="M647,147.8s.6.4.6,1.5-.3,1.2-.7,1.6c-.6.6-1.3.7-2.2.7-.7-.1-1.5-.6-1.9-1.3-.3-.6-.4-1.2,0-1.9.3-1,1-1.3,1-1.3,0,0-.4.4-.6,1.3,0,1.2.4,2.2,1.6,2.4.6,0,1.3,0,1.8-.4.4-.3.6-.7.7-1.3v-1.5.3h-.3Z"/>
    <path class="st0" d="M642.2,142.1c-.3.3-.6.4-1,.6-1,.4-2.2.7-3.3.7-1.8,0-3.4-.4-4.9-1.2-1.8-1-3.4-2.4-4.6-4.2-2.1-3.1-3.3-6.9-3.7-10.6,0-1.3-.3-2.5-.3-3.3v-1.2c.3,1.5.6,3,.9,4.5.4,3.6,1.8,7.1,3.7,10.1,1,1.6,2.5,3,4.3,4,1.5.7,3,1.2,4.6,1.3,1.5,0,3-.3,4.5-.9h-.1Z"/>
    <path class="st7" d="M651.4,130.2s-.9-2.4-2.4-4.9-3.6-4.2-3.4-4.3c1.6.9,3,2.4,4,4,1,1.6,1.8,3.4,1.8,5.4h0Z"/>
    <path class="st8" d="M576.5,246.7h-4.9c-4.5-.4-6.9-.4-8.2-1.6-1.6-1.6.6-3.1.6-3.1,0,0-3.1-1-2.8-3,.1-1.3,1.6-1.5,1.6-1.5,0,0-2.7-1-3.4-2.2-.7-1.6,1.2-2.4,1.2-2.4-3.9-2.4-3.4-4.8-2.5-4.9s3.9,1.2,3.9,1.2c2.5.7,9.4,2.8,6.9-1-2.5-3.9-3.1-7.7-2.5-8.8.3-.7,1-1,1.8-.7.6.3.9.7.9,1.3.4,1.5,1,3,1.8,4.3.6,1,1.3,2.1,2.2,2.8,1,.9,2.1,1.8,2.8,2.4l4.3,4.2-3.9,13.4.3-.3h0Z"/>
    <path class="st8" d="M546.3,198.1c.3-1,1.2-1.8,2.2-1.3h0c.4.4.4,1,.3,1.6l-3,9.8h0l2.8-6.9c.3-1,1.3-1.6,1.9-1,.3.4.4,1,.3,1.6l-2.5,8,2.1-5.1c.4-1.2.9-1.5,1.5-1.2s.6,1,.4,1.6l-1.8,6c.4,1.2,1.6,4.8.4,6.9v.6l.6.7-3.9,3.6s-3.7-9.2-4.3-12.1c-.4-1.6-.3-3.3.1-4.9l2.7-7.7v-.3h0Z"/>
  </g>
  <path class="st0" d="M248.1,266.9l-1.8-3.3c-.6-1.2-1.8-1.8-3.1-1.8h-27.9c-1.9,0-3.6,1.6-3.6,3.6h0v53.3c0,2.1,1.6,3.7,3.7,3.7h63.3c2.1,0,3.7-1.6,3.7-3.6h0v-46.5c0-1.9-1.6-3.6-3.6-3.6h-28.2c-1,0-2.1-.6-2.7-1.6v-.3Z"/>
  <path class="st3" d="M248.1,266.9l-1.8-3.3c-.6-1.2-1.8-1.8-3.1-1.8h-27.9c-1.9,0-3.6,1.6-3.6,3.6h0v53.3c0,2.1,1.6,3.7,3.7,3.7h63.3c2.1,0,3.7-1.6,3.7-3.6h0v-46.5c0-1.9-1.6-3.6-3.6-3.6h-28.2c-1,0-2.1-.6-2.7-1.6v-.3Z"/>
  <rect class="st7" x="219.7" y="270.7" width="54.1" height="40.4"/>
  <rect class="st4" x="219.7" y="270.7" width="54.1" height="40.4"/>
  <rect class="st7" x="215.8" y="274.7" width="61.8" height="46.2"/>
  <rect class="st1" x="215.8" y="274.7" width="61.8" height="46.2"/>
  <path class="st0" d="M288.6,275.9h-37.1c-1.5,0-3,.4-4.2,1.6-1,1.2-1.5,1.6-2.4,3-.9.9-2.1,1.5-3.4,1.3h-36.2c-2.5,0-4.2,1.3-3.7,3,3.6,13.7,5.4,20.6,8.8,34.3.6,1.9,2.4,3.1,4.5,3.1h62.7c1.9,0,3.7-1.2,4.5-3.1l10.3-40.2c.4-1.6-1.3-3-3.9-3h.1Z"/>
  <g class="st6">
    <path class="st2" d="M288.6,275.9h-37.1c-1.5,0-3,.4-4.2,1.6-1,1.2-1.5,1.6-2.4,3-.9.9-2.1,1.5-3.4,1.3h-36.2c-2.5,0-4.2,1.3-3.7,3,3.6,13.7,5.4,20.6,8.8,34.3.6,1.9,2.4,3.1,4.5,3.1h62.7c1.9,0,3.7-1.2,4.5-3.1l10.3-40.2c.4-1.6-1.3-3-3.9-3h.1Z"/>
  </g>
  <path class="st0" d="M374.1,266.9l-1.8-3.3c-.6-1.2-1.8-1.8-3.1-1.8h-27.9c-1.9,0-3.6,1.6-3.6,3.6h0v53.3c0,1.9,1.6,3.6,3.6,3.7h63.3c1.9,0,3.6-1.6,3.7-3.6h0v-46.5c0-1.9-1.6-3.6-3.6-3.6h-28.2c-1.2,0-2.2-.6-2.7-1.6v-.3Z"/>
  <path class="st3" d="M374.1,266.9l-1.8-3.3c-.6-1.2-1.8-1.8-3.1-1.8h-27.9c-1.9,0-3.6,1.6-3.6,3.6h0v53.3c0,1.9,1.6,3.6,3.6,3.7h63.3c1.9,0,3.6-1.6,3.7-3.6h0v-46.5c0-1.9-1.6-3.6-3.6-3.6h-28.2c-1.2,0-2.2-.6-2.7-1.6v-.3Z"/>
  <rect class="st7" x="345.7" y="270.7" width="54.1" height="40.4"/>
  <rect class="st4" x="345.7" y="270.7" width="54.1" height="40.4"/>
  <rect class="st7" x="341.8" y="274.7" width="61.8" height="46.2"/>
  <rect class="st1" x="341.8" y="274.7" width="61.8" height="46.2"/>
  <path class="st0" d="M414.6,275.9h-37.1c-1.5,0-3,.4-4.2,1.6-1,1.2-1.5,1.6-2.4,3-.9.9-2.1,1.3-3.3,1.3h-36.2c-2.5,0-4.2,1.3-3.7,3,3.6,13.7,5.4,20.6,8.8,34.3.6,1.9,2.4,3.1,4.5,3.1h62.7c1.9,0,3.7-1.2,4.5-3.1l10.3-40.2c.4-1.6-1.3-3-3.9-3Z"/>
  <g class="st6">
    <path class="st2" d="M414.6,275.9h-37.1c-1.5,0-3,.4-4.2,1.6-1,1.2-1.5,1.6-2.4,3-.9.9-2.1,1.3-3.3,1.3h-36.2c-2.5,0-4.2,1.3-3.7,3,3.6,13.7,5.4,20.6,8.8,34.3.6,1.9,2.4,3.1,4.5,3.1h62.7c1.9,0,3.7-1.2,4.5-3.1l10.3-40.2c.4-1.6-1.3-3-3.9-3Z"/>
  </g>
  <path class="st0" d="M497.3,266.9l-1.8-3.3c-.6-1.2-1.8-1.8-3.1-1.8h-27.9c-1.9,0-3.6,1.6-3.6,3.6h0v53.3c0,1.9,1.6,3.6,3.6,3.7h63.3c2.1,0,3.7-1.6,3.7-3.7v-46.5c0-1.9-1.6-3.6-3.6-3.6h-28.2c-1,0-2.1-.6-2.7-1.6h.1Z"/>
  <path class="st3" d="M497.3,266.9l-1.8-3.3c-.6-1.2-1.8-1.8-3.1-1.8h-27.9c-1.9,0-3.6,1.6-3.6,3.6h0v53.3c0,1.9,1.6,3.6,3.6,3.7h63.3c2.1,0,3.7-1.6,3.7-3.7v-46.5c0-1.9-1.6-3.6-3.6-3.6h-28.2c-1,0-2.1-.6-2.7-1.6h.1Z"/>
  <rect class="st7" x="468.7" y="270.7" width="54.1" height="40.4"/>
  <rect class="st4" x="468.7" y="270.7" width="54.1" height="40.4"/>
  <rect class="st7" x="464.8" y="274.7" width="61.8" height="46.2"/>
  <rect class="st1" x="464.8" y="274.7" width="61.8" height="46.2"/>
  <path class="st0" d="M537.8,275.9h-37.1c-1.5,0-3,.4-4.2,1.6-1,1.2-1.5,1.6-2.4,3-.9.9-2.1,1.3-3.3,1.3h-36.2c-2.5,0-4.2,1.3-3.7,3,3.6,13.7,5.4,20.6,8.8,34.3.6,1.9,2.4,3.1,4.5,3.1h62.7c1.9,0,3.7-1.2,4.5-3.1,3.4-13.4,6.9-26.8,10.3-40.2.4-1.6-1.3-3-3.9-3Z"/>
  <g class="st6">
    <path class="st2" d="M537.8,275.9h-37.1c-1.5,0-3,.4-4.2,1.6-1,1.2-1.5,1.6-2.4,3-.9.9-2.1,1.3-3.3,1.3h-36.2c-2.5,0-4.2,1.3-3.7,3,3.6,13.7,5.4,20.6,8.8,34.3.6,1.9,2.4,3.1,4.5,3.1h62.7c1.9,0,3.7-1.2,4.5-3.1,3.4-13.4,6.9-26.8,10.3-40.2.4-1.6-1.3-3-3.9-3Z"/>
  </g>
</svg>